<?xml version="1.0" encoding="UTF-8"?>
<svg fill="none" stroke-linecap="square" stroke-miterlimit="10" version="1.1" viewBox="0.0 150.0 960.0 380.0" xmlns="http://www.w3.org/2000/svg">
<clipPath id="a">
<path d="m0 0h960v720h-960v-720z"/>
</clipPath>
<g clip-path="url(#a)">
<path d="m0 0h960v720h-960z" fill="#000" fill-opacity="0" fill-rule="evenodd"/>
<path d="m546.32 360c0-91.444 84.876-165.57 189.57-165.57 104.7 0 189.57 74.13 189.57 165.57s-84.876 165.57-189.57 165.57c-104.7 0-189.57-74.13-189.57-165.57z" fill="#777" fill-opacity="0.5" fill-rule="evenodd"/>
<path d="m546.32 360c0-91.444 84.876-165.57 189.57-165.57 104.7 0 189.57 74.13 189.57 165.57s-84.876 165.57-189.57 165.57c-104.7 0-189.57-74.13-189.57-165.57z" fill-rule="evenodd" stroke="#000" stroke-linecap="butt" stroke-linejoin="round"/>
<path d="m702.07 254.34q0-3.3281 1.7812-5.2031 1.7812-1.8906 4.6094-1.8906 1.8438 0 3.3281 0.89062 1.4844 0.875 2.2656 2.4688 0.78125 1.5781 0.78125 3.5781 0 2.0313-0.82812 3.6406-0.8125 1.5938-2.3125 2.4219t-3.25 0.82812q-1.875 0-3.3594-0.90625-1.4844-0.92188-2.25-2.5t-0.76562-3.3281zm1.8125 0.015625q0 2.4219 1.2969 3.8125t3.2656 1.3906q2 0 3.2812-1.4062t1.2812-3.9844q0-1.625-0.54688-2.8438t-1.6094-1.875q-1.0625-0.67188-2.375-0.67188-1.8906 0-3.25 1.2969-1.3438 1.2812-1.3438 4.2812zm13.215 6.4844v-13.359h1.8125l7.0156 10.484v-10.484h1.6875v13.359h-1.8125l-7.0156-10.5v10.5h-1.6875zm13.41 0v-13.359h1.7812v11.781h6.5625v1.5781h-8.3438zm10.751 0v-13.359h1.7656v13.359h-1.7656zm4.8708 0v-13.359h1.8125l7.0156 10.484v-10.484h1.6875v13.359h-1.8125l-7.0156-10.5v10.5h-1.6875zm13.52 0v-13.359h9.6562v1.5781h-7.875v4.0938h7.375v1.5625h-7.375v4.5469h8.1875v1.5781h-9.9688z" fill="#000"/>
<path d="m34.531 360c0-36.216 34.823-65.575 77.78-65.575 42.956 0 77.78 29.359 77.78 65.575 0 36.216-34.823 65.575-77.78 65.575-42.956 0-77.78-29.359-77.78-65.575z" fill="#cfe2f3" fill-rule="evenodd"/>
<path d="m34.531 360c0-36.216 34.823-65.575 77.78-65.575 42.956 0 77.78 29.359 77.78 65.575 0 36.216-34.823 65.575-77.78 65.575-42.956 0-77.78-29.359-77.78-65.575z" fill-rule="evenodd" stroke="#000" stroke-linecap="butt" stroke-linejoin="round"/>
<path d="m71.026 366.92v-13.359h1.7656v13.359h-1.7656zm4.8708 0v-13.359h1.8125l7.0156 10.484v-10.484h1.6875v13.359h-1.8125l-7.0156-10.5v10.5h-1.6875zm12.02 0l5.125-13.359h1.9062l5.4688 13.359h-2.0156l-1.5469-4.0469h-5.5938l-1.4688 4.0469h-1.875zm3.8594-5.4844h4.5312l-1.4062-3.7031q-0.625-1.6875-0.9375-2.7656-0.26562 1.2812-0.71875 2.5469l-1.4688 3.9219zm19.584 0.79688l1.7656 0.45312q-0.5625 2.1719-2 3.3281-1.4375 1.1406-3.5312 1.1406-2.1562 0-3.5156-0.875-1.3438-0.89062-2.0625-2.5469-0.70312-1.6719-0.70312-3.5938 0-2.0781 0.79688-3.625 0.79688-1.5625 2.2656-2.3594 1.4844-0.8125 3.25-0.8125 2 0 3.3594 1.0156 1.375 1.0156 1.9062 2.875l-1.7344 0.40625q-0.46875-1.4531-1.3594-2.1094-0.875-0.67188-2.2031-0.67188-1.5469 0-2.5781 0.73438t-1.4531 1.9844q-0.42188 1.2344-0.42188 2.5625 0 1.7031 0.5 2.9688t1.5469 1.9062q1.0469 0.625 2.2656 0.625 1.4844 0 2.5156-0.85938t1.3906-2.5469zm7.3479 4.6875v-11.781h-4.4062v-1.5781h10.578v1.5781h-4.4062v11.781h-1.7656zm8.2866 0v-13.359h1.7656v13.359h-1.7656zm8.6989 0l-5.1719-13.359h1.9219l3.4688 9.7031q0.42188 1.1719 0.70312 2.1875 0.3125-1.0938 0.71875-2.1875l3.6094-9.7031h1.7969l-5.2344 13.359h-1.8125zm8.6623 0v-13.359h9.6562v1.5781h-7.875v4.0938h7.375v1.5625h-7.375v4.5469h8.1875v1.5781h-9.9688z" fill="#000"/>
<path d="m271.52 460c0-36.216 34.823-65.575 77.78-65.575 42.956 0 77.78 29.359 77.78 65.575 0 36.216-34.823 65.575-77.78 65.575-42.956 0-77.78-29.359-77.78-65.575z" fill="#cfe2f3" fill-rule="evenodd"/>
<path d="m271.52 460c0-36.216 34.823-65.575 77.78-65.575 42.956 0 77.78 29.359 77.78 65.575 0 36.216-34.823 65.575-77.78 65.575-42.956 0-77.78-29.359-77.78-65.575z" fill-rule="evenodd" stroke="#000" stroke-linecap="butt" stroke-linejoin="round"/>
<path d="m318.63 466.92v-13.359h5.9219q1.7812 0 2.7031 0.35938 0.9375 0.35938 1.4844 1.2812 0.5625 0.90625 0.5625 2.0156 0 1.4062-0.92188 2.3906-0.92188 0.96875-2.8438 1.2344 0.70312 0.34375 1.0781 0.67188 0.76562 0.70312 1.4531 1.7656l2.3281 3.6406h-2.2188l-1.7656-2.7812q-0.78125-1.2031-1.2812-1.8281-0.5-0.64062-0.90625-0.89062-0.39062-0.26562-0.79688-0.35938-0.29688-0.078125-0.98438-0.078125h-2.0469v5.9375h-1.7656zm1.7656-7.4531h3.7969q1.2188 0 1.8906-0.25 0.6875-0.26562 1.0469-0.8125t0.35938-1.1875q0-0.95312-0.6875-1.5625t-2.1875-0.60938h-4.2188v4.4219zm11.707 7.4531v-13.359h9.6562v1.5781h-7.875v4.0938h7.375v1.5625h-7.375v4.5469h8.1875v1.5781h-9.9688zm10.944 0l5.125-13.359h1.9062l5.4688 13.359h-2.0156l-1.5469-4.0469h-5.5938l-1.4688 4.0469h-1.875zm3.8594-5.4844h4.5312l-1.4062-3.7031q-0.625-1.6875-0.9375-2.7656-0.26562 1.2812-0.71875 2.5469l-1.4688 3.9219zm10.053 5.4844v-13.359h4.6094q1.5469 0 2.375 0.20312 1.1406 0.25 1.9531 0.95312 1.0625 0.89062 1.5781 2.2812 0.53125 1.3906 0.53125 3.1719 0 1.5156-0.35938 2.7031-0.35938 1.1719-0.92188 1.9375-0.54688 0.76562-1.2031 1.2188-0.65625 0.4375-1.5938 0.67188-0.9375 0.21875-2.1406 0.21875h-4.8281zm1.7656-1.5781h2.8594q1.3125 0 2.0625-0.23438 0.75-0.25 1.2031-0.70312 0.625-0.625 0.96875-1.6875 0.35938-1.0625 0.35938-2.5781 0-2.0938-0.6875-3.2188t-1.6719-1.5q-0.70312-0.28125-2.2812-0.28125h-2.8125v10.203zm15.473 1.5781v-5.6562l-5.1562-7.7031h2.1562l2.6406 4.0312q0.71875 1.125 1.3438 2.2656 0.60938-1.0469 1.4688-2.3594l2.5781-3.9375h2.0625l-5.3281 7.7031v5.6562h-1.7656z" fill="#000"/>
<path d="m271.52 260c0-36.216 34.823-65.575 77.78-65.575 42.956 0 77.78 29.359 77.78 65.575 0 36.216-34.823 65.575-77.78 65.575-42.956 0-77.78-29.359-77.78-65.575z" fill="#cfe2f3" fill-rule="evenodd"/>
<path d="m271.52 260c0-36.216 34.823-65.575 77.78-65.575 42.956 0 77.78 29.359 77.78 65.575 0 36.216-34.823 65.575-77.78 65.575-42.956 0-77.78-29.359-77.78-65.575z" fill-rule="evenodd" stroke="#000" stroke-linecap="butt" stroke-linejoin="round"/>
<path d="m310.82 260.42q0-3.3281 1.7812-5.2031 1.7812-1.8906 4.6094-1.8906 1.8438 0 3.3281 0.89062 1.4844 0.875 2.2656 2.4688 0.78125 1.5781 0.78125 3.5781 0 2.0312-0.82812 3.6406-0.8125 1.5938-2.3125 2.4219t-3.25 0.82812q-1.875 0-3.3594-0.90625-1.4844-0.92188-2.25-2.5t-0.76562-3.3281zm1.8125 0.015625q0 2.4219 1.2969 3.8125t3.2656 1.3906q2 0 3.2812-1.4062t1.2812-3.9844q0-1.625-0.54688-2.8438t-1.6094-1.875q-1.0625-0.67188-2.375-0.67188-1.8906 0-3.25 1.2969-1.3438 1.2812-1.3438 4.2812zm13.324 6.4844v-13.359h9.0156v1.5781h-7.25v4.1406h6.2656v1.5781h-6.2656v6.0625h-1.7656zm11.396 0v-13.359h9.0156v1.5781h-7.25v4.1406h6.2656v1.5781h-6.2656v6.0625h-1.7656zm11.224 0v-13.359h1.7812v11.781h6.5625v1.5781h-8.3438zm10.751 0v-13.359h1.7656v13.359h-1.7656zm4.8708 0v-13.359h1.8125l7.0156 10.484v-10.484h1.6875v13.359h-1.8125l-7.0156-10.5v10.5h-1.6875zm13.52 0v-13.359h9.6562v1.5781h-7.875v4.0938h7.375v1.5625h-7.375v4.5469h8.1875v1.5781h-9.9688z" fill="#000"/>
<path d="m557.4 338.42c0-24.301 30.839-44 68.882-44 38.042 0 68.882 19.699 68.882 44s-30.839 44-68.882 44c-38.042 0-68.882-19.699-68.882-44z" fill="#cfe2f3" fill-rule="evenodd"/>
<path d="m557.4 338.42c0-24.301 30.839-44 68.882-44 38.042 0 68.882 19.699 68.882 44s-30.839 44-68.882 44c-38.042 0-68.882-19.699-68.882-44z" fill-rule="evenodd" stroke="#000" stroke-linecap="butt" stroke-linejoin="round"/>
<path d="m591.87 344.28h-2.5156l-1-2.6094h-4.5781l-0.95312 2.6094h-2.4531l4.4688-11.453h2.4375l4.5938 11.453zm-4.2656-4.5312l-1.5781-4.25-1.5469 4.25h3.125zm6.8828 4.5312v-9.5156h-3.4062v-1.9375h9.1094v1.9375h-3.3906v9.5156h-2.3125zm9.7734 0v-9.5156h-3.4062v-1.9375h9.1094v1.9375h-3.3906v9.5156h-2.3125zm16.336 0h-2.5156l-1-2.6094h-4.5781l-0.95312 2.6094h-2.4531l4.4688-11.453h2.4375l4.5938 11.453zm-4.2656-4.5312l-1.5781-4.25-1.5469 4.25h3.125zm12.82 0.3125l2.2344 0.71875q-0.51562 1.875-1.7188 2.7969-1.1875 0.90625-3.0312 0.90625-2.2812 0-3.75-1.5625t-1.4688-4.2656q0-2.8594 1.4688-4.4375 1.4844-1.5938 3.8906-1.5938 2.0938 0 3.4062 1.25 0.78125 0.73438 1.1719 2.1094l-2.2812 0.54688q-0.20312-0.89062-0.85938-1.4062-0.64062-0.51562-1.5625-0.51562-1.2656 0-2.0625 0.92188-0.79688 0.90625-0.79688 2.9531 0 2.1719 0.78125 3.0938t2.0312 0.92188q0.92188 0 1.5781-0.57812 0.67188-0.59375 0.96875-1.8594zm4.2266 4.2188v-11.453h2.3125v4.5h4.5312v-4.5h2.3125v11.453h-2.3125v-5.0156h-4.5312v5.0156h-2.3125zm11.477 0v-11.453h2.3125v11.453h-2.3125zm4.5391 0v-11.453h2.25l4.6875 7.6406v-7.6406h2.1562v11.453h-2.3281l-4.6094-7.4688v7.4688h-2.1562zm16.867-4.2188v-1.9219h4.9844v4.5625q-0.73438 0.70312-2.1094 1.25-1.375 0.53125-2.7969 0.53125-1.7969 0-3.1406-0.75-1.3281-0.76562-2-2.1719t-0.67188-3.0469q0-1.7969 0.75-3.1875t2.2031-2.125q1.0938-0.57812 2.7344-0.57812 2.1406 0 3.3281 0.90625 1.2031 0.89062 1.5469 2.4688l-2.2969 0.42188q-0.23438-0.84375-0.90625-1.3281t-1.6719-0.48438q-1.5156 0-2.4062 0.96875-0.89062 0.95312-0.89062 2.8438 0 2.0312 0.90625 3.0625 0.90625 1.0156 2.375 1.0156 0.71875 0 1.4531-0.28125 0.73438-0.29688 1.25-0.70312v-1.4531h-2.6406z" fill="#000"/>
<path d="m776.62 338.44c0-24.301 30.839-44 68.882-44 38.042 0 68.882 19.699 68.882 44s-30.839 44-68.882 44c-38.042 0-68.882-19.699-68.882-44z" fill="#cfe2f3" fill-rule="evenodd"/>
<path d="m776.62 338.44c0-24.301 30.839-44 68.882-44 38.042 0 68.882 19.699 68.882 44s-30.839 44-68.882 44c-38.042 0-68.882-19.699-68.882-44z" fill-rule="evenodd" stroke="#000" stroke-linecap="butt" stroke-linejoin="round"/>
<path d="m814.2 344.3h-2.5156l-1-2.6094h-4.5781l-0.95312 2.6094h-2.4531l4.4688-11.453h2.4375l4.5938 11.453zm-4.2656-4.5312l-1.5781-4.25-1.5469 4.25h3.125zm6.8828 4.5312v-9.5156h-3.4062v-1.9375h9.1094v1.9375h-3.3906v9.5156h-2.3125zm9.7734 0v-9.5156h-3.4062v-1.9375h9.1094v1.9375h-3.3906v9.5156h-2.3125zm16.336 0h-2.5156l-1-2.6094h-4.5781l-0.95312 2.6094h-2.4531l4.4688-11.453h2.4375l4.5938 11.453zm-4.2656-4.5312l-1.5781-4.25-1.5469 4.25h3.125zm12.82 0.3125l2.2344 0.71875q-0.51562 1.875-1.7188 2.7969-1.1875 0.90625-3.0312 0.90625-2.2812 0-3.75-1.5625t-1.4688-4.2656q0-2.8594 1.4688-4.4375 1.4844-1.5938 3.8906-1.5938 2.0938 0 3.4062 1.25 0.78125 0.73438 1.1719 2.1094l-2.2812 0.54688q-0.20312-0.89062-0.85938-1.4062-0.64062-0.51562-1.5625-0.51562-1.2656 0-2.0625 0.92188-0.79688 0.90625-0.79688 2.9531 0 2.1719 0.78125 3.0938t2.0312 0.92188q0.92188 0 1.5781-0.57812 0.67188-0.59375 0.96875-1.8594zm4.2266 4.2188v-11.453h2.3125v4.5h4.5312v-4.5h2.3125v11.453h-2.3125v-5.0156h-4.5312v5.0156h-2.3125zm11.555 0v-11.453h8.4844v1.9375h-6.1719v2.5312h5.75v1.9375h-5.75v3.1094h6.3906v1.9375h-8.7031zm10.656-11.453h4.2344q1.4219 0 2.1719 0.21875 1.0156 0.29688 1.7344 1.0625 0.71875 0.75 1.0938 1.8438t0.375 2.7031q0 1.4219-0.35938 2.4375-0.42188 1.25-1.2188 2.0312-0.60938 0.57812-1.625 0.90625-0.76562 0.25-2.0469 0.25h-4.3594v-11.453zm2.3125 1.9375v7.5781h1.7344q0.96875 0 1.3906-0.10938 0.5625-0.14062 0.9375-0.46875 0.375-0.34375 0.60938-1.1094t0.23438-2.0938-0.23438-2.0312q-0.23438-0.71875-0.65625-1.1094-0.42188-0.40625-1.0781-0.54688-0.48438-0.10938-1.8906-0.10938h-1.0469z" fill="#000"/>
<path d="m667.01 476.36c0-24.301 30.839-44 68.882-44 38.042 0 68.882 19.699 68.882 44 0 24.301-30.839 44-68.882 44-38.042 0-68.882-19.699-68.882-44z" fill="#cfe2f3" fill-rule="evenodd"/>
<path d="m667.01 476.36c0-24.301 30.839-44 68.882-44 38.042 0 68.882 19.699 68.882 44 0 24.301-30.839 44-68.882 44-38.042 0-68.882-19.699-68.882-44z" fill-rule="evenodd" stroke="#000" stroke-linecap="butt" stroke-linejoin="round"/>
<path d="m697.14 482.22v-11.453h2.3125v11.453h-2.3125zm3.9297-3.7344l2.25-0.21875q0.20312 1.1406 0.82812 1.6719t1.6719 0.53125q1.125 0 1.6875-0.46875 0.5625-0.48438 0.5625-1.1094 0-0.40625-0.23438-0.6875-0.23438-0.29688-0.82812-0.5-0.40625-0.14062-1.8594-0.5-1.8594-0.46875-2.6094-1.1406-1.0469-0.9375-1.0469-2.2969 0-0.875 0.48438-1.6406 0.5-0.76562 1.4375-1.1562 0.9375-0.40625 2.25-0.40625 2.1562 0 3.25 0.95312 1.0938 0.9375 1.1406 2.5156l-2.3125 0.10938q-0.14062-0.89062-0.64062-1.2656-0.48438-0.39062-1.4531-0.39062-1.0156 0-1.5781 0.40625-0.375 0.26562-0.375 0.71875 0 0.40625 0.34375 0.6875 0.4375 0.375 2.125 0.78125 1.6875 0.39062 2.5 0.8125t1.2656 1.1719q0.45312 0.73438 0.45312 1.8125 0 0.98438-0.54688 1.8438t-1.5469 1.2812-2.4844 0.42188q-2.1719 0-3.3438-1-1.1562-1.0156-1.3906-2.9375zm10.797-1.9219q0-1.75 0.51562-2.9375 0.39062-0.875 1.0625-1.5625 0.6875-0.70312 1.4844-1.0469 1.0781-0.45312 2.4688-0.45312 2.5312 0 4.0469 1.5781 1.5312 1.5625 1.5312 4.3594 0 2.7812-1.5156 4.3594-1.5 1.5625-4.0312 1.5625-2.5469 0-4.0625-1.5625-1.5-1.5625-1.5-4.2969zm2.375-0.078125q0 1.9375 0.89062 2.9531 0.90625 1 2.2969 1 1.375 0 2.2656-1t0.89062-2.9844q0-1.9688-0.875-2.9375-0.85938-0.96875-2.2812-0.96875-1.4375 0-2.3125 0.98438-0.875 0.96875-0.875 2.9531zm10.602 5.7344v-11.359h2.3125v9.4219h5.75v1.9375h-8.0625zm20.039 0h-2.5156l-1-2.6094h-4.5781l-0.95312 2.6094h-2.4531l4.4688-11.453h2.4375l4.5938 11.453zm-4.2656-4.5312l-1.5781-4.25-1.5469 4.25h3.125zm6.8828 4.5312v-9.5156h-3.4062v-1.9375h9.1094v1.9375h-3.3906v9.5156h-2.3125zm7.1953 0v-11.453h8.4844v1.9375h-6.1719v2.5312h5.75v1.9375h-5.75v3.1094h6.3906v1.9375h-8.7031zm10.656-11.453h4.2344q1.4219 0 2.1719 0.21875 1.0156 0.29688 1.7344 1.0625 0.71875 0.75 1.0938 1.8438t0.375 2.7031q0 1.4219-0.35938 2.4375-0.42188 1.25-1.2188 2.0312-0.60938 0.57812-1.625 0.90625-0.76562 0.25-2.0469 0.25h-4.3594v-11.453zm2.3125 1.9375v7.5781h1.7344q0.96875 0 1.3906-0.10938 0.5625-0.14062 0.9375-0.46875 0.375-0.34375 0.60938-1.1094t0.23438-2.0938-0.23438-2.0312q-0.23438-0.71875-0.65625-1.1094-0.42188-0.40625-1.0781-0.54688-0.48438-0.10938-1.8906-0.10938h-1.0469z" fill="#000"/>
<path d="m167.31 313.63l126.99-7.2756" fill="#000" fill-opacity="0" fill-rule="evenodd"/>
<path d="m167.31 313.63l109.02-6.246" fill-rule="evenodd" stroke="#000" stroke-linecap="butt" stroke-linejoin="round" stroke-width="3"/>
<path d="m276.61 312.33l13.309-5.7258-13.875-4.1684z" fill="#000" fill-rule="evenodd" stroke="#000" stroke-linecap="butt" stroke-width="3"/>
<path d="m427.08 260c75.244 0 150.49 23.654 150.49 47.307" fill="#000" fill-opacity="0" fill-rule="evenodd"/>
<path d="m427.08 260c37.622 0 75.244 5.9134 103.46 14.783 14.108 4.435 25.865 9.6093 34.095 15.153 1.0287 0.69296 2.0023 1.3917 2.9185 2.0955l0.22064 0.17245" fill-rule="evenodd" stroke="#000" stroke-linecap="butt" stroke-linejoin="round" stroke-width="3"/>
<path d="m563.62 294.9l11.565 8.7268-3.2497-14.119z" fill="#000" fill-rule="evenodd" stroke="#000" stroke-linecap="butt" stroke-width="3"/>
<path d="m427.08 460c75.244 0 150.49-45.228 150.49-90.457" fill="#000" fill-opacity="0" fill-rule="evenodd"/>
<path d="m427.08 460c37.622 0 75.244-11.307 103.46-28.268 14.108-8.4803 25.865-18.374 34.095-28.974 2.0574-2.6501 3.8945-5.3444 5.4926-8.0718 0.79913-1.3637 1.5385-2.7356 2.2159-4.1145 0.33868-0.68942 0.66193-1.3806 0.9693-2.0733 0.15369-0.34637 0.30347-0.69312 0.44928-1.0402l0.12231-0.29553" fill-rule="evenodd" stroke="#000" stroke-linecap="butt" stroke-linejoin="round" stroke-width="3"/>
<path d="m578.74 388.18l-2.0647-14.34-7.636 12.312z" fill="#000" fill-rule="evenodd" stroke="#000" stroke-linecap="butt" stroke-width="3"/>
<path d="m271.52 260c-79.606 0-159.21 17.213-159.21 34.425" fill="#000" fill-opacity="0" fill-rule="evenodd"/>
<path d="m271.52 260c-39.803 0-79.606 4.3032-109.46 10.758-14.926 3.2274-27.365 6.9926-36.072 11.027l-0.59659 0.28076" fill-rule="evenodd" stroke="#000" stroke-linecap="butt" stroke-linejoin="round" stroke-width="3"/>
<path d="m121.99 278.46l-6.4949 12.951 13.3-5.7459z" fill="#000" fill-rule="evenodd" stroke="#000" stroke-linecap="butt" stroke-width="3"/>
<path d="m167.31 406.37l126.99 7.2756" fill="#000" fill-opacity="0" fill-rule="evenodd"/>
<path d="m167.31 406.37l109.02 6.246" fill-rule="evenodd" stroke="#000" stroke-linecap="butt" stroke-linejoin="round" stroke-width="3"/>
<path d="m276.05 417.56l13.875-4.1684-13.309-5.7258z" fill="#000" fill-rule="evenodd" stroke="#000" stroke-linecap="butt" stroke-width="3"/>
<path d="m271.52 460c-79.606 0-159.21-17.213-159.21-34.425" fill="#000" fill-opacity="0" fill-rule="evenodd"/>
<path d="m271.52 460c-39.803 0-79.606-4.3032-109.46-10.758-14.926-3.2274-27.365-6.9926-36.072-11.027l-0.59659-0.28076" fill-rule="evenodd" stroke="#000" stroke-linecap="butt" stroke-linejoin="round" stroke-width="3"/>
<path d="m128.8 434.33l-13.3-5.7459 6.4949 12.951z" fill="#000" fill-rule="evenodd" stroke="#000" stroke-linecap="butt" stroke-width="3"/>
<path d="m626.28 382.42l60.913 62.835" fill="#000" fill-opacity="0" fill-rule="evenodd"/>
<path d="m638.81 395.35l35.856 36.987" fill-rule="evenodd" stroke="#000" stroke-linecap="butt" stroke-linejoin="round" stroke-width="3"/>
<path d="m642.37 391.9l-13.034-6.326 5.9183 13.224z" fill="#000" fill-rule="evenodd" stroke="#000" stroke-linecap="butt" stroke-width="3"/>
<path d="m671.11 435.78l13.034 6.326-5.9183-13.224z" fill="#000" fill-rule="evenodd" stroke="#000" stroke-linecap="butt" stroke-width="3"/>
<path d="m845.5 382.44l-60.913 62.803" fill="#000" fill-opacity="0" fill-rule="evenodd"/>
<path d="m832.97 395.36l-35.849 36.961" fill-rule="evenodd" stroke="#000" stroke-linecap="butt" stroke-linejoin="round" stroke-width="3"/>
<path d="m836.53 398.81l5.9216-13.223-13.036 6.3227z" fill="#000" fill-rule="evenodd" stroke="#000" stroke-linecap="butt" stroke-width="3"/>
<path d="m793.57 428.87l-5.9216 13.223 13.036-6.3227z" fill="#000" fill-rule="evenodd" stroke="#000" stroke-linecap="butt" stroke-width="3"/>
<path d="m776.62 338.44h-81.449" fill="#000" fill-opacity="0" fill-rule="evenodd"/>
<path d="m758.62 338.44h-45.449" fill-rule="evenodd" stroke="#000" stroke-linecap="butt" stroke-linejoin="round" stroke-width="3"/>
<path d="m758.62 343.39l13.614-4.9552-13.614-4.9552z" fill="#000" fill-rule="evenodd" stroke="#000" stroke-linecap="butt" stroke-width="3"/>
<path d="m713.17 333.48l-13.614 4.9552 13.614 4.9552z" fill="#000" fill-rule="evenodd" stroke="#000" stroke-linecap="butt" stroke-width="3"/>
<path d="m546.32 360c-71.008 0-142.02-26.819-142.02-53.638" fill="#000" fill-opacity="0" fill-rule="evenodd"/>
<path d="m546.32 360c-35.504 0-71.008-6.7047-97.636-16.762-13.314-5.0285-24.409-10.895-32.175-17.181-0.97079-0.78574-1.8896-1.578-2.7542-2.376-0.43234-0.39899-0.8511-0.79941-1.2561-1.2011l-0.060455-0.060577" fill-rule="evenodd" stroke="#000" stroke-linecap="butt" stroke-linejoin="round" stroke-width="3"/>
<path d="m416.86 320.18l-10.572-9.9059 1.7315 14.384z" fill="#000" fill-rule="evenodd" stroke="#000" stroke-linecap="butt" stroke-width="3"/>
<path d="m546.32 360c-71.008 0-142.02 26.819-142.02 53.638" fill="#000" fill-opacity="0" fill-rule="evenodd"/>
<path d="m546.32 360c-35.504 0-71.008 6.7047-97.636 16.762-13.314 5.0285-24.409 10.895-32.175 17.181-0.97079 0.78574-1.8896 1.578-2.7542 2.3759-0.43234 0.39899-0.8511 0.79944-1.2561 1.2012l-0.060455 0.060547" fill-rule="evenodd" stroke="#000" stroke-linecap="butt" stroke-linejoin="round" stroke-width="3"/>
<path d="m408.02 395.34l-1.7315 14.384 10.572-9.9059z" fill="#000" fill-rule="evenodd" stroke="#000" stroke-linecap="butt" stroke-width="3"/>
<path d="m134.18 255.72l114.96-14.016 2.1102 17.228-114.96 14.016z" fill="#000" fill-opacity="0" fill-rule="evenodd"/>
<path d="m153.77 266.91l-1.1607-9.476 3.2571-0.39713q1.1012-0.13425 1.7077-0.066528 0.82933 0.087769 1.464 0.5141 0.83788 0.54321 1.3317 1.4904 0.49193 0.9317 0.6458 2.1879 0.13298 1.0856-0.028107 1.9553-0.14749 0.85223-0.48236 1.4597-0.32127 0.59009-0.74858 0.957-0.42731 0.36691-1.0733 0.61884-0.63243 0.2345-1.501 0.34039l-3.4122 0.41602zm1.1196-1.2698l2.0163-0.24582q0.93062-0.11346 1.4371-0.34836 0.52005-0.25229 0.80777-0.60217 0.3792-0.50272 0.53618-1.2774 0.15508-0.79019 0.024002-1.8603-0.18237-1.4889-0.77557-2.2193-0.57961-0.74786-1.3098-0.92642-0.52103-0.14111-1.6378-0.0049438l-1.9853 0.24203 0.88715 7.2427zm8.4504 0.10309l-1.1607-9.476 6.8555-0.83582 0.13676 1.1167-5.5992 0.68262 0.35522 2.9002 5.2424-0.63916 0.13678 1.1167-5.2424 0.63916 0.39513 3.2259 5.8163-0.70914 0.13678 1.1167-7.0726 0.86227zm7.7697-0.94727l2.4687-9.9185 1.3494-0.1645 5.0382 9.0033-1.4269 0.17398-1.4527-2.7349-3.9551 0.48218-0.68774 2.9959-1.3339 0.16263zm2.253-4.2256l3.2106-0.39145-1.3137-2.5q-0.59607-1.1394-0.9063-1.8728-0.075943 0.92221-0.29147 1.8615l-0.69914 2.9028zm13.951-1.1185l1.2943 0.15701q-0.1978 1.5982-1.1227 2.5294-0.9249 0.93127-2.4139 1.1128-1.52 0.1853-2.5576-0.31781-1.0376-0.50314-1.6938-1.6194-0.6407-1.1182-0.80788-2.483-0.18047-1.4734 0.24303-2.6426 0.43901-1.1711 1.4079-1.8716 0.98441-0.70241 2.2407-0.85558 1.4114-0.17209 2.4623 0.43961 1.0645 0.59428 1.6137 1.8653l-1.2047 0.44595q-0.45299-0.9994-1.1459-1.3871-0.67931-0.40514-1.6254-0.28979-1.0857 0.13237-1.7656 0.75044-0.66438 0.6162-0.8508 1.5361-0.18831 0.90442-0.072433 1.8505 0.14818 1.2097 0.59958 2.0676 0.46692 0.85602 1.2665 1.215 0.79767 0.34348 1.6662 0.23761 1.0547-0.1286 1.7096-0.82233 0.65489-0.69373 0.75677-1.9182zm5.6181 2.6836l-1.0239-8.3594-3.1175 0.38008-0.13678-1.1167 7.5069-0.91522 0.13676 1.1167-3.133 0.38197 1.0239 8.3594-1.2563 0.15317zm5.8946-0.71866l-1.1607-9.4761 1.2408-0.15128 1.1607 9.4761-1.2408 0.15128zm6.1574-0.7507l-4.8211-9.0298 1.3494-0.16452 3.3096 6.5854q0.39537 0.78604 0.68628 1.4904 0.12216-0.80191 0.32187-1.6133l1.7157-7.198 1.2718-0.15506-2.5462 9.928-1.2873 0.15695zm4.1042-0.50037l2.4687-9.9185 1.3494-0.1645 5.0382 9.0033-1.4269 0.17398-1.4527-2.7349-3.9551 0.48218-0.68774 2.9959-1.3339 0.16263zm2.253-4.2256l3.2106-0.39143-1.3137-2.5q-0.59607-1.1394-0.9063-1.8728-0.075943 0.92221-0.29147 1.8615l-0.69914 2.9028zm9.0324 2.8497l-1.0239-8.3594-3.1176 0.38008-0.13676-1.1167 7.5069-0.91522 0.13678 1.1167-3.1331 0.38197 1.0239 8.3594-1.2563 0.15317zm5.6929-0.69406l-1.1607-9.4761 6.8555-0.8358 0.13676 1.1167-5.5992 0.68263 0.35524 2.9002 5.2424-0.63914 0.13678 1.1167-5.2424 0.63914 0.39513 3.2259 5.8163-0.70911 0.13678 1.1166-7.0726 0.8623z" fill="#000"/>
<path d="m157.6 297.48l115.56-8.2834 1.2598 17.323-115.56 8.2835z" fill="#000" fill-opacity="0" fill-rule="evenodd"/>
<path d="m184.83 309.05l2.9544-9.7831 1.3559-0.097168 4.5887 9.2424-1.4338 0.10278-1.3162-2.8037-3.9742 0.28488-0.83452 2.9579-1.3403 0.096069zm2.4585-4.1082l3.2261-0.23126-1.189-2.5622q-0.53923-1.1675-0.81296-1.9155-0.12129 0.91727-0.38284 1.8446l-0.84132 2.8643zm13.99-0.42319l1.2851 0.22119q-0.27629 1.5863-1.246 2.4704-0.96968 0.88409-2.4658 0.99133-1.5273 0.1095-2.5389-0.44461-1.0116-0.55408-1.612-1.7016-0.58485-1.1486-0.68459-2.52-0.10768-1.4805 0.37291-2.6271 0.49619-1.1478 1.4984-1.7993 1.0179-0.65256 2.2802-0.74304 1.4182-0.10165 2.4378 0.56152 1.034 0.64645 1.52 1.9432l-1.2253 0.38547q-0.40323-1.0207-1.0762-1.4424-0.65852-0.43842-1.6092-0.37027-1.091 0.078217-1.8005 0.66168-0.69395 0.58237-0.92548 1.4919-0.23264 0.89392-0.1635 1.8445 0.088394 1.2155 0.49701 2.0948 0.42418 0.87817 1.2051 1.2765 0.7798 0.38272 1.6526 0.32016 1.0598-0.075958 1.7481-0.73624 0.68829-0.66028 0.85037-1.8781zm5.4793 2.9596l-0.61089-8.3997-3.1326 0.22455-0.081604-1.122 7.5431-0.54071 0.081604 1.122-3.1482 0.22568 0.61089 8.3997-1.2624 0.090485zm5.923-0.42456l-0.69249-9.5218 1.2468-0.089355 0.69249 9.5217-1.2468 0.089386zm6.1871-0.44351l-4.3706-9.2581 1.3559-0.097198 2.9812 6.7416q0.35619 0.80472 0.61206 1.5226 0.16151-0.79483 0.40097-1.5952l2.0683-7.1036 1.278-0.091614-3.0323 9.7888-1.2935 0.092712zm4.124-0.29562l2.9544-9.7831 1.3559-0.097198 4.5887 9.2425-1.4338 0.10275-1.3162-2.8037-3.9742 0.28488-0.83452 2.9579-1.3403 0.096069zm2.4585-4.1082l3.2261-0.23126-1.189-2.5622q-0.53923-1.1676-0.81296-1.9155-0.12129 0.91727-0.38284 1.8446l-0.84132 2.8643zm8.8813 3.2953l-0.61089-8.3997-3.1326 0.22455-0.081604-1.122 7.5432-0.54068 0.081604 1.122-3.1482 0.22565 0.61089 8.3997-1.2624 0.090515zm5.7204-0.41006l-0.69249-9.5217 6.8886-0.49377 0.081604 1.122-5.6262 0.40332 0.21194 2.9142 5.2677-0.37759 0.081604 1.122-5.2677 0.37759 0.23573 3.2415 5.8444-0.41895 0.081604 1.122-7.1068 0.50943z" fill="#000"/>
<path d="m169.47 389.64l115.65 6.6457-0.97638 17.354-115.65-6.6457z" fill="#000" fill-opacity="0" fill-rule="evenodd"/>
<path d="m190.6 404.36l0.53627-9.5318 3.5878 0.20618q0.95155 0.054657 1.4455 0.17694 0.69495 0.16516 1.1445 0.51965 0.46515 0.35538 0.71259 0.96432 0.26303 0.60986 0.22354 1.3119-0.068466 1.2168-0.89583 2.0144-0.81175 0.79849-2.8397 0.68198l-2.4335-0.13983-0.21767 3.8689-1.2635-0.072601zm1.5444-4.9195l2.4491 0.14072q1.2323 0.070831 1.7726-0.35202 0.54111-0.43842 0.58675-1.2496 0.034225-0.6084-0.25406-1.0475-0.27269-0.43823-0.76396-0.60733-0.30672-0.11154-1.1647-0.16083l-2.4335-0.13983-0.19221 3.4165zm7.3463 5.4304l0.53629-9.5318 4.2274 0.24292q1.2635 0.072601 1.9038 0.37546 0.65672 0.28815 1.0098 0.96579 0.36873 0.6785 0.32484 1.4585-0.057053 1.014-0.75172 1.6784-0.69379 0.64877-2.0771 0.75711 0.48514 0.27829 0.73717 0.52753 0.51788 0.53058 0.97404 1.3237l1.5078 2.6847-1.5755-0.090546-1.1521-2.0538q-0.51329-0.89029-0.84663-1.3633-0.31772-0.47214-0.60358-0.67636-0.27025-0.20334-0.54753-0.28189-0.21576-0.059357-0.69934-0.087128l-1.4663-0.084259-0.23785 4.2277-1.2635-0.072601zm1.5628-5.2471l2.7143 0.15598q0.85796 0.049316 1.3512-0.094513 0.49411-0.15942 0.76564-0.5351 0.28712-0.37476 0.31346-0.84277 0.037735-0.67081-0.43686-1.1363-0.45901-0.4646-1.5198-0.52557l-3.0107-0.17297-0.17731 3.1512zm7.9016 1.1427q0.13341-2.3712 1.488-3.6394 1.3546-1.2681 3.3669-1.1525 1.3103 0.075317 2.336 0.76025 1.0256 0.68497 1.5075 1.8552 0.49838 1.1555 0.41763 2.5907-0.08075 1.4352-0.73846 2.5556-0.64125 1.1057-1.7509 1.6366-1.0932 0.51627-2.3412 0.44455-1.3415-0.077087-2.3663-0.77765-1.0239-0.71619-1.5067-1.8708-0.48279-1.1546-0.41257-2.4026zm1.3095 0.090912q-0.096542 1.716 0.76764 2.7673 0.86507 1.0357 2.269 1.1164 1.4195 0.081573 2.3961-0.86398 0.97653-0.94553 1.0801-2.7864 0.064957-1.1544-0.29147-2.0513-0.34084-0.89603-1.0789-1.408-0.72156-0.52664-1.6575-0.58041-1.3415-0.077087-2.3605 0.78775-1.0033 0.86572-1.1245 3.0186zm11.884 5.3155l-3.1452-9.7434 1.3571 0.078003 2.0906 7.0691q0.24986 0.84384 0.41141 1.5887 0.26227-0.76746 0.60254-1.5305l2.9636-6.7786 1.2791 0.073486-4.2645 9.3176-1.2947-0.074371zm6.3792 0.36655l0.53627-9.5318 1.248 0.071716-0.53629 9.5318-1.2479-0.071716zm3.2138-2.8829l1.2073-0.040192q0.037628 0.72211 0.32327 1.208 0.28654 0.47034 0.91031 0.7879 0.63937 0.31845 1.4505 0.36505 0.71758 0.041229 1.2758-0.14578 0.57385-0.18616 0.85924-0.52972 0.28625-0.35916 0.31171-0.81158 0.025452-0.45239-0.22131-0.79526-0.23116-0.34195-0.81076-0.61002-0.3812-0.17841-1.674-0.5657-1.2928-0.3873-1.8074-0.69858-0.65057-0.39737-0.96391-0.94748-0.29774-0.54926-0.26088-1.2045 0.040375-0.71759 0.48106-1.3183 0.44069-0.60071 1.2391-0.88351 0.814-0.28189 1.7812-0.22632 1.0452 0.060059 1.837 0.44989 0.79185 0.3898 1.1909 1.0857 0.39992 0.6803 0.3846 1.5089l-1.2064 0.024597q-0.058289-0.9111-0.59441-1.3958-0.53525-0.50027-1.6272-0.56302-1.1387-0.06543-1.6928 0.32529-0.53847 0.39163-0.57182 0.98444-0.028961 0.51483 0.31139 0.86304 0.35594 0.34912 1.8645 0.79578 1.525 0.43195 2.0726 0.71384 0.82042 0.43842 1.177 1.0536 0.3575 0.59964 0.31361 1.3796-0.04213 0.74881-0.51752 1.4101-0.45892 0.64664-1.3067 0.97354-0.83136 0.31219-1.8453 0.25391-1.2947-0.074371-2.1472-0.49899-0.85249-0.42459-1.3095-1.2021-0.45618-0.79312-0.43382-1.7465zm9.3582 3.6053l0.53627-9.5318 1.2479 0.071716-0.53627 9.5318-1.2479-0.071716zm3.3492-4.4558q0.13341-2.3712 1.488-3.6394 1.3546-1.2681 3.3669-1.1525 1.3103 0.075317 2.336 0.76025 1.0256 0.68497 1.5076 1.8552 0.49837 1.1555 0.41763 2.5907-0.08075 1.4352-0.73848 2.5556-0.64124 1.1057-1.7509 1.6366-1.0932 0.51627-2.3412 0.44455-1.3415-0.077087-2.3663-0.77765-1.0239-0.71619-1.5067-1.8708-0.48279-1.1546-0.41257-2.4026zm1.3095 0.090912q-0.096558 1.716 0.76762 2.7673 0.86507 1.0357 2.269 1.1164 1.4195 0.081573 2.3961-0.86398 0.97653-0.94553 1.0801-2.7864 0.064957-1.1544-0.29147-2.0513-0.34084-0.89603-1.0789-1.408-0.72156-0.52664-1.6575-0.58041-1.3415-0.077087-2.3605 0.78775-1.0033 0.86572-1.1245 3.0186zm9.1542 5.1586l0.53627-9.5318 1.2947 0.074402 4.5861 7.7759 0.4213-7.4882 1.2011 0.069031-0.53629 9.5318-1.2947-0.074371-4.5861-7.7759-0.4213 7.4882-1.2011-0.069031z" fill="#000"/>
<path d="m137.28 428.32l131.02 16.441-2.1417 17.26-131.02-16.441z" fill="#000" fill-opacity="0" fill-rule="evenodd"/>
<path d="m181.26 447.44l1.1756-9.4742 1.2558 0.15759-1.0371 8.3578 4.6665 0.58554-0.13853 1.1165-5.9223-0.74313zm7.4323 0.93259l1.1756-9.4742 6.8525 0.85986-0.13853 1.1164-5.5967-0.70227-0.35982 2.8996 5.2402 0.65756-0.13853 1.1164-5.2402-0.65753-0.40021 3.2253 5.8138 0.72952-0.13853 1.1165-7.0696-0.88712zm7.7664 0.97455l4.8034-9.019 1.3488 0.16925 2.7002 9.9606-1.4263-0.17899-0.74478-3.0067-3.9534-0.49606-1.3947 2.7383-1.3333-0.1673zm3.2115-3.5497l3.2092 0.40271-0.66704-2.7451q-0.30145-1.2504-0.42421-2.0374-0.29765 0.87601-0.73482 1.7345l-1.3831 2.6452zm8.3635 5.0021l-2.4832-9.9333 1.3488 0.16925 1.6107 7.194q0.19258 0.85876 0.3037 1.6129 0.31325-0.74808 0.70403-1.4864l3.4124-6.5637 1.2713 0.15952-4.881 9.0093-1.2868-0.16147zm6.1385 0.77026l1.1756-9.4742 6.8525 0.85986-0.13853 1.1164-5.5967-0.70227-0.3598 2.8996 5.2402 0.65756-0.13855 1.1164-5.2402-0.65753-0.40021 3.2253 5.8138 0.72952-0.13853 1.1165-7.0696-0.88712z" fill="#000"/>
<path d="m438.79 446.83l109.29-38.457 5.7953 16.346-109.29 38.457z" fill="#000" fill-opacity="0" fill-rule="evenodd"/>
<path d="m468.12 450.79l0.25888-10.212 1.2823-0.4512 6.8749 7.7016-1.356 0.47714-2.0124-2.3563-3.7585 1.3225-0.021606 3.072-1.2676 0.44604zm1.2836-4.6093l3.051-1.0736-1.8257-2.1569q-0.82947-0.98355-1.2917-1.6326 0.12595 0.91638 0.11926 1.8795l-0.052948 2.9836zm13.384-4.0966l1.2983-0.12555q0.15363 1.6023-0.54764 2.7104-0.70129 1.1081-2.1163 1.606-1.4444 0.50827-2.5671 0.24075-1.1227-0.26755-2.0059-1.2156-0.86844-0.95328-1.3279-2.2492-0.496-1.3991-0.33609-2.6314 0.17465-1.2375 0.96899-2.1299 0.80908-0.89758 2.003-1.3177 1.3412-0.47195 2.5005-0.10135 1.1687 0.35071 1.981 1.4728l-1.0799 0.6947q-0.65933-0.87778-1.4203-1.107-0.7514-0.24908-1.6505 0.067291-1.0317 0.36304-1.5617 1.1127-0.51523 0.74448-0.49768 1.6824 0.01236 0.92325 0.33084 1.8216 0.40723 1.1487 1.0343 1.8888 0.64182 0.73489 1.5007 0.91302 0.85367 0.16339 1.6791-0.12704 1.0023-0.35266 1.4914-1.1708 0.48914-0.81808 0.32294-2.035zm6.0698 1.4089l-2.8141-7.9378-2.9626 1.0424-0.37592-1.0604 7.1338-2.5102 0.37592 1.0603-2.9773 1.0476 2.8142 7.9378-1.1939 0.4201zm5.6016-1.971l-3.1901-8.9982 1.1791-0.41489 3.1901 8.9981-1.1791 0.41492zm5.8513-2.0589l-6.6685-7.7742 1.2823-0.45123 4.6617 5.7141q0.55676 0.68198 0.99377 1.3067-0.054718-0.80896-0.035736-1.6438l0.1138-7.3945 1.2086-0.42529-0.33258 10.238-1.2233 0.43048zm3.9001-1.3724l0.25885-10.212 1.2823-0.4512 6.8749 7.7016-1.356 0.47714-2.0124-2.3563-3.7585 1.3225-0.021637 3.072-1.2675 0.44601zm1.2836-4.6092l3.051-1.0736-1.8257-2.1569q-0.82947-0.98358-1.2916-1.6326 0.12595 0.91638 0.11923 1.8795l-0.052948 2.9836zm9.4408 0.8356l-2.8141-7.9378-2.9626 1.0424-0.37595-1.0603 7.1338-2.5102 0.37592 1.0603-2.9773 1.0476 2.8141 7.9378-1.1938 0.42007zm5.41-1.9036l-3.1901-8.9982 6.5147-2.2923 0.37592 1.0603-5.3208 1.8723 0.97632 2.7539 4.9819-1.753 0.37592 1.0604-4.9819 1.753 1.086 3.0632 5.5272-1.9449 0.37592 1.0604-6.7211 2.365z" fill="#000"/>
<path d="m409.04 391.57l110.33-35.307 5.2913 16.535-110.33 35.307z" fill="#000" fill-opacity="0" fill-rule="evenodd"/>
<path d="m430.38 398.89l-2.9097-9.0927 3.1251-1.0001q1.0566-0.33813 1.6649-0.38516 0.83099-0.069061 1.534 0.23096 0.92444 0.3768 1.5864 1.2149 0.65717 0.82324 1.0429 2.0287 0.33334 1.0417 0.33749 1.9263 0.014282 0.86493-0.2012 1.5245-0.20535 0.63992-0.55655 1.0804-0.35123 0.44052-0.93875 0.80899-0.57739 0.34882-1.4108 0.61551l-3.2739 1.0477zm0.86252-1.4572l1.9346-0.61911q0.89291-0.28574 1.3465-0.61133 0.46371-0.34528 0.68097-0.74292 0.27859-0.56491 0.28812-1.3554 0.0047607-0.80542-0.32382-1.8322-0.45718-1.4286-1.1762-2.0352-0.70898-0.62622-1.4596-0.66492-0.53812-0.041077-1.6096 0.30182l-1.9048 0.60956 2.2239 6.9497zm8.3196-1.4811l-2.9097-9.0927 6.5777-2.1049 0.34286 1.0715-5.3723 1.7192 0.89053 2.7829 5.03-1.6096 0.34286 1.0715-5.03 1.6096 0.99051 3.0954 5.5806-1.7858 0.3429 1.0715-6.786 2.1716zm7.4548-2.3857l0.57263-10.207 1.2947-0.41434 6.63 7.9021-1.3691 0.43814-1.9376-2.415-3.7948 1.2144-0.11609 3.0722-1.2798 0.40955zm1.4239-4.5735l3.0805-0.98578-1.7572-2.2102q-0.79825-1.0078-1.2399-1.6703 0.097626 0.92029 0.06131 1.8834l-0.14465 2.9829zm13.494-3.7113l1.3007-0.088104q0.10419 1.6072-0.63037 2.6954-0.73456 1.0881-2.1632 1.5453-1.4584 0.46671-2.5715 0.16669-1.1131-0.29999-1.9662-1.2738-0.83813-0.97861-1.2572-2.2882-0.45239-1.4138-0.25476-2.6418 0.21249-1.2328 1.0334-2.1025 0.83572-0.87448 2.0411-1.2602 1.3542-0.43335 2.5007-0.029175 1.1566 0.38452 1.9334 1.5304l-1.1 0.66376q-0.63156-0.89706-1.3846-1.1483-0.74289-0.27084-1.6507 0.019653-1.0417 0.33334-1.5941 1.0679-0.53751 0.72983-0.54883 1.6685-0.016083 0.92386 0.27441 1.8316 0.37146 1.1608 0.97504 1.9191 0.6185 0.7536 1.4709 0.95657 0.84766 0.18811 1.681-0.078583 1.012-0.32382 1.5257-1.1281 0.51373-0.8042 0.38513-2.0263zm6.0195 1.5845l-2.5668-8.0212-2.9912 0.95721-0.3429-1.0715 7.2027-2.3049 0.34286 1.0715-3.0061 0.96198 2.5668 8.0212-1.2054 0.38574zm5.6557-1.8099l-2.9097-9.0927 1.1905-0.38098 2.9097 9.0927-1.1905 0.38098zm5.9078-1.8906l-6.4217-7.9688 1.2947-0.41434 4.4806 5.8503q0.53516 0.69824 0.95242 1.3358-0.029755-0.81076 0.014893-1.6453l0.34106-7.3932 1.2203-0.3905-0.64703 10.231-1.2352 0.39529zm3.9378-1.2602l0.57263-10.207 1.2947-0.41434 6.63 7.9021-1.3691 0.43814-1.9376-2.415-3.7948 1.2144-0.11609 3.0722-1.2798 0.40955zm1.4239-4.5735l3.0805-0.98578-1.7572-2.2102q-0.79825-1.0078-1.2399-1.6703 0.097626 0.92029 0.06131 1.8834l-0.14465 2.9829zm9.4041 1.1084l-2.5668-8.0212-2.9912 0.95721-0.34286-1.0715 7.2027-2.3049 0.34286 1.0715-3.0061 0.96198 2.5668 8.0212-1.2054 0.38574zm5.4622-1.748l-2.9097-9.0927 6.5777-2.105 0.34286 1.0715-5.3723 1.7192 0.89053 2.7829 5.03-1.6096 0.34286 1.0715-5.03 1.6096 0.99051 3.0954 5.5806-1.7859 0.34286 1.0715-6.786 2.1716z" fill="#000"/>
<path d="m397.61 306.33l124.31 44.535-5.8267 16.378-124.31-44.535z" fill="#000" fill-opacity="0" fill-rule="evenodd"/>
<path d="m436.4 334.55l3.2-8.9946 1.1915 0.42685-2.8229 7.9347 4.4276 1.5862-0.37711 1.0599-5.619-2.013zm7.0518 2.5262l3.2-8.9946 6.5016 2.3292-0.37711 1.0599-5.3102-1.9023-0.97937 2.7529 4.9718 1.7811-0.37708 1.0599-4.9718-1.7812-1.0894 3.062 5.5161 1.9761-0.37708 1.0599-6.7076-2.403zm7.3687 2.6398l6.6421-7.7615 1.2797 0.45847 0.47739 10.312-1.3533-0.48483-0.07547-3.0975-3.7509-1.3438-1.9544 2.3704-1.265-0.45319zm3.9035-2.7675l3.0449 1.0908-0.056305-2.8251q-0.023285-1.2864 0.027405-2.0815-0.48029 0.79059-1.093 1.5338l-1.923 2.282zm7.0789 6.7019l-0.27145-10.238 1.2798 0.45847 0.013428 7.3741q0.0019226 0.88034-0.053009 1.6407 0.4678-0.66226 1.0091-1.2982l4.7525-5.6667 1.2062 0.4321-6.7156 7.7352-1.2209-0.43741zm5.8242 2.0865l3.2-8.9946 6.5016 2.3292-0.37711 1.0599-5.3102-1.9023-0.97937 2.7529 4.9718 1.7811-0.37708 1.0599-4.9718-1.7812-1.0894 3.062 5.5161 1.9761-0.37708 1.0599-6.7076-2.403z" fill="#000"/>
<path d="m444.36 238.95l113.45 23.465-3.496 17.039-113.45-23.465z" fill="#000" fill-opacity="0" fill-rule="evenodd"/>
<path d="m463.12 256.61l1.9188-9.3521 3.5193 0.72787q0.93338 0.19305 1.4042 0.38617 0.66342 0.26486 1.0565 0.68123 0.40839 0.41954 0.56445 1.0581 0.17139 0.64177 0.03009 1.3305-0.24496 1.1939-1.1796 1.8622-0.91931 0.67146-2.9085 0.26004l-2.387-0.4937-0.77884 3.7959-1.2394-0.25635zm2.2444-4.6416l2.4023 0.49686q1.2088 0.25002 1.8048-0.089432 0.59915-0.35474 0.76248-1.1507 0.12247-0.59694-0.098755-1.0735-0.20593-0.47339-0.66733-0.71242-0.28717-0.15514-1.1287-0.32919l-2.387-0.4937-0.68774 3.3521zm6.4765 6.4453l1.9188-9.3521 4.1466 0.85765q1.2394 0.25633 1.8286 0.64946 0.6077 0.38098 0.85834 1.103 0.26593 0.72513 0.10889 1.4904-0.20413 0.99489-0.9881 1.5508-0.78082 0.54056-2.165 0.44574 0.43939 0.34616 0.6524 0.62956 0.43506 0.60056 0.77081 1.4518l1.1006 2.8763-1.5454-0.31964-0.84055-2.2002q-0.37811-0.95578-0.63898-1.4724-0.24554-0.5135-0.4986-0.75731-0.23773-0.24063-0.50058-0.35883-0.2048-0.090225-0.67914-0.18834l-1.4383-0.29747-0.85107 4.148-1.2394-0.25635zm2.3103-4.9631l2.6624 0.55066q0.84155 0.17407 1.3504 0.10381 0.51202-0.085571 0.83536-0.41759 0.33862-0.32886 0.43283-0.78804 0.13504-0.65816-0.26666-1.188-0.38641-0.52669-1.4269-0.74188l-2.9531-0.61079-0.63437 3.0918zm7.6503 2.2843q0.47733-2.3265 2.0021-3.3834 1.5248-1.0568 3.4986-0.64856 1.2853 0.26582 2.2002 1.0933 0.91486 0.82745 1.2211 2.0556 0.32474 1.216 0.035828 2.6241-0.28894 1.4082-1.1028 2.4206-0.79538 1.0003-1.9705 1.3635-1.1567 0.35114-2.3808 0.097961-1.3159-0.27219-2.2276-1.1149-0.90857-0.85806-1.218-2.0709-0.30942-1.2128-0.058167-2.4373zm1.2821 0.28116q-0.34543 1.6837 0.35632 2.85 0.70493 1.151 2.082 1.4359 1.3924 0.28796 2.4962-0.50488 1.1038-0.79288 1.4743-2.599 0.23239-1.1327 0.010437-2.0721-0.20667-0.93626-0.86221-1.5505-0.63708-0.6264-1.5552-0.81628-1.3159-0.27217-2.4498 0.43468-1.1187 0.71002-1.5521 2.8223zm10.982 6.9943l-1.6923-10.099 1.3312 0.27533 1.0385 7.2991q0.1243 0.87137 0.1756 1.6319 0.37125-0.72101 0.819-1.4262l3.919-6.2738 1.2547 0.25951-5.5758 8.5957-1.27-0.26266zm6.2573 1.2942l1.9188-9.3521 1.2241 0.25317-1.9188 9.3521-1.2241-0.2532zm3.5991-2.3829l1.2002 0.13654q-0.067963 0.71991 0.14386 1.2424 0.21494 0.50717 0.78577 0.91245 0.58612 0.40842 1.3818 0.573 0.70386 0.14557 1.2834 0.042053 0.59482-0.10037 0.92715-0.39862 0.33551-0.31354 0.42657-0.75742 0.091064-0.44388-0.10309-0.81912-0.17886-0.37204-0.71323-0.72189-0.3511-0.23218-1.5736-0.80414-1.2225-0.57196-1.6862-0.95508-0.58572-0.48813-0.81558-1.0782-0.21454-0.58688-0.082642-1.2297 0.14447-0.70407 0.66791-1.234 0.52344-0.52997 1.3545-0.69318 0.84631-0.16002 1.795 0.036194 1.0252 0.21204 1.7517 0.71335 0.72656 0.50128 1.02 1.2481 0.29654 0.73148 0.16071 1.549l-1.1971-0.15182q0.075043-0.90991-0.3847-1.4677-0.45663-0.57309-1.5277-0.79465-1.117-0.23102-1.722 0.074646-0.58975 0.30884-0.70908 0.89047-0.10364 0.5051 0.18234 0.89932 0.30127 0.39737 1.7285 1.0596 1.4457 0.65005 1.9463 1.0089 0.74777 0.55353 1.011 1.2143 0.26633 0.64545 0.10931 1.4107-0.15076 0.73471-0.71738 1.3196-0.54816 0.57269-1.4345 0.77234-0.86789 0.18747-1.8625-0.01825-1.27-0.26266-2.0515-0.80725-0.78149-0.54456-1.1204-1.3805-0.33575-0.85129-0.17477-1.7913zm8.7326 4.9335l1.9188-9.3521 1.2241 0.25317-1.9188 9.3521-1.2241-0.2532zm3.9622-3.9193q0.47736-2.3265 2.0021-3.3834 1.5248-1.0568 3.4986-0.64856 1.2853 0.26584 2.2002 1.0933 0.91486 0.82745 1.2211 2.0556 0.32471 1.216 0.035767 2.6241-0.28888 1.4082-1.1027 2.4206-0.79541 1.0003-1.9705 1.3635-1.1567 0.35114-2.3807 0.097961-1.3159-0.27216-2.2277-1.1149-0.90857-0.85806-1.218-2.0709-0.30939-1.2128-0.058167-2.4373zm1.2822 0.28116q-0.34546 1.6837 0.35632 2.85 0.7049 1.151 2.082 1.4359 1.3924 0.28799 2.4962-0.50488 1.1038-0.79288 1.4743-2.599 0.23242-1.1327 0.010437-2.0721-0.20667-0.93628-0.86218-1.5505-0.63708-0.6264-1.5552-0.81628-1.3159-0.27216-2.4499 0.43469-1.1187 0.71002-1.552 2.8223zm8.3045 6.4405l1.9188-9.3521 1.27 0.26266 3.4042 8.3629 1.5074-7.347 1.1782 0.24368-1.9188 9.3521-1.27-0.26266-3.4043-8.3629-1.5074 7.347-1.1782-0.24368z" fill="#000"/>
<path d="m459.08 159.88c0-4.3546 3.5301-7.8847 7.8847-7.8847h153.58c2.0911 0 4.0966 0.8307 5.5753 2.3094 1.4786 1.4787 2.3093 3.4842 2.3093 5.5753v31.538c0 4.3546-3.5301 7.8847-7.8846 7.8847h-153.58c-4.3546 0-7.8847-3.5301-7.8847-7.8847z" fill="#cfe2f3" fill-rule="evenodd"/>
<path d="m459.08 159.88c0-4.3546 3.5301-7.8847 7.8847-7.8847h153.58c2.0911 0 4.0966 0.8307 5.5753 2.3094 1.4786 1.4787 2.3093 3.4842 2.3093 5.5753v31.538c0 4.3546-3.5301 7.8847-7.8846 7.8847h-153.58c-4.3546 0-7.8847-3.5301-7.8847-7.8847z" fill-rule="evenodd" stroke="#000" stroke-linecap="butt" stroke-linejoin="round"/>
<path d="m476.99 177.88l1.7656 0.45312q-0.5625 2.1719-2 3.3281-1.4375 1.1406-3.5312 1.1406-2.1562 0-3.5156-0.875-1.3438-0.89062-2.0625-2.5469-0.70312-1.6719-0.70312-3.5938 0-2.0781 0.79688-3.625 0.79688-1.5625 2.2656-2.3594 1.4844-0.8125 3.25-0.8125 2 0 3.3594 1.0156 1.375 1.0156 1.9062 2.875l-1.7344 0.40625q-0.46875-1.4531-1.3594-2.1094-0.875-0.67188-2.2031-0.67188-1.5469 0-2.5781 0.73438t-1.4531 1.9844q-0.42188 1.2344-0.42188 2.5625 0 1.7031 0.5 2.9688t1.5469 1.9062q1.0469 0.625 2.2656 0.625 1.4844 0 2.5156-0.85938t1.3906-2.5469zm3.4104-1.8125q0-3.3281 1.7812-5.2031 1.7812-1.8906 4.6094-1.8906 1.8438 0 3.3281 0.89062 1.4844 0.875 2.2656 2.4688 0.78125 1.5781 0.78125 3.5781 0 2.0312-0.82812 3.6406-0.8125 1.5938-2.3125 2.4219t-3.25 0.82812q-1.875 0-3.3594-0.90625-1.4844-0.92188-2.25-2.5t-0.76562-3.3281zm1.8125 0.015625q0 2.4219 1.2969 3.8125t3.2656 1.3906q2 0 3.2812-1.4062t1.2812-3.9844q0-1.625-0.54688-2.8438t-1.6094-1.875q-1.0625-0.67188-2.375-0.67188-1.8906 0-3.25 1.2969-1.3438 1.2812-1.3438 4.2812zm13.183 6.4844v-13.359h2.6562l3.1562 9.4531q0.4375 1.3281 0.64062 1.9844 0.23438-0.73438 0.70312-2.1406l3.2031-9.2969h2.375v13.359h-1.7031v-11.172l-3.875 11.172h-1.5938l-3.8594-11.375v11.375h-1.7031zm15.541 0v-13.359h2.6562l3.1562 9.4531q0.4375 1.3281 0.64062 1.9844 0.23438-0.73438 0.70312-2.1406l3.2031-9.2969h2.375v13.359h-1.7031v-11.172l-3.875 11.172h-1.5938l-3.8594-11.375v11.375h-1.7031zm15.885 0v-13.359h1.7656v13.359h-1.7656zm4.2927-4.2969l1.6562-0.14062q0.125 1 0.54688 1.6406 0.4375 0.64062 1.3438 1.0469 0.92188 0.39062 2.0625 0.39062 1 0 1.7812-0.29688t1.1562-0.8125q0.375-0.53125 0.375-1.1562t-0.375-1.0938q-0.35938-0.46875-1.1875-0.79688-0.54688-0.20312-2.3906-0.64062-1.8281-0.45312-2.5625-0.84375-0.96875-0.5-1.4375-1.2344-0.46875-0.75-0.46875-1.6719 0-1 0.57812-1.875 0.57812-0.89062 1.6719-1.3438 1.1094-0.45312 2.4531-0.45312 1.4844 0 2.6094 0.48438 1.1406 0.46875 1.75 1.4062 0.60938 0.92188 0.65625 2.0938l-1.6875 0.125q-0.14062-1.2656-0.9375-1.9062-0.78125-0.65625-2.3125-0.65625-1.6094 0-2.3438 0.59375t-0.73438 1.4219q0 0.71875 0.53125 1.1719 0.5 0.46875 2.6562 0.96875 2.1562 0.48438 2.9531 0.84375 1.1719 0.53125 1.7188 1.3594 0.5625 0.82812 0.5625 1.9062 0 1.0625-0.60938 2.0156-0.60938 0.9375-1.75 1.4688-1.1406 0.51562-2.5781 0.51562-1.8125 0-3.0469-0.53125-1.2188-0.53125-1.9219-1.5938-0.6875-1.0625-0.71875-2.4062zm12.444 0l1.6562-0.14062q0.125 1 0.54688 1.6406 0.4375 0.64062 1.3438 1.0469 0.92188 0.39062 2.0625 0.39062 1 0 1.7812-0.29688t1.1562-0.8125q0.375-0.53125 0.375-1.1562t-0.375-1.0938q-0.35938-0.46875-1.1875-0.79688-0.54688-0.20312-2.3906-0.64062-1.8281-0.45312-2.5625-0.84375-0.96875-0.5-1.4375-1.2344-0.46875-0.75-0.46875-1.6719 0-1 0.57812-1.875 0.57812-0.89062 1.6719-1.3438 1.1094-0.45312 2.4531-0.45312 1.4844 0 2.6094 0.48438 1.1406 0.46875 1.75 1.4062 0.60938 0.92188 0.65625 2.0938l-1.6875 0.125q-0.14062-1.2656-0.9375-1.9062-0.78125-0.65625-2.3125-0.65625-1.6094 0-2.3438 0.59375t-0.73438 1.4219q0 0.71875 0.53125 1.1719 0.5 0.46875 2.6562 0.96875 2.1562 0.48438 2.9531 0.84375 1.1719 0.53125 1.7188 1.3594 0.5625 0.82812 0.5625 1.9062 0 1.0625-0.60938 2.0156-0.60938 0.9375-1.75 1.4688-1.1406 0.51562-2.5781 0.51562-1.8125 0-3.0469-0.53125-1.2188-0.53125-1.9219-1.5938-0.6875-1.0625-0.71875-2.4062zm13.334 4.2969v-13.359h1.7656v13.359h-1.7656zm4.3552-6.5q0-3.3281 1.7812-5.2031 1.7812-1.8906 4.6094-1.8906 1.8438 0 3.3281 0.89062 1.4844 0.875 2.2656 2.4688 0.78125 1.5781 0.78125 3.5781 0 2.0312-0.82812 3.6406-0.8125 1.5938-2.3125 2.4219t-3.25 0.82812q-1.875 0-3.3594-0.90625-1.4844-0.92188-2.25-2.5t-0.76562-3.3281zm1.8125 0.015625q0 2.4219 1.2969 3.8125t3.2656 1.3906q2 0 3.2812-1.4062t1.2812-3.9844q0-1.625-0.54688-2.8438t-1.6094-1.875q-1.0625-0.67188-2.375-0.67188-1.8906 0-3.25 1.2969-1.3438 1.2812-1.3438 4.2812zm13.215 6.4844v-13.359h1.8125l7.0156 10.484v-10.484h1.6875v13.359h-1.8125l-7.0156-10.5v10.5h-1.6875zm13.785 0v-13.359h1.7656v13.359h-1.7656zm4.8708 0v-13.359h1.8125l7.0156 10.484v-10.484h1.6875v13.359h-1.8125l-7.0156-10.5v10.5h-1.6875zm19.739-5.2344v-1.5781h5.6562v4.9531q-1.2969 1.0469-2.6875 1.5781-1.375 0.51562-2.8438 0.51562-1.9688 0-3.5781-0.84375t-2.4219-2.4375-0.8125-3.5625q0-1.9531 0.8125-3.6406t2.3438-2.5q1.5312-0.82812 3.5156-0.82812 1.4531 0 2.625 0.46875t1.8281 1.3125q0.67188 0.82812 1.0156 2.1719l-1.5938 0.4375q-0.29688-1.0156-0.75-1.5938-0.4375-0.59375-1.2656-0.9375t-1.8438-0.34375q-1.2031 0-2.0938 0.375-0.89062 0.35938-1.4375 0.96875-0.53125 0.59375-0.82812 1.3125-0.51562 1.2344-0.51562 2.6875 0 1.7812 0.60938 2.9844 0.625 1.2031 1.7969 1.7969 1.1719 0.57812 2.5 0.57812 1.1406 0 2.2344-0.4375 1.0938-0.45312 1.6562-0.95312v-2.4844h-3.9219z" fill="#000"/>
<path d="m404.3 213.63c0-18.992 27.386-37.984 54.772-37.984" fill="#000" fill-opacity="0" fill-rule="evenodd"/>
<path d="m411.04 196.94l0.10849-0.1339c0.1105-0.1346 0.22217-0.26884 0.33502-0.40273 0.90262-1.0711 1.8787-2.119 2.9218-3.1391 2.0861-2.0402 4.4395-3.9691 7.0069-5.7496 5.1349-3.561 11.125-6.5285 17.544-8.6058 0.40115-0.12984 0.80399-0.25616 1.2084-0.37898 0.20221-0.061401 0.40482-0.12192 0.60776-0.18153l0.4791-0.13832" fill-rule="evenodd" stroke="#000" stroke-linecap="butt" stroke-linejoin="round" stroke-width="3"/>
<path d="m406.45 195.08l-0.5065 14.479 9.695-10.766z" fill="#000" fill-rule="evenodd" stroke="#000" stroke-linecap="butt" stroke-width="3"/>
<path d="m441.96 183.11l12.769-6.845-14.182-2.9642z" fill="#000" fill-rule="evenodd" stroke="#000" stroke-linecap="butt" stroke-width="3"/>
<path d="m543.76 199.3c0 23.78 20.63 35.669 41.26 47.559 20.63 11.89 41.26 23.78 41.26 47.559" fill="#000" fill-opacity="0" fill-rule="evenodd"/>
<path d="m543.76 199.3c0 23.78 20.63 35.669 41.26 47.559 10.315 5.9449 20.63 11.89 28.366 19.321 1.934 1.8578 3.7069 3.8084 5.2784 5.8752 0.78564 1.0334 1.5211 2.0958 2.201 3.1902 0.3399 0.54715 0.66608 1.1023 0.97772 1.6658l0.029846 0.054749" fill-rule="evenodd" stroke="#000" stroke-linecap="butt" stroke-linejoin="round" stroke-width="3"/>
<path d="m617.07 278.18l8.1375 11.987 1.4713-14.413z" fill="#000" fill-rule="evenodd" stroke="#000" stroke-linecap="butt" stroke-width="3"/>
</g>
</svg>
