<svg fill="none" stroke-linecap="square" stroke-miterlimit="10" width="1560" height="624" xmlns="http://www.w3.org/2000/svg">
  <path fill="#fff" d="M0 0h1560v624H0V0z"/>
  <path fill="#fff" d="M0 0h1560v624H0V0z"/>
  <path stroke="#ccc" stroke-linecap="butt" d="M341.5 102.5v404M541.5 102.5v404M741.5 102.5v404M941.5 102.5v404M1141.5 102.5v404"/>
  <path stroke="#e6e6e6" stroke-linecap="butt" d="M301.5 102.5v404M261.5 102.5v404M221.5 102.5v404M181.5 102.5v404M501.5 102.5v404M461.5 102.5v404M421.5 102.5v404M381.5 102.5v404M701.5 102.5v404M661.5 102.5v404M621.5 102.5v404M581.5 102.5v404M901.5 102.5v404M861.5 102.5v404M821.5 102.5v404M781.5 102.5v404M1101.5 102.5v404M1061.5 102.5v404M1021.5 102.5v404M981.5 102.5v404M1182.5 102.5v404"/>
  <path stroke="#333" stroke-linecap="butt" d="M149.5 506.5h1041"/>
  <path stroke="#ccc" stroke-linecap="butt" d="M149.5 461.5h1041M149.5 416.5h1041M149.5 372.5h1041M149.5 327.5h1041M149.5 282.5h1041M149.5 237.5h1041M149.5 192.5h1041M149.5 147.5h1041M149.5 102.5h1041"/>
  <clipPath id="a">
    <path d="M149.2 102.5h1041.413v404.3H149.2V102.5z"/>
  </clipPath>
  <path stroke="#f0f" stroke-width="2" stroke-linecap="butt" clip-path="url(#a)" d="M149.2 494.449s5.467-9.59 8.2-12.195c2.733-2.604 5.467-.181 8.2-3.434 2.734-3.253 5.467-15.46 8.2-16.082 2.734-.623 5.467 11.973 8.2 12.347 2.734.374 5.467-7.272 8.2-10.103 2.734-2.83 5.467-4.48 8.2-6.882 2.734-2.403 5.467-6.2 8.2-7.536 2.734-1.335 5.467.568 8.2-.476 2.734-1.044 5.468-4.061 8.2-5.788 2.734-1.727 5.468-2.769 8.201-4.573 2.733-1.805 5.467-4.635 8.2-6.254 2.734-1.618 5.467-1.898 8.2-3.459 2.734-1.56 5.467-3.953 8.2-5.907 2.734-1.954 5.467-3.83 8.2-5.815 2.734-1.985 5.467-6.312 8.2-6.094 2.734.219 5.467 7.018 8.2 7.403 2.734.386 5.467-3.727 8.2-5.09 2.734-1.362 5.467-1.632 8.2-3.085 2.734-1.454 5.468-4.396 8.201-5.636 2.733-1.24 5.467-.723 8.2-1.801 2.733-1.078 5.467-3.262 8.2-4.665 2.734-1.404 5.467-2.183 8.2-3.754 2.734-1.57 5.467-5.165 8.2-5.671 2.734-.507 5.467 2.76 8.2 2.632 2.734-.128 5.467-2.474 8.2-3.403 2.734-.928 5.467-1.066 8.2-2.167 2.734-1.101 5.467-3.309 8.2-4.438 2.734-1.13 5.468-1.312 8.201-2.339 2.733-1.026 5.467-2.543 8.2-3.82 2.733-1.277 5.467-2.496 8.2-3.841 2.734-1.345 5.467-6.559 8.2-4.227 2.734 2.332 5.467 15.77 8.2 18.218 2.734 2.449 5.467-2.558 8.2-3.526 2.734-.969 5.467-1.208 8.2-2.285 2.734-1.076 5.467-3.29 8.2-4.175 2.734-.886 5.467-.348 8.2-1.137 2.734-.788 5.467-2.381 8.2-3.594 2.734-1.212 5.468-2.364 8.201-3.68 2.733-1.317 5.467-4.542 8.2-4.22 2.733.324 5.467 5.973 8.2 6.155 2.734.182 5.467-4.17 8.2-5.062 2.734-.892 5.467.636 8.2-.288 2.734-.923 5.467-4.736 8.2-5.254 2.734-.517 5.467 1.974 8.2 2.15 2.734.176 5.467-.18 8.2-1.094 2.734-.914 5.467-3.152 8.2-4.389 2.734-1.237 5.468-4.011 8.2-3.034 2.734.977 5.468 7.743 8.201 8.897 2.733 1.153 5.467-1.576 8.2-1.975 2.734-.399 5.467.304 8.2-.418 2.734-.721 5.467-3.164 8.2-3.91 2.734-.747 5.467-.156 8.2-.568a54.71 54.71 0 0 0 8.2-1.907c2.734-.857 5.467-2.185 8.2-3.232 2.734-1.048 5.467-2.984 8.2-3.05 2.734-.067 5.467 2.77 8.2 2.65 2.734-.121 5.468-2.81 8.201-3.376 2.733-.567 5.467.52 8.2-.023 2.733-.541 5.467-2.972 8.2-3.227 2.734-.255 5.467 1.8 8.2 1.698 2.734-.103 5.467-1.313 8.2-2.316 2.734-1.003 5.467-2.594 8.2-3.702 2.734-1.108 5.467-7.55 8.2-2.946 2.734 4.602 5.467 25.932 8.2 30.562 2.734 4.63 5.467-2.318 8.2-2.783 2.734-.464 5.468.715 8.2-.004 2.734-.72 5.468-3.738 8.201-4.31 2.733-.573 5.467 1.236 8.2.876 2.733-.361 5.467-2.22 8.2-3.042 2.734-.82 5.467-1.11 8.2-1.886 2.734-.776 5.467-3.058 8.2-2.768 2.734.291 5.467 3.99 8.2 4.513 2.734.522 5.467-.83 8.2-1.377 2.734-.548 5.467-1.149 8.2-1.91 2.734-.76 5.468-2.179 8.2-2.652 2.734-.473 5.468-.002 8.201-.186 2.733-.185 5.467-.607 8.2-.921 2.733-.314 5.467-.248 8.2-.962 2.734-.713 5.467-3.976 8.2-3.317 2.734.66 5.467 6.288 8.2 7.273 2.734.985 5.467-1.06 8.2-1.363 2.734-.304 5.467.075 8.2-.456 2.734-.532 5.467-2.4 8.2-2.734 2.734-.334 5.467.553 8.2.73 2.734.177 5.468.614 8.2.33 2.734-.284 5.468-1.178 8.201-2.035 2.733-.856 5.467-5.966 8.2-3.104 2.733 2.862 5.467 16.713 8.2 20.278 2.734 3.565 5.467.562 8.2 1.112 2.734.55 5.467 1.952 8.2 2.19 2.734.237 5.467-2.64 8.2-.766 2.734 1.874 5.467 10.221 8.2 12.012 2.734 1.791 5.467-.84 8.2-1.267 2.734-.427 5.468-.693 8.2-1.296 2.734-.603 5.468-3.882 8.201-2.322 2.733 1.56 5.467 9.916 8.2 11.682 2.733 1.765 5.467-.624 8.2-1.09 2.734-.465 5.467-1.358 8.2-1.702 2.734-.344 5.467-.294 8.2-.36 2.734-.065 5.467.169 8.2-.033 2.734-.202 5.467-.7 8.2-1.177 2.734-.478 5.467-1.232 8.2-1.692 2.734-.46 5.467-1.348 8.2-1.066 2.734.281 5.468 2.603 8.2 2.756 2.734.152 5.468-1.455 8.201-1.84 2.733-.384 5.467-.166 8.2-.467 2.734-.301 5.467-1.205 8.2-1.341 2.734-.136 5.467.757 8.2.525 2.734-.23 5.467-1.552 8.2-1.913 2.734-.362 5.467.11 8.2-.256 2.734-.366 5.467-2.454 8.2-1.936 2.734.517 5.467 4.4 8.2 5.04 2.734.64 5.467-.82 8.2-1.204 2.734-.385 5.468-.837 8.201-1.105 2.733-.268 5.467-.296 8.2-.501 2.733-.205 5.467-.696 8.2-.728 2.734-.032 5.467.751 8.2.535 2.734-.217 5.467-1.364 8.2-1.833 2.734-.47 5.467-1.145 8.2-.984 2.734.161 5.467 1.83 8.2 1.95 2.734.119 5.467-.939 8.2-1.236 2.734-.296 5.467-.383 8.2-.545 2.734-.163 5.468-.414 8.2-.43 2.734-.015 5.468.418 8.201.335 2.733-.082 5.467-.548 8.2-.83 2.734-.283 5.467-.621 8.2-.865 2.734-.245 8.2-.6 8.2-.6"/>
  <path stroke="red" stroke-width="2" stroke-linecap="butt" clip-path="url(#a)" d="M149.2 489.161s5.467-11.466 8.2-15.889c2.733-4.422 5.467-5.01 8.2-10.646 2.734-5.637 5.467-21.794 8.2-23.176 2.734-1.381 5.467 15.277 8.2 14.885 2.734-.39 5.467-11.118 8.2-17.232a484.485 484.485 0 0 0 8.2-19.451c2.734-6.903 5.467-17.677 8.2-21.965 2.734-4.287 5.467-.597 8.2-3.76 2.734-3.163 5.468-10.965 8.2-15.22 2.734-4.254 5.468-6.146 8.201-10.307 2.733-4.16 5.467-11.237 8.2-14.658 2.734-3.421 5.467-2.89 8.2-5.87 2.734-2.978 5.467-8.077 8.2-12.005 2.734-3.927 5.467-7.121 8.2-11.56 2.734-4.44 5.467-16.093 8.2-15.074 2.734 1.02 5.467 19.464 8.2 21.19 2.734 1.725 5.467-8.11 8.2-10.838 2.734-2.727 5.467-2.528 8.2-5.527 2.734-3 5.468-10.105 8.201-12.466 2.733-2.362 5.467.27 8.2-1.703 2.733-1.973 5.467-7.052 8.2-10.139 2.734-3.086 5.467-4.853 8.2-8.38 2.734-3.527 5.467-12.074 8.2-12.78 2.734-.707 5.467 8.34 8.2 8.54 2.734.2 5.467-5.396 8.2-7.34 2.734-1.946 5.467-1.976 8.2-4.331 2.734-2.356 5.467-7.54 8.2-9.805 2.734-2.265 5.468-1.817 8.201-3.789 2.733-1.972 5.467-5.578 8.2-8.043 2.733-2.465 5.467-3.694 8.2-6.748 2.734-3.053 5.467-16.827 8.2-11.572 2.734 5.256 5.467 37.004 8.2 43.106 2.734 6.1 5.467-4.524 8.2-6.498 2.734-1.974 5.467-2.512 8.2-5.346 2.734-2.834 5.467-10.424 8.2-11.66 2.734-1.236 5.467 4.732 8.2 4.243 2.734-.489 5.467-4.53 8.2-7.176 2.734-2.645 5.468-5.953 8.201-8.695 2.733-2.742 5.467-8.087 8.2-7.756 2.733.332 5.467 9.204 8.2 9.744 2.734.54 5.467-4.803 8.2-6.505 2.734-1.702 5.467-2.045 8.2-3.706 2.734-1.66 5.467-5.76 8.2-6.26 2.734-.5 5.467 3.27 8.2 3.26 2.734-.01 5.467-1.552 8.2-3.318 2.734-1.766 5.467-4.871 8.2-7.278 2.734-2.406 5.468-8.865 8.2-7.16 2.734 1.704 5.468 15.515 8.201 17.387 2.733 1.872 5.467-4.902 8.2-6.154 2.734-1.253 5.467.235 8.2-1.36 2.734-1.593 5.467-7.012 8.2-8.204 2.734-1.193 5.467 1.772 8.2 1.049 2.734-.723 5.467-4.127 8.2-5.387 2.734-1.259 5.467.016 8.2-2.17 2.734-2.184 5.467-11.027 8.2-10.94 2.734.087 5.467 10.26 8.2 11.464 2.734 1.205 5.468-3.367 8.201-4.236 2.733-.869 5.467-.026 8.2-.977 2.733-.951 5.467-3.77 8.2-4.73 2.734-.96 5.467-.572 8.2-1.031 2.734-.46 5.467-.5 8.2-1.725 2.734-1.226 5.467-3.85 8.2-5.627 2.734-1.777 5.467-13.523 8.2-5.038 2.734 8.485 5.467 47.625 8.2 55.946 2.734 8.322 5.467-4.793 8.2-6.017 2.734-1.224 5.468-.151 8.2-1.325 2.734-1.174 5.468-4.363 8.201-5.719 2.733-1.356 5.467-1.294 8.2-2.419 2.733-1.125 5.467-3.18 8.2-4.333 2.734-1.152 5.467-.453 8.2-2.58 2.734-2.128 5.467-10.11 8.2-10.182 2.734-.072 5.467 9.702 8.2 9.748 2.734.046 5.467-8.469 8.2-9.472 2.734-1.003 5.467 4.145 8.2 3.455 2.734-.691 5.468-6.152 8.2-7.599 2.734-1.447 5.468-.946 8.201-1.085 2.733-.138 5.467 1.31 8.2.254 2.733-1.056 5.467-4.605 8.2-6.588 2.734-1.982 5.467-6.666 8.2-5.307 2.734 1.358 5.467 10.82 8.2 13.456 2.734 2.637 5.467 3.204 8.2 2.363 2.734-.841 5.467-6.428 8.2-7.41 2.734-.982 5.467 1.995 8.2 1.518 2.734-.476 5.467-3.458 8.2-4.377 2.734-.92 5.468-.046 8.2-1.14 2.734-1.093 5.468-3.531 8.201-5.421 2.733-1.89 5.467-10.87 8.2-5.916 2.733 4.953 5.467 29.299 8.2 35.634 2.734 6.336 5.467.748 8.2 2.379 2.734 1.63 5.467 6.42 8.2 7.405 2.734.985 5.467-4.118 8.2-1.494 2.734 2.625 5.467 14.464 8.2 17.242 2.734 2.777 5.467.928 8.2-.575 2.734-1.504 5.468-7.19 8.2-8.446 2.734-1.255 5.468-1.683 8.201.914 2.733 2.598 5.467 12.45 8.2 14.672 2.733 2.222 5.467-.77 8.2-1.34 2.734-.571 5.467-1.134 8.2-2.08 2.734-.947 5.467-3.383 8.2-3.6 2.734-.215 5.467 2.862 8.2 2.303 2.734-.559 5.467-4.555 8.2-5.656 2.734-1.1 5.467.829 8.2-.95 2.734-1.778 5.467-10.05 8.2-9.72 2.734.328 5.468 9.951 8.2 11.695 2.734 1.743 5.468-.534 8.201-1.236 2.733-.7 5.467-1.585 8.2-2.971 2.734-1.387 5.467-4.988 8.2-5.348 2.734-.36 5.467 3.586 8.2 3.19 2.734-.398 5.467-5.157 8.2-5.571 2.734-.415 5.467 3.005 8.2 3.084 2.734.079 5.467-2.473 8.2-2.61 2.734-.138 5.467 1.484 8.2 1.785 2.734.302 5.467-.285 8.2.025 2.734.31 5.468 2.57 8.201 1.835 2.733-.735 5.467-5.277 8.2-6.246 2.733-.969 5.467.657 8.2.433 2.734-.224 5.467-1.175 8.2-1.776 2.734-.602 5.467-1.755 8.2-1.83 2.734-.077 5.467 1.403 8.2 1.371 2.734-.03 5.467-1.162 8.2-1.558 2.734-.396 5.467-.486 8.2-.818 2.734-.332 5.467-1.54 8.2-1.172 2.734.368 5.468 2.933 8.2 3.382 2.734.45 5.468-.468 8.201-.685 2.733-.217 5.467.217 8.2-.618 2.734-.834 5.467-3.037 8.2-4.388 2.734-1.351 8.2-3.718 8.2-3.718"/>
  <path fill="#424242" d="M650.72 578.862l-2.079 2.172v5.766h-2.25v-17.063h2.25v8.438l7.578-8.438h2.719l-6.719 7.532 7.25 9.531h-2.703l-6.047-7.938zm15.593 8.172q-2.578 0-4.203-1.687-1.61-1.703-1.61-4.531v-.407q0-1.89.72-3.359.718-1.484 2.015-2.328 1.297-.844 2.812-.844 2.469 0 3.828 1.64 1.375 1.626 1.375 4.657v.906h-8.578q.047 1.875 1.094 3.031 1.047 1.157 2.656 1.157 1.157 0 1.953-.469.797-.469 1.391-1.25l1.328 1.031q-1.594 2.453-4.781 2.453zm-.266-11.375q-1.312 0-2.203.97-.89.952-1.11 2.671h6.36v-.172q-.094-1.64-.89-2.547-.797-.922-2.157-.922zm12.157 7.97l2.953-9.517h2.312l-5.094 14.641q-1.187 3.172-3.765 3.172l-.406-.031-.813-.157v-1.765l.594.047q1.094 0 1.703-.453.625-.438 1.016-1.61l.484-1.297-4.516-12.547h2.36l3.172 9.516zm14.234-.188q0-.891-.672-1.375-.656-.485-2.312-.829-1.641-.359-2.61-.843-.969-.5-1.437-1.172-.453-.688-.453-1.625 0-1.563 1.312-2.64 1.328-1.079 3.375-1.079 2.156 0 3.5 1.125 1.344 1.11 1.344 2.844h-2.188q0-.89-.75-1.531-.75-.657-1.906-.657-1.187 0-1.86.516-.656.516-.656 1.36 0 .78.61 1.187.625.39 2.25.75t2.625.875q1.015.5 1.5 1.219.484.703.484 1.718 0 1.703-1.36 2.735-1.359 1.015-3.515 1.015-1.531 0-2.703-.53-1.172-.548-1.844-1.517-.656-.968-.656-2.093h2.172q.062 1.093.875 1.734.812.64 2.156.64 1.219 0 1.969-.5t.75-1.327zM37.137 369.51l13.922-5.579-13.922-5.578v-2.922H54.2v2.25h-6.64l-7.173-.203 13.813 5.594v1.734l-13.781 5.578 7.14-.218H54.2v2.25H37.137v-2.907zm9.125-22.423l2.172 2.079H54.2v2.25H37.137v-2.25h8.438l-8.438-7.579v-2.718l7.532 6.718 9.531-7.25v2.704l-7.938 6.046zm8.172-15.593q0 2.578-1.687 4.203-1.703 1.61-4.531 1.61h-.407q-1.89 0-3.359-.72-1.484-.718-2.328-2.015-.844-1.297-.844-2.813 0-2.468 1.64-3.828 1.626-1.375 4.657-1.375h.906v8.578q1.875-.047 3.031-1.093 1.157-1.047 1.157-2.657 0-1.156-.469-1.953-.469-.797-1.25-1.39l1.031-1.329q2.453 1.594 2.453 4.782zm-11.375.265q0 1.313.97 2.203.952.891 2.671 1.11v-6.36h-.172q-1.64.094-2.547.891-.922.797-.922 2.156zm7.97-12.156l-9.517-2.953v-2.313l14.641 5.094q3.172 1.188 3.172 3.766l-.031.406-.157.813h-1.765l.047-.594q0-1.094-.453-1.703-.438-.625-1.61-1.016l-1.297-.484-12.547 4.515v-2.359l9.516-3.172zm-.188-14.234q-.891 0-1.375.672-.485.656-.829 2.312-.359 1.64-.843 2.61-.5.968-1.172 1.437-.688.453-1.625.453-1.563 0-2.64-1.312-1.079-1.329-1.079-3.375 0-2.157 1.125-3.5 1.11-1.344 2.844-1.344v2.187q-.89 0-1.531.75-.657.75-.657 1.907 0 1.187.516 1.859.516.656 1.36.656.78 0 1.187-.61.39-.624.75-2.25.36-1.624.875-2.624.5-1.016 1.219-1.5.703-.485 1.718-.485 1.703 0 2.735 1.36 1.015 1.36 1.015 3.515 0 1.532-.53 2.704-.548 1.171-1.517 1.843-.968.657-2.093.657v-2.172q1.093-.063 1.734-.875.64-.813.64-2.157 0-1.218-.5-1.968t-1.327-.75zm4.828-5.047v1.86l-18.532-7.126v-1.844l18.532 7.11zm-4.828-16.953q-.891 0-1.375.672-.485.656-.829 2.312-.359 1.64-.843 2.61-.5.968-1.172 1.437-.688.453-1.625.453-1.563 0-2.64-1.312-1.079-1.329-1.079-3.375 0-2.157 1.125-3.5 1.11-1.344 2.844-1.344v2.187q-.89 0-1.531.75-.657.75-.657 1.907 0 1.187.516 1.859.516.656 1.36.656.78 0 1.187-.61.39-.624.75-2.25.36-1.624.875-2.624.5-1.016 1.219-1.5.703-.485 1.718-.485 1.703 0 2.735 1.36 1.015 1.36 1.015 3.515 0 1.532-.53 2.704-.548 1.171-1.517 1.843-.968.657-2.093.657v-2.172q1.093-.063 1.734-.875.64-.813.64-2.157 0-1.218-.5-1.968t-1.327-.75zm3.593-9.875q0 2.578-1.687 4.203-1.703 1.61-4.531 1.61h-.407q-1.89 0-3.359-.72-1.484-.718-2.328-2.015-.844-1.297-.844-2.813 0-2.468 1.64-3.828 1.626-1.375 4.657-1.375h.906v8.578q1.875-.047 3.031-1.093 1.157-1.047 1.157-2.657 0-1.156-.469-1.953-.469-.797-1.25-1.39l1.031-1.329q2.453 1.594 2.453 4.782zm-11.375.265q0 1.313.97 2.203.952.891 2.671 1.11v-6.36h-.172q-1.64.094-2.547.891-.922.797-.922 2.156zm9.61-13.093q0-1.157-.703-2.016-.704-.875-1.766-.969v-2.047q1.094.063 2.078.75.984.688 1.578 1.844.578 1.156.578 2.438 0 2.593-1.718 4.125-1.735 1.53-4.735 1.53h-.375q-1.844 0-3.281-.671-1.453-.688-2.25-1.953-.797-1.281-.797-3.016 0-2.125 1.281-3.531 1.282-1.422 3.313-1.516v2.047q-1.219.094-2.016.938-.797.828-.797 2.062 0 1.656 1.203 2.563 1.188.906 3.438.906h.406q2.188 0 3.375-.89 1.188-.907 1.188-2.594zm.39-7.953q-.562 0-.937-.329-.375-.343-.375-1 0-.671.375-1.015.375-.36.937-.36.547 0 .907.36.359.344.359 1.015 0 .657-.36 1-.359.329-.906.329z"/>
  <path fill="#757575" d="M125.263 507.66q0 1.906-.657 2.843-.64.922-2.031.922-1.36 0-2.016-.906-.656-.906-.687-2.719v-1.438q0-1.89.64-2.796.657-.922 2.047-.922 1.375 0 2.032.89.656.875.672 2.72v1.405zm-1.094-1.485q0-1.375-.39-2-.376-.64-1.22-.64-.828 0-1.218.64-.375.625-.375 1.922v1.734q0 1.375.39 2.047.407.656 1.219.656.797 0 1.188-.625.39-.625.406-1.953v-1.781zm2.875 4.563q0-.282.156-.47.172-.187.5-.187.344 0 .516.188.171.187.171.469 0 .265-.171.453-.172.172-.516.172-.328 0-.5-.172-.156-.188-.156-.453zm8.218-3.079q0 1.907-.656 2.844-.64.922-2.031.922-1.36 0-2.016-.906-.656-.906-.687-2.719v-1.438q0-1.89.64-2.796.657-.922 2.047-.922 1.375 0 2.032.89.656.875.671 2.72v1.405zm-1.093-1.484q0-1.375-.39-2-.376-.64-1.22-.64-.828 0-1.218.64-.375.625-.375 1.922v1.734q0 1.375.39 2.047.406.656 1.219.656.797 0 1.188-.625.39-.625.406-1.953v-1.781zm8.093 1.484q0 1.907-.656 2.844-.64.922-2.031.922-1.36 0-2.016-.906-.656-.906-.687-2.719v-1.438q0-1.89.64-2.796.657-.922 2.047-.922 1.375 0 2.032.89.656.875.671 2.72v1.405zm-1.093-1.484q0-1.375-.39-2-.376-.64-1.22-.64-.828 0-1.218.64-.375.625-.375 1.922v1.734q0 1.375.39 2.047.406.656 1.219.656.797 0 1.188-.625.39-.625.406-1.953v-1.781zM111.497 466.378h-5.594v-.781l2.953-3.282q.657-.75.907-1.203.25-.469.25-.969 0-.671-.407-1.093-.39-.438-1.078-.438-.797 0-1.25.469-.453.453-.453 1.281h-1.078q0-1.187.75-1.906.766-.734 2.031-.734 1.203 0 1.89.625.688.625.688 1.671 0 1.25-1.61 3l-2.28 2.47h4.28v.89zm6.766-3.64q0 1.905-.657 2.843-.64.922-2.031.922-1.36 0-2.016-.906-.656-.907-.687-2.72v-1.437q0-1.89.64-2.797.657-.921 2.047-.921 1.375 0 2.032.89.656.875.672 2.719v1.406zm-1.094-1.485q0-1.375-.39-2-.376-.64-1.22-.64-.828 0-1.218.64-.375.625-.375 1.922v1.734q0 1.375.39 2.047.407.656 1.219.656.797 0 1.188-.625.39-.625.406-1.953v-1.781zm8.094 1.484q0 1.906-.657 2.844-.64.922-2.031.922-1.36 0-2.016-.906-.656-.907-.687-2.72v-1.437q0-1.89.64-2.797.657-.921 2.047-.921 1.375 0 2.032.89.656.875.672 2.719v1.406zm-1.094-1.484q0-1.375-.39-2-.376-.64-1.22-.64-.828 0-1.218.64-.375.625-.375 1.922v1.734q0 1.375.39 2.047.407.656 1.219.656.797 0 1.188-.625.39-.625.406-1.953v-1.781zm2.875 4.562q0-.281.156-.468.172-.188.5-.188.344 0 .516.188.171.187.171.468 0 .266-.171.453-.172.172-.516.172-.328 0-.5-.172-.156-.187-.156-.453zm8.218-3.078q0 1.906-.656 2.844-.64.922-2.031.922-1.36 0-2.016-.906-.656-.907-.687-2.72v-1.437q0-1.89.64-2.797.657-.921 2.047-.921 1.375 0 2.032.89.656.875.671 2.719v1.406zm-1.093-1.484q0-1.375-.39-2-.376-.64-1.22-.64-.828 0-1.218.64-.375.625-.375 1.922v1.734q0 1.375.39 2.047.406.656 1.219.656.797 0 1.188-.625.39-.625.406-1.953v-1.781zm8.093 1.484q0 1.906-.656 2.844-.64.922-2.031.922-1.36 0-2.016-.906-.656-.907-.687-2.72v-1.437q0-1.89.64-2.797.657-.921 2.047-.921 1.375 0 2.032.89.656.875.671 2.719v1.406zm-1.093-1.484q0-1.375-.39-2-.376-.64-1.22-.64-.828 0-1.218.64-.375.625-.375 1.922v1.734q0 1.375.39 2.047.406.656 1.219.656.797 0 1.188-.625.39-.625.406-1.953v-1.781zM110.481 418.596h1.188v.875h-1.188v1.985h-1.078v-1.985h-3.89v-.64l3.812-5.907h1.156v5.672zm-3.734 0h2.656v-4.187l-.14.234-2.516 3.953zm11.516-.781q0 1.906-.657 2.844-.64.922-2.031.922-1.36 0-2.016-.907-.656-.906-.687-2.718v-1.438q0-1.89.64-2.797.657-.922 2.047-.922 1.375 0 2.032.89.656.876.672 2.72v1.406zm-1.094-1.484q0-1.375-.39-2-.376-.641-1.22-.641-.828 0-1.218.64-.375.626-.375 1.922v1.735q0 1.375.39 2.047.407.656 1.219.656.797 0 1.188-.625.39-.625.406-1.953v-1.781zm8.094 1.484q0 1.906-.657 2.844-.64.922-2.031.922-1.36 0-2.016-.907-.656-.906-.687-2.718v-1.438q0-1.89.64-2.797.657-.922 2.047-.922 1.375 0 2.032.89.656.876.672 2.72v1.406zm-1.094-1.484q0-1.375-.39-2-.376-.641-1.22-.641-.828 0-1.218.64-.375.626-.375 1.922v1.735q0 1.375.39 2.047.407.656 1.219.656.797 0 1.188-.625.39-.625.406-1.953v-1.781zm2.875 4.562q0-.281.156-.469.172-.187.5-.187.344 0 .516.187.171.188.171.47 0 .265-.171.452-.172.172-.516.172-.328 0-.5-.172-.156-.187-.156-.453zm8.218-3.078q0 1.906-.656 2.844-.64.922-2.031.922-1.36 0-2.016-.907-.656-.906-.687-2.718v-1.438q0-1.89.64-2.797.657-.922 2.047-.922 1.375 0 2.032.89.656.876.671 2.72v1.406zm-1.093-1.484q0-1.375-.39-2-.376-.641-1.22-.641-.828 0-1.218.64-.375.626-.375 1.922v1.735q0 1.375.39 2.047.406.656 1.219.656.797 0 1.188-.625.39-.625.406-1.953v-1.781zm8.093 1.484q0 1.906-.656 2.844-.64.922-2.031.922-1.36 0-2.016-.907-.656-.906-.687-2.718v-1.438q0-1.89.64-2.797.657-.922 2.047-.922 1.375 0 2.032.89.656.876.671 2.72v1.406zm-1.093-1.484q0-1.375-.39-2-.376-.641-1.22-.641-.828 0-1.218.64-.375.626-.375 1.922v1.735q0 1.375.39 2.047.406.656 1.219.656.797 0 1.188-.625.39-.625.406-1.953v-1.781zM110.169 368.002v.906h-.203q-1.266.032-2.016.766-.75.719-.875 2.031.688-.765 1.844-.765 1.11 0 1.781.78.672.782.672 2.032 0 1.313-.719 2.11-.719.796-1.937.796-1.22 0-1.985-.937-.75-.953-.75-2.438v-.406q0-2.36 1-3.61t2.985-1.265h.203zm-1.422 3.844q-.563 0-1.031.328-.47.328-.657.844v.39q0 1.063.47 1.703.484.641 1.187.641.734 0 1.156-.531.422-.547.422-1.422 0-.875-.422-1.406-.422-.547-1.125-.547zm9.516 1.047q0 1.906-.657 2.843-.64.922-2.031.922-1.36 0-2.016-.906-.656-.906-.687-2.719v-1.437q0-1.89.64-2.797.657-.922 2.047-.922 1.375 0 2.032.89.656.876.672 2.72v1.406zm-1.094-1.485q0-1.375-.39-2-.376-.64-1.22-.64-.828 0-1.218.64-.375.625-.375 1.922v1.735q0 1.375.39 2.046.407.657 1.219.657.797 0 1.188-.625.39-.625.406-1.953v-1.782zm8.094 1.485q0 1.906-.657 2.843-.64.922-2.031.922-1.36 0-2.016-.906-.656-.906-.687-2.719v-1.437q0-1.89.64-2.797.657-.922 2.047-.922 1.375 0 2.032.89.656.876.672 2.72v1.406zm-1.094-1.485q0-1.375-.39-2-.376-.64-1.22-.64-.828 0-1.218.64-.375.625-.375 1.922v1.735q0 1.375.39 2.046.407.657 1.219.657.797 0 1.188-.625.39-.625.406-1.953v-1.782zm2.875 4.563q0-.281.156-.469.172-.187.5-.187.344 0 .516.187.171.188.171.469 0 .265-.171.453-.172.172-.516.172-.328 0-.5-.172-.156-.188-.156-.453zm8.218-3.078q0 1.906-.656 2.843-.64.922-2.031.922-1.36 0-2.016-.906-.656-.906-.687-2.719v-1.437q0-1.89.64-2.797.657-.922 2.047-.922 1.375 0 2.032.89.656.876.671 2.72v1.406zm-1.093-1.485q0-1.375-.39-2-.376-.64-1.22-.64-.828 0-1.218.64-.375.625-.375 1.922v1.735q0 1.375.39 2.046.406.657 1.219.657.797 0 1.188-.625.39-.625.406-1.953v-1.782zm8.093 1.485q0 1.906-.656 2.843-.64.922-2.031.922-1.36 0-2.016-.906-.656-.906-.687-2.719v-1.437q0-1.89.64-2.797.657-.922 2.047-.922 1.375 0 2.032.89.656.876.671 2.72v1.406zm-1.093-1.485q0-1.375-.39-2-.376-.64-1.22-.64-.828 0-1.218.64-.375.625-.375 1.922v1.735q0 1.375.39 2.046.406.657 1.219.657.797 0 1.188-.625.39-.625.406-1.953v-1.782zM111.09 325.299q0 .64-.343 1.14-.344.5-.906.781.656.282 1.047.844.39.547.39 1.25 0 1.094-.75 1.766-.734.656-1.953.656-1.234 0-1.984-.656-.735-.672-.735-1.766 0-.703.375-1.25.375-.562 1.047-.844-.562-.28-.89-.78-.329-.5-.329-1.141 0-1.078.688-1.703.687-.641 1.828-.641 1.125 0 1.813.64.703.625.703 1.704zm-.89 3.984q0-.719-.453-1.156-.453-.453-1.188-.453-.734 0-1.187.453-.438.437-.438 1.172 0 .718.438 1.14.437.406 1.203.406.75 0 1.188-.421.437-.422.437-1.141zm-1.625-5.438q-.64 0-1.047.407-.39.39-.39 1.078 0 .64.39 1.047.39.406 1.031.406.657 0 1.047-.406.39-.406.39-1.047 0-.656-.405-1.063-.407-.421-1.016-.421zm9.688 4.125q0 1.907-.657 2.844-.64.922-2.031.922-1.36 0-2.016-.906-.656-.906-.687-2.719v-1.437q0-1.891.64-2.797.657-.922 2.047-.922 1.375 0 2.032.89.656.875.672 2.72v1.406zm-1.094-1.484q0-1.375-.39-2-.376-.64-1.22-.64-.828 0-1.218.64-.375.625-.375 1.922v1.734q0 1.375.39 2.047.407.656 1.219.656.797 0 1.188-.625.39-.625.406-1.953v-1.78zm8.094 1.485q0 1.906-.657 2.843-.64.922-2.031.922-1.36 0-2.016-.906-.656-.906-.687-2.719v-1.437q0-1.891.64-2.797.657-.922 2.047-.922 1.375 0 2.032.89.656.875.672 2.72v1.406zm-1.094-1.485q0-1.375-.39-2-.376-.64-1.22-.64-.828 0-1.218.64-.375.625-.375 1.922v1.734q0 1.375.39 2.047.407.656 1.219.656.797 0 1.188-.625.39-.625.406-1.953v-1.78zm2.875 4.563q0-.282.156-.47.172-.187.5-.187.344 0 .516.188.171.187.171.469 0 .265-.171.453-.172.172-.516.172-.328 0-.5-.172-.156-.188-.156-.453zm8.218-3.078q0 1.906-.656 2.843-.64.922-2.031.922-1.36 0-2.016-.906-.656-.906-.687-2.719v-1.437q0-1.891.64-2.797.657-.922 2.047-.922 1.375 0 2.032.89.656.875.671 2.72v1.406zm-1.093-1.485q0-1.375-.39-2-.376-.64-1.22-.64-.828 0-1.218.64-.375.625-.375 1.922v1.734q0 1.375.39 2.047.406.656 1.219.656.797 0 1.188-.625.39-.625.406-1.953v-1.78zm8.093 1.485q0 1.906-.656 2.843-.64.922-2.031.922-1.36 0-2.016-.906-.656-.906-.687-2.719v-1.437q0-1.891.64-2.797.657-.922 2.047-.922 1.375 0 2.032.89.656.875.671 2.72v1.406zm-1.093-1.485q0-1.375-.39-2-.376-.64-1.22-.64-.828 0-1.218.64-.375.625-.375 1.922v1.734q0 1.375.39 2.047.406.656 1.219.656.797 0 1.188-.625.39-.625.406-1.953v-1.78zM100.466 286.689h-1.078v-7.219l-2.188.797v-.984l3.11-1.172h.156v8.578zm3.515 1.703l-.61-.422q.548-.765.579-1.594v-.968h1.063v.843q0 .594-.297 1.188t-.735.953zm7.282-5.344q0 1.907-.657 2.844-.64.922-2.031.922-1.36 0-2.016-.906-.656-.907-.687-2.72v-1.437q0-1.89.64-2.796.657-.922 2.047-.922 1.375 0 2.032.89.656.875.672 2.719v1.406zm-1.094-1.484q0-1.375-.39-2-.376-.64-1.22-.64-.828 0-1.218.64-.375.625-.375 1.922v1.734q0 1.375.39 2.047.407.656 1.219.656.797 0 1.188-.625.39-.625.406-1.953v-1.781zm8.094 1.484q0 1.907-.657 2.844-.64.922-2.031.922-1.36 0-2.016-.906-.656-.907-.687-2.72v-1.437q0-1.89.64-2.796.657-.922 2.047-.922 1.375 0 2.032.89.656.875.672 2.719v1.406zm-1.094-1.484q0-1.375-.39-2-.376-.64-1.22-.64-.828 0-1.218.64-.375.625-.375 1.922v1.734q0 1.375.39 2.047.407.656 1.219.656.797 0 1.188-.625.39-.625.406-1.953v-1.781zm8.094 1.484q0 1.907-.657 2.844-.64.922-2.031.922-1.36 0-2.016-.906-.656-.907-.687-2.72v-1.437q0-1.89.64-2.796.657-.922 2.047-.922 1.375 0 2.032.89.656.875.672 2.719v1.406zm-1.094-1.484q0-1.375-.39-2-.376-.64-1.22-.64-.828 0-1.218.64-.375.625-.375 1.922v1.734q0 1.375.39 2.047.407.656 1.219.656.797 0 1.188-.625.39-.625.406-1.953v-1.781zm2.875 4.562q0-.28.156-.468.172-.188.5-.188.344 0 .516.188.171.187.171.468 0 .266-.171.454-.172.171-.516.171-.328 0-.5-.171-.156-.188-.156-.454zm8.218-3.078q0 1.907-.656 2.844-.64.922-2.031.922-1.36 0-2.016-.906-.656-.907-.687-2.72v-1.437q0-1.89.64-2.796.657-.922 2.047-.922 1.375 0 2.032.89.656.875.671 2.719v1.406zm-1.093-1.484q0-1.375-.39-2-.376-.64-1.22-.64-.828 0-1.218.64-.375.625-.375 1.922v1.734q0 1.375.39 2.047.406.656 1.219.656.797 0 1.188-.625.39-.625.406-1.953v-1.781zm8.093 1.484q0 1.907-.656 2.844-.64.922-2.031.922-1.36 0-2.016-.906-.656-.907-.687-2.72v-1.437q0-1.89.64-2.796.657-.922 2.047-.922 1.375 0 2.032.89.656.875.671 2.719v1.406zm-1.093-1.484q0-1.375-.39-2-.376-.64-1.22-.64-.828 0-1.218.64-.375.625-.375 1.922v1.734q0 1.375.39 2.047.406.656 1.219.656.797 0 1.188-.625.39-.625.406-1.953v-1.781zM100.466 241.767h-1.078v-7.22l-2.188.798v-.985l3.11-1.171h.156v8.578zm3.515 1.703l-.61-.422q.548-.766.579-1.594v-.969h1.063v.844q0 .594-.297 1.188-.297.593-.735.953zm7.516-1.703h-5.594v-.782l2.953-3.28q.657-.75.907-1.204.25-.469.25-.969 0-.672-.407-1.093-.39-.438-1.078-.438-.797 0-1.25.469-.453.453-.453 1.281h-1.078q0-1.187.75-1.906.766-.735 2.031-.735 1.203 0 1.89.625.688.625.688 1.672 0 1.25-1.61 3l-2.28 2.469h4.28v.89zm6.766-3.641q0 1.906-.657 2.844-.64.922-2.031.922-1.36 0-2.016-.907-.656-.906-.687-2.718v-1.438q0-1.89.64-2.797.657-.922 2.047-.922 1.375 0 2.032.891.656.875.672 2.719v1.406zm-1.094-1.484q0-1.375-.39-2-.376-.641-1.22-.641-.828 0-1.218.64-.375.626-.375 1.923v1.734q0 1.375.39 2.047.407.656 1.219.656.797 0 1.188-.625.39-.625.406-1.953v-1.781zm8.094 1.484q0 1.906-.657 2.844-.64.922-2.031.922-1.36 0-2.016-.907-.656-.906-.687-2.718v-1.438q0-1.89.64-2.797.657-.922 2.047-.922 1.375 0 2.032.891.656.875.672 2.719v1.406zm-1.094-1.484q0-1.375-.39-2-.376-.641-1.22-.641-.828 0-1.218.64-.375.626-.375 1.923v1.734q0 1.375.39 2.047.407.656 1.219.656.797 0 1.188-.625.39-.625.406-1.953v-1.781zm2.875 4.562q0-.281.156-.469.172-.187.5-.187.344 0 .516.187.171.188.171.47 0 .265-.171.452-.172.172-.516.172-.328 0-.5-.172-.156-.187-.156-.453zm8.218-3.078q0 1.906-.656 2.844-.64.922-2.031.922-1.36 0-2.016-.907-.656-.906-.687-2.718v-1.438q0-1.89.64-2.797.657-.922 2.047-.922 1.375 0 2.032.891.656.875.671 2.719v1.406zm-1.093-1.484q0-1.375-.39-2-.376-.641-1.22-.641-.828 0-1.218.64-.375.626-.375 1.923v1.734q0 1.375.39 2.047.406.656 1.219.656.797 0 1.188-.625.39-.625.406-1.953v-1.781zm8.093 1.484q0 1.906-.656 2.844-.64.922-2.031.922-1.36 0-2.016-.907-.656-.906-.687-2.718v-1.438q0-1.89.64-2.797.657-.922 2.047-.922 1.375 0 2.032.891.656.875.671 2.719v1.406zm-1.093-1.484q0-1.375-.39-2-.376-.641-1.22-.641-.828 0-1.218.64-.375.626-.375 1.923v1.734q0 1.375.39 2.047.406.656 1.219.656.797 0 1.188-.625.39-.625.406-1.953v-1.781zM100.466 196.844h-1.078v-7.218l-2.188.797v-.985l3.11-1.172h.156v8.578zm3.515 1.704l-.61-.422q.548-.766.579-1.594v-.969h1.063v.844q0 .594-.297 1.187-.297.594-.735.954zm6.5-4.563h1.188v.875h-1.188v1.984h-1.078v-1.984h-3.89v-.64l3.812-5.907h1.156v5.672zm-3.734 0h2.656v-4.187l-.14.234-2.516 3.953zm11.516-.781q0 1.906-.657 2.844-.64.921-2.031.921-1.36 0-2.016-.906-.656-.906-.687-2.719v-1.437q0-1.89.64-2.797.657-.922 2.047-.922 1.375 0 2.032.89.656.876.672 2.72v1.406zm-1.094-1.485q0-1.375-.39-2-.376-.64-1.22-.64-.828 0-1.218.64-.375.625-.375 1.922v1.735q0 1.375.39 2.047.407.656 1.219.656.797 0 1.188-.625.39-.625.406-1.953v-1.782zm8.094 1.485q0 1.906-.657 2.844-.64.921-2.031.921-1.36 0-2.016-.906-.656-.906-.687-2.719v-1.437q0-1.89.64-2.797.657-.922 2.047-.922 1.375 0 2.032.89.656.876.672 2.72v1.406zm-1.094-1.485q0-1.375-.39-2-.376-.64-1.22-.64-.828 0-1.218.64-.375.625-.375 1.922v1.735q0 1.375.39 2.047.407.656 1.219.656.797 0 1.188-.625.39-.625.406-1.953v-1.782zm2.875 4.563q0-.281.156-.469.172-.187.5-.187.344 0 .516.187.171.188.171.469 0 .266-.171.453-.172.172-.516.172-.328 0-.5-.172-.156-.187-.156-.453zm8.218-3.078q0 1.906-.656 2.844-.64.921-2.031.921-1.36 0-2.016-.906-.656-.906-.687-2.719v-1.437q0-1.89.64-2.797.657-.922 2.047-.922 1.375 0 2.032.89.656.876.671 2.72v1.406zm-1.093-1.485q0-1.375-.39-2-.376-.64-1.22-.64-.828 0-1.218.64-.375.625-.375 1.922v1.735q0 1.375.39 2.047.406.656 1.219.656.797 0 1.188-.625.39-.625.406-1.953v-1.782zm8.093 1.485q0 1.906-.656 2.844-.64.921-2.031.921-1.36 0-2.016-.906-.656-.906-.687-2.719v-1.437q0-1.89.64-2.797.657-.922 2.047-.922 1.375 0 2.032.89.656.876.671 2.72v1.406zm-1.093-1.485q0-1.375-.39-2-.376-.64-1.22-.64-.828 0-1.218.64-.375.625-.375 1.922v1.735q0 1.375.39 2.047.406.656 1.219.656.797 0 1.188-.625.39-.625.406-1.953v-1.782zM100.466 151.922h-1.078v-7.219l-2.188.797v-.984l3.11-1.172h.156v8.578zm3.515 1.703l-.61-.422q.548-.765.579-1.593v-.969h1.063v.844q0 .593-.297 1.187-.297.594-.735.953zm6.188-10.234v.906h-.203q-1.266.031-2.016.766-.75.719-.875 2.031.688-.766 1.844-.766 1.11 0 1.781.782.672.781.672 2.031 0 1.312-.719 2.11-.719.796-1.937.796-1.22 0-1.985-.937-.75-.953-.75-2.438v-.406q0-2.36 1-3.61t2.985-1.265h.203zm-1.422 3.844q-.563 0-1.031.328-.47.328-.657.844v.39q0 1.063.47 1.703.484.641 1.187.641.734 0 1.156-.531.422-.547.422-1.422 0-.875-.422-1.406-.422-.547-1.125-.547zm9.516 1.047q0 1.906-.657 2.843-.64.922-2.031.922-1.36 0-2.016-.906-.656-.906-.687-2.719v-1.437q0-1.89.64-2.797.657-.922 2.047-.922 1.375 0 2.032.89.656.876.672 2.72v1.406zm-1.094-1.485q0-1.375-.39-2-.376-.64-1.22-.64-.828 0-1.218.64-.375.625-.375 1.922v1.734q0 1.375.39 2.047.407.657 1.219.657.797 0 1.188-.625.39-.625.406-1.954v-1.78zm8.094 1.485q0 1.906-.657 2.843-.64.922-2.031.922-1.36 0-2.016-.906-.656-.906-.687-2.719v-1.437q0-1.89.64-2.797.657-.922 2.047-.922 1.375 0 2.032.89.656.876.672 2.72v1.406zm-1.094-1.485q0-1.375-.39-2-.376-.64-1.22-.64-.828 0-1.218.64-.375.625-.375 1.922v1.734q0 1.375.39 2.047.407.657 1.219.657.797 0 1.188-.625.39-.625.406-1.954v-1.78zm2.875 4.563q0-.282.156-.469.172-.188.5-.188.344 0 .516.188.171.187.171.469 0 .265-.171.453-.172.172-.516.172-.328 0-.5-.172-.156-.188-.156-.453zm8.218-3.078q0 1.906-.656 2.843-.64.922-2.031.922-1.36 0-2.016-.906-.656-.906-.687-2.719v-1.437q0-1.89.64-2.797.657-.922 2.047-.922 1.375 0 2.032.89.656.876.671 2.72v1.406zm-1.093-1.485q0-1.375-.39-2-.376-.64-1.22-.64-.828 0-1.218.64-.375.625-.375 1.922v1.734q0 1.375.39 2.047.406.657 1.219.657.797 0 1.188-.625.39-.625.406-1.954v-1.78zm8.093 1.485q0 1.906-.656 2.843-.64.922-2.031.922-1.36 0-2.016-.906-.656-.906-.687-2.719v-1.437q0-1.89.64-2.797.657-.922 2.047-.922 1.375 0 2.032.89.656.876.671 2.72v1.406zm-1.093-1.485q0-1.375-.39-2-.376-.64-1.22-.64-.828 0-1.218.64-.375.625-.375 1.922v1.734q0 1.375.39 2.047.406.657 1.219.657.797 0 1.188-.625.39-.625.406-1.954v-1.78zM100.466 107h-1.078v-7.219l-2.188.797v-.984l3.11-1.172h.156V107zm3.515 1.703l-.61-.422q.548-.765.579-1.594v-.968h1.063v.844q0 .593-.297 1.187-.297.594-.735.953zm7.11-8.016q0 .641-.344 1.141t-.906.781q.656.282 1.047.844.39.547.39 1.25 0 1.094-.75 1.766-.734.656-1.953.656-1.234 0-1.984-.656-.735-.672-.735-1.766 0-.703.375-1.25.375-.562 1.047-.844-.562-.28-.89-.78-.329-.5-.329-1.141 0-1.079.688-1.704.687-.64 1.828-.64 1.125 0 1.813.64.703.625.703 1.704zm-.891 3.985q0-.719-.453-1.156-.453-.454-1.188-.454-.734 0-1.187.454-.438.437-.438 1.171 0 .72.438 1.141.437.406 1.203.406.75 0 1.188-.421.437-.422.437-1.141zm-1.625-5.438q-.64 0-1.047.407-.39.39-.39 1.078 0 .64.39 1.047.39.406 1.031.406.657 0 1.047-.406.39-.407.39-1.047 0-.656-.405-1.063-.407-.422-1.016-.422zm9.688 4.125q0 1.907-.657 2.844-.64.922-2.031.922-1.36 0-2.016-.906-.656-.906-.687-2.719v-1.438q0-1.89.64-2.796.657-.922 2.047-.922 1.375 0 2.032.89.656.875.672 2.72v1.405zm-1.094-1.484q0-1.375-.39-2-.376-.64-1.22-.64-.828 0-1.218.64-.375.625-.375 1.922v1.734q0 1.375.39 2.047.407.656 1.219.656.797 0 1.188-.625.39-.625.406-1.953v-1.781zm8.094 1.484q0 1.907-.657 2.844-.64.922-2.031.922-1.36 0-2.016-.906-.656-.906-.687-2.719v-1.438q0-1.89.64-2.796.657-.922 2.047-.922 1.375 0 2.032.89.656.875.672 2.72v1.405zm-1.094-1.484q0-1.375-.39-2-.376-.64-1.22-.64-.828 0-1.218.64-.375.625-.375 1.922v1.734q0 1.375.39 2.047.407.656 1.219.656.797 0 1.188-.625.39-.625.406-1.953v-1.781zm2.875 4.563q0-.282.156-.47.172-.187.5-.187.344 0 .516.188.171.187.171.469 0 .265-.171.453-.172.171-.516.171-.328 0-.5-.171-.156-.188-.156-.454zm8.218-3.079q0 1.907-.656 2.844-.64.922-2.031.922-1.36 0-2.016-.906-.656-.906-.687-2.719v-1.438q0-1.89.64-2.796.657-.922 2.047-.922 1.375 0 2.032.89.656.875.671 2.72v1.405zm-1.093-1.484q0-1.375-.39-2-.376-.64-1.22-.64-.828 0-1.218.64-.375.625-.375 1.922v1.734q0 1.375.39 2.047.406.656 1.219.656.797 0 1.188-.625.39-.625.406-1.953v-1.781zm8.093 1.484q0 1.907-.656 2.844-.64.922-2.031.922-1.36 0-2.016-.906-.656-.906-.687-2.719v-1.438q0-1.89.64-2.796.657-.922 2.047-.922 1.375 0 2.032.89.656.875.671 2.72v1.405zm-1.093-1.484q0-1.375-.39-2-.376-.64-1.22-.64-.828 0-1.218.64-.375.625-.375 1.922v1.734q0 1.375.39 2.047.406.656 1.219.656.797 0 1.188-.625.39-.625.406-1.953v-1.781zM324.9 520.519l.438-4.25h4.375v1h-3.453l-.265 2.328q.64-.375 1.437-.375 1.156 0 1.844.781.687.766.687 2.078 0 1.313-.718 2.078-.703.766-1.985.766-1.125 0-1.843-.625-.72-.64-.813-1.75h1.016q.109.734.53 1.11.423.374 1.11.374.75 0 1.188-.515.437-.516.437-1.422 0-.86-.468-1.375-.47-.516-1.25-.516-.704 0-1.11.297l-.281.234-.875-.218zm11.86.64q0 1.907-.656 2.844-.64.922-2.031.922-1.36 0-2.016-.906-.656-.907-.687-2.719v-1.438q0-1.89.64-2.796.657-.922 2.047-.922 1.375 0 2.031.89.657.875.672 2.72v1.405zm-1.093-1.484q0-1.375-.391-2-.375-.64-1.219-.64-.828 0-1.219.64-.375.625-.375 1.922v1.734q0 1.375.391 2.047.406.656 1.219.656.797 0 1.187-.625t.407-1.953v-1.781zm8.093 1.484q0 1.907-.656 2.844-.64.922-2.031.922-1.36 0-2.016-.906-.656-.907-.687-2.719v-1.438q0-1.89.64-2.796.657-.922 2.047-.922 1.375 0 2.031.89.657.875.672 2.72v1.405zm-1.093-1.484q0-1.375-.391-2-.375-.64-1.219-.64-.828 0-1.219.64-.375.625-.375 1.922v1.734q0 1.375.391 2.047.406.656 1.219.656.797 0 1.187-.625t.407-1.953v-1.781zm8.093 1.484q0 1.907-.656 2.844-.64.922-2.031.922-1.36 0-2.016-.906-.656-.907-.687-2.719v-1.438q0-1.89.64-2.796.657-.922 2.047-.922 1.375 0 2.031.89.657.875.672 2.72v1.405zm-1.093-1.484q0-1.375-.391-2-.375-.64-1.219-.64-.828 0-1.219.64-.375.625-.375 1.922v1.734q0 1.375.391 2.047.406.656 1.219.656.797 0 1.187-.625t.407-1.953v-1.781zm8.093 1.484q0 1.907-.656 2.844-.64.922-2.031.922-1.36 0-2.016-.906-.656-.907-.687-2.719v-1.438q0-1.89.64-2.796.657-.922 2.047-.922 1.375 0 2.031.89.657.875.672 2.72v1.405zm-1.093-1.484q0-1.375-.391-2-.375-.64-1.219-.64-.828 0-1.219.64-.375.625-.375 1.922v1.734q0 1.375.391 2.047.406.656 1.219.656.797 0 1.187-.625t.407-1.953v-1.781zM524.661 524.8h-1.078v-7.219l-2.187.797v-.984l3.109-1.172h.156v8.578zm8.797-3.64q0 1.906-.656 2.843-.64.922-2.031.922-1.36 0-2.016-.906-.656-.907-.688-2.719v-1.438q0-1.89.641-2.796.656-.922 2.047-.922 1.375 0 2.031.89.657.875.672 2.72v1.405zm-1.094-1.485q0-1.375-.39-2-.375-.64-1.219-.64-.828 0-1.219.64-.375.625-.375 1.922v1.734q0 1.375.39 2.047.407.656 1.22.656.797 0 1.187-.625t.406-1.953v-1.781zm8.094 1.484q0 1.907-.656 2.844-.64.922-2.031.922-1.36 0-2.016-.906-.656-.907-.688-2.719v-1.438q0-1.89.641-2.796.656-.922 2.047-.922 1.375 0 2.031.89.657.875.672 2.72v1.405zm-1.094-1.484q0-1.375-.39-2-.375-.64-1.219-.64-.828 0-1.219.64-.375.625-.375 1.922v1.734q0 1.375.39 2.047.407.656 1.22.656.797 0 1.187-.625t.406-1.953v-1.781zm8.094 1.484q0 1.907-.656 2.844-.64.922-2.031.922-1.36 0-2.016-.906-.656-.907-.688-2.719v-1.438q0-1.89.641-2.796.656-.922 2.047-.922 1.375 0 2.031.89.657.875.672 2.72v1.405zm-1.094-1.484q0-1.375-.39-2-.375-.64-1.219-.64-.828 0-1.219.64-.375.625-.375 1.922v1.734q0 1.375.39 2.047.407.656 1.22.656.797 0 1.187-.625t.406-1.953v-1.781zm8.094 1.484q0 1.907-.656 2.844-.64.922-2.031.922-1.36 0-2.016-.906-.656-.907-.688-2.719v-1.438q0-1.89.641-2.796.656-.922 2.047-.922 1.375 0 2.031.89.657.875.672 2.72v1.405zm-1.094-1.484q0-1.375-.39-2-.375-.64-1.219-.64-.828 0-1.219.64-.375.625-.375 1.922v1.734q0 1.375.39 2.047.407.656 1.22.656.797 0 1.187-.625t.406-1.953v-1.781zm8.094 1.484q0 1.907-.656 2.844-.64.922-2.031.922-1.36 0-2.016-.906-.656-.907-.688-2.719v-1.438q0-1.89.641-2.796.656-.922 2.047-.922 1.375 0 2.031.89.657.875.672 2.72v1.405zm-1.094-1.484q0-1.375-.39-2-.375-.64-1.219-.64-.828 0-1.219.64-.375.625-.375 1.922v1.734q0 1.375.39 2.047.407.656 1.22.656.797 0 1.187-.625t.406-1.953v-1.781zM724.86 524.8h-1.079v-7.219l-2.188.797v-.984l3.11-1.172h.156v8.578zm3.937-4.281l.437-4.25h4.375v1h-3.453l-.266 2.328q.641-.375 1.438-.375 1.156 0 1.844.781.687.766.687 2.078 0 1.313-.719 2.078-.703.766-1.984.766-1.125 0-1.844-.625-.719-.64-.812-1.75h1.015q.11.734.532 1.11.421.374 1.109.374.75 0 1.188-.515.437-.516.437-1.422 0-.86-.469-1.375-.469-.516-1.25-.516-.703 0-1.11.297l-.28.234-.875-.218zm11.859.64q0 1.907-.656 2.844-.64.922-2.032.922-1.359 0-2.015-.906-.656-.907-.688-2.719v-1.438q0-1.89.641-2.796.656-.922 2.047-.922 1.375 0 2.031.89.656.875.672 2.72v1.405zm-1.094-1.484q0-1.375-.39-2-.375-.64-1.22-.64-.827 0-1.218.64-.375.625-.375 1.922v1.734q0 1.375.39 2.047.407.656 1.22.656.796 0 1.187-.625.39-.625.406-1.953v-1.781zm8.094 1.484q0 1.907-.656 2.844-.64.922-2.032.922-1.359 0-2.015-.906-.656-.907-.688-2.719v-1.438q0-1.89.641-2.796.656-.922 2.047-.922 1.375 0 2.031.89.656.875.672 2.72v1.405zm-1.094-1.484q0-1.375-.39-2-.375-.64-1.22-.64-.827 0-1.218.64-.375.625-.375 1.922v1.734q0 1.375.39 2.047.407.656 1.22.656.796 0 1.187-.625.39-.625.406-1.953v-1.781zm8.094 1.484q0 1.907-.656 2.844-.64.922-2.032.922-1.359 0-2.015-.906-.656-.907-.688-2.719v-1.438q0-1.89.641-2.796.656-.922 2.047-.922 1.375 0 2.031.89.656.875.672 2.72v1.405zm-1.094-1.484q0-1.375-.39-2-.375-.64-1.22-.64-.827 0-1.218.64-.375.625-.375 1.922v1.734q0 1.375.39 2.047.407.656 1.22.656.796 0 1.187-.625.39-.625.406-1.953v-1.781zm8.094 1.484q0 1.907-.656 2.844-.64.922-2.032.922-1.359 0-2.015-.906-.656-.907-.688-2.719v-1.438q0-1.89.641-2.796.656-.922 2.047-.922 1.375 0 2.031.89.656.875.672 2.72v1.405zm-1.094-1.484q0-1.375-.39-2-.375-.64-1.22-.64-.827 0-1.218.64-.375.625-.375 1.922v1.734q0 1.375.39 2.047.407.656 1.22.656.796 0 1.187-.625.39-.625.406-1.953v-1.781zM927.088 524.8h-5.593v-.781l2.953-3.282q.656-.75.906-1.203.25-.468.25-.968 0-.672-.406-1.094-.391-.438-1.078-.438-.797 0-1.25.47-.454.452-.454 1.28h-1.078q0-1.187.75-1.906.766-.734 2.032-.734 1.203 0 1.89.625.688.625.688 1.672 0 1.25-1.61 3l-2.281 2.468h4.281v.891zm6.766-3.64q0 1.906-.656 2.843-.641.922-2.032.922-1.359 0-2.015-.906-.656-.907-.688-2.719v-1.438q0-1.89.64-2.796.657-.922 2.048-.922 1.375 0 2.031.89.656.875.672 2.72v1.405zm-1.094-1.485q0-1.375-.39-2-.375-.64-1.22-.64-.827 0-1.218.64-.375.625-.375 1.922v1.734q0 1.375.39 2.047.407.656 1.22.656.796 0 1.187-.625.39-.625.406-1.953v-1.781zm8.094 1.484q0 1.907-.656 2.844-.641.922-2.032.922-1.359 0-2.015-.906-.656-.907-.688-2.719v-1.438q0-1.89.64-2.796.657-.922 2.048-.922 1.375 0 2.031.89.656.875.672 2.72v1.405zm-1.094-1.484q0-1.375-.39-2-.375-.64-1.22-.64-.827 0-1.218.64-.375.625-.375 1.922v1.734q0 1.375.39 2.047.407.656 1.22.656.796 0 1.187-.625.39-.625.406-1.953v-1.781zm8.094 1.484q0 1.907-.656 2.844-.641.922-2.032.922-1.359 0-2.015-.906-.656-.907-.688-2.719v-1.438q0-1.89.64-2.796.657-.922 2.048-.922 1.375 0 2.031.89.656.875.672 2.72v1.405zm-1.094-1.484q0-1.375-.39-2-.375-.64-1.22-.64-.827 0-1.218.64-.375.625-.375 1.922v1.734q0 1.375.39 2.047.407.656 1.22.656.796 0 1.187-.625.39-.625.406-1.953v-1.781zm8.094 1.484q0 1.907-.656 2.844-.641.922-2.032.922-1.359 0-2.015-.906-.656-.907-.688-2.719v-1.438q0-1.89.64-2.796.657-.922 2.048-.922 1.375 0 2.031.89.656.875.672 2.72v1.405zm-1.094-1.484q0-1.375-.39-2-.375-.64-1.22-.64-.827 0-1.218.64-.375.625-.375 1.922v1.734q0 1.375.39 2.047.407.656 1.22.656.796 0 1.187-.625.39-.625.406-1.953v-1.781zm8.094 1.484q0 1.907-.656 2.844-.641.922-2.032.922-1.359 0-2.015-.906-.656-.907-.688-2.719v-1.438q0-1.89.64-2.796.657-.922 2.048-.922 1.375 0 2.031.89.656.875.672 2.72v1.405zm-1.094-1.484q0-1.375-.39-2-.375-.64-1.22-.64-.827 0-1.218.64-.375.625-.375 1.922v1.734q0 1.375.39 2.047.407.656 1.22.656.796 0 1.187-.625.39-.625.406-1.953v-1.781zM1127.286 524.8h-5.594v-.781l2.954-3.282q.656-.75.906-1.203.25-.468.25-.968 0-.672-.406-1.094-.391-.438-1.079-.438-.796 0-1.25.47-.453.452-.453 1.28h-1.078q0-1.187.75-1.906.766-.734 2.031-.734 1.204 0 1.891.625.688.625.688 1.672 0 1.25-1.61 3l-2.281 2.468h4.281v.891zm1.906-4.281l.438-4.25h4.375v1h-3.453l-.266 2.328q.64-.375 1.438-.375 1.156 0 1.843.781.688.766.688 2.078 0 1.313-.719 2.078-.703.766-1.984.766-1.125 0-1.844-.625-.719-.64-.813-1.75h1.016q.11.734.531 1.11.422.374 1.11.374.75 0 1.187-.515.438-.516.438-1.422 0-.86-.469-1.375-.469-.516-1.25-.516-.703 0-1.11.297l-.28.234-.876-.218zm11.86.64q0 1.907-.656 2.844-.641.922-2.032.922-1.36 0-2.015-.906-.657-.907-.688-2.719v-1.438q0-1.89.64-2.796.657-.922 2.048-.922 1.375 0 2.03.89.657.875.673 2.72v1.405zm-1.094-1.484q0-1.375-.39-2-.376-.64-1.22-.64-.827 0-1.218.64-.375.625-.375 1.922v1.734q0 1.375.39 2.047.407.656 1.22.656.796 0 1.187-.625.39-.625.406-1.953v-1.781zm8.094 1.484q0 1.907-.656 2.844-.641.922-2.032.922-1.36 0-2.015-.906-.657-.907-.688-2.719v-1.438q0-1.89.64-2.796.657-.922 2.048-.922 1.375 0 2.03.89.657.875.673 2.72v1.405zm-1.094-1.484q0-1.375-.39-2-.376-.64-1.22-.64-.827 0-1.218.64-.375.625-.375 1.922v1.734q0 1.375.39 2.047.407.656 1.22.656.796 0 1.187-.625.39-.625.406-1.953v-1.781zm8.094 1.484q0 1.907-.656 2.844-.641.922-2.032.922-1.36 0-2.015-.906-.657-.907-.688-2.719v-1.438q0-1.89.64-2.796.657-.922 2.048-.922 1.375 0 2.03.89.657.875.673 2.72v1.405zm-1.094-1.484q0-1.375-.39-2-.376-.64-1.22-.64-.827 0-1.218.64-.375.625-.375 1.922v1.734q0 1.375.39 2.047.407.656 1.22.656.796 0 1.187-.625.39-.625.406-1.953v-1.781zm8.094 1.484q0 1.907-.656 2.844-.641.922-2.032.922-1.36 0-2.015-.906-.657-.907-.688-2.719v-1.438q0-1.89.64-2.796.657-.922 2.048-.922 1.375 0 2.03.89.657.875.673 2.72v1.405zm-1.094-1.484q0-1.375-.39-2-.376-.64-1.22-.64-.827 0-1.218.64-.375.625-.375 1.922v1.734q0 1.375.39 2.047.407.656 1.22.656.796 0 1.187-.625.39-.625.406-1.953v-1.781z"/>
  <path stroke="#f0f" stroke-width="4" stroke-linecap="butt" d="M1223.8 102.5h12"/>
  <path fill="#757575" d="M1249.503 104.766h-3.578l-.797 2.234h-1.156l3.25-8.531h.984l3.266 8.531h-1.156l-.813-2.234zm-3.234-.922h2.906l-1.453-3.985-1.453 3.985zm7.968-5.375l2.797 6.953 2.782-6.953h1.468V107h-1.125v-3.328l.11-3.578-2.813 6.906h-.86l-2.796-6.89.11 3.562V107h-1.126v-8.531h1.453zm8.547 8.531v-8.531h2.422q1.11 0 1.953.5.86.484 1.328 1.39.47.907.47 2.094v.531q0 1.22-.47 2.125-.453.907-1.328 1.391-.859.484-2 .5h-2.375zm1.125-7.61v6.688h1.188q1.297 0 2.015-.797.735-.812.735-2.312v-.5q0-1.453-.688-2.25-.672-.813-1.937-.828h-1.313zm12.703 6.11l2.438-7.031h1.234l-3.172 8.531h-.984l-3.156-8.531h1.219l2.421 7.031zm8.454 1.5h-1.079v-7.219l-2.187.797v-.984l3.11-1.172h.156V107zm8.625-6.313q0 .641-.344 1.141t-.906.781q.656.282 1.046.844.391.547.391 1.25 0 1.094-.75 1.766-.734.656-1.953.656-1.234 0-1.984-.656-.735-.672-.735-1.766 0-.703.375-1.25.375-.562 1.047-.844-.562-.28-.89-.78-.329-.5-.329-1.141 0-1.079.688-1.704.687-.64 1.828-.64 1.125 0 1.813.64.703.625.703 1.704zm-.891 3.985q0-.719-.453-1.156-.453-.454-1.188-.454-.734 0-1.187.454-.438.437-.438 1.171 0 .72.438 1.141.437.406 1.203.406.75 0 1.188-.421.437-.422.437-1.141zm-1.625-5.438q-.64 0-1.047.407-.39.39-.39 1.078 0 .64.39 1.047.39.406 1.031.406.657 0 1.047-.406.39-.407.39-1.047 0-.656-.405-1.063-.407-.422-1.016-.422zm9.688 4.125q0 1.907-.657 2.844-.64.922-2.031.922-1.36 0-2.016-.906-.656-.906-.687-2.719v-1.438q0-1.89.64-2.796.657-.922 2.047-.922 1.375 0 2.032.89.656.875.671 2.72v1.405zm-1.094-1.484q0-1.375-.39-2-.376-.64-1.22-.64-.828 0-1.218.64-.375.625-.375 1.922v1.734q0 1.375.39 2.047.407.656 1.219.656.797 0 1.188-.625.39-.625.406-1.953v-1.781zm8.25-2.797l-3.532 7.922h-1.14l3.515-7.64h-4.609v-.891h5.766v.61zm1.765 7.922v-8.531h2.797q1.39 0 2.078.578.703.562.703 1.687 0 .61-.343 1.079-.328.453-.922.703.703.187 1.094.734.406.531.406 1.281 0 1.156-.75 1.813-.735.656-2.094.656h-2.969zm1.125-3.984v3.062h1.86q.797 0 1.25-.406.453-.406.453-1.125 0-1.531-1.688-1.531h-1.875zm0-.907h1.703q.735 0 1.172-.359.453-.375.453-1.016 0-.703-.406-1.015-.406-.328-1.25-.328h-1.672v2.718zm18.078 1.954q-.078 1.406-.718 2.234-.625.828-1.688.828-1.093 0-1.406-1-.313.5-.719.75-.406.25-.843.25-.829 0-1.266-.688-.422-.687-.313-1.874.094-.97.438-1.72.36-.765.922-1.202.562-.438 1.172-.438.484 0 .859.125t.844.5l-.313 3.25q-.11 1.344.75 1.344.672 0 1.078-.656.407-.657.438-1.704.125-2.28-.844-3.468-.953-1.203-2.906-1.203-1.188 0-2.11.578-.906.578-1.437 1.687-.516 1.094-.578 2.547-.078 1.453.344 2.531.421 1.063 1.28 1.625.876.563 2.095.563.53 0 1.062-.125.531-.125.875-.344l.219.688q-.36.218-.969.359-.594.156-1.203.156-1.469 0-2.531-.656-1.047-.656-1.578-1.906-.516-1.235-.454-2.89.079-1.61.72-2.891.655-1.297 1.765-2 1.125-.704 2.515-.704 1.47 0 2.5.657 1.047.656 1.547 1.906.516 1.234.453 2.89zm-6.015.5q-.078.828.156 1.28.235.438.75.438.36 0 .672-.297.328-.296.547-.859v-.047l.265-2.953q-.328-.172-.703-.172-.672 0-1.125.703-.453.688-.562 1.906zm14.094 2.437h-1.079v-7.219l-2.187.797v-.984l3.11-1.172h.156V107zm3.578-.563q0-.28.156-.468.172-.188.5-.188.344 0 .516.188.171.187.171.469 0 .265-.171.453-.172.171-.516.171-.328 0-.5-.171-.156-.188-.156-.454zm4.437-4.234h.813q.781-.016 1.218-.406.438-.39.438-1.063 0-1.5-1.5-1.5-.703 0-1.125.407-.406.406-.406 1.062h-1.094q0-1.016.734-1.687.75-.672 1.891-.672 1.203 0 1.89.64.688.641.688 1.782 0 .562-.36 1.078-.359.515-.984.781.703.219 1.078.734.391.516.391 1.266 0 1.14-.75 1.828-.75.672-1.953.672-1.188 0-1.953-.656-.75-.656-.75-1.719h1.094q0 .672.437 1.078.438.406 1.188.406.78 0 1.187-.406.422-.422.422-1.187 0-.735-.453-1.125-.453-.407-1.328-.422h-.813v-.89zm15.016 3.672q-.438.625-1.219.938-.781.312-1.812.312-1.032 0-1.844-.484-.813-.5-1.25-1.407-.438-.906-.453-2.093v-.735q0-1.937.89-3 .907-1.062 2.532-1.062 1.343 0 2.156.687.812.688 1 1.938h-1.125q-.328-1.688-2.016-1.688-1.14 0-1.718.797-.579.781-.594 2.297v.688q0 1.437.656 2.296.656.844 1.781.844.625 0 1.094-.14.484-.141.797-.485v-1.906h-1.969v-.922h3.094v3.125zm8.25 1.125h-1.125v-3.938h-4.313V107h-1.125v-8.531h1.125v3.672h4.313v-3.672h1.125V107zm3.297-.89h3.703v.89h-5.031v-.797l3.5-4.64h-3.454v-.907h4.813v.766l-3.531 4.687zm7.937-2.579q0-1.312.344-2.531.36-1.219 1.063-2.219.703-1 1.468-1.406l.219.719q-.86.656-1.406 2-.547 1.344-.594 3.015l-.016.5q0 2.266.828 3.922.5 1 1.188 1.563l-.219.656q-.781-.422-1.5-1.453-1.375-1.984-1.375-4.766zm7.032 1.969l2.437-7.031h1.234l-3.172 8.531h-.984l-3.156-8.531h1.219l2.421 7.031zm11.187-7.031v5.797q-.016 1.203-.766 1.984-.75.766-2.03.86l-.313.015q-1.391 0-2.235-.75-.828-.766-.828-2.094V98.47h1.11v5.781q0 .922.5 1.438.515.515 1.453.515.968 0 1.468-.516.5-.515.5-1.437v-5.781h1.141zm3.125 7.61h4.047V107h-5.188v-8.531h1.141v7.61zm7.031-3.048l-1.047 1.078V107h-1.125v-8.531h1.125v4.219l3.797-4.22h1.36l-3.36 3.766 3.625 4.766h-1.343l-3.032-3.969zm10.547 1.735h-3.578l-.797 2.234h-1.156l3.25-8.531h.984l3.266 8.531h-1.156l-.813-2.234zm-3.234-.922h2.906l-1.453-3.985-1.453 3.985zm13.078 3.156h-1.125l-4.297-6.578V107h-1.14v-8.531h1.14l4.297 6.61v-6.61h1.125V107zm5.484.734h-.922l3.563-9.265h.922l-3.563 9.265zm11.938-9.265v.906h-.203q-1.266.031-2.016.766-.75.718-.875 2.03.688-.765 1.844-.765 1.11 0 1.781.781.672.782.672 2.032 0 1.312-.719 2.11-.719.796-1.937.796-1.22 0-1.985-.938-.75-.953-.75-2.437v-.406q0-2.36 1-3.61t2.985-1.265h.203zm-1.422 3.844q-.563 0-1.031.328-.47.328-.657.843v.391q0 1.063.47 1.703.484.64 1.187.64.734 0 1.156-.53.422-.547.422-1.422 0-.875-.422-1.407-.422-.546-1.125-.546zm8.734 1.828h1.188v.875h-1.188V107h-1.078v-1.984h-3.89v-.641l3.812-5.906h1.156v5.672zm-3.734 0h2.656v-4.188l-.14.234-2.516 3.954zm8.531-.329h-2.86v-.874h2.86v.874zm6.11.094q0 1.453-.672 2.344-.657.875-1.782.875-1.203 0-1.859-.86l-.063.735h-.984v-9h1.078v3.36q.657-.813 1.813-.813t1.812.875q.657.86.657 2.39v.094zm-1.079-.125q0-1.11-.437-1.703-.422-.61-1.219-.61-1.078 0-1.547.985v2.75q.5 1 1.547 1 .781 0 1.219-.61.437-.609.437-1.812zM1466.8 107h-1.078v-6.344h1.078V107zm-1.172-8.016q0-.265.156-.453.172-.187.485-.187.312 0 .468.187.172.188.172.453 0 .25-.172.438-.156.172-.468.172-.313 0-.485-.172-.156-.188-.156-.438zm4.469.141v1.531h1.172v.844h-1.172v3.922q0 .39.156.578.156.188.531.188.188 0 .516-.063V107q-.422.125-.828.125-.719 0-1.094-.438-.375-.453-.375-1.265V101.5h-1.156v-.844h1.156v-1.531h1.094zm5.734 8.61h-.922l3.563-9.266h.922l-3.563 9.265zm14.516-.735h-1.125v-3.938h-4.313V107h-1.125v-8.531h1.125v3.672h4.313v-3.672h1.125V107zm1.984-3.234q0-.922.36-1.672.375-.75 1.03-1.14.657-.407 1.485-.407 1.297 0 2.094.89.813.891.813 2.391v.078q0 .922-.36 1.656-.36.735-1.015 1.157-.657.406-1.516.406-1.281 0-2.094-.89-.797-.907-.797-2.391v-.078zm1.094.14q0 1.047.484 1.688.5.64 1.313.64.828 0 1.312-.64.485-.656.485-1.828 0-1.032-.5-1.672-.485-.656-1.313-.656-.797 0-1.297.64-.484.625-.484 1.828zm7.672-4.781v1.531h1.172v.844h-1.172v3.922q0 .39.156.578.156.188.531.188.188 0 .516-.063V107q-.422.125-.828.125-.719 0-1.094-.438-.375-.453-.375-1.265V101.5h-1.156v-.844h1.156v-1.531h1.094zm5.203 4.078q-1.438-.422-2.11-1.031-.656-.61-.656-1.5 0-1 .797-1.656.813-.672 2.11-.672.875 0 1.562.344.688.343 1.063.937.39.594.39 1.313h-1.14q0-.782-.5-1.22-.485-.437-1.375-.437-.829 0-1.297.375-.469.36-.469 1 0 .531.438.89.453.36 1.515.657 1.063.297 1.656.656.61.36.891.844.297.484.297 1.125 0 1.047-.813 1.672-.812.625-2.156.625-.89 0-1.656-.344-.75-.344-1.172-.922-.406-.593-.406-1.328h1.125q0 .766.578 1.219.578.453 1.531.453.89 0 1.36-.36.468-.374.468-1 0-.624-.437-.968-.438-.344-1.594-.672zm4.031.563q0-.922.36-1.672.375-.75 1.03-1.14.657-.407 1.485-.407 1.297 0 2.094.89.813.891.813 2.391v.078q0 .922-.36 1.656-.36.735-1.015 1.157-.657.406-1.516.406-1.281 0-2.094-.89-.797-.907-.797-2.391v-.078zm1.094.14q0 1.047.484 1.688.5.64 1.313.64.828 0 1.312-.64.485-.656.485-1.828 0-1.032-.5-1.672-.485-.656-1.313-.656-.797 0-1.297.64-.484.625-.484 1.828zm9.266-2.281q-.25-.031-.532-.031-1.078 0-1.453.906v4.5h-1.078v-6.344h1.047l.016.735q.53-.844 1.515-.844.313 0 .485.078v1zm2.406-2.5v1.531h1.172v.844h-1.172v3.922q0 .39.156.578.156.188.531.188.188 0 .516-.063V107q-.422.125-.828.125-.719 0-1.094-.438-.375-.453-.375-1.265V101.5h-1.156v-.844h1.156v-1.531h1.094zm5.031 4.469q0 1.312-.344 2.515-.343 1.188-1.062 2.204-.703 1.015-1.469 1.437l-.234-.656q.906-.688 1.453-2.14.547-1.47.562-3.235v-.188q0-1.234-.265-2.297-.25-1.062-.719-1.89-.453-.844-1.031-1.313l.234-.656q.766.422 1.469 1.422.703 1 1.047 2.219.36 1.203.36 2.578z"/>
  <path stroke="red" stroke-width="4" stroke-linecap="butt" d="M1223.8 127.5h12"/>
  <path fill="#757575" d="M1249.503 129.766h-3.578l-.797 2.234h-1.156l3.25-8.531h.984l3.266 8.531h-1.156l-.813-2.234zm-3.234-.922h2.906l-1.453-3.985-1.453 3.985zm7.968-5.375l2.797 6.953 2.782-6.953h1.468V132h-1.125v-3.328l.11-3.578-2.813 6.906h-.86l-2.796-6.89.11 3.562V132h-1.126v-8.531h1.453zm8.547 8.531v-8.531h2.422q1.11 0 1.953.5.86.484 1.328 1.39.47.907.47 2.094v.531q0 1.22-.47 2.125-.453.907-1.328 1.391-.859.484-2 .5h-2.375zm1.125-7.61v6.688h1.188q1.297 0 2.015-.797.735-.812.735-2.312v-.5q0-1.453-.688-2.25-.672-.813-1.937-.828h-1.313zm12.703 6.11l2.438-7.031h1.234l-3.172 8.531h-.984l-3.156-8.531h1.219l2.421 7.031zm8.454 1.5h-1.079v-7.219l-2.187.797v-.984l3.11-1.172h.156V132zm8.625-6.313q0 .641-.344 1.141t-.906.781q.656.282 1.046.844.391.547.391 1.25 0 1.094-.75 1.766-.734.656-1.953.656-1.234 0-1.984-.656-.735-.672-.735-1.766 0-.703.375-1.25.375-.562 1.047-.844-.562-.28-.89-.78-.329-.5-.329-1.141 0-1.079.688-1.704.687-.64 1.828-.64 1.125 0 1.813.64.703.625.703 1.704zm-.891 3.985q0-.719-.453-1.156-.453-.453-1.188-.453-.734 0-1.187.453-.438.437-.438 1.172 0 .718.438 1.14.437.406 1.203.406.75 0 1.188-.422.437-.421.437-1.14zm-1.625-5.438q-.64 0-1.047.407-.39.39-.39 1.078 0 .64.39 1.047.39.406 1.031.406.657 0 1.047-.406.39-.407.39-1.047 0-.656-.405-1.063-.407-.422-1.016-.422zm9.688 4.125q0 1.907-.657 2.844-.64.922-2.031.922-1.36 0-2.016-.906-.656-.906-.687-2.719v-1.438q0-1.89.64-2.796.657-.922 2.047-.922 1.375 0 2.032.89.656.875.671 2.72v1.405zm-1.094-1.484q0-1.375-.39-2-.376-.64-1.22-.64-.828 0-1.218.64-.375.625-.375 1.922v1.734q0 1.375.39 2.047.407.656 1.219.656.797 0 1.188-.625.39-.625.406-1.953v-1.781zm8.25-2.797l-3.532 7.922h-1.14l3.515-7.64h-4.609v-.891h5.766v.61zm1.765 7.922v-8.531h2.797q1.39 0 2.078.578.703.562.703 1.687 0 .61-.343 1.079-.328.453-.922.703.703.187 1.094.734.406.531.406 1.281 0 1.156-.75 1.813-.735.656-2.094.656h-2.969zm1.125-3.984v3.062h1.86q.797 0 1.25-.406.453-.406.453-1.125 0-1.531-1.688-1.531h-1.875zm0-.907h1.703q.735 0 1.172-.359.453-.375.453-1.016 0-.703-.406-1.015-.406-.328-1.25-.328h-1.672v2.718zm18.078 1.954q-.078 1.406-.718 2.234-.625.828-1.688.828-1.093 0-1.406-1-.313.5-.719.75-.406.25-.843.25-.829 0-1.266-.688-.422-.687-.313-1.875.094-.968.438-1.718.36-.766.922-1.203.562-.438 1.172-.438.484 0 .859.125t.844.5l-.313 3.25q-.11 1.344.75 1.344.672 0 1.078-.656.407-.657.438-1.703.125-2.282-.844-3.47-.953-1.202-2.906-1.202-1.188 0-2.11.578-.906.578-1.437 1.687-.516 1.094-.578 2.547-.078 1.453.344 2.531.421 1.063 1.28 1.625.876.563 2.095.563.53 0 1.062-.125.531-.125.875-.344l.219.688q-.36.218-.969.359-.594.156-1.203.156-1.469 0-2.531-.656-1.047-.656-1.578-1.906-.516-1.235-.454-2.89.079-1.61.72-2.892.655-1.296 1.765-2 1.125-.703 2.515-.703 1.47 0 2.5.657 1.047.656 1.547 1.906.516 1.234.453 2.89zm-6.015.5q-.078.828.156 1.28.235.438.75.438.36 0 .672-.297.328-.297.547-.859v-.047l.265-2.953q-.328-.172-.703-.172-.672 0-1.125.703-.453.688-.562 1.906zm14.094 2.437h-1.079v-7.219l-2.187.797v-.984l3.11-1.172h.156V132zm3.578-.563q0-.28.156-.468.172-.188.5-.188.344 0 .516.188.171.187.171.469 0 .265-.171.453-.172.172-.516.172-.328 0-.5-.172-.156-.188-.156-.453zm4.437-4.234h.813q.781-.016 1.218-.406.438-.39.438-1.063 0-1.5-1.5-1.5-.703 0-1.125.407-.406.406-.406 1.062h-1.094q0-1.016.734-1.687.75-.672 1.891-.672 1.203 0 1.89.64.688.641.688 1.782 0 .562-.36 1.078-.359.515-.984.781.703.219 1.078.734.391.516.391 1.266 0 1.14-.75 1.828-.75.672-1.953.672-1.188 0-1.953-.656-.75-.656-.75-1.719h1.094q0 .672.437 1.078.438.406 1.188.406.78 0 1.187-.406.422-.422.422-1.187 0-.735-.453-1.125-.453-.407-1.328-.422h-.813v-.89zm15.016 3.672q-.438.625-1.219.938-.781.312-1.812.312-1.032 0-1.844-.484-.813-.5-1.25-1.407-.438-.906-.453-2.093v-.735q0-1.937.89-3 .907-1.062 2.532-1.062 1.343 0 2.156.687.812.688 1 1.938h-1.125q-.328-1.688-2.016-1.688-1.14 0-1.718.797-.579.781-.594 2.297v.688q0 1.437.656 2.296.656.844 1.781.844.625 0 1.094-.14.484-.141.797-.485v-1.906h-1.969v-.922h3.094v3.125zm8.25 1.125h-1.125v-3.938h-4.313V132h-1.125v-8.531h1.125v3.672h4.313v-3.672h1.125V132zm3.297-.89h3.703v.89h-5.031v-.797l3.5-4.64h-3.454v-.907h4.813v.766l-3.531 4.687zm7.937-2.579q0-1.312.344-2.531.36-1.219 1.063-2.219.703-1 1.468-1.406l.219.719q-.86.656-1.406 2-.547 1.344-.594 3.015l-.016.5q0 2.266.828 3.922.5 1 1.188 1.563l-.219.656q-.781-.422-1.5-1.453-1.375-1.984-1.375-4.766zm7.032 1.969l2.437-7.031h1.234l-3.172 8.531h-.984l-3.156-8.531h1.219l2.421 7.031zm11.187-7.031v5.797q-.016 1.203-.766 1.984-.75.766-2.03.86l-.313.015q-1.391 0-2.235-.75-.828-.766-.828-2.094v-5.812h1.11v5.781q0 .922.5 1.438.515.515 1.453.515.968 0 1.468-.516.5-.515.5-1.437v-5.781h1.141zm3.125 7.61h4.047V132h-5.188v-8.531h1.141v7.61zm7.031-3.048l-1.047 1.078V132h-1.125v-8.531h1.125v4.219l3.797-4.22h1.36l-3.36 3.766 3.625 4.766h-1.343l-3.032-3.969zm10.547 1.735h-3.578l-.797 2.234h-1.156l3.25-8.531h.984l3.266 8.531h-1.156l-.813-2.234zm-3.234-.922h2.906l-1.453-3.985-1.453 3.985zm13.078 3.156h-1.125l-4.297-6.578V132h-1.14v-8.531h1.14l4.297 6.61v-6.61h1.125V132zm5.484.734h-.922l3.563-9.265h.922l-3.563 9.265zm9.25-5.53h.813q.781-.016 1.218-.407.438-.39.438-1.063 0-1.5-1.5-1.5-.703 0-1.125.407-.406.406-.406 1.062h-1.094q0-1.016.734-1.687.75-.672 1.891-.672 1.203 0 1.89.64.688.641.688 1.782 0 .562-.36 1.078-.359.515-.984.781.703.219 1.078.734.391.516.391 1.266 0 1.14-.75 1.828-.75.672-1.953.672-1.188 0-1.953-.656-.75-.656-.75-1.719h1.094q0 .672.437 1.078.438.406 1.188.406.78 0 1.187-.406.422-.422.422-1.187 0-.735-.453-1.125-.453-.407-1.328-.422h-.813v-.89zm11.016 4.796h-5.594v-.781l2.953-3.281q.657-.75.907-1.204.25-.468.25-.968 0-.672-.407-1.094-.39-.438-1.078-.438-.797 0-1.25.47-.453.452-.453 1.28h-1.078q0-1.187.75-1.906.765-.734 2.031-.734 1.203 0 1.89.625.688.625.688 1.672 0 1.25-1.61 3l-2.28 2.468h4.28V132zm3.781-3.188h-2.86v-.875h2.86v.876zm6.11.094q0 1.453-.672 2.344-.657.875-1.782.875-1.203 0-1.859-.86l-.063.735h-.984v-9h1.078v3.36q.657-.813 1.813-.813t1.812.875q.657.86.657 2.39v.094zm-1.079-.125q0-1.11-.437-1.703-.422-.61-1.219-.61-1.078 0-1.547.985v2.75q.5 1 1.547 1 .781 0 1.219-.61.437-.609.437-1.812zM1466.8 132h-1.078v-6.344h1.078V132zm-1.172-8.016q0-.265.156-.453.172-.187.485-.187.312 0 .468.187.172.188.172.453 0 .25-.172.438-.156.172-.468.172-.313 0-.485-.172-.156-.188-.156-.438zm4.469.141v1.531h1.172v.844h-1.172v3.922q0 .39.156.578.156.188.531.188.188 0 .516-.063V132q-.422.125-.828.125-.719 0-1.094-.438-.375-.453-.375-1.265V126.5h-1.156v-.844h1.156v-1.531h1.094zm5.734 8.61h-.922l3.563-9.266h.922l-3.563 9.265zm14.516-.735h-1.125v-3.938h-4.313V132h-1.125v-8.531h1.125v3.672h4.313v-3.672h1.125V132zm1.984-3.234q0-.922.36-1.672.375-.75 1.03-1.14.657-.407 1.485-.407 1.297 0 2.094.89.813.891.813 2.391v.078q0 .922-.36 1.656-.36.735-1.015 1.157-.657.406-1.516.406-1.281 0-2.094-.89-.797-.907-.797-2.391v-.078zm1.094.14q0 1.047.484 1.688.5.64 1.313.64.828 0 1.312-.64.485-.656.485-1.828 0-1.032-.5-1.672-.485-.656-1.313-.656-.797 0-1.297.64-.484.625-.484 1.828zm7.672-4.781v1.531h1.172v.844h-1.172v3.922q0 .39.156.578.156.188.531.188.188 0 .516-.063V132q-.422.125-.828.125-.719 0-1.094-.438-.375-.453-.375-1.265V126.5h-1.156v-.844h1.156v-1.531h1.094zm5.203 4.078q-1.438-.422-2.11-1.031-.656-.61-.656-1.5 0-1 .797-1.656.813-.672 2.11-.672.875 0 1.562.344.688.343 1.063.937.39.594.39 1.313h-1.14q0-.782-.5-1.22-.485-.437-1.375-.437-.829 0-1.297.375-.469.36-.469 1 0 .531.438.89.453.36 1.515.657 1.063.297 1.656.656.61.36.891.844.297.484.297 1.125 0 1.047-.813 1.672-.812.625-2.156.625-.89 0-1.656-.344-.75-.344-1.172-.922-.406-.593-.406-1.328h1.125q0 .766.578 1.219.578.453 1.531.453.89 0 1.36-.36.468-.374.468-1 0-.624-.437-.968-.438-.344-1.594-.672zm4.031.563q0-.922.36-1.672.375-.75 1.03-1.14.657-.407 1.485-.407 1.297 0 2.094.89.813.891.813 2.391v.078q0 .922-.36 1.656-.36.735-1.015 1.157-.657.406-1.516.406-1.281 0-2.094-.89-.797-.907-.797-2.391v-.078zm1.094.14q0 1.047.484 1.688.5.64 1.313.64.828 0 1.312-.64.485-.656.485-1.828 0-1.032-.5-1.672-.485-.656-1.313-.656-.797 0-1.297.64-.484.625-.484 1.828zm9.266-2.281q-.25-.031-.532-.031-1.078 0-1.453.906v4.5h-1.078v-6.344h1.047l.016.735q.53-.844 1.515-.844.313 0 .485.078v1zm2.406-2.5v1.531h1.172v.844h-1.172v3.922q0 .39.156.578.156.188.531.188.188 0 .516-.063V132q-.422.125-.828.125-.719 0-1.094-.438-.375-.453-.375-1.265V126.5h-1.156v-.844h1.156v-1.531h1.094zm5.031 4.469q0 1.312-.344 2.515-.343 1.188-1.062 2.203-.703 1.016-1.469 1.438l-.234-.656q.906-.688 1.453-2.14.547-1.47.562-3.235v-.188q0-1.234-.265-2.297-.25-1.062-.719-1.89-.453-.844-1.031-1.313l.234-.656q.766.422 1.469 1.422.703 1 1.047 2.219.36 1.203.36 2.578z"/>
  <path fill="#000" d="M53.84 65.2h-3.39V53.372H37.544V65.2h-3.375V39.606h3.375v11H50.45v-11h3.39V65.2zm4.954-9.688q0-2.796 1.094-5.03 1.109-2.235 3.062-3.438 1.969-1.219 4.484-1.219 3.875 0 6.282 2.687 2.406 2.688 2.406 7.157v.234q0 2.781-1.078 4.984-1.063 2.204-3.047 3.438-1.969 1.234-4.531 1.234-3.86 0-6.266-2.687-2.406-2.703-2.406-7.125v-.235zm3.281.391q0 3.156 1.469 5.078 1.469 1.922 3.922 1.922 2.484 0 3.937-1.937 1.453-1.954 1.453-5.454 0-3.125-1.484-5.062-1.484-1.953-3.938-1.953-2.406 0-3.89 1.922-1.469 1.906-1.469 5.484zm23-14.328v4.61h3.547V48.7h-3.547v11.781q0 1.156.469 1.735.484.562 1.625.562.562 0 1.547-.219V65.2q-1.282.36-2.5.36-2.172 0-3.282-1.313-1.109-1.328-1.109-3.766V48.7h-3.469v-2.516h3.469v-4.609h3.25zm15.64 12.219q-4.343-1.25-6.328-3.063-1.968-1.828-1.968-4.5 0-3.015 2.406-5 2.422-1.984 6.297-1.984 2.625 0 4.687 1.031 2.079 1.016 3.204 2.813 1.14 1.78 1.14 3.921h-3.39q0-2.328-1.485-3.656-1.469-1.328-4.156-1.328-2.5 0-3.906 1.11-1.391 1.093-1.391 3.046 0 1.563 1.328 2.641t4.516 1.984q3.187.891 4.984 1.97 1.813 1.077 2.672 2.53.875 1.438.875 3.391 0 3.11-2.422 4.984-2.422 1.875-6.484 1.875-2.64 0-4.922-1.015-2.281-1.016-3.531-2.766-1.235-1.766-1.235-4h3.39q0 2.328 1.72 3.672 1.718 1.344 4.578 1.344 2.672 0 4.094-1.094 1.421-1.094 1.421-2.969 0-1.875-1.328-2.906-1.312-1.031-4.765-2.031zm12.079 1.718q0-2.796 1.094-5.03 1.109-2.235 3.062-3.438 1.969-1.219 4.484-1.219 3.875 0 6.282 2.687 2.406 2.688 2.406 7.157v.234q0 2.781-1.078 4.984-1.063 2.204-3.047 3.438-1.969 1.234-4.531 1.234-3.86 0-6.266-2.687-2.406-2.703-2.406-7.125v-.235zm3.281.391q0 3.156 1.469 5.078 1.469 1.922 3.922 1.922 2.484 0 3.937-1.937 1.453-1.954 1.453-5.454 0-3.125-1.484-5.062-1.484-1.953-3.938-1.953-2.406 0-3.89 1.922-1.469 1.906-1.469 5.484zm27.781-6.812q-.734-.11-1.594-.11-3.203 0-4.343 2.719v13.5h-3.25V46.184h3.156l.047 2.188q1.61-2.547 4.547-2.547.937 0 1.437.25v3.016zm7.219-7.516v4.61h3.547V48.7h-3.547v11.781q0 1.156.469 1.735.484.562 1.625.562.562 0 1.547-.219V65.2q-1.282.36-2.5.36-2.172 0-3.282-1.313-1.109-1.328-1.109-3.766V48.7h-3.469v-2.516h3.469v-4.609h3.25zm34.781.812h-8.234V65.2h-3.344V42.387h-8.219v-2.78h19.797v2.78zm6.063 6.094q2.156-2.656 5.625-2.656 6.031 0 6.078 6.812V65.2h-3.25V52.606q-.016-2.047-.938-3.031-.922-.984-2.875-.984-1.593 0-2.797.843-1.187.844-1.843 2.22V65.2h-3.25v-27h3.25v10.281zm25.937.61q-.734-.11-1.594-.11-3.203 0-4.343 2.719v13.5h-3.25V46.184h3.156l.047 2.188q1.61-2.547 4.547-2.547.937 0 1.437.25v3.016zm1.938 6.421q0-2.796 1.093-5.03 1.11-2.235 3.063-3.438 1.969-1.219 4.484-1.219 3.875 0 6.282 2.687 2.406 2.688 2.406 7.157v.234q0 2.781-1.078 4.984-1.063 2.204-3.047 3.438-1.969 1.234-4.531 1.234-3.86 0-6.266-2.687-2.406-2.703-2.406-7.125v-.235zm3.281.391q0 3.156 1.469 5.078 1.468 1.922 3.922 1.922 2.484 0 3.937-1.937 1.453-1.954 1.453-5.454 0-3.125-1.484-5.062-1.485-1.953-3.938-1.953-2.406 0-3.89 1.922-1.469 1.906-1.469 5.484zm30.328 7.422q-1.89 2.234-5.578 2.234-3.031 0-4.625-1.765-1.594-1.782-1.61-5.235V46.184h3.25v12.282q0 4.328 3.516 4.328 3.735 0 4.953-2.782V46.184h3.266V65.2h-3.094l-.078-1.875zm7.484-7.797q0-4.437 2.047-7.062 2.063-2.641 5.453-2.641 3.485 0 5.438 2.469l.156-2.11h2.969v18.563q0 3.687-2.188 5.812-2.187 2.125-5.875 2.125-2.062 0-4.03-.875-1.97-.875-3-2.406l1.687-1.953q2.094 2.578 5.11 2.578 2.374 0 3.702-1.344 1.328-1.328 1.328-3.75v-1.64q-1.953 2.265-5.328 2.265-3.344 0-5.406-2.687-2.063-2.703-2.063-7.344zm3.266.375q0 3.219 1.313 5.063 1.328 1.828 3.703 1.828 3.078 0 4.515-2.797v-8.688q-1.5-2.718-4.484-2.718-2.375 0-3.719 1.843-1.328 1.844-1.328 5.47zm20.766-7.422q2.156-2.656 5.625-2.656 6.031 0 6.078 6.812V65.2h-3.25V52.606q-.016-2.047-.938-3.031-.922-.984-2.875-.984-1.593 0-2.797.843-1.187.844-1.843 2.22V65.2h-3.25v-27h3.25v10.281zm32.812 7.422q0 4.344-1.984 7-1.985 2.656-5.39 2.656-3.454 0-5.438-2.203v9.157h-3.25V46.184h2.969l.156 2.11q1.984-2.469 5.515-2.469 3.422 0 5.422 2.594 2 2.578 2 7.187v.297zm-3.25-.375q0-3.219-1.375-5.078-1.375-1.86-3.765-1.86-2.954 0-4.422 2.61v9.094q1.453 2.61 4.453 2.61 2.344 0 3.719-1.86 1.39-1.86 1.39-5.516zm18.922 7.797q-1.89 2.234-5.578 2.234-3.031 0-4.625-1.765-1.594-1.782-1.61-5.235V46.184h3.25v12.282q0 4.328 3.516 4.328 3.735 0 4.953-2.782V46.184h3.266V65.2h-3.094l-.078-1.875zm12.672-21.75v4.61h3.547V48.7h-3.547v11.781q0 1.156.469 1.735.484.562 1.625.562.562 0 1.547-.219V65.2q-1.282.36-2.5.36-2.172 0-3.282-1.313-1.109-1.328-1.109-3.766V48.7h-3.469v-2.516h3.469v-4.609h3.25zm23.36 14.078h-8.579v-2.656h8.578v2.656zm26.874 2.86h-10.734l-2.406 6.687H379.7l9.766-25.594h2.953l9.797 25.594h-3.47l-2.437-6.688zm-9.703-2.766h8.703l-4.359-11.969-4.344 11.969zm22.922-16.14l8.375 20.874 8.36-20.875h4.375V65.2h-3.375v-9.969l.328-10.75-8.407 20.719h-2.593l-8.375-20.672.328 10.703V65.2h-3.375V39.606h4.36zm26.64 25.593V39.606h7.235q3.328 0 5.89 1.485 2.579 1.468 3.97 4.203 1.406 2.718 1.421 6.25v1.625q0 3.625-1.406 6.36-1.39 2.718-3.984 4.187-2.594 1.453-6.031 1.484h-7.094zm3.376-22.813v20.047h3.547q3.906 0 6.078-2.422 2.172-2.421 2.172-6.906v-1.5q0-4.36-2.047-6.765-2.047-2.422-5.813-2.454h-3.937zm43.765 16.125h-10.734l-2.406 6.688H466.7l9.766-25.594h2.953l9.797 25.594h-3.47l-2.437-6.688zm-9.703-2.765h8.703l-4.359-11.969-4.344 11.969zm21.938-.563V65.2h-3.375V39.606h9.437q4.203 0 6.578 2.14 2.391 2.141 2.391 5.688 0 3.72-2.328 5.735t-6.672 2.015h-6.031zm0-2.765h6.062q2.719 0 4.156-1.266 1.438-1.281 1.438-3.687 0-2.282-1.438-3.657-1.437-1.375-3.953-1.422h-6.265V52.42zm37.64-12.813v17.406q-.015 3.61-2.28 5.922-2.25 2.297-6.11 2.579l-.906.046q-4.204 0-6.704-2.265-2.484-2.282-2.515-6.25V39.606h3.328v17.328q0 2.782 1.531 4.328 1.531 1.532 4.36 1.532 2.875 0 4.39-1.532 1.516-1.53 1.516-4.312V39.606h3.39zm20.25 16.047h-8.578v-2.656h8.578v2.656zm16.625-4.828h2.438q2.312-.047 3.625-1.219 1.312-1.172 1.312-3.187 0-4.5-4.484-4.5-2.11 0-3.36 1.218-1.25 1.204-1.25 3.188h-3.265q0-3.047 2.219-5.063 2.234-2.015 5.656-2.015 3.625 0 5.672 1.922 2.062 1.922 2.062 5.328 0 1.672-1.078 3.234-1.078 1.563-2.937 2.344 2.11.656 3.25 2.203 1.156 1.547 1.156 3.781 0 3.453-2.25 5.485-2.25 2.015-5.86 2.015-3.593 0-5.859-1.953-2.25-1.953-2.25-5.156h3.266q0 2.016 1.312 3.234 1.329 1.22 3.547 1.22 2.344 0 3.594-1.235t1.25-3.532q0-2.234-1.375-3.421-1.36-1.204-3.953-1.235h-2.438v-2.656zM602.091 65.2h-16.766v-2.344l8.86-9.844q1.968-2.234 2.718-3.625.75-1.39.75-2.89 0-2-1.219-3.281-1.203-1.297-3.234-1.297-2.422 0-3.766 1.39-1.343 1.375-1.343 3.844h-3.25q0-3.547 2.265-5.719 2.282-2.187 6.094-2.187 3.578 0 5.64 1.875 2.079 1.875 2.079 4.984 0 3.781-4.813 9l-6.86 7.438h12.845V65.2zm10.343-9.547h-8.578v-2.656h8.578v2.656zm19.329.25q0 4.36-2 7.016-2 2.64-5.375 2.64-3.61 0-5.579-2.562l-.156 2.203h-2.984v-27h3.25v10.078q1.969-2.453 5.422-2.453 3.468 0 5.437 2.625 1.985 2.61 1.985 7.172v.281zm-3.25-.375q0-3.312-1.282-5.125-1.281-1.812-3.687-1.812-3.219 0-4.625 2.984v8.234q1.484 2.985 4.656 2.985 2.328 0 3.625-1.813 1.313-1.812 1.313-5.453zM639.2 65.2h-3.25V46.184h3.25V65.2zm-3.516-24.063q0-.796.485-1.343.484-.547 1.422-.547.953 0 1.437.547.5.547.5 1.343 0 .782-.5 1.313-.484.531-1.437.531-.938 0-1.422-.531-.485-.531-.485-1.313zm13.391.438v4.61h3.547V48.7h-3.547v11.781q0 1.156.469 1.735.484.562 1.625.562.562 0 1.547-.219V65.2q-1.282.36-2.5.36-2.172 0-3.282-1.313-1.109-1.328-1.109-3.766V48.7h-3.469v-2.516h3.469v-4.609h3.25zm15.906 16.75q0-1.844 1.016-3.39 1.031-1.548 3.937-3.61-1.703-2.063-2.28-3.328-.579-1.266-.579-2.516 0-2.922 1.719-4.578 1.719-1.656 4.672-1.656 2.64 0 4.359 1.547 1.719 1.531 1.719 3.875 0 1.547-.781 2.86-.782 1.312-2.735 2.75l-1.875 1.39 5.688 6.797q1.203-2.282 1.203-5.079h2.937q0 4.485-2.172 7.438l3.657 4.375h-3.891l-1.703-2.016q-1.313 1.157-3.063 1.766-1.75.61-3.546.61-3.75 0-6.016-1.985-2.266-2-2.266-5.25zm8.282 4.578q2.578 0 4.718-1.969l-6.234-7.484-.578.422q-2.938 2.172-2.938 4.453 0 2.078 1.344 3.328t3.688 1.25zm-2.938-17.531q0 1.687 2.063 4.219l2.078-1.454q1.203-.843 1.64-1.609.438-.766.438-1.86 0-1.171-.89-1.952-.876-.797-2.204-.797-1.438 0-2.281.984-.844.969-.844 2.469zm38.766-5.781v2.75h-.594q-3.797.078-6.047 2.265-2.25 2.172-2.61 6.125 2.032-2.312 5.516-2.312 3.344 0 5.344 2.36 2 2.343 2 6.077 0 3.953-2.156 6.328-2.156 2.375-5.781 2.375-3.672 0-5.954-2.828-2.28-2.828-2.28-7.265v-1.25q0-7.063 3-10.797 3.015-3.75 8.984-3.828h.578zm-4.266 11.53q-1.672 0-3.078 1t-1.953 2.516v1.188q0 3.172 1.422 5.11 1.422 1.921 3.547 1.921 2.203 0 3.453-1.61 1.265-1.624 1.265-4.234 0-2.64-1.281-4.265-1.266-1.625-3.375-1.625zm25.234 5.485h3.547v2.656h-3.547V65.2h-3.265v-5.938h-11.656v-1.921l11.453-17.735h3.468v17zm-11.234 0h7.969V44.06l-.39.703-7.579 11.844zm24.61-.953h-8.579v-2.656h8.578v2.656zm19.328.25q0 4.36-2 7.016-2 2.64-5.375 2.64-3.61 0-5.579-2.562l-.156 2.203h-2.984v-27h3.25v10.078q1.969-2.453 5.422-2.453 3.468 0 5.437 2.625 1.985 2.61 1.985 7.172v.281zm-3.25-.375q0-3.312-1.282-5.125-1.281-1.812-3.687-1.812-3.219 0-4.625 2.984v8.234q1.484 2.985 4.656 2.985 2.328 0 3.625-1.813 1.313-1.812 1.313-5.453zM770.2 65.2h-3.25V46.184h3.25V65.2zm-3.516-24.063q0-.796.485-1.343.484-.547 1.422-.547.953 0 1.437.547.5.547.5 1.343 0 .782-.5 1.313-.484.531-1.437.531-.938 0-1.422-.531-.485-.531-.485-1.313zm13.391.438v4.61h3.547V48.7h-3.547v11.781q0 1.156.469 1.735.484.562 1.625.562.562 0 1.547-.219V65.2q-1.282.36-2.5.36-2.172 0-3.282-1.313-1.109-1.328-1.109-3.766V48.7h-3.469v-2.516h3.469v-4.609h3.25zm23.594 11.719l-3.125 3.25V65.2h-3.375V39.606h3.375v12.656l11.375-12.656h4.078l-10.078 11.297L816.794 65.2h-4.047l-9.078-11.906zm23.89 12.265q-3.875 0-6.296-2.547-2.422-2.546-2.422-6.796v-.594q0-2.828 1.078-5.047 1.078-2.234 3.015-3.484 1.954-1.266 4.22-1.266 3.702 0 5.75 2.453 2.062 2.438 2.062 6.984v1.36H822.09q.062 2.812 1.64 4.547 1.578 1.734 4 1.734 1.719 0 2.907-.703 1.203-.703 2.109-1.875l1.984 1.547q-2.39 3.687-7.172 3.687zm-.406-17.062q-1.969 0-3.312 1.437-1.328 1.438-1.641 4.016h9.516v-.25q-.141-2.469-1.344-3.828-1.188-1.375-3.219-1.375zm17.735 11.937l4.421-14.25h3.485l-7.64 21.954q-1.782 4.75-5.641 4.75l-.625-.063-1.204-.219v-2.64l.875.062q1.657 0 2.579-.672.921-.656 1.515-2.437l.719-1.938-6.781-18.797h3.547l4.75 14.25zm21.843-.28q0-1.313-1-2.048-.984-.734-3.453-1.25-2.469-.531-3.922-1.265-1.453-.75-2.14-1.766-.688-1.016-.688-2.422 0-2.344 1.969-3.953 1.984-1.625 5.062-1.625 3.235 0 5.235 1.672 2.015 1.672 2.015 4.265h-3.265q0-1.328-1.14-2.296-1.126-.97-2.845-.97-1.78 0-2.78.782-1 .766-1 2.016 0 1.172.921 1.781.938.594 3.375 1.14 2.438.547 3.938 1.297 1.515.75 2.234 1.829.734 1.062.734 2.578 0 2.562-2.047 4.11-2.03 1.53-5.28 1.53-2.282 0-4.048-.812-1.75-.813-2.75-2.266-.984-1.453-.984-3.14h3.25q.094 1.64 1.312 2.609 1.22.953 3.22.953 1.843 0 2.952-.75 1.125-.75 1.125-2z"/>
</svg>
