<svg fill="none" stroke-linecap="square" stroke-miterlimit="10" width="1560" height="624" xmlns="http://www.w3.org/2000/svg">
  <path fill="#fff" d="M0 0h1560v624H0V0z"/>
  <path fill="#fff" d="M0 0h1560v624H0V0z"/>
  <path stroke="#ccc" stroke-linecap="butt" d="M312.5 102.5v404M510.5 102.5v404M707.5 102.5v404M905.5 102.5v404M1102.5 102.5v404"/>
  <path stroke="#e6e6e6" stroke-linecap="butt" d="M273.5 102.5v404M233.5 102.5v404M194.5 102.5v404M154.5 102.5v404M470.5 102.5v404M431.5 102.5v404M391.5 102.5v404M352.5 102.5v404M668.5 102.5v404M628.5 102.5v404M589.5 102.5v404M549.5 102.5v404M865.5 102.5v404M826.5 102.5v404M786.5 102.5v404M747.5 102.5v404M1063.5 102.5v404M1023.5 102.5v404M984.5 102.5v404M944.5 102.5v404M1142.5 102.5v404"/>
  <path stroke="#333" stroke-linecap="butt" d="M123.5 506.5h1027"/>
  <path stroke="#ccc" stroke-linecap="butt" d="M123.5 461.5h1027M123.5 416.5h1027M123.5 372.5h1027M123.5 327.5h1027M123.5 282.5h1027M123.5 237.5h1027M123.5 192.5h1027M123.5 147.5h1027M123.5 102.5h1027"/>
  <clipPath id="a">
    <path d="M123.2 102.5h1027.413v404.3H123.2V102.5z"/>
  </clipPath>
  <path stroke="#0f0" stroke-width="2" stroke-linecap="butt" clip-path="url(#a)" d="M123.2 457.821s5.393-38.8 8.09-38.143c2.697.656 5.393 47.201 8.09 42.083 2.696-5.118 5.393-62.244 8.09-72.792 2.696-10.548 5.393 11.61 8.09 9.501 2.696-2.109 5.393-25.931 8.09-22.156 2.696 3.776 5.393 52.348 8.09 44.81 2.696-7.537 5.392-78.96 8.09-90.033 2.696-11.073 5.392 22.314 8.089 23.593 2.697 1.28 5.393-22.477 8.09-15.916 2.696 6.562 5.393 59.84 8.09 55.286 2.696-4.554 5.393-75.307 8.09-82.612 2.696-7.305 5.393 33.217 8.09 38.782 2.696 5.564 5.393-7.308 8.09-5.396 2.696 1.913 5.393 30.61 8.09 16.869 2.696-13.742 5.392-91.595 8.089-99.319 2.697-7.723 5.393 50.27 8.09 52.977 2.697 2.707 5.393-42.57 8.09-36.733 2.696 5.836 5.393 74.432 8.09 71.75 2.696-2.682 5.393-82.289 8.09-87.841 2.696-5.552 5.393 45.78 8.09 54.527 2.696 8.747 5.393-7.99 8.09-2.044 2.696 5.946 5.392 42.38 8.09 37.72 2.696-4.66 5.392-59.489 8.089-65.68 2.697-6.191 5.393 24.94 8.09 28.535 2.696 3.595 5.393-12.753 8.09-6.963 2.696 5.79 5.393 44.904 8.09 41.7 2.696-3.202 5.393-50.264 8.09-60.918 2.696-10.654 5.393-1.9 8.09-3.005 2.696-1.106 5.393-7.346 8.09-3.63 2.696 3.716 5.392 33.304 8.09 25.924 2.696-7.379 5.392-67.352 8.089-70.2 2.697-2.847 5.393 45.723 8.09 53.117 2.696 7.393 5.393-13.517 8.09-8.756 2.696 4.761 5.393 42.824 8.09 37.322 2.696-5.503 5.393-63.417 8.09-70.335 2.696-6.918 5.393 24.924 8.09 28.826 2.696 3.903 5.393-8.686 8.09-5.413 2.696 3.274 5.392 32.606 8.089 25.053 2.697-7.552 5.393-65.525 8.09-70.37 2.697-4.845 5.393 34.27 8.09 41.301 2.696 7.031 5.393-3.642 8.09.885 2.696 4.528 5.393 25.414 8.09 26.28 2.696.866 5.393-16.75 8.09-21.082 2.696-4.333 5.393-5.154 8.09-4.915 2.696.24 5.393 2.494 8.09 6.348 2.696 3.853 5.392 23.943 8.089 16.774 2.697-7.17 5.393-53.33 8.09-59.787 2.696-6.458 5.393 18.27 8.09 21.041 2.696 2.772 5.393-11.063 8.09-4.411 2.696 6.652 5.393 45.774 8.09 44.325 2.696-1.45 5.393-45.049 8.09-53.022 2.696-7.973 5.393 5.108 8.09 5.184 2.696.076 5.392-10.63 8.09-4.726 2.696 5.904 5.392 42.158 8.089 40.147 2.697-2.01 5.393-44.346 8.09-52.213 2.696-7.867 5.393 4.817 8.09 5.009 2.696.192 5.393-10.216 8.09-3.854 2.696 6.361 5.393 44.932 8.09 42.024 2.696-2.907 5.393-52.085 8.09-59.468 2.696-7.382 5.392 11.96 8.09 15.175 2.696 3.215 5.392-1.856 8.089 4.115 2.697 5.97 5.393 35.077 8.09 31.71 2.696-3.366 5.393-52.142 8.09-51.912 2.696.231 5.393 44.93 8.09 53.296 2.696 8.365 5.393-7.586 8.09-3.104 2.696 4.482 5.393 31.715 8.09 29.995 2.696-1.72 5.393-35.285 8.09-40.318 2.696-5.034 5.392 8.928 8.09 10.116 2.696 1.189 5.392-5.717 8.089-2.987 2.697 2.73 5.393 24.538 8.09 19.366 2.696-5.172 5.393-46.06 8.09-50.398 2.696-4.338 5.393 21.593 8.09 24.37 2.696 2.777 5.393-13.107 8.09-7.709 2.696 5.4 5.393 41.628 8.09 40.102 2.696-1.525 5.393-42.697 8.09-49.252 2.696-6.556 5.392 9.61 8.089 9.919 2.697.309 5.393-11.005 8.09-8.064 2.697 2.941 5.393 30.063 8.09 25.709 2.696-4.354 5.393-47.182 8.09-51.831 2.696-4.65 5.393 20.291 8.09 23.934 2.696 3.644 5.393-9.53 8.09-2.075 2.696 7.455 5.393 46.075 8.09 46.804 2.696.73 5.392-35.815 8.09-42.429 2.696-6.614 5.392 2.625 8.089 2.745 2.697.12 5.393-7.402 8.09-2.021 2.696 5.38 5.393 35.588 8.09 34.307 2.696-1.281 5.393-36.036 8.09-41.994 2.696-5.957 5.393 6.044 8.09 6.25 2.696.204 5.393-10.838 8.09-5.019 2.696 5.82 5.393 41.14 8.09 39.932 2.696-1.21 5.392-40.218 8.09-47.187 2.696-6.969 5.392 4.843 8.089 5.373 2.697.53 5.393-3.471 8.09-2.192 2.696 1.279 5.393 14.093 8.09 9.865 2.696-4.229 5.393-32.931 8.09-35.237 2.696-2.306 5.393 18.83 8.09 21.4 2.696 2.572 5.393-11.252 8.09-5.974 2.696 5.278 5.393 38.355 8.09 37.645 2.696-.71 5.392-36.435 8.089-41.908 2.697-5.473 5.393 7.61 8.09 9.07 2.697 1.459 5.393-6.812 8.09-.315 2.696 6.498 5.393 39.002 8.09 39.298 2.696.296 5.393-32.267 8.09-37.523 2.696-5.257 5.393 5.441 8.09 5.983 2.696.542 5.393-8.15 8.09-2.73 2.696 5.418 5.393 36.41 8.09 35.245 2.696-1.164 5.392-35.518 8.089-42.231 2.697-6.714 5.393 1.903 8.09 1.95 2.697.046 5.393-6.594 8.09-1.672 2.696 4.922 5.393 32.724 8.09 31.203 2.696-1.52 5.393-35 8.09-40.327 2.696-5.327 5.393 7.444 8.09 8.365 2.696.92 5.393-7.297 8.09-2.84 2.696 4.459 5.392 30.47 8.09 29.587 2.696-.884 5.392-30.037 8.089-34.887 2.697-4.85 5.393 5.517 8.09 5.786 2.696.269 5.393-10.617 8.09-4.173 2.696 6.444 5.393 44 8.09 42.838 2.696-1.163 5.393-43.392 8.09-49.815 2.696-6.422 5.393 9.45 8.09 11.28 2.696 1.83 5.392-8.15 8.09-.3 2.696 7.848 5.392 46.888 8.089 47.392 2.697.505 5.393-37.172 8.09-44.365 2.696-7.193 5.393.978 8.09 1.209 2.696.23 5.393-3.312 8.09.175 2.696 3.486 5.393 24.118 8.09 20.745 2.696-3.373 8.09-40.983 8.09-40.983"/>
  <path stroke="red" stroke-width="2" stroke-linecap="butt" clip-path="url(#a)" d="M123.2 452.453s5.393-36.932 8.09-42.618c2.697-5.685 5.393 13.616 8.09 8.504 2.696-5.112 5.393-32.586 8.09-39.177 2.696-6.59 5.393 3.938 8.09-.368 2.696-4.306 5.393-19.194 8.09-25.466 2.696-6.272 5.393-4.41 8.09-12.165 2.696-7.755 5.392-30.517 8.09-34.366 2.696-3.849 5.392 12.811 8.089 11.271 2.697-1.54 5.393-16.256 8.09-20.511 2.696-4.255 5.393 1.034 8.09-5.018 2.696-6.052 5.393-26.156 8.09-31.293 2.696-5.137 5.393 3.768 8.09.472 2.696-3.296 5.393-13.838 8.09-20.247 2.696-6.408 5.393-11.072 8.09-18.202 2.696-7.13 5.392-28.41 8.089-24.577 2.697 3.833 5.393 43.825 8.09 47.577 2.697 3.752 5.393-20.241 8.09-25.067 2.696-4.825 5.393 1.345 8.09-3.885 2.696-5.23 5.393-27.367 8.09-27.497 2.696-.13 5.393 21.306 8.09 26.715 2.696 5.409 5.393.043 8.09 5.737 2.696 5.694 5.392 26.713 8.09 28.426 2.696 1.714 5.392-17.266 8.089-18.144 2.697-.877 5.393 12.23 8.09 12.88 2.696.65 5.393-6.97 8.09-8.98 2.696-2.01 5.393.087 8.09-3.082 2.696-3.17 5.393-12.542 8.09-15.934 2.696-3.392 5.393-1.253 8.09-4.42 2.696-3.168 5.393-11.594 8.09-14.587 2.696-2.992 5.392-.313 8.09-3.369 2.696-3.056 5.392-19.89 8.089-14.968 2.697 4.923 5.393 38.57 8.09 44.505 2.696 5.935 5.393-5.55 8.09-8.895 2.696-3.344 5.393-6.967 8.09-11.172 2.696-4.205 5.393-12.58 8.09-14.056 2.696-1.478 5.393 5.465 8.09 5.193 2.696-.273 5.393-3.882 8.09-6.828 2.696-2.947 5.392-6.853 8.089-10.854 2.697-4 5.393-18.062 8.09-13.148 2.697 4.913 5.393 35.353 8.09 42.63 2.696 7.278 5.393-2.459 8.09 1.034 2.696 3.493 5.393 18.266 8.09 19.923 2.696 1.657 5.393-7.965 8.09-9.982 2.696-2.016 5.393-.598 8.09-2.116 2.696-1.517 5.393-4.77 8.09-6.99 2.696-2.22 5.392-3.55 8.089-6.329 2.697-2.78 5.393-12.113 8.09-10.346 2.696 1.768 5.393 18.302 8.09 20.952 2.696 2.65 5.393-3.769 8.09-5.054 2.696-1.284 5.393-.784 8.09-2.655 2.696-1.87 5.393-6.578 8.09-8.566 2.696-1.989 5.393-1.81 8.09-3.365 2.696-1.555 5.392-4.428 8.09-5.966 2.696-1.537 5.392-.855 8.089-3.256s5.393-9.084 8.09-11.15c2.696-2.066 5.393-.129 8.09-1.244 2.696-1.116 5.393-4.215 8.09-5.45 2.696-1.234 5.393.091 8.09-1.958 2.696-2.05 5.393-10.982 8.09-10.337 2.696.646 5.392 11.25 8.09 14.21 2.696 2.958 5.392.314 8.089 3.544 2.697 3.229 5.393 14.65 8.09 15.83 2.696 1.18 5.393-14.826 8.09-8.746 2.696 6.08 5.393 38.63 8.09 45.227 2.696 6.598 5.393-4.493 8.09-5.642 2.696-1.148 5.393.408 8.09-1.249 2.696-1.656 5.393-6.91 8.09-8.692 2.696-1.783 5.392-.961 8.09-2.004 2.696-1.042 5.392-3.064 8.089-4.25 2.697-1.184 5.393-1.048 8.09-2.86 2.696-1.813 5.393-8.287 8.09-8.015 2.696.272 5.393 8.93 8.09 9.645 2.696.715 5.393-4.203 8.09-5.355 2.696-1.151 5.393-.179 8.09-1.554 2.696-1.376 5.393-5.358 8.09-6.698 2.696-1.34 5.392-.363 8.089-1.343s5.393-2.785 8.09-4.537c2.697-1.753 5.393-3.57 8.09-5.98 2.696-2.41 5.393-11.43 8.09-8.48 2.696 2.948 5.393 21.663 8.09 26.17 2.696 4.509 5.393-1.439 8.09.877 2.696 2.316 5.393 12.213 8.09 13.018 2.696.806 5.392-6.817 8.09-8.185 2.696-1.367 5.392.532 8.089-.022s5.393-2.593 8.09-3.302c2.696-.709 5.393.178 8.09-.952 2.696-1.13 5.393-5.025 8.09-5.831 2.696-.806 5.393 1.457 8.09.997 2.696-.46 5.393-3.177 8.09-3.755 2.696-.579 5.393 1.454 8.09.283 2.696-1.172 5.392-6.169 8.09-7.314 2.696-1.144 5.392 1.112 8.089.445 2.697-.666 5.393-3.326 8.09-4.443 2.696-1.117 5.393-.793 8.09-2.26 2.696-1.465 5.393-10.281 8.09-6.535 2.696 3.745 5.393 24.95 8.09 29.01 2.696 4.06 5.393-3.71 8.09-4.65 2.696-.938 5.393.054 8.09-.983 2.696-1.037 5.392-5.377 8.089-5.238 2.697.14 5.393 4.713 8.09 6.074 2.697 1.36 5.393.018 8.09 2.093 2.696 2.075 5.393 9.562 8.09 10.355 2.696.792 5.393-5.044 8.09-5.602 2.696-.558 5.393 2.45 8.09 2.255 2.696-.195 5.393-3.15 8.09-3.423 2.696-.274 5.393 2.402 8.09 1.779 2.696-.624 5.392-4.335 8.089-5.521 2.697-1.187 5.393-1.153 8.09-1.6 2.697-.446 5.393-.476 8.09-1.078 2.696-.6 5.393-.96 8.09-2.529 2.696-1.567 5.393-6.944 8.09-6.877 2.696.066 5.393 6.894 8.09 7.277 2.696.383 5.393-4.604 8.09-4.977 2.696-.374 5.392 3.166 8.09 2.736 2.696-.431 5.392-4.657 8.089-5.32 2.697-.661 5.393 2.124 8.09 1.348 2.696-.775 5.393-4.776 8.09-6.001 2.696-1.225 5.393-.111 8.09-1.348 2.696-1.237 5.393-9.214 8.09-6.073 2.696 3.14 5.393 20.573 8.09 24.918 2.696 4.345 5.392.418 8.09 1.15 2.696.732 5.392 3.427 8.089 3.243 2.697-.183 5.393-3.373 8.09-4.344 2.696-.97 5.393-1.257 8.09-1.478 2.696-.22 5.393.964 8.09.158 2.696-.807 5.393-3.697 8.09-4.996 2.696-1.299 8.09-2.798 8.09-2.798"/>
  <path stroke="#00f" stroke-width="2" stroke-linecap="butt" clip-path="url(#a)" d="M123.2 490.282s5.393.831 8.09 1.815 5.393 3.919 8.09 4.088c2.696.17 5.393-1.738 8.09-3.073 2.696-1.335 5.393-3.45 8.09-4.937 2.696-1.487 5.393-2.743 8.09-3.989 2.696-1.246 5.393-2.19 8.09-3.486 2.696-1.296 5.392-.11 8.09-4.29 2.696-4.18 5.392-17.028 8.089-20.785 2.697-3.758 5.393-1.204 8.09-1.761 2.696-.558 5.393-.573 8.09-1.586 2.696-1.013 5.393-2.711 8.09-4.492 2.696-1.781 5.393-4.371 8.09-6.195 2.696-1.824 5.393-3.288 8.09-4.748a123.197 123.197 0 0 1 8.09-4.012c2.696-1.214 5.392-2.76 8.089-3.27 2.697-.51 5.393 1.354 8.09.206 2.697-1.147 5.393-5.922 8.09-7.093 2.696-1.17 5.393 1.783 8.09.068 2.696-1.716 5.393-9.732 8.09-10.36 2.696-.627 5.393 6.42 8.09 6.595 2.696.175 5.393-5.089 8.09-5.543 2.696-.455 5.392 3.65 8.09 2.816 2.696-.834 5.392-10.589 8.089-7.82 2.697 2.767 5.393 19.877 8.09 24.428 2.696 4.551 5.393 3.95 8.09 2.88 2.696-1.071 5.393-7.751 8.09-9.304 2.696-1.553 5.393.553 8.09-.013 2.696-.566 5.393-1.925 8.09-3.383 2.696-1.458 5.393-5.353 8.09-5.364 2.696-.01 5.392 3.7 8.09 5.301 2.696 1.6 5.392 9.587 8.089 4.304 2.697-5.283 5.393-29.397 8.09-36.001 2.696-6.604 5.393-2.275 8.09-3.62 2.696-1.347 5.393-3.066 8.09-4.457 2.696-1.391 5.393-2.894 8.09-3.89 2.696-.996 5.393-1.096 8.09-2.085 2.696-.988 5.393-3.42 8.09-3.845 2.696-.425 5.392 1.508 8.089 1.298 2.697-.21 5.393-2.74 8.09-2.556 2.697.184 5.393 3.18 8.09 3.661 2.696.482 5.393.126 8.09-.772 2.696-.899 5.393-3.197 8.09-4.618 2.696-1.422 5.393-3.703 8.09-3.913 2.696-.21 5.393 2.123 8.09 2.65 2.696.527 5.393.777 8.09.512 2.696-.264 5.392-1.36 8.089-2.097 2.697-.737 5.393-1.194 8.09-2.323 2.696-1.129 5.393-4.698 8.09-4.452 2.696.247 5.393 5.005 8.09 5.93 2.696.925 5.393.183 8.09-.382 2.696-.565 5.393-2.141 8.09-3.01 2.696-.868 5.393-1.198 8.09-2.2 2.696-1.003 5.392-3.836 8.09-3.815 2.696.022 5.392 4.192 8.089 3.945 2.697-.248 5.393-3.875 8.09-5.432 2.696-1.556 5.393-2.699 8.09-3.908 2.696-1.209 5.393-2.3 8.09-3.346 2.696-1.048 5.393-3.21 8.09-2.938 2.696.27 5.393-3.036 8.09 4.564 2.696 7.6 5.392 34.312 8.09 41.036 2.696 6.724 5.392.07 8.089-.692 2.697-.761 5.393-3.3 8.09-3.876 2.696-.576 5.393.889 8.09.422 2.696-.467 5.393-1.813 8.09-3.226 2.696-1.412 5.393-4.858 8.09-5.251 2.696-.393 5.393 3.263 8.09 2.893 2.696-.37 5.393-4.335 8.09-5.112 2.696-.777 5.392-.513 8.09.449 2.696.962 5.392 6.075 8.089 5.323 2.697-.751 5.393-7.99 8.09-9.833 2.696-1.843 5.393-.624 8.09-1.222 2.696-.598 5.393-3.914 8.09-2.367 2.696 1.546 5.393 11.159 8.09 11.648 2.696.489 5.393-7.727 8.09-8.715 2.696-.988 5.393 3.475 8.09 2.79 2.696-.686 5.392-6.897 8.089-6.905 2.697-.007 5.393 8.3 8.09 6.86 2.697-1.44 5.393-14.128 8.09-15.498 2.696-1.37 5.393 5.302 8.09 7.277 2.696 1.975 5.393 4.31 8.09 4.573 2.696.264 5.393-1.78 8.09-2.992 2.696-1.212 5.393-2.995 8.09-4.28 2.696-1.286 5.392-3.921 8.09-3.433 2.696.488 5.392 6.682 8.089 6.361 2.697-.321 5.393-7.485 8.09-8.288 2.696-.803 5.393 2.851 8.09 3.472 2.696.622 5.393.548 8.09.256 2.696-.292 5.393-.342 8.09-2.008 2.696-1.665 5.393-6.004 8.09-7.987 2.696-1.982 5.393-3.372 8.09-3.908 2.696-.536 5.392.677 8.09.692 2.696.015 5.392-1.304 8.089-.602 2.697.701 5.393 3.351 8.09 4.811 2.696 1.46 5.393 4.526 8.09 3.949 2.696-.578 5.393-6.543 8.09-7.412 2.696-.87 5.393 2.458 8.09 2.196 2.696-.261 5.393-3.355 8.09-3.764 2.696-.41 5.393 2 8.09 1.307 2.696-.693 5.392-5.688 8.089-5.463 2.697.226 5.393 6.123 8.09 6.815 2.697.692 5.393-2.465 8.09-2.664 2.696-.198 5.393 2.143 8.09 1.474 2.696-.67 5.393-6.06 8.09-5.49 2.696.57 5.393 9.304 8.09 8.913 2.696-.391 5.393-9.963 8.09-11.258 2.696-1.294 5.393 2.496 8.09 3.49 2.696.996 5.392 3.294 8.089 2.48 2.697-.813 5.393-5.09 8.09-7.358 2.697-2.267 5.393-6.576 8.09-6.244 2.696.332 5.393 7.02 8.09 8.239 2.696 1.22 5.393-1.307 8.09-.921 2.696.385 5.393 5.622 8.09 3.234 2.696-2.387 5.393-16.417 8.09-17.56 2.696-1.142 5.392 7.882 8.09 10.705 2.696 2.823 5.392 5.71 8.089 6.23 2.697.522 5.393-.422 8.09-3.103 2.696-2.681 5.393-12.554 8.09-12.983 2.696-.429 5.393 9.263 8.09 10.409 2.696 1.145 5.393-2.79 8.09-3.536 2.696-.746 5.393-1.43 8.09-.943 2.696.487 5.392 3.365 8.09 3.863 2.696.499 5.392-.41 8.089-.871 2.697-.46 5.393-1.12 8.09-1.892 2.696-.771 5.393-2.575 8.09-2.74 2.696-.164 5.393.458 8.09 1.752 2.696 1.295 5.393 5.499 8.09 6.015 2.696.517 8.09-2.915 8.09-2.915"/>
  <path stroke="#f0f" stroke-width="2" stroke-linecap="butt" clip-path="url(#a)" d="M123.2 470.772s5.393-32.387 8.09-29.388c2.697 3 5.393 40.758 8.09 47.387 2.696 6.629 5.393-5.462 8.09-7.612 2.696-2.15 5.393-3.135 8.09-5.287 2.696-2.15 5.393-4.926 8.09-7.62 2.696-2.693 5.393-6.25 8.09-8.54 2.696-2.289 5.392-3.527 8.09-5.197 2.696-1.67 5.392-2.581 8.089-4.822 2.697-2.24 5.393-7.494 8.09-8.623 2.696-1.128 5.393 2.27 8.09 1.854 2.696-.416 5.393-2.212 8.09-4.347 2.696-2.134 5.393-6.165 8.09-8.46 2.696-2.295 5.393-3.93 8.09-5.31 2.696-1.38 5.393-2.19 8.09-2.966 2.696-.776 5.392-.686 8.089-1.687 2.697-1 5.393-2.632 8.09-4.319 2.697-1.686 5.393-3.373 8.09-5.801 2.696-2.429 5.393-6.486 8.09-8.77 2.696-2.284 5.393-5.698 8.09-4.935 2.696.762 5.393 9.291 8.09 9.509 2.696.217 5.393-6.272 8.09-8.203 2.696-1.932 5.392-2.413 8.09-3.389 2.696-.976 5.392-.699 8.089-2.466 2.697-1.768 5.393-6.193 8.09-8.139 2.696-1.946 5.393-2.483 8.09-3.537 2.696-1.054 5.393-1.032 8.09-2.788 2.696-1.756 5.393-5.923 8.09-7.748 2.696-1.825 5.393-2.255 8.09-3.202 2.696-.948 5.393-4.953 8.09-2.483 2.696 2.469 5.392 15.094 8.09 17.3 2.696 2.204 5.392-3.266 8.089-4.071 2.697-.805 5.393.577 8.09-.761 2.696-1.338 5.393-5.7 8.09-7.267 2.696-1.567 5.393-1.279 8.09-2.139 2.696-.86 5.393-1.615 8.09-3.023 2.696-1.407 5.393-4.012 8.09-5.422 2.696-1.41 5.393-2.088 8.09-3.038 2.696-.95 5.392-1.28 8.089-2.66 2.697-1.379 5.393-6.41 8.09-5.615 2.697.795 5.393 9.135 8.09 10.384 2.696 1.25 5.393-1.695 8.09-2.888 2.696-1.194 5.393-2.954 8.09-4.273 2.696-1.318 5.393-2.714 8.09-3.636 2.696-.923 5.393-2.902 8.09-1.897 2.696 1.006 5.393 6.694 8.09 7.928 2.696 1.234 5.392-.061 8.089-.523s5.393-1.137 8.09-2.248c2.696-1.111 5.393-3.269 8.09-4.42 2.696-1.15 5.393-3.194 8.09-2.484 2.696.711 5.393 6.467 8.09 6.75 2.696.283 5.393-3.987 8.09-5.053 2.696-1.066 5.393-1.407 8.09-1.345 2.696.061 5.392 2.773 8.09 1.716 2.696-1.058 5.392-6.36 8.089-8.061 2.697-1.701 5.393-1.63 8.09-2.145 2.696-.516 5.393.011 8.09-.948 2.696-.96 5.393-3.44 8.09-4.809 2.696-1.37 5.393-2.973 8.09-3.408 2.696-.436 5.393-1.174 8.09.796 2.696 1.97 5.392 9.57 8.09 11.026 2.696 1.455 5.392-1.76 8.089-2.294s5.393.033 8.09-.909c2.696-.941 5.393-3.715 8.09-4.74 2.696-1.026 5.393-.867 8.09-1.41 2.696-.544 5.393-1.366 8.09-1.851a87.305 87.305 0 0 1 8.09-1.06c2.696-.229 5.393.703 8.09-.312 2.696-1.014 5.392-4.691 8.09-5.774 2.696-1.084 5.392-1.045 8.089-.725 2.697.319 5.393 2.429 8.09 2.64 2.696.21 5.393-1.012 8.09-1.374 2.696-.362 5.393.01 8.09-.799 2.696-.807 5.393-3.1 8.09-4.047 2.696-.947 5.393-1.219 8.09-1.633 2.696-.415 5.393-1.196 8.09-.854 2.696.342 5.392 2.414 8.089 2.906s5.393-.092 8.09.046 5.393.19 8.09.782c2.696.593 5.393.543 8.09 2.772 2.696 2.229 5.393 9.495 8.09 10.6 2.696 1.106 5.393-3.158 8.09-3.965 2.696-.808 5.393-.392 8.09-.88 2.696-.49 5.392-1.929 8.09-2.053 2.696-.125 5.392 1.864 8.089 1.305 2.697-.559 5.393-4.14 8.09-4.66 2.696-.52 5.393 1.906 8.09 1.541 2.696-.365 5.393-3.095 8.09-3.73 2.696-.634 5.393.371 8.09-.078 2.696-.45 5.393-2.875 8.09-2.616 2.696.259 5.393 3.017 8.09 4.17 2.696 1.153 5.392 2.346 8.09 2.746 2.696.399 5.392-.043 8.089-.35 2.697-.306 5.393-.985 8.09-1.49 2.696-.503 5.393-.874 8.09-1.533 2.696-.66 5.393-1.863 8.09-2.423 2.696-.56 5.393-.467 8.09-.94 2.696-.474 5.393-1.685 8.09-1.901 2.696-.216 5.393.743 8.09.604 2.696-.138 5.392-1.75 8.089-1.437 2.697.312 5.393 3.319 8.09 3.31 2.697-.009 5.393-2.91 8.09-3.363 2.696-.452 5.393 1.187 8.09.646 2.696-.54 5.393-3.329 8.09-3.888 2.696-.56 5.393.929 8.09.53 2.696-.397 5.393-3.07 8.09-2.92 2.696.153 5.393 3.504 8.09 3.831 2.696.328 5.392-1.612 8.089-1.863 2.697-.252 5.393 1.027 8.09.354 2.697-.673 5.393-4.473 8.09-4.395 2.696.078 5.393 4.478 8.09 4.861 2.696.383 5.393-2.48 8.09-2.563 2.696-.084 5.393 2.03 8.09 2.06 2.696.03 5.393-1.611 8.09-1.877 2.696-.266 5.392 1.18 8.09.282 2.696-.897 5.392-5.235 8.089-5.664 2.697-.428 5.393 3.298 8.09 3.094 2.696-.204 5.393-3.92 8.09-4.318 2.696-.398 5.393 2.2 8.09 1.93 2.696-.27 5.393-4.903 8.09-3.555 2.696 1.348 5.393 9.78 8.09 11.644 2.696 1.863 5.392-1.206 8.09-.466 2.696.74 5.392 4.951 8.089 4.903 2.697-.048 5.393-5.02 8.09-5.193 2.696-.175 5.393 4.045 8.09 4.148 2.696.104 5.393-3.392 8.09-3.528 2.696-.136 5.393 2.983 8.09 2.712 2.696-.271 8.09-4.337 8.09-4.337"/>
  <path fill="#424242" d="M617.72 578.862l-2.079 2.172v5.766h-2.25v-17.063h2.25v8.438l7.578-8.438h2.719l-6.719 7.532 7.25 9.531h-2.703l-6.047-7.938zm15.593 8.172q-2.578 0-4.203-1.687-1.61-1.703-1.61-4.531v-.407q0-1.89.72-3.359.718-1.484 2.015-2.328 1.297-.844 2.812-.844 2.469 0 3.828 1.64 1.375 1.626 1.375 4.657v.906h-8.578q.047 1.875 1.094 3.031 1.047 1.157 2.656 1.157 1.157 0 1.953-.469.797-.469 1.391-1.25l1.328 1.031q-1.594 2.453-4.781 2.453zm-.266-11.375q-1.312 0-2.203.97-.89.952-1.11 2.671h6.36v-.172q-.094-1.64-.89-2.547-.797-.922-2.157-.922zm12.157 7.97l2.953-9.517h2.312l-5.094 14.641q-1.187 3.172-3.765 3.172l-.406-.031-.813-.157v-1.765l.594.047q1.094 0 1.703-.453.625-.438 1.016-1.61l.484-1.297-4.516-12.547h2.36l3.172 9.516zm14.234-.188q0-.891-.672-1.375-.656-.485-2.312-.829-1.641-.359-2.61-.843-.969-.5-1.437-1.172-.453-.688-.453-1.625 0-1.563 1.312-2.64 1.328-1.079 3.375-1.079 2.156 0 3.5 1.125 1.344 1.11 1.344 2.844h-2.188q0-.89-.75-1.531-.75-.657-1.906-.657-1.187 0-1.86.516-.656.516-.656 1.36 0 .78.61 1.187.625.39 2.25.75t2.625.875q1.015.5 1.5 1.219.484.703.484 1.718 0 1.703-1.36 2.735-1.359 1.015-3.515 1.015-1.531 0-2.703-.53-1.172-.548-1.844-1.517-.656-.968-.656-2.093h2.172q.062 1.093.875 1.734.812.64 2.156.64 1.219 0 1.969-.5t.75-1.327zM37.137 369.51l13.922-5.579-13.922-5.578v-2.922H54.2v2.25h-6.64l-7.173-.203 13.813 5.594v1.734l-13.781 5.578 7.14-.218H54.2v2.25H37.137v-2.907zm9.125-22.423l2.172 2.079H54.2v2.25H37.137v-2.25h8.438l-8.438-7.579v-2.718l7.532 6.718 9.531-7.25v2.704l-7.938 6.046zm8.172-15.593q0 2.578-1.687 4.203-1.703 1.61-4.531 1.61h-.407q-1.89 0-3.359-.72-1.484-.718-2.328-2.015-.844-1.297-.844-2.813 0-2.468 1.64-3.828 1.626-1.375 4.657-1.375h.906v8.578q1.875-.047 3.031-1.093 1.157-1.047 1.157-2.657 0-1.156-.469-1.953-.469-.797-1.25-1.39l1.031-1.329q2.453 1.594 2.453 4.782zm-11.375.265q0 1.313.97 2.203.952.891 2.671 1.11v-6.36h-.172q-1.64.094-2.547.891-.922.797-.922 2.156zm7.97-12.156l-9.517-2.953v-2.313l14.641 5.094q3.172 1.188 3.172 3.766l-.031.406-.157.813h-1.765l.047-.594q0-1.094-.453-1.703-.438-.625-1.61-1.016l-1.297-.484-12.547 4.515v-2.359l9.516-3.172zm-.188-14.234q-.891 0-1.375.672-.485.656-.829 2.312-.359 1.64-.843 2.61-.5.968-1.172 1.437-.688.453-1.625.453-1.563 0-2.64-1.312-1.079-1.329-1.079-3.375 0-2.157 1.125-3.5 1.11-1.344 2.844-1.344v2.187q-.89 0-1.531.75-.657.75-.657 1.907 0 1.187.516 1.859.516.656 1.36.656.78 0 1.187-.61.39-.624.75-2.25.36-1.624.875-2.624.5-1.016 1.219-1.5.703-.485 1.718-.485 1.703 0 2.735 1.36 1.015 1.36 1.015 3.515 0 1.532-.53 2.704-.548 1.171-1.517 1.843-.968.657-2.093.657v-2.172q1.093-.063 1.734-.875.64-.813.64-2.157 0-1.218-.5-1.968t-1.327-.75zm4.828-5.047v1.86l-18.532-7.126v-1.844l18.532 7.11zm-4.828-16.953q-.891 0-1.375.672-.485.656-.829 2.312-.359 1.64-.843 2.61-.5.968-1.172 1.437-.688.453-1.625.453-1.563 0-2.64-1.312-1.079-1.329-1.079-3.375 0-2.157 1.125-3.5 1.11-1.344 2.844-1.344v2.187q-.89 0-1.531.75-.657.75-.657 1.907 0 1.187.516 1.859.516.656 1.36.656.78 0 1.187-.61.39-.624.75-2.25.36-1.624.875-2.624.5-1.016 1.219-1.5.703-.485 1.718-.485 1.703 0 2.735 1.36 1.015 1.36 1.015 3.515 0 1.532-.53 2.704-.548 1.171-1.517 1.843-.968.657-2.093.657v-2.172q1.093-.063 1.734-.875.64-.813.64-2.157 0-1.218-.5-1.968t-1.327-.75zm3.593-9.875q0 2.578-1.687 4.203-1.703 1.61-4.531 1.61h-.407q-1.89 0-3.359-.72-1.484-.718-2.328-2.015-.844-1.297-.844-2.813 0-2.468 1.64-3.828 1.626-1.375 4.657-1.375h.906v8.578q1.875-.047 3.031-1.093 1.157-1.047 1.157-2.657 0-1.156-.469-1.953-.469-.797-1.25-1.39l1.031-1.329q2.453 1.594 2.453 4.782zm-11.375.265q0 1.313.97 2.203.952.891 2.671 1.11v-6.36h-.172q-1.64.094-2.547.891-.922.797-.922 2.156zm9.61-13.093q0-1.157-.703-2.016-.704-.875-1.766-.969v-2.047q1.094.063 2.078.75.984.688 1.578 1.844.578 1.156.578 2.438 0 2.593-1.718 4.125-1.735 1.53-4.735 1.53h-.375q-1.844 0-3.281-.671-1.453-.688-2.25-1.953-.797-1.281-.797-3.016 0-2.125 1.281-3.531 1.282-1.422 3.313-1.516v2.047q-1.219.094-2.016.938-.797.828-.797 2.062 0 1.656 1.203 2.563 1.188.906 3.438.906h.406q2.188 0 3.375-.89 1.188-.907 1.188-2.594zm.39-7.953q-.562 0-.937-.329-.375-.343-.375-1 0-.671.375-1.015.375-.36.937-.36.547 0 .907.36.359.344.359 1.015 0 .657-.36 1-.359.329-.906.329z"/>
  <path fill="#757575" d="M116.263 507.66q0 1.906-.657 2.843-.64.922-2.031.922-1.36 0-2.016-.906-.656-.906-.687-2.719v-1.438q0-1.89.64-2.796.657-.922 2.047-.922 1.375 0 2.032.89.656.875.672 2.72v1.405zm-1.094-1.485q0-1.375-.39-2-.376-.64-1.22-.64-.828 0-1.218.64-.375.625-.375 1.922v1.734q0 1.375.39 2.047.407.656 1.219.656.797 0 1.188-.625.39-.625.406-1.953v-1.781zM100.466 466.378h-1.078v-7.219l-2.188.797v-.984l3.11-1.172h.156v8.578zm8.797-3.64q0 1.905-.657 2.843-.64.922-2.031.922-1.36 0-2.016-.906-.656-.907-.687-2.72v-1.437q0-1.89.64-2.797.657-.921 2.047-.921 1.375 0 2.032.89.656.875.672 2.719v1.406zm-1.094-1.485q0-1.375-.39-2-.376-.64-1.22-.64-.828 0-1.218.64-.375.625-.375 1.922v1.734q0 1.375.39 2.047.407.656 1.219.656.797 0 1.188-.625.39-.625.406-1.953v-1.781zm8.094 1.484q0 1.906-.657 2.844-.64.922-2.031.922-1.36 0-2.016-.906-.656-.907-.687-2.72v-1.437q0-1.89.64-2.797.657-.921 2.047-.921 1.375 0 2.032.89.656.875.672 2.719v1.406zm-1.094-1.484q0-1.375-.39-2-.376-.64-1.22-.64-.828 0-1.218.64-.375.625-.375 1.922v1.734q0 1.375.39 2.047.407.656 1.219.656.797 0 1.188-.625.39-.625.406-1.953v-1.781zM102.497 421.456h-5.594v-.782l2.953-3.28q.657-.75.907-1.204.25-.469.25-.969 0-.672-.407-1.094-.39-.437-1.078-.437-.797 0-1.25.469-.453.453-.453 1.28h-1.078q0-1.187.75-1.905.766-.735 2.031-.735 1.203 0 1.89.625.688.625.688 1.672 0 1.25-1.61 3l-2.28 2.469h4.28v.89zm6.766-3.641q0 1.906-.657 2.844-.64.922-2.031.922-1.36 0-2.016-.907-.656-.906-.687-2.718v-1.438q0-1.89.64-2.797.657-.922 2.047-.922 1.375 0 2.032.89.656.876.672 2.72v1.406zm-1.094-1.484q0-1.375-.39-2-.376-.641-1.22-.641-.828 0-1.218.64-.375.626-.375 1.922v1.735q0 1.375.39 2.047.407.656 1.219.656.797 0 1.188-.625.39-.625.406-1.953v-1.781zm8.094 1.484q0 1.906-.657 2.844-.64.922-2.031.922-1.36 0-2.016-.907-.656-.906-.687-2.718v-1.438q0-1.89.64-2.797.657-.922 2.047-.922 1.375 0 2.032.89.656.876.672 2.72v1.406zm-1.094-1.484q0-1.375-.39-2-.376-.641-1.22-.641-.828 0-1.218.64-.375.626-.375 1.922v1.735q0 1.375.39 2.047.407.656 1.219.656.797 0 1.188-.625.39-.625.406-1.953v-1.781zM98.481 371.736h.813q.781-.015 1.219-.406.437-.39.437-1.062 0-1.5-1.5-1.5-.703 0-1.125.406-.406.406-.406 1.062h-1.094q0-1.015.734-1.687.75-.672 1.891-.672 1.203 0 1.89.64.688.641.688 1.782 0 .562-.36 1.078-.359.516-.984.781.704.22 1.079.735.39.515.39 1.265 0 1.14-.75 1.828-.75.672-1.953.672-1.188 0-1.953-.656-.75-.656-.75-1.719h1.094q0 .672.437 1.078.438.407 1.188.407.78 0 1.187-.407.422-.421.422-1.187 0-.734-.453-1.125-.453-.406-1.328-.422h-.813v-.89zm10.782 1.157q0 1.906-.657 2.843-.64.922-2.031.922-1.36 0-2.016-.906-.656-.906-.687-2.719v-1.437q0-1.89.64-2.797.657-.922 2.047-.922 1.375 0 2.032.89.656.876.672 2.72v1.406zm-1.094-1.485q0-1.375-.39-2-.376-.64-1.22-.64-.828 0-1.218.64-.375.625-.375 1.922v1.735q0 1.375.39 2.046.407.657 1.219.657.797 0 1.188-.625.39-.625.406-1.953v-1.782zm8.094 1.485q0 1.906-.657 2.843-.64.922-2.031.922-1.36 0-2.016-.906-.656-.906-.687-2.719v-1.437q0-1.89.64-2.797.657-.922 2.047-.922 1.375 0 2.032.89.656.876.672 2.72v1.406zm-1.094-1.485q0-1.375-.39-2-.376-.64-1.22-.64-.828 0-1.218.64-.375.625-.375 1.922v1.735q0 1.375.39 2.046.407.657 1.219.657.797 0 1.188-.625.39-.625.406-1.953v-1.782zM101.481 328.752h1.188v.875h-1.188v1.984h-1.078v-1.984h-3.89v-.64l3.812-5.907h1.156v5.672zm-3.734 0h2.656v-4.188l-.14.235-2.516 3.953zm11.516-.781q0 1.906-.657 2.843-.64.922-2.031.922-1.36 0-2.016-.906-.656-.906-.687-2.719v-1.437q0-1.891.64-2.797.657-.922 2.047-.922 1.375 0 2.032.89.656.875.672 2.72v1.406zm-1.094-1.485q0-1.375-.39-2-.376-.64-1.22-.64-.828 0-1.218.64-.375.625-.375 1.922v1.734q0 1.375.39 2.047.407.656 1.219.656.797 0 1.188-.625.39-.625.406-1.953v-1.78zm8.094 1.485q0 1.906-.657 2.843-.64.922-2.031.922-1.36 0-2.016-.906-.656-.906-.687-2.719v-1.437q0-1.891.64-2.797.657-.922 2.047-.922 1.375 0 2.032.89.656.875.672 2.72v1.406zm-1.094-1.485q0-1.375-.39-2-.376-.64-1.22-.64-.828 0-1.218.64-.375.625-.375 1.922v1.734q0 1.375.39 2.047.407.656 1.219.656.797 0 1.188-.625.39-.625.406-1.953v-1.78zM97.403 282.408l.438-4.25h4.375v1h-3.453l-.266 2.328q.64-.375 1.437-.375 1.157 0 1.844.781.688.766.688 2.078 0 1.313-.72 2.078-.702.766-1.983.766-1.126 0-1.844-.625-.719-.64-.813-1.75h1.016q.11.734.531 1.11.422.374 1.11.374.75 0 1.187-.515.438-.516.438-1.422 0-.86-.47-1.375-.468-.516-1.25-.516-.702 0-1.109.297l-.28.234-.876-.218zm11.86.64q0 1.907-.657 2.844-.64.922-2.031.922-1.36 0-2.016-.906-.656-.907-.687-2.72v-1.437q0-1.89.64-2.796.657-.922 2.047-.922 1.375 0 2.032.89.656.875.672 2.719v1.406zm-1.094-1.484q0-1.375-.39-2-.376-.64-1.22-.64-.828 0-1.218.64-.375.625-.375 1.922v1.734q0 1.375.39 2.047.407.656 1.219.656.797 0 1.188-.625.39-.625.406-1.953v-1.781zm8.094 1.484q0 1.907-.657 2.844-.64.922-2.031.922-1.36 0-2.016-.906-.656-.907-.687-2.72v-1.437q0-1.89.64-2.796.657-.922 2.047-.922 1.375 0 2.032.89.656.875.672 2.719v1.406zm-1.094-1.484q0-1.375-.39-2-.376-.64-1.22-.64-.828 0-1.218.64-.375.625-.375 1.922v1.734q0 1.375.39 2.047.407.656 1.219.656.797 0 1.188-.625.39-.625.406-1.953v-1.781zM101.169 233.235v.907h-.203q-1.266.03-2.016.765-.75.719-.875 2.032.688-.766 1.844-.766 1.11 0 1.781.781.672.781.672 2.031 0 1.313-.719 2.11-.719.797-1.937.797-1.22 0-1.985-.938-.75-.953-.75-2.437v-.407q0-2.359 1-3.609t2.985-1.266h.203zm-1.422 3.844q-.563 0-1.031.328-.47.328-.657.844v.39q0 1.063.47 1.704.484.64 1.187.64.734 0 1.156-.53.422-.548.422-1.423t-.422-1.406q-.422-.547-1.125-.547zm9.516 1.047q0 1.906-.657 2.844-.64.922-2.031.922-1.36 0-2.016-.907-.656-.906-.687-2.718v-1.438q0-1.89.64-2.797.657-.922 2.047-.922 1.375 0 2.032.891.656.875.672 2.719v1.406zm-1.094-1.484q0-1.375-.39-2-.376-.641-1.22-.641-.828 0-1.218.64-.375.626-.375 1.923v1.734q0 1.375.39 2.047.407.656 1.219.656.797 0 1.188-.625.39-.625.406-1.953v-1.781zm8.094 1.484q0 1.906-.657 2.844-.64.922-2.031.922-1.36 0-2.016-.907-.656-.906-.687-2.718v-1.438q0-1.89.64-2.797.657-.922 2.047-.922 1.375 0 2.032.891.656.875.672 2.719v1.406zm-1.094-1.484q0-1.375-.39-2-.376-.641-1.22-.641-.828 0-1.218.64-.375.626-.375 1.923v1.734q0 1.375.39 2.047.407.656 1.219.656.797 0 1.188-.625.39-.625.406-1.953v-1.781zM102.419 188.923l-3.531 7.921h-1.141l3.516-7.64h-4.61v-.89h5.766v.609zm6.844 4.28q0 1.907-.657 2.845-.64.921-2.031.921-1.36 0-2.016-.906-.656-.906-.687-2.719v-1.437q0-1.89.64-2.797.657-.922 2.047-.922 1.375 0 2.032.89.656.876.672 2.72v1.406zm-1.094-1.484q0-1.375-.39-2-.376-.64-1.22-.64-.828 0-1.218.64-.375.625-.375 1.922v1.735q0 1.375.39 2.047.407.656 1.219.656.797 0 1.188-.625.39-.625.406-1.953v-1.782zm8.094 1.485q0 1.906-.657 2.844-.64.921-2.031.921-1.36 0-2.016-.906-.656-.906-.687-2.719v-1.437q0-1.89.64-2.797.657-.922 2.047-.922 1.375 0 2.032.89.656.876.672 2.72v1.406zm-1.094-1.485q0-1.375-.39-2-.376-.64-1.22-.64-.828 0-1.218.64-.375.625-.375 1.922v1.735q0 1.375.39 2.047.407.656 1.219.656.797 0 1.188-.625.39-.625.406-1.953v-1.782zM102.09 145.61q0 .64-.343 1.14-.344.5-.906.782.656.28 1.047.843.39.547.39 1.25 0 1.094-.75 1.766-.734.656-1.953.656-1.234 0-1.984-.656-.735-.672-.735-1.766 0-.703.375-1.25.375-.562 1.047-.843-.562-.282-.89-.782-.329-.5-.329-1.14 0-1.078.688-1.703.687-.641 1.828-.641 1.125 0 1.813.64.703.626.703 1.704zm-.89 3.984q0-.719-.453-1.156-.453-.453-1.188-.453-.734 0-1.187.453-.438.437-.438 1.172 0 .718.438 1.14.437.407 1.203.407.75 0 1.188-.422.437-.422.437-1.14zm-1.625-5.437q-.64 0-1.047.406-.39.39-.39 1.078 0 .64.39 1.047.39.406 1.031.406.657 0 1.047-.406.39-.406.39-1.047 0-.656-.405-1.063-.407-.421-1.016-.421zm9.688 4.125q0 1.906-.657 2.843-.64.922-2.031.922-1.36 0-2.016-.906-.656-.906-.687-2.719v-1.437q0-1.89.64-2.797.657-.922 2.047-.922 1.375 0 2.032.89.656.876.672 2.72v1.406zm-1.094-1.485q0-1.375-.39-2-.376-.64-1.22-.64-.828 0-1.218.64-.375.625-.375 1.922v1.734q0 1.375.39 2.047.407.657 1.219.657.797 0 1.188-.625.39-.625.406-1.954v-1.78zm8.094 1.485q0 1.906-.657 2.843-.64.922-2.031.922-1.36 0-2.016-.906-.656-.906-.687-2.719v-1.437q0-1.89.64-2.797.657-.922 2.047-.922 1.375 0 2.032.89.656.876.672 2.72v1.406zm-1.094-1.485q0-1.375-.39-2-.376-.64-1.22-.64-.828 0-1.218.64-.375.625-.375 1.922v1.734q0 1.375.39 2.047.407.657 1.219.657.797 0 1.188-.625.39-.625.406-1.954v-1.78zM101.06 103.25q-.329.406-.813.656-.469.235-1.031.235-.735 0-1.282-.36-.546-.36-.843-1.015-.297-.672-.297-1.47 0-.843.312-1.53.328-.688.922-1.047.61-.375 1.406-.375 1.266 0 1.985.953.734.953.734 2.578v.313q0 2.5-.984 3.64-.985 1.14-2.969 1.172h-.219v-.906h.235q1.343-.031 2.062-.703.719-.672.781-2.141zm-1.672 0q.546 0 1-.328.468-.344.687-.828v-.438q0-1.062-.469-1.734-.468-.672-1.172-.672-.718 0-1.156.547-.422.547-.422 1.453 0 .875.407 1.438.421.562 1.124.562zm9.874.11q0 1.906-.656 2.843-.64.922-2.031.922-1.36 0-2.016-.906-.656-.906-.687-2.719v-1.438q0-1.89.64-2.796.657-.922 2.047-.922 1.375 0 2.032.89.656.875.672 2.72v1.405zm-1.093-1.485q0-1.375-.39-2-.376-.64-1.22-.64-.828 0-1.218.64-.375.625-.375 1.922v1.734q0 1.375.39 2.047.407.656 1.219.656.797 0 1.188-.625.39-.625.406-1.953v-1.781zm8.094 1.484q0 1.907-.657 2.844-.64.922-2.031.922-1.36 0-2.016-.906-.656-.906-.687-2.719v-1.438q0-1.89.64-2.796.657-.922 2.047-.922 1.375 0 2.032.89.656.875.672 2.72v1.405zm-1.094-1.484q0-1.375-.39-2-.376-.64-1.22-.64-.828 0-1.218.64-.375.625-.375 1.922v1.734q0 1.375.39 2.047.407.656 1.219.656.797 0 1.188-.625.39-.625.406-1.953v-1.781zM296.32 520.519l.437-4.25h4.375v1h-3.453l-.265 2.328q.64-.375 1.437-.375 1.156 0 1.844.781.687.766.687 2.078 0 1.313-.718 2.078-.704.766-1.985.766-1.125 0-1.844-.625-.718-.64-.812-1.75h1.016q.109.734.53 1.11.423.374 1.11.374.75 0 1.188-.515.437-.516.437-1.422 0-.86-.469-1.375-.468-.516-1.25-.516-.703 0-1.109.297l-.281.234-.875-.218zm11.86.64q0 1.907-.657 2.844-.64.922-2.031.922-1.36 0-2.016-.906-.656-.907-.687-2.719v-1.438q0-1.89.64-2.796.656-.922 2.047-.922 1.375 0 2.031.89.657.875.672 2.72v1.405zm-1.095-1.484q0-1.375-.39-2-.375-.64-1.219-.64-.828 0-1.219.64-.375.625-.375 1.922v1.734q0 1.375.39 2.047.407.656 1.22.656.797 0 1.187-.625t.406-1.953v-1.781zm8.094 1.484q0 1.907-.656 2.844-.64.922-2.031.922-1.36 0-2.016-.906-.656-.907-.687-2.719v-1.438q0-1.89.64-2.796.656-.922 2.047-.922 1.375 0 2.031.89.657.875.672 2.72v1.405zm-1.094-1.484q0-1.375-.39-2-.375-.64-1.219-.64-.828 0-1.219.64-.375.625-.375 1.922v1.734q0 1.375.39 2.047.407.656 1.22.656.797 0 1.187-.625t.406-1.953v-1.781zm8.094 1.484q0 1.907-.656 2.844-.64.922-2.031.922-1.36 0-2.016-.906-.656-.907-.687-2.719v-1.438q0-1.89.64-2.796.656-.922 2.047-.922 1.375 0 2.031.89.657.875.672 2.72v1.405zm-1.094-1.484q0-1.375-.39-2-.375-.64-1.219-.64-.828 0-1.219.64-.375.625-.375 1.922v1.734q0 1.375.39 2.047.407.656 1.22.656.797 0 1.187-.625t.406-1.953v-1.781zm8.094 1.484q0 1.907-.656 2.844-.64.922-2.031.922-1.36 0-2.016-.906-.656-.907-.687-2.719v-1.438q0-1.89.64-2.796.656-.922 2.047-.922 1.375 0 2.031.89.657.875.672 2.72v1.405zm-1.094-1.484q0-1.375-.39-2-.375-.64-1.219-.64-.828 0-1.219.64-.375.625-.375 1.922v1.734q0 1.375.39 2.047.407.656 1.22.656.797 0 1.187-.625t.406-1.953v-1.781zM493.389 524.8h-1.078v-7.219l-2.188.797v-.984l3.11-1.172h.156v8.578zm8.797-3.64q0 1.906-.656 2.843-.641.922-2.032.922-1.36 0-2.015-.906-.657-.907-.688-2.719v-1.438q0-1.89.64-2.796.657-.922 2.048-.922 1.375 0 2.03.89.657.875.673 2.72v1.405zm-1.094-1.485q0-1.375-.39-2-.376-.64-1.22-.64-.828 0-1.218.64-.375.625-.375 1.922v1.734q0 1.375.39 2.047.407.656 1.22.656.796 0 1.187-.625.39-.625.406-1.953v-1.781zm8.094 1.484q0 1.907-.656 2.844-.641.922-2.032.922-1.36 0-2.015-.906-.657-.907-.688-2.719v-1.438q0-1.89.64-2.796.657-.922 2.048-.922 1.375 0 2.03.89.657.875.673 2.72v1.405zm-1.094-1.484q0-1.375-.39-2-.376-.64-1.22-.64-.828 0-1.218.64-.375.625-.375 1.922v1.734q0 1.375.39 2.047.407.656 1.22.656.796 0 1.187-.625.39-.625.406-1.953v-1.781zm8.094 1.484q0 1.907-.656 2.844-.641.922-2.032.922-1.36 0-2.015-.906-.657-.907-.688-2.719v-1.438q0-1.89.64-2.796.657-.922 2.048-.922 1.375 0 2.03.89.657.875.673 2.72v1.405zm-1.094-1.484q0-1.375-.39-2-.376-.64-1.22-.64-.827 0-1.218.64-.375.625-.375 1.922v1.734q0 1.375.39 2.047.407.656 1.22.656.796 0 1.187-.625.39-.625.406-1.953v-1.781zm8.094 1.484q0 1.907-.656 2.844-.641.922-2.032.922-1.36 0-2.015-.906-.657-.907-.688-2.719v-1.438q0-1.89.64-2.796.657-.922 2.048-.922 1.375 0 2.03.89.657.875.673 2.72v1.405zm-1.094-1.484q0-1.375-.39-2-.376-.64-1.22-.64-.827 0-1.218.64-.375.625-.375 1.922v1.734q0 1.375.39 2.047.407.656 1.22.656.796 0 1.187-.625.39-.625.406-1.953v-1.781zm8.094 1.484q0 1.907-.656 2.844-.641.922-2.032.922-1.36 0-2.015-.906-.657-.907-.688-2.719v-1.438q0-1.89.64-2.796.657-.922 2.048-.922 1.375 0 2.03.89.657.875.673 2.72v1.405zm-1.094-1.484q0-1.375-.39-2-.376-.64-1.22-.64-.827 0-1.218.64-.375.625-.375 1.922v1.734q0 1.375.39 2.047.407.656 1.22.656.796 0 1.187-.625.39-.625.406-1.953v-1.781zM690.895 524.8h-1.078v-7.219l-2.187.797v-.984l3.11-1.172h.155v8.578zm3.938-4.281l.437-4.25h4.375v1h-3.453l-.265 2.328q.64-.375 1.437-.375 1.156 0 1.844.781.687.766.687 2.078 0 1.313-.718 2.078-.703.766-1.985.766-1.125 0-1.843-.625-.72-.64-.813-1.75h1.016q.11.734.53 1.11.423.374 1.11.374.75 0 1.188-.515.437-.516.437-1.422 0-.86-.468-1.375-.47-.516-1.25-.516-.704 0-1.11.297l-.281.234-.875-.218zm11.86.64q0 1.907-.657 2.844-.64.922-2.031.922-1.36 0-2.016-.906-.656-.907-.687-2.719v-1.438q0-1.89.64-2.796.657-.922 2.047-.922 1.375 0 2.031.89.657.875.672 2.72v1.405zm-1.094-1.484q0-1.375-.391-2-.375-.64-1.219-.64-.828 0-1.219.64-.375.625-.375 1.922v1.734q0 1.375.391 2.047.406.656 1.219.656.797 0 1.187-.625t.407-1.953v-1.781zm8.093 1.484q0 1.907-.656 2.844-.64.922-2.031.922-1.36 0-2.016-.906-.656-.907-.687-2.719v-1.438q0-1.89.64-2.796.657-.922 2.047-.922 1.375 0 2.031.89.657.875.672 2.72v1.405zm-1.093-1.484q0-1.375-.391-2-.375-.64-1.219-.64-.828 0-1.219.64-.375.625-.375 1.922v1.734q0 1.375.391 2.047.406.656 1.219.656.797 0 1.187-.625t.407-1.953v-1.781zm8.093 1.484q0 1.907-.656 2.844-.64.922-2.031.922-1.36 0-2.016-.906-.656-.907-.687-2.719v-1.438q0-1.89.64-2.796.657-.922 2.047-.922 1.375 0 2.031.89.657.875.672 2.72v1.405zm-1.093-1.484q0-1.375-.391-2-.375-.64-1.219-.64-.828 0-1.219.64-.375.625-.375 1.922v1.734q0 1.375.391 2.047.406.656 1.219.656.797 0 1.187-.625t.407-1.953v-1.781zm8.093 1.484q0 1.907-.656 2.844-.64.922-2.031.922-1.36 0-2.016-.906-.656-.907-.687-2.719v-1.438q0-1.89.64-2.796.657-.922 2.047-.922 1.375 0 2.031.89.657.875.672 2.72v1.405zm-1.093-1.484q0-1.375-.391-2-.375-.64-1.219-.64-.828 0-1.219.64-.375.625-.375 1.922v1.734q0 1.375.391 2.047.406.656 1.219.656.797 0 1.187-.625t.407-1.953v-1.781zM890.433 524.8h-5.593v-.781l2.953-3.282q.656-.75.906-1.203.25-.468.25-.968 0-.672-.406-1.094-.391-.438-1.078-.438-.797 0-1.25.47-.454.452-.454 1.28h-1.078q0-1.187.75-1.906.766-.734 2.032-.734 1.203 0 1.89.625.688.625.688 1.672 0 1.25-1.61 3l-2.281 2.468h4.281v.891zm6.766-3.64q0 1.906-.656 2.843-.641.922-2.032.922-1.359 0-2.015-.906-.656-.907-.688-2.719v-1.438q0-1.89.64-2.796.657-.922 2.048-.922 1.375 0 2.031.89.656.875.672 2.72v1.405zm-1.094-1.485q0-1.375-.39-2-.375-.64-1.22-.64-.827 0-1.218.64-.375.625-.375 1.922v1.734q0 1.375.39 2.047.407.656 1.22.656.796 0 1.187-.625.39-.625.406-1.953v-1.781zm8.094 1.484q0 1.907-.656 2.844-.641.922-2.032.922-1.359 0-2.015-.906-.656-.907-.688-2.719v-1.438q0-1.89.64-2.796.657-.922 2.048-.922 1.375 0 2.031.89.656.875.672 2.72v1.405zm-1.094-1.484q0-1.375-.39-2-.375-.64-1.22-.64-.827 0-1.218.64-.375.625-.375 1.922v1.734q0 1.375.39 2.047.407.656 1.22.656.796 0 1.187-.625.39-.625.406-1.953v-1.781zm8.094 1.484q0 1.907-.656 2.844-.641.922-2.032.922-1.359 0-2.015-.906-.656-.907-.688-2.719v-1.438q0-1.89.64-2.796.657-.922 2.048-.922 1.375 0 2.031.89.656.875.672 2.72v1.405zm-1.094-1.484q0-1.375-.39-2-.375-.64-1.22-.64-.827 0-1.218.64-.375.625-.375 1.922v1.734q0 1.375.39 2.047.407.656 1.22.656.796 0 1.187-.625.39-.625.406-1.953v-1.781zm8.094 1.484q0 1.907-.656 2.844-.641.922-2.032.922-1.359 0-2.015-.906-.656-.907-.688-2.719v-1.438q0-1.89.64-2.796.657-.922 2.048-.922 1.375 0 2.031.89.656.875.672 2.72v1.405zm-1.094-1.484q0-1.375-.39-2-.375-.64-1.22-.64-.827 0-1.218.64-.375.625-.375 1.922v1.734q0 1.375.39 2.047.407.656 1.22.656.796 0 1.187-.625.39-.625.406-1.953v-1.781zm8.094 1.484q0 1.907-.656 2.844-.641.922-2.032.922-1.359 0-2.015-.906-.656-.907-.688-2.719v-1.438q0-1.89.64-2.796.657-.922 2.048-.922 1.375 0 2.031.89.656.875.672 2.72v1.405zm-1.094-1.484q0-1.375-.39-2-.375-.64-1.22-.64-.827 0-1.218.64-.375.625-.375 1.922v1.734q0 1.375.39 2.047.407.656 1.22.656.796 0 1.187-.625.39-.625.406-1.953v-1.781zM1087.94 524.8h-5.594v-.781l2.953-3.282q.656-.75.906-1.203.25-.468.25-.968 0-.672-.406-1.094-.39-.438-1.078-.438-.797 0-1.25.47-.453.452-.453 1.28h-1.078q0-1.187.75-1.906.765-.734 2.031-.734 1.203 0 1.89.625.688.625.688 1.672 0 1.25-1.61 3l-2.28 2.468h4.28v.891zm1.906-4.281l.438-4.25h4.375v1h-3.454l-.265 2.328q.64-.375 1.437-.375 1.157 0 1.844.781.688.766.688 2.078 0 1.313-.72 2.078-.702.766-1.984.766-1.125 0-1.843-.625-.719-.64-.813-1.75h1.016q.11.734.531 1.11.422.374 1.11.374.75 0 1.187-.515.437-.516.437-1.422 0-.86-.468-1.375-.469-.516-1.25-.516-.703 0-1.11.297l-.28.234-.876-.218zm11.86.64q0 1.907-.657 2.844-.64.922-2.031.922-1.36 0-2.016-.906-.656-.907-.687-2.719v-1.438q0-1.89.64-2.796.657-.922 2.047-.922 1.375 0 2.032.89.656.875.671 2.72v1.405zm-1.094-1.484q0-1.375-.39-2-.376-.64-1.22-.64-.828 0-1.218.64-.375.625-.375 1.922v1.734q0 1.375.39 2.047.406.656 1.219.656.797 0 1.187-.625.391-.625.407-1.953v-1.781zm8.093 1.484q0 1.907-.656 2.844-.64.922-2.031.922-1.36 0-2.016-.906-.656-.907-.687-2.719v-1.438q0-1.89.64-2.796.657-.922 2.047-.922 1.375 0 2.032.89.656.875.671 2.72v1.405zm-1.093-1.484q0-1.375-.39-2-.376-.64-1.22-.64-.828 0-1.218.64-.375.625-.375 1.922v1.734q0 1.375.39 2.047.406.656 1.219.656.797 0 1.187-.625.391-.625.407-1.953v-1.781zm8.093 1.484q0 1.907-.656 2.844-.64.922-2.031.922-1.36 0-2.016-.906-.656-.907-.687-2.719v-1.438q0-1.89.64-2.796.657-.922 2.047-.922 1.375 0 2.032.89.656.875.671 2.72v1.405zm-1.093-1.484q0-1.375-.39-2-.376-.64-1.22-.64-.828 0-1.218.64-.375.625-.375 1.922v1.734q0 1.375.39 2.047.406.656 1.219.656.797 0 1.187-.625.391-.625.407-1.953v-1.781zm8.093 1.484q0 1.907-.656 2.844-.64.922-2.031.922-1.36 0-2.016-.906-.656-.907-.687-2.719v-1.438q0-1.89.64-2.796.657-.922 2.047-.922 1.375 0 2.032.89.656.875.671 2.72v1.405zm-1.093-1.484q0-1.375-.39-2-.376-.64-1.22-.64-.828 0-1.218.64-.375.625-.375 1.922v1.734q0 1.375.39 2.047.406.656 1.219.656.797 0 1.187-.625.391-.625.407-1.953v-1.781z"/>
  <path stroke="#0f0" stroke-width="4" stroke-linecap="butt" d="M1183.8 102.5h12"/>
  <path fill="#757575" d="M1211.3 103.016q0 1.234-.39 2.125-.391.89-1.094 1.39l1.515 1.203-.765.704-1.797-1.422q-.422.109-.89.109-1 0-1.782-.5-.781-.5-1.219-1.406-.422-.922-.437-2.14v-.61q0-1.235.421-2.172.438-.938 1.22-1.438.78-.515 1.78-.515 1.032 0 1.813.5.781.5 1.203 1.437.422.938.422 2.188v.547zm-1.125-.563q0-1.5-.594-2.312-.593-.829-1.718-.829-1.063 0-1.672.813-.61.813-.625 2.25v.64q0 1.454.609 2.297.61.844 1.703.844 1.094 0 1.688-.781.593-.797.609-2.281v-.64zm6.36 3.922q-.626.75-1.86.75-1.016 0-1.547-.594-.531-.594-.531-1.75v-4.125h1.078v4.094q0 1.453 1.172 1.453 1.25 0 1.656-.937v-4.61h1.094V107h-1.031l-.032-.625zm7 .625q-.094-.188-.157-.672-.75.797-1.797.797-.937 0-1.547-.531-.593-.531-.593-1.36 0-.984.75-1.53.75-.548 2.125-.548h1.046v-.5q0-.562-.343-.89-.328-.344-1-.344-.578 0-.969.297-.39.281-.39.703h-1.094q0-.484.328-.922.343-.438.922-.688.578-.265 1.265-.265 1.11 0 1.719.547.625.547.656 1.5v2.922q0 .875.219 1.39V107h-1.14zm-1.798-.828q.516 0 .97-.266.452-.265.655-.687v-1.297h-.843q-2 0-2 1.172 0 .5.343.797.344.28.875.28zm4.625-2.39q0-1.47.688-2.344.688-.891 1.813-.891 1.109 0 1.765.75V98h1.078v9h-1l-.047-.688q-.656.813-1.812.813-1.094 0-1.797-.906-.688-.906-.688-2.36v-.078zm1.079.124q0 1.078.437 1.688.453.61 1.235.61 1.03 0 1.515-.938v-2.907q-.484-.89-1.5-.89-.797 0-1.25.61-.437.609-.437 1.827zm9.25-2.281q-.25-.031-.532-.031-1.078 0-1.453.906v4.5h-1.078v-6.344h1.047l.016.735q.53-.844 1.515-.844.313 0 .485.078v1zm.64 2.14q0-.921.36-1.671.375-.75 1.03-1.14.657-.407 1.485-.407 1.297 0 2.094.89.813.891.813 2.391v.078q0 .922-.36 1.656-.36.735-1.015 1.157-.657.406-1.516.406-1.281 0-2.094-.89-.797-.907-.797-2.391v-.078zm1.094.141q0 1.047.484 1.688.5.64 1.313.64.828 0 1.312-.64.485-.656.485-1.828 0-1.032-.5-1.672-.485-.656-1.313-.656-.797 0-1.297.64-.484.625-.484 1.828zm10.813-5.437l2.796 6.953 2.782-6.953h1.468V107h-1.125v-3.328l.11-3.578-2.813 6.906h-.86l-2.796-6.89.11 3.562V107h-1.126v-8.531h1.453zm11.828 8.531h-1.079v-7.219l-2.187.797v-.984l3.11-1.172h.156V107zm9.03 0h-5.593v-.781l2.953-3.281q.657-.75.907-1.204.25-.468.25-.968 0-.672-.407-1.094-.39-.438-1.078-.438-.797 0-1.25.47-.453.452-.453 1.28h-1.078q0-1.187.75-1.906.765-.734 2.031-.734 1.203 0 1.89.625.688.625.688 1.672 0 1.25-1.61 3l-2.28 2.468h4.28V107zm6.766-3.64q0 1.906-.656 2.843-.64.922-2.031.922-1.36 0-2.016-.906-.656-.906-.687-2.719v-1.438q0-1.89.64-2.796.657-.922 2.047-.922 1.375 0 2.032.89.656.875.671 2.72v1.405zm-1.093-1.485q0-1.375-.39-2-.376-.64-1.22-.64-.828 0-1.218.64-.375.625-.375 1.922v1.734q0 1.375.39 2.047.407.656 1.219.656.797 0 1.188-.625.39-.625.406-1.953v-1.781zm8.093 1.484q0 1.907-.656 2.844-.64.922-2.031.922-1.36 0-2.016-.906-.656-.906-.687-2.719v-1.438q0-1.89.64-2.796.657-.922 2.047-.922 1.375 0 2.032.89.656.875.671 2.72v1.405zm-1.093-1.484q0-1.375-.39-2-.376-.64-1.22-.64-.828 0-1.218.64-.375.625-.375 1.922v1.734q0 1.375.39 2.047.407.656 1.219.656.797 0 1.188-.625.39-.625.406-1.953v-1.781zm15.218 2.188q-.078 1.406-.718 2.234-.625.828-1.688.828-1.093 0-1.406-1-.313.5-.719.75-.406.25-.843.25-.829 0-1.266-.688-.422-.687-.313-1.874.094-.97.438-1.72.36-.765.922-1.202.562-.438 1.172-.438.484 0 .859.125t.844.5l-.313 3.25q-.11 1.344.75 1.344.672 0 1.078-.656.407-.657.438-1.704.125-2.28-.844-3.468-.953-1.203-2.906-1.203-1.188 0-2.11.578-.906.578-1.437 1.687-.516 1.094-.578 2.547-.078 1.453.344 2.531.421 1.063 1.28 1.625.876.563 2.095.563.53 0 1.062-.125.531-.125.875-.344l.219.688q-.36.218-.969.359-.594.156-1.203.156-1.469 0-2.531-.656-1.047-.656-1.578-1.906-.516-1.235-.454-2.89.079-1.61.72-2.891.655-1.297 1.765-2 1.125-.704 2.515-.704 1.47 0 2.5.657 1.047.656 1.547 1.906.516 1.234.453 2.89zm-6.015.5q-.078.828.156 1.28.235.438.75.438.36 0 .672-.297.328-.296.547-.859v-.047l.265-2.953q-.328-.172-.703-.172-.672 0-1.125.703-.453.688-.562 1.906zm14.094 2.437h-1.079v-7.219l-2.187.797v-.984l3.11-1.172h.156V107zm3.578-.563q0-.28.156-.468.172-.188.5-.188.344 0 .516.188.171.187.171.469 0 .265-.171.453-.172.171-.516.171-.328 0-.5-.171-.156-.188-.156-.454zm6.422.563h-1.079v-7.219l-2.187.797v-.984l3.11-1.172h.156V107zm3.937-4.281l.438-4.25h4.375v1h-3.454l-.265 2.328q.64-.375 1.437-.375 1.157 0 1.844.781.688.766.688 2.078 0 1.313-.72 2.078-.702.766-1.984.766-1.125 0-1.843-.625-.719-.64-.813-1.75h1.016q.11.734.531 1.11.422.374 1.11.374.75 0 1.187-.515.438-.516.438-1.422 0-.86-.47-1.375-.468-.516-1.25-.516-.702 0-1.109.297l-.28.234-.876-.218zm16.094 3.156q-.438.625-1.219.938-.781.312-1.812.312-1.032 0-1.844-.484-.813-.5-1.25-1.407-.438-.906-.453-2.093v-.735q0-1.937.89-3 .907-1.062 2.532-1.062 1.343 0 2.156.687.812.688 1 1.938h-1.125q-.328-1.688-2.016-1.688-1.14 0-1.718.797-.579.781-.594 2.297v.688q0 1.437.656 2.296.656.844 1.781.844.625 0 1.094-.14.484-.141.797-.485v-1.906h-1.969v-.922h3.094v3.125zm8.25 1.125h-1.125v-3.938h-4.313V107h-1.125v-8.531h1.125v3.672h4.313v-3.672h1.125V107zm3.297-.89h3.703v.89h-5.031v-.797l3.5-4.64h-3.454v-.907h4.813v.766l-3.531 4.687zm7.937-2.579q0-1.312.344-2.531.36-1.219 1.063-2.219.703-1 1.468-1.406l.219.719q-.86.656-1.406 2-.547 1.344-.594 3.015l-.016.5q0 2.266.828 3.922.5 1 1.188 1.563l-.219.656q-.781-.422-1.5-1.453-1.375-1.984-1.375-4.766zm10.485.766q-.157 1.344-1 2.094-.844.734-2.235.734-1.515 0-2.422-1.078-.906-1.094-.906-2.922v-.813q0-1.187.422-2.093.422-.906 1.203-1.39.781-.485 1.797-.485 1.36 0 2.172.765.828.766.969 2.094h-1.125q-.157-1.016-.641-1.469-.484-.453-1.375-.453-1.078 0-1.688.797-.609.797-.609 2.266v.828q0 1.39.578 2.219.578.812 1.625.812.938 0 1.438-.422.5-.437.672-1.484h1.125zm7.734-5.828v5.797q-.016 1.203-.766 1.984-.75.766-2.03.86l-.313.015q-1.391 0-2.235-.75-.828-.766-.828-2.094V98.47h1.11v5.781q0 .922.5 1.438.515.515 1.453.515.968 0 1.468-.516.5-.515.5-1.437v-5.781h1.141zm1.984 8.531v-8.531h2.422q1.11 0 1.953.5.86.484 1.328 1.39.47.907.47 2.094v.531q0 1.22-.47 2.125-.453.907-1.328 1.391-.859.484-2 .5h-2.375zm1.125-7.61v6.688h1.188q1.297 0 2.015-.797.735-.812.735-2.312v-.5q0-1.453-.688-2.25-.672-.813-1.937-.828h-1.313zm11.594 5.376h-3.578l-.797 2.234h-1.156l3.25-8.531h.984l3.266 8.531h-1.156l-.813-2.234zm-3.234-.922h2.906l-1.453-3.985-1.453 3.985zm9.562 3.89h-.922l3.563-9.265h.922l-3.563 9.265zm9.25-5.53h.813q.781-.016 1.218-.407.438-.39.438-1.063 0-1.5-1.5-1.5-.703 0-1.125.407-.406.406-.406 1.062h-1.094q0-1.016.734-1.687.75-.672 1.891-.672 1.203 0 1.89.64.688.641.688 1.782 0 .562-.36 1.078-.359.515-.984.781.703.219 1.078.734.391.516.391 1.266 0 1.14-.75 1.828-.75.672-1.953.672-1.188 0-1.953-.656-.75-.656-.75-1.719h1.094q0 .672.437 1.078.438.406 1.188.406.78 0 1.187-.406.422-.422.422-1.187 0-.735-.453-1.125-.453-.407-1.328-.422h-.813v-.89zm11.016 4.796h-5.594v-.781l2.953-3.281q.657-.75.907-1.204.25-.468.25-.968 0-.672-.407-1.094-.39-.438-1.078-.438-.797 0-1.25.47-.453.452-.453 1.28h-1.078q0-1.187.75-1.906.765-.734 2.031-.734 1.203 0 1.89.625.688.625.688 1.672 0 1.25-1.61 3l-2.28 2.468h4.28V107zm3.781-3.188h-2.86v-.874h2.86v.874zm6.11.094q0 1.453-.672 2.344-.657.875-1.782.875-1.203 0-1.859-.86l-.063.735h-.984v-9h1.078v3.36q.657-.813 1.813-.813t1.812.875q.657.86.657 2.39v.094zm-1.079-.125q0-1.11-.437-1.703-.422-.61-1.219-.61-1.078 0-1.547.985v2.75q.5 1 1.547 1 .781 0 1.219-.61.437-.609.437-1.812zM1427.8 107h-1.078v-6.344h1.078V107zm-1.172-8.016q0-.265.156-.453.172-.187.485-.187.312 0 .468.187.172.188.172.453 0 .25-.172.438-.156.172-.468.172-.313 0-.485-.172-.156-.188-.156-.438zm4.469.141v1.531h1.172v.844h-1.172v3.922q0 .39.156.578.156.188.531.188.188 0 .516-.063V107q-.422.125-.828.125-.719 0-1.094-.438-.375-.453-.375-1.265V101.5h-1.156v-.844h1.156v-1.531h1.094zm5.734 8.61h-.922l3.563-9.266h.922l-3.563 9.265zm14.516-.735h-1.125v-3.938h-4.313V107h-1.125v-8.531h1.125v3.672h4.313v-3.672h1.125V107zm1.984-3.234q0-.922.36-1.672.375-.75 1.03-1.14.657-.407 1.485-.407 1.297 0 2.094.89.813.891.813 2.391v.078q0 .922-.36 1.656-.36.735-1.015 1.157-.657.406-1.516.406-1.281 0-2.094-.89-.797-.907-.797-2.391v-.078zm1.094.14q0 1.047.484 1.688.5.64 1.313.64.828 0 1.312-.64.485-.656.485-1.828 0-1.032-.5-1.672-.485-.656-1.313-.656-.797 0-1.297.64-.484.625-.484 1.828zm7.672-4.781v1.531h1.172v.844h-1.172v3.922q0 .39.156.578.156.188.531.188.188 0 .516-.063V107q-.422.125-.828.125-.719 0-1.094-.438-.375-.453-.375-1.265V101.5h-1.156v-.844h1.156v-1.531h1.094zm5.203 4.078q-1.438-.422-2.11-1.031-.656-.61-.656-1.5 0-1 .797-1.656.813-.672 2.11-.672.875 0 1.562.344.688.343 1.063.937.39.594.39 1.313h-1.14q0-.782-.5-1.22-.485-.437-1.375-.437-.829 0-1.297.375-.469.36-.469 1 0 .531.438.89.453.36 1.515.657 1.063.297 1.656.656.61.36.891.844.297.484.297 1.125 0 1.047-.813 1.672-.812.625-2.156.625-.89 0-1.656-.344-.75-.344-1.172-.922-.406-.593-.406-1.328h1.125q0 .766.578 1.219.578.453 1.531.453.89 0 1.36-.36.468-.374.468-1 0-.624-.437-.968-.438-.344-1.594-.672zm4.031.563q0-.922.36-1.672.375-.75 1.03-1.14.657-.407 1.485-.407 1.297 0 2.094.89.813.891.813 2.391v.078q0 .922-.36 1.656-.36.735-1.015 1.157-.657.406-1.516.406-1.281 0-2.094-.89-.797-.907-.797-2.391v-.078zm1.094.14q0 1.047.484 1.688.5.64 1.313.64.828 0 1.312-.64.485-.656.485-1.828 0-1.032-.5-1.672-.485-.656-1.313-.656-.797 0-1.297.64-.484.625-.484 1.828zm9.266-2.281q-.25-.031-.532-.031-1.078 0-1.453.906v4.5h-1.078v-6.344h1.047l.016.735q.53-.844 1.515-.844.313 0 .485.078v1zm2.406-2.5v1.531h1.172v.844h-1.172v3.922q0 .39.156.578.156.188.531.188.188 0 .516-.063V107q-.422.125-.828.125-.719 0-1.094-.438-.375-.453-.375-1.265V101.5h-1.156v-.844h1.156v-1.531h1.094zm5.031 4.469q0 1.312-.344 2.515-.343 1.188-1.062 2.204-.703 1.015-1.469 1.437l-.234-.656q.906-.688 1.453-2.14.547-1.47.562-3.235v-.188q0-1.234-.265-2.297-.25-1.062-.719-1.89-.453-.844-1.031-1.313l.234-.656q.766.422 1.469 1.422.703 1 1.047 2.219.36 1.203.36 2.578z"/>
  <path stroke="red" stroke-width="4" stroke-linecap="butt" d="M1183.8 127.5h12"/>
  <path fill="#757575" d="M1211.3 128.016q0 1.234-.39 2.125-.391.89-1.094 1.39l1.515 1.203-.765.703-1.797-1.421q-.422.109-.89.109-1 0-1.782-.5-.781-.5-1.219-1.406-.422-.922-.437-2.14v-.61q0-1.235.421-2.172.438-.938 1.22-1.438.78-.515 1.78-.515 1.032 0 1.813.5.781.5 1.203 1.437.422.938.422 2.188v.547zm-1.125-.563q0-1.5-.594-2.312-.593-.829-1.718-.829-1.063 0-1.672.813-.61.813-.625 2.25v.64q0 1.454.609 2.298.61.843 1.703.843 1.094 0 1.688-.781.593-.797.609-2.281v-.64zm6.36 3.922q-.626.75-1.86.75-1.016 0-1.547-.594-.531-.594-.531-1.75v-4.125h1.078v4.094q0 1.453 1.172 1.453 1.25 0 1.656-.937v-4.61h1.094V132h-1.031l-.032-.625zm7 .625q-.094-.188-.157-.672-.75.797-1.797.797-.937 0-1.547-.531-.593-.531-.593-1.36 0-.984.75-1.53.75-.548 2.125-.548h1.046v-.5q0-.562-.343-.89-.328-.344-1-.344-.578 0-.969.297-.39.281-.39.703h-1.094q0-.484.328-.922.343-.438.922-.688.578-.265 1.265-.265 1.11 0 1.719.547.625.547.656 1.5v2.922q0 .875.219 1.39V132h-1.14zm-1.798-.828q.516 0 .97-.266.452-.265.655-.687v-1.297h-.843q-2 0-2 1.172 0 .5.343.797.344.28.875.28zm4.625-2.39q0-1.47.688-2.345.688-.89 1.813-.89 1.109 0 1.765.75V123h1.078v9h-1l-.047-.688q-.656.813-1.812.813-1.094 0-1.797-.906-.688-.906-.688-2.36v-.078zm1.079.124q0 1.078.437 1.688.453.61 1.235.61 1.03 0 1.515-.938v-2.907q-.484-.89-1.5-.89-.797 0-1.25.61-.437.609-.437 1.827zm9.25-2.281q-.25-.031-.532-.031-1.078 0-1.453.906v4.5h-1.078v-6.344h1.047l.016.735q.53-.844 1.515-.844.313 0 .485.078v1zm.64 2.14q0-.921.36-1.671.375-.75 1.03-1.14.657-.407 1.485-.407 1.297 0 2.094.89.813.891.813 2.391v.078q0 .922-.36 1.656-.36.735-1.015 1.157-.657.406-1.516.406-1.281 0-2.094-.89-.797-.907-.797-2.391v-.078zm1.094.141q0 1.047.484 1.688.5.64 1.313.64.828 0 1.312-.64.485-.656.485-1.828 0-1.032-.5-1.672-.485-.656-1.313-.656-.797 0-1.297.64-.484.625-.484 1.828zm10.813-5.437l2.796 6.953 2.782-6.953h1.468V132h-1.125v-3.328l.11-3.578-2.813 6.906h-.86l-2.796-6.89.11 3.562V132h-1.126v-8.531h1.453zm11.828 8.531h-1.079v-7.219l-2.187.797v-.984l3.11-1.172h.156V132zm9.03 0h-5.593v-.781l2.953-3.281q.657-.75.907-1.204.25-.468.25-.968 0-.672-.407-1.094-.39-.438-1.078-.438-.797 0-1.25.47-.453.452-.453 1.28h-1.078q0-1.187.75-1.906.765-.734 2.031-.734 1.203 0 1.89.625.688.625.688 1.672 0 1.25-1.61 3l-2.28 2.468h4.28V132zm6.766-3.64q0 1.906-.656 2.843-.64.922-2.031.922-1.36 0-2.016-.906-.656-.906-.687-2.719v-1.438q0-1.89.64-2.796.657-.922 2.047-.922 1.375 0 2.032.89.656.875.671 2.72v1.405zm-1.093-1.485q0-1.375-.39-2-.376-.64-1.22-.64-.828 0-1.218.64-.375.625-.375 1.922v1.734q0 1.375.39 2.047.407.656 1.219.656.797 0 1.188-.625.39-.625.406-1.953v-1.781zm8.093 1.484q0 1.907-.656 2.844-.64.922-2.031.922-1.36 0-2.016-.906-.656-.906-.687-2.719v-1.438q0-1.89.64-2.796.657-.922 2.047-.922 1.375 0 2.032.89.656.875.671 2.72v1.405zm-1.093-1.484q0-1.375-.39-2-.376-.64-1.22-.64-.828 0-1.218.64-.375.625-.375 1.922v1.734q0 1.375.39 2.047.407.656 1.219.656.797 0 1.188-.625.39-.625.406-1.953v-1.781zm15.218 2.188q-.078 1.406-.718 2.234-.625.828-1.688.828-1.093 0-1.406-1-.313.5-.719.75-.406.25-.843.25-.829 0-1.266-.688-.422-.687-.313-1.875.094-.968.438-1.718.36-.766.922-1.203.562-.438 1.172-.438.484 0 .859.125t.844.5l-.313 3.25q-.11 1.344.75 1.344.672 0 1.078-.656.407-.657.438-1.703.125-2.282-.844-3.47-.953-1.202-2.906-1.202-1.188 0-2.11.578-.906.578-1.437 1.687-.516 1.094-.578 2.547-.078 1.453.344 2.531.421 1.063 1.28 1.625.876.563 2.095.563.53 0 1.062-.125.531-.125.875-.344l.219.688q-.36.218-.969.359-.594.156-1.203.156-1.469 0-2.531-.656-1.047-.656-1.578-1.906-.516-1.235-.454-2.89.079-1.61.72-2.892.655-1.296 1.765-2 1.125-.703 2.515-.703 1.47 0 2.5.657 1.047.656 1.547 1.906.516 1.234.453 2.89zm-6.015.5q-.078.828.156 1.28.235.438.75.438.36 0 .672-.297.328-.297.547-.859v-.047l.265-2.953q-.328-.172-.703-.172-.672 0-1.125.703-.453.688-.562 1.906zm14.094 2.437h-1.079v-7.219l-2.187.797v-.984l3.11-1.172h.156V132zm3.578-.563q0-.28.156-.468.172-.188.5-.188.344 0 .516.188.171.187.171.469 0 .265-.171.453-.172.172-.516.172-.328 0-.5-.172-.156-.188-.156-.453zm6.422.563h-1.079v-7.219l-2.187.797v-.984l3.11-1.172h.156V132zm3.937-4.281l.438-4.25h4.375v1h-3.454l-.265 2.328q.64-.375 1.437-.375 1.157 0 1.844.781.688.766.688 2.078 0 1.313-.72 2.078-.702.766-1.984.766-1.125 0-1.843-.625-.719-.64-.813-1.75h1.016q.11.734.531 1.11.422.374 1.11.374.75 0 1.187-.515.438-.516.438-1.422 0-.86-.47-1.375-.468-.516-1.25-.516-.702 0-1.109.297l-.28.234-.876-.218zm16.094 3.156q-.438.625-1.219.938-.781.312-1.812.312-1.032 0-1.844-.484-.813-.5-1.25-1.407-.438-.906-.453-2.093v-.735q0-1.937.89-3 .907-1.062 2.532-1.062 1.343 0 2.156.687.812.688 1 1.938h-1.125q-.328-1.688-2.016-1.688-1.14 0-1.718.797-.579.781-.594 2.297v.688q0 1.437.656 2.296.656.844 1.781.844.625 0 1.094-.14.484-.141.797-.485v-1.906h-1.969v-.922h3.094v3.125zm8.25 1.125h-1.125v-3.938h-4.313V132h-1.125v-8.531h1.125v3.672h4.313v-3.672h1.125V132zm3.297-.89h3.703v.89h-5.031v-.797l3.5-4.64h-3.454v-.907h4.813v.766l-3.531 4.687zm7.937-2.579q0-1.312.344-2.531.36-1.219 1.063-2.219.703-1 1.468-1.406l.219.719q-.86.656-1.406 2-.547 1.344-.594 3.015l-.016.5q0 2.266.828 3.922.5 1 1.188 1.563l-.219.656q-.781-.422-1.5-1.453-1.375-1.984-1.375-4.766zm7.032 1.969l2.437-7.031h1.234l-3.172 8.531h-.984l-3.156-8.531h1.219l2.421 7.031zm11.187-7.031v5.797q-.016 1.203-.766 1.984-.75.766-2.03.86l-.313.015q-1.391 0-2.235-.75-.828-.766-.828-2.094v-5.812h1.11v5.781q0 .922.5 1.438.515.515 1.453.515.968 0 1.468-.516.5-.515.5-1.437v-5.781h1.141zm3.125 7.61h4.047V132h-5.188v-8.531h1.141v7.61zm7.031-3.048l-1.047 1.078V132h-1.125v-8.531h1.125v4.219l3.797-4.22h1.36l-3.36 3.766 3.625 4.766h-1.343l-3.032-3.969zm10.547 1.735h-3.578l-.797 2.234h-1.156l3.25-8.531h.984l3.266 8.531h-1.156l-.813-2.234zm-3.234-.922h2.906l-1.453-3.985-1.453 3.985zm13.078 3.156h-1.125l-4.297-6.578V132h-1.14v-8.531h1.14l4.297 6.61v-6.61h1.125V132zm5.484.734h-.922l3.563-9.265h.922l-3.563 9.265zm9.25-5.53h.813q.781-.016 1.218-.407.438-.39.438-1.063 0-1.5-1.5-1.5-.703 0-1.125.407-.406.406-.406 1.062h-1.094q0-1.016.734-1.687.75-.672 1.891-.672 1.203 0 1.89.64.688.641.688 1.782 0 .562-.36 1.078-.359.515-.984.781.703.219 1.078.734.391.516.391 1.266 0 1.14-.75 1.828-.75.672-1.953.672-1.188 0-1.953-.656-.75-.656-.75-1.719h1.094q0 .672.437 1.078.438.406 1.188.406.78 0 1.187-.406.422-.422.422-1.187 0-.735-.453-1.125-.453-.407-1.328-.422h-.813v-.89zm11.016 4.796h-5.594v-.781l2.953-3.281q.657-.75.907-1.204.25-.468.25-.968 0-.672-.407-1.094-.39-.438-1.078-.438-.797 0-1.25.47-.453.452-.453 1.28h-1.078q0-1.187.75-1.906.765-.734 2.031-.734 1.203 0 1.89.625.688.625.688 1.672 0 1.25-1.61 3l-2.28 2.468h4.28V132zm3.781-3.188h-2.86v-.875h2.86v.876zm6.11.094q0 1.453-.672 2.344-.657.875-1.782.875-1.203 0-1.859-.86l-.063.735h-.984v-9h1.078v3.36q.657-.813 1.813-.813t1.812.875q.657.86.657 2.39v.094zm-1.079-.125q0-1.11-.437-1.703-.422-.61-1.219-.61-1.078 0-1.547.985v2.75q.5 1 1.547 1 .781 0 1.219-.61.437-.609.437-1.812zM1442.8 132h-1.078v-6.344h1.078V132zm-1.172-8.016q0-.265.156-.453.172-.187.485-.187.312 0 .468.187.172.188.172.453 0 .25-.172.438-.156.172-.468.172-.313 0-.485-.172-.156-.188-.156-.438zm4.469.141v1.531h1.172v.844h-1.172v3.922q0 .39.156.578.156.188.531.188.188 0 .516-.063V132q-.422.125-.828.125-.719 0-1.094-.438-.375-.453-.375-1.265V126.5h-1.156v-.844h1.156v-1.531h1.094zm5.734 8.61h-.922l3.563-9.266h.922l-3.563 9.265zm14.516-.735h-1.125v-3.938h-4.313V132h-1.125v-8.531h1.125v3.672h4.313v-3.672h1.125V132zm1.984-3.234q0-.922.36-1.672.375-.75 1.03-1.14.657-.407 1.485-.407 1.297 0 2.094.89.813.891.813 2.391v.078q0 .922-.36 1.656-.36.735-1.015 1.157-.657.406-1.516.406-1.281 0-2.094-.89-.797-.907-.797-2.391v-.078zm1.094.14q0 1.047.484 1.688.5.64 1.313.64.828 0 1.312-.64.485-.656.485-1.828 0-1.032-.5-1.672-.485-.656-1.313-.656-.797 0-1.297.64-.484.625-.484 1.828zm7.672-4.781v1.531h1.172v.844h-1.172v3.922q0 .39.156.578.156.188.531.188.188 0 .516-.063V132q-.422.125-.828.125-.719 0-1.094-.438-.375-.453-.375-1.265V126.5h-1.156v-.844h1.156v-1.531h1.094zm5.203 4.078q-1.438-.422-2.11-1.031-.656-.61-.656-1.5 0-1 .797-1.656.813-.672 2.11-.672.875 0 1.562.344.688.343 1.063.937.39.594.39 1.313h-1.14q0-.782-.5-1.22-.485-.437-1.375-.437-.829 0-1.297.375-.469.36-.469 1 0 .531.438.89.453.36 1.515.657 1.063.297 1.656.656.61.36.891.844.297.484.297 1.125 0 1.047-.813 1.672-.812.625-2.156.625-.89 0-1.656-.344-.75-.344-1.172-.922-.406-.593-.406-1.328h1.125q0 .766.578 1.219.578.453 1.531.453.89 0 1.36-.36.468-.374.468-1 0-.624-.437-.968-.438-.344-1.594-.672zm4.031.563q0-.922.36-1.672.375-.75 1.03-1.14.657-.407 1.485-.407 1.297 0 2.094.89.813.891.813 2.391v.078q0 .922-.36 1.656-.36.735-1.015 1.157-.657.406-1.516.406-1.281 0-2.094-.89-.797-.907-.797-2.391v-.078zm1.094.14q0 1.047.484 1.688.5.64 1.313.64.828 0 1.312-.64.485-.656.485-1.828 0-1.032-.5-1.672-.485-.656-1.313-.656-.797 0-1.297.64-.484.625-.484 1.828zm9.266-2.281q-.25-.031-.532-.031-1.078 0-1.453.906v4.5h-1.078v-6.344h1.047l.016.735q.53-.844 1.515-.844.313 0 .485.078v1zm2.406-2.5v1.531h1.172v.844h-1.172v3.922q0 .39.156.578.156.188.531.188.188 0 .516-.063V132q-.422.125-.828.125-.719 0-1.094-.438-.375-.453-.375-1.265V126.5h-1.156v-.844h1.156v-1.531h1.094zm5.031 4.469q0 1.312-.344 2.515-.343 1.188-1.062 2.203-.703 1.016-1.469 1.438l-.234-.656q.906-.688 1.453-2.14.547-1.47.562-3.235v-.188q0-1.234-.265-2.297-.25-1.062-.719-1.89-.453-.844-1.031-1.313l.234-.656q.766.422 1.469 1.422.703 1 1.047 2.219.36 1.203.36 2.578z"/>
  <path stroke="#00f" stroke-width="4" stroke-linecap="butt" d="M1183.8 152.5h12"/>
  <path fill="#757575" d="M1211.3 153.016q0 1.234-.39 2.125-.391.89-1.094 1.39l1.515 1.203-.765.703-1.797-1.421q-.422.109-.89.109-1 0-1.782-.5-.781-.5-1.219-1.406-.422-.922-.437-2.14v-.61q0-1.235.421-2.172.438-.938 1.22-1.438.78-.515 1.78-.515 1.032 0 1.813.5.781.5 1.203 1.437.422.938.422 2.188v.547zm-1.125-.563q0-1.5-.594-2.312-.593-.828-1.718-.828-1.063 0-1.672.812-.61.813-.625 2.25v.64q0 1.454.609 2.298.61.843 1.703.843 1.094 0 1.688-.781.593-.797.609-2.281v-.64zm6.36 3.922q-.626.75-1.86.75-1.016 0-1.547-.594-.531-.594-.531-1.75v-4.125h1.078v4.094q0 1.453 1.172 1.453 1.25 0 1.656-.937v-4.61h1.094V157h-1.031l-.032-.625zm7 .625q-.094-.188-.157-.672-.75.797-1.797.797-.937 0-1.547-.531-.593-.531-.593-1.36 0-.984.75-1.53.75-.548 2.125-.548h1.046v-.5q0-.562-.343-.89-.328-.344-1-.344-.578 0-.969.297-.39.281-.39.703h-1.094q0-.484.328-.922.343-.438.922-.688.578-.265 1.265-.265 1.11 0 1.719.547.625.547.656 1.5v2.922q0 .875.219 1.39V157h-1.14zm-1.798-.828q.516 0 .97-.266.452-.265.655-.687v-1.297h-.843q-2 0-2 1.172 0 .5.343.797.344.28.875.28zm4.625-2.39q0-1.47.688-2.345.688-.89 1.813-.89 1.109 0 1.765.75V148h1.078v9h-1l-.047-.688q-.656.813-1.812.813-1.094 0-1.797-.906-.688-.906-.688-2.36v-.078zm1.079.124q0 1.078.437 1.688.453.61 1.235.61 1.03 0 1.515-.938v-2.907q-.484-.89-1.5-.89-.797 0-1.25.61-.437.608-.437 1.827zm9.25-2.281q-.25-.031-.532-.031-1.078 0-1.453.906v4.5h-1.078v-6.344h1.047l.016.735q.53-.844 1.515-.844.313 0 .485.078v1zm.64 2.14q0-.921.36-1.671.375-.75 1.03-1.14.657-.407 1.485-.407 1.297 0 2.094.89.813.891.813 2.391v.078q0 .922-.36 1.656-.36.735-1.015 1.157-.657.406-1.516.406-1.281 0-2.094-.89-.797-.907-.797-2.391v-.078zm1.094.141q0 1.047.484 1.688.5.64 1.313.64.828 0 1.312-.64.485-.656.485-1.828 0-1.032-.5-1.672-.485-.656-1.313-.656-.797 0-1.297.64-.484.625-.484 1.828zm10.813-5.437l2.796 6.953 2.782-6.953h1.468V157h-1.125v-3.328l.11-3.578-2.813 6.906h-.86l-2.796-6.89.11 3.562V157h-1.126v-8.531h1.453zm11.828 8.531h-1.079v-7.219l-2.187.797v-.984l3.11-1.172h.156V157zm9.03 0h-5.593v-.781l2.953-3.281q.657-.75.907-1.204.25-.468.25-.968 0-.672-.407-1.094-.39-.438-1.078-.438-.797 0-1.25.47-.453.452-.453 1.28h-1.078q0-1.187.75-1.906.765-.734 2.031-.734 1.203 0 1.89.625.688.625.688 1.672 0 1.25-1.61 3l-2.28 2.468h4.28V157zm6.766-3.64q0 1.906-.656 2.843-.64.922-2.031.922-1.36 0-2.016-.906-.656-.906-.687-2.719v-1.438q0-1.89.64-2.796.657-.922 2.047-.922 1.375 0 2.032.89.656.875.671 2.72v1.405zm-1.093-1.485q0-1.375-.39-2-.376-.64-1.22-.64-.828 0-1.218.64-.375.625-.375 1.922v1.734q0 1.375.39 2.047.407.656 1.219.656.797 0 1.188-.625.39-.625.406-1.953v-1.781zm8.093 1.484q0 1.907-.656 2.844-.64.922-2.031.922-1.36 0-2.016-.906-.656-.906-.687-2.719v-1.438q0-1.89.64-2.796.657-.922 2.047-.922 1.375 0 2.032.89.656.875.671 2.72v1.405zm-1.093-1.484q0-1.375-.39-2-.376-.64-1.22-.64-.828 0-1.218.64-.375.625-.375 1.922v1.734q0 1.375.39 2.047.407.656 1.219.656.797 0 1.188-.625.39-.625.406-1.953v-1.781zm15.218 2.188q-.078 1.406-.718 2.234-.625.828-1.688.828-1.093 0-1.406-1-.313.5-.719.75-.406.25-.843.25-.829 0-1.266-.688-.422-.687-.313-1.875.094-.968.438-1.718.36-.766.922-1.203.562-.438 1.172-.438.484 0 .859.125t.844.5l-.313 3.25q-.11 1.344.75 1.344.672 0 1.078-.656.407-.657.438-1.703.125-2.282-.844-3.47-.953-1.202-2.906-1.202-1.188 0-2.11.578-.906.578-1.437 1.687-.516 1.094-.578 2.547-.078 1.453.344 2.531.421 1.063 1.28 1.625.876.563 2.095.563.53 0 1.062-.125.531-.125.875-.344l.219.688q-.36.218-.969.359-.594.156-1.203.156-1.469 0-2.531-.656-1.047-.656-1.578-1.906-.516-1.235-.454-2.89.079-1.61.72-2.892.655-1.296 1.765-2 1.125-.703 2.515-.703 1.47 0 2.5.657 1.047.656 1.547 1.906.516 1.234.453 2.89zm-6.015.5q-.078.828.156 1.28.235.438.75.438.36 0 .672-.297.328-.297.547-.859v-.047l.265-2.953q-.328-.172-.703-.172-.672 0-1.125.703-.453.688-.562 1.906zm14.094 2.437h-1.079v-7.219l-2.187.797v-.984l3.11-1.172h.156V157zm3.578-.563q0-.28.156-.468.172-.188.5-.188.344 0 .516.188.171.187.171.469 0 .265-.171.453-.172.172-.516.172-.328 0-.5-.172-.156-.188-.156-.453zm6.422.563h-1.079v-7.219l-2.187.797v-.984l3.11-1.172h.156V157zm3.937-4.281l.438-4.25h4.375v1h-3.454l-.265 2.328q.64-.375 1.437-.375 1.157 0 1.844.781.688.766.688 2.078 0 1.313-.72 2.078-.702.766-1.984.766-1.125 0-1.843-.625-.719-.64-.813-1.75h1.016q.11.734.531 1.11.422.374 1.11.374.75 0 1.187-.515.438-.516.438-1.422 0-.86-.47-1.375-.468-.516-1.25-.516-.702 0-1.109.297l-.28.234-.876-.218zm16.094 3.156q-.438.625-1.219.938-.781.312-1.812.312-1.032 0-1.844-.484-.813-.5-1.25-1.407-.438-.906-.453-2.093v-.735q0-1.937.89-3 .907-1.062 2.532-1.062 1.343 0 2.156.687.812.688 1 1.938h-1.125q-.328-1.688-2.016-1.688-1.14 0-1.718.797-.579.781-.594 2.297v.688q0 1.437.656 2.296.656.844 1.781.844.625 0 1.094-.14.484-.141.797-.485v-1.906h-1.969v-.922h3.094v3.125zm8.25 1.125h-1.125v-3.938h-4.313V157h-1.125v-8.531h1.125v3.672h4.313v-3.672h1.125V157zm3.297-.89h3.703v.89h-5.031v-.797l3.5-4.64h-3.454v-.907h4.813v.766l-3.531 4.687zm7.937-2.579q0-1.312.344-2.531.36-1.219 1.063-2.219.703-1 1.468-1.406l.219.719q-.86.656-1.406 2-.547 1.344-.594 3.015l-.016.5q0 2.266.828 3.922.5 1 1.188 1.563l-.219.656q-.781-.422-1.5-1.453-1.375-1.984-1.375-4.766zm10.485.766q-.157 1.344-1 2.094-.844.734-2.235.734-1.515 0-2.422-1.078-.906-1.094-.906-2.922v-.813q0-1.187.422-2.093.422-.906 1.203-1.39.781-.485 1.797-.485 1.36 0 2.172.765.828.766.969 2.094h-1.125q-.157-1.016-.641-1.469-.484-.453-1.375-.453-1.078 0-1.688.797-.609.797-.609 2.266v.828q0 1.39.578 2.219.578.812 1.625.812.938 0 1.438-.422.5-.437.672-1.484h1.125zm7.734-5.828v5.797q-.016 1.203-.766 1.984-.75.766-2.03.86l-.313.015q-1.391 0-2.235-.75-.828-.766-.828-2.094v-5.812h1.11v5.781q0 .922.5 1.438.515.515 1.453.515.968 0 1.468-.516.5-.515.5-1.437v-5.781h1.141zm1.984 8.531v-8.531h2.422q1.11 0 1.953.5.86.484 1.328 1.39.47.907.47 2.094v.531q0 1.22-.47 2.125-.453.907-1.328 1.391-.859.484-2 .5h-2.375zm1.125-7.61v6.688h1.188q1.297 0 2.015-.797.735-.812.735-2.312v-.5q0-1.453-.688-2.25-.672-.813-1.937-.828h-1.313zm11.594 5.376h-3.578l-.797 2.234h-1.156l3.25-8.531h.984l3.266 8.531h-1.156l-.813-2.234zm-3.234-.922h2.906l-1.453-3.985-1.453 3.985zm9.562 3.89h-.922l3.563-9.265h.922l-3.563 9.265zm9.25-5.53h.813q.781-.017 1.218-.407.438-.39.438-1.063 0-1.5-1.5-1.5-.703 0-1.125.407-.406.406-.406 1.062h-1.094q0-1.016.734-1.687.75-.672 1.891-.672 1.203 0 1.89.64.688.641.688 1.782 0 .562-.36 1.078-.359.515-.984.781.703.219 1.078.734.391.516.391 1.266 0 1.14-.75 1.828-.75.672-1.953.672-1.188 0-1.953-.656-.75-.656-.75-1.719h1.094q0 .672.437 1.078.438.406 1.188.406.78 0 1.187-.406.422-.422.422-1.187 0-.735-.453-1.125-.453-.407-1.328-.422h-.813v-.89zm11.016 4.796h-5.594v-.781l2.953-3.281q.657-.75.907-1.204.25-.468.25-.968 0-.672-.407-1.094-.39-.438-1.078-.438-.797 0-1.25.47-.453.452-.453 1.28h-1.078q0-1.187.75-1.906.765-.734 2.031-.734 1.203 0 1.89.625.688.625.688 1.672 0 1.25-1.61 3l-2.28 2.468h4.28V157zm3.781-3.188h-2.86v-.875h2.86v.875zm6.11.094q0 1.453-.672 2.344-.657.875-1.782.875-1.203 0-1.859-.86l-.063.735h-.984v-9h1.078v3.36q.657-.813 1.813-.813t1.812.875q.657.86.657 2.39v.094zm-1.079-.125q0-1.11-.437-1.703-.422-.61-1.219-.61-1.078 0-1.547.985v2.75q.5 1 1.547 1 .781 0 1.219-.61.437-.609.437-1.812zM1427.8 157h-1.078v-6.344h1.078V157zm-1.172-8.016q0-.265.156-.453.172-.187.485-.187.312 0 .468.187.172.188.172.453 0 .25-.172.438-.156.172-.468.172-.313 0-.485-.172-.156-.188-.156-.438zm4.469.141v1.531h1.172v.844h-1.172v3.922q0 .39.156.578.156.188.531.188.188 0 .516-.063V157q-.422.125-.828.125-.719 0-1.094-.438-.375-.453-.375-1.265V151.5h-1.156v-.844h1.156v-1.531h1.094zm5.734 8.61h-.922l3.563-9.266h.922l-3.563 9.265zm13.86-8.344h-2.75V157h-1.11v-7.61h-2.75v-.921h6.61v.922zm2.015 2.03q.719-.874 1.875-.874 2.016 0 2.032 2.266V157h-1.094v-4.203q0-.672-.313-1-.297-.328-.953-.328-.531 0-.937.281-.391.281-.61.734V157h-1.078v-9h1.078v3.422zm8.985.204q-.25-.031-.532-.031-1.078 0-1.453.906v4.5h-1.078v-6.344h1.047l.016.735q.53-.844 1.515-.844.313 0 .485.078v1zm4.843 4.75q-.625.75-1.859.75-1.016 0-1.547-.594-.531-.594-.531-1.75v-4.125h1.078v4.094q0 1.453 1.172 1.453 1.25 0 1.656-.937v-4.61h1.094V157h-1.031l-.032-.625zm6.782-1.063q0-.437-.344-.671-.328-.25-1.156-.422-.813-.172-1.297-.422-.485-.25-.719-.578-.219-.344-.219-.813 0-.781.657-1.312.656-.547 1.687-.547 1.078 0 1.734.562.672.547.672 1.407h-1.078q0-.438-.39-.75-.376-.328-.938-.328-.594 0-.938.265-.328.25-.328.656 0 .391.313.594.312.203 1.125.39.812.173 1.312.423t.735.609q.25.36.25.86 0 .859-.688 1.374-.672.516-1.75.516-.765 0-1.36-.266-.577-.28-.905-.765-.329-.485-.329-1.047h1.079q.03.547.437.875.406.312 1.078.312.61 0 .985-.25t.375-.672zm3.78-6.187v1.531h1.173v.844h-1.172v3.922q0 .39.156.578.156.188.531.188.188 0 .516-.063V157q-.422.125-.828.125-.719 0-1.094-.438-.375-.453-.375-1.265V151.5h-1.156v-.844h1.156v-1.531h1.094zm8.204 4.078q-1.438-.422-2.11-1.031-.656-.61-.656-1.5 0-1 .797-1.656.813-.672 2.11-.672.875 0 1.562.344.688.343 1.063.937.39.594.39 1.313h-1.14q0-.782-.5-1.22-.485-.437-1.375-.437-.829 0-1.297.375-.469.36-.469 1 0 .531.438.89.453.36 1.515.657 1.063.297 1.656.656.61.36.891.844.297.484.297 1.125 0 1.047-.813 1.672-.812.625-2.156.625-.89 0-1.656-.344-.75-.344-1.172-.922-.406-.593-.406-1.328h1.125q0 .766.578 1.219.578.453 1.531.453.89 0 1.36-.36.468-.374.468-1 0-.624-.437-.968-.438-.344-1.594-.672zm4.031.563q0-.922.36-1.672.375-.75 1.03-1.14.657-.407 1.485-.407 1.297 0 2.094.89.813.891.813 2.391v.078q0 .922-.36 1.656-.36.735-1.015 1.157-.657.406-1.516.406-1.281 0-2.094-.89-.797-.907-.797-2.391v-.078zm1.094.14q0 1.047.484 1.688.5.64 1.313.64.828 0 1.312-.64.485-.656.485-1.828 0-1.032-.5-1.672-.485-.656-1.313-.656-.797 0-1.297.64-.484.625-.484 1.828zm9.266-2.281q-.25-.031-.532-.031-1.078 0-1.453.906v4.5h-1.078v-6.344h1.047l.016.735q.53-.844 1.515-.844.313 0 .485.078v1zm2.406-2.5v1.531h1.172v.844h-1.172v3.922q0 .39.156.578.156.188.531.188.188 0 .516-.063V157q-.422.125-.828.125-.719 0-1.094-.438-.375-.453-.375-1.265V151.5h-1.156v-.844h1.156v-1.531h1.094zm5.031 4.469q0 1.312-.344 2.515-.343 1.188-1.062 2.203-.703 1.016-1.469 1.438l-.234-.656q.906-.688 1.453-2.14.547-1.47.562-3.235v-.188q0-1.234-.265-2.297-.25-1.062-.719-1.89-.453-.844-1.031-1.313l.234-.656q.766.422 1.469 1.422.703 1 1.047 2.219.36 1.203.36 2.578z"/>
  <path stroke="#f0f" stroke-width="4" stroke-linecap="butt" d="M1183.8 177.5h12"/>
  <path fill="#757575" d="M1211.3 178.016q0 1.234-.39 2.125-.391.89-1.094 1.39l1.515 1.203-.765.703-1.797-1.421q-.422.109-.89.109-1 0-1.782-.5-.781-.5-1.219-1.406-.422-.922-.437-2.14v-.61q0-1.235.421-2.172.438-.938 1.22-1.438.78-.515 1.78-.515 1.032 0 1.813.5.781.5 1.203 1.437.422.938.422 2.188v.547zm-1.125-.563q0-1.5-.594-2.312-.593-.828-1.718-.828-1.063 0-1.672.812-.61.813-.625 2.25v.64q0 1.454.609 2.298.61.843 1.703.843 1.094 0 1.688-.781.593-.797.609-2.281v-.64zm6.36 3.922q-.626.75-1.86.75-1.016 0-1.547-.594-.531-.594-.531-1.75v-4.125h1.078v4.094q0 1.453 1.172 1.453 1.25 0 1.656-.937v-4.61h1.094V182h-1.031l-.032-.625zm7 .625q-.094-.188-.157-.672-.75.797-1.797.797-.937 0-1.547-.531-.593-.531-.593-1.36 0-.984.75-1.53.75-.548 2.125-.548h1.046v-.5q0-.562-.343-.89-.328-.344-1-.344-.578 0-.969.297-.39.281-.39.703h-1.094q0-.484.328-.922.343-.438.922-.688.578-.265 1.265-.265 1.11 0 1.719.547.625.547.656 1.5v2.922q0 .875.219 1.39V182h-1.14zm-1.798-.828q.516 0 .97-.266.452-.265.655-.687v-1.297h-.843q-2 0-2 1.172 0 .5.343.797.344.28.875.28zm4.625-2.39q0-1.47.688-2.345.688-.89 1.813-.89 1.109 0 1.765.75V173h1.078v9h-1l-.047-.688q-.656.813-1.812.813-1.094 0-1.797-.906-.688-.906-.688-2.36v-.078zm1.079.124q0 1.078.437 1.688.453.61 1.235.61 1.03 0 1.515-.938v-2.907q-.484-.89-1.5-.89-.797 0-1.25.61-.437.608-.437 1.827zm9.25-2.281q-.25-.031-.532-.031-1.078 0-1.453.906v4.5h-1.078v-6.344h1.047l.016.735q.53-.844 1.515-.844.313 0 .485.078v1zm.64 2.14q0-.921.36-1.671.375-.75 1.03-1.14.657-.407 1.485-.407 1.297 0 2.094.89.813.891.813 2.391v.078q0 .922-.36 1.656-.36.735-1.015 1.157-.657.406-1.516.406-1.281 0-2.094-.89-.797-.907-.797-2.391v-.078zm1.094.141q0 1.047.484 1.688.5.64 1.313.64.828 0 1.312-.64.485-.656.485-1.828 0-1.032-.5-1.672-.485-.656-1.313-.656-.797 0-1.297.64-.484.625-.484 1.828zm10.813-5.437l2.796 6.953 2.782-6.953h1.468V182h-1.125v-3.328l.11-3.578-2.813 6.906h-.86l-2.796-6.89.11 3.562V182h-1.126v-8.531h1.453zm11.828 8.531h-1.079v-7.219l-2.187.797v-.984l3.11-1.172h.156V182zm9.03 0h-5.593v-.781l2.953-3.281q.657-.75.907-1.204.25-.468.25-.968 0-.672-.407-1.094-.39-.438-1.078-.438-.797 0-1.25.47-.453.452-.453 1.28h-1.078q0-1.187.75-1.906.765-.734 2.031-.734 1.203 0 1.89.625.688.625.688 1.672 0 1.25-1.61 3l-2.28 2.468h4.28V182zm6.766-3.64q0 1.906-.656 2.843-.64.922-2.031.922-1.36 0-2.016-.906-.656-.906-.687-2.719v-1.438q0-1.89.64-2.796.657-.922 2.047-.922 1.375 0 2.032.89.656.875.671 2.72v1.405zm-1.093-1.485q0-1.375-.39-2-.376-.64-1.22-.64-.828 0-1.218.64-.375.625-.375 1.922v1.734q0 1.375.39 2.047.407.656 1.219.656.797 0 1.188-.625.39-.625.406-1.953v-1.781zm8.093 1.484q0 1.907-.656 2.844-.64.922-2.031.922-1.36 0-2.016-.906-.656-.906-.687-2.719v-1.438q0-1.89.64-2.796.657-.922 2.047-.922 1.375 0 2.032.89.656.875.671 2.72v1.405zm-1.093-1.484q0-1.375-.39-2-.376-.64-1.22-.64-.828 0-1.218.64-.375.625-.375 1.922v1.734q0 1.375.39 2.047.407.656 1.219.656.797 0 1.188-.625.39-.625.406-1.953v-1.781zm15.218 2.188q-.078 1.406-.718 2.234-.625.828-1.688.828-1.093 0-1.406-1-.313.5-.719.75-.406.25-.843.25-.829 0-1.266-.688-.422-.687-.313-1.875.094-.968.438-1.718.36-.766.922-1.203.562-.438 1.172-.438.484 0 .859.125t.844.5l-.313 3.25q-.11 1.344.75 1.344.672 0 1.078-.656.407-.657.438-1.703.125-2.282-.844-3.47-.953-1.202-2.906-1.202-1.188 0-2.11.578-.906.578-1.437 1.687-.516 1.094-.578 2.547-.078 1.453.344 2.531.421 1.063 1.28 1.625.876.563 2.095.563.53 0 1.062-.125.531-.125.875-.344l.219.688q-.36.218-.969.359-.594.156-1.203.156-1.469 0-2.531-.656-1.047-.656-1.578-1.906-.516-1.235-.454-2.89.079-1.61.72-2.892.655-1.296 1.765-2 1.125-.703 2.515-.703 1.47 0 2.5.657 1.047.656 1.547 1.906.516 1.234.453 2.89zm-6.015.5q-.078.828.156 1.28.235.438.75.438.36 0 .672-.297.328-.297.547-.859v-.047l.265-2.953q-.328-.172-.703-.172-.672 0-1.125.703-.453.688-.562 1.906zm14.094 2.437h-1.079v-7.219l-2.187.797v-.984l3.11-1.172h.156V182zm3.578-.563q0-.28.156-.468.172-.188.5-.188.344 0 .516.188.171.187.171.469 0 .265-.171.453-.172.172-.516.172-.328 0-.5-.172-.156-.188-.156-.453zm6.422.563h-1.079v-7.219l-2.187.797v-.984l3.11-1.172h.156V182zm3.937-4.281l.438-4.25h4.375v1h-3.454l-.265 2.328q.64-.375 1.437-.375 1.157 0 1.844.781.688.766.688 2.078 0 1.313-.72 2.078-.702.766-1.984.766-1.125 0-1.843-.625-.719-.64-.813-1.75h1.016q.11.734.531 1.11.422.374 1.11.374.75 0 1.187-.515.438-.516.438-1.422 0-.86-.47-1.375-.468-.516-1.25-.516-.702 0-1.109.297l-.28.234-.876-.218zm16.094 3.156q-.438.625-1.219.938-.781.312-1.812.312-1.032 0-1.844-.484-.813-.5-1.25-1.407-.438-.906-.453-2.093v-.735q0-1.937.89-3 .907-1.062 2.532-1.062 1.343 0 2.156.687.812.688 1 1.938h-1.125q-.328-1.688-2.016-1.688-1.14 0-1.718.797-.579.781-.594 2.297v.688q0 1.437.656 2.296.656.844 1.781.844.625 0 1.094-.14.484-.141.797-.485v-1.906h-1.969v-.922h3.094v3.125zm8.25 1.125h-1.125v-3.938h-4.313V182h-1.125v-8.531h1.125v3.672h4.313v-3.672h1.125V182zm3.297-.89h3.703v.89h-5.031v-.797l3.5-4.64h-3.454v-.907h4.813v.766l-3.531 4.687zm7.937-2.579q0-1.312.344-2.531.36-1.219 1.063-2.219.703-1 1.468-1.406l.219.719q-.86.656-1.406 2-.547 1.344-.594 3.015l-.016.5q0 2.266.828 3.922.5 1 1.188 1.563l-.219.656q-.781-.422-1.5-1.453-1.375-1.984-1.375-4.766zm10.485.766q-.157 1.344-1 2.094-.844.734-2.235.734-1.515 0-2.422-1.078-.906-1.094-.906-2.922v-.813q0-1.187.422-2.093.422-.906 1.203-1.39.781-.485 1.797-.485 1.36 0 2.172.765.828.766.969 2.094h-1.125q-.157-1.016-.641-1.469-.484-.453-1.375-.453-1.078 0-1.688.797-.609.797-.609 2.266v.828q0 1.39.578 2.219.578.812 1.625.812.938 0 1.438-.422.5-.437.672-1.484h1.125zm7.734-5.828v5.797q-.016 1.203-.766 1.984-.75.766-2.03.86l-.313.015q-1.391 0-2.235-.75-.828-.766-.828-2.094v-5.812h1.11v5.781q0 .922.5 1.438.515.515 1.453.515.968 0 1.468-.516.5-.515.5-1.437v-5.781h1.141zm1.984 8.531v-8.531h2.422q1.11 0 1.953.5.86.484 1.328 1.39.47.907.47 2.094v.531q0 1.22-.47 2.125-.453.907-1.328 1.391-.859.484-2 .5h-2.375zm1.125-7.61v6.688h1.188q1.297 0 2.015-.797.735-.812.735-2.312v-.5q0-1.453-.688-2.25-.672-.813-1.937-.828h-1.313zm11.594 5.376h-3.578l-.797 2.234h-1.156l3.25-8.531h.984l3.266 8.531h-1.156l-.813-2.234zm-3.234-.922h2.906l-1.453-3.985-1.453 3.985zm9.562 3.89h-.922l3.563-9.265h.922l-3.563 9.265zm9.25-5.53h.813q.781-.017 1.218-.407.438-.39.438-1.063 0-1.5-1.5-1.5-.703 0-1.125.407-.406.406-.406 1.062h-1.094q0-1.016.734-1.687.75-.672 1.891-.672 1.203 0 1.89.64.688.641.688 1.782 0 .562-.36 1.078-.359.515-.984.781.703.219 1.078.734.391.516.391 1.266 0 1.14-.75 1.828-.75.672-1.953.672-1.188 0-1.953-.656-.75-.656-.75-1.719h1.094q0 .672.437 1.078.438.406 1.188.406.78 0 1.187-.406.422-.422.422-1.187 0-.735-.453-1.125-.453-.407-1.328-.422h-.813v-.89zm11.016 4.796h-5.594v-.781l2.953-3.281q.657-.75.907-1.204.25-.468.25-.968 0-.672-.407-1.094-.39-.438-1.078-.438-.797 0-1.25.47-.453.452-.453 1.28h-1.078q0-1.187.75-1.906.765-.734 2.031-.734 1.203 0 1.89.625.688.625.688 1.672 0 1.25-1.61 3l-2.28 2.468h4.28V182zm3.781-3.188h-2.86v-.875h2.86v.875zm6.11.094q0 1.453-.672 2.344-.657.875-1.782.875-1.203 0-1.859-.86l-.063.735h-.984v-9h1.078v3.36q.657-.813 1.813-.813t1.812.875q.657.86.657 2.39v.094zm-1.079-.125q0-1.11-.437-1.703-.422-.61-1.219-.61-1.078 0-1.547.985v2.75q.5 1 1.547 1 .781 0 1.219-.61.437-.609.437-1.812zM1427.8 182h-1.078v-6.344h1.078V182zm-1.172-8.016q0-.265.156-.453.172-.187.485-.187.312 0 .468.187.172.188.172.453 0 .25-.172.438-.156.172-.468.172-.313 0-.485-.172-.156-.188-.156-.438zm4.469.141v1.531h1.172v.844h-1.172v3.922q0 .39.156.578.156.188.531.188.188 0 .516-.063V182q-.422.125-.828.125-.719 0-1.094-.438-.375-.453-.375-1.265V176.5h-1.156v-.844h1.156v-1.531h1.094zm5.734 8.61h-.922l3.563-9.266h.922l-3.563 9.265zm14.235-3.438q-.157 1.344-1 2.094-.844.734-2.235.734-1.515 0-2.422-1.078-.906-1.094-.906-2.922v-.813q0-1.187.422-2.093.422-.906 1.203-1.39.781-.485 1.797-.485 1.36 0 2.172.765.828.766.969 2.094h-1.125q-.157-1.016-.641-1.469-.484-.453-1.375-.453-1.078 0-1.688.797-.609.797-.609 2.266v.828q0 1.39.578 2.219.578.812 1.625.812.938 0 1.438-.422.5-.437.672-1.484h1.125zm7.734-5.828v5.797q-.016 1.203-.766 1.984-.75.766-2.03.86l-.313.015q-1.391 0-2.235-.75-.828-.766-.828-2.094v-5.812h1.11v5.781q0 .922.5 1.438.515.515 1.453.515.968 0 1.468-.516.5-.515.5-1.437v-5.781h1.141zm1.984 8.531v-8.531h2.797q1.39 0 2.078.578.703.562.703 1.687 0 .61-.343 1.078-.328.454-.922.704.703.187 1.094.734.406.531.406 1.281 0 1.156-.75 1.813-.735.656-2.094.656h-2.969zm1.125-3.984v3.062h1.86q.797 0 1.25-.406.453-.406.453-1.125 0-1.531-1.688-1.531h-1.875zm0-.907h1.703q.735 0 1.172-.359.453-.375.453-1.016 0-.703-.406-1.015-.406-.328-1.25-.328h-1.672v2.718zm12.016 1.438h-2.016V182h-1.125v-8.531h2.828q1.438 0 2.204.656.78.656.78 1.906 0 .797-.437 1.39-.422.595-1.187.892l2 3.609V182h-1.203l-1.844-3.453zm-2.016-.922h1.735q.843 0 1.328-.422.5-.437.5-1.172 0-.781-.469-1.203-.469-.422-1.36-.437h-1.734v3.234zm9.625 4.375q-.093-.188-.156-.672-.75.797-1.797.797-.937 0-1.547-.531-.593-.531-.593-1.36 0-.984.75-1.53.75-.548 2.125-.548h1.046v-.5q0-.562-.343-.89-.328-.344-1-.344-.578 0-.969.297-.39.281-.39.703h-1.094q0-.484.328-.922.343-.438.922-.688.578-.265 1.265-.265 1.11 0 1.719.547.625.547.656 1.5v2.922q0 .875.219 1.39V182h-1.14zm-1.797-.828q.516 0 .97-.266.452-.265.655-.687v-1.297h-.843q-2 0-2 1.172 0 .5.343.797.344.28.875.28zm4.625-2.39q0-1.47.688-2.345.688-.89 1.813-.89 1.109 0 1.765.75V173h1.078v9h-1l-.047-.688q-.656.813-1.812.813-1.094 0-1.797-.906-.688-.906-.688-2.36v-.078zm1.079.124q0 1.078.437 1.688.453.61 1.235.61 1.03 0 1.515-.938v-2.907q-.484-.89-1.5-.89-.797 0-1.25.61-.437.608-.437 1.827zM1492.8 182h-1.078v-6.344h1.078V182zm-1.172-8.016q0-.265.156-.453.172-.187.485-.187.312 0 .468.187.172.188.172.453 0 .25-.172.438-.156.172-.468.172-.313 0-.485-.172-.156-.188-.156-.438zm5.125 3.985l1.406-2.313h1.266l-2.078 3.14 2.14 3.204h-1.25l-1.468-2.375L1495.3 182h-1.266l2.141-3.203-2.063-3.14h1.25l1.391 2.312zm9.547.234q-1.438-.422-2.11-1.031-.656-.61-.656-1.5 0-1 .797-1.656.813-.672 2.11-.672.875 0 1.562.344.688.343 1.063.937.39.594.39 1.313h-1.14q0-.782-.5-1.22-.485-.437-1.375-.437-.829 0-1.297.375-.469.36-.469 1 0 .531.438.89.453.36 1.515.657 1.063.297 1.656.656.61.36.891.844.297.484.297 1.125 0 1.047-.813 1.672-.812.625-2.156.625-.89 0-1.656-.344-.75-.344-1.172-.922-.406-.593-.406-1.328h1.125q0 .766.578 1.219.578.453 1.531.453.89 0 1.36-.36.468-.374.468-1 0-.624-.437-.968-.438-.344-1.594-.672zm4.031.563q0-.922.36-1.672.375-.75 1.03-1.14.657-.407 1.485-.407 1.297 0 2.094.89.813.891.813 2.391v.078q0 .922-.36 1.656-.36.735-1.015 1.157-.657.406-1.516.406-1.281 0-2.094-.89-.797-.907-.797-2.391v-.078zm1.094.14q0 1.047.484 1.688.5.64 1.313.64.828 0 1.312-.64.485-.656.485-1.828 0-1.032-.5-1.672-.485-.656-1.313-.656-.797 0-1.297.64-.484.625-.484 1.828zm9.266-2.281q-.25-.031-.532-.031-1.078 0-1.453.906v4.5h-1.078v-6.344h1.047l.016.735q.53-.844 1.515-.844.313 0 .485.078v1zm2.406-2.5v1.531h1.172v.844h-1.172v3.922q0 .39.156.578.156.188.531.188.188 0 .516-.063V182q-.422.125-.828.125-.719 0-1.094-.438-.375-.453-.375-1.265V176.5h-1.156v-.844h1.156v-1.531h1.094zm5.031 4.469q0 1.312-.344 2.515-.343 1.188-1.062 2.203-.703 1.016-1.469 1.438l-.234-.656q.906-.688 1.453-2.14.547-1.47.562-3.235v-.188q0-1.234-.265-2.297-.25-1.062-.719-1.89-.453-.844-1.031-1.313l.234-.656q.766.422 1.469 1.422.703 1 1.047 2.219.36 1.203.36 2.578z"/>
  <path fill="#000" d="M53.84 65.2h-3.39V53.372H37.544V65.2h-3.375V39.606h3.375v11H50.45v-11h3.39V65.2zm4.954-9.688q0-2.796 1.094-5.03 1.109-2.235 3.062-3.438 1.969-1.219 4.484-1.219 3.875 0 6.282 2.687 2.406 2.688 2.406 7.157v.234q0 2.781-1.078 4.984-1.063 2.204-3.047 3.438-1.969 1.234-4.531 1.234-3.86 0-6.266-2.687-2.406-2.703-2.406-7.125v-.235zm3.281.391q0 3.156 1.469 5.078 1.469 1.922 3.922 1.922 2.484 0 3.937-1.937 1.453-1.954 1.453-5.454 0-3.125-1.484-5.062-1.484-1.953-3.938-1.953-2.406 0-3.89 1.922-1.469 1.906-1.469 5.484zm23-14.328v4.61h3.547V48.7h-3.547v11.781q0 1.156.469 1.735.484.562 1.625.562.562 0 1.547-.219V65.2q-1.282.36-2.5.36-2.172 0-3.282-1.313-1.109-1.328-1.109-3.766V48.7h-3.469v-2.516h3.469v-4.609h3.25zm15.64 12.219q-4.343-1.25-6.328-3.063-1.968-1.828-1.968-4.5 0-3.015 2.406-5 2.422-1.984 6.297-1.984 2.625 0 4.687 1.031 2.079 1.016 3.204 2.813 1.14 1.78 1.14 3.921h-3.39q0-2.328-1.485-3.656-1.469-1.328-4.156-1.328-2.5 0-3.906 1.11-1.391 1.093-1.391 3.046 0 1.563 1.328 2.641t4.516 1.984q3.187.891 4.984 1.97 1.813 1.077 2.672 2.53.875 1.438.875 3.391 0 3.11-2.422 4.984-2.422 1.875-6.484 1.875-2.64 0-4.922-1.015-2.281-1.016-3.531-2.766-1.235-1.766-1.235-4h3.39q0 2.328 1.72 3.672 1.718 1.344 4.578 1.344 2.672 0 4.094-1.094 1.421-1.094 1.421-2.969 0-1.875-1.328-2.906-1.312-1.031-4.765-2.031zm12.079 1.718q0-2.796 1.094-5.03 1.109-2.235 3.062-3.438 1.969-1.219 4.484-1.219 3.875 0 6.282 2.687 2.406 2.688 2.406 7.157v.234q0 2.781-1.078 4.984-1.063 2.204-3.047 3.438-1.969 1.234-4.531 1.234-3.86 0-6.266-2.687-2.406-2.703-2.406-7.125v-.235zm3.281.391q0 3.156 1.469 5.078 1.469 1.922 3.922 1.922 2.484 0 3.937-1.937 1.453-1.954 1.453-5.454 0-3.125-1.484-5.062-1.484-1.953-3.938-1.953-2.406 0-3.89 1.922-1.469 1.906-1.469 5.484zm27.781-6.812q-.734-.11-1.594-.11-3.203 0-4.343 2.719v13.5h-3.25V46.184h3.156l.047 2.188q1.61-2.547 4.547-2.547.937 0 1.437.25v3.016zm7.219-7.516v4.61h3.547V48.7h-3.547v11.781q0 1.156.469 1.735.484.562 1.625.562.562 0 1.547-.219V65.2q-1.282.36-2.5.36-2.172 0-3.282-1.313-1.109-1.328-1.109-3.766V48.7h-3.469v-2.516h3.469v-4.609h3.25zm34.781.812h-8.234V65.2h-3.344V42.387h-8.219v-2.78h19.797v2.78zm6.063 6.094q2.156-2.656 5.625-2.656 6.031 0 6.078 6.812V65.2h-3.25V52.606q-.016-2.047-.938-3.031-.922-.984-2.875-.984-1.593 0-2.797.843-1.187.844-1.843 2.22V65.2h-3.25v-27h3.25v10.281zm25.937.61q-.734-.11-1.594-.11-3.203 0-4.343 2.719v13.5h-3.25V46.184h3.156l.047 2.188q1.61-2.547 4.547-2.547.937 0 1.437.25v3.016zm1.938 6.421q0-2.796 1.093-5.03 1.11-2.235 3.063-3.438 1.969-1.219 4.484-1.219 3.875 0 6.282 2.687 2.406 2.688 2.406 7.157v.234q0 2.781-1.078 4.984-1.063 2.204-3.047 3.438-1.969 1.234-4.531 1.234-3.86 0-6.266-2.687-2.406-2.703-2.406-7.125v-.235zm3.281.391q0 3.156 1.469 5.078 1.468 1.922 3.922 1.922 2.484 0 3.937-1.937 1.453-1.954 1.453-5.454 0-3.125-1.484-5.062-1.485-1.953-3.938-1.953-2.406 0-3.89 1.922-1.469 1.906-1.469 5.484zm30.328 7.422q-1.89 2.234-5.578 2.234-3.031 0-4.625-1.765-1.594-1.782-1.61-5.235V46.184h3.25v12.282q0 4.328 3.516 4.328 3.735 0 4.953-2.782V46.184h3.266V65.2h-3.094l-.078-1.875zm7.484-7.797q0-4.437 2.047-7.062 2.063-2.641 5.453-2.641 3.485 0 5.438 2.469l.156-2.11h2.969v18.563q0 3.687-2.188 5.812-2.187 2.125-5.875 2.125-2.062 0-4.03-.875-1.97-.875-3-2.406l1.687-1.953q2.094 2.578 5.11 2.578 2.374 0 3.702-1.344 1.328-1.328 1.328-3.75v-1.64q-1.953 2.265-5.328 2.265-3.344 0-5.406-2.687-2.063-2.703-2.063-7.344zm3.266.375q0 3.219 1.313 5.063 1.328 1.828 3.703 1.828 3.078 0 4.515-2.797v-8.688q-1.5-2.718-4.484-2.718-2.375 0-3.719 1.843-1.328 1.844-1.328 5.47zm20.766-7.422q2.156-2.656 5.625-2.656 6.031 0 6.078 6.812V65.2h-3.25V52.606q-.016-2.047-.938-3.031-.922-.984-2.875-.984-1.593 0-2.797.843-1.187.844-1.843 2.22V65.2h-3.25v-27h3.25v10.281zm32.812 7.422q0 4.344-1.984 7-1.985 2.656-5.39 2.656-3.454 0-5.438-2.203v9.157h-3.25V46.184h2.969l.156 2.11q1.984-2.469 5.515-2.469 3.422 0 5.422 2.594 2 2.578 2 7.187v.297zm-3.25-.375q0-3.219-1.375-5.078-1.375-1.86-3.765-1.86-2.954 0-4.422 2.61v9.094q1.453 2.61 4.453 2.61 2.344 0 3.719-1.86 1.39-1.86 1.39-5.516zm18.922 7.797q-1.89 2.234-5.578 2.234-3.031 0-4.625-1.765-1.594-1.782-1.61-5.235V46.184h3.25v12.282q0 4.328 3.516 4.328 3.735 0 4.953-2.782V46.184h3.266V65.2h-3.094l-.078-1.875zm12.672-21.75v4.61h3.547V48.7h-3.547v11.781q0 1.156.469 1.735.484.562 1.625.562.562 0 1.547-.219V65.2q-1.282.36-2.5.36-2.172 0-3.282-1.313-1.109-1.328-1.109-3.766V48.7h-3.469v-2.516h3.469v-4.609h3.25zm23.36 14.078h-8.579v-2.656h8.578v2.656zM401.84 65.2h-3.391l-12.89-19.719V65.2h-3.391V39.606h3.39l12.922 19.813V39.606h3.36V65.2zm14.796-4.484l7.313-21.11h3.703l-9.5 25.594h-2.984L405.7 39.606h3.672l7.265 21.11zm18.157 4.484h-3.375V39.606h3.375V65.2zm6.375 0V39.606h7.234q3.328 0 5.89 1.485 2.579 1.468 3.97 4.203 1.406 2.718 1.421 6.25v1.625q0 3.625-1.406 6.36-1.39 2.718-3.984 4.187-2.594 1.453-6.031 1.484h-7.094zm3.375-22.813v20.047h3.547q3.906 0 6.078-2.422 2.172-2.421 2.172-6.906v-1.5q0-4.36-2.047-6.765-2.047-2.422-5.813-2.454h-3.937zm24.25 22.813h-3.375V39.606h3.375V65.2zm20.515-6.688h-10.734l-2.406 6.688H472.7l9.766-25.594h2.953l9.797 25.594h-3.47l-2.437-6.688zm-9.703-2.765h8.703l-4.359-11.969-4.344 11.969zm33.828-.094h-8.578v-2.656h8.578v2.656zm16.625-4.828h2.438q2.312-.047 3.625-1.219 1.312-1.172 1.312-3.187 0-4.5-4.484-4.5-2.11 0-3.36 1.218-1.25 1.204-1.25 3.188h-3.265q0-3.047 2.219-5.063 2.234-2.015 5.656-2.015 3.625 0 5.672 1.922 2.062 1.922 2.062 5.328 0 1.672-1.078 3.234-1.078 1.563-2.937 2.344 2.11.656 3.25 2.203 1.156 1.547 1.156 3.781 0 3.453-2.25 5.485-2.25 2.015-5.86 2.015-3.593 0-5.859-1.953-2.25-1.953-2.25-5.156h3.266q0 2.016 1.312 3.234 1.329 1.22 3.547 1.22 2.344 0 3.594-1.235t1.25-3.532q0-2.234-1.375-3.421-1.36-1.204-3.953-1.235h-2.438v-2.656zM562.091 65.2h-16.766v-2.344l8.86-9.844q1.968-2.234 2.718-3.625.75-1.39.75-2.89 0-2-1.219-3.281-1.203-1.297-3.234-1.297-2.422 0-3.766 1.39-1.343 1.375-1.343 3.844h-3.25q0-3.547 2.265-5.719 2.282-2.187 6.094-2.187 3.578 0 5.64 1.875 2.079 1.875 2.079 4.984 0 3.781-4.813 9l-6.86 7.438h12.845V65.2zm10.343-9.547h-8.578v-2.656h8.578v2.656zm19.329.25q0 4.36-2 7.016-2 2.64-5.375 2.64-3.61 0-5.579-2.562l-.156 2.203h-2.984v-27h3.25v10.078q1.969-2.453 5.422-2.453 3.468 0 5.437 2.625 1.985 2.61 1.985 7.172v.281zm-3.25-.375q0-3.312-1.282-5.125-1.281-1.812-3.687-1.812-3.219 0-4.625 2.984v8.234q1.484 2.985 4.656 2.985 2.328 0 3.625-1.813 1.313-1.812 1.313-5.453zM599.2 65.2h-3.25V46.184h3.25V65.2zm-3.516-24.063q0-.796.485-1.343.484-.547 1.422-.547.953 0 1.437.547.5.547.5 1.343 0 .782-.5 1.313-.484.531-1.437.531-.938 0-1.422-.531-.485-.531-.485-1.313zm13.391.438v4.61h3.547V48.7h-3.547v11.781q0 1.156.469 1.735.484.562 1.625.562.562 0 1.547-.219V65.2q-1.282.36-2.5.36-2.172 0-3.282-1.313-1.109-1.328-1.109-3.766V48.7h-3.469v-2.516h3.469v-4.609h3.25zm23.594 11.719l-3.125 3.25V65.2h-3.375V39.606h3.375v12.656l11.375-12.656h4.078l-10.078 11.297L645.794 65.2h-4.047l-9.078-11.906zm23.89 12.265q-3.875 0-6.296-2.547-2.422-2.546-2.422-6.796v-.594q0-2.828 1.078-5.047 1.078-2.234 3.015-3.484 1.954-1.266 4.22-1.266 3.702 0 5.75 2.453 2.062 2.438 2.062 6.984v1.36H651.09q.062 2.812 1.64 4.547 1.578 1.734 4 1.734 1.719 0 2.907-.703 1.203-.703 2.109-1.875l1.984 1.547q-2.39 3.687-7.172 3.687zm-.406-17.062q-1.969 0-3.312 1.437-1.328 1.438-1.641 4.016h9.516v-.25q-.141-2.469-1.344-3.828-1.188-1.375-3.219-1.375zm17.735 11.937l4.421-14.25h3.485l-7.64 21.954q-1.782 4.75-5.641 4.75l-.625-.063-1.204-.219v-2.64l.875.062q1.657 0 2.579-.672.921-.656 1.515-2.437l.719-1.938-6.781-18.797h3.547l4.75 14.25zm21.843-.28q0-1.313-1-2.048-.984-.734-3.453-1.25-2.469-.531-3.922-1.265-1.453-.75-2.14-1.766-.688-1.016-.688-2.422 0-2.344 1.969-3.953 1.984-1.625 5.062-1.625 3.235 0 5.235 1.672 2.015 1.672 2.015 4.265h-3.265q0-1.328-1.14-2.296-1.126-.97-2.845-.97-1.78 0-2.78.782-1 .766-1 2.016 0 1.172.921 1.781.938.594 3.375 1.14 2.438.547 3.938 1.297 1.515.75 2.234 1.829.734 1.062.734 2.578 0 2.562-2.047 4.11-2.03 1.53-5.28 1.53-2.282 0-4.048-.812-1.75-.813-2.75-2.266-.984-1.453-.984-3.14h3.25q.094 1.64 1.312 2.609 1.22.953 3.22.953 1.843 0 2.952-.75 1.125-.75 1.125-2z"/>
</svg>
