<svg fill="none" stroke-linecap="square" stroke-miterlimit="10" width="1560" height="624" xmlns="http://www.w3.org/2000/svg">
  <path fill="#fff" d="M0 0h1560v624H0V0z"/>
  <path fill="#fff" d="M0 0h1560v624H0V0z"/>
  <path stroke="#ccc" stroke-linecap="butt" d="M315.5 102.5v404M511.5 102.5v404M708.5 102.5v404M905.5 102.5v404M1102.5 102.5v404"/>
  <path stroke="#333" stroke-linecap="butt" d="M126.5 506.5h1024"/>
  <path stroke="#ccc" stroke-linecap="butt" d="M126.5 372.5h1024M126.5 237.5h1024M126.5 102.5h1024"/>
  <clipPath id="a">
    <path d="M126.2 102.5h1024.413v404.3H126.2V102.5z"/>
  </clipPath>
  <path stroke="#0f0" stroke-width="2" stroke-linecap="butt" clip-path="url(#a)" d="M126.2 496.558s5.377 2.695 8.066-1.078c2.689-3.774 5.378-20.665 8.066-21.563 2.69-.898 5.378 14.465 8.067 16.172 2.689 1.707 5.377-4.942 8.066-5.93 2.689-.988 5.377 2.965 8.066 0 2.689-2.965 5.378-17.789 8.066-17.789 2.69 0 5.378 15.902 8.067 17.79 2.688 1.886 5.377-5.302 8.066-6.47 2.689-1.168 5.377 2.696 8.066-.539 2.689-3.234 5.378-18.687 8.066-18.867 2.69-.18 5.378 16.531 8.067 17.79 2.688 1.257 5.377-8.177 8.066-10.243 2.689-2.066 5.377-.45 8.066-2.156 2.689-1.707 5.378-9.883 8.066-8.086 2.69 1.797 5.378 17.699 8.067 18.867 2.688 1.168 5.377-10.691 8.066-11.86 2.689-1.167 5.377 7.547 8.066 4.852 2.689-2.695 5.378-20.844 8.066-21.023 2.69-.18 5.378 19.047 8.067 19.945 2.688.898 5.377-11.77 8.066-14.555 2.689-2.785 5.377.988 8.066-2.156 2.689-3.145 5.378-17.25 8.066-16.711 2.69.539 5.378 18.418 8.067 19.945 2.688 1.528 5.377-8.894 8.066-10.781 2.689-1.887 5.377 2.965 8.066-.54 2.689-3.503 5.378-20.753 8.066-20.484 2.69.27 5.378 18.688 8.067 22.102 2.688 3.414 5.377-1.168 8.066-1.617 2.689-.45 5.377.988 8.066-1.078 2.689-2.067 5.378-12.489 8.066-11.32 2.69 1.167 5.378 18.058 8.067 18.328 2.688.27 5.377-14.016 8.066-16.711 2.689-2.696 5.377 3.414 8.066.539 2.689-2.875 5.378-18.778 8.066-17.79 2.69.989 5.378 21.563 8.067 23.72 2.688 2.156 5.377-8.895 8.066-10.782 2.689-1.887 5.377 1.527 8.066-.539 2.689-2.066 5.378-13.477 8.066-11.86 2.69 1.618 5.378 20.395 8.067 21.563 2.688 1.168 5.377-11.77 8.066-14.555 2.689-2.785 5.377.45 8.066-2.156 2.689-2.605 5.378-12.398 8.066-13.477 2.69-1.078 5.378 5.84 8.067 7.008 2.688 1.168 5.377.809 8.066 0 2.689-.808 5.377-2.336 8.066-4.851 2.689-2.516 5.378-12.22 8.066-10.243 2.69 1.977 5.378 19.946 8.067 22.102 2.688 2.156 5.377-7.637 8.066-9.164 2.689-1.527 5.377 3.774 8.066 0 2.689-3.773 5.378-22.55 8.066-22.64 2.69-.09 5.378 19.136 8.067 22.101 2.688 2.965 5.377-3.594 8.066-4.313 2.689-.718 5.377 3.325 8.066 0 2.689-3.324 5.378-20.125 8.066-19.945 2.69.18 5.378 18.149 8.067 21.024 2.688 2.875 5.377-3.055 8.066-3.774 2.689-.719 5.377 2.965 8.066-.539 2.689-3.504 5.378-21.024 8.066-20.484 2.69.539 5.378 21.023 8.067 23.718 2.688 2.696 5.377-5.75 8.066-7.546 2.689-1.797 5.377.09 8.066-3.235 2.689-3.324 5.378-17.43 8.066-16.71 2.689.718 5.378 21.921 8.067 21.023 2.688-.899 5.377-22.012 8.066-26.415 2.689-4.402 5.377 3.504 8.066 0 2.689-3.504 5.378-21.293 8.066-21.023 2.689.27 5.378 20.125 8.067 22.64 2.688 2.516 5.377-6.199 8.066-7.546 2.689-1.348 5.377 1.886 8.066-.54 2.689-2.425 5.378-16.082 8.066-14.015 2.689 2.066 5.378 24.438 8.067 26.414 2.688 1.977 5.377-12.488 8.066-14.555 2.688-2.066 5.377 6.38 8.066 2.157 2.689-4.223 5.378-27.672 8.066-27.493 2.689.18 5.378 24.977 8.067 28.57 2.688 3.595 5.377-6.288 8.066-7.007 2.688-.719 5.377 5.121 8.066 2.695 2.689-2.426 5.377-18.777 8.066-17.25 2.689 1.527 5.378 24.258 8.067 26.414 2.688 2.157 5.377-11.14 8.066-13.476 2.688-2.336 5.377 5.12 8.066-.54 2.689-5.66 5.377-32.343 8.066-33.422 2.689-1.078 5.378 23 8.067 26.954 2.688 3.953 5.377-2.606 8.066-3.235 2.688-.629 5.377 3.864 8.066-.539 2.689-4.402 5.377-25.965 8.066-25.875 2.689.09 5.378 22.91 8.066 26.414 2.69 3.504 5.378-4.672 8.067-5.39 2.688-.719 5.377 5.84 8.066 1.078 2.689-4.762 5.377-29.739 8.066-29.649 2.689.09 5.378 25.965 8.066 30.188 2.69 4.223 5.378-3.953 8.067-4.852 2.688-.898 5.377.899 8.066-.539 2.689-1.437 5.377-9.883 8.066-8.086 2.689 1.797 5.378 17.97 8.066 18.868 2.69.898 5.378-11.5 8.067-13.477 2.688-1.977 5.377 5.84 8.066 1.617 2.689-4.223 5.377-26.774 8.066-26.953 2.689-.18 5.378 22.73 8.066 25.875 2.69 3.145 5.378-5.57 8.067-7.008 2.688-1.437 5.377 3.774 8.066-1.617 2.689-5.39 5.377-30.008 8.066-30.727 2.689-.719 5.378 23 8.066 26.414 2.69 3.415 5.378-4.941 8.067-5.93 2.688-.988 5.377 4.852 8.066 0 2.689-4.85 5.377-29.289 8.066-29.109 2.689.18 5.378 25.606 8.066 30.188 2.69 4.582 5.378-2.067 8.067-2.696 2.688-.628 5.377 3.325 8.066-1.078 2.689-4.402 5.377-25.785 8.066-25.336 2.689.45 5.378 24.528 8.066 28.032 2.69 3.504 5.378-5.84 8.067-7.008 2.688-1.168 5.377 4.043 8.066 0 2.689-4.043 5.377-24.258 8.066-24.258 2.689 0 5.378 21.113 8.066 24.258 2.69 3.144 5.378-4.672 8.067-5.39 2.688-.72 5.377 6.917 8.066 1.077 2.689-5.84 5.377-36.387 8.066-36.117 2.689.27 5.378 33.063 8.066 37.734 2.69 4.672 5.378-7.816 8.067-9.703 2.688-1.886 5.377 5.84 8.066-1.617 2.689-7.457 5.377-42.227 8.066-43.125 2.689-.899 5.378 31.894 8.066 37.734 2.69 5.84 5.378-1.886 8.067-2.695 2.688-.809 5.377 1.348 8.066-2.156 2.689-3.504 5.377-20.754 8.066-18.868 2.689 1.887 8.066 30.188 8.066 30.188"/>
  <path stroke="red" stroke-width="2" stroke-linecap="butt" clip-path="url(#a)" d="M126.2 497.636s5.377.18 8.066-1.078c2.689-1.258 5.378-5.57 8.066-6.47 2.69-.898 5.378 1.528 8.067 1.079 2.689-.45 5.377-3.144 8.066-3.773 2.689-.63 5.377.27 8.066 0 2.689-.27 5.378-1.528 8.066-1.618 2.69-.09 5.378 1.528 8.067 1.079 2.688-.45 5.377-3.145 8.066-3.774 2.689-.629 5.377.27 8.066 0 2.689-.27 5.378-1.527 8.066-1.617 2.69-.09 5.378 1.258 8.067 1.078 2.688-.18 5.377-1.797 8.066-2.156 2.689-.36 5.377 0 8.066 0 2.689 0 5.378-.09 8.066 0 2.69.09 5.378 1.527 8.067.539 2.688-.988 5.377-5.57 8.066-6.469 2.689-.898 5.377 1.078 8.066 1.078 2.689 0 5.378-1.078 8.066-1.078 2.69 0 5.378 1.707 8.067 1.078 2.688-.629 5.377-3.683 8.066-4.851 2.689-1.168 5.377-.72 8.066-2.157 2.689-1.437 5.378-5.57 8.066-6.469 2.69-.898 5.378 1.528 8.067 1.079 2.688-.45 5.377-3.145 8.066-3.774 2.689-.629 5.377.27 8.066 0 2.689-.27 5.378-1.527 8.066-1.617 2.69-.09 5.378 1.078 8.067 1.078 2.688 0 5.377-.988 8.066-1.078 2.689-.09 5.377.539 8.066.539 2.689 0 5.378-.54 8.066-.54 2.69 0 5.378 2.067 8.067.54 2.688-1.527 5.377-8.176 8.066-9.703 2.689-1.528 5.377.449 8.066.539 2.689.09 5.378-.18 8.066 0 2.69.18 5.378 1.258 8.067 1.078 2.688-.18 5.377-1.707 8.066-2.156 2.689-.45 5.377-.54 8.066-.54 2.689 0 5.378.36 8.066.54 2.69.18 5.378 2.066 8.067.539 2.688-1.528 5.377-7.727 8.066-9.703 2.689-1.977 5.377-.72 8.066-2.157 2.689-1.437 5.378-5.57 8.066-6.468 2.69-.899 5.378 1.168 8.067 1.078 2.688-.09 5.377-1.438 8.066-1.618 2.689-.18 5.377.45 8.066.54 2.689.09 5.378-.09 8.066 0 2.69.09 5.378 1.617 8.067.539 2.688-1.079 5.377-5.84 8.066-7.008 2.689-1.168 5.377.18 8.066 0 2.689-.18 5.378-.989 8.066-1.078 2.69-.09 5.378.539 8.067.539 2.688 0 5.377-.45 8.066-.54 2.689-.09 5.377.09 8.066 0 2.689-.09 5.378-.628 8.066-.538 2.69.09 5.378 1.078 8.067 1.078 2.688 0 5.377-.899 8.066-1.078 2.689-.18 5.377.18 8.066 0 2.689-.18 5.378-1.079 8.066-1.079 2.69 0 5.378 1.707 8.067 1.079 2.688-.63 5.377-3.594 8.066-4.852 2.689-1.258 5.377-1.258 8.066-2.695 2.689-1.438 5.378-5.122 8.066-5.93 2.689-.809 5.378 3.773 8.067 1.078 2.688-2.695 5.377-14.465 8.066-17.25 2.689-2.785 5.377.629 8.066.539 2.689-.09 5.378-1.168 8.066-1.078 2.689.09 5.378 1.527 8.067 1.617 2.688.09 5.377-.898 8.066-1.078 2.689-.18 5.377.09 8.066 0 2.689-.09 5.378-.719 8.066-.54 2.689.18 5.378 2.247 8.067 1.618 2.688-.629 5.377-4.582 8.066-5.39 2.688-.81 5.377.628 8.066.538 2.689-.09 5.378-1.078 8.066-1.078 2.689 0 5.378 1.078 8.067 1.078 2.688 0 5.377-.898 8.066-1.078 2.688-.18 5.377-.09 8.066 0 2.689.09 5.377.18 8.066.54 2.689.359 5.378 3.234 8.067 1.617 2.688-1.618 5.377-9.075 8.066-11.32 2.688-2.247 5.377-.63 8.066-2.157 2.689-1.528 5.377-6.11 8.066-7.008 2.689-.898 5.378 1.527 8.067 1.617 2.688.09 5.377-.808 8.066-1.078 2.688-.27 5.377-.27 8.066-.539 2.689-.27 5.377-1.078 8.066-1.078 2.689 0 5.378 1.258 8.066 1.078 2.69-.18 5.378-1.797 8.067-2.156 2.688-.36 5.377.27 8.066 0 2.689-.27 5.377-1.617 8.066-1.617 2.689 0 5.378 1.617 8.066 1.617 2.69 0 5.378-1.438 8.067-1.617 2.688-.18 5.377.539 8.066.539 2.689 0 5.377-.63 8.066-.54 2.689.09 5.378 3.325 8.066 1.079 2.69-2.246 5.378-12.22 8.067-14.555 2.688-2.336 5.377.629 8.066.539 2.689-.09 5.377-1.078 8.066-1.078 2.689 0 5.378 1.617 8.066 1.078 2.69-.54 5.378-3.145 8.067-4.313 2.688-1.168 5.377-1.078 8.066-2.695 2.689-1.617 5.377-6.02 8.066-7.008 2.689-.988 5.378 1.348 8.066 1.078 2.69-.27 5.378-2.246 8.067-2.695 2.688-.45 5.377.36 8.066 0 2.689-.36 5.377-1.977 8.066-2.156 2.689-.18 5.378.988 8.066 1.078 2.69.09 5.378-.27 8.067-.54 2.688-.269 5.377-.898 8.066-1.077 2.689-.18 5.377-.36 8.066 0 2.689.36 5.378 2.695 8.066 2.156 2.69-.54 5.378-4.672 8.067-5.39 2.688-.72 5.377 1.437 8.066 1.077 2.689-.359 5.377-2.964 8.066-3.234 2.689-.27 5.378 1.707 8.066 1.617 2.69-.09 5.378-2.066 8.067-2.156 2.688-.09 5.377 1.527 8.066 1.617 2.689.09 5.377-1.258 8.066-1.078 2.689.18 5.378 4.402 8.066 2.156 2.69-2.246 5.378-12.578 8.067-15.633 2.688-3.054 5.377-1.707 8.066-2.695 2.689-.988 5.377-2.875 8.066-3.234 2.689-.36 5.378.988 8.066 1.078 2.69.09 5.378-.18 8.067-.54 2.688-.359 5.377-1.527 8.066-1.617 2.689-.09 5.377.81 8.066 1.079 2.689.27 8.066.539 8.066.539"/>
  <path stroke="#00f" stroke-width="2" stroke-linecap="butt" clip-path="url(#a)" d="M126.2 474.456s5.377-19.766 8.066-37.735c2.689-17.969 5.378-57.5 8.066-70.078 2.69-12.579 5.378-6.29 8.067-5.391 2.689.898 5.377 8.086 8.066 10.781 2.689 2.696 5.377 5.391 8.066 5.391 2.689 0 5.378-5.39 8.066-5.39 2.69 0 5.378-2.696 8.067 5.39 2.688 8.086 5.377 36.836 8.066 43.125 2.689 6.29 5.377-2.695 8.066-5.39 2.689-2.696 5.378-8.985 8.066-10.782 2.69-1.797 5.378-.898 8.067 0 2.688.899 5.377 4.493 8.066 5.391 2.689.898 5.377.898 8.066 0 2.689-.898 5.378-4.492 8.066-5.39 2.69-.9 5.378.898 8.067 0 2.688-.9 5.377-4.493 8.066-5.391 2.689-.899 5.377.898 8.066 0 2.689-.899 5.378-6.29 8.066-5.391 2.69.898 5.378 11.68 8.067 10.781 2.688-.898 5.377-13.476 8.066-16.172 2.689-2.695 5.377.899 8.066 0 2.689-.898 5.378-5.39 8.066-5.39 2.69 0 5.378 12.578 8.067 5.39 2.688-7.187 5.377-37.734 8.066-48.516 2.689-10.781 5.377-16.172 8.066-16.172 2.689 0 5.378 14.375 8.066 16.172 2.69 1.797 5.378-4.492 8.067-5.39 2.688-.899 5.377-.899 8.066 0 2.689.898 5.377 7.187 8.066 5.39 2.689-1.797 5.378-10.781 8.066-16.172 2.69-5.39 5.378-23.36 8.067-16.172 2.688 7.188 5.377 49.415 8.066 59.298 2.689 9.883 5.377 0 8.066 0H416.585c2.689 0 5.377.898 8.066 0 2.689-.899 5.378-4.493 8.066-5.391 2.69-.898 5.378 1.797 8.067 0 2.688-1.797 5.377-8.984 8.066-10.781 2.689-1.797 5.377 0 8.066 0h8.066c2.69 0 5.378.898 8.067 0 2.688-.899 5.377-3.594 8.066-5.391 2.689-1.797 5.377-4.492 8.066-5.39 2.689-.9 5.378 0 8.066 0h8.067c2.688 0 5.377 1.796 8.066 0 2.689-1.798 5.377-8.985 8.066-10.782 2.689-1.797 5.378 0 8.066 0H545.645c2.689 0 5.377 1.797 8.066 0 2.689-1.797 5.378-9.883 8.066-10.781 2.69-.899 5.378 4.492 8.067 5.39 2.688.899 5.377 0 8.066 0h8.066c2.689 0 5.378.899 8.066 0 2.69-.898 5.378 8.086 8.067-5.39 2.688-13.477 5.377-62.891 8.066-75.47 2.689-12.578 5.377-.898 8.066 0 2.689.899 5.378 5.391 8.066 5.391 2.689 0 5.378-4.492 8.067-5.39 2.688-.9 5.377-1.798 8.066 0 2.689 1.796 5.377 10.78 8.066 10.78 2.689 0 5.378-9.882 8.066-10.78 2.689-.9 5.378 5.39 8.067 5.39 2.688 0 5.377-1.797 8.066-5.39 2.689-3.594 5.377-16.173 8.066-16.173 2.689 0 5.378 13.477 8.066 16.172 2.689 2.696 5.378 0 8.067 0 2.688 0 5.377 4.493 8.066 0 2.688-4.492 5.377-25.156 8.066-26.953 2.689-1.797 5.378 15.274 8.066 16.172 2.689.898 5.378-10.781 8.067-10.781 2.688 0 5.377 11.68 8.066 10.781 2.688-.898 5.377-17.969 8.066-16.172 2.689 1.797 5.377 25.156 8.066 26.953 2.689 1.797 5.378-10.781 8.067-16.172 2.688-5.39 5.377-14.375 8.066-16.172 2.688-1.797 5.377 3.594 8.066 5.391 2.689 1.797 5.377 4.492 8.066 5.39 2.689.9 5.378 2.696 8.067 0 2.688-2.695 5.377-16.171 8.066-16.171 2.688 0 5.377 15.273 8.066 16.172 2.689.898 5.377-8.086 8.066-10.782 2.689-2.695 5.378-4.492 8.066-5.39 2.69-.899 5.378-2.696 8.067 0 2.688 2.695 5.377 13.476 8.066 16.172 2.689 2.695 5.377.898 8.066 0 2.689-.899 5.378-4.493 8.066-5.391 2.69-.898 5.378 1.797 8.067 0 2.688-1.797 5.377-7.188 8.066-10.781 2.689-3.594 5.377-10.782 8.066-10.782 2.689 0 5.378 9.883 8.066 10.782 2.69.898 5.378-4.493 8.067-5.391 2.688-.898 5.377.898 8.066 0 2.689-.898 5.377-6.29 8.066-5.39 2.689.898 5.378 11.68 8.066 10.78 2.69-.898 5.378-13.476 8.067-16.171 2.688-2.696 5.377.898 8.066 0 2.689-.899 5.377-5.391 8.066-5.391 2.689 0 5.378 8.086 8.066 5.39 2.69-2.695 5.378-21.562 8.067-21.562 2.688 0 5.377 19.766 8.066 21.563 2.689 1.797 5.377-8.086 8.066-10.782 2.689-2.695 5.378-6.289 8.066-5.39 2.69.898 5.378 8.086 8.067 10.781 2.688 2.695 5.377 7.188 8.066 5.39 2.689-1.796 5.377-13.476 8.066-16.171 2.689-2.696 5.378 1.797 8.066 0 2.69-1.797 5.378-14.375 8.067-10.782 2.688 3.594 5.377 30.547 8.066 32.344 2.689 1.797 5.377-15.273 8.066-21.562 2.689-6.29 5.378-13.477 8.066-16.172 2.69-2.696 5.378-3.594 8.067 0 2.688 3.593 5.377 21.562 8.066 21.562 2.689 0 5.377-18.867 8.066-21.562 2.689-2.696 5.378 4.492 8.066 5.39 2.69.899 5.378 1.797 8.067 0 2.688-1.797 5.377-8.984 8.066-10.781 2.689-1.797 5.377 0 8.066 0h8.066c2.69 0 5.378.898 8.067 0 2.688-.898 5.377-1.797 8.066-5.39 2.689-3.594 5.377-14.376 8.066-16.173 2.689-1.797 8.066 5.391 8.066 5.391"/>
  <path stroke="#f0f" stroke-width="2" stroke-linecap="butt" clip-path="url(#a)" d="M126.2 492.784s5.377 10.332 8.066-1.078c2.689-11.41 5.378-56.961 8.066-67.383 2.69-10.422 5.378 4.492 8.067 4.851 2.689.36 5.377-2.785 8.066-2.695 2.689.09 5.377 2.156 8.066 3.234 2.689 1.079 5.378 3.055 8.066 3.235 2.69.18 5.378-1.438 8.067-2.156 2.688-.72 5.377-2.246 8.066-2.157 2.689.09 5.377 3.864 8.066 2.696 2.689-1.168 5.378-7.727 8.066-9.704 2.69-1.976 5.378-2.336 8.067-2.156 2.688.18 5.377 2.785 8.066 3.235 2.689.449 5.377 0 8.066-.54 2.689-.539 5.378-1.527 8.066-2.695 2.69-1.168 5.378-3.414 8.067-4.312 2.688-.899 5.377-.989 8.066-1.078 2.689-.09 5.377 0 8.066.539 2.689.539 5.378 2.336 8.066 2.695 2.69.36 5.378 1.707 8.067-.54 2.688-2.245 5.377-11.32 8.066-12.937 2.689-1.617 5.377 2.965 8.066 3.235 2.689.27 5.378-.989 8.066-1.618 2.69-.628 5.378-2.246 8.067-2.156 2.688.09 5.377 2.426 8.066 2.696 2.689.27 5.377-.63 8.066-1.079 2.689-.449 5.378-1.707 8.066-1.617 2.69.09 5.378 1.977 8.067 2.156 2.688.18 5.377-.628 8.066-1.078 2.689-.449 5.377 1.707 8.066-1.617 2.689-3.324 5.378-15.273 8.066-18.328 2.69-3.055 5.378.539 8.067 0 2.688-.54 5.377-3.235 8.066-3.235 2.689 0 5.377 2.965 8.066 3.235 2.689.27 5.378-1.168 8.066-1.617 2.69-.45 5.378-1.078 8.067-1.078 2.688 0 5.377.988 8.066 1.078 2.689.09 5.377-.27 8.066-.54 2.689-.269 5.378-1.078 8.066-1.078 2.69 0 5.378 2.875 8.067 1.079 2.688-1.797 5.377-9.793 8.066-11.86 2.689-2.066 5.377-.539 8.066-.539 2.689 0 5.378.45 8.066.54 2.69.089 5.378.269 8.067 0 2.688-.27 5.377.359 8.066-1.618 2.689-1.977 5.377-8.086 8.066-10.242 2.689-2.157 5.378-2.067 8.066-2.696 2.69-.629 5.378-1.078 8.067-1.078 2.688 0 5.377.988 8.066 1.078 2.689.09 5.377 1.168 8.066-.539 2.689-1.707 5.378-8.445 8.066-9.703 2.69-1.258 5.378 2.156 8.067 2.156 2.688 0 5.377-1.078 8.066-2.156 2.689-1.078 5.377-4.402 8.066-4.312 2.689.09 5.378 4.222 8.066 4.851 2.69.63 5.378-.539 8.067-1.078 2.688-.54 5.377-2.066 8.066-2.156 2.689-.09 5.377 1.258 8.066 1.617 2.689.36 5.378.988 8.066.539 2.69-.45 5.378-.36 8.067-3.234 2.688-2.875 5.377-11.59 8.066-14.016 2.689-2.426 5.377-.18 8.066-.54 2.689-.359 5.378-1.706 8.066-1.616 2.689.09 5.378 2.066 8.067 2.156 2.688.09 5.377-1.168 8.066-1.617 2.689-.45 5.377-.63 8.066-1.078a128.08 128.08 0 0 0 8.066-1.618c2.689-.629 5.378-2.246 8.067-2.156 2.688.09 5.377 2.516 8.066 2.695 2.689.18 5.377-.449 8.066-1.617 2.689-1.168 5.378-4.312 8.066-5.39 2.689-1.079 5.378-.54 8.067-1.079 2.688-.539 5.377-2.066 8.066-2.156 2.688-.09 5.377 1.527 8.066 1.617 2.689.09 5.378-.629 8.066-1.078 2.689-.449 5.378-.449 8.067-1.617 2.688-1.168 5.377-4.043 8.066-5.39 2.688-1.348 5.377-1.708 8.066-2.696 2.689-.988 5.377-1.707 8.066-3.234 2.689-1.528 5.378-2.336 8.067-5.93 2.688-3.594 5.377-13.477 8.066-15.633 2.688-2.156 5.377 2.516 8.066 2.695 2.689.18 5.377-1.258 8.066-1.617 2.689-.36 5.378.27 8.067-.539 2.688-.809 5.377-4.133 8.066-4.313 2.688-.18 5.377 3.504 8.066 3.235 2.689-.27 5.377-4.403 8.066-4.852 2.689-.449 5.378 2.246 8.066 2.157 2.69-.09 5.378-2.336 8.067-2.696 2.688-.36 5.377 1.707 8.066.54 2.689-1.169 5.377-5.212 8.066-7.548 2.689-2.336 5.378-5.031 8.066-6.468 2.69-1.438 5.378-1.707 8.067-2.157 2.688-.449 5.377-.36 8.066-.539 2.689-.18 5.377-.539 8.066-.539 2.689 0 5.378.629 8.066.54 2.69-.09 5.378-.81 8.067-1.079 2.688-.27 5.377.09 8.066-.539 2.689-.629 5.377-2.605 8.066-3.234 2.689-.63 5.378.718 8.066-.54 2.69-1.257 5.378-6.199 8.067-7.007 2.688-.809 5.377 2.425 8.066 2.156 2.689-.27 5.377-3.594 8.066-3.774 2.689-.18 5.378 2.786 8.066 2.696 2.69-.09 5.378-2.965 8.067-3.235 2.688-.27 5.377 2.606 8.066 1.618 2.689-.989 5.377-6.29 8.066-7.547 2.689-1.258 5.378.539 8.066 0 2.69-.54 5.378-3.325 8.067-3.235 2.688.09 5.377 4.672 8.066 3.774 2.689-.899 5.377-7.817 8.066-9.164 2.689-1.348 5.378 1.796 8.066 1.078 2.69-.719 5.378-4.492 8.067-5.39 2.688-.9 5.377.448 8.066 0 2.689-.45 5.377-3.145 8.066-2.696 2.689.449 5.378 5.66 8.066 5.39 2.69-.27 5.378-6.468 8.067-7.007 2.688-.54 5.377 3.953 8.066 3.773 2.689-.18 5.377-4.402 8.066-4.852 2.689-.449 5.378 5.032 8.066 2.157 2.69-2.875 5.378-15.903 8.067-19.407 2.688-3.504 5.377.36 8.066-1.617 2.689-1.977 5.377-9.434 8.066-10.242 2.689-.809 5.378 6.02 8.066 5.39 2.69-.628 5.378-8.175 8.067-9.164 2.688-.988 5.377 3.864 8.066 3.235 2.689-.63 5.377-6.649 8.066-7.008 2.689-.36 8.066 4.851 8.066 4.851"/>
  <path fill="#424242" d="M619.22 578.862l-2.079 2.172v5.766h-2.25v-17.063h2.25v8.438l7.578-8.438h2.719l-6.719 7.532 7.25 9.531h-2.703l-6.047-7.938zm15.593 8.172q-2.578 0-4.203-1.687-1.61-1.703-1.61-4.531v-.407q0-1.89.72-3.359.718-1.484 2.015-2.328 1.297-.844 2.812-.844 2.469 0 3.828 1.64 1.375 1.626 1.375 4.657v.906h-8.578q.047 1.875 1.094 3.031 1.047 1.157 2.656 1.157 1.157 0 1.953-.469.797-.469 1.391-1.25l1.328 1.031q-1.594 2.453-4.781 2.453zm-.266-11.375q-1.312 0-2.203.97-.89.952-1.11 2.671h6.36v-.172q-.094-1.64-.89-2.547-.797-.922-2.157-.922zm12.157 7.97l2.953-9.517h2.312l-5.094 14.641q-1.187 3.172-3.765 3.172l-.406-.031-.813-.157v-1.765l.594.047q1.094 0 1.703-.453.625-.438 1.016-1.61l.484-1.297-4.516-12.547h2.36l3.172 9.516zm14.234-.188q0-.891-.672-1.375-.656-.485-2.312-.829-1.641-.359-2.61-.843-.969-.5-1.437-1.172-.453-.688-.453-1.625 0-1.563 1.312-2.64 1.328-1.079 3.375-1.079 2.156 0 3.5 1.125 1.344 1.11 1.344 2.844h-2.188q0-.89-.75-1.531-.75-.657-1.906-.657-1.187 0-1.86.516-.656.516-.656 1.36 0 .78.61 1.187.625.39 2.25.75t2.625.875q1.015.5 1.5 1.219.484.703.484 1.718 0 1.703-1.36 2.735-1.359 1.015-3.515 1.015-1.531 0-2.703-.53-1.172-.548-1.844-1.517-.656-.968-.656-2.093h2.172q.062 1.093.875 1.734.812.64 2.156.64 1.219 0 1.969-.5t.75-1.327zM37.137 374.51l13.922-5.579-13.922-5.578v-2.922H54.2v2.25h-6.64l-7.173-.203 13.813 5.594v1.734l-13.781 5.578 7.14-.218H54.2v2.25H37.137v-2.907zM54.2 354.4v2.172H41.512V354.4H54.2zm-16.047 2.344q-.531 0-.89-.313-.36-.328-.36-.953 0-.64.36-.969.359-.328.89-.328t.89.328q.344.328.344.97 0 .624-.343.952-.36.313-.89.313zM54.2 348.4v2.172h-18V348.4h18zm0-6v2.172h-18V342.4h18zm0-6v2.172H41.512V336.4H54.2zm-16.047 2.344q-.531 0-.89-.313-.36-.328-.36-.953 0-.64.36-.969.359-.328.89-.328t.89.328q.344.328.344.97 0 .624-.343.952-.36.313-.89.313zm12.688-13.375q-.891 0-1.375.672-.485.656-.829 2.312-.359 1.64-.843 2.61-.5.968-1.172 1.437-.688.453-1.625.453-1.563 0-2.64-1.312-1.079-1.329-1.079-3.375 0-2.157 1.125-3.5 1.11-1.344 2.844-1.344v2.187q-.89 0-1.531.75-.657.75-.657 1.907 0 1.187.516 1.859.516.656 1.36.656.78 0 1.187-.61.39-.624.75-2.25.36-1.624.875-2.624.5-1.016 1.219-1.5.703-.485 1.718-.485 1.703 0 2.735 1.36 1.015 1.36 1.015 3.515 0 1.532-.53 2.704-.548 1.171-1.517 1.843-.968.657-2.093.657v-2.172q1.093-.063 1.734-.875.64-.813.64-2.157 0-1.218-.5-1.968t-1.327-.75zm3.593-9.875q0 2.578-1.687 4.203-1.703 1.61-4.531 1.61h-.407q-1.89 0-3.359-.72-1.484-.718-2.328-2.015-.844-1.297-.844-2.813 0-2.468 1.64-3.828 1.626-1.375 4.657-1.375h.906v8.578q1.875-.047 3.031-1.093 1.157-1.047 1.157-2.657 0-1.156-.469-1.953-.469-.797-1.25-1.39l1.031-1.329q2.453 1.594 2.453 4.782zm-11.375.265q0 1.313.97 2.203.952.891 2.671 1.11v-6.36h-.172q-1.64.094-2.547.891-.922.797-.922 2.156zm9.61-13.093q0-1.157-.703-2.016-.704-.875-1.766-.969v-2.047q1.094.063 2.078.75.984.688 1.578 1.844.578 1.156.578 2.438 0 2.593-1.718 4.125-1.735 1.53-4.735 1.53h-.375q-1.844 0-3.281-.671-1.453-.688-2.25-1.953-.797-1.281-.797-3.016 0-2.125 1.281-3.531 1.282-1.422 3.313-1.516v2.047q-1.219.094-2.016.938-.797.828-.797 2.062 0 1.656 1.203 2.563 1.188.906 3.438.906h.406q2.188 0 3.375-.89 1.188-.907 1.188-2.594zm-4.922-7.329q-1.875 0-3.36-.734-1.484-.734-2.296-2.031-.813-1.313-.813-3 0-2.578 1.797-4.172 1.797-1.61 4.766-1.61h.156q1.86 0 3.328.72 1.469.702 2.297 2.015.812 1.313.812 3.031 0 2.578-1.797 4.188-1.796 1.593-4.75 1.593h-.14zm.25-2.187q2.11 0 3.39-.969 1.282-.984 1.282-2.625 0-1.656-1.297-2.625-1.297-.969-3.625-.969-2.094 0-3.39.985-1.298.984-1.298 2.625 0 1.61 1.282 2.594 1.28.984 3.656.984zm-6.485-14.438l1.594-.078q-1.828-1.453-1.828-3.797 0-4.015 4.547-4.046H54.2v2.156h-8.39q-1.376.015-2.032.64-.656.61-.656 1.907 0 1.062.562 1.86.563.796 1.485 1.233H54.2v2.172H41.512v-2.047zm6.235-10.421q-2.906 0-4.688-1.375-1.78-1.391-1.78-3.641 0-2.219 1.53-3.516H36.2v-2.172h18v1.985l-1.36.11q1.594 1.296 1.594 3.624 0 2.203-1.797 3.594-1.812 1.39-4.718 1.39h-.172zm.25-2.172q2.156 0 3.375-.89 1.219-.892 1.219-2.47 0-2.062-1.844-3h-5.828q-1.797.97-1.797 2.985 0 1.593 1.234 2.484 1.235.89 3.64.89zm2.844-19.75q-.891 0-1.375.672-.485.656-.829 2.312-.359 1.64-.843 2.61-.5.968-1.172 1.437-.688.453-1.625.453-1.563 0-2.64-1.312-1.079-1.328-1.079-3.375 0-2.157 1.125-3.5 1.11-1.344 2.844-1.344v2.187q-.89 0-1.531.75-.657.75-.657 1.907 0 1.187.516 1.859.516.656 1.36.656.78 0 1.187-.61.39-.624.75-2.25.36-1.624.875-2.624.5-1.016 1.219-1.5.703-.484 1.718-.484 1.703 0 2.735 1.359 1.015 1.36 1.015 3.516 0 1.53-.53 2.703-.548 1.172-1.517 1.843-.968.657-2.093.657v-2.172q1.093-.063 1.734-.875.64-.813.64-2.156 0-1.22-.5-1.97t-1.327-.75z"/>
  <path fill="#757575" d="M119.263 507.66q0 1.906-.657 2.843-.64.922-2.031.922-1.36 0-2.016-.906-.656-.906-.687-2.719v-1.438q0-1.89.64-2.796.657-.922 2.047-.922 1.375 0 2.032.89.656.875.672 2.72v1.405zm-1.094-1.485q0-1.375-.39-2-.376-.64-1.22-.64-.828 0-1.218.64-.375.625-.375 1.922v1.734q0 1.375.39 2.047.407.656 1.219.656.797 0 1.188-.625.39-.625.406-1.953v-1.781zM102.263 372.893q0 1.906-.657 2.843-.64.922-2.031.922-1.36 0-2.016-.906-.656-.906-.687-2.719v-1.437q0-1.89.64-2.797.657-.922 2.047-.922 1.375 0 2.032.89.656.876.672 2.72v1.406zm-1.094-1.485q0-1.375-.39-2-.376-.64-1.22-.64-.828 0-1.218.64-.375.625-.375 1.922v1.735q0 1.375.39 2.046.407.657 1.219.657.797 0 1.188-.625.39-.625.406-1.953v-1.782zm2.875 4.563q0-.281.156-.469.172-.187.5-.187.344 0 .516.187.172.188.172.469 0 .265-.172.453-.172.172-.516.172-.328 0-.5-.172-.156-.188-.156-.453zm8.453.562h-5.594v-.78l2.953-3.282q.657-.75.907-1.203.25-.469.25-.969 0-.672-.407-1.094-.39-.437-1.078-.437-.797 0-1.25.468-.453.454-.453 1.282h-1.078q0-1.188.75-1.907.766-.734 2.031-.734 1.203 0 1.89.625.688.625.688 1.672 0 1.25-1.61 3l-2.28 2.469h4.28v.89zm1.906-4.28l.438-4.25h4.375v1h-3.453l-.266 2.327q.64-.375 1.437-.375 1.157 0 1.844.781.688.766.688 2.079 0 1.312-.72 2.078-.702.765-1.983.765-1.126 0-1.844-.625-.719-.64-.813-1.75h1.016q.11.735.531 1.11.422.375 1.11.375.75 0 1.187-.516.438-.516.438-1.422 0-.86-.47-1.375-.468-.515-1.25-.515-.702 0-1.109.296l-.28.235-.876-.219zM109.263 238.126q0 1.906-.657 2.844-.64.922-2.031.922-1.36 0-2.016-.907-.656-.906-.687-2.718v-1.438q0-1.89.64-2.797.657-.922 2.047-.922 1.375 0 2.032.891.656.875.672 2.719v1.406zm-1.094-1.484q0-1.375-.39-2-.376-.641-1.22-.641-.828 0-1.218.64-.375.626-.375 1.923v1.734q0 1.375.39 2.047.407.656 1.219.656.797 0 1.188-.625.39-.625.406-1.953v-1.781zm2.875 4.562q0-.281.156-.469.172-.187.5-.187.344 0 .516.187.172.188.172.47 0 .265-.172.452-.172.172-.516.172-.328 0-.5-.172-.156-.187-.156-.453zm3.36-3.719l.437-4.25h4.375v1h-3.453l-.266 2.329q.64-.375 1.437-.375 1.157 0 1.844.78.688.766.688 2.079 0 1.312-.72 2.078-.702.766-1.983.766-1.126 0-1.844-.625-.719-.641-.813-1.75h1.016q.11.734.531 1.109.422.375 1.11.375.75 0 1.187-.516.438-.515.438-1.421 0-.86-.47-1.375-.468-.516-1.25-.516-.702 0-1.109.297l-.28.234-.876-.219zM102.263 103.36q0 1.906-.657 2.843-.64.922-2.031.922-1.36 0-2.016-.906-.656-.906-.687-2.719v-1.438q0-1.89.64-2.796.657-.922 2.047-.922 1.375 0 2.032.89.656.875.672 2.72v1.405zm-1.094-1.485q0-1.375-.39-2-.376-.64-1.22-.64-.828 0-1.218.64-.375.625-.375 1.922v1.734q0 1.375.39 2.047.407.656 1.219.656.797 0 1.188-.625.39-.625.406-1.953v-1.781zm2.875 4.563q0-.282.156-.47.172-.187.5-.187.344 0 .516.188.172.187.172.469 0 .265-.172.453-.172.171-.516.171-.328 0-.5-.171-.156-.188-.156-.454zm8.375-7.36L108.888 107h-1.141l3.516-7.64h-4.61v-.891h5.766v.61zm1.984 3.64l.438-4.25h4.375v1h-3.453l-.266 2.329q.64-.375 1.437-.375 1.157 0 1.844.781.688.766.688 2.078 0 1.313-.72 2.078-.702.766-1.983.766-1.126 0-1.844-.625-.719-.64-.813-1.75h1.016q.11.734.531 1.11.422.374 1.11.374.75 0 1.187-.515.438-.516.438-1.422 0-.86-.47-1.375-.468-.516-1.25-.516-.702 0-1.109.297l-.28.234-.876-.218zM298.767 520.519l.437-4.25h4.375v1h-3.453l-.266 2.328q.641-.375 1.438-.375 1.156 0 1.844.781.687.766.687 2.078 0 1.313-.719 2.078-.703.766-1.984.766-1.125 0-1.844-.625-.718-.64-.812-1.75h1.015q.11.734.532 1.11.422.374 1.11.374.75 0 1.187-.515.437-.516.437-1.422 0-.86-.469-1.375-.468-.516-1.25-.516-.703 0-1.109.297l-.281.234-.875-.218zm11.86.64q0 1.907-.657 2.844-.64.922-2.031.922-1.36 0-2.016-.906-.656-.907-.688-2.719v-1.438q0-1.89.641-2.796.656-.922 2.047-.922 1.375 0 2.031.89.656.875.672 2.72v1.405zm-1.095-1.484q0-1.375-.39-2-.375-.64-1.219-.64-.828 0-1.219.64-.375.625-.375 1.922v1.734q0 1.375.39 2.047.407.656 1.22.656.796 0 1.187-.625.39-.625.406-1.953v-1.781zm8.094 1.484q0 1.907-.656 2.844-.64.922-2.031.922-1.36 0-2.016-.906-.656-.907-.688-2.719v-1.438q0-1.89.641-2.796.656-.922 2.047-.922 1.375 0 2.031.89.656.875.672 2.72v1.405zm-1.094-1.484q0-1.375-.39-2-.375-.64-1.219-.64-.828 0-1.219.64-.375.625-.375 1.922v1.734q0 1.375.39 2.047.407.656 1.22.656.796 0 1.187-.625.39-.625.406-1.953v-1.781zm8.094 1.484q0 1.907-.656 2.844-.64.922-2.031.922-1.36 0-2.016-.906-.656-.907-.688-2.719v-1.438q0-1.89.641-2.796.656-.922 2.047-.922 1.375 0 2.031.89.656.875.672 2.72v1.405zm-1.094-1.484q0-1.375-.39-2-.375-.64-1.219-.64-.828 0-1.219.64-.375.625-.375 1.922v1.734q0 1.375.39 2.047.407.656 1.22.656.796 0 1.187-.625.39-.625.406-1.953v-1.781zm8.094 1.484q0 1.907-.656 2.844-.64.922-2.031.922-1.36 0-2.016-.906-.656-.907-.688-2.719v-1.438q0-1.89.641-2.796.656-.922 2.047-.922 1.375 0 2.031.89.656.875.672 2.72v1.405zm-1.094-1.484q0-1.375-.39-2-.375-.64-1.219-.64-.828 0-1.219.64-.375.625-.375 1.922v1.734q0 1.375.39 2.047.407.656 1.22.656.796 0 1.187-.625.39-.625.406-1.953v-1.781zM495.26 524.8h-1.079v-7.219l-2.188.797v-.984l3.11-1.172h.156v8.578zm8.796-3.64q0 1.906-.656 2.843-.64.922-2.032.922-1.359 0-2.015-.906-.656-.907-.688-2.719v-1.438q0-1.89.641-2.796.656-.922 2.047-.922 1.375 0 2.031.89.656.875.672 2.72v1.405zm-1.094-1.485q0-1.375-.39-2-.375-.64-1.22-.64-.827 0-1.218.64-.375.625-.375 1.922v1.734q0 1.375.39 2.047.407.656 1.22.656.796 0 1.187-.625.39-.625.406-1.953v-1.781zm8.094 1.484q0 1.907-.656 2.844-.64.922-2.032.922-1.359 0-2.015-.906-.656-.907-.688-2.719v-1.438q0-1.89.641-2.796.656-.922 2.047-.922 1.375 0 2.031.89.656.875.672 2.72v1.405zm-1.094-1.484q0-1.375-.39-2-.375-.64-1.22-.64-.827 0-1.218.64-.375.625-.375 1.922v1.734q0 1.375.39 2.047.407.656 1.22.656.796 0 1.187-.625.39-.625.406-1.953v-1.781zm8.094 1.484q0 1.907-.656 2.844-.64.922-2.032.922-1.359 0-2.015-.906-.656-.907-.688-2.719v-1.438q0-1.89.641-2.796.656-.922 2.047-.922 1.375 0 2.031.89.656.875.672 2.72v1.405zm-1.094-1.484q0-1.375-.39-2-.375-.64-1.22-.64-.827 0-1.218.64-.375.625-.375 1.922v1.734q0 1.375.39 2.047.407.656 1.22.656.796 0 1.187-.625.39-.625.406-1.953v-1.781zm8.094 1.484q0 1.907-.656 2.844-.64.922-2.032.922-1.359 0-2.015-.906-.656-.907-.688-2.719v-1.438q0-1.89.641-2.796.656-.922 2.047-.922 1.375 0 2.031.89.656.875.672 2.72v1.405zm-1.094-1.484q0-1.375-.39-2-.375-.64-1.22-.64-.827 0-1.218.64-.375.625-.375 1.922v1.734q0 1.375.39 2.047.407.656 1.22.656.796 0 1.187-.625.39-.625.406-1.953v-1.781zm8.094 1.484q0 1.907-.656 2.844-.64.922-2.032.922-1.359 0-2.015-.906-.656-.907-.688-2.719v-1.438q0-1.89.641-2.796.656-.922 2.047-.922 1.375 0 2.031.89.656.875.672 2.72v1.405zm-1.094-1.484q0-1.375-.39-2-.375-.64-1.22-.64-.827 0-1.218.64-.375.625-.375 1.922v1.734q0 1.375.39 2.047.407.656 1.22.656.796 0 1.187-.625.39-.625.406-1.953v-1.781zM692.189 524.8h-1.078v-7.219l-2.188.797v-.984l3.11-1.172h.156v8.578zm3.937-4.281l.438-4.25h4.375v1h-3.453l-.266 2.328q.64-.375 1.438-.375 1.156 0 1.843.781.688.766.688 2.078 0 1.313-.719 2.078-.703.766-1.984.766-1.125 0-1.844-.625-.719-.64-.813-1.75h1.016q.11.734.531 1.11.422.374 1.11.374.75 0 1.187-.515.438-.516.438-1.422 0-.86-.469-1.375-.469-.516-1.25-.516-.703 0-1.11.297l-.28.234-.876-.218zm11.86.64q0 1.907-.656 2.844-.641.922-2.032.922-1.36 0-2.015-.906-.657-.907-.688-2.719v-1.438q0-1.89.64-2.796.657-.922 2.048-.922 1.375 0 2.03.89.657.875.673 2.72v1.405zm-1.094-1.484q0-1.375-.39-2-.376-.64-1.22-.64-.827 0-1.218.64-.375.625-.375 1.922v1.734q0 1.375.39 2.047.407.656 1.22.656.796 0 1.187-.625.39-.625.406-1.953v-1.781zm8.094 1.484q0 1.907-.656 2.844-.641.922-2.032.922-1.36 0-2.015-.906-.657-.907-.688-2.719v-1.438q0-1.89.64-2.796.657-.922 2.048-.922 1.375 0 2.03.89.657.875.673 2.72v1.405zm-1.094-1.484q0-1.375-.39-2-.376-.64-1.22-.64-.827 0-1.218.64-.375.625-.375 1.922v1.734q0 1.375.39 2.047.407.656 1.22.656.796 0 1.187-.625.39-.625.406-1.953v-1.781zm8.094 1.484q0 1.907-.656 2.844-.641.922-2.032.922-1.36 0-2.015-.906-.657-.907-.688-2.719v-1.438q0-1.89.64-2.796.657-.922 2.048-.922 1.375 0 2.03.89.657.875.673 2.72v1.405zm-1.094-1.484q0-1.375-.39-2-.376-.64-1.22-.64-.827 0-1.218.64-.375.625-.375 1.922v1.734q0 1.375.39 2.047.407.656 1.22.656.796 0 1.187-.625.39-.625.406-1.953v-1.781zm8.094 1.484q0 1.907-.656 2.844-.641.922-2.032.922-1.36 0-2.015-.906-.657-.907-.688-2.719v-1.438q0-1.89.64-2.796.657-.922 2.048-.922 1.375 0 2.03.89.657.875.673 2.72v1.405zm-1.094-1.484q0-1.375-.39-2-.376-.64-1.22-.64-.827 0-1.218.64-.375.625-.375 1.922v1.734q0 1.375.39 2.047.407.656 1.22.656.796 0 1.187-.625.39-.625.406-1.953v-1.781zM891.15 524.8h-5.594v-.781l2.953-3.282q.657-.75.907-1.203.25-.468.25-.968 0-.672-.407-1.094-.39-.438-1.078-.438-.797 0-1.25.47-.453.452-.453 1.28H885.4q0-1.187.75-1.906.766-.734 2.031-.734 1.203 0 1.89.625.688.625.688 1.672 0 1.25-1.609 3l-2.281 2.468h4.281v.891zm6.766-3.64q0 1.906-.657 2.843-.64.922-2.03.922-1.36 0-2.017-.906-.656-.907-.687-2.719v-1.438q0-1.89.64-2.796.657-.922 2.048-.922 1.375 0 2.03.89.657.875.673 2.72v1.405zm-1.094-1.485q0-1.375-.39-2-.376-.64-1.22-.64-.828 0-1.218.64-.375.625-.375 1.922v1.734q0 1.375.39 2.047.407.656 1.22.656.796 0 1.187-.625.39-.625.406-1.953v-1.781zm8.094 1.484q0 1.907-.657 2.844-.64.922-2.03.922-1.36 0-2.017-.906-.656-.907-.687-2.719v-1.438q0-1.89.64-2.796.657-.922 2.048-.922 1.375 0 2.03.89.657.875.673 2.72v1.405zm-1.094-1.484q0-1.375-.39-2-.376-.64-1.22-.64-.828 0-1.218.64-.375.625-.375 1.922v1.734q0 1.375.39 2.047.407.656 1.22.656.796 0 1.187-.625.39-.625.406-1.953v-1.781zm8.094 1.484q0 1.907-.657 2.844-.64.922-2.03.922-1.36 0-2.017-.906-.656-.907-.687-2.719v-1.438q0-1.89.64-2.796.657-.922 2.048-.922 1.375 0 2.03.89.657.875.673 2.72v1.405zm-1.094-1.484q0-1.375-.39-2-.376-.64-1.22-.64-.828 0-1.218.64-.375.625-.375 1.922v1.734q0 1.375.39 2.047.407.656 1.22.656.796 0 1.187-.625.39-.625.406-1.953v-1.781zm8.094 1.484q0 1.907-.657 2.844-.64.922-2.03.922-1.36 0-2.017-.906-.656-.907-.687-2.719v-1.438q0-1.89.64-2.796.657-.922 2.048-.922 1.375 0 2.03.89.657.875.673 2.72v1.405zm-1.094-1.484q0-1.375-.39-2-.376-.64-1.22-.64-.828 0-1.218.64-.375.625-.375 1.922v1.734q0 1.375.39 2.047.407.656 1.22.656.796 0 1.187-.625.39-.625.406-1.953v-1.781zm8.094 1.484q0 1.907-.657 2.844-.64.922-2.03.922-1.36 0-2.017-.906-.656-.907-.687-2.719v-1.438q0-1.89.64-2.796.657-.922 2.048-.922 1.375 0 2.03.89.657.875.673 2.72v1.405zm-1.094-1.484q0-1.375-.39-2-.376-.64-1.22-.64-.828 0-1.218.64-.375.625-.375 1.922v1.734q0 1.375.39 2.047.407.656 1.22.656.796 0 1.187-.625.39-.625.406-1.953v-1.781zM1088.08 524.8h-5.594v-.781l2.953-3.282q.656-.75.906-1.203.25-.468.25-.968 0-.672-.406-1.094-.39-.438-1.078-.438-.797 0-1.25.47-.453.452-.453 1.28h-1.078q0-1.187.75-1.906.765-.734 2.031-.734 1.203 0 1.89.625.688.625.688 1.672 0 1.25-1.61 3l-2.28 2.468h4.28v.891zm1.906-4.281l.438-4.25h4.375v1h-3.454l-.265 2.328q.64-.375 1.437-.375 1.157 0 1.844.781.688.766.688 2.078 0 1.313-.72 2.078-.702.766-1.984.766-1.125 0-1.843-.625-.719-.64-.813-1.75h1.016q.11.734.531 1.11.422.374 1.11.374.75 0 1.187-.515.438-.516.438-1.422 0-.86-.47-1.375-.468-.516-1.25-.516-.702 0-1.109.297l-.28.234-.876-.218zm11.86.64q0 1.907-.657 2.844-.64.922-2.031.922-1.36 0-2.016-.906-.656-.907-.687-2.719v-1.438q0-1.89.64-2.796.657-.922 2.047-.922 1.375 0 2.032.89.656.875.671 2.72v1.405zm-1.094-1.484q0-1.375-.39-2-.376-.64-1.22-.64-.828 0-1.218.64-.375.625-.375 1.922v1.734q0 1.375.39 2.047.406.656 1.219.656.797 0 1.188-.625.39-.625.406-1.953v-1.781zm8.093 1.484q0 1.907-.656 2.844-.64.922-2.031.922-1.36 0-2.016-.906-.656-.907-.687-2.719v-1.438q0-1.89.64-2.796.657-.922 2.047-.922 1.375 0 2.032.89.656.875.671 2.72v1.405zm-1.093-1.484q0-1.375-.39-2-.376-.64-1.22-.64-.828 0-1.218.64-.375.625-.375 1.922v1.734q0 1.375.39 2.047.406.656 1.219.656.797 0 1.188-.625.39-.625.406-1.953v-1.781zm8.093 1.484q0 1.907-.656 2.844-.64.922-2.031.922-1.36 0-2.016-.906-.656-.907-.687-2.719v-1.438q0-1.89.64-2.796.657-.922 2.047-.922 1.375 0 2.032.89.656.875.671 2.72v1.405zm-1.093-1.484q0-1.375-.39-2-.376-.64-1.22-.64-.828 0-1.218.64-.375.625-.375 1.922v1.734q0 1.375.39 2.047.406.656 1.219.656.797 0 1.188-.625.39-.625.406-1.953v-1.781zm8.093 1.484q0 1.907-.656 2.844-.64.922-2.031.922-1.36 0-2.016-.906-.656-.907-.687-2.719v-1.438q0-1.89.64-2.796.657-.922 2.047-.922 1.375 0 2.032.89.656.875.671 2.72v1.405zm-1.093-1.484q0-1.375-.39-2-.376-.64-1.22-.64-.828 0-1.218.64-.375.625-.375 1.922v1.734q0 1.375.39 2.047.406.656 1.219.656.797 0 1.188-.625.39-.625.406-1.953v-1.781z"/>
  <path stroke="#0f0" stroke-width="4" stroke-linecap="butt" d="M1183.8 102.5h12"/>
  <path fill="#757575" d="M1211.3 103.016q0 1.234-.39 2.125-.391.89-1.094 1.39l1.515 1.203-.765.704-1.797-1.422q-.422.109-.89.109-1 0-1.782-.5-.781-.5-1.219-1.406-.422-.922-.437-2.14v-.61q0-1.235.421-2.172.438-.938 1.22-1.438.78-.515 1.78-.515 1.032 0 1.813.5.781.5 1.203 1.437.422.938.422 2.188v.547zm-1.125-.563q0-1.5-.594-2.312-.593-.829-1.718-.829-1.063 0-1.672.813-.61.813-.625 2.25v.64q0 1.454.609 2.297.61.844 1.703.844 1.094 0 1.688-.781.593-.797.609-2.281v-.64zm6.36 3.922q-.626.75-1.86.75-1.016 0-1.547-.594-.531-.594-.531-1.75v-4.125h1.078v4.094q0 1.453 1.172 1.453 1.25 0 1.656-.937v-4.61h1.094V107h-1.031l-.032-.625zm7 .625q-.094-.188-.157-.672-.75.797-1.797.797-.937 0-1.547-.531-.593-.531-.593-1.36 0-.984.75-1.53.75-.548 2.125-.548h1.046v-.5q0-.562-.343-.89-.328-.344-1-.344-.578 0-.969.297-.39.281-.39.703h-1.094q0-.484.328-.922.343-.438.922-.688.578-.265 1.265-.265 1.11 0 1.719.547.625.547.656 1.5v2.922q0 .875.219 1.39V107h-1.14zm-1.798-.828q.516 0 .97-.266.452-.265.655-.687v-1.297h-.843q-2 0-2 1.172 0 .5.343.797.344.28.875.28zm4.625-2.39q0-1.47.688-2.344.688-.891 1.813-.891 1.109 0 1.765.75V98h1.078v9h-1l-.047-.688q-.656.813-1.812.813-1.094 0-1.797-.906-.688-.906-.688-2.36v-.078zm1.079.124q0 1.078.437 1.688.453.61 1.235.61 1.03 0 1.515-.938v-2.907q-.484-.89-1.5-.89-.797 0-1.25.61-.437.609-.437 1.827zm9.25-2.281q-.25-.031-.532-.031-1.078 0-1.453.906v4.5h-1.078v-6.344h1.047l.016.735q.53-.844 1.515-.844.313 0 .485.078v1zm.64 2.14q0-.921.36-1.671.375-.75 1.03-1.14.657-.407 1.485-.407 1.297 0 2.094.89.813.891.813 2.391v.078q0 .922-.36 1.656-.36.735-1.015 1.157-.657.406-1.516.406-1.281 0-2.094-.89-.797-.907-.797-2.391v-.078zm1.094.141q0 1.047.484 1.688.5.64 1.313.64.828 0 1.312-.64.485-.656.485-1.828 0-1.032-.5-1.672-.485-.656-1.313-.656-.797 0-1.297.64-.484.625-.484 1.828zm10.813-5.437l2.796 6.953 2.782-6.953h1.468V107h-1.125v-3.328l.11-3.578-2.813 6.906h-.86l-2.796-6.89.11 3.562V107h-1.126v-8.531h1.453zm11.828 8.531h-1.079v-7.219l-2.187.797v-.984l3.11-1.172h.156V107zm9.03 0h-5.593v-.781l2.953-3.281q.657-.75.907-1.204.25-.468.25-.968 0-.672-.407-1.094-.39-.438-1.078-.438-.797 0-1.25.47-.453.452-.453 1.28h-1.078q0-1.187.75-1.906.765-.734 2.031-.734 1.203 0 1.89.625.688.625.688 1.672 0 1.25-1.61 3l-2.28 2.468h4.28V107zm6.766-3.64q0 1.906-.656 2.843-.64.922-2.031.922-1.36 0-2.016-.906-.656-.906-.687-2.719v-1.438q0-1.89.64-2.796.657-.922 2.047-.922 1.375 0 2.032.89.656.875.671 2.72v1.405zm-1.093-1.485q0-1.375-.39-2-.376-.64-1.22-.64-.828 0-1.218.64-.375.625-.375 1.922v1.734q0 1.375.39 2.047.407.656 1.219.656.797 0 1.188-.625.39-.625.406-1.953v-1.781zm8.093 1.484q0 1.907-.656 2.844-.64.922-2.031.922-1.36 0-2.016-.906-.656-.906-.687-2.719v-1.438q0-1.89.64-2.796.657-.922 2.047-.922 1.375 0 2.032.89.656.875.671 2.72v1.405zm-1.093-1.484q0-1.375-.39-2-.376-.64-1.22-.64-.828 0-1.218.64-.375.625-.375 1.922v1.734q0 1.375.39 2.047.407.656 1.219.656.797 0 1.188-.625.39-.625.406-1.953v-1.781zm15.218 2.188q-.078 1.406-.718 2.234-.625.828-1.688.828-1.093 0-1.406-1-.313.5-.719.75-.406.25-.843.25-.829 0-1.266-.688-.422-.687-.313-1.874.094-.97.438-1.72.36-.765.922-1.202.562-.438 1.172-.438.484 0 .859.125t.844.5l-.313 3.25q-.11 1.344.75 1.344.672 0 1.078-.656.407-.657.438-1.704.125-2.28-.844-3.468-.953-1.203-2.906-1.203-1.188 0-2.11.578-.906.578-1.437 1.687-.516 1.094-.578 2.547-.078 1.453.344 2.531.421 1.063 1.28 1.625.876.563 2.095.563.53 0 1.062-.125.531-.125.875-.344l.219.688q-.36.218-.969.359-.594.156-1.203.156-1.469 0-2.531-.656-1.047-.656-1.578-1.906-.516-1.235-.454-2.89.079-1.61.72-2.891.655-1.297 1.765-2 1.125-.704 2.515-.704 1.47 0 2.5.657 1.047.656 1.547 1.906.516 1.234.453 2.89zm-6.015.5q-.078.828.156 1.28.235.438.75.438.36 0 .672-.297.328-.296.547-.859v-.047l.265-2.953q-.328-.172-.703-.172-.672 0-1.125.703-.453.688-.562 1.906zm14.094 2.437h-1.079v-7.219l-2.187.797v-.984l3.11-1.172h.156V107zm3.578-.563q0-.28.156-.468.172-.188.5-.188.344 0 .516.188.171.187.171.469 0 .265-.171.453-.172.171-.516.171-.328 0-.5-.171-.156-.188-.156-.454zm6.422.563h-1.079v-7.219l-2.187.797v-.984l3.11-1.172h.156V107zm3.937-4.281l.438-4.25h4.375v1h-3.454l-.265 2.328q.64-.375 1.437-.375 1.157 0 1.844.781.688.766.688 2.078 0 1.313-.72 2.078-.702.766-1.984.766-1.125 0-1.843-.625-.719-.64-.813-1.75h1.016q.11.734.531 1.11.422.374 1.11.374.75 0 1.187-.515.438-.516.438-1.422 0-.86-.47-1.375-.468-.516-1.25-.516-.702 0-1.109.297l-.28.234-.876-.218zm16.094 3.156q-.438.625-1.219.938-.781.312-1.812.312-1.032 0-1.844-.484-.813-.5-1.25-1.407-.438-.906-.453-2.093v-.735q0-1.937.89-3 .907-1.062 2.532-1.062 1.343 0 2.156.687.812.688 1 1.938h-1.125q-.328-1.688-2.016-1.688-1.14 0-1.718.797-.579.781-.594 2.297v.688q0 1.437.656 2.296.656.844 1.781.844.625 0 1.094-.14.484-.141.797-.485v-1.906h-1.969v-.922h3.094v3.125zm8.25 1.125h-1.125v-3.938h-4.313V107h-1.125v-8.531h1.125v3.672h4.313v-3.672h1.125V107zm3.297-.89h3.703v.89h-5.031v-.797l3.5-4.64h-3.454v-.907h4.813v.766l-3.531 4.687zm7.937-2.579q0-1.312.344-2.531.36-1.219 1.063-2.219.703-1 1.468-1.406l.219.719q-.86.656-1.406 2-.547 1.344-.594 3.015l-.016.5q0 2.266.828 3.922.5 1 1.188 1.563l-.219.656q-.781-.422-1.5-1.453-1.375-1.984-1.375-4.766zm10.485.766q-.157 1.344-1 2.094-.844.734-2.235.734-1.515 0-2.422-1.078-.906-1.094-.906-2.922v-.813q0-1.187.422-2.093.422-.906 1.203-1.39.781-.485 1.797-.485 1.36 0 2.172.765.828.766.969 2.094h-1.125q-.157-1.016-.641-1.469-.484-.453-1.375-.453-1.078 0-1.688.797-.609.797-.609 2.266v.828q0 1.39.578 2.219.578.812 1.625.812.938 0 1.438-.422.5-.437.672-1.484h1.125zm7.734-5.828v5.797q-.016 1.203-.766 1.984-.75.766-2.03.86l-.313.015q-1.391 0-2.235-.75-.828-.766-.828-2.094V98.47h1.11v5.781q0 .922.5 1.438.515.515 1.453.515.968 0 1.468-.516.5-.515.5-1.437v-5.781h1.141zm1.984 8.531v-8.531h2.422q1.11 0 1.953.5.86.484 1.328 1.39.47.907.47 2.094v.531q0 1.22-.47 2.125-.453.907-1.328 1.391-.859.484-2 .5h-2.375zm1.125-7.61v6.688h1.188q1.297 0 2.015-.797.735-.812.735-2.312v-.5q0-1.453-.688-2.25-.672-.813-1.937-.828h-1.313zm11.594 5.376h-3.578l-.797 2.234h-1.156l3.25-8.531h.984l3.266 8.531h-1.156l-.813-2.234zm-3.234-.922h2.906l-1.453-3.985-1.453 3.985zm9.562 3.89h-.922l3.563-9.265h.922l-3.563 9.265zm9.25-5.53h.813q.781-.016 1.218-.407.438-.39.438-1.063 0-1.5-1.5-1.5-.703 0-1.125.407-.406.406-.406 1.062h-1.094q0-1.016.734-1.687.75-.672 1.891-.672 1.203 0 1.89.64.688.641.688 1.782 0 .562-.36 1.078-.359.515-.984.781.703.219 1.078.734.391.516.391 1.266 0 1.14-.75 1.828-.75.672-1.953.672-1.188 0-1.953-.656-.75-.656-.75-1.719h1.094q0 .672.437 1.078.438.406 1.188.406.78 0 1.187-.406.422-.422.422-1.187 0-.735-.453-1.125-.453-.407-1.328-.422h-.813v-.89zm11.016 4.796h-5.594v-.781l2.953-3.281q.657-.75.907-1.204.25-.468.25-.968 0-.672-.407-1.094-.39-.438-1.078-.438-.797 0-1.25.47-.453.452-.453 1.28h-1.078q0-1.187.75-1.906.765-.734 2.031-.734 1.203 0 1.89.625.688.625.688 1.672 0 1.25-1.61 3l-2.28 2.468h4.28V107zm3.781-3.188h-2.86v-.874h2.86v.874zm6.11.094q0 1.453-.672 2.344-.657.875-1.782.875-1.203 0-1.859-.86l-.063.735h-.984v-9h1.078v3.36q.657-.813 1.813-.813t1.812.875q.657.86.657 2.39v.094zm-1.079-.125q0-1.11-.437-1.703-.422-.61-1.219-.61-1.078 0-1.547.985v2.75q.5 1 1.547 1 .781 0 1.219-.61.437-.609.437-1.812zM1427.8 107h-1.078v-6.344h1.078V107zm-1.172-8.016q0-.265.156-.453.172-.187.485-.187.312 0 .468.187.172.188.172.453 0 .25-.172.438-.156.172-.468.172-.313 0-.485-.172-.156-.188-.156-.438zm4.469.141v1.531h1.172v.844h-1.172v3.922q0 .39.156.578.156.188.531.188.188 0 .516-.063V107q-.422.125-.828.125-.719 0-1.094-.438-.375-.453-.375-1.265V101.5h-1.156v-.844h1.156v-1.531h1.094zm5.734 8.61h-.922l3.563-9.266h.922l-3.563 9.265zm14.516-.735h-1.125v-3.938h-4.313V107h-1.125v-8.531h1.125v3.672h4.313v-3.672h1.125V107zm1.984-3.234q0-.922.36-1.672.375-.75 1.03-1.14.657-.407 1.485-.407 1.297 0 2.094.89.813.891.813 2.391v.078q0 .922-.36 1.656-.36.735-1.015 1.157-.657.406-1.516.406-1.281 0-2.094-.89-.797-.907-.797-2.391v-.078zm1.094.14q0 1.047.484 1.688.5.64 1.313.64.828 0 1.312-.64.485-.656.485-1.828 0-1.032-.5-1.672-.485-.656-1.313-.656-.797 0-1.297.64-.484.625-.484 1.828zm7.672-4.781v1.531h1.172v.844h-1.172v3.922q0 .39.156.578.156.188.531.188.188 0 .516-.063V107q-.422.125-.828.125-.719 0-1.094-.438-.375-.453-.375-1.265V101.5h-1.156v-.844h1.156v-1.531h1.094zm5.203 4.078q-1.438-.422-2.11-1.031-.656-.61-.656-1.5 0-1 .797-1.656.813-.672 2.11-.672.875 0 1.562.344.688.343 1.063.937.39.594.39 1.313h-1.14q0-.782-.5-1.22-.485-.437-1.375-.437-.829 0-1.297.375-.469.36-.469 1 0 .531.438.89.453.36 1.515.657 1.063.297 1.656.656.61.36.891.844.297.484.297 1.125 0 1.047-.813 1.672-.812.625-2.156.625-.89 0-1.656-.344-.75-.344-1.172-.922-.406-.593-.406-1.328h1.125q0 .766.578 1.219.578.453 1.531.453.89 0 1.36-.36.468-.374.468-1 0-.624-.437-.968-.438-.344-1.594-.672zm4.031.563q0-.922.36-1.672.375-.75 1.03-1.14.657-.407 1.485-.407 1.297 0 2.094.89.813.891.813 2.391v.078q0 .922-.36 1.656-.36.735-1.015 1.157-.657.406-1.516.406-1.281 0-2.094-.89-.797-.907-.797-2.391v-.078zm1.094.14q0 1.047.484 1.688.5.64 1.313.64.828 0 1.312-.64.485-.656.485-1.828 0-1.032-.5-1.672-.485-.656-1.313-.656-.797 0-1.297.64-.484.625-.484 1.828zm9.266-2.281q-.25-.031-.532-.031-1.078 0-1.453.906v4.5h-1.078v-6.344h1.047l.016.735q.53-.844 1.515-.844.313 0 .485.078v1zm2.406-2.5v1.531h1.172v.844h-1.172v3.922q0 .39.156.578.156.188.531.188.188 0 .516-.063V107q-.422.125-.828.125-.719 0-1.094-.438-.375-.453-.375-1.265V101.5h-1.156v-.844h1.156v-1.531h1.094zm5.031 4.469q0 1.312-.344 2.515-.343 1.188-1.062 2.204-.703 1.015-1.469 1.437l-.234-.656q.906-.688 1.453-2.14.547-1.47.562-3.235v-.188q0-1.234-.265-2.297-.25-1.062-.719-1.89-.453-.844-1.031-1.313l.234-.656q.766.422 1.469 1.422.703 1 1.047 2.219.36 1.203.36 2.578z"/>
  <path stroke="red" stroke-width="4" stroke-linecap="butt" d="M1183.8 127.5h12"/>
  <path fill="#757575" d="M1211.3 128.016q0 1.234-.39 2.125-.391.89-1.094 1.39l1.515 1.203-.765.703-1.797-1.421q-.422.109-.89.109-1 0-1.782-.5-.781-.5-1.219-1.406-.422-.922-.437-2.14v-.61q0-1.235.421-2.172.438-.938 1.22-1.438.78-.515 1.78-.515 1.032 0 1.813.5.781.5 1.203 1.437.422.938.422 2.188v.547zm-1.125-.563q0-1.5-.594-2.312-.593-.829-1.718-.829-1.063 0-1.672.813-.61.813-.625 2.25v.64q0 1.454.609 2.298.61.843 1.703.843 1.094 0 1.688-.781.593-.797.609-2.281v-.64zm6.36 3.922q-.626.75-1.86.75-1.016 0-1.547-.594-.531-.594-.531-1.75v-4.125h1.078v4.094q0 1.453 1.172 1.453 1.25 0 1.656-.937v-4.61h1.094V132h-1.031l-.032-.625zm7 .625q-.094-.188-.157-.672-.75.797-1.797.797-.937 0-1.547-.531-.593-.531-.593-1.36 0-.984.75-1.53.75-.548 2.125-.548h1.046v-.5q0-.562-.343-.89-.328-.344-1-.344-.578 0-.969.297-.39.281-.39.703h-1.094q0-.484.328-.922.343-.438.922-.688.578-.265 1.265-.265 1.11 0 1.719.547.625.547.656 1.5v2.922q0 .875.219 1.39V132h-1.14zm-1.798-.828q.516 0 .97-.266.452-.265.655-.687v-1.297h-.843q-2 0-2 1.172 0 .5.343.797.344.28.875.28zm4.625-2.39q0-1.47.688-2.345.688-.89 1.813-.89 1.109 0 1.765.75V123h1.078v9h-1l-.047-.688q-.656.813-1.812.813-1.094 0-1.797-.906-.688-.906-.688-2.36v-.078zm1.079.124q0 1.078.437 1.688.453.61 1.235.61 1.03 0 1.515-.938v-2.907q-.484-.89-1.5-.89-.797 0-1.25.61-.437.609-.437 1.827zm9.25-2.281q-.25-.031-.532-.031-1.078 0-1.453.906v4.5h-1.078v-6.344h1.047l.016.735q.53-.844 1.515-.844.313 0 .485.078v1zm.64 2.14q0-.921.36-1.671.375-.75 1.03-1.14.657-.407 1.485-.407 1.297 0 2.094.89.813.891.813 2.391v.078q0 .922-.36 1.656-.36.735-1.015 1.157-.657.406-1.516.406-1.281 0-2.094-.89-.797-.907-.797-2.391v-.078zm1.094.141q0 1.047.484 1.688.5.64 1.313.64.828 0 1.312-.64.485-.656.485-1.828 0-1.032-.5-1.672-.485-.656-1.313-.656-.797 0-1.297.64-.484.625-.484 1.828zm10.813-5.437l2.796 6.953 2.782-6.953h1.468V132h-1.125v-3.328l.11-3.578-2.813 6.906h-.86l-2.796-6.89.11 3.562V132h-1.126v-8.531h1.453zm11.828 8.531h-1.079v-7.219l-2.187.797v-.984l3.11-1.172h.156V132zm9.03 0h-5.593v-.781l2.953-3.281q.657-.75.907-1.204.25-.468.25-.968 0-.672-.407-1.094-.39-.438-1.078-.438-.797 0-1.25.47-.453.452-.453 1.28h-1.078q0-1.187.75-1.906.765-.734 2.031-.734 1.203 0 1.89.625.688.625.688 1.672 0 1.25-1.61 3l-2.28 2.468h4.28V132zm6.766-3.64q0 1.906-.656 2.843-.64.922-2.031.922-1.36 0-2.016-.906-.656-.906-.687-2.719v-1.438q0-1.89.64-2.796.657-.922 2.047-.922 1.375 0 2.032.89.656.875.671 2.72v1.405zm-1.093-1.485q0-1.375-.39-2-.376-.64-1.22-.64-.828 0-1.218.64-.375.625-.375 1.922v1.734q0 1.375.39 2.047.407.656 1.219.656.797 0 1.188-.625.39-.625.406-1.953v-1.781zm8.093 1.484q0 1.907-.656 2.844-.64.922-2.031.922-1.36 0-2.016-.906-.656-.906-.687-2.719v-1.438q0-1.89.64-2.796.657-.922 2.047-.922 1.375 0 2.032.89.656.875.671 2.72v1.405zm-1.093-1.484q0-1.375-.39-2-.376-.64-1.22-.64-.828 0-1.218.64-.375.625-.375 1.922v1.734q0 1.375.39 2.047.407.656 1.219.656.797 0 1.188-.625.39-.625.406-1.953v-1.781zm15.218 2.188q-.078 1.406-.718 2.234-.625.828-1.688.828-1.093 0-1.406-1-.313.5-.719.75-.406.25-.843.25-.829 0-1.266-.688-.422-.687-.313-1.875.094-.968.438-1.718.36-.766.922-1.203.562-.438 1.172-.438.484 0 .859.125t.844.5l-.313 3.25q-.11 1.344.75 1.344.672 0 1.078-.656.407-.657.438-1.703.125-2.282-.844-3.47-.953-1.202-2.906-1.202-1.188 0-2.11.578-.906.578-1.437 1.687-.516 1.094-.578 2.547-.078 1.453.344 2.531.421 1.063 1.28 1.625.876.563 2.095.563.53 0 1.062-.125.531-.125.875-.344l.219.688q-.36.218-.969.359-.594.156-1.203.156-1.469 0-2.531-.656-1.047-.656-1.578-1.906-.516-1.235-.454-2.89.079-1.61.72-2.892.655-1.296 1.765-2 1.125-.703 2.515-.703 1.47 0 2.5.657 1.047.656 1.547 1.906.516 1.234.453 2.89zm-6.015.5q-.078.828.156 1.28.235.438.75.438.36 0 .672-.297.328-.297.547-.859v-.047l.265-2.953q-.328-.172-.703-.172-.672 0-1.125.703-.453.688-.562 1.906zm14.094 2.437h-1.079v-7.219l-2.187.797v-.984l3.11-1.172h.156V132zm3.578-.563q0-.28.156-.468.172-.188.5-.188.344 0 .516.188.171.187.171.469 0 .265-.171.453-.172.172-.516.172-.328 0-.5-.172-.156-.188-.156-.453zm6.422.563h-1.079v-7.219l-2.187.797v-.984l3.11-1.172h.156V132zm3.937-4.281l.438-4.25h4.375v1h-3.454l-.265 2.328q.64-.375 1.437-.375 1.157 0 1.844.781.688.766.688 2.078 0 1.313-.72 2.078-.702.766-1.984.766-1.125 0-1.843-.625-.719-.64-.813-1.75h1.016q.11.734.531 1.11.422.374 1.11.374.75 0 1.187-.515.438-.516.438-1.422 0-.86-.47-1.375-.468-.516-1.25-.516-.702 0-1.109.297l-.28.234-.876-.218zm16.094 3.156q-.438.625-1.219.938-.781.312-1.812.312-1.032 0-1.844-.484-.813-.5-1.25-1.407-.438-.906-.453-2.093v-.735q0-1.937.89-3 .907-1.062 2.532-1.062 1.343 0 2.156.687.812.688 1 1.938h-1.125q-.328-1.688-2.016-1.688-1.14 0-1.718.797-.579.781-.594 2.297v.688q0 1.437.656 2.296.656.844 1.781.844.625 0 1.094-.14.484-.141.797-.485v-1.906h-1.969v-.922h3.094v3.125zm8.25 1.125h-1.125v-3.938h-4.313V132h-1.125v-8.531h1.125v3.672h4.313v-3.672h1.125V132zm3.297-.89h3.703v.89h-5.031v-.797l3.5-4.64h-3.454v-.907h4.813v.766l-3.531 4.687zm7.937-2.579q0-1.312.344-2.531.36-1.219 1.063-2.219.703-1 1.468-1.406l.219.719q-.86.656-1.406 2-.547 1.344-.594 3.015l-.016.5q0 2.266.828 3.922.5 1 1.188 1.563l-.219.656q-.781-.422-1.5-1.453-1.375-1.984-1.375-4.766zm7.032 1.969l2.437-7.031h1.234l-3.172 8.531h-.984l-3.156-8.531h1.219l2.421 7.031zm11.187-7.031v5.797q-.016 1.203-.766 1.984-.75.766-2.03.86l-.313.015q-1.391 0-2.235-.75-.828-.766-.828-2.094v-5.812h1.11v5.781q0 .922.5 1.438.515.515 1.453.515.968 0 1.468-.516.5-.515.5-1.437v-5.781h1.141zm3.125 7.61h4.047V132h-5.188v-8.531h1.141v7.61zm7.031-3.048l-1.047 1.078V132h-1.125v-8.531h1.125v4.219l3.797-4.22h1.36l-3.36 3.766 3.625 4.766h-1.343l-3.032-3.969zm10.547 1.735h-3.578l-.797 2.234h-1.156l3.25-8.531h.984l3.266 8.531h-1.156l-.813-2.234zm-3.234-.922h2.906l-1.453-3.985-1.453 3.985zm13.078 3.156h-1.125l-4.297-6.578V132h-1.14v-8.531h1.14l4.297 6.61v-6.61h1.125V132zm5.484.734h-.922l3.563-9.265h.922l-3.563 9.265zm9.25-5.53h.813q.781-.016 1.218-.407.438-.39.438-1.063 0-1.5-1.5-1.5-.703 0-1.125.407-.406.406-.406 1.062h-1.094q0-1.016.734-1.687.75-.672 1.891-.672 1.203 0 1.89.64.688.641.688 1.782 0 .562-.36 1.078-.359.515-.984.781.703.219 1.078.734.391.516.391 1.266 0 1.14-.75 1.828-.75.672-1.953.672-1.188 0-1.953-.656-.75-.656-.75-1.719h1.094q0 .672.437 1.078.438.406 1.188.406.78 0 1.187-.406.422-.422.422-1.187 0-.735-.453-1.125-.453-.407-1.328-.422h-.813v-.89zm11.016 4.796h-5.594v-.781l2.953-3.281q.657-.75.907-1.204.25-.468.25-.968 0-.672-.407-1.094-.39-.438-1.078-.438-.797 0-1.25.47-.453.452-.453 1.28h-1.078q0-1.187.75-1.906.765-.734 2.031-.734 1.203 0 1.89.625.688.625.688 1.672 0 1.25-1.61 3l-2.28 2.468h4.28V132zm3.781-3.188h-2.86v-.875h2.86v.876zm6.11.094q0 1.453-.672 2.344-.657.875-1.782.875-1.203 0-1.859-.86l-.063.735h-.984v-9h1.078v3.36q.657-.813 1.813-.813t1.812.875q.657.86.657 2.39v.094zm-1.079-.125q0-1.11-.437-1.703-.422-.61-1.219-.61-1.078 0-1.547.985v2.75q.5 1 1.547 1 .781 0 1.219-.61.437-.609.437-1.812zM1442.8 132h-1.078v-6.344h1.078V132zm-1.172-8.016q0-.265.156-.453.172-.187.485-.187.312 0 .468.187.172.188.172.453 0 .25-.172.438-.156.172-.468.172-.313 0-.485-.172-.156-.188-.156-.438zm4.469.141v1.531h1.172v.844h-1.172v3.922q0 .39.156.578.156.188.531.188.188 0 .516-.063V132q-.422.125-.828.125-.719 0-1.094-.438-.375-.453-.375-1.265V126.5h-1.156v-.844h1.156v-1.531h1.094zm5.734 8.61h-.922l3.563-9.266h.922l-3.563 9.265zm14.516-.735h-1.125v-3.938h-4.313V132h-1.125v-8.531h1.125v3.672h4.313v-3.672h1.125V132zm1.984-3.234q0-.922.36-1.672.375-.75 1.03-1.14.657-.407 1.485-.407 1.297 0 2.094.89.813.891.813 2.391v.078q0 .922-.36 1.656-.36.735-1.015 1.157-.657.406-1.516.406-1.281 0-2.094-.89-.797-.907-.797-2.391v-.078zm1.094.14q0 1.047.484 1.688.5.64 1.313.64.828 0 1.312-.64.485-.656.485-1.828 0-1.032-.5-1.672-.485-.656-1.313-.656-.797 0-1.297.64-.484.625-.484 1.828zm7.672-4.781v1.531h1.172v.844h-1.172v3.922q0 .39.156.578.156.188.531.188.188 0 .516-.063V132q-.422.125-.828.125-.719 0-1.094-.438-.375-.453-.375-1.265V126.5h-1.156v-.844h1.156v-1.531h1.094zm5.203 4.078q-1.438-.422-2.11-1.031-.656-.61-.656-1.5 0-1 .797-1.656.813-.672 2.11-.672.875 0 1.562.344.688.343 1.063.937.39.594.39 1.313h-1.14q0-.782-.5-1.22-.485-.437-1.375-.437-.829 0-1.297.375-.469.36-.469 1 0 .531.438.89.453.36 1.515.657 1.063.297 1.656.656.61.36.891.844.297.484.297 1.125 0 1.047-.813 1.672-.812.625-2.156.625-.89 0-1.656-.344-.75-.344-1.172-.922-.406-.593-.406-1.328h1.125q0 .766.578 1.219.578.453 1.531.453.89 0 1.36-.36.468-.374.468-1 0-.624-.437-.968-.438-.344-1.594-.672zm4.031.563q0-.922.36-1.672.375-.75 1.03-1.14.657-.407 1.485-.407 1.297 0 2.094.89.813.891.813 2.391v.078q0 .922-.36 1.656-.36.735-1.015 1.157-.657.406-1.516.406-1.281 0-2.094-.89-.797-.907-.797-2.391v-.078zm1.094.14q0 1.047.484 1.688.5.64 1.313.64.828 0 1.312-.64.485-.656.485-1.828 0-1.032-.5-1.672-.485-.656-1.313-.656-.797 0-1.297.64-.484.625-.484 1.828zm9.266-2.281q-.25-.031-.532-.031-1.078 0-1.453.906v4.5h-1.078v-6.344h1.047l.016.735q.53-.844 1.515-.844.313 0 .485.078v1zm2.406-2.5v1.531h1.172v.844h-1.172v3.922q0 .39.156.578.156.188.531.188.188 0 .516-.063V132q-.422.125-.828.125-.719 0-1.094-.438-.375-.453-.375-1.265V126.5h-1.156v-.844h1.156v-1.531h1.094zm5.031 4.469q0 1.312-.344 2.515-.343 1.188-1.062 2.203-.703 1.016-1.469 1.438l-.234-.656q.906-.688 1.453-2.14.547-1.47.562-3.235v-.188q0-1.234-.265-2.297-.25-1.062-.719-1.89-.453-.844-1.031-1.313l.234-.656q.766.422 1.469 1.422.703 1 1.047 2.219.36 1.203.36 2.578z"/>
  <path stroke="#00f" stroke-width="4" stroke-linecap="butt" d="M1183.8 152.5h12"/>
  <path fill="#757575" d="M1211.3 153.016q0 1.234-.39 2.125-.391.89-1.094 1.39l1.515 1.203-.765.703-1.797-1.421q-.422.109-.89.109-1 0-1.782-.5-.781-.5-1.219-1.406-.422-.922-.437-2.14v-.61q0-1.235.421-2.172.438-.938 1.22-1.438.78-.515 1.78-.515 1.032 0 1.813.5.781.5 1.203 1.437.422.938.422 2.188v.547zm-1.125-.563q0-1.5-.594-2.312-.593-.828-1.718-.828-1.063 0-1.672.812-.61.813-.625 2.25v.64q0 1.454.609 2.298.61.843 1.703.843 1.094 0 1.688-.781.593-.797.609-2.281v-.64zm6.36 3.922q-.626.75-1.86.75-1.016 0-1.547-.594-.531-.594-.531-1.75v-4.125h1.078v4.094q0 1.453 1.172 1.453 1.25 0 1.656-.937v-4.61h1.094V157h-1.031l-.032-.625zm7 .625q-.094-.188-.157-.672-.75.797-1.797.797-.937 0-1.547-.531-.593-.531-.593-1.36 0-.984.75-1.53.75-.548 2.125-.548h1.046v-.5q0-.562-.343-.89-.328-.344-1-.344-.578 0-.969.297-.39.281-.39.703h-1.094q0-.484.328-.922.343-.438.922-.688.578-.265 1.265-.265 1.11 0 1.719.547.625.547.656 1.5v2.922q0 .875.219 1.39V157h-1.14zm-1.798-.828q.516 0 .97-.266.452-.265.655-.687v-1.297h-.843q-2 0-2 1.172 0 .5.343.797.344.28.875.28zm4.625-2.39q0-1.47.688-2.345.688-.89 1.813-.89 1.109 0 1.765.75V148h1.078v9h-1l-.047-.688q-.656.813-1.812.813-1.094 0-1.797-.906-.688-.906-.688-2.36v-.078zm1.079.124q0 1.078.437 1.688.453.61 1.235.61 1.03 0 1.515-.938v-2.907q-.484-.89-1.5-.89-.797 0-1.25.61-.437.608-.437 1.827zm9.25-2.281q-.25-.031-.532-.031-1.078 0-1.453.906v4.5h-1.078v-6.344h1.047l.016.735q.53-.844 1.515-.844.313 0 .485.078v1zm.64 2.14q0-.921.36-1.671.375-.75 1.03-1.14.657-.407 1.485-.407 1.297 0 2.094.89.813.891.813 2.391v.078q0 .922-.36 1.656-.36.735-1.015 1.157-.657.406-1.516.406-1.281 0-2.094-.89-.797-.907-.797-2.391v-.078zm1.094.141q0 1.047.484 1.688.5.64 1.313.64.828 0 1.312-.64.485-.656.485-1.828 0-1.032-.5-1.672-.485-.656-1.313-.656-.797 0-1.297.64-.484.625-.484 1.828zm10.813-5.437l2.796 6.953 2.782-6.953h1.468V157h-1.125v-3.328l.11-3.578-2.813 6.906h-.86l-2.796-6.89.11 3.562V157h-1.126v-8.531h1.453zm11.828 8.531h-1.079v-7.219l-2.187.797v-.984l3.11-1.172h.156V157zm9.03 0h-5.593v-.781l2.953-3.281q.657-.75.907-1.204.25-.468.25-.968 0-.672-.407-1.094-.39-.438-1.078-.438-.797 0-1.25.47-.453.452-.453 1.28h-1.078q0-1.187.75-1.906.765-.734 2.031-.734 1.203 0 1.89.625.688.625.688 1.672 0 1.25-1.61 3l-2.28 2.468h4.28V157zm6.766-3.64q0 1.906-.656 2.843-.64.922-2.031.922-1.36 0-2.016-.906-.656-.906-.687-2.719v-1.438q0-1.89.64-2.796.657-.922 2.047-.922 1.375 0 2.032.89.656.875.671 2.72v1.405zm-1.093-1.485q0-1.375-.39-2-.376-.64-1.22-.64-.828 0-1.218.64-.375.625-.375 1.922v1.734q0 1.375.39 2.047.407.656 1.219.656.797 0 1.188-.625.39-.625.406-1.953v-1.781zm8.093 1.484q0 1.907-.656 2.844-.64.922-2.031.922-1.36 0-2.016-.906-.656-.906-.687-2.719v-1.438q0-1.89.64-2.796.657-.922 2.047-.922 1.375 0 2.032.89.656.875.671 2.72v1.405zm-1.093-1.484q0-1.375-.39-2-.376-.64-1.22-.64-.828 0-1.218.64-.375.625-.375 1.922v1.734q0 1.375.39 2.047.407.656 1.219.656.797 0 1.188-.625.39-.625.406-1.953v-1.781zm15.218 2.188q-.078 1.406-.718 2.234-.625.828-1.688.828-1.093 0-1.406-1-.313.5-.719.75-.406.25-.843.25-.829 0-1.266-.688-.422-.687-.313-1.875.094-.968.438-1.718.36-.766.922-1.203.562-.438 1.172-.438.484 0 .859.125t.844.5l-.313 3.25q-.11 1.344.75 1.344.672 0 1.078-.656.407-.657.438-1.703.125-2.282-.844-3.47-.953-1.202-2.906-1.202-1.188 0-2.11.578-.906.578-1.437 1.687-.516 1.094-.578 2.547-.078 1.453.344 2.531.421 1.063 1.28 1.625.876.563 2.095.563.53 0 1.062-.125.531-.125.875-.344l.219.688q-.36.218-.969.359-.594.156-1.203.156-1.469 0-2.531-.656-1.047-.656-1.578-1.906-.516-1.235-.454-2.89.079-1.61.72-2.892.655-1.296 1.765-2 1.125-.703 2.515-.703 1.47 0 2.5.657 1.047.656 1.547 1.906.516 1.234.453 2.89zm-6.015.5q-.078.828.156 1.28.235.438.75.438.36 0 .672-.297.328-.297.547-.859v-.047l.265-2.953q-.328-.172-.703-.172-.672 0-1.125.703-.453.688-.562 1.906zm14.094 2.437h-1.079v-7.219l-2.187.797v-.984l3.11-1.172h.156V157zm3.578-.563q0-.28.156-.468.172-.188.5-.188.344 0 .516.188.171.187.171.469 0 .265-.171.453-.172.172-.516.172-.328 0-.5-.172-.156-.188-.156-.453zm6.422.563h-1.079v-7.219l-2.187.797v-.984l3.11-1.172h.156V157zm3.937-4.281l.438-4.25h4.375v1h-3.454l-.265 2.328q.64-.375 1.437-.375 1.157 0 1.844.781.688.766.688 2.078 0 1.313-.72 2.078-.702.766-1.984.766-1.125 0-1.843-.625-.719-.64-.813-1.75h1.016q.11.734.531 1.11.422.374 1.11.374.75 0 1.187-.515.438-.516.438-1.422 0-.86-.47-1.375-.468-.516-1.25-.516-.702 0-1.109.297l-.28.234-.876-.218zm16.094 3.156q-.438.625-1.219.938-.781.312-1.812.312-1.032 0-1.844-.484-.813-.5-1.25-1.407-.438-.906-.453-2.093v-.735q0-1.937.89-3 .907-1.062 2.532-1.062 1.343 0 2.156.687.812.688 1 1.938h-1.125q-.328-1.688-2.016-1.688-1.14 0-1.718.797-.579.781-.594 2.297v.688q0 1.437.656 2.296.656.844 1.781.844.625 0 1.094-.14.484-.141.797-.485v-1.906h-1.969v-.922h3.094v3.125zm8.25 1.125h-1.125v-3.938h-4.313V157h-1.125v-8.531h1.125v3.672h4.313v-3.672h1.125V157zm3.297-.89h3.703v.89h-5.031v-.797l3.5-4.64h-3.454v-.907h4.813v.766l-3.531 4.687zm7.937-2.579q0-1.312.344-2.531.36-1.219 1.063-2.219.703-1 1.468-1.406l.219.719q-.86.656-1.406 2-.547 1.344-.594 3.015l-.016.5q0 2.266.828 3.922.5 1 1.188 1.563l-.219.656q-.781-.422-1.5-1.453-1.375-1.984-1.375-4.766zm10.485.766q-.157 1.344-1 2.094-.844.734-2.235.734-1.515 0-2.422-1.078-.906-1.094-.906-2.922v-.813q0-1.187.422-2.093.422-.906 1.203-1.39.781-.485 1.797-.485 1.36 0 2.172.765.828.766.969 2.094h-1.125q-.157-1.016-.641-1.469-.484-.453-1.375-.453-1.078 0-1.688.797-.609.797-.609 2.266v.828q0 1.39.578 2.219.578.812 1.625.812.938 0 1.438-.422.5-.437.672-1.484h1.125zm7.734-5.828v5.797q-.016 1.203-.766 1.984-.75.766-2.03.86l-.313.015q-1.391 0-2.235-.75-.828-.766-.828-2.094v-5.812h1.11v5.781q0 .922.5 1.438.515.515 1.453.515.968 0 1.468-.516.5-.515.5-1.437v-5.781h1.141zm1.984 8.531v-8.531h2.422q1.11 0 1.953.5.86.484 1.328 1.39.47.907.47 2.094v.531q0 1.22-.47 2.125-.453.907-1.328 1.391-.859.484-2 .5h-2.375zm1.125-7.61v6.688h1.188q1.297 0 2.015-.797.735-.812.735-2.312v-.5q0-1.453-.688-2.25-.672-.813-1.937-.828h-1.313zm11.594 5.376h-3.578l-.797 2.234h-1.156l3.25-8.531h.984l3.266 8.531h-1.156l-.813-2.234zm-3.234-.922h2.906l-1.453-3.985-1.453 3.985zm9.562 3.89h-.922l3.563-9.265h.922l-3.563 9.265zm9.25-5.53h.813q.781-.017 1.218-.407.438-.39.438-1.063 0-1.5-1.5-1.5-.703 0-1.125.407-.406.406-.406 1.062h-1.094q0-1.016.734-1.687.75-.672 1.891-.672 1.203 0 1.89.64.688.641.688 1.782 0 .562-.36 1.078-.359.515-.984.781.703.219 1.078.734.391.516.391 1.266 0 1.14-.75 1.828-.75.672-1.953.672-1.188 0-1.953-.656-.75-.656-.75-1.719h1.094q0 .672.437 1.078.438.406 1.188.406.78 0 1.187-.406.422-.422.422-1.187 0-.735-.453-1.125-.453-.407-1.328-.422h-.813v-.89zm11.016 4.796h-5.594v-.781l2.953-3.281q.657-.75.907-1.204.25-.468.25-.968 0-.672-.407-1.094-.39-.438-1.078-.438-.797 0-1.25.47-.453.452-.453 1.28h-1.078q0-1.187.75-1.906.765-.734 2.031-.734 1.203 0 1.89.625.688.625.688 1.672 0 1.25-1.61 3l-2.28 2.468h4.28V157zm3.781-3.188h-2.86v-.875h2.86v.875zm6.11.094q0 1.453-.672 2.344-.657.875-1.782.875-1.203 0-1.859-.86l-.063.735h-.984v-9h1.078v3.36q.657-.813 1.813-.813t1.812.875q.657.86.657 2.39v.094zm-1.079-.125q0-1.11-.437-1.703-.422-.61-1.219-.61-1.078 0-1.547.985v2.75q.5 1 1.547 1 .781 0 1.219-.61.437-.609.437-1.812zM1427.8 157h-1.078v-6.344h1.078V157zm-1.172-8.016q0-.265.156-.453.172-.187.485-.187.312 0 .468.187.172.188.172.453 0 .25-.172.438-.156.172-.468.172-.313 0-.485-.172-.156-.188-.156-.438zm4.469.141v1.531h1.172v.844h-1.172v3.922q0 .39.156.578.156.188.531.188.188 0 .516-.063V157q-.422.125-.828.125-.719 0-1.094-.438-.375-.453-.375-1.265V151.5h-1.156v-.844h1.156v-1.531h1.094zm5.734 8.61h-.922l3.563-9.266h.922l-3.563 9.265zm13.86-8.344h-2.75V157h-1.11v-7.61h-2.75v-.921h6.61v.922zm2.015 2.03q.719-.874 1.875-.874 2.016 0 2.032 2.266V157h-1.094v-4.203q0-.672-.313-1-.297-.328-.953-.328-.531 0-.937.281-.391.281-.61.734V157h-1.078v-9h1.078v3.422zm8.985.204q-.25-.031-.532-.031-1.078 0-1.453.906v4.5h-1.078v-6.344h1.047l.016.735q.53-.844 1.515-.844.313 0 .485.078v1zm4.843 4.75q-.625.75-1.859.75-1.016 0-1.547-.594-.531-.594-.531-1.75v-4.125h1.078v4.094q0 1.453 1.172 1.453 1.25 0 1.656-.937v-4.61h1.094V157h-1.031l-.032-.625zm6.782-1.063q0-.437-.344-.671-.328-.25-1.156-.422-.813-.172-1.297-.422-.485-.25-.719-.578-.219-.344-.219-.813 0-.781.657-1.312.656-.547 1.687-.547 1.078 0 1.734.562.672.547.672 1.407h-1.078q0-.438-.39-.75-.376-.328-.938-.328-.594 0-.938.265-.328.25-.328.656 0 .391.313.594.312.203 1.125.39.812.173 1.312.423t.735.609q.25.36.25.86 0 .859-.688 1.374-.672.516-1.75.516-.765 0-1.36-.266-.577-.28-.905-.765-.329-.485-.329-1.047h1.079q.03.547.437.875.406.312 1.078.312.61 0 .985-.25t.375-.672zm3.78-6.187v1.531h1.173v.844h-1.172v3.922q0 .39.156.578.156.188.531.188.188 0 .516-.063V157q-.422.125-.828.125-.719 0-1.094-.438-.375-.453-.375-1.265V151.5h-1.156v-.844h1.156v-1.531h1.094zm8.204 4.078q-1.438-.422-2.11-1.031-.656-.61-.656-1.5 0-1 .797-1.656.813-.672 2.11-.672.875 0 1.562.344.688.343 1.063.937.39.594.39 1.313h-1.14q0-.782-.5-1.22-.485-.437-1.375-.437-.829 0-1.297.375-.469.36-.469 1 0 .531.438.89.453.36 1.515.657 1.063.297 1.656.656.61.36.891.844.297.484.297 1.125 0 1.047-.813 1.672-.812.625-2.156.625-.89 0-1.656-.344-.75-.344-1.172-.922-.406-.593-.406-1.328h1.125q0 .766.578 1.219.578.453 1.531.453.89 0 1.36-.36.468-.374.468-1 0-.624-.437-.968-.438-.344-1.594-.672zm4.031.563q0-.922.36-1.672.375-.75 1.03-1.14.657-.407 1.485-.407 1.297 0 2.094.89.813.891.813 2.391v.078q0 .922-.36 1.656-.36.735-1.015 1.157-.657.406-1.516.406-1.281 0-2.094-.89-.797-.907-.797-2.391v-.078zm1.094.14q0 1.047.484 1.688.5.64 1.313.64.828 0 1.312-.64.485-.656.485-1.828 0-1.032-.5-1.672-.485-.656-1.313-.656-.797 0-1.297.64-.484.625-.484 1.828zm9.266-2.281q-.25-.031-.532-.031-1.078 0-1.453.906v4.5h-1.078v-6.344h1.047l.016.735q.53-.844 1.515-.844.313 0 .485.078v1zm2.406-2.5v1.531h1.172v.844h-1.172v3.922q0 .39.156.578.156.188.531.188.188 0 .516-.063V157q-.422.125-.828.125-.719 0-1.094-.438-.375-.453-.375-1.265V151.5h-1.156v-.844h1.156v-1.531h1.094zm5.031 4.469q0 1.312-.344 2.515-.343 1.188-1.062 2.203-.703 1.016-1.469 1.438l-.234-.656q.906-.688 1.453-2.14.547-1.47.562-3.235v-.188q0-1.234-.265-2.297-.25-1.062-.719-1.89-.453-.844-1.031-1.313l.234-.656q.766.422 1.469 1.422.703 1 1.047 2.219.36 1.203.36 2.578z"/>
  <path stroke="#f0f" stroke-width="4" stroke-linecap="butt" d="M1183.8 177.5h12"/>
  <path fill="#757575" d="M1211.3 178.016q0 1.234-.39 2.125-.391.89-1.094 1.39l1.515 1.203-.765.703-1.797-1.421q-.422.109-.89.109-1 0-1.782-.5-.781-.5-1.219-1.406-.422-.922-.437-2.14v-.61q0-1.235.421-2.172.438-.938 1.22-1.438.78-.515 1.78-.515 1.032 0 1.813.5.781.5 1.203 1.437.422.938.422 2.188v.547zm-1.125-.563q0-1.5-.594-2.312-.593-.828-1.718-.828-1.063 0-1.672.812-.61.813-.625 2.25v.64q0 1.454.609 2.298.61.843 1.703.843 1.094 0 1.688-.781.593-.797.609-2.281v-.64zm6.36 3.922q-.626.75-1.86.75-1.016 0-1.547-.594-.531-.594-.531-1.75v-4.125h1.078v4.094q0 1.453 1.172 1.453 1.25 0 1.656-.937v-4.61h1.094V182h-1.031l-.032-.625zm7 .625q-.094-.188-.157-.672-.75.797-1.797.797-.937 0-1.547-.531-.593-.531-.593-1.36 0-.984.75-1.53.75-.548 2.125-.548h1.046v-.5q0-.562-.343-.89-.328-.344-1-.344-.578 0-.969.297-.39.281-.39.703h-1.094q0-.484.328-.922.343-.438.922-.688.578-.265 1.265-.265 1.11 0 1.719.547.625.547.656 1.5v2.922q0 .875.219 1.39V182h-1.14zm-1.798-.828q.516 0 .97-.266.452-.265.655-.687v-1.297h-.843q-2 0-2 1.172 0 .5.343.797.344.28.875.28zm4.625-2.39q0-1.47.688-2.345.688-.89 1.813-.89 1.109 0 1.765.75V173h1.078v9h-1l-.047-.688q-.656.813-1.812.813-1.094 0-1.797-.906-.688-.906-.688-2.36v-.078zm1.079.124q0 1.078.437 1.688.453.61 1.235.61 1.03 0 1.515-.938v-2.907q-.484-.89-1.5-.89-.797 0-1.25.61-.437.608-.437 1.827zm9.25-2.281q-.25-.031-.532-.031-1.078 0-1.453.906v4.5h-1.078v-6.344h1.047l.016.735q.53-.844 1.515-.844.313 0 .485.078v1zm.64 2.14q0-.921.36-1.671.375-.75 1.03-1.14.657-.407 1.485-.407 1.297 0 2.094.89.813.891.813 2.391v.078q0 .922-.36 1.656-.36.735-1.015 1.157-.657.406-1.516.406-1.281 0-2.094-.89-.797-.907-.797-2.391v-.078zm1.094.141q0 1.047.484 1.688.5.64 1.313.64.828 0 1.312-.64.485-.656.485-1.828 0-1.032-.5-1.672-.485-.656-1.313-.656-.797 0-1.297.64-.484.625-.484 1.828zm10.813-5.437l2.796 6.953 2.782-6.953h1.468V182h-1.125v-3.328l.11-3.578-2.813 6.906h-.86l-2.796-6.89.11 3.562V182h-1.126v-8.531h1.453zm11.828 8.531h-1.079v-7.219l-2.187.797v-.984l3.11-1.172h.156V182zm9.03 0h-5.593v-.781l2.953-3.281q.657-.75.907-1.204.25-.468.25-.968 0-.672-.407-1.094-.39-.438-1.078-.438-.797 0-1.25.47-.453.452-.453 1.28h-1.078q0-1.187.75-1.906.765-.734 2.031-.734 1.203 0 1.89.625.688.625.688 1.672 0 1.25-1.61 3l-2.28 2.468h4.28V182zm6.766-3.64q0 1.906-.656 2.843-.64.922-2.031.922-1.36 0-2.016-.906-.656-.906-.687-2.719v-1.438q0-1.89.64-2.796.657-.922 2.047-.922 1.375 0 2.032.89.656.875.671 2.72v1.405zm-1.093-1.485q0-1.375-.39-2-.376-.64-1.22-.64-.828 0-1.218.64-.375.625-.375 1.922v1.734q0 1.375.39 2.047.407.656 1.219.656.797 0 1.188-.625.39-.625.406-1.953v-1.781zm8.093 1.484q0 1.907-.656 2.844-.64.922-2.031.922-1.36 0-2.016-.906-.656-.906-.687-2.719v-1.438q0-1.89.64-2.796.657-.922 2.047-.922 1.375 0 2.032.89.656.875.671 2.72v1.405zm-1.093-1.484q0-1.375-.39-2-.376-.64-1.22-.64-.828 0-1.218.64-.375.625-.375 1.922v1.734q0 1.375.39 2.047.407.656 1.219.656.797 0 1.188-.625.39-.625.406-1.953v-1.781zm15.218 2.188q-.078 1.406-.718 2.234-.625.828-1.688.828-1.093 0-1.406-1-.313.5-.719.75-.406.25-.843.25-.829 0-1.266-.688-.422-.687-.313-1.875.094-.968.438-1.718.36-.766.922-1.203.562-.438 1.172-.438.484 0 .859.125t.844.5l-.313 3.25q-.11 1.344.75 1.344.672 0 1.078-.656.407-.657.438-1.703.125-2.282-.844-3.47-.953-1.202-2.906-1.202-1.188 0-2.11.578-.906.578-1.437 1.687-.516 1.094-.578 2.547-.078 1.453.344 2.531.421 1.063 1.28 1.625.876.563 2.095.563.53 0 1.062-.125.531-.125.875-.344l.219.688q-.36.218-.969.359-.594.156-1.203.156-1.469 0-2.531-.656-1.047-.656-1.578-1.906-.516-1.235-.454-2.89.079-1.61.72-2.892.655-1.296 1.765-2 1.125-.703 2.515-.703 1.47 0 2.5.657 1.047.656 1.547 1.906.516 1.234.453 2.89zm-6.015.5q-.078.828.156 1.28.235.438.75.438.36 0 .672-.297.328-.297.547-.859v-.047l.265-2.953q-.328-.172-.703-.172-.672 0-1.125.703-.453.688-.562 1.906zm14.094 2.437h-1.079v-7.219l-2.187.797v-.984l3.11-1.172h.156V182zm3.578-.563q0-.28.156-.468.172-.188.5-.188.344 0 .516.188.171.187.171.469 0 .265-.171.453-.172.172-.516.172-.328 0-.5-.172-.156-.188-.156-.453zm6.422.563h-1.079v-7.219l-2.187.797v-.984l3.11-1.172h.156V182zm3.937-4.281l.438-4.25h4.375v1h-3.454l-.265 2.328q.64-.375 1.437-.375 1.157 0 1.844.781.688.766.688 2.078 0 1.313-.72 2.078-.702.766-1.984.766-1.125 0-1.843-.625-.719-.64-.813-1.75h1.016q.11.734.531 1.11.422.374 1.11.374.75 0 1.187-.515.438-.516.438-1.422 0-.86-.47-1.375-.468-.516-1.25-.516-.702 0-1.109.297l-.28.234-.876-.218zm16.094 3.156q-.438.625-1.219.938-.781.312-1.812.312-1.032 0-1.844-.484-.813-.5-1.25-1.407-.438-.906-.453-2.093v-.735q0-1.937.89-3 .907-1.062 2.532-1.062 1.343 0 2.156.687.812.688 1 1.938h-1.125q-.328-1.688-2.016-1.688-1.14 0-1.718.797-.579.781-.594 2.297v.688q0 1.437.656 2.296.656.844 1.781.844.625 0 1.094-.14.484-.141.797-.485v-1.906h-1.969v-.922h3.094v3.125zm8.25 1.125h-1.125v-3.938h-4.313V182h-1.125v-8.531h1.125v3.672h4.313v-3.672h1.125V182zm3.297-.89h3.703v.89h-5.031v-.797l3.5-4.64h-3.454v-.907h4.813v.766l-3.531 4.687zm7.937-2.579q0-1.312.344-2.531.36-1.219 1.063-2.219.703-1 1.468-1.406l.219.719q-.86.656-1.406 2-.547 1.344-.594 3.015l-.016.5q0 2.266.828 3.922.5 1 1.188 1.563l-.219.656q-.781-.422-1.5-1.453-1.375-1.984-1.375-4.766zm10.485.766q-.157 1.344-1 2.094-.844.734-2.235.734-1.515 0-2.422-1.078-.906-1.094-.906-2.922v-.813q0-1.187.422-2.093.422-.906 1.203-1.39.781-.485 1.797-.485 1.36 0 2.172.765.828.766.969 2.094h-1.125q-.157-1.016-.641-1.469-.484-.453-1.375-.453-1.078 0-1.688.797-.609.797-.609 2.266v.828q0 1.39.578 2.219.578.812 1.625.812.938 0 1.438-.422.5-.437.672-1.484h1.125zm7.734-5.828v5.797q-.016 1.203-.766 1.984-.75.766-2.03.86l-.313.015q-1.391 0-2.235-.75-.828-.766-.828-2.094v-5.812h1.11v5.781q0 .922.5 1.438.515.515 1.453.515.968 0 1.468-.516.5-.515.5-1.437v-5.781h1.141zm1.984 8.531v-8.531h2.422q1.11 0 1.953.5.86.484 1.328 1.39.47.907.47 2.094v.531q0 1.22-.47 2.125-.453.907-1.328 1.391-.859.484-2 .5h-2.375zm1.125-7.61v6.688h1.188q1.297 0 2.015-.797.735-.812.735-2.312v-.5q0-1.453-.688-2.25-.672-.813-1.937-.828h-1.313zm11.594 5.376h-3.578l-.797 2.234h-1.156l3.25-8.531h.984l3.266 8.531h-1.156l-.813-2.234zm-3.234-.922h2.906l-1.453-3.985-1.453 3.985zm9.562 3.89h-.922l3.563-9.265h.922l-3.563 9.265zm9.25-5.53h.813q.781-.017 1.218-.407.438-.39.438-1.063 0-1.5-1.5-1.5-.703 0-1.125.407-.406.406-.406 1.062h-1.094q0-1.016.734-1.687.75-.672 1.891-.672 1.203 0 1.89.64.688.641.688 1.782 0 .562-.36 1.078-.359.515-.984.781.703.219 1.078.734.391.516.391 1.266 0 1.14-.75 1.828-.75.672-1.953.672-1.188 0-1.953-.656-.75-.656-.75-1.719h1.094q0 .672.437 1.078.438.406 1.188.406.78 0 1.187-.406.422-.422.422-1.187 0-.735-.453-1.125-.453-.407-1.328-.422h-.813v-.89zm11.016 4.796h-5.594v-.781l2.953-3.281q.657-.75.907-1.204.25-.468.25-.968 0-.672-.407-1.094-.39-.438-1.078-.438-.797 0-1.25.47-.453.452-.453 1.28h-1.078q0-1.187.75-1.906.765-.734 2.031-.734 1.203 0 1.89.625.688.625.688 1.672 0 1.25-1.61 3l-2.28 2.468h4.28V182zm3.781-3.188h-2.86v-.875h2.86v.875zm6.11.094q0 1.453-.672 2.344-.657.875-1.782.875-1.203 0-1.859-.86l-.063.735h-.984v-9h1.078v3.36q.657-.813 1.813-.813t1.812.875q.657.86.657 2.39v.094zm-1.079-.125q0-1.11-.437-1.703-.422-.61-1.219-.61-1.078 0-1.547.985v2.75q.5 1 1.547 1 .781 0 1.219-.61.437-.609.437-1.812zM1427.8 182h-1.078v-6.344h1.078V182zm-1.172-8.016q0-.265.156-.453.172-.187.485-.187.312 0 .468.187.172.188.172.453 0 .25-.172.438-.156.172-.468.172-.313 0-.485-.172-.156-.188-.156-.438zm4.469.141v1.531h1.172v.844h-1.172v3.922q0 .39.156.578.156.188.531.188.188 0 .516-.063V182q-.422.125-.828.125-.719 0-1.094-.438-.375-.453-.375-1.265V176.5h-1.156v-.844h1.156v-1.531h1.094zm5.734 8.61h-.922l3.563-9.266h.922l-3.563 9.265zm14.235-3.438q-.157 1.344-1 2.094-.844.734-2.235.734-1.515 0-2.422-1.078-.906-1.094-.906-2.922v-.813q0-1.187.422-2.093.422-.906 1.203-1.39.781-.485 1.797-.485 1.36 0 2.172.765.828.766.969 2.094h-1.125q-.157-1.016-.641-1.469-.484-.453-1.375-.453-1.078 0-1.688.797-.609.797-.609 2.266v.828q0 1.39.578 2.219.578.812 1.625.812.938 0 1.438-.422.5-.437.672-1.484h1.125zm7.734-5.828v5.797q-.016 1.203-.766 1.984-.75.766-2.03.86l-.313.015q-1.391 0-2.235-.75-.828-.766-.828-2.094v-5.812h1.11v5.781q0 .922.5 1.438.515.515 1.453.515.968 0 1.468-.516.5-.515.5-1.437v-5.781h1.141zm1.984 8.531v-8.531h2.797q1.39 0 2.078.578.703.562.703 1.687 0 .61-.343 1.078-.328.454-.922.704.703.187 1.094.734.406.531.406 1.281 0 1.156-.75 1.813-.735.656-2.094.656h-2.969zm1.125-3.984v3.062h1.86q.797 0 1.25-.406.453-.406.453-1.125 0-1.531-1.688-1.531h-1.875zm0-.907h1.703q.735 0 1.172-.359.453-.375.453-1.016 0-.703-.406-1.015-.406-.328-1.25-.328h-1.672v2.718zm12.016 1.438h-2.016V182h-1.125v-8.531h2.828q1.438 0 2.204.656.78.656.78 1.906 0 .797-.437 1.39-.422.595-1.187.892l2 3.609V182h-1.203l-1.844-3.453zm-2.016-.922h1.735q.843 0 1.328-.422.5-.437.5-1.172 0-.781-.469-1.203-.469-.422-1.36-.437h-1.734v3.234zm9.625 4.375q-.093-.188-.156-.672-.75.797-1.797.797-.937 0-1.547-.531-.593-.531-.593-1.36 0-.984.75-1.53.75-.548 2.125-.548h1.046v-.5q0-.562-.343-.89-.328-.344-1-.344-.578 0-.969.297-.39.281-.39.703h-1.094q0-.484.328-.922.343-.438.922-.688.578-.265 1.265-.265 1.11 0 1.719.547.625.547.656 1.5v2.922q0 .875.219 1.39V182h-1.14zm-1.797-.828q.516 0 .97-.266.452-.265.655-.687v-1.297h-.843q-2 0-2 1.172 0 .5.343.797.344.28.875.28zm4.625-2.39q0-1.47.688-2.345.688-.89 1.813-.89 1.109 0 1.765.75V173h1.078v9h-1l-.047-.688q-.656.813-1.812.813-1.094 0-1.797-.906-.688-.906-.688-2.36v-.078zm1.079.124q0 1.078.437 1.688.453.61 1.235.61 1.03 0 1.515-.938v-2.907q-.484-.89-1.5-.89-.797 0-1.25.61-.437.608-.437 1.827zM1492.8 182h-1.078v-6.344h1.078V182zm-1.172-8.016q0-.265.156-.453.172-.187.485-.187.312 0 .468.187.172.188.172.453 0 .25-.172.438-.156.172-.468.172-.313 0-.485-.172-.156-.188-.156-.438zm5.125 3.985l1.406-2.313h1.266l-2.078 3.14 2.14 3.204h-1.25l-1.468-2.375L1495.3 182h-1.266l2.141-3.203-2.063-3.14h1.25l1.391 2.312zm9.547.234q-1.438-.422-2.11-1.031-.656-.61-.656-1.5 0-1 .797-1.656.813-.672 2.11-.672.875 0 1.562.344.688.343 1.063.937.39.594.39 1.313h-1.14q0-.782-.5-1.22-.485-.437-1.375-.437-.829 0-1.297.375-.469.36-.469 1 0 .531.438.89.453.36 1.515.657 1.063.297 1.656.656.61.36.891.844.297.484.297 1.125 0 1.047-.813 1.672-.812.625-2.156.625-.89 0-1.656-.344-.75-.344-1.172-.922-.406-.593-.406-1.328h1.125q0 .766.578 1.219.578.453 1.531.453.89 0 1.36-.36.468-.374.468-1 0-.624-.437-.968-.438-.344-1.594-.672zm4.031.563q0-.922.36-1.672.375-.75 1.03-1.14.657-.407 1.485-.407 1.297 0 2.094.89.813.891.813 2.391v.078q0 .922-.36 1.656-.36.735-1.015 1.157-.657.406-1.516.406-1.281 0-2.094-.89-.797-.907-.797-2.391v-.078zm1.094.14q0 1.047.484 1.688.5.64 1.313.64.828 0 1.312-.64.485-.656.485-1.828 0-1.032-.5-1.672-.485-.656-1.313-.656-.797 0-1.297.64-.484.625-.484 1.828zm9.266-2.281q-.25-.031-.532-.031-1.078 0-1.453.906v4.5h-1.078v-6.344h1.047l.016.735q.53-.844 1.515-.844.313 0 .485.078v1zm2.406-2.5v1.531h1.172v.844h-1.172v3.922q0 .39.156.578.156.188.531.188.188 0 .516-.063V182q-.422.125-.828.125-.719 0-1.094-.438-.375-.453-.375-1.265V176.5h-1.156v-.844h1.156v-1.531h1.094zm5.031 4.469q0 1.312-.344 2.515-.343 1.188-1.062 2.203-.703 1.016-1.469 1.438l-.234-.656q.906-.688 1.453-2.14.547-1.47.562-3.235v-.188q0-1.234-.265-2.297-.25-1.062-.719-1.89-.453-.844-1.031-1.313l.234-.656q.766.422 1.469 1.422.703 1 1.047 2.219.36 1.203.36 2.578z"/>
  <path fill="#000" d="M53.84 65.2h-3.39V53.372H37.544V65.2h-3.375V39.606h3.375v11H50.45v-11h3.39V65.2zm4.954-9.688q0-2.796 1.094-5.03 1.109-2.235 3.062-3.438 1.969-1.219 4.484-1.219 3.875 0 6.282 2.687 2.406 2.688 2.406 7.157v.234q0 2.781-1.078 4.984-1.063 2.204-3.047 3.438-1.969 1.234-4.531 1.234-3.86 0-6.266-2.687-2.406-2.703-2.406-7.125v-.235zm3.281.391q0 3.156 1.469 5.078 1.469 1.922 3.922 1.922 2.484 0 3.937-1.937 1.453-1.954 1.453-5.454 0-3.125-1.484-5.062-1.484-1.953-3.938-1.953-2.406 0-3.89 1.922-1.469 1.906-1.469 5.484zm23-14.328v4.61h3.547V48.7h-3.547v11.781q0 1.156.469 1.735.484.562 1.625.562.562 0 1.547-.219V65.2q-1.282.36-2.5.36-2.172 0-3.282-1.313-1.109-1.328-1.109-3.766V48.7h-3.469v-2.516h3.469v-4.609h3.25zm15.64 12.219q-4.343-1.25-6.328-3.063-1.968-1.828-1.968-4.5 0-3.015 2.406-5 2.422-1.984 6.297-1.984 2.625 0 4.687 1.031 2.079 1.016 3.204 2.813 1.14 1.78 1.14 3.921h-3.39q0-2.328-1.485-3.656-1.469-1.328-4.156-1.328-2.5 0-3.906 1.11-1.391 1.093-1.391 3.046 0 1.563 1.328 2.641t4.516 1.984q3.187.891 4.984 1.97 1.813 1.077 2.672 2.53.875 1.438.875 3.391 0 3.11-2.422 4.984-2.422 1.875-6.484 1.875-2.64 0-4.922-1.015-2.281-1.016-3.531-2.766-1.235-1.766-1.235-4h3.39q0 2.328 1.72 3.672 1.718 1.344 4.578 1.344 2.672 0 4.094-1.094 1.421-1.094 1.421-2.969 0-1.875-1.328-2.906-1.312-1.031-4.765-2.031zm12.079 1.718q0-2.796 1.094-5.03 1.109-2.235 3.062-3.438 1.969-1.219 4.484-1.219 3.875 0 6.282 2.687 2.406 2.688 2.406 7.157v.234q0 2.781-1.078 4.984-1.063 2.204-3.047 3.438-1.969 1.234-4.531 1.234-3.86 0-6.266-2.687-2.406-2.703-2.406-7.125v-.235zm3.281.391q0 3.156 1.469 5.078 1.469 1.922 3.922 1.922 2.484 0 3.937-1.937 1.453-1.954 1.453-5.454 0-3.125-1.484-5.062-1.484-1.953-3.938-1.953-2.406 0-3.89 1.922-1.469 1.906-1.469 5.484zm27.781-6.812q-.734-.11-1.594-.11-3.203 0-4.343 2.719v13.5h-3.25V46.184h3.156l.047 2.188q1.61-2.547 4.547-2.547.937 0 1.437.25v3.016zm7.219-7.516v4.61h3.547V48.7h-3.547v11.781q0 1.156.469 1.735.484.562 1.625.562.562 0 1.547-.219V65.2q-1.282.36-2.5.36-2.172 0-3.282-1.313-1.109-1.328-1.109-3.766V48.7h-3.469v-2.516h3.469v-4.609h3.25zM168.169 65.2V39.606h7.234q3.328 0 5.89 1.485 2.579 1.468 3.97 4.203 1.406 2.718 1.421 6.25v1.625q0 3.625-1.406 6.36-1.39 2.718-3.984 4.187-2.594 1.453-6.032 1.484h-7.093zm3.375-22.813v20.047h3.547q3.906 0 6.078-2.422 2.172-2.421 2.172-6.906v-1.5q0-4.36-2.047-6.765-2.047-2.422-5.813-2.454h-3.937zm31.86 20.938q-1.892 2.234-5.579 2.234-3.031 0-4.625-1.765-1.594-1.782-1.61-5.235V46.184h3.25v12.282q0 4.328 3.516 4.328 3.735 0 4.953-2.782V46.184h3.266V65.2h-3.094l-.078-1.875zm17.452-14.234q-.734-.11-1.594-.11-3.203 0-4.343 2.719v13.5h-3.25V46.184h3.156l.047 2.188q1.61-2.547 4.547-2.547.937 0 1.437.25v3.016zM235.403 65.2q-.281-.563-.453-2-2.266 2.36-5.422 2.36-2.812 0-4.61-1.594-1.796-1.594-1.796-4.047 0-2.969 2.25-4.61 2.265-1.64 6.36-1.64h3.155v-1.5q0-1.703-1.015-2.703-1.016-1.016-3-1.016-1.75 0-2.922.875-1.172.875-1.172 2.125h-3.281q0-1.422 1.015-2.75 1.016-1.328 2.735-2.094 1.734-.781 3.812-.781 3.297 0 5.157 1.656 1.859 1.64 1.937 4.516v8.75q0 2.625.656 4.172v.281h-3.406zm-5.39-2.484q1.53 0 2.89-.782 1.375-.797 1.984-2.062v-3.906h-2.546q-5.97 0-5.97 3.5 0 1.53 1.016 2.39 1.016.86 2.625.86zm18.062-21.141v4.61h3.547V48.7h-3.547v11.781q0 1.156.469 1.735.484.562 1.625.562.562 0 1.547-.219V65.2q-1.282.36-2.5.36-2.172 0-3.282-1.313-1.109-1.328-1.109-3.766V48.7h-3.469v-2.516h3.469v-4.609h3.25zM259.2 65.2h-3.25V46.184h3.25V65.2zm-3.516-24.063q0-.796.485-1.343.484-.547 1.422-.547.953 0 1.437.547.5.547.5 1.343 0 .782-.5 1.313-.484.531-1.437.531-.938 0-1.422-.531-.485-.531-.485-1.313zm8.11 14.375q0-2.796 1.094-5.03 1.109-2.235 3.062-3.438 1.969-1.219 4.484-1.219 3.875 0 6.282 2.687 2.406 2.688 2.406 7.157v.234q0 2.781-1.078 4.984-1.063 2.204-3.047 3.438-1.969 1.234-4.531 1.234-3.86 0-6.266-2.687-2.406-2.703-2.406-7.125v-.235zm3.281.391q0 3.156 1.469 5.078 1.469 1.922 3.922 1.922 2.484 0 3.937-1.937 1.453-1.954 1.453-5.454 0-3.125-1.484-5.062-1.485-1.953-3.938-1.953-2.406 0-3.89 1.922-1.469 1.906-1.469 5.484zm21.656-9.719l.11 2.391q2.187-2.75 5.703-2.75 6.031 0 6.078 6.812V65.2h-3.25V52.606q-.016-2.047-.938-3.031-.922-.984-2.875-.984-1.593 0-2.797.843-1.187.844-1.843 2.22V65.2h-3.25V46.184h3.062zm32.703 9.47h-8.578v-2.657h8.578v2.656zm32.407 9.546h-3.391l-12.89-19.719V65.2h-3.391V39.606h3.39l12.922 19.813V39.606h3.36V65.2zm14.796-4.484l7.313-21.11h3.703l-9.5 25.594h-2.984L357.7 39.606h3.672l7.265 21.11zm18.157 4.484h-3.375V39.606h3.375V65.2zm6.375 0V39.606h7.234q3.328 0 5.89 1.485 2.579 1.468 3.97 4.203 1.406 2.718 1.421 6.25v1.625q0 3.625-1.406 6.36-1.39 2.718-3.984 4.187-2.594 1.453-6.031 1.484h-7.094zm3.375-22.813v20.047h3.547q3.906 0 6.078-2.422 2.172-2.421 2.172-6.906v-1.5q0-4.36-2.047-6.765-2.047-2.422-5.813-2.454h-3.937zm24.25 22.813h-3.375V39.606h3.375V65.2zm20.515-6.688h-10.734l-2.406 6.688H424.7l9.766-25.594h2.953l9.797 25.594h-3.47l-2.437-6.688zm-9.703-2.765h8.703l-4.359-11.969-4.344 11.969zm33.828-.094h-8.578v-2.656h8.578v2.656zm16.625-4.828h2.438q2.312-.047 3.625-1.219 1.312-1.172 1.312-3.187 0-4.5-4.484-4.5-2.11 0-3.36 1.218-1.25 1.204-1.25 3.188h-3.265q0-3.047 2.219-5.063 2.234-2.015 5.656-2.015 3.625 0 5.672 1.922 2.062 1.922 2.062 5.328 0 1.672-1.078 3.234-1.078 1.563-2.937 2.344 2.11.656 3.25 2.203 1.156 1.547 1.156 3.781 0 3.453-2.25 5.485-2.25 2.015-5.86 2.015-3.593 0-5.859-1.953-2.25-1.953-2.25-5.156h3.266q0 2.016 1.312 3.234 1.328 1.22 3.547 1.22 2.344 0 3.594-1.235t1.25-3.532q0-2.234-1.375-3.421-1.36-1.204-3.953-1.235h-2.438v-2.656zM514.091 65.2h-16.766v-2.344l8.86-9.844q1.968-2.234 2.718-3.625.75-1.39.75-2.89 0-2-1.219-3.281-1.203-1.297-3.234-1.297-2.422 0-3.766 1.39-1.343 1.375-1.343 3.844h-3.25q0-3.547 2.265-5.719 2.281-2.187 6.094-2.187 3.578 0 5.64 1.875 2.079 1.875 2.079 4.984 0 3.781-4.813 9l-6.86 7.438h12.845V65.2zm10.343-9.547h-8.578v-2.656h8.578v2.656zm19.329.25q0 4.36-2 7.016-2 2.64-5.375 2.64-3.61 0-5.579-2.562l-.156 2.203h-2.984v-27h3.25v10.078q1.969-2.453 5.422-2.453 3.468 0 5.437 2.625 1.985 2.61 1.985 7.172v.281zm-3.25-.375q0-3.312-1.282-5.125-1.281-1.812-3.687-1.812-3.219 0-4.625 2.984v8.234q1.484 2.985 4.656 2.985 2.328 0 3.625-1.813 1.313-1.812 1.313-5.453zM551.2 65.2h-3.25V46.184h3.25V65.2zm-3.516-24.063q0-.796.485-1.343.484-.547 1.422-.547.953 0 1.437.547.5.547.5 1.343 0 .782-.5 1.313-.484.531-1.437.531-.938 0-1.422-.531-.485-.531-.485-1.313zm13.391.438v4.61h3.547V48.7h-3.547v11.781q0 1.156.469 1.735.484.562 1.625.562.562 0 1.547-.219V65.2q-1.282.36-2.5.36-2.172 0-3.282-1.313-1.109-1.328-1.109-3.766V48.7h-3.469v-2.516h3.469v-4.609h3.25zm23.594 11.719l-3.125 3.25V65.2h-3.375V39.606h3.375v12.656l11.375-12.656h4.078l-10.078 11.297L597.794 65.2h-4.047l-9.078-11.906zm23.89 12.265q-3.875 0-6.296-2.547-2.422-2.546-2.422-6.796v-.594q0-2.828 1.078-5.047 1.078-2.234 3.015-3.484 1.954-1.266 4.22-1.266 3.702 0 5.75 2.453 2.062 2.438 2.062 6.984v1.36H603.09q.062 2.812 1.64 4.547 1.578 1.734 4 1.734 1.719 0 2.907-.703 1.203-.703 2.109-1.875l1.984 1.547q-2.39 3.687-7.172 3.687zm-.406-17.062q-1.969 0-3.312 1.437-1.328 1.438-1.641 4.016h9.516v-.25q-.141-2.469-1.344-3.828-1.188-1.375-3.219-1.375zm17.735 11.937l4.421-14.25h3.485l-7.64 21.954q-1.782 4.75-5.641 4.75l-.625-.063-1.204-.219v-2.64l.875.062q1.657 0 2.579-.672.921-.656 1.515-2.437l.719-1.938-6.781-18.797h3.547l4.75 14.25zm21.843-.28q0-1.313-1-2.048-.984-.734-3.453-1.25-2.469-.531-3.922-1.265-1.453-.75-2.14-1.766-.688-1.016-.688-2.422 0-2.344 1.969-3.953 1.984-1.625 5.062-1.625 3.235 0 5.235 1.672 2.015 1.672 2.015 4.265h-3.265q0-1.328-1.14-2.296-1.126-.97-2.845-.97-1.78 0-2.78.782-1 .766-1 2.016 0 1.172.921 1.781.938.594 3.375 1.14 2.438.547 3.938 1.297 1.515.75 2.234 1.829.734 1.062.734 2.578 0 2.562-2.047 4.11-2.03 1.53-5.28 1.53-2.282 0-4.048-.812-1.75-.813-2.75-2.266-.984-1.453-.984-3.14h3.25q.094 1.64 1.312 2.609 1.22.953 3.22.953 1.843 0 2.952-.75 1.125-.75 1.125-2z"/>
</svg>
