<?xml version="1.0" encoding="UTF-8"?>
<svg fill="none" stroke-linecap="square" stroke-miterlimit="10" version="1.1" viewBox="0.0 250.0 960.0 170.0" xmlns="http://www.w3.org/2000/svg">
<clipPath id="a">
<path d="m0 0h960v720h-960v-720z"/>
</clipPath>
<g clip-path="url(#a)">
<path d="m0 0h960v720h-960z" fill="#000" fill-opacity="0" fill-rule="evenodd"/>
<path d="m57.339 342.03c0-7.6276 6.1834-13.811 13.811-13.811h155.4c3.6629 0 7.1758 1.4551 9.7659 4.0452 2.5901 2.5901 4.0452 6.103 4.0452 9.7659v55.244c0 7.6276-6.1834 13.811-13.811 13.811h-155.4c-7.6276 0-13.811-6.1834-13.811-13.811z" fill="#cfe2f3" fill-rule="evenodd"/>
<path d="m57.339 342.03c0-7.6276 6.1834-13.811 13.811-13.811h155.4c3.6629 0 7.1758 1.4551 9.7659 4.0452 2.5901 2.5901 4.0452 6.103 4.0452 9.7659v55.244c0 7.6276-6.1834 13.811-13.811 13.811h-155.4c-7.6276 0-13.811-6.1834-13.811-13.811z" fill-rule="evenodd" stroke="#000" stroke-linecap="butt" stroke-linejoin="round"/>
<path d="m82.829 363.22h2.6875v7.2344q0 1.7188 0.10938 2.2344 0.17188 0.82812 0.8125 1.3281 0.65625 0.48438 1.7812 0.48438 1.1562 0 1.7344-0.46875 0.59375-0.46875 0.70312-1.1406 0.125-0.6875 0.125-2.2812v-7.3906h2.6875v7.0156q0 2.4062-0.21875 3.4062-0.21875 0.98438-0.8125 1.6719-0.57812 0.6875-1.5625 1.0938t-2.5625 0.40625q-1.9219 0-2.9062-0.4375-0.98438-0.45312-1.5625-1.1562t-0.75-1.4844q-0.26562-1.1406-0.26562-3.3906v-7.125zm13.52 13.359v-13.359h2.625l5.4531 8.9219v-8.9219h2.5156v13.359h-2.7031l-5.3906-8.7031v8.7031h-2.5zm13.364 0v-13.359h2.6875v13.359h-2.6875zm5.2927 0v-13.359h2.625l5.4531 8.9219v-8.9219h2.5156v13.359h-2.7031l-5.3906-8.7031v8.7031h-2.5zm13.364 0v-13.359h2.6875v13.359h-2.6875zm8.2614 0v-11.094h-3.9531v-2.2656h10.609v2.2656h-3.9531v11.094h-2.7031zm8.3179 0v-13.359h2.6875v13.359h-2.6875zm17.308 0h-2.9375l-1.1719-3.0312h-5.3281l-1.1094 3.0312h-2.8594l5.2031-13.359h2.8438l5.3594 13.359zm-4.9688-5.2812l-1.8438-4.9531-1.7969 4.9531h3.6406zm6.4729 5.2812v-13.25h2.6875v11h6.7031v2.25h-9.3906zm11.24 0v-13.359h2.6875v13.359h-2.6875zm4.1052 0v-2.4375l7.0156-8.6562h-6.2188v-2.2656h9.7656v2.0938l-7.3125 9.0156h7.5938v2.25h-10.844zm12.552 0v-13.359h9.9062v2.2656h-7.2188v2.9531h6.7188v2.25h-6.7188v3.6406h7.4688v2.25h-10.156zm12.428-13.359h4.9375q1.6562 0 2.5312 0.26562 1.1875 0.34375 2.0156 1.2344 0.84375 0.875 1.2812 2.1562t0.4375 3.1562q0 1.6406-0.40625 2.8438-0.5 1.4531-1.4375 2.3594-0.70312 0.67188-1.8906 1.0625-0.89062 0.28125-2.3906 0.28125h-5.0781v-13.359zm2.7031 2.2656v8.8438h2.0156q1.125 0 1.625-0.125 0.65625-0.17188 1.0781-0.5625 0.4375-0.39062 0.70312-1.2812 0.28125-0.90625 0.28125-2.4531t-0.28125-2.375q-0.26562-0.82812-0.76562-1.2812-0.48438-0.46875-1.2344-0.64062-0.5625-0.125-2.2188-0.125h-1.2031z" fill="#000"/>
<path d="m719.64 342.03c0-7.6276 6.1834-13.811 13.811-13.811h155.4c3.6629 0 7.1758 1.4551 9.7659 4.0452 2.5901 2.5901 4.0452 6.103 4.0452 9.7659v55.244c0 7.6276-6.1834 13.811-13.811 13.811h-155.4c-7.6276 0-13.811-6.1834-13.811-13.811z" fill="#cfe2f3" fill-rule="evenodd"/>
<path d="m719.64 342.03c0-7.6276 6.1834-13.811 13.811-13.811h155.4c3.6629 0 7.1758 1.4551 9.7659 4.0452 2.5901 2.5901 4.0452 6.103 4.0452 9.7659v55.244c0 7.6276-6.1834 13.811-13.811 13.811h-155.4c-7.6276 0-13.811-6.1834-13.811-13.811z" fill-rule="evenodd" stroke="#000" stroke-linecap="butt" stroke-linejoin="round"/>
<path d="m758.54 376.58v-13.359h2.6875v13.359h-2.6875zm5.2927 0v-13.359h2.625l5.4531 8.9219v-8.9219h2.5156v13.359h-2.7031l-5.3906-8.7031v8.7031h-2.5zm13.364 0v-13.359h2.6875v13.359h-2.6875zm8.2614 0v-11.094h-3.9531v-2.2656h10.609v2.2656h-3.9531v11.094h-2.7031zm8.3179 0v-13.359h2.6875v13.359h-2.6875zm17.308 0h-2.9375l-1.1719-3.0312h-5.3281l-1.1094 3.0312h-2.8594l5.2031-13.359h2.8438l5.3594 13.359zm-4.9688-5.2812l-1.8438-4.9531-1.7969 4.9531h3.6406zm6.473 5.2812v-13.25h2.6875v11h6.7031v2.25h-9.3906zm11.24 0v-13.359h2.6875v13.359h-2.6875zm4.1052 0v-2.4375l7.0156-8.6562h-6.2188v-2.2656h9.7656v2.0938l-7.3125 9.0156h7.5938v2.25h-10.844zm12.552 0v-13.359h9.9062v2.2656h-7.2188v2.9531h6.7188v2.25h-6.7188v3.6406h7.4688v2.25h-10.156zm12.428-13.359h4.9375q1.6562 0 2.5312 0.26562 1.1875 0.34375 2.0156 1.2344 0.84375 0.875 1.2812 2.1562t0.4375 3.1562q0 1.6406-0.40625 2.8438-0.5 1.4531-1.4375 2.3594-0.70312 0.67188-1.8906 1.0625-0.89062 0.28125-2.3906 0.28125h-5.0781v-13.359zm2.7031 2.2656v8.8438h2.0156q1.125 0 1.625-0.125 0.65625-0.17188 1.0781-0.5625 0.4375-0.39062 0.70312-1.2812 0.28125-0.90625 0.28125-2.4531t-0.28125-2.375q-0.26562-0.82812-0.76562-1.2812-0.48438-0.46875-1.2344-0.64062-0.5625-0.125-2.2188-0.125h-1.2031z" fill="#000"/>
<path d="m278.11 342.03c0-7.6276 6.1834-13.811 13.811-13.811h155.4c3.6629 0 7.1758 1.4551 9.7659 4.0452 2.5901 2.5901 4.0451 6.103 4.0451 9.7659v55.244c0 7.6276-6.1834 13.811-13.811 13.811h-155.4c-7.6276 0-13.811-6.1834-13.811-13.811z" fill="#cfe2f3" fill-rule="evenodd"/>
<path d="m278.11 342.03c0-7.6276 6.1834-13.811 13.811-13.811h155.4c3.6629 0 7.1758 1.4551 9.7659 4.0452 2.5901 2.5901 4.0451 6.103 4.0451 9.7659v55.244c0 7.6276-6.1834 13.811-13.811 13.811h-155.4c-7.6276 0-13.811-6.1834-13.811-13.811z" fill-rule="evenodd" stroke="#000" stroke-linecap="butt" stroke-linejoin="round"/>
<path d="m310.69 365.58l-3.1875-13.359h2.7656l2.0156 9.1719 2.4375-9.1719h3.2031l2.3438 9.3281 2.0469-9.3281h2.7188l-3.25 13.359h-2.8594l-2.6562-9.9844-2.6562 9.9844h-2.9219zm26.735 0h-2.9375l-1.1719-3.0312h-5.3281l-1.1094 3.0312h-2.8594l5.2031-13.359h2.8438l5.3594 13.359zm-4.9688-5.2812l-1.8438-4.9531-1.7969 4.9531h3.6406zm6.3167 5.2812v-13.359h2.6875v13.359h-2.6875zm8.2614 0v-11.094h-3.9531v-2.2656h10.609v2.2656h-3.9531v11.094h-2.7031zm8.3178 0v-13.359h2.6875v13.359h-2.6875zm5.2927 0v-13.359h2.625l5.4531 8.9219v-8.9219h2.5156v13.359h-2.7031l-5.3906-8.7031v8.7031h-2.5zm19.645-4.9062v-2.25h5.8125v5.3125q-0.84375 0.82812-2.4531 1.4531t-3.25 0.625q-2.0938 0-3.6562-0.875-1.5625-0.89062-2.3438-2.5156-0.78125-1.6406-0.78125-3.5625 0-2.0938 0.875-3.7031 0.875-1.625 2.5625-2.5 1.2812-0.65625 3.2031-0.65625 2.4844 0 3.875 1.0469 1.4062 1.0312 1.7969 2.875l-2.6719 0.5q-0.28125-0.98438-1.0625-1.5469-0.78125-0.57812-1.9375-0.57812-1.7812 0-2.8281 1.125-1.0312 1.125-1.0312 3.3281 0 2.375 1.0469 3.5625 1.0625 1.1875 2.7812 1.1875 0.84375 0 1.6875-0.32812 0.85938-0.32812 1.4688-0.8125v-1.6875h-3.0938zm13.507 4.9062v-13.359h9.1562v2.2656h-6.4531v3.1562h5.5625v2.2656h-5.5625v5.6719h-2.7031zm10.833-6.5938q0-2.0469 0.60938-3.4219 0.45312-1.0312 1.2344-1.8281 0.79688-0.8125 1.7344-1.2031 1.25-0.53125 2.875-0.53125 2.9531 0 4.7188 1.8281 1.7812 1.8281 1.7812 5.0938 0 3.2344-1.7656 5.0625-1.75 1.8281-4.6875 1.8281-2.9844 0-4.75-1.8125-1.75-1.8281-1.75-5.0156zm2.7812-0.09375q0 2.2656 1.0469 3.4375t2.6562 1.1719 2.6406-1.1562q1.0469-1.1719 1.0469-3.4844 0-2.2969-1.0156-3.4219-1-1.1406-2.6719-1.1406t-2.6875 1.1562q-1.0156 1.1406-1.0156 3.4375zm12.277 6.6875v-13.359h5.6875q2.1406 0 3.1094 0.35938t1.5469 1.2812 0.57812 2.1094q0 1.5-0.89062 2.4844-0.875 0.96875-2.625 1.2344 0.875 0.5 1.4375 1.125 0.57812 0.60938 1.5312 2.1562l1.6406 2.6094h-3.2344l-1.9375-2.9062q-1.0469-1.5625-1.4375-1.9688-0.375-0.40625-0.8125-0.54688-0.42188-0.15625-1.3438-0.15625h-0.54688v5.5781h-2.7031zm2.7031-7.7031h2q1.9375 0 2.4219-0.15625 0.48438-0.17188 0.75-0.57812 0.28125-0.40625 0.28125-1 0-0.67188-0.35938-1.0781-0.35938-0.42188-1.0156-0.53125-0.32812-0.046875-1.9688-0.046875h-2.1094v3.3906z" fill="#000"/>
<path d="m339.88 387.58v-13.359h5.6875q2.1406 0 3.1094 0.35938t1.5469 1.2812 0.57812 2.1094q0 1.5-0.89062 2.4844-0.875 0.96875-2.625 1.2344 0.875 0.5 1.4375 1.125 0.57812 0.60938 1.5312 2.1562l1.6406 2.6094h-3.2344l-1.9375-2.9062q-1.0469-1.5625-1.4375-1.9688-0.375-0.40625-0.8125-0.54688-0.42188-0.15625-1.3438-0.15625h-0.54688v5.5781h-2.7031zm2.7031-7.7031h2q1.9375 0 2.4219-0.15625 0.48438-0.17188 0.75-0.57812 0.28125-0.40625 0.28125-1 0-0.67188-0.35938-1.0781-0.35938-0.42188-1.0156-0.53125-0.32812-0.046875-1.9688-0.046875h-2.1094v3.3906zm10.77 7.7031v-13.359h9.9062v2.2656h-7.2188v2.9531h6.7188v2.25h-6.7188v3.6406h7.4688v2.25h-10.156zm11.756-4.3438l2.625-0.25q0.23438 1.3125 0.95312 1.9375 0.73438 0.60938 1.9688 0.60938 1.2969 0 1.9531-0.54688 0.67188-0.54688 0.67188-1.2812 0-0.48438-0.28125-0.8125t-0.96875-0.57812q-0.48438-0.15625-2.1719-0.57812-2.1562-0.54688-3.0312-1.3281-1.2344-1.0938-1.2344-2.6875 0-1.0156 0.57812-1.9062t1.6562-1.3438q1.0938-0.46875 2.6406-0.46875 2.5156 0 3.7812 1.1094 1.2812 1.0938 1.3438 2.9375l-2.7031 0.10938q-0.17188-1.0312-0.75-1.4688-0.5625-0.45312-1.7031-0.45312-1.1719 0-1.8438 0.46875-0.42188 0.3125-0.42188 0.84375 0 0.46875 0.40625 0.79688 0.5 0.4375 2.4688 0.90625 1.9688 0.45312 2.9062 0.95312 0.95312 0.5 1.4844 1.3594t0.53125 2.125q0 1.1562-0.64062 2.1562t-1.8125 1.4844q-1.1562 0.48438-2.8906 0.48438-2.5312 0-3.8906-1.1719t-1.625-3.4062zm13.131 4.3438v-13.359h9.9062v2.2656h-7.2188v2.9531h6.7188v2.25h-6.7188v3.6406h7.4688v2.25h-10.156zm15.444 0v-11.094h-3.9531v-2.2656h10.609v2.2656h-3.9531v11.094h-2.7031z" fill="#000"/>
<path d="m498.87 342.03c0-7.6276 6.1834-13.811 13.811-13.811h155.4c3.6629 0 7.1758 1.4551 9.7659 4.0452 2.5901 2.5901 4.0452 6.103 4.0452 9.7659v55.244c0 7.6276-6.1834 13.811-13.811 13.811h-155.4c-7.6276 0-13.811-6.1834-13.811-13.811z" fill="#cfe2f3" fill-rule="evenodd"/>
<path d="m498.87 342.03c0-7.6276 6.1834-13.811 13.811-13.811h155.4c3.6629 0 7.1758 1.4551 9.7659 4.0452 2.5901 2.5901 4.0452 6.103 4.0452 9.7659v55.244c0 7.6276-6.1834 13.811-13.811 13.811h-155.4c-7.6276 0-13.811-6.1834-13.811-13.811z" fill-rule="evenodd" stroke="#000" stroke-linecap="butt" stroke-linejoin="round"/>
<path d="m529.03 365.58v-13.359h5.6875q2.1406 0 3.1094 0.35938t1.5469 1.2812 0.57812 2.1094q0 1.5-0.89062 2.4844-0.875 0.96875-2.625 1.2344 0.875 0.5 1.4375 1.125 0.57812 0.60938 1.5312 2.1562l1.6406 2.6094h-3.2344l-1.9375-2.9062q-1.0469-1.5625-1.4375-1.9688-0.375-0.40625-0.8125-0.54688-0.42188-0.15625-1.3438-0.15625h-0.54688v5.5781h-2.7031zm2.7031-7.7031h2q1.9375 0 2.4219-0.15625 0.48438-0.17188 0.75-0.57812 0.28125-0.40625 0.28125-1 0-0.67188-0.35938-1.0781-0.35938-0.42188-1.0156-0.53125-0.32812-0.046875-1.9688-0.046875h-2.1094v3.3906zm10.77 7.7031v-13.359h9.9062v2.2656h-7.2188v2.9531h6.7188v2.25h-6.7188v3.6406h7.4688v2.25h-10.156zm20.99-4.9062l2.6094 0.82812q-0.59375 2.1875-2 3.25-1.3906 1.0625-3.5469 1.0625-2.6562 0-4.375-1.8125-1.7031-1.8281-1.7031-4.9844 0-3.3281 1.7188-5.1719t4.5156-1.8438q2.4531 0 3.9844 1.4375 0.92188 0.85938 1.375 2.4688l-2.6719 0.64062q-0.23438-1.0469-0.98438-1.6406-0.75-0.60938-1.8281-0.60938-1.4844 0-2.4219 1.0781-0.92188 1.0625-0.92188 3.4375 0 2.5312 0.90625 3.6094 0.92188 1.0781 2.375 1.0781 1.0781 0 1.8438-0.67188 0.78125-0.6875 1.125-2.1562zm4.3792-1.6875q0-2.0469 0.60938-3.4219 0.45312-1.0312 1.2344-1.8281 0.79688-0.8125 1.7344-1.2031 1.25-0.53125 2.875-0.53125 2.9531 0 4.7188 1.8281 1.7812 1.8281 1.7812 5.0938 0 3.2344-1.7656 5.0625-1.75 1.8281-4.6875 1.8281-2.9844 0-4.75-1.8125-1.75-1.8281-1.75-5.0156zm2.7812-0.09375q0 2.2656 1.0469 3.4375t2.6562 1.1719 2.6406-1.1562q1.0469-1.1719 1.0469-3.4844 0-2.2969-1.0156-3.4219-1-1.1406-2.6719-1.1406t-2.6875 1.1562q-1.0156 1.1406-1.0156 3.4375zm15.683 6.6875l-4.7812-13.359h2.9375l3.375 9.8906 3.2656-9.8906h2.8594l-4.7812 13.359h-2.875zm9.0374 0v-13.359h9.9062v2.2656h-7.2188v2.9531h6.7188v2.25h-6.7188v3.6406h7.4688v2.25h-10.156zm12.444 0v-13.359h5.6875q2.1406 0 3.1094 0.35938t1.5469 1.2812 0.57812 2.1094q0 1.5-0.89062 2.4844-0.875 0.96875-2.625 1.2344 0.875 0.5 1.4375 1.125 0.57812 0.60938 1.5312 2.1562l1.6406 2.6094h-3.2344l-1.9375-2.9062q-1.0469-1.5625-1.4375-1.9688-0.375-0.40625-0.8125-0.54688-0.42188-0.15625-1.3438-0.15625h-0.54688v5.5781h-2.7031zm2.7031-7.7031h2q1.9375 0 2.4219-0.15625 0.48438-0.17188 0.75-0.57812 0.28125-0.40625 0.28125-1 0-0.67188-0.35938-1.0781-0.35938-0.42188-1.0156-0.53125-0.32812-0.046875-1.9688-0.046875h-2.1094v3.3906zm10.692 7.7031v-13.359h2.6875v13.359h-2.6875zm5.2927 0v-13.359h2.625l5.4531 8.9219v-8.9219h2.5156v13.359h-2.7031l-5.3906-8.7031v8.7031h-2.5zm19.645-4.9062v-2.25h5.8125v5.3125q-0.84375 0.82812-2.4531 1.4531t-3.25 0.625q-2.0938 0-3.6562-0.875-1.5625-0.89062-2.3438-2.5156-0.78125-1.6406-0.78125-3.5625 0-2.0938 0.875-3.7031 0.875-1.625 2.5625-2.5 1.2812-0.65625 3.2031-0.65625 2.4844 0 3.875 1.0469 1.4062 1.0312 1.7969 2.875l-2.6719 0.5q-0.28125-0.98438-1.0625-1.5469-0.78125-0.57812-1.9375-0.57812-1.7812 0-2.8281 1.125-1.0312 1.125-1.0312 3.3281 0 2.375 1.0469 3.5625 1.0625 1.1875 2.7812 1.1875 0.84375 0 1.6875-0.32812 0.85938-0.32812 1.4688-0.8125v-1.6875h-3.0938z" fill="#000"/>
<path d="m528.01 387.58v-13.359h9.1562v2.2656h-6.4531v3.1562h5.5625v2.2656h-5.5625v5.6719h-2.7031zm11.38 0v-13.359h5.6875q2.1406 0 3.1094 0.35938t1.5469 1.2812 0.57812 2.1094q0 1.5-0.89062 2.4844-0.875 0.96875-2.625 1.2344 0.875 0.5 1.4375 1.125 0.57812 0.60938 1.5312 2.1562l1.6406 2.6094h-3.2344l-1.9375-2.9062q-1.0469-1.5625-1.4375-1.9688-0.375-0.40625-0.8125-0.54688-0.42188-0.15625-1.3438-0.15625h-0.54688v5.5781h-2.7031zm2.7031-7.7031h2q1.9375 0 2.4219-0.15625 0.48438-0.17188 0.75-0.57812 0.28125-0.40625 0.28125-1 0-0.67188-0.35938-1.0781-0.35938-0.42188-1.0156-0.53125-0.32812-0.046875-1.9688-0.046875h-2.1094v3.3906zm10.223 1.1094q0-2.0469 0.60938-3.4219 0.45312-1.0312 1.2344-1.8281 0.79688-0.8125 1.7344-1.2031 1.25-0.53125 2.875-0.53125 2.9531 0 4.7188 1.8281 1.7812 1.8281 1.7812 5.0938 0 3.2344-1.7656 5.0625-1.75 1.8281-4.6875 1.8281-2.9844 0-4.75-1.8125-1.75-1.8281-1.75-5.0156zm2.7812-0.09375q0 2.2656 1.0469 3.4375t2.6562 1.1719 2.6406-1.1562q1.0469-1.1719 1.0469-3.4844 0-2.2969-1.0156-3.4219-1-1.1406-2.6719-1.1406t-2.6875 1.1562q-1.0156 1.1406-1.0156 3.4375zm12.246 6.6875v-13.359h4.0312l2.4219 9.1094 2.3906-9.1094h4.0469v13.359h-2.5v-10.516l-2.6562 10.516h-2.5938l-2.6406-10.516v10.516h-2.5zm25.939 0v-13.359h5.6875q2.1406 0 3.1094 0.35938t1.5469 1.2812 0.57812 2.1094q0 1.5-0.89062 2.4844-0.875 0.96875-2.625 1.2344 0.875 0.5 1.4375 1.125 0.57812 0.60938 1.5312 2.1562l1.6406 2.6094h-3.2344l-1.9375-2.9062q-1.0469-1.5625-1.4375-1.9688-0.375-0.40625-0.8125-0.54688-0.42188-0.15625-1.3438-0.15625h-0.54688v5.5781h-2.7031zm2.7031-7.7031h2q1.9375 0 2.4219-0.15625 0.48438-0.17188 0.75-0.57812 0.28125-0.40625 0.28125-1 0-0.67188-0.35938-1.0781-0.35938-0.42188-1.0156-0.53125-0.32812-0.046875-1.9688-0.046875h-2.1094v3.3906zm10.77 7.7031v-13.359h9.9062v2.2656h-7.2188v2.9531h6.7188v2.25h-6.7188v3.6406h7.4688v2.25h-10.156zm11.756-4.3438l2.625-0.25q0.23438 1.3125 0.95312 1.9375 0.73438 0.60938 1.9688 0.60938 1.2969 0 1.9531-0.54688 0.67188-0.54688 0.67188-1.2812 0-0.48438-0.28125-0.8125t-0.96875-0.57812q-0.48438-0.15625-2.1719-0.57812-2.1562-0.54688-3.0312-1.3281-1.2344-1.0938-1.2344-2.6875 0-1.0156 0.57812-1.9062t1.6562-1.3438q1.0938-0.46875 2.6406-0.46875 2.5156 0 3.7812 1.1094 1.2812 1.0938 1.3438 2.9375l-2.7031 0.10938q-0.17188-1.0312-0.75-1.4688-0.5625-0.45312-1.7031-0.45312-1.1719 0-1.8438 0.46875-0.42188 0.3125-0.42188 0.84375 0 0.46875 0.40625 0.79688 0.5 0.4375 2.4688 0.90625 1.9688 0.45312 2.9062 0.95312 0.95312 0.5 1.4844 1.3594t0.53125 2.125q0 1.1562-0.64062 2.1562t-1.8125 1.4844q-1.1562 0.48438-2.8906 0.48438-2.5312 0-3.8906-1.1719t-1.625-3.4062zm13.131 4.3438v-13.359h9.9062v2.2656h-7.2188v2.9531h6.7188v2.25h-6.7188v3.6406h7.4688v2.25h-10.156zm15.444 0v-11.094h-3.9531v-2.2656h10.609v2.2656h-3.9531v11.094h-2.7031z" fill="#000"/>
<path d="m811.15 328.22c0-35.331-55.189-70.669-110.38-70.661-55.189 0.0078735-110.38 35.362-110.38 70.724" fill="#000" fill-opacity="0" fill-rule="evenodd"/>
<path d="m811.15 328.22c0-35.331-55.189-70.669-110.38-70.661-27.594 0.0039368-55.189 8.8445-75.885 22.104-10.348 6.6299-18.971 14.365-25.008 22.652-0.37726 0.51794-0.74445 1.0381-1.1013 1.5602-0.17841 0.26108-0.35425 0.52267-0.52747 0.78473l-0.50488 0.77689" fill-rule="evenodd" stroke="#000" stroke-linecap="butt" stroke-linejoin="round" stroke-width="4"/>
<path d="m591.46 303.42l0.72864 19.304 11.85-15.256z" fill="#000" fill-rule="evenodd" stroke="#000" stroke-linecap="butt" stroke-width="4"/>
<path d="m240.36 369.66h37.732" fill="#000" fill-opacity="0" fill-rule="evenodd"/>
<path d="m240.36 369.66h13.732" fill-rule="evenodd" stroke="#000" stroke-linecap="butt" stroke-linejoin="round" stroke-width="4"/>
<path d="m254.09 376.26l18.152-6.6069-18.152-6.6069z" fill="#000" fill-rule="evenodd" stroke="#000" stroke-linecap="butt" stroke-width="4"/>
<path d="m461.13 369.66h37.732" fill="#000" fill-opacity="0" fill-rule="evenodd"/>
<path d="m461.13 369.66h13.732" fill-rule="evenodd" stroke="#000" stroke-linecap="butt" stroke-linejoin="round" stroke-width="4"/>
<path d="m474.86 376.26l18.152-6.6069-18.152-6.6069z" fill="#000" fill-rule="evenodd" stroke="#000" stroke-linecap="butt" stroke-width="4"/>
<path d="m681.9 369.66h37.732" fill="#000" fill-opacity="0" fill-rule="evenodd"/>
<path d="m681.9 369.66h13.732" fill-rule="evenodd" stroke="#000" stroke-linecap="butt" stroke-linejoin="round" stroke-width="4"/>
<path d="m695.63 376.26l18.152-6.6069-18.152-6.6069z" fill="#000" fill-rule="evenodd" stroke="#000" stroke-linecap="butt" stroke-width="4"/>
</g>
</svg>
