<?xml version="1.0" encoding="UTF-8"?>
<svg width="1093.3" height="894.67" version="1.1" viewBox="0 0 1093.3 894.67" xmlns="http://www.w3.org/2000/svg">
 <defs>
  <clipPath id="clipPath20">
   <path d="m0 0h416814v340995h-416814z"/>
  </clipPath>
 </defs>
 <g transform="matrix(1.3333 0 0 -1.3333 0 894.67)">
  <g transform="matrix(1,0,0,-1,0,671)">
   <g transform="scale(.0019685)">
    <g clip-path="url(#clipPath20)">
     <path d="m0 0h416814v340995h-416814z" fill="#fff" fill-rule="evenodd"/>
     <path d="m7918 247294h154692v84576h-154692z" fill-opacity="0"/>
     <path d="m7918 247294h154692v84576h-154692z" fill="none" stroke="#000" stroke-linejoin="round" stroke-miterlimit="8" stroke-width="381"/>
     <path d="m216553 31987h193392v199704h-193392z" fill="#d9d9d9" fill-rule="evenodd"/>
     <path d="m7918 31987h193392v199704h-193392z" fill="#d9d9d9" fill-rule="evenodd"/>
     <path d="m173932 67868c0-2171.6 1760.4-3932.1 3932.1-3932.1h62528c1042.9 0 2043 414.27 2780.4 1151.7 737.4 737.41 1151.7 1737.6 1151.7 2780.4v15728c0 2171.6-1760.4 3932.1-3932.1 3932.1h-62528c-2171.6 0-3932.1-1760.4-3932.1-3932.1z" fill="#cfe2f3" fill-rule="evenodd"/>
     <path d="m173932 67868c0-2171.6 1760.4-3932.1 3932.1-3932.1h62528c1042.9 0 2043 414.27 2780.4 1151.7 737.4 737.41 1151.7 1737.6 1151.7 2780.4v15728c0 2171.6-1760.4 3932.1-3932.1 3932.1h-62528c-2171.6 0-3932.1-1760.4-3932.1-3932.1z" fill="none" stroke="#000" stroke-linejoin="round" stroke-miterlimit="8" stroke-width="381"/>
     <g transform="scale(381)">
      <g transform="translate(459.54 170.83)">
       <g fill="#000000" font-family="Arial" font-size="18.667px">
        <text transform="translate(54.607 23.858)"><tspan x="0 13.477333 23.855999 34.234665 44.613331 54.991997 65.370667" y="0">Channel</tspan></text>
        <text transform="translate(53.564 45.858)"><tspan x="0 10.378666 20.757332 31.136 41.514664 51.89333 56.037331 66.416" y="0">endpoint</tspan></text>
       </g>
      </g>
     </g>
     <path d="m89045 112127c0-1821.5 1476.6-3298.1 3298.1-3298.1h63796c874.7 0 1713.6 347.48 2332.1 965.98 618.51 618.51 965.98 1457.4 965.98 2332.1v13192c0 1821.5-1476.6 3298.1-3298.1 3298.1h-63796c-1821.5 0-3298.1-1476.6-3298.1-3298.1z" fill="#cfe2f3" fill-rule="evenodd"/>
     <path d="m89045 112127c0-1821.5 1476.6-3298.1 3298.1-3298.1h63796c874.7 0 1713.6 347.48 2332.1 965.98 618.51 618.51 965.98 1457.4 965.98 2332.1v13192c0 1821.5-1476.6 3298.1-3298.1 3298.1h-63796c-1821.5 0-3298.1-1476.6-3298.1-3298.1z" fill="none" stroke="#000" stroke-linejoin="round" stroke-miterlimit="8" stroke-width="381"/>
     <g transform="scale(381)">
      <g transform="translate(236.25 288.18)">
       <text transform="translate(44.213 30.353)" fill="#000000" font-family="Arial" font-size="18.667px"><tspan x="0 15.549333 24.882666 35.261333 49.765331 60.143997 70.522667 80.901329" y="0">MsgQueue</tspan></text>
      </g>
     </g>
     <path d="m243556 112127c0-1821.5 1476.6-3298.1 3298.1-3298.1h63796c874.68 0 1713.6 347.48 2332.1 965.98 618.5 618.51 965.97 1457.4 965.97 2332.1v13192c0 1821.5-1476.6 3298.1-3298.1 3298.1h-63796c-1821.5 0-3298.1-1476.6-3298.1-3298.1z" fill="#cfe2f3" fill-rule="evenodd"/>
     <path d="m243556 112127c0-1821.5 1476.6-3298.1 3298.1-3298.1h63796c874.68 0 1713.6 347.48 2332.1 965.98 618.5 618.51 965.97 1457.4 965.97 2332.1v13192c0 1821.5-1476.6 3298.1-3298.1 3298.1h-63796c-1821.5 0-3298.1-1476.6-3298.1-3298.1z" fill="none" stroke="#000" stroke-linejoin="round" stroke-miterlimit="8" stroke-width="381"/>
     <g transform="scale(381)">
      <g transform="translate(641.79 288.18)">
       <text transform="translate(44.213 30.353)" fill="#000000" font-family="Arial" font-size="18.667px"><tspan x="0 15.549333 24.882666 35.261333 49.765331 60.143997 70.522667 80.901329" y="0">MsgQueue</tspan></text>
      </g>
     </g>
     <path d="m243556 171109c0-1821.5 1476.6-3298.1 3298.1-3298.1h63796c874.68 0 1713.6 347.47 2332.1 965.98 618.5 618.5 965.97 1457.4 965.97 2332.1v13192c0 1821.5-1476.6 3298.1-3298.1 3298.1h-63796c-1821.5 0-3298.1-1476.6-3298.1-3298.1z" fill="#cfe2f3" fill-rule="evenodd"/>
     <path d="m243556 171109c0-1821.5 1476.6-3298.1 3298.1-3298.1h63796c874.68 0 1713.6 347.47 2332.1 965.98 618.5 618.5 965.97 1457.4 965.97 2332.1v13192c0 1821.5-1476.6 3298.1-3298.1 3298.1h-63796c-1821.5 0-3298.1-1476.6-3298.1-3298.1z" fill="none" stroke="#000" stroke-linejoin="round" stroke-miterlimit="8" stroke-width="381"/>
     <g transform="scale(381)">
      <g transform="translate(641.79 442.98)">
       <text transform="translate(44.218 30.353)" fill="#000000" font-family="Arial" font-size="18.667px"><tspan x="0 13.477333 23.855999 27.999998 32.143997 42.522667 52.901333 62.234665 75.711998 86.09066" y="0">CalleesRef</tspan></text>
      </g>
     </g>
     <path d="m45669 138515c0-31392 64134-62784 128268-62784" fill-opacity="0"/>
     <path d="m45669 138515c0-15696 16034-31392 40084-43164 12025-5886 26054-10791 41086-14224 7515.7-1716.8 15282-3065.6 23173-3985.3 3945.7-459.85 7922.8-812.39 11916-1050 499.09-29.694 998.42-57.6 1498-83.69 249.78-13.04 499.61-25.64 749.48-37.78l620.42-29" fill="none" stroke="#000" stroke-linejoin="round" stroke-miterlimit="8" stroke-width="1524"/>
     <path d="m164853 78457 6856.5-2675.2-6972-2357.9z" fill-rule="evenodd" stroke="#000" stroke-miterlimit="10" stroke-width="1524"/>
     <path d="m87467 171109c0-1821.5 1476.6-3298.1 3298.1-3298.1h46732c874.7 0 1713.6 347.47 2332.1 965.98 618.51 618.5 965.98 1457.4 965.98 2332.1v13192c0 1821.5-1476.6 3298.1-3298.1 3298.1h-46732c-1821.5 0-3298.1-1476.6-3298.1-3298.1z" fill="#cfe2f3" fill-rule="evenodd"/>
     <path d="m87467 171109c0-1821.5 1476.6-3298.1 3298.1-3298.1h46732c874.7 0 1713.6 347.47 2332.1 965.98 618.51 618.5 965.98 1457.4 965.98 2332.1v13192c0 1821.5-1476.6 3298.1-3298.1 3298.1h-46732c-1821.5 0-3298.1-1476.6-3298.1-3298.1z" fill="none" stroke="#000" stroke-linejoin="round" stroke-miterlimit="8" stroke-width="381"/>
     <g transform="scale(381)">
      <g transform="translate(232.11 442.98)">
       <text transform="translate(20.275 30.353)" fill="#000000" font-family="Arial" font-size="18.667px"><tspan x="0 13.477333 23.855999 27.999998 32.143997 42.522667 48.738667 58.071999 71.549332 81.927994 87.098663" y="0">CallersRef*</tspan></text>
      </g>
     </g>
     <path d="m140795 171109c0-1821.5 1476.6-3298.1 3298.1-3298.1h34672c874.7 0 1713.6 347.47 2332.1 965.98 618.51 618.5 965.98 1457.4 965.98 2332.1v13192c0 1821.5-1476.6 3298.1-3298.1 3298.1h-34672c-1821.5 0-3298.1-1476.6-3298.1-3298.1z" fill="#cfe2f3" fill-rule="evenodd"/>
     <path d="m140795 171109c0-1821.5 1476.6-3298.1 3298.1-3298.1h34672c874.7 0 1713.6 347.47 2332.1 965.98 618.51 618.5 965.98 1457.4 965.98 2332.1v13192c0 1821.5-1476.6 3298.1-3298.1 3298.1h-34672c-1821.5 0-3298.1-1476.6-3298.1-3298.1z" fill="none" stroke="#000" stroke-linejoin="round" stroke-miterlimit="8" stroke-width="381"/>
     <g transform="scale(381)">
      <g transform="translate(372.08 442.98)">
       <text transform="translate(26.744 30.353)" fill="#000000" font-family="Arial" font-size="18.667px"><tspan x="0 15.549333 27.981333 42.485332" y="0">MBO*</tspan></text>
      </g>
     </g>
     <path d="m45669 158303c0 9702 20898 19404 41796 19404" fill-opacity="0"/>
     <path d="m45669 158303c0 4851 5224.5 9702 13061 13340 3918.4 1819.1 8489.8 3335.1 13388 4396.2 1224.5 265.28 2469.4 502.15 3729.6 708.23 630.1 103.03 1264 198.38 1901.2 285.72 159.28 21.83 318.76 43.18 478.43 64l113.18 14.39" fill="none" stroke="#000" stroke-linejoin="round" stroke-miterlimit="8" stroke-width="1524"/>
     <path d="m78177 179624 7065.2-2061.7-6737.6-2962.1z" fill-rule="evenodd" stroke="#000" stroke-miterlimit="10" stroke-width="1524"/>
     <path d="m56009 138667c1528.6 0-1072.3-4986 3057.2-9972s14989-9972 29979-9972" fill-opacity="0"/>
     <path d="m56009 138667c1528.6 0-1072.3-4986 3057.2-9972 2064.8-2493 5812.1-4986 10917-6855.8 2552.4-934.87 5444.2-1713.9 8634.7-2259.3 398.82-68.17 802.31-132.69 1210.4-193.4l95.87-14" fill="none" stroke="#000" stroke-linejoin="round" stroke-miterlimit="8" stroke-width="1524"/>
     <path d="m80103 121883 6719.8-3002.2-7077.4-2019.6z" fill-rule="evenodd" stroke="#000" stroke-miterlimit="10" stroke-width="1524"/>
     <path d="m155333 167809c0-9798-9297-14697-18594-19596s-18594-9798-18594-19596" fill-opacity="0"/>
     <path d="m155333 167809c0-9798-9297-14697-18594-19596-4648.5-2449.5-9297-4899-12783-7960.9-1743.2-1530.9-3195.8-3215-4212.7-5128.6-254.22-478.42-481.19-971.18-678.66-1479.5-49.37-127.09-96.89-255.14-142.53-384.18l-44.79-129.77" fill="none" stroke="#000" stroke-linejoin="round" stroke-miterlimit="8" stroke-width="762"/>
     <path d="m120119 132929-1796-3211.9-688.78 3614.9z" fill-rule="evenodd" stroke="#000" stroke-miterlimit="10" stroke-width="762"/>
     <path d="m244324 75732c17214 0 34428 16548 34428 33096" fill-opacity="0"/>
     <path d="m244324 75732c8607 0 17214 4137 23669 10342 3227.6 3102.8 5917.3 6722.6 7800.1 10601 941.41 1939.2 1681.1 3943.1 2185.4 5979.3 126.06 509.05 237.44 1020.1 333.58 1532.7l15.86 88.18" fill="none" stroke="#000" stroke-linejoin="round" stroke-miterlimit="8" stroke-width="762"/>
     <path d="m277075 104392 1573.8 3326.5 932.66-3559.8z" fill-rule="evenodd" stroke="#000" stroke-miterlimit="10" stroke-width="762"/>
     <path d="m332940 138515h57828v19788h-57828z" fill="#cfe2f3" fill-rule="evenodd"/>
     <path d="m332940 138515h57828v19788h-57828z" fill="none" stroke="#000" stroke-linejoin="round" stroke-miterlimit="8" stroke-width="381"/>
     <g transform="scale(381)">
      <g transform="translate(873.86 363.56)">
       <text transform="translate(42.194 32.889)" fill="#000000" font-family="Arial" font-size="18.667px"><tspan x="0 12.431999 18.647999 29.026665 38.359997 48.738667 58.071999" y="0">Process</tspan></text>
      </g>
     </g>
     <path d="m361854 138515c0-9894-23952-19788-47904-19788" fill-opacity="0"/>
     <path d="m361854 138515c0-4947-5988-9894-14970-13604-4491-1855.1-9730.5-3401.1-15344-4483.2-1403.4-270.54-2830.2-512.09-4274.6-722.24-722.18-105.08-1448.8-202.31-2179-291.38-365.09-44.53-731.12-87.03-1098-127.45-183.44-20.21-367.06-39.9-550.91-59.07l-355.05-35.98" fill="none" stroke="#000" stroke-linejoin="round" stroke-miterlimit="8" stroke-width="1524"/>
     <path d="m323210 116677-7035 2162.7 6779.3 2865.2z" fill-rule="evenodd" stroke="#000" stroke-miterlimit="10" stroke-width="1524"/>
     <path d="m361854 158303c0 9702-23952 19404-47904 19404" fill-opacity="0"/>
     <path d="m361854 158303c0 4851-5988 9702-14970 13340-4491 1819.1-9730.5 3335.1-15344 4396.2-1403.4 265.28-2830.2 502.15-4274.6 708.23-722.18 103.03-1448.8 198.38-2179 285.72-365.09 43.68-731.12 85.35-1098 124.97-183.44 19.83-367.06 39.14-550.91 57.94l-354.59 35.22" fill="none" stroke="#000" stroke-linejoin="round" stroke-miterlimit="8" stroke-width="1524"/>
     <path d="m322957 174737-6782.1 2858.6 7032.8 2169.6z" fill-rule="evenodd" stroke="#000" stroke-miterlimit="10" stroke-width="1524"/>
     <path d="m243556 177705c-15373 0-23060 6-30746 12s-15371 12-30742 12" fill-opacity="0"/>
     <path d="m243556 177705c-15373 0-23060 6-30746 12-3843 3-7685.7 6-12489 8.25-2401.6 1.13-5043.4 2.06-8045.5 2.72l-5635.1 0.56" fill="none" stroke="#000" stroke-dasharray="3048, 2286" stroke-linejoin="round" stroke-miterlimit="8" stroke-width="762"/>
     <path d="m186640 176470-3457.9 1259 3458.2 1258.3z" fill-rule="evenodd" stroke="#000" stroke-miterlimit="10" stroke-width="762"/>
     <path d="m243556 118723c-32171 0-55728 12270-64341 24540s-2281.4 24540-4562.8 24540" fill-opacity="0"/>
     <path d="m243556 118723c-32171 0-55728 12270-64341 24540-4306.5 6135-4876.9 12270-4655.8 16871 27.64 575.15 67.64 1126.4 114.27 1650.6 23.31 262.11 48.27 517.48 74.17 765.75 12.94 124.12 26.12 246.48 39.45 367.02l35.86 316.59" fill="none" stroke="#000" stroke-dasharray="3048, 2286" stroke-linejoin="round" stroke-miterlimit="8" stroke-width="762"/>
     <path d="m173565 163187 1128.6 3502.6 1386.9-3408.6z" fill-rule="evenodd" stroke="#000" stroke-miterlimit="10" stroke-width="762"/>
     <path d="m114131 187599c0 8295.5 11826 16588 23652 16591s23652-8283.5 23652-16567" fill-opacity="0"/>
     <path d="m114131 187599c0 8295.5 11826 16588 23652 16591 5913 1.5 11826-2069.4 16261-5176.1 2217.4-1553.3 4065.2-3365.6 5358.6-5307.3 323.38-485.42 612.1-978.93 863.29-1478.5l81.04-164.52" fill="none" stroke="#000" stroke-dasharray="3048, 2286" stroke-linejoin="round" stroke-miterlimit="8" stroke-width="762"/>
     <path d="m161569 192363-399.35-3658.2-2045.5 3059z" fill-rule="evenodd" stroke="#000" stroke-miterlimit="10" stroke-width="762"/>
     <path d="m119413 212108c0-4099.1 3322.9-7422 7422-7422 1968.4 0 3856.2 781.95 5248.1 2173.9 1391.9 1391.9 2173.9 3279.7 2173.9 5248.1 0 4099.1-3322.9 7422-7422 7422s-7422-3322.9-7422-7422z" fill="#fff" fill-rule="evenodd"/>
     <path d="m119413 212108c0-4099.1 3322.9-7422 7422-7422 1968.4 0 3856.2 781.95 5248.1 2173.9 1391.9 1391.9 2173.9 3279.7 2173.9 5248.1 0 4099.1-3322.9 7422-7422 7422s-7422-3322.9-7422-7422z" fill="none" stroke="#000" stroke-linejoin="round" stroke-miterlimit="8" stroke-width="381"/>
     <g transform="scale(381)">
      <g transform="translate(319.13 542.94)">
       <text transform="translate(9 20.695)" fill="#000000" font-family="Arial" font-size="18.667px"><tspan x="0" y="0">1</tspan></text>
      </g>
     </g>
     <path d="m221902 129050c0-4099.1 3322.9-7422 7422-7422 1968.4 0 3856.2 781.96 5248.1 2173.8 1391.9 1391.9 2173.9 3279.7 2173.9 5248.2 0 4099.1-3322.9 7422-7422 7422s-7422-3322.9-7422-7422z" fill="#fff" fill-rule="evenodd"/>
     <path d="m221902 129050c0-4099.1 3322.9-7422 7422-7422 1968.4 0 3856.2 781.96 5248.1 2173.8 1391.9 1391.9 2173.9 3279.7 2173.9 5248.2 0 4099.1-3322.9 7422-7422 7422s-7422-3322.9-7422-7422z" fill="none" stroke="#000" stroke-linejoin="round" stroke-miterlimit="8" stroke-width="381"/>
     <g transform="scale(381)">
      <g transform="translate(588.13 324.94)">
       <text transform="translate(9 20.695)" fill="#000000" font-family="Arial" font-size="18.667px"><tspan x="0" y="0">2</tspan></text>
      </g>
     </g>
     <path d="m221902 186962c0-4099.1 3322.9-7422 7422-7422 1968.4 0 3856.2 781.95 5248.1 2173.9 1391.9 1391.9 2173.9 3279.7 2173.9 5248.1 0 4099.1-3322.9 7422-7422 7422s-7422-3322.9-7422-7422z" fill="#fff" fill-rule="evenodd"/>
     <path d="m221902 186962c0-4099.1 3322.9-7422 7422-7422 1968.4 0 3856.2 781.95 5248.1 2173.9 1391.9 1391.9 2173.9 3279.7 2173.9 5248.1 0 4099.1-3322.9 7422-7422 7422s-7422-3322.9-7422-7422z" fill="none" stroke="#000" stroke-linejoin="round" stroke-miterlimit="8" stroke-width="381"/>
     <g transform="scale(381)">
      <g transform="translate(588.13 476.94)">
       <text transform="translate(9 20.695)" fill="#000000" font-family="Arial" font-size="18.667px"><tspan x="0" y="0">3</tspan></text>
      </g>
     </g>
     <path d="m145012 139070c0-4099.1 3322.9-7422 7422-7422 1968.4 0 3856.2 781.95 5248.1 2173.9 1391.9 1391.9 2173.9 3279.7 2173.9 5248.1 0 4099.1-3322.9 7422-7422 7422s-7422-3322.9-7422-7422z" fill="#fff" fill-rule="evenodd"/>
     <path d="m145012 139070c0-4099.1 3322.9-7422 7422-7422 1968.4 0 3856.2 781.95 5248.1 2173.9 1391.9 1391.9 2173.9 3279.7 2173.9 5248.1 0 4099.1-3322.9 7422-7422 7422s-7422-3322.9-7422-7422z" fill="none" stroke="#000" stroke-linejoin="round" stroke-miterlimit="8" stroke-width="381"/>
     <g transform="scale(381)">
      <g transform="translate(386.31 351.24)">
       <text transform="translate(9 20.695)" fill="#000000" font-family="Arial" font-size="18.667px"><tspan x="0" y="0">4</tspan></text>
      </g>
     </g>
     <path d="m130337 128619c0 9798 9297 14697 18594 19596s18594 9798 18594 19596" fill-opacity="0"/>
     <path d="m130337 128619c0 9798 9297 14697 18594 19596 4648.5 2449.5 9297 4899 12783 7960.9 1743.2 1530.9 3195.8 3215 4212.7 5128.6 254.22 478.42 481.19 971.18 678.65 1479.5 49.38 127.09 96.89 255.14 142.55 384.18l44.78 129.77" fill="none" stroke="#000" stroke-dasharray="3048, 2286" stroke-linejoin="round" stroke-miterlimit="8" stroke-width="762"/>
     <path d="m165551 163499 1796 3211.9 688.78-3614.9z" fill-rule="evenodd" stroke="#000" stroke-miterlimit="10" stroke-width="762"/>
     <path d="m19976 40997h166488v17244h-166488z" fill-opacity="0"/>
     <g transform="scale(381)">
      <g transform="translate(52.43 107.6)">
       <text transform="translate(115.37 29.48)" fill="#000000" font-family="Arial" font-size="21.333px"><tspan x="0 15.402667 20.138668 24.874668 36.736 48.597336 54.506668 60.416 67.520004 78.186668 90.048004 94.784004 99.520004 111.38134 118.48534 125.58934 131.49867 143.36 150.464 162.32533 172.992 184.85333 195.52" y="0">Client (caller) process</tspan></text>
      </g>
     </g>
     <path d="m227457 40997h172224v17244h-172224z" fill-opacity="0"/>
     <g transform="scale(381)">
      <g transform="translate(597 107.6)">
       <text transform="translate(116.38 29.48)" fill="#000000" font-family="Arial" font-size="21.333px"><tspan x="0 14.208 26.069334 33.173336 43.84 55.701336 62.805336 68.714668 75.818672 86.485336 98.346672 103.08267 107.81867 119.68 131.54134 138.64534 144.55467 156.416 163.52 175.38133 186.048 197.90933 208.576" y="0">Server (callee) process</tspan></text>
      </g>
     </g>
     <path d="m14560 272459h41268" fill-opacity="0"/>
     <path d="m14560 272459h32124" fill="none" stroke="#000" stroke-linejoin="round" stroke-miterlimit="8" stroke-width="1524"/>
     <path d="m46684 274976 6916.1-2517.2-6916.1-2517.2z" fill-rule="evenodd" stroke="#000" stroke-miterlimit="10" stroke-width="1524"/>
     <path d="m14560 287699h41268" fill-opacity="0"/>
     <path d="m14560 287699h36696" fill="none" stroke="#000" stroke-linejoin="round" stroke-miterlimit="8" stroke-width="762"/>
     <path d="m51256 288958 3458-1258.6-3458-1258.6z" fill-rule="evenodd" stroke="#000" stroke-miterlimit="10" stroke-width="762"/>
     <path d="m14560 302939h41268" fill-opacity="0"/>
     <path d="m14560 302939h36696" fill="none" stroke="#000" stroke-dasharray="3048, 2286" stroke-linejoin="round" stroke-miterlimit="8" stroke-width="762"/>
     <path d="m51256 304198 3458-1258.6-3458-1258.6z" fill-rule="evenodd" stroke="#000" stroke-miterlimit="10" stroke-width="762"/>
     <path d="m57717 263966h107328v16008h-107328z" fill-opacity="0"/>
     <g transform="scale(381)">
      <g transform="translate(151.49 692.82)">
       <text transform="translate(9 26.92)" fill="#000000" font-family="Arial" font-size="18.667px"><tspan x="0 13.477333 23.855999 29.026665 39.405331 45.62133 55.999996 66.378662 75.711998 86.09066 91.26133 100.59467 104.73866 115.11733 120.28799 130.66666 135.83733 146.21599 156.59467 166.97333 177.35199 181.49599" y="0">Reference via a handle</tspan></text>
      </g>
     </g>
     <path d="m57717 279206h107328v16008h-107328z" fill-opacity="0"/>
     <g transform="scale(381)">
      <g transform="translate(151.49 732.82)">
       <text transform="translate(9 26.92)" fill="#000000" font-family="Arial" font-size="18.667px"><tspan x="0 12.431999 22.810665 29.026665 39.405331 49.783997 53.927998 60.143997 64.287994 74.666664 79.837334 90.215996 96.431999 106.81066 117.18933 121.33333 126.504 132.72 143.09866 148.26933 158.64799 164.864 175.24266 185.62132 194.95467" y="0">Kernel-internal reference</tspan></text>
      </g>
     </g>
     <path d="m57717 294446h102144v33252h-102144z" fill-opacity="0"/>
     <g transform="scale(381)">
      <g transform="translate(151.49 772.82)">
       <g fill="#000000" font-family="Arial" font-size="18.667px">
        <g>
         <text transform="translate(9 26.92)"><tspan x="0 12.431999 22.810665 29.026665 39.405331 49.783997 53.927998 60.143997 64.287994 74.666664 79.837334 90.215996 96.431999 106.81066 117.18933 121.33333 126.504 132.72 143.09866 148.26933 158.64799 164.864 175.24266 185.62132 194.95467 205.33333 210.504 220.88266 231.26132 235.40532 245.784" y="0">Kernel-internal reference held </tspan></text>
         <text transform="translate(9 49.32)"><tspan x="0 10.378666 19.712 24.882666 30.053331 40.431999 50.810665 55.981331 71.530663 83.962662 98.46666 102.27467 111.60799 116.77866 127.15733 140.63466 151.01332 161.392 167.60799 172.77866 186.256 196.63466 207.01332 217.392 222.56265 227.73332 238.11198 248.49066" y="0">by the MBO’s owner when the </tspan></text>
         <text transform="translate(9 71.72)"><tspan x="0 15.549333 27.981333 42.485332 47.655998 51.799999 61.133331 66.304001 70.447998 80.82666 85.99733 95.330666 100.50133 110.88 116.05066 126.42933" y="0">MBO is in state </tspan></text>
        </g>
        <text transform="translate(140.67 71.72)" font-style="italic"><tspan x="0" y="0">n</tspan></text>
       </g>
      </g>
     </g>
     <path d="m10322 248228h110376v16008h-110376z" fill-opacity="0"/>
     <g transform="scale(381)">
      <g transform="translate(27.092 651.52)">
       <text transform="translate(9 26.92)" fill="#000000" font-family="Arial" font-size="18.667px"><tspan x="0 12.431999 22.810665" y="0">Key</tspan></text>
      </g>
     </g>
     <path d="m182934 245389h189048v50484h-189048z" fill-opacity="0"/>
     <g transform="scale(381)">
      <g transform="translate(480.14 644.07)">
       <g fill="#000000" font-family="Arial" font-size="18.667px">
        <text transform="translate(9 26.92)"><tspan x="0 7.261333 12.096 23.482666 33.861332 44.239998 49.410664 62.887997 73.266663 77.410667 81.554665 91.933327 98.14933 107.48267 120.96 131.33867 136.50932 141.67999 152.05865 162.43733 172.81599 177.98666 183.15733 193.536 203.91466 209.08533 224.63466 237.06667 251.57066 256.74133 266.07465 276.45334 286.832 292.00266 302.38132 312.75998 317.93066 323.10132 333.47998 343.85864 354.23734 364.616 374.99466 380.16531 385.336 395.71466 400.88531 406.056 416.43466 425.76797" y="0">* The CallersRef and the MBO can be thought of as </tspan></text>
        <text transform="translate(9 49.32)"><tspan x="0 10.378666 14.522666 19.357332 24.528 34.906666 41.122665 51.501331 61.879997 67.050667 72.221329 82.599998 92.978661 97.122665 107.50133 116.83466 122.00533 131.33867 136.50932 141.67999 152.05865 162.43733 167.60799 172.77866 177.94933 188.32799 198.70667 208.03999 213.21066 222.54399 232.92265 243.30133 248.47198 258.85065 269.22931 274.39999 284.77866 288.92267 293.06665 303.44531 312.77866 323.15732 328.328 338.70667 349.08533 354.25598 364.63464 373.96799 379.13864 389.51733 394.68799 404.02133 408.16531 418.54398 428.92264 433.06665 443.44531" y="0">different objects, but they can be allocated as a single </tspan></text>
        <text transform="translate(9 71.72)"><tspan x="0 10.378666 20.757332 24.901333 35.279999 44.613331 49.783997 54.954666 65.333328 75.711998 80.882668 86.053329 96.431999 106.81066 111.98133 121.31466 131.69333 137.90933 148.28799 158.66666 162.81065 166.61867 175.952 181.12267 191.50133 201.87999 212.25865 222.63733 227.808 237.81332 249.2 259.57864 269.95734 275.12799 288.60532 298.98398 303.12799 307.272 317.65067 323.86667 333.19998 346.67731 357.056 362.22665 367.39731 376.73065 387.10931 397.48798 402.65866 413.03732 423.41599 427.56 436.89331 442.064 452.44266 462.82132" y="0">object on the kernel’s heap. The CallersRef can only be </tspan></text>
        <text transform="translate(9 94.12)"><tspan x="0 10.378666 19.712 30.090666 40.469334 45.639999 50.810665 61.189331 66.360001 76.738663 86.071999 95.405327 105.784 115.11733 124.45066 129.62132 134.79199 145.17065 155.54933 160.72 176.26933 188.70132 203.20532 208.37599 221.85333 232.23199 242.61066 252.98932 258.16 262.30399 267.47467 272.64532 278.86133 289.23999 302.71732 313.09598 322.42932 328.64532 333.81598 338.98666 349.36533 359.74399 364.91464 380.46399 392.896 407.39999 412.57065 418.78665 422.93066 433.30933" y="0">used to access the MBO when it “owns” the MBO (in </tspan></text>
        <text transform="translate(9 116.52)"><tspan x="0 9.333333 14.504 24.882666 30.053331 40.431999 45.602665 55.981331 62.19733" y="0">state 1).</tspan></text>
       </g>
      </g>
     </g>
     <path d="m32725 311885c0-4099.1 3322.9-7422 7422-7422 1968.4 0 3856.2 781.97 5248.2 2173.8 1391.9 1391.9 2173.8 3279.7 2173.8 5248.2 0 4099.1-3322.9 7422-7422 7422s-7422-3322.9-7422-7422z" fill="#fff" fill-rule="evenodd"/>
     <path d="m32725 311885c0-4099.1 3322.9-7422 7422-7422 1968.4 0 3856.2 781.97 5248.2 2173.8 1391.9 1391.9 2173.8 3279.7 2173.8 5248.2 0 4099.1-3322.9 7422-7422 7422s-7422-3322.9-7422-7422z" fill="none" stroke="#000" stroke-linejoin="round" stroke-miterlimit="8" stroke-width="381"/>
     <g transform="scale(381)">
      <g transform="translate(91.598 804.82)">
       <text transform="translate(9 20.695)" fill="#000000" font-family="Arial" font-size="18.667px" font-style="italic"><tspan x="0" y="0">n</tspan></text>
      </g>
     </g>
     <path d="m17424 5334h186792v18468h-186792z" fill-opacity="0"/>
     <g transform="scale(381)">
      <g transform="translate(45.732 14)">
       <text transform="translate(9,32.04)" fill="#000000" font-family="Arial" font-size="24px" font-weight="bold"><tspan x="0 18.648001 33.287998 39.936001 53.279999 66.624001 74.615997 81.264 90.599998 103.944 111.936 125.28 134.616 147.96001 162.60001 175.944 189.28799 195.936 210.576 219.912 233.256 247.896" y="0">Object reference graph</tspan></text>
      </g>
     </g>
     <path d="m16755 138515h57828v19788h-57828z" fill="#cfe2f3" fill-rule="evenodd"/>
     <path d="m16755 138515h57828v19788h-57828z" fill="none" stroke="#000" stroke-linejoin="round" stroke-miterlimit="8" stroke-width="381"/>
     <g transform="scale(381)">
      <g transform="translate(43.976 363.56)">
       <text transform="translate(42.194 32.889)" fill="#000000" font-family="Arial" font-size="18.667px"><tspan x="0 12.431999 18.647999 29.026665 38.359997 48.738667 58.071999" y="0">Process</tspan></text>
      </g>
     </g>
    </g>
   </g>
  </g>
 </g>
</svg>
