<?xml version="1.0" encoding="UTF-8" standalone="no"?>
<!DOCTYPE svg PUBLIC "-//W3C//DTD SVG 1.1//EN" "http://www.w3.org/Graphics/SVG/1.1/DTD/svg11.dtd">
<!-- Generated by graphviz version 2.44.1 (20201121.0304)
 -->
<!-- Pages: 1 -->
<svg xmlns="http://www.w3.org/2000/svg" xmlns:xlink="http://www.w3.org/1999/xlink" width="966pt" height="850pt" viewBox="0.00 0.00 965.79 850.00"><script>
(function() {
  var enablePanZoom = false;
  var enablePanZoomControls = false;
  var panZoomScriptUrl = "https://graphviz.corp.google.com/svg-pan-zoom.js";

  var isEmbedded = true;
  try {
    // This condition is true when the SVG is being displayed in a
    // top-level browser window. If the parent location's href is
    // different, or we can't access it (due to security constraints
    // on accessing javascript properties on a different domain),
    // then the document is embedded.
    if (window.location.href == window.parent.location.href) {
      isEmbedded = false;
    }
  } catch (e) {}

  if (!isEmbedded) enablePanZoom = true;

  if (enablePanZoom &amp;&amp; typeof svgPanZoom === 'undefined') {
    var panZoomScript =
      document.createElementNS('http://www.w3.org/2000/svg', 'script');
    panZoomScript.setAttributeNS(
      'http://www.w3.org/1999/xlink', 'xlink:href', panZoomScriptUrl);
    document.currentScript.parentElement.appendChild(panZoomScript);
  }

  window.onload = function() {
    var svg = document.getElementsByTagName("svg")[0];

    if (!isEmbedded) {
      svg.removeAttribute("width");
      svg.removeAttribute("height");
    }

    if (enablePanZoom) {
      svgPanZoom(svg, {
        minZoom: 0.2,
        maxZoom: 100,
        controlIconsEnabled: enablePanZoomControls
      });
    }

    var links = document.getElementsByTagName("a");
    for (var i = 0; i &lt; links.length; i++) {
      if (!links[i].getAttribute("target")) {
        links[i].setAttribute("target", "_top");
      }
    }
  };
})();
</script>
<g id="graph0" class="graph" transform="scale(1 1) rotate(0) translate(4 846)">
<polygon fill="white" stroke="transparent" points="-4,4 -4,-846 961.79,-846 961.79,4 -4,4"/>
<text text-anchor="middle" x="478.9" y="-826.8" font-family="Times,serif" font-size="14.00">CLICK RECOGNIZER</text>
<g id="clust3" class="cluster">
<title>cluster_pressed_contender</title>
<polygon fill="none" stroke="black" points="176.29,-187 176.29,-398 949.79,-398 949.79,-187 176.29,-187"/>
<text text-anchor="middle" x="563.04" y="-382.8" font-family="Times,serif" font-size="14.00">PressedContender</text>
<text text-anchor="middle" x="563.04" y="-367.8" font-family="Times,serif" font-size="14.00">`impl Contender`</text>
</g>
<g id="clust1" class="cluster">
<title>cluster_initial_contender</title>
<polygon fill="none" stroke="black" points="176.29,-625 176.29,-811 771.79,-811 771.79,-625 176.29,-625"/>
<text text-anchor="middle" x="474.04" y="-795.8" font-family="Times,serif" font-size="14.00">InitialContender</text>
<text text-anchor="middle" x="474.04" y="-780.8" font-family="Times,serif" font-size="14.00">`impl Contender`</text>
</g>
<g id="clust2" class="cluster">
<title>cluster_unpressed_contender</title>
<polygon fill="none" stroke="black" points="176.29,-406 176.29,-617 946.29,-617 946.29,-406 176.29,-406"/>
<text text-anchor="middle" x="561.29" y="-601.8" font-family="Times,serif" font-size="14.00">UnpressedContender</text>
<text text-anchor="middle" x="561.29" y="-586.8" font-family="Times,serif" font-size="14.00">`impl Contender`</text>
</g>
<g id="clust4" class="cluster">
<title>cluster_matched_contender</title>
<polygon fill="none" stroke="black" points="142.79,-8 142.79,-179 742.79,-179 742.79,-8 142.79,-8"/>
<text text-anchor="middle" x="442.79" y="-163.8" font-family="Times,serif" font-size="14.00">MatchedContender</text>
</g>
<!-- arena -->
<g id="node1" class="node">
<title>arena</title>
<ellipse fill="none" stroke="black" cx="33.9" cy="-273" rx="29.81" ry="29.81"/>
<ellipse fill="none" stroke="black" cx="33.9" cy="-273" rx="33.8" ry="33.8"/>
<text text-anchor="middle" x="33.9" y="-269.3" font-family="Times,serif" font-size="14.00">arena</text>
</g>
<!-- examine_at_initial_contender -->
<g id="node2" class="node">
<title>examine_at_initial_contender</title>
<polygon fill="none" stroke="black" points="240.29,-739 184.29,-686 240.29,-633 296.29,-686 240.29,-739"/>
<text text-anchor="middle" x="240.29" y="-697.3" font-family="Times,serif" font-size="14.00">exactly</text>
<text text-anchor="middle" x="240.29" y="-682.3" font-family="Times,serif" font-size="14.00">one</text>
<text text-anchor="middle" x="240.29" y="-667.3" font-family="Times,serif" font-size="14.00">finger?</text>
</g>
<!-- arena&#45;&gt;examine_at_initial_contender -->
<g id="edge1" class="edge">
<title>arena-&gt;examine_at_initial_contender</title>
<path fill="none" stroke="black" d="M37.91,-306.76C45.3,-373.07 69.48,-522.4 142.79,-621 155.95,-638.69 175.43,-653.11 193.45,-663.84"/>
<polygon fill="black" stroke="black" points="191.72,-666.88 202.14,-668.8 195.19,-660.8 191.72,-666.88"/>
<text text-anchor="middle" x="109.29" y="-623.8" font-family="Times,serif" font-size="14.00">examine</text>
<text text-anchor="middle" x="109.29" y="-608.8" font-family="Times,serif" font-size="14.00">event()</text>
</g>
<!-- examine_at_unpressed_contender -->
<g id="node7" class="node">
<title>examine_at_unpressed_contender</title>
<polygon fill="none" stroke="black" points="240.29,-520 184.29,-467 240.29,-414 296.29,-467 240.29,-520"/>
<text text-anchor="middle" x="240.29" y="-478.3" font-family="Times,serif" font-size="14.00">exactly</text>
<text text-anchor="middle" x="240.29" y="-463.3" font-family="Times,serif" font-size="14.00">one</text>
<text text-anchor="middle" x="240.29" y="-448.3" font-family="Times,serif" font-size="14.00">finger?</text>
</g>
<!-- arena&#45;&gt;examine_at_unpressed_contender -->
<g id="edge6" class="edge">
<title>arena-&gt;examine_at_unpressed_contender</title>
<path fill="none" stroke="black" d="M54.21,-300.36C74.41,-327.89 107.98,-370.63 142.79,-402 159.02,-416.63 178.76,-430.49 196.15,-441.63"/>
<polygon fill="black" stroke="black" points="194.67,-444.84 205,-447.2 198.4,-438.91 194.67,-444.84"/>
<text text-anchor="middle" x="109.29" y="-407.8" font-family="Times,serif" font-size="14.00">examine</text>
<text text-anchor="middle" x="109.29" y="-392.8" font-family="Times,serif" font-size="14.00">event()</text>
</g>
<!-- examine_at_pressed_contender -->
<g id="node13" class="node">
<title>examine_at_pressed_contender</title>
<polygon fill="none" stroke="black" points="240.29,-326 184.29,-273 240.29,-220 296.29,-273 240.29,-326"/>
<text text-anchor="middle" x="240.29" y="-284.3" font-family="Times,serif" font-size="14.00">exactly</text>
<text text-anchor="middle" x="240.29" y="-269.3" font-family="Times,serif" font-size="14.00">one</text>
<text text-anchor="middle" x="240.29" y="-254.3" font-family="Times,serif" font-size="14.00">finger?</text>
</g>
<!-- arena&#45;&gt;examine_at_pressed_contender -->
<g id="edge13" class="edge">
<title>arena-&gt;examine_at_pressed_contender</title>
<path fill="none" stroke="black" d="M68.19,-273C96.71,-273 138.63,-273 173.84,-273"/>
<polygon fill="black" stroke="black" points="174.05,-276.5 184.05,-273 174.05,-269.5 174.05,-276.5"/>
<text text-anchor="middle" x="109.29" y="-291.8" font-family="Times,serif" font-size="14.00">examine</text>
<text text-anchor="middle" x="109.29" y="-276.8" font-family="Times,serif" font-size="14.00">event()</text>
</g>
<!-- verify_at_matched_contender -->
<g id="node19" class="node">
<title>verify_at_matched_contender</title>
<polygon fill="none" stroke="black" points="240.29,-148 177.29,-110 240.29,-72 303.29,-110 240.29,-148"/>
<text text-anchor="middle" x="240.29" y="-113.8" font-family="Times,serif" font-size="14.00">button</text>
<text text-anchor="middle" x="240.29" y="-98.8" font-family="Times,serif" font-size="14.00">pressed?</text>
</g>
<!-- arena&#45;&gt;verify_at_matched_contender -->
<g id="edge20" class="edge">
<title>arena-&gt;verify_at_matched_contender</title>
<path fill="none" stroke="black" d="M60.34,-251.2C82.03,-232.75 114.15,-205.76 142.79,-183 162.48,-167.36 184.85,-150.39 203.09,-136.75"/>
<polygon fill="black" stroke="black" points="205.23,-139.52 211.15,-130.74 201.05,-133.91 205.23,-139.52"/>
<text text-anchor="middle" x="109.29" y="-247.8" font-family="Times,serif" font-size="14.00">verify</text>
<text text-anchor="middle" x="109.29" y="-232.8" font-family="Times,serif" font-size="14.00">event()</text>
</g>
<!-- send_click -->
<g id="node23" class="node">
<title>send_click</title>
<polygon fill="none" stroke="black" points="329.79,-54 150.79,-54 150.79,-16 329.79,-16 329.79,-54"/>
<text text-anchor="middle" x="240.29" y="-38.8" font-family="Times,serif" font-size="14.00">return</text>
<text text-anchor="middle" x="240.29" y="-23.8" font-family="Times,serif" font-size="14.00">vec![Down, Up], None, Click</text>
</g>
<!-- arena&#45;&gt;send_click -->
<g id="edge25" class="edge">
<title>arena-&gt;send_click</title>
<path fill="none" stroke="black" d="M41.87,-239.75C53.72,-192.17 82.62,-105.69 142.79,-63 144.7,-61.65 146.67,-60.36 148.7,-59.13"/>
<polygon fill="black" stroke="black" points="150.77,-61.99 157.88,-54.14 147.42,-55.84 150.77,-61.99"/>
<text text-anchor="middle" x="109.29" y="-157.8" font-family="Times,serif" font-size="14.00">process</text>
<text text-anchor="middle" x="109.29" y="-142.8" font-family="Times,serif" font-size="14.00">buffered</text>
<text text-anchor="middle" x="109.29" y="-127.8" font-family="Times,serif" font-size="14.00">events()</text>
</g>
<!-- examine2_at_initial_contender -->
<g id="node3" class="node">
<title>examine2_at_initial_contender</title>
<polygon fill="none" stroke="black" points="473.79,-709 410.79,-671 473.79,-633 536.79,-671 473.79,-709"/>
<text text-anchor="middle" x="473.79" y="-674.8" font-family="Times,serif" font-size="14.00">button</text>
<text text-anchor="middle" x="473.79" y="-659.8" font-family="Times,serif" font-size="14.00">pressed?</text>
</g>
<!-- examine_at_initial_contender&#45;&gt;examine2_at_initial_contender -->
<g id="edge2" class="edge">
<title>examine_at_initial_contender-&gt;examine2_at_initial_contender</title>
<path fill="none" stroke="black" d="M292.96,-682.65C326.31,-680.49 370.03,-677.66 406.01,-675.33"/>
<polygon fill="black" stroke="black" points="406.67,-678.79 416.43,-674.65 406.22,-671.81 406.67,-678.79"/>
<text text-anchor="middle" x="357.29" y="-681.8" font-family="Times,serif" font-size="14.00">yes</text>
</g>
<!-- return_mismatch_at_initial_contender -->
<g id="node4" class="node">
<title>return_mismatch_at_initial_contender</title>
<polygon fill="none" stroke="black" points="509.79,-765 437.79,-765 437.79,-727 509.79,-727 509.79,-765"/>
<text text-anchor="middle" x="473.79" y="-749.8" font-family="Times,serif" font-size="14.00">return</text>
<text text-anchor="middle" x="473.79" y="-734.8" font-family="Times,serif" font-size="14.00">Mismatch</text>
</g>
<!-- examine_at_initial_contender&#45;&gt;return_mismatch_at_initial_contender -->
<g id="edge3" class="edge">
<title>examine_at_initial_contender-&gt;return_mismatch_at_initial_contender</title>
<path fill="none" stroke="black" d="M284.57,-697.22C325.43,-707.81 386.46,-723.62 427.86,-734.35"/>
<polygon fill="black" stroke="black" points="427.12,-737.78 437.68,-736.9 428.88,-731 427.12,-737.78"/>
<text text-anchor="middle" x="357.29" y="-720.8" font-family="Times,serif" font-size="14.00">no</text>
</g>
<!-- return_pressed_contender_at_initial_contender -->
<g id="node5" class="node">
<title>return_pressed_contender_at_initial_contender</title>
<polygon fill="none" stroke="black" points="755.79,-680 641.79,-680 641.79,-642 755.79,-642 755.79,-680"/>
<text text-anchor="middle" x="698.79" y="-664.8" font-family="Times,serif" font-size="14.00">return</text>
<text text-anchor="middle" x="698.79" y="-649.8" font-family="Times,serif" font-size="14.00">PressedContender</text>
</g>
<!-- examine2_at_initial_contender&#45;&gt;return_pressed_contender_at_initial_contender -->
<g id="edge4" class="edge">
<title>examine2_at_initial_contender-&gt;return_pressed_contender_at_initial_contender</title>
<path fill="none" stroke="black" d="M532.51,-668.41C562.79,-667.05 600.02,-665.38 631.48,-663.97"/>
<polygon fill="black" stroke="black" points="631.64,-667.47 641.48,-663.53 631.33,-660.48 631.64,-667.47"/>
<text text-anchor="middle" x="597.29" y="-669.8" font-family="Times,serif" font-size="14.00">yes</text>
</g>
<!-- return_unpressed_contender_at_initial_contender -->
<g id="node6" class="node">
<title>return_unpressed_contender_at_initial_contender</title>
<polygon fill="none" stroke="black" points="763.79,-736 633.79,-736 633.79,-698 763.79,-698 763.79,-736"/>
<text text-anchor="middle" x="698.79" y="-720.8" font-family="Times,serif" font-size="14.00">return</text>
<text text-anchor="middle" x="698.79" y="-705.8" font-family="Times,serif" font-size="14.00">UnpressedContender</text>
</g>
<!-- examine2_at_initial_contender&#45;&gt;return_unpressed_contender_at_initial_contender -->
<g id="edge5" class="edge">
<title>examine2_at_initial_contender-&gt;return_unpressed_contender_at_initial_contender</title>
<path fill="none" stroke="black" d="M521,-680.53C550.61,-686.64 589.7,-694.7 623.6,-701.69"/>
<polygon fill="black" stroke="black" points="622.97,-705.14 633.47,-703.73 624.38,-698.28 622.97,-705.14"/>
<text text-anchor="middle" x="597.29" y="-702.8" font-family="Times,serif" font-size="14.00">no</text>
</g>
<!-- return_mismatch_at_unpressed_contender -->
<g id="node8" class="node">
<title>return_mismatch_at_unpressed_contender</title>
<polygon fill="none" stroke="black" points="734.79,-457 662.79,-457 662.79,-419 734.79,-419 734.79,-457"/>
<text text-anchor="middle" x="698.79" y="-441.8" font-family="Times,serif" font-size="14.00">return</text>
<text text-anchor="middle" x="698.79" y="-426.8" font-family="Times,serif" font-size="14.00">Mismatch</text>
</g>
<!-- examine_at_unpressed_contender&#45;&gt;return_mismatch_at_unpressed_contender -->
<g id="edge7" class="edge">
<title>examine_at_unpressed_contender-&gt;return_mismatch_at_unpressed_contender</title>
<path fill="none" stroke="black" d="M285.94,-456.89C314.13,-451.02 351.4,-444.16 384.79,-441 479.66,-432.02 591.43,-433.93 652.42,-436.03"/>
<polygon fill="black" stroke="black" points="652.37,-439.53 662.49,-436.4 652.62,-432.54 652.37,-439.53"/>
<text text-anchor="middle" x="473.79" y="-444.8" font-family="Times,serif" font-size="14.00">no</text>
</g>
<!-- examine2_at_unpressed_contender -->
<g id="node9" class="node">
<title>examine2_at_unpressed_contender</title>
<polygon fill="none" stroke="black" points="473.79,-571 384.79,-518 473.79,-465 562.79,-518 473.79,-571"/>
<text text-anchor="middle" x="473.79" y="-529.3" font-family="Times,serif" font-size="14.00">displacement</text>
<text text-anchor="middle" x="473.79" y="-514.3" font-family="Times,serif" font-size="14.00">&gt;</text>
<text text-anchor="middle" x="473.79" y="-499.3" font-family="Times,serif" font-size="14.00">threshold?</text>
</g>
<!-- examine_at_unpressed_contender&#45;&gt;examine2_at_unpressed_contender -->
<g id="edge8" class="edge">
<title>examine_at_unpressed_contender-&gt;examine2_at_unpressed_contender</title>
<path fill="none" stroke="black" d="M285.93,-476.83C317.64,-483.82 360.96,-493.36 397.92,-501.5"/>
<polygon fill="black" stroke="black" points="397.64,-505.03 408.16,-503.76 399.14,-498.19 397.64,-505.03"/>
<text text-anchor="middle" x="357.29" y="-497.8" font-family="Times,serif" font-size="14.00">yes</text>
</g>
<!-- examine2_at_unpressed_contender&#45;&gt;return_mismatch_at_unpressed_contender -->
<g id="edge9" class="edge">
<title>examine2_at_unpressed_contender-&gt;return_mismatch_at_unpressed_contender</title>
<path fill="none" stroke="black" d="M529.92,-498.22C567.88,-484.61 617.67,-466.74 653.15,-454.02"/>
<polygon fill="black" stroke="black" points="654.52,-457.24 662.76,-450.57 652.16,-450.65 654.52,-457.24"/>
<text text-anchor="middle" x="597.29" y="-481.8" font-family="Times,serif" font-size="14.00">yes</text>
</g>
<!-- examine3_at_unpressed_contender -->
<g id="node10" class="node">
<title>examine3_at_unpressed_contender</title>
<polygon fill="none" stroke="black" points="698.79,-556 635.79,-518 698.79,-480 761.79,-518 698.79,-556"/>
<text text-anchor="middle" x="698.79" y="-521.8" font-family="Times,serif" font-size="14.00">button</text>
<text text-anchor="middle" x="698.79" y="-506.8" font-family="Times,serif" font-size="14.00">pressed?</text>
</g>
<!-- examine2_at_unpressed_contender&#45;&gt;examine3_at_unpressed_contender -->
<g id="edge10" class="edge">
<title>examine2_at_unpressed_contender-&gt;examine3_at_unpressed_contender</title>
<path fill="none" stroke="black" d="M562.93,-518C583.66,-518 605.53,-518 625.47,-518"/>
<polygon fill="black" stroke="black" points="625.71,-521.5 635.71,-518 625.71,-514.5 625.71,-521.5"/>
<text text-anchor="middle" x="597.29" y="-521.8" font-family="Times,serif" font-size="14.00">no</text>
</g>
<!-- return_self_at_unpressed_contender -->
<g id="node11" class="node">
<title>return_self_at_unpressed_contender</title>
<polygon fill="none" stroke="black" points="908.29,-502 854.29,-502 854.29,-464 908.29,-464 908.29,-502"/>
<text text-anchor="middle" x="881.29" y="-486.8" font-family="Times,serif" font-size="14.00">return</text>
<text text-anchor="middle" x="881.29" y="-471.8" font-family="Times,serif" font-size="14.00">`self`</text>
</g>
<!-- examine3_at_unpressed_contender&#45;&gt;return_self_at_unpressed_contender -->
<g id="edge11" class="edge">
<title>examine3_at_unpressed_contender-&gt;return_self_at_unpressed_contender</title>
<path fill="none" stroke="black" d="M746.75,-508.9C777.13,-503 816.09,-495.45 844.07,-490.02"/>
<polygon fill="black" stroke="black" points="845.07,-493.4 854.22,-488.06 843.74,-486.52 845.07,-493.4"/>
<text text-anchor="middle" x="793.29" y="-504.8" font-family="Times,serif" font-size="14.00">no</text>
</g>
<!-- return_pressed_contender_at_unpressed_contender -->
<g id="node12" class="node">
<title>return_pressed_contender_at_unpressed_contender</title>
<polygon fill="none" stroke="black" points="938.29,-558 824.29,-558 824.29,-520 938.29,-520 938.29,-558"/>
<text text-anchor="middle" x="881.29" y="-542.8" font-family="Times,serif" font-size="14.00">return</text>
<text text-anchor="middle" x="881.29" y="-527.8" font-family="Times,serif" font-size="14.00">PressedContender</text>
</g>
<!-- examine3_at_unpressed_contender&#45;&gt;return_pressed_contender_at_unpressed_contender -->
<g id="edge12" class="edge">
<title>examine3_at_unpressed_contender-&gt;return_pressed_contender_at_unpressed_contender</title>
<path fill="none" stroke="black" d="M752,-524.07C771.33,-526.32 793.51,-528.9 813.93,-531.28"/>
<polygon fill="black" stroke="black" points="813.77,-534.78 824.11,-532.46 814.58,-527.83 813.77,-534.78"/>
<text text-anchor="middle" x="793.29" y="-532.8" font-family="Times,serif" font-size="14.00">yes</text>
</g>
<!-- return_mismatch_at_pressed_contender -->
<g id="node14" class="node">
<title>return_mismatch_at_pressed_contender</title>
<polygon fill="none" stroke="black" points="734.79,-238 662.79,-238 662.79,-200 734.79,-200 734.79,-238"/>
<text text-anchor="middle" x="698.79" y="-222.8" font-family="Times,serif" font-size="14.00">return</text>
<text text-anchor="middle" x="698.79" y="-207.8" font-family="Times,serif" font-size="14.00">Mismatch</text>
</g>
<!-- examine_at_pressed_contender&#45;&gt;return_mismatch_at_pressed_contender -->
<g id="edge14" class="edge">
<title>examine_at_pressed_contender-&gt;return_mismatch_at_pressed_contender</title>
<path fill="none" stroke="black" d="M278.43,-255.95C306.87,-243.85 347.44,-228.63 384.79,-222 478.88,-205.31 591.37,-210.13 652.61,-214.79"/>
<polygon fill="black" stroke="black" points="652.46,-218.29 662.71,-215.59 653.02,-211.31 652.46,-218.29"/>
<text text-anchor="middle" x="473.79" y="-225.8" font-family="Times,serif" font-size="14.00">no</text>
</g>
<!-- examine2_at_pressed_contender -->
<g id="node15" class="node">
<title>examine2_at_pressed_contender</title>
<polygon fill="none" stroke="black" points="473.79,-352 384.79,-299 473.79,-246 562.79,-299 473.79,-352"/>
<text text-anchor="middle" x="473.79" y="-310.3" font-family="Times,serif" font-size="14.00">displacement</text>
<text text-anchor="middle" x="473.79" y="-295.3" font-family="Times,serif" font-size="14.00">&gt;</text>
<text text-anchor="middle" x="473.79" y="-280.3" font-family="Times,serif" font-size="14.00">threshold?</text>
</g>
<!-- examine_at_pressed_contender&#45;&gt;examine2_at_pressed_contender -->
<g id="edge15" class="edge">
<title>examine_at_pressed_contender-&gt;examine2_at_pressed_contender</title>
<path fill="none" stroke="black" d="M290.67,-278.55C319.07,-281.74 355.53,-285.83 388.35,-289.52"/>
<polygon fill="black" stroke="black" points="388.08,-293.01 398.4,-290.65 388.86,-286.05 388.08,-293.01"/>
<text text-anchor="middle" x="357.29" y="-289.8" font-family="Times,serif" font-size="14.00">yes</text>
</g>
<!-- examine2_at_pressed_contender&#45;&gt;return_mismatch_at_pressed_contender -->
<g id="edge16" class="edge">
<title>examine2_at_pressed_contender-&gt;return_mismatch_at_pressed_contender</title>
<path fill="none" stroke="black" d="M529.92,-279.22C567.88,-265.61 617.67,-247.74 653.15,-235.02"/>
<polygon fill="black" stroke="black" points="654.52,-238.24 662.76,-231.57 652.16,-231.65 654.52,-238.24"/>
<text text-anchor="middle" x="597.29" y="-262.8" font-family="Times,serif" font-size="14.00">yes</text>
</g>
<!-- examine3_at_pressed_contender -->
<g id="node16" class="node">
<title>examine3_at_pressed_contender</title>
<polygon fill="none" stroke="black" points="698.79,-337 631.79,-299 698.79,-261 765.79,-299 698.79,-337"/>
<text text-anchor="middle" x="698.79" y="-302.8" font-family="Times,serif" font-size="14.00">button</text>
<text text-anchor="middle" x="698.79" y="-287.8" font-family="Times,serif" font-size="14.00">released?</text>
</g>
<!-- examine2_at_pressed_contender&#45;&gt;examine3_at_pressed_contender -->
<g id="edge17" class="edge">
<title>examine2_at_pressed_contender-&gt;examine3_at_pressed_contender</title>
<path fill="none" stroke="black" d="M562.93,-299C582.33,-299 602.72,-299 621.6,-299"/>
<polygon fill="black" stroke="black" points="621.62,-302.5 631.62,-299 621.62,-295.5 621.62,-302.5"/>
<text text-anchor="middle" x="597.29" y="-302.8" font-family="Times,serif" font-size="14.00">no</text>
</g>
<!-- return_matched_contender_at_pressed_contender -->
<g id="node17" class="node">
<title>return_matched_contender_at_pressed_contender</title>
<polygon fill="none" stroke="black" points="941.79,-283 820.79,-283 820.79,-245 941.79,-245 941.79,-283"/>
<text text-anchor="middle" x="881.29" y="-267.8" font-family="Times,serif" font-size="14.00">return</text>
<text text-anchor="middle" x="881.29" y="-252.8" font-family="Times,serif" font-size="14.00">MatchedContender</text>
</g>
<!-- examine3_at_pressed_contender&#45;&gt;return_matched_contender_at_pressed_contender -->
<g id="edge18" class="edge">
<title>examine3_at_pressed_contender-&gt;return_matched_contender_at_pressed_contender</title>
<path fill="none" stroke="black" d="M749.12,-289.44C768.13,-285.75 790.23,-281.46 810.8,-277.48"/>
<polygon fill="black" stroke="black" points="811.6,-280.88 820.75,-275.55 810.27,-274.01 811.6,-280.88"/>
<text text-anchor="middle" x="793.29" y="-285.8" font-family="Times,serif" font-size="14.00">yes</text>
</g>
<!-- return_self_at_pressed_contender -->
<g id="node18" class="node">
<title>return_self_at_pressed_contender</title>
<polygon fill="none" stroke="black" points="908.29,-339 854.29,-339 854.29,-301 908.29,-301 908.29,-339"/>
<text text-anchor="middle" x="881.29" y="-323.8" font-family="Times,serif" font-size="14.00">return</text>
<text text-anchor="middle" x="881.29" y="-308.8" font-family="Times,serif" font-size="14.00">`self`</text>
</g>
<!-- examine3_at_pressed_contender&#45;&gt;return_self_at_pressed_contender -->
<g id="edge19" class="edge">
<title>examine3_at_pressed_contender-&gt;return_self_at_pressed_contender</title>
<path fill="none" stroke="black" d="M754.93,-305.41C783.91,-308.79 818.61,-312.82 844.14,-315.79"/>
<polygon fill="black" stroke="black" points="843.8,-319.28 854.14,-316.96 844.61,-312.32 843.8,-319.28"/>
<text text-anchor="middle" x="793.29" y="-313.8" font-family="Times,serif" font-size="14.00">no</text>
</g>
<!-- return_mismatch_at_matched_contender -->
<g id="node20" class="node">
<title>return_mismatch_at_matched_contender</title>
<polygon fill="none" stroke="black" points="734.79,-66 662.79,-66 662.79,-28 734.79,-28 734.79,-66"/>
<text text-anchor="middle" x="698.79" y="-50.8" font-family="Times,serif" font-size="14.00">return</text>
<text text-anchor="middle" x="698.79" y="-35.8" font-family="Times,serif" font-size="14.00">Mismatch</text>
</g>
<!-- verify_at_matched_contender&#45;&gt;return_mismatch_at_matched_contender -->
<g id="edge21" class="edge">
<title>verify_at_matched_contender-&gt;return_mismatch_at_matched_contender</title>
<path fill="none" stroke="black" d="M273.11,-91.78C301.39,-76.7 344.41,-56.42 384.79,-48 478.33,-28.5 591.03,-35.32 652.45,-41.5"/>
<polygon fill="black" stroke="black" points="652.27,-45 662.58,-42.56 653,-38.03 652.27,-45"/>
<text text-anchor="middle" x="473.79" y="-51.8" font-family="Times,serif" font-size="14.00">yes</text>
</g>
<!-- verify2_at_matched_contender -->
<g id="node21" class="node">
<title>verify2_at_matched_contender</title>
<polygon fill="none" stroke="black" points="473.79,-148 411.79,-110 473.79,-72 535.79,-110 473.79,-148"/>
<text text-anchor="middle" x="473.79" y="-113.8" font-family="Times,serif" font-size="14.00">fingers</text>
<text text-anchor="middle" x="473.79" y="-98.8" font-family="Times,serif" font-size="14.00">present?</text>
</g>
<!-- verify_at_matched_contender&#45;&gt;verify2_at_matched_contender -->
<g id="edge22" class="edge">
<title>verify_at_matched_contender-&gt;verify2_at_matched_contender</title>
<path fill="none" stroke="black" d="M303.33,-110C333.67,-110 370.32,-110 401.77,-110"/>
<polygon fill="black" stroke="black" points="401.79,-113.5 411.79,-110 401.79,-106.5 401.79,-113.5"/>
<text text-anchor="middle" x="357.29" y="-113.8" font-family="Times,serif" font-size="14.00">no</text>
</g>
<!-- verify2_at_matched_contender&#45;&gt;return_mismatch_at_matched_contender -->
<g id="edge23" class="edge">
<title>verify2_at_matched_contender-&gt;return_mismatch_at_matched_contender</title>
<path fill="none" stroke="black" d="M516.74,-98.15C555.59,-87.18 613.19,-70.9 652.94,-59.67"/>
<polygon fill="black" stroke="black" points="653.97,-63.02 662.64,-56.93 652.07,-56.28 653.97,-63.02"/>
<text text-anchor="middle" x="597.29" y="-81.8" font-family="Times,serif" font-size="14.00">&gt;1</text>
</g>
<!-- return_self_at_matched_contender -->
<g id="node22" class="node">
<title>return_self_at_matched_contender</title>
<polygon fill="none" stroke="black" points="725.79,-129 671.79,-129 671.79,-91 725.79,-91 725.79,-129"/>
<text text-anchor="middle" x="698.79" y="-113.8" font-family="Times,serif" font-size="14.00">return</text>
<text text-anchor="middle" x="698.79" y="-98.8" font-family="Times,serif" font-size="14.00">`self`</text>
</g>
<!-- verify2_at_matched_contender&#45;&gt;return_self_at_matched_contender -->
<g id="edge24" class="edge">
<title>verify2_at_matched_contender-&gt;return_self_at_matched_contender</title>
<path fill="none" stroke="black" d="M536.03,-110C576.17,-110 627.3,-110 661.22,-110"/>
<polygon fill="black" stroke="black" points="661.59,-113.5 671.59,-110 661.59,-106.5 661.59,-113.5"/>
<text text-anchor="middle" x="597.29" y="-113.8" font-family="Times,serif" font-size="14.00">0 or 1</text>
</g>
</g>
</svg>
