<?xml version="1.0" encoding="UTF-8" standalone="no"?>
<!DOCTYPE svg PUBLIC "-//W3C//DTD SVG 1.1//EN" "http://www.w3.org/Graphics/SVG/1.1/DTD/svg11.dtd">
<!-- Generated by graphviz version 2.44.1 (20201121.0304)
 -->
<!-- Pages: 1 -->
<svg xmlns="http://www.w3.org/2000/svg" xmlns:xlink="http://www.w3.org/1999/xlink" width="1105pt" height="768pt" viewBox="0.00 0.00 1105.40 768.00"><script>
(function() {
  var enablePanZoom = false;
  var enablePanZoomControls = false;
  var panZoomScriptUrl = "https://graphviz.corp.google.com/svg-pan-zoom.js";

  var isEmbedded = true;
  try {
    // This condition is true when the SVG is being displayed in a
    // top-level browser window. If the parent location's href is
    // different, or we can't access it (due to security constraints
    // on accessing javascript properties on a different domain),
    // then the document is embedded.
    if (window.location.href == window.parent.location.href) {
      isEmbedded = false;
    }
  } catch (e) {}

  if (!isEmbedded) enablePanZoom = true;

  if (enablePanZoom &amp;&amp; typeof svgPanZoom === 'undefined') {
    var panZoomScript =
      document.createElementNS('http://www.w3.org/2000/svg', 'script');
    panZoomScript.setAttributeNS(
      'http://www.w3.org/1999/xlink', 'xlink:href', panZoomScriptUrl);
    document.currentScript.parentElement.appendChild(panZoomScript);
  }

  window.onload = function() {
    var svg = document.getElementsByTagName("svg")[0];

    if (!isEmbedded) {
      svg.removeAttribute("width");
      svg.removeAttribute("height");
    }

    if (enablePanZoom) {
      svgPanZoom(svg, {
        minZoom: 0.2,
        maxZoom: 100,
        controlIconsEnabled: enablePanZoomControls
      });
    }

    var links = document.getElementsByTagName("a");
    for (var i = 0; i &lt; links.length; i++) {
      if (!links[i].getAttribute("target")) {
        links[i].setAttribute("target", "_top");
      }
    }
  };
})();
</script>
<g id="graph0" class="graph" transform="scale(1 1) rotate(0) translate(4 764)">
<polygon fill="white" stroke="transparent" points="-4,4 -4,-764 1101.4,-764 1101.4,4 -4,4"/>
<text text-anchor="middle" x="548.7" y="-744.8" font-family="Times,serif" font-size="14.00">PRIMARY TAP RECOGNIZER</text>
<g id="clust3" class="cluster">
<title>cluster_matched_contender</title>
<polygon fill="none" stroke="black" points="142.79,-8 142.79,-209 909.4,-209 909.4,-8 142.79,-8"/>
<text text-anchor="middle" x="526.1" y="-193.8" font-family="Times,serif" font-size="14.00">MatchedContender</text>
</g>
<g id="clust2" class="cluster">
<title>cluster_finger_down_contender</title>
<polygon fill="none" stroke="black" points="155.29,-217 155.29,-540 1089.4,-540 1089.4,-217 155.29,-217"/>
<text text-anchor="middle" x="622.35" y="-524.8" font-family="Times,serif" font-size="14.00">FingerDownContender</text>
<text text-anchor="middle" x="622.35" y="-509.8" font-family="Times,serif" font-size="14.00">`impl Contender`</text>
</g>
<g id="clust1" class="cluster">
<title>cluster_initial_contender</title>
<polygon fill="none" stroke="black" points="172.29,-548 172.29,-729 718.1,-729 718.1,-548 172.29,-548"/>
<text text-anchor="middle" x="445.2" y="-713.8" font-family="Times,serif" font-size="14.00">InitialContender</text>
<text text-anchor="middle" x="445.2" y="-698.8" font-family="Times,serif" font-size="14.00">`impl Contender`</text>
</g>
<!-- arena -->
<g id="node1" class="node">
<title>arena</title>
<ellipse fill="none" stroke="black" cx="33.9" cy="-210" rx="29.81" ry="29.81"/>
<ellipse fill="none" stroke="black" cx="33.9" cy="-210" rx="33.8" ry="33.8"/>
<text text-anchor="middle" x="33.9" y="-206.3" font-family="Times,serif" font-size="14.00">arena</text>
</g>
<!-- examine_at_initial_contender -->
<g id="node2" class="node">
<title>examine_at_initial_contender</title>
<polygon fill="none" stroke="black" points="236.29,-662 180.29,-609 236.29,-556 292.29,-609 236.29,-662"/>
<text text-anchor="middle" x="236.29" y="-620.3" font-family="Times,serif" font-size="14.00">exactly</text>
<text text-anchor="middle" x="236.29" y="-605.3" font-family="Times,serif" font-size="14.00">one</text>
<text text-anchor="middle" x="236.29" y="-590.3" font-family="Times,serif" font-size="14.00">finger?</text>
</g>
<!-- arena&#45;&gt;examine_at_initial_contender -->
<g id="edge1" class="edge">
<title>arena-&gt;examine_at_initial_contender</title>
<path fill="none" stroke="black" d="M38.67,-244.03C47.25,-308.31 73.18,-449.59 142.79,-544 155.19,-560.82 173.27,-574.89 190.17,-585.59"/>
<polygon fill="black" stroke="black" points="188.49,-588.66 198.86,-590.87 192.13,-582.68 188.49,-588.66"/>
<text text-anchor="middle" x="109.29" y="-546.8" font-family="Times,serif" font-size="14.00">examine</text>
<text text-anchor="middle" x="109.29" y="-531.8" font-family="Times,serif" font-size="14.00">event()</text>
</g>
<!-- examine_at_finger_down_contender -->
<g id="node6" class="node">
<title>examine_at_finger_down_contender</title>
<polygon fill="none" stroke="black" points="236.29,-467 163.29,-414 236.29,-361 309.29,-414 236.29,-467"/>
<text text-anchor="middle" x="236.29" y="-425.3" font-family="Times,serif" font-size="14.00">elapsed</text>
<text text-anchor="middle" x="236.29" y="-410.3" font-family="Times,serif" font-size="14.00">&lt;</text>
<text text-anchor="middle" x="236.29" y="-395.3" font-family="Times,serif" font-size="14.00">threshold?</text>
</g>
<!-- arena&#45;&gt;examine_at_finger_down_contender -->
<g id="edge6" class="edge">
<title>arena-&gt;examine_at_finger_down_contender</title>
<path fill="none" stroke="black" d="M58.28,-233.8C92.66,-268.8 157.2,-334.5 198.12,-376.16"/>
<polygon fill="black" stroke="black" points="195.72,-378.71 205.23,-383.39 200.72,-373.81 195.72,-378.71"/>
<text text-anchor="middle" x="109.29" y="-323.8" font-family="Times,serif" font-size="14.00">examine</text>
<text text-anchor="middle" x="109.29" y="-308.8" font-family="Times,serif" font-size="14.00">event()</text>
</g>
<!-- verify_at_matched_contender -->
<g id="node13" class="node">
<title>verify_at_matched_contender</title>
<polygon fill="none" stroke="black" points="236.29,-178 163.29,-125 236.29,-72 309.29,-125 236.29,-178"/>
<text text-anchor="middle" x="236.29" y="-136.3" font-family="Times,serif" font-size="14.00">elapsed</text>
<text text-anchor="middle" x="236.29" y="-121.3" font-family="Times,serif" font-size="14.00">&lt;</text>
<text text-anchor="middle" x="236.29" y="-106.3" font-family="Times,serif" font-size="14.00">threshold?</text>
</g>
<!-- arena&#45;&gt;verify_at_matched_contender -->
<g id="edge16" class="edge">
<title>arena-&gt;verify_at_matched_contender</title>
<path fill="none" stroke="black" d="M65.33,-197.09C95.69,-184.22 143,-164.15 180.01,-148.45"/>
<polygon fill="black" stroke="black" points="181.82,-151.48 189.66,-144.36 179.09,-145.04 181.82,-151.48"/>
<text text-anchor="middle" x="109.29" y="-205.8" font-family="Times,serif" font-size="14.00">verify</text>
<text text-anchor="middle" x="109.29" y="-190.8" font-family="Times,serif" font-size="14.00">event()</text>
</g>
<!-- send_click_matched_contender -->
<g id="node18" class="node">
<title>send_click_matched_contender</title>
<polygon fill="none" stroke="black" points="321.79,-54 150.79,-54 150.79,-16 321.79,-16 321.79,-54"/>
<text text-anchor="middle" x="236.29" y="-38.8" font-family="Times,serif" font-size="14.00">return</text>
<text text-anchor="middle" x="236.29" y="-23.8" font-family="Times,serif" font-size="14.00">vec![Down, Up], None, Tap</text>
</g>
<!-- arena&#45;&gt;send_click_matched_contender -->
<g id="edge23" class="edge">
<title>arena-&gt;send_click_matched_contender</title>
<path fill="none" stroke="black" d="M48.4,-179.28C65.23,-144.91 97.42,-90.45 142.79,-63 145.44,-61.4 148.18,-59.89 150.99,-58.46"/>
<polygon fill="black" stroke="black" points="152.6,-61.57 160.17,-54.15 149.63,-55.23 152.6,-61.57"/>
<text text-anchor="middle" x="109.29" y="-150.8" font-family="Times,serif" font-size="14.00">process</text>
<text text-anchor="middle" x="109.29" y="-135.8" font-family="Times,serif" font-size="14.00">buffered</text>
<text text-anchor="middle" x="109.29" y="-120.8" font-family="Times,serif" font-size="14.00">events()</text>
</g>
<!-- examine2_at_initial_contender -->
<g id="node3" class="node">
<title>examine2_at_initial_contender</title>
<polygon fill="none" stroke="black" points="439.79,-632 376.79,-594 439.79,-556 502.79,-594 439.79,-632"/>
<text text-anchor="middle" x="439.79" y="-597.8" font-family="Times,serif" font-size="14.00">button</text>
<text text-anchor="middle" x="439.79" y="-582.8" font-family="Times,serif" font-size="14.00">pressed?</text>
</g>
<!-- examine_at_initial_contender&#45;&gt;examine2_at_initial_contender -->
<g id="edge2" class="edge">
<title>examine_at_initial_contender-&gt;examine2_at_initial_contender</title>
<path fill="none" stroke="black" d="M288.4,-605.2C314.15,-603.28 345.65,-600.93 373.17,-598.89"/>
<polygon fill="black" stroke="black" points="373.78,-602.35 383.5,-598.12 373.26,-595.37 373.78,-602.35"/>
<text text-anchor="middle" x="349.29" y="-604.8" font-family="Times,serif" font-size="14.00">yes</text>
</g>
<!-- return_mismatch_at_initial_contender -->
<g id="node4" class="node">
<title>return_mismatch_at_initial_contender</title>
<polygon fill="none" stroke="black" points="675.6,-676 603.6,-676 603.6,-638 675.6,-638 675.6,-676"/>
<text text-anchor="middle" x="639.6" y="-660.8" font-family="Times,serif" font-size="14.00">return</text>
<text text-anchor="middle" x="639.6" y="-645.8" font-family="Times,serif" font-size="14.00">Mismatch</text>
</g>
<!-- examine_at_initial_contender&#45;&gt;return_mismatch_at_initial_contender -->
<g id="edge3" class="edge">
<title>examine_at_initial_contender-&gt;return_mismatch_at_initial_contender</title>
<path fill="none" stroke="black" d="M280,-620.72C307.44,-627.77 343.96,-636.26 376.79,-641 452.06,-651.86 540.54,-655.36 592.96,-656.48"/>
<polygon fill="black" stroke="black" points="593.2,-659.99 603.26,-656.68 593.33,-652.99 593.2,-659.99"/>
<text text-anchor="middle" x="439.79" y="-655.8" font-family="Times,serif" font-size="14.00">no</text>
</g>
<!-- examine2_at_initial_contender&#45;&gt;return_mismatch_at_initial_contender -->
<g id="edge5" class="edge">
<title>examine2_at_initial_contender-&gt;return_mismatch_at_initial_contender</title>
<path fill="none" stroke="black" d="M481.78,-607.05C514.43,-617.45 560.08,-631.99 593.71,-642.7"/>
<polygon fill="black" stroke="black" points="592.7,-646.06 603.29,-645.76 594.83,-639.39 592.7,-646.06"/>
<text text-anchor="middle" x="530.29" y="-628.8" font-family="Times,serif" font-size="14.00">yes</text>
</g>
<!-- return_finger_down_contender_at_initial_contender -->
<g id="node5" class="node">
<title>return_finger_down_contender_at_initial_contender</title>
<polygon fill="none" stroke="black" points="710.1,-613 569.1,-613 569.1,-575 710.1,-575 710.1,-613"/>
<text text-anchor="middle" x="639.6" y="-597.8" font-family="Times,serif" font-size="14.00">return</text>
<text text-anchor="middle" x="639.6" y="-582.8" font-family="Times,serif" font-size="14.00">FingerDownContender</text>
</g>
<!-- examine2_at_initial_contender&#45;&gt;return_finger_down_contender_at_initial_contender -->
<g id="edge4" class="edge">
<title>examine2_at_initial_contender-&gt;return_finger_down_contender_at_initial_contender</title>
<path fill="none" stroke="black" d="M502.84,-594C520.52,-594 540.04,-594 558.64,-594"/>
<polygon fill="black" stroke="black" points="558.85,-597.5 568.85,-594 558.85,-590.5 558.85,-597.5"/>
<text text-anchor="middle" x="530.29" y="-597.8" font-family="Times,serif" font-size="14.00">no</text>
</g>
<!-- examine2_at_finger_down_contender -->
<g id="node7" class="node">
<title>examine2_at_finger_down_contender</title>
<polygon fill="none" stroke="black" points="439.79,-452 376.79,-414 439.79,-376 502.79,-414 439.79,-452"/>
<text text-anchor="middle" x="439.79" y="-417.8" font-family="Times,serif" font-size="14.00">button</text>
<text text-anchor="middle" x="439.79" y="-402.8" font-family="Times,serif" font-size="14.00">pressed?</text>
</g>
<!-- examine_at_finger_down_contender&#45;&gt;examine2_at_finger_down_contender -->
<g id="edge7" class="edge">
<title>examine_at_finger_down_contender-&gt;examine2_at_finger_down_contender</title>
<path fill="none" stroke="black" d="M309.47,-414C328.05,-414 348.04,-414 366.62,-414"/>
<polygon fill="black" stroke="black" points="366.78,-417.5 376.78,-414 366.78,-410.5 366.78,-417.5"/>
<text text-anchor="middle" x="349.29" y="-417.8" font-family="Times,serif" font-size="14.00">yes</text>
</g>
<!-- return_mismatch_at_finger_down_contender -->
<g id="node8" class="node">
<title>return_mismatch_at_finger_down_contender</title>
<polygon fill="none" stroke="black" points="1081.4,-475 1009.4,-475 1009.4,-437 1081.4,-437 1081.4,-475"/>
<text text-anchor="middle" x="1045.4" y="-459.8" font-family="Times,serif" font-size="14.00">return</text>
<text text-anchor="middle" x="1045.4" y="-444.8" font-family="Times,serif" font-size="14.00">Mismatch</text>
</g>
<!-- examine_at_finger_down_contender&#45;&gt;return_mismatch_at_finger_down_contender -->
<g id="edge8" class="edge">
<title>examine_at_finger_down_contender-&gt;return_mismatch_at_finger_down_contender</title>
<path fill="none" stroke="black" d="M283.24,-433.12C310.04,-443.34 344.76,-455.02 376.79,-461 543.67,-492.15 588.72,-481.73 758.4,-477 862.08,-474.11 888.24,-474.64 991.4,-464 993.96,-463.74 996.57,-463.44 999.21,-463.11"/>
<polygon fill="black" stroke="black" points="999.95,-466.55 1009.4,-461.76 999.02,-459.61 999.95,-466.55"/>
<text text-anchor="middle" x="639.6" y="-485.8" font-family="Times,serif" font-size="14.00">no</text>
</g>
<!-- examine2_at_finger_down_contender&#45;&gt;return_mismatch_at_finger_down_contender -->
<g id="edge9" class="edge">
<title>examine2_at_finger_down_contender-&gt;return_mismatch_at_finger_down_contender</title>
<path fill="none" stroke="black" d="M488.66,-422.65C553.58,-433.91 673.29,-452.97 776.4,-460 855.33,-465.38 875.31,-461.76 954.4,-460 969,-459.68 984.92,-459.06 999.25,-458.4"/>
<polygon fill="black" stroke="black" points="999.55,-461.89 1009.37,-457.92 999.21,-454.9 999.55,-461.89"/>
<text text-anchor="middle" x="748.9" y="-461.8" font-family="Times,serif" font-size="14.00">yes</text>
</g>
<!-- examine3_at_finger_down_contender -->
<g id="node9" class="node">
<title>examine3_at_finger_down_contender</title>
<polygon fill="none" stroke="black" points="639.6,-409 557.99,-391 639.6,-373 721.21,-391 639.6,-409"/>
<text text-anchor="middle" x="639.6" y="-387.3" font-family="Times,serif" font-size="14.00">num fingers?</text>
</g>
<!-- examine2_at_finger_down_contender&#45;&gt;examine3_at_finger_down_contender -->
<g id="edge10" class="edge">
<title>examine2_at_finger_down_contender-&gt;examine3_at_finger_down_contender</title>
<path fill="none" stroke="black" d="M493.02,-407.93C518.4,-404.98 549.09,-401.41 575.74,-398.31"/>
<polygon fill="black" stroke="black" points="576.2,-401.78 585.73,-397.15 575.4,-394.83 576.2,-401.78"/>
<text text-anchor="middle" x="530.29" y="-407.8" font-family="Times,serif" font-size="14.00">no</text>
</g>
<!-- examine3_at_finger_down_contender&#45;&gt;return_mismatch_at_finger_down_contender -->
<g id="edge11" class="edge">
<title>examine3_at_finger_down_contender-&gt;return_mismatch_at_finger_down_contender</title>
<path fill="none" stroke="black" d="M687.32,-398.52C765.6,-411.12 922.25,-436.34 999.39,-448.75"/>
<polygon fill="black" stroke="black" points="998.85,-452.21 1009.28,-450.35 999.96,-445.3 998.85,-452.21"/>
<text text-anchor="middle" x="865.4" y="-444.8" font-family="Times,serif" font-size="14.00">&gt;= 2</text>
</g>
<!-- examine4_at_finger_down_contender -->
<g id="node10" class="node">
<title>examine4_at_finger_down_contender</title>
<polygon fill="none" stroke="black" points="865.4,-331 776.4,-278 865.4,-225 954.4,-278 865.4,-331"/>
<text text-anchor="middle" x="865.4" y="-289.3" font-family="Times,serif" font-size="14.00">displacement</text>
<text text-anchor="middle" x="865.4" y="-274.3" font-family="Times,serif" font-size="14.00">&lt;</text>
<text text-anchor="middle" x="865.4" y="-259.3" font-family="Times,serif" font-size="14.00">threshold?</text>
</g>
<!-- examine3_at_finger_down_contender&#45;&gt;examine4_at_finger_down_contender -->
<g id="edge12" class="edge">
<title>examine3_at_finger_down_contender-&gt;examine4_at_finger_down_contender</title>
<path fill="none" stroke="black" d="M665.41,-378.48C699.44,-361.29 761.61,-329.9 807.44,-306.76"/>
<polygon fill="black" stroke="black" points="809.02,-309.88 816.37,-302.25 805.87,-303.64 809.02,-309.88"/>
<text text-anchor="middle" x="748.9" y="-340.8" font-family="Times,serif" font-size="14.00">1</text>
</g>
<!-- return_matched_contender_at_finger_down_contender -->
<g id="node11" class="node">
<title>return_matched_contender_at_finger_down_contender</title>
<polygon fill="none" stroke="black" points="901.9,-402.5 828.9,-402.5 828.9,-349.5 901.9,-349.5 901.9,-402.5"/>
<text text-anchor="middle" x="865.4" y="-387.3" font-family="Times,serif" font-size="14.00">return</text>
<text text-anchor="middle" x="865.4" y="-372.3" font-family="Times,serif" font-size="14.00">Matched</text>
<text text-anchor="middle" x="865.4" y="-357.3" font-family="Times,serif" font-size="14.00">Contender</text>
</g>
<!-- examine3_at_finger_down_contender&#45;&gt;return_matched_contender_at_finger_down_contender -->
<g id="edge13" class="edge">
<title>examine3_at_finger_down_contender-&gt;return_matched_contender_at_finger_down_contender</title>
<path fill="none" stroke="black" d="M702.64,-386.84C739.3,-384.38 784.92,-381.33 818.36,-379.09"/>
<polygon fill="black" stroke="black" points="819.02,-382.55 828.77,-378.39 818.55,-375.57 819.02,-382.55"/>
<text text-anchor="middle" x="748.9" y="-386.8" font-family="Times,serif" font-size="14.00">0</text>
</g>
<!-- examine4_at_finger_down_contender&#45;&gt;return_mismatch_at_finger_down_contender -->
<g id="edge14" class="edge">
<title>examine4_at_finger_down_contender-&gt;return_mismatch_at_finger_down_contender</title>
<path fill="none" stroke="black" d="M909.5,-305.19C924.44,-315.54 940.84,-328 954.4,-341 982.45,-367.87 1009.16,-403.76 1026.08,-428.25"/>
<polygon fill="black" stroke="black" points="1023.34,-430.44 1031.86,-436.73 1029.12,-426.49 1023.34,-430.44"/>
<text text-anchor="middle" x="981.9" y="-382.8" font-family="Times,serif" font-size="14.00">no</text>
</g>
<!-- return_self_at_finger_down_contender -->
<g id="node12" class="node">
<title>return_self_at_finger_down_contender</title>
<polygon fill="none" stroke="black" points="1072.4,-297 1018.4,-297 1018.4,-259 1072.4,-259 1072.4,-297"/>
<text text-anchor="middle" x="1045.4" y="-281.8" font-family="Times,serif" font-size="14.00">return</text>
<text text-anchor="middle" x="1045.4" y="-266.8" font-family="Times,serif" font-size="14.00">`self`</text>
</g>
<!-- examine4_at_finger_down_contender&#45;&gt;return_self_at_finger_down_contender -->
<g id="edge15" class="edge">
<title>examine4_at_finger_down_contender-&gt;return_self_at_finger_down_contender</title>
<path fill="none" stroke="black" d="M954.62,-278C973.52,-278 992.46,-278 1008.04,-278"/>
<polygon fill="black" stroke="black" points="1008.25,-281.5 1018.25,-278 1008.25,-274.5 1008.25,-281.5"/>
<text text-anchor="middle" x="981.9" y="-281.8" font-family="Times,serif" font-size="14.00">yes</text>
</g>
<!-- return_mismatch_at_matched_contender -->
<g id="node14" class="node">
<title>return_mismatch_at_matched_contender</title>
<polygon fill="none" stroke="black" points="901.4,-88 829.4,-88 829.4,-50 901.4,-50 901.4,-88"/>
<text text-anchor="middle" x="865.4" y="-72.8" font-family="Times,serif" font-size="14.00">return</text>
<text text-anchor="middle" x="865.4" y="-57.8" font-family="Times,serif" font-size="14.00">Mismatch</text>
</g>
<!-- verify_at_matched_contender&#45;&gt;return_mismatch_at_matched_contender -->
<g id="edge17" class="edge">
<title>verify_at_matched_contender-&gt;return_mismatch_at_matched_contender</title>
<path fill="none" stroke="black" d="M277.64,-102C304.74,-87.84 341.77,-70.94 376.79,-63 536.07,-26.89 732.18,-48.61 819.18,-61.51"/>
<polygon fill="black" stroke="black" points="818.82,-64.99 829.23,-63.03 819.87,-58.07 818.82,-64.99"/>
<text text-anchor="middle" x="530.29" y="-47.8" font-family="Times,serif" font-size="14.00">no</text>
</g>
<!-- verify2_at_matched_contender -->
<g id="node15" class="node">
<title>verify2_at_matched_contender</title>
<polygon fill="none" stroke="black" points="439.79,-178 379.79,-125 439.79,-72 499.79,-125 439.79,-178"/>
<text text-anchor="middle" x="439.79" y="-136.3" font-family="Times,serif" font-size="14.00">exactly</text>
<text text-anchor="middle" x="439.79" y="-121.3" font-family="Times,serif" font-size="14.00">zero</text>
<text text-anchor="middle" x="439.79" y="-106.3" font-family="Times,serif" font-size="14.00">fingers?</text>
</g>
<!-- verify_at_matched_contender&#45;&gt;verify2_at_matched_contender -->
<g id="edge18" class="edge">
<title>verify_at_matched_contender-&gt;verify2_at_matched_contender</title>
<path fill="none" stroke="black" d="M309.47,-125C329,-125 350.09,-125 369.46,-125"/>
<polygon fill="black" stroke="black" points="369.71,-128.5 379.71,-125 369.71,-121.5 369.71,-128.5"/>
<text text-anchor="middle" x="349.29" y="-128.8" font-family="Times,serif" font-size="14.00">yes</text>
</g>
<!-- verify2_at_matched_contender&#45;&gt;return_mismatch_at_matched_contender -->
<g id="edge19" class="edge">
<title>verify2_at_matched_contender-&gt;return_mismatch_at_matched_contender</title>
<path fill="none" stroke="black" d="M478.46,-105.91C500.89,-95.56 530.26,-83.74 557.79,-78 648.78,-59.02 758.21,-61.74 818.65,-65.39"/>
<polygon fill="black" stroke="black" points="818.79,-68.9 828.99,-66.05 819.23,-61.92 818.79,-68.9"/>
<text text-anchor="middle" x="639.6" y="-81.8" font-family="Times,serif" font-size="14.00">no</text>
</g>
<!-- verify3_at_matched_contender -->
<g id="node16" class="node">
<title>verify3_at_matched_contender</title>
<polygon fill="none" stroke="black" points="639.6,-178 576.6,-140 639.6,-102 702.6,-140 639.6,-178"/>
<text text-anchor="middle" x="639.6" y="-143.8" font-family="Times,serif" font-size="14.00">button</text>
<text text-anchor="middle" x="639.6" y="-128.8" font-family="Times,serif" font-size="14.00">pressed?</text>
</g>
<!-- verify2_at_matched_contender&#45;&gt;verify3_at_matched_contender -->
<g id="edge20" class="edge">
<title>verify2_at_matched_contender-&gt;verify3_at_matched_contender</title>
<path fill="none" stroke="black" d="M495.37,-129.14C519.49,-130.97 548.05,-133.13 573.29,-135.05"/>
<polygon fill="black" stroke="black" points="573.28,-138.56 583.52,-135.82 573.81,-131.58 573.28,-138.56"/>
<text text-anchor="middle" x="530.29" y="-135.8" font-family="Times,serif" font-size="14.00">yes</text>
</g>
<!-- verify3_at_matched_contender&#45;&gt;return_mismatch_at_matched_contender -->
<g id="edge21" class="edge">
<title>verify3_at_matched_contender-&gt;return_mismatch_at_matched_contender</title>
<path fill="none" stroke="black" d="M681.39,-127.06C720.41,-114.68 779.12,-96.05 819.47,-83.26"/>
<polygon fill="black" stroke="black" points="820.58,-86.57 829.05,-80.21 818.46,-79.9 820.58,-86.57"/>
<text text-anchor="middle" x="748.9" y="-109.8" font-family="Times,serif" font-size="14.00">yes</text>
</g>
<!-- return_self_at_matched_contender -->
<g id="node17" class="node">
<title>return_self_at_matched_contender</title>
<polygon fill="none" stroke="black" points="892.4,-159 838.4,-159 838.4,-121 892.4,-121 892.4,-159"/>
<text text-anchor="middle" x="865.4" y="-143.8" font-family="Times,serif" font-size="14.00">return</text>
<text text-anchor="middle" x="865.4" y="-128.8" font-family="Times,serif" font-size="14.00">`self`</text>
</g>
<!-- verify3_at_matched_contender&#45;&gt;return_self_at_matched_contender -->
<g id="edge22" class="edge">
<title>verify3_at_matched_contender-&gt;return_self_at_matched_contender</title>
<path fill="none" stroke="black" d="M702.64,-140C742.92,-140 794.02,-140 827.89,-140"/>
<polygon fill="black" stroke="black" points="828.25,-143.5 838.25,-140 828.25,-136.5 828.25,-143.5"/>
<text text-anchor="middle" x="748.9" y="-143.8" font-family="Times,serif" font-size="14.00">no</text>
</g>
</g>
</svg>
