<?xml version="1.0" encoding="UTF-8" standalone="no"?>
<!DOCTYPE svg PUBLIC "-//W3C//DTD SVG 1.1//EN" "http://www.w3.org/Graphics/SVG/1.1/DTD/svg11.dtd">
<!-- Generated by graphviz version 2.44.1 (20201121.0304)
 -->
<!-- Pages: 1 -->
<svg xmlns="http://www.w3.org/2000/svg" xmlns:xlink="http://www.w3.org/1999/xlink" width="1133pt" height="1063pt" viewBox="0.00 0.00 1132.79 1063.00"><script>
(function() {
  var enablePanZoom = false;
  var enablePanZoomControls = false;
  var panZoomScriptUrl = "https://graphviz.corp.google.com/svg-pan-zoom.js";

  var isEmbedded = true;
  try {
    // This condition is true when the SVG is being displayed in a
    // top-level browser window. If the parent location's href is
    // different, or we can't access it (due to security constraints
    // on accessing javascript properties on a different domain),
    // then the document is embedded.
    if (window.location.href == window.parent.location.href) {
      isEmbedded = false;
    }
  } catch (e) {}

  if (!isEmbedded) enablePanZoom = true;

  if (enablePanZoom &amp;&amp; typeof svgPanZoom === 'undefined') {
    var panZoomScript =
      document.createElementNS('http://www.w3.org/2000/svg', 'script');
    panZoomScript.setAttributeNS(
      'http://www.w3.org/1999/xlink', 'xlink:href', panZoomScriptUrl);
    document.currentScript.parentElement.appendChild(panZoomScript);
  }

  window.onload = function() {
    var svg = document.getElementsByTagName("svg")[0];

    if (!isEmbedded) {
      svg.removeAttribute("width");
      svg.removeAttribute("height");
    }

    if (enablePanZoom) {
      svgPanZoom(svg, {
        minZoom: 0.2,
        maxZoom: 100,
        controlIconsEnabled: enablePanZoomControls
      });
    }

    var links = document.getElementsByTagName("a");
    for (var i = 0; i &lt; links.length; i++) {
      if (!links[i].getAttribute("target")) {
        links[i].setAttribute("target", "_top");
      }
    }
  };
})();
</script>
<g id="graph0" class="graph" transform="scale(1 1) rotate(0) translate(4 1059)">
<polygon fill="white" stroke="transparent" points="-4,4 -4,-1059 1128.79,-1059 1128.79,4 -4,4"/>
<text text-anchor="middle" x="562.4" y="-1039.8" font-family="Times,serif" font-size="14.00">ONE-FINGER DRAG RECOGNIZER</text>
<g id="clust5" class="cluster">
<title>cluster_forward_motion</title>
<polygon fill="none" stroke="black" points="163.29,-8 163.29,-204 705.29,-204 705.29,-8 163.29,-8"/>
<text text-anchor="middle" x="434.29" y="-188.8" font-family="Times,serif" font-size="14.00">Winner</text>
</g>
<g id="clust2" class="cluster">
<title>cluster_finger_down_contender</title>
<polygon fill="none" stroke="black" points="153.29,-645 153.29,-856 923.29,-856 923.29,-645 153.29,-645"/>
<text text-anchor="middle" x="538.29" y="-840.8" font-family="Times,serif" font-size="14.00">FingerDownContender</text>
<text text-anchor="middle" x="538.29" y="-825.8" font-family="Times,serif" font-size="14.00">`impl Contender`</text>
</g>
<g id="clust1" class="cluster">
<title>cluster_initial_contender</title>
<polygon fill="none" stroke="black" points="170.29,-864 170.29,-1024 521.79,-1024 521.79,-864 170.29,-864"/>
<text text-anchor="middle" x="346.04" y="-1008.8" font-family="Times,serif" font-size="14.00">InitialContender</text>
<text text-anchor="middle" x="346.04" y="-993.8" font-family="Times,serif" font-size="14.00">`impl Contender`</text>
</g>
<g id="clust4" class="cluster">
<title>cluster_matched_contender</title>
<polygon fill="none" stroke="black" points="142.79,-212 142.79,-413 680.79,-413 680.79,-212 142.79,-212"/>
<text text-anchor="middle" x="411.79" y="-397.8" font-family="Times,serif" font-size="14.00">MatchedContender</text>
</g>
<g id="clust3" class="cluster">
<title>cluster_button_down_contender</title>
<polygon fill="none" stroke="black" points="153.29,-421 153.29,-637 1116.79,-637 1116.79,-421 153.29,-421"/>
<text text-anchor="middle" x="635.04" y="-621.8" font-family="Times,serif" font-size="14.00">ButtonDownContender</text>
<text text-anchor="middle" x="635.04" y="-606.8" font-family="Times,serif" font-size="14.00">`impl Contender`</text>
</g>
<!-- arena -->
<g id="node1" class="node">
<title>arena</title>
<ellipse fill="none" stroke="black" cx="33.9" cy="-380" rx="29.81" ry="29.81"/>
<ellipse fill="none" stroke="black" cx="33.9" cy="-380" rx="33.8" ry="33.8"/>
<text text-anchor="middle" x="33.9" y="-376.3" font-family="Times,serif" font-size="14.00">arena</text>
</g>
<!-- examine_at_initial_contender -->
<g id="node2" class="node">
<title>examine_at_initial_contender</title>
<polygon fill="none" stroke="black" points="234.29,-978 178.29,-925 234.29,-872 290.29,-925 234.29,-978"/>
<text text-anchor="middle" x="234.29" y="-936.3" font-family="Times,serif" font-size="14.00">exactly</text>
<text text-anchor="middle" x="234.29" y="-921.3" font-family="Times,serif" font-size="14.00">one</text>
<text text-anchor="middle" x="234.29" y="-906.3" font-family="Times,serif" font-size="14.00">finger?</text>
</g>
<!-- arena&#45;&gt;examine_at_initial_contender -->
<g id="edge1" class="edge">
<title>arena-&gt;examine_at_initial_contender</title>
<path fill="none" stroke="black" d="M34.08,-414C33.74,-497.72 43.07,-717.38 142.79,-860 154.59,-876.88 172.23,-890.95 188.8,-901.65"/>
<polygon fill="black" stroke="black" points="186.99,-904.64 197.34,-906.93 190.68,-898.69 186.99,-904.64"/>
<text text-anchor="middle" x="109.29" y="-855.8" font-family="Times,serif" font-size="14.00">examine</text>
<text text-anchor="middle" x="109.29" y="-840.8" font-family="Times,serif" font-size="14.00">event()</text>
</g>
<!-- examine_at_finger_down_contender -->
<g id="node5" class="node">
<title>examine_at_finger_down_contender</title>
<polygon fill="none" stroke="black" points="234.29,-759 161.29,-706 234.29,-653 307.29,-706 234.29,-759"/>
<text text-anchor="middle" x="234.29" y="-717.3" font-family="Times,serif" font-size="14.00">elapsed</text>
<text text-anchor="middle" x="234.29" y="-702.3" font-family="Times,serif" font-size="14.00">&lt;</text>
<text text-anchor="middle" x="234.29" y="-687.3" font-family="Times,serif" font-size="14.00">threshold?</text>
</g>
<!-- arena&#45;&gt;examine_at_finger_down_contender -->
<g id="edge4" class="edge">
<title>arena-&gt;examine_at_finger_down_contender</title>
<path fill="none" stroke="black" d="M42.3,-413.11C55.37,-465.82 86.62,-570.09 142.79,-641 153.94,-655.07 168.9,-667.48 183.44,-677.58"/>
<polygon fill="black" stroke="black" points="181.66,-680.61 191.92,-683.26 185.55,-674.79 181.66,-680.61"/>
<text text-anchor="middle" x="109.29" y="-640.8" font-family="Times,serif" font-size="14.00">examine</text>
<text text-anchor="middle" x="109.29" y="-625.8" font-family="Times,serif" font-size="14.00">event()</text>
</g>
<!-- examine_at_button_down_contender -->
<g id="node11" class="node">
<title>examine_at_button_down_contender</title>
<polygon fill="none" stroke="black" points="234.29,-535 161.29,-482 234.29,-429 307.29,-482 234.29,-535"/>
<text text-anchor="middle" x="234.29" y="-493.3" font-family="Times,serif" font-size="14.00">elapsed</text>
<text text-anchor="middle" x="234.29" y="-478.3" font-family="Times,serif" font-size="14.00">&lt;</text>
<text text-anchor="middle" x="234.29" y="-463.3" font-family="Times,serif" font-size="14.00">threshold?</text>
</g>
<!-- arena&#45;&gt;examine_at_button_down_contender -->
<g id="edge11" class="edge">
<title>arena-&gt;examine_at_button_down_contender</title>
<path fill="none" stroke="black" d="M64.6,-395.27C95.49,-411.15 144.46,-436.33 181.69,-455.47"/>
<polygon fill="black" stroke="black" points="180.39,-458.74 190.89,-460.2 183.59,-452.51 180.39,-458.74"/>
<text text-anchor="middle" x="109.29" y="-445.8" font-family="Times,serif" font-size="14.00">examine</text>
<text text-anchor="middle" x="109.29" y="-430.8" font-family="Times,serif" font-size="14.00">event()</text>
</g>
<!-- verify_at_matched_contender -->
<g id="node18" class="node">
<title>verify_at_matched_contender</title>
<polygon fill="none" stroke="black" points="234.29,-382 178.29,-329 234.29,-276 290.29,-329 234.29,-382"/>
<text text-anchor="middle" x="234.29" y="-340.3" font-family="Times,serif" font-size="14.00">exactly</text>
<text text-anchor="middle" x="234.29" y="-325.3" font-family="Times,serif" font-size="14.00">one</text>
<text text-anchor="middle" x="234.29" y="-310.3" font-family="Times,serif" font-size="14.00">finger?</text>
</g>
<!-- arena&#45;&gt;verify_at_matched_contender -->
<g id="edge20" class="edge">
<title>arena-&gt;verify_at_matched_contender</title>
<path fill="none" stroke="black" d="M67.21,-371.69C97.73,-363.85 144.04,-351.94 180.01,-342.7"/>
<polygon fill="black" stroke="black" points="181.05,-346.04 189.86,-340.16 179.31,-339.26 181.05,-346.04"/>
<text text-anchor="middle" x="109.29" y="-384.8" font-family="Times,serif" font-size="14.00">verify</text>
<text text-anchor="middle" x="109.29" y="-369.8" font-family="Times,serif" font-size="14.00">event()</text>
</g>
<!-- return_winner_at_matched_contender -->
<g id="node22" class="node">
<title>return_winner_at_matched_contender</title>
<polygon fill="none" stroke="black" points="317.79,-258 150.79,-258 150.79,-220 317.79,-220 317.79,-258"/>
<text text-anchor="middle" x="234.29" y="-242.8" font-family="Times,serif" font-size="14.00">return</text>
<text text-anchor="middle" x="234.29" y="-227.8" font-family="Times,serif" font-size="14.00">vec![events], Winner, Drag</text>
</g>
<!-- arena&#45;&gt;return_winner_at_matched_contender -->
<g id="edge25" class="edge">
<title>arena-&gt;return_winner_at_matched_contender</title>
<path fill="none" stroke="black" d="M51.87,-350.84C60.9,-336.71 72.81,-320.02 85.79,-307 107.65,-285.08 115.01,-280.63 142.79,-267 146.53,-265.17 150.42,-263.42 154.38,-261.77"/>
<polygon fill="black" stroke="black" points="155.73,-265 163.74,-258.07 153.16,-258.49 155.73,-265"/>
<text text-anchor="middle" x="109.29" y="-340.8" font-family="Times,serif" font-size="14.00">process</text>
<text text-anchor="middle" x="109.29" y="-325.8" font-family="Times,serif" font-size="14.00">buffered</text>
<text text-anchor="middle" x="109.29" y="-310.8" font-family="Times,serif" font-size="14.00">events()</text>
</g>
<!-- process_at_winner -->
<g id="node23" class="node">
<title>process_at_winner</title>
<polygon fill="none" stroke="black" points="234.29,-158 171.29,-120 234.29,-82 297.29,-120 234.29,-158"/>
<text text-anchor="middle" x="234.29" y="-123.8" font-family="Times,serif" font-size="14.00">button</text>
<text text-anchor="middle" x="234.29" y="-108.8" font-family="Times,serif" font-size="14.00">pressed?</text>
</g>
<!-- arena&#45;&gt;process_at_winner -->
<g id="edge26" class="edge">
<title>arena-&gt;process_at_winner</title>
<path fill="none" stroke="black" d="M39.38,-346.5C45.29,-312.61 58.34,-260.08 85.79,-223 112.64,-186.75 156.14,-158.62 188.96,-140.98"/>
<polygon fill="black" stroke="black" points="190.68,-144.03 197.91,-136.29 187.43,-137.83 190.68,-144.03"/>
<text text-anchor="middle" x="109.29" y="-256.8" font-family="Times,serif" font-size="14.00">process</text>
<text text-anchor="middle" x="109.29" y="-241.8" font-family="Times,serif" font-size="14.00">new</text>
<text text-anchor="middle" x="109.29" y="-226.8" font-family="Times,serif" font-size="14.00">event()</text>
</g>
<!-- return_finger_down_contender_at_initial_contender -->
<g id="node3" class="node">
<title>return_finger_down_contender_at_initial_contender</title>
<polygon fill="none" stroke="black" points="513.79,-916 372.79,-916 372.79,-878 513.79,-878 513.79,-916"/>
<text text-anchor="middle" x="443.29" y="-900.8" font-family="Times,serif" font-size="14.00">return</text>
<text text-anchor="middle" x="443.29" y="-885.8" font-family="Times,serif" font-size="14.00">FingerDownContender</text>
</g>
<!-- examine_at_initial_contender&#45;&gt;return_finger_down_contender_at_initial_contender -->
<g id="edge2" class="edge">
<title>examine_at_initial_contender-&gt;return_finger_down_contender_at_initial_contender</title>
<path fill="none" stroke="black" d="M283.34,-918.23C299.95,-915.91 318.69,-913.32 335.79,-911 344.46,-909.83 353.51,-908.62 362.53,-907.42"/>
<polygon fill="black" stroke="black" points="363.23,-910.86 372.68,-906.07 362.31,-903.92 363.23,-910.86"/>
<text text-anchor="middle" x="345.29" y="-914.8" font-family="Times,serif" font-size="14.00">yes</text>
</g>
<!-- return_mismatch_at_initial_contender -->
<g id="node4" class="node">
<title>return_mismatch_at_initial_contender</title>
<polygon fill="none" stroke="black" points="479.29,-972 407.29,-972 407.29,-934 479.29,-934 479.29,-972"/>
<text text-anchor="middle" x="443.29" y="-956.8" font-family="Times,serif" font-size="14.00">return</text>
<text text-anchor="middle" x="443.29" y="-941.8" font-family="Times,serif" font-size="14.00">Mismatch</text>
</g>
<!-- examine_at_initial_contender&#45;&gt;return_mismatch_at_initial_contender -->
<g id="edge3" class="edge">
<title>examine_at_initial_contender-&gt;return_mismatch_at_initial_contender</title>
<path fill="none" stroke="black" d="M283.57,-931.53C317.89,-936.17 363.67,-942.36 397.24,-946.91"/>
<polygon fill="black" stroke="black" points="396.86,-950.39 407.24,-948.26 397.8,-943.45 396.86,-950.39"/>
<text text-anchor="middle" x="345.29" y="-943.8" font-family="Times,serif" font-size="14.00">no</text>
</g>
<!-- return_mismatch_at_finger_down_contender -->
<g id="node6" class="node">
<title>return_mismatch_at_finger_down_contender</title>
<polygon fill="none" stroke="black" points="672.79,-696 600.79,-696 600.79,-658 672.79,-658 672.79,-696"/>
<text text-anchor="middle" x="636.79" y="-680.8" font-family="Times,serif" font-size="14.00">return</text>
<text text-anchor="middle" x="636.79" y="-665.8" font-family="Times,serif" font-size="14.00">Mismatch</text>
</g>
<!-- examine_at_finger_down_contender&#45;&gt;return_mismatch_at_finger_down_contender -->
<g id="edge5" class="edge">
<title>examine_at_finger_down_contender-&gt;return_mismatch_at_finger_down_contender</title>
<path fill="none" stroke="black" d="M290.17,-693.34C315.22,-688.15 345.36,-682.73 372.79,-680 448.83,-672.44 537.84,-673.48 590.37,-675.11"/>
<polygon fill="black" stroke="black" points="590.27,-678.61 600.38,-675.44 590.5,-671.61 590.27,-678.61"/>
<text text-anchor="middle" x="443.29" y="-683.8" font-family="Times,serif" font-size="14.00">no</text>
</g>
<!-- examine2_at_finger_down_contender -->
<g id="node7" class="node">
<title>examine2_at_finger_down_contender</title>
<polygon fill="none" stroke="black" points="443.29,-810 387.29,-757 443.29,-704 499.29,-757 443.29,-810"/>
<text text-anchor="middle" x="443.29" y="-768.3" font-family="Times,serif" font-size="14.00">exactly</text>
<text text-anchor="middle" x="443.29" y="-753.3" font-family="Times,serif" font-size="14.00">one</text>
<text text-anchor="middle" x="443.29" y="-738.3" font-family="Times,serif" font-size="14.00">finger?</text>
</g>
<!-- examine_at_finger_down_contender&#45;&gt;examine2_at_finger_down_contender -->
<g id="edge6" class="edge">
<title>examine_at_finger_down_contender-&gt;examine2_at_finger_down_contender</title>
<path fill="none" stroke="black" d="M289.14,-719.27C319.71,-726.8 357.84,-736.19 388.41,-743.73"/>
<polygon fill="black" stroke="black" points="387.92,-747.21 398.47,-746.2 389.6,-740.41 387.92,-747.21"/>
<text text-anchor="middle" x="345.29" y="-737.8" font-family="Times,serif" font-size="14.00">yes</text>
</g>
<!-- examine2_at_finger_down_contender&#45;&gt;return_mismatch_at_finger_down_contender -->
<g id="edge7" class="edge">
<title>examine2_at_finger_down_contender-&gt;return_mismatch_at_finger_down_contender</title>
<path fill="none" stroke="black" d="M482.59,-741C513.98,-727.89 558.45,-709.31 591.4,-695.55"/>
<polygon fill="black" stroke="black" points="592.91,-698.71 600.79,-691.62 590.22,-692.25 592.91,-698.71"/>
<text text-anchor="middle" x="543.79" y="-722.8" font-family="Times,serif" font-size="14.00">no</text>
</g>
<!-- examine3_at_finger_down_contender -->
<g id="node8" class="node">
<title>examine3_at_finger_down_contender</title>
<polygon fill="none" stroke="black" points="636.79,-795 573.79,-757 636.79,-719 699.79,-757 636.79,-795"/>
<text text-anchor="middle" x="636.79" y="-760.8" font-family="Times,serif" font-size="14.00">button</text>
<text text-anchor="middle" x="636.79" y="-745.8" font-family="Times,serif" font-size="14.00">pressed?</text>
</g>
<!-- examine2_at_finger_down_contender&#45;&gt;examine3_at_finger_down_contender -->
<g id="edge8" class="edge">
<title>examine2_at_finger_down_contender-&gt;examine3_at_finger_down_contender</title>
<path fill="none" stroke="black" d="M499.43,-757C519.37,-757 542.19,-757 563.39,-757"/>
<polygon fill="black" stroke="black" points="563.65,-760.5 573.65,-757 563.65,-753.5 563.65,-760.5"/>
<text text-anchor="middle" x="543.79" y="-760.8" font-family="Times,serif" font-size="14.00">yes</text>
</g>
<!-- return_button_down_contender_at_finger_down_contender -->
<g id="node9" class="node">
<title>return_button_down_contender_at_finger_down_contender</title>
<polygon fill="none" stroke="black" points="915.29,-741 772.29,-741 772.29,-703 915.29,-703 915.29,-741"/>
<text text-anchor="middle" x="843.79" y="-725.8" font-family="Times,serif" font-size="14.00">return</text>
<text text-anchor="middle" x="843.79" y="-710.8" font-family="Times,serif" font-size="14.00">ButtonDownContender</text>
</g>
<!-- examine3_at_finger_down_contender&#45;&gt;return_button_down_contender_at_finger_down_contender -->
<g id="edge9" class="edge">
<title>examine3_at_finger_down_contender-&gt;return_button_down_contender_at_finger_down_contender</title>
<path fill="none" stroke="black" d="M686.12,-748.75C708.79,-744.88 736.44,-740.16 762.15,-735.77"/>
<polygon fill="black" stroke="black" points="763.01,-739.17 772.28,-734.04 761.83,-732.27 763.01,-739.17"/>
<text text-anchor="middle" x="727.29" y="-745.8" font-family="Times,serif" font-size="14.00">yes</text>
</g>
<!-- return_self_at_finger_down_contender -->
<g id="node10" class="node">
<title>return_self_at_finger_down_contender</title>
<polygon fill="none" stroke="black" points="870.79,-797 816.79,-797 816.79,-759 870.79,-759 870.79,-797"/>
<text text-anchor="middle" x="843.79" y="-781.8" font-family="Times,serif" font-size="14.00">return</text>
<text text-anchor="middle" x="843.79" y="-766.8" font-family="Times,serif" font-size="14.00">`self`</text>
</g>
<!-- examine3_at_finger_down_contender&#45;&gt;return_self_at_finger_down_contender -->
<g id="edge10" class="edge">
<title>examine3_at_finger_down_contender-&gt;return_self_at_finger_down_contender</title>
<path fill="none" stroke="black" d="M690.85,-762.44C727.09,-766.15 774.17,-770.97 806.26,-774.26"/>
<polygon fill="black" stroke="black" points="806.23,-777.77 816.53,-775.31 806.94,-770.81 806.23,-777.77"/>
<text text-anchor="middle" x="727.29" y="-769.8" font-family="Times,serif" font-size="14.00">no</text>
</g>
<!-- return_mismatch_at_button_down_contender -->
<g id="node12" class="node">
<title>return_mismatch_at_button_down_contender</title>
<polygon fill="none" stroke="black" points="879.79,-467 807.79,-467 807.79,-429 879.79,-429 879.79,-467"/>
<text text-anchor="middle" x="843.79" y="-451.8" font-family="Times,serif" font-size="14.00">return</text>
<text text-anchor="middle" x="843.79" y="-436.8" font-family="Times,serif" font-size="14.00">Mismatch</text>
</g>
<!-- examine_at_button_down_contender&#45;&gt;return_mismatch_at_button_down_contender -->
<g id="edge12" class="edge">
<title>examine_at_button_down_contender-&gt;return_mismatch_at_button_down_contender</title>
<path fill="none" stroke="black" d="M290.87,-469.8C315.79,-464.87 345.63,-459.71 372.79,-457 527.97,-441.51 713.34,-444.13 797.38,-446.45"/>
<polygon fill="black" stroke="black" points="797.5,-449.96 807.6,-446.75 797.7,-442.96 797.5,-449.96"/>
<text text-anchor="middle" x="543.79" y="-449.8" font-family="Times,serif" font-size="14.00">no</text>
</g>
<!-- examine2_at_button_down_contender -->
<g id="node13" class="node">
<title>examine2_at_button_down_contender</title>
<polygon fill="none" stroke="black" points="443.29,-572 387.29,-519 443.29,-466 499.29,-519 443.29,-572"/>
<text text-anchor="middle" x="443.29" y="-530.3" font-family="Times,serif" font-size="14.00">exactly</text>
<text text-anchor="middle" x="443.29" y="-515.3" font-family="Times,serif" font-size="14.00">one</text>
<text text-anchor="middle" x="443.29" y="-500.3" font-family="Times,serif" font-size="14.00">finger?</text>
</g>
<!-- examine_at_button_down_contender&#45;&gt;examine2_at_button_down_contender -->
<g id="edge13" class="edge">
<title>examine_at_button_down_contender-&gt;examine2_at_button_down_contender</title>
<path fill="none" stroke="black" d="M293.23,-492.36C322.23,-497.54 357.18,-503.79 385.95,-508.93"/>
<polygon fill="black" stroke="black" points="385.39,-512.38 395.85,-510.7 386.62,-505.49 385.39,-512.38"/>
<text text-anchor="middle" x="345.29" y="-505.8" font-family="Times,serif" font-size="14.00">yes</text>
</g>
<!-- examine2_at_button_down_contender&#45;&gt;return_mismatch_at_button_down_contender -->
<g id="edge14" class="edge">
<title>examine2_at_button_down_contender-&gt;return_mismatch_at_button_down_contender</title>
<path fill="none" stroke="black" d="M488.82,-508.75C513.75,-503.16 545.42,-496.33 573.79,-491 652.01,-476.3 743.64,-462.35 797.24,-454.51"/>
<polygon fill="black" stroke="black" points="798.05,-457.93 807.44,-453.02 797.04,-451 798.05,-457.93"/>
<text text-anchor="middle" x="636.79" y="-494.8" font-family="Times,serif" font-size="14.00">no</text>
</g>
<!-- examine3_at_button_down_contender -->
<g id="node14" class="node">
<title>examine3_at_button_down_contender</title>
<polygon fill="none" stroke="black" points="636.79,-591 573.79,-553 636.79,-515 699.79,-553 636.79,-591"/>
<text text-anchor="middle" x="636.79" y="-556.8" font-family="Times,serif" font-size="14.00">button</text>
<text text-anchor="middle" x="636.79" y="-541.8" font-family="Times,serif" font-size="14.00">pressed?</text>
</g>
<!-- examine2_at_button_down_contender&#45;&gt;examine3_at_button_down_contender -->
<g id="edge15" class="edge">
<title>examine2_at_button_down_contender-&gt;examine3_at_button_down_contender</title>
<path fill="none" stroke="black" d="M490.65,-527.23C516.88,-531.89 549.91,-537.75 577.83,-542.71"/>
<polygon fill="black" stroke="black" points="577.41,-546.19 587.86,-544.49 578.63,-539.3 577.41,-546.19"/>
<text text-anchor="middle" x="543.79" y="-541.8" font-family="Times,serif" font-size="14.00">yes</text>
</g>
<!-- examine3_at_button_down_contender&#45;&gt;return_mismatch_at_button_down_contender -->
<g id="edge16" class="edge">
<title>examine3_at_button_down_contender-&gt;return_mismatch_at_button_down_contender</title>
<path fill="none" stroke="black" d="M667.25,-533.33C700.36,-511.25 750.14,-478.22 754.79,-476 768.3,-469.56 783.66,-464.09 797.72,-459.74"/>
<polygon fill="black" stroke="black" points="799.1,-462.99 807.69,-456.78 797.1,-456.28 799.1,-462.99"/>
<text text-anchor="middle" x="727.29" y="-501.8" font-family="Times,serif" font-size="14.00">no</text>
</g>
<!-- examine4_at_button_down_contender -->
<g id="node15" class="node">
<title>examine4_at_button_down_contender</title>
<polygon fill="none" stroke="black" points="843.79,-591 754.79,-538 843.79,-485 932.79,-538 843.79,-591"/>
<text text-anchor="middle" x="843.79" y="-549.3" font-family="Times,serif" font-size="14.00">displacement</text>
<text text-anchor="middle" x="843.79" y="-534.3" font-family="Times,serif" font-size="14.00">&gt;</text>
<text text-anchor="middle" x="843.79" y="-519.3" font-family="Times,serif" font-size="14.00">threshold?</text>
</g>
<!-- examine3_at_button_down_contender&#45;&gt;examine4_at_button_down_contender -->
<g id="edge17" class="edge">
<title>examine3_at_button_down_contender-&gt;examine4_at_button_down_contender</title>
<path fill="none" stroke="black" d="M693.27,-548.94C712.02,-547.57 733.45,-546 754.12,-544.49"/>
<polygon fill="black" stroke="black" points="754.47,-547.97 764.19,-543.75 753.96,-540.99 754.47,-547.97"/>
<text text-anchor="middle" x="727.29" y="-549.8" font-family="Times,serif" font-size="14.00">yes</text>
</g>
<!-- return_matched_contender_at_button_down_contender -->
<g id="node16" class="node">
<title>return_matched_contender_at_button_down_contender</title>
<polygon fill="none" stroke="black" points="1108.79,-520 987.79,-520 987.79,-482 1108.79,-482 1108.79,-520"/>
<text text-anchor="middle" x="1048.29" y="-504.8" font-family="Times,serif" font-size="14.00">return</text>
<text text-anchor="middle" x="1048.29" y="-489.8" font-family="Times,serif" font-size="14.00">MatchedContender</text>
</g>
<!-- examine4_at_button_down_contender&#45;&gt;return_matched_contender_at_button_down_contender -->
<g id="edge18" class="edge">
<title>examine4_at_button_down_contender-&gt;return_matched_contender_at_button_down_contender</title>
<path fill="none" stroke="black" d="M912.22,-525.68C933.28,-521.83 956.54,-517.58 977.74,-513.71"/>
<polygon fill="black" stroke="black" points="978.43,-517.14 987.64,-511.9 977.18,-510.25 978.43,-517.14"/>
<text text-anchor="middle" x="960.29" y="-521.8" font-family="Times,serif" font-size="14.00">yes</text>
</g>
<!-- return_self_at_button_down_contender -->
<g id="node17" class="node">
<title>return_self_at_button_down_contender</title>
<polygon fill="none" stroke="black" points="1075.29,-576 1021.29,-576 1021.29,-538 1075.29,-538 1075.29,-576"/>
<text text-anchor="middle" x="1048.29" y="-560.8" font-family="Times,serif" font-size="14.00">return</text>
<text text-anchor="middle" x="1048.29" y="-545.8" font-family="Times,serif" font-size="14.00">`self`</text>
</g>
<!-- examine4_at_button_down_contender&#45;&gt;return_self_at_button_down_contender -->
<g id="edge19" class="edge">
<title>examine4_at_button_down_contender-&gt;return_self_at_button_down_contender</title>
<path fill="none" stroke="black" d="M921.06,-545.16C951.87,-548.05 985.96,-551.25 1010.94,-553.59"/>
<polygon fill="black" stroke="black" points="1010.77,-557.09 1021.06,-554.54 1011.43,-550.12 1010.77,-557.09"/>
<text text-anchor="middle" x="960.29" y="-552.8" font-family="Times,serif" font-size="14.00">no</text>
</g>
<!-- return_mismatch_at_matched_contender -->
<g id="node19" class="node">
<title>return_mismatch_at_matched_contender</title>
<polygon fill="none" stroke="black" points="672.79,-296 600.79,-296 600.79,-258 672.79,-258 672.79,-296"/>
<text text-anchor="middle" x="636.79" y="-280.8" font-family="Times,serif" font-size="14.00">return</text>
<text text-anchor="middle" x="636.79" y="-265.8" font-family="Times,serif" font-size="14.00">Mismatch</text>
</g>
<!-- verify_at_matched_contender&#45;&gt;return_mismatch_at_matched_contender -->
<g id="edge21" class="edge">
<title>verify_at_matched_contender-&gt;return_mismatch_at_matched_contender</title>
<path fill="none" stroke="black" d="M271.93,-311.38C299.08,-299.33 337.35,-284.43 372.79,-278 448.19,-264.32 537.75,-268.15 590.51,-272.4"/>
<polygon fill="black" stroke="black" points="590.29,-275.9 600.55,-273.26 590.89,-268.92 590.29,-275.9"/>
<text text-anchor="middle" x="443.29" y="-281.8" font-family="Times,serif" font-size="14.00">no</text>
</g>
<!-- verify2_at_matched_contender -->
<g id="node20" class="node">
<title>verify2_at_matched_contender</title>
<polygon fill="none" stroke="black" points="443.29,-378 380.29,-340 443.29,-302 506.29,-340 443.29,-378"/>
<text text-anchor="middle" x="443.29" y="-343.8" font-family="Times,serif" font-size="14.00">button</text>
<text text-anchor="middle" x="443.29" y="-328.8" font-family="Times,serif" font-size="14.00">pressed?</text>
</g>
<!-- verify_at_matched_contender&#45;&gt;verify2_at_matched_contender -->
<g id="edge22" class="edge">
<title>verify_at_matched_contender-&gt;verify2_at_matched_contender</title>
<path fill="none" stroke="black" d="M287.53,-331.78C313.98,-333.18 346.42,-334.9 374.74,-336.41"/>
<polygon fill="black" stroke="black" points="374.81,-339.92 384.98,-336.95 375.18,-332.93 374.81,-339.92"/>
<text text-anchor="middle" x="345.29" y="-338.8" font-family="Times,serif" font-size="14.00">yes</text>
</g>
<!-- verify2_at_matched_contender&#45;&gt;return_mismatch_at_matched_contender -->
<g id="edge23" class="edge">
<title>verify2_at_matched_contender-&gt;return_mismatch_at_matched_contender</title>
<path fill="none" stroke="black" d="M484.44,-326.79C515.55,-316.56 558.64,-302.38 590.9,-291.77"/>
<polygon fill="black" stroke="black" points="592.13,-295.05 600.53,-288.6 589.94,-288.4 592.13,-295.05"/>
<text text-anchor="middle" x="543.79" y="-313.8" font-family="Times,serif" font-size="14.00">no</text>
</g>
<!-- return_self_at_matched_contender -->
<g id="node21" class="node">
<title>return_self_at_matched_contender</title>
<polygon fill="none" stroke="black" points="663.79,-359 609.79,-359 609.79,-321 663.79,-321 663.79,-359"/>
<text text-anchor="middle" x="636.79" y="-343.8" font-family="Times,serif" font-size="14.00">return</text>
<text text-anchor="middle" x="636.79" y="-328.8" font-family="Times,serif" font-size="14.00">`self`</text>
</g>
<!-- verify2_at_matched_contender&#45;&gt;return_self_at_matched_contender -->
<g id="edge24" class="edge">
<title>verify2_at_matched_contender-&gt;return_self_at_matched_contender</title>
<path fill="none" stroke="black" d="M506.47,-340C537.19,-340 573.18,-340 599.38,-340"/>
<polygon fill="black" stroke="black" points="599.62,-343.5 609.62,-340 599.62,-336.5 599.62,-343.5"/>
<text text-anchor="middle" x="543.79" y="-343.8" font-family="Times,serif" font-size="14.00">yes</text>
</g>
<!-- return_end_with_event_at_winner -->
<g id="node24" class="node">
<title>return_end_with_event_at_winner</title>
<polygon fill="none" stroke="black" points="697.29,-66 576.29,-66 576.29,-28 697.29,-28 697.29,-66"/>
<text text-anchor="middle" x="636.79" y="-50.8" font-family="Times,serif" font-size="14.00">return</text>
<text text-anchor="middle" x="636.79" y="-35.8" font-family="Times,serif" font-size="14.00">EndGesture(Some)</text>
</g>
<!-- process_at_winner&#45;&gt;return_end_with_event_at_winner -->
<g id="edge27" class="edge">
<title>process_at_winner-&gt;return_end_with_event_at_winner</title>
<path fill="none" stroke="black" d="M262.69,-99.05C289.2,-80.18 331.36,-53.81 372.79,-43 436.72,-26.32 512.39,-29.77 566.11,-35.93"/>
<polygon fill="black" stroke="black" points="565.87,-39.42 576.22,-37.14 566.71,-32.47 565.87,-39.42"/>
<text text-anchor="middle" x="443.29" y="-46.8" font-family="Times,serif" font-size="14.00">no</text>
</g>
<!-- process2_at_winner -->
<g id="node25" class="node">
<title>process2_at_winner</title>
<polygon fill="none" stroke="black" points="443.29,-173 387.29,-120 443.29,-67 499.29,-120 443.29,-173"/>
<text text-anchor="middle" x="443.29" y="-131.3" font-family="Times,serif" font-size="14.00">num</text>
<text text-anchor="middle" x="443.29" y="-116.3" font-family="Times,serif" font-size="14.00">fingers</text>
<text text-anchor="middle" x="443.29" y="-101.3" font-family="Times,serif" font-size="14.00">present</text>
</g>
<!-- process_at_winner&#45;&gt;process2_at_winner -->
<g id="edge28" class="edge">
<title>process_at_winner-&gt;process2_at_winner</title>
<path fill="none" stroke="black" d="M297.4,-120C322.52,-120 351.54,-120 376.97,-120"/>
<polygon fill="black" stroke="black" points="377.26,-123.5 387.26,-120 377.26,-116.5 377.26,-123.5"/>
<text text-anchor="middle" x="345.29" y="-123.8" font-family="Times,serif" font-size="14.00">yes</text>
</g>
<!-- process2_at_winner&#45;&gt;return_end_with_event_at_winner -->
<g id="edge31" class="edge">
<title>process2_at_winner-&gt;return_end_with_event_at_winner</title>
<path fill="none" stroke="black" d="M479.92,-101.33C495.58,-93.53 514.35,-84.74 531.79,-78 542.85,-73.73 554.75,-69.69 566.41,-66.02"/>
<polygon fill="black" stroke="black" points="567.6,-69.31 576.13,-63.03 565.54,-62.62 567.6,-69.31"/>
<text text-anchor="middle" x="543.79" y="-81.8" font-family="Times,serif" font-size="14.00">&gt;=2</text>
</g>
<!-- return_continue_with_event_at_winner -->
<g id="node26" class="node">
<title>return_continue_with_event_at_winner</title>
<polygon fill="none" stroke="black" points="693.29,-149.5 580.29,-149.5 580.29,-96.5 693.29,-96.5 693.29,-149.5"/>
<text text-anchor="middle" x="636.79" y="-134.3" font-family="Times,serif" font-size="14.00">return</text>
<text text-anchor="middle" x="636.79" y="-119.3" font-family="Times,serif" font-size="14.00">ContinueGesture(</text>
<text text-anchor="middle" x="636.79" y="-104.3" font-family="Times,serif" font-size="14.00">Some, self)</text>
</g>
<!-- process2_at_winner&#45;&gt;return_continue_with_event_at_winner -->
<g id="edge29" class="edge">
<title>process2_at_winner-&gt;return_continue_with_event_at_winner</title>
<path fill="none" stroke="black" d="M484.42,-105.89C505.58,-100.12 532.02,-95.51 555.79,-99 560.48,-99.69 565.27,-100.59 570.07,-101.64"/>
<polygon fill="black" stroke="black" points="569.34,-105.07 579.88,-103.99 570.97,-98.26 569.34,-105.07"/>
<text text-anchor="middle" x="543.79" y="-102.8" font-family="Times,serif" font-size="14.00">0</text>
</g>
<!-- process2_at_winner&#45;&gt;return_continue_with_event_at_winner -->
<g id="edge30" class="edge">
<title>process2_at_winner-&gt;return_continue_with_event_at_winner</title>
<path fill="none" stroke="black" d="M498.4,-120.85C520.66,-121.2 546.64,-121.6 569.99,-121.97"/>
<polygon fill="black" stroke="black" points="570.1,-125.47 580.16,-122.13 570.21,-118.47 570.1,-125.47"/>
<text text-anchor="middle" x="543.79" y="-124.8" font-family="Times,serif" font-size="14.00">1</text>
</g>
</g>
</svg>
