<svg fill="none" stroke-linecap="square" stroke-miterlimit="10" width="1560" height="624" xmlns="http://www.w3.org/2000/svg">
  <path fill="#fff" d="M0 0h1560v624H0V0z"/>
  <path fill="#fff" d="M0 0h1560v624H0V0z"/>
  <path stroke="#ccc" stroke-linecap="butt" d="M332.5 102.5v404M542.5 102.5v404M751.5 102.5v404M961.5 102.5v404M1170.5 102.5v404"/>
  <path stroke="#e6e6e6" stroke-linecap="butt" d="M290.5 102.5v404M248.5 102.5v404M206.5 102.5v404M164.5 102.5v404M500.5 102.5v404M458.5 102.5v404M416.5 102.5v404M374.5 102.5v404M709.5 102.5v404M667.5 102.5v404M625.5 102.5v404M584.5 102.5v404M919.5 102.5v404M877.5 102.5v404M835.5 102.5v404M793.5 102.5v404M1128.5 102.5v404M1086.5 102.5v404M1044.5 102.5v404M1003.5 102.5v404M1212.5 102.5v404"/>
  <path stroke="#333" stroke-linecap="butt" d="M140.5 506.5h1081"/>
  <path stroke="#ccc" stroke-linecap="butt" d="M140.5 461.5h1081M140.5 416.5h1081M140.5 372.5h1081M140.5 327.5h1081M140.5 282.5h1081M140.5 237.5h1081M140.5 192.5h1081M140.5 147.5h1081M140.5 102.5h1081"/>
  <clipPath id="a">
    <path d="M140.2 102.5h1081.413v404.3H140.2V102.5z"/>
  </clipPath>
  <path stroke="#f0f" stroke-width="2" stroke-linecap="butt" clip-path="url(#a)" d="M140.2 475.377s5.722-13.41 8.583-18.373c2.86-4.964 5.721-6.376 8.582-11.41 2.861-5.036 5.722-14.626 8.583-18.8 2.86-4.174 5.722-2.658 8.583-6.245 2.86-3.586 5.721-12.278 8.582-15.273 2.861-2.995 5.722 2.52 8.583-2.696 2.86-5.214 5.722-24.258 8.583-28.593 2.86-4.335 5.721.517 8.582 2.583 2.861 2.067 5.722 7.517 8.583 9.816 2.86 2.298 5.722 6.124 8.582 3.976 2.861-2.15 5.722-15.566 8.583-16.869 2.861-1.302 5.722 9.456 8.583 9.052 2.86-.404 5.722-9.508 8.582-11.478 2.861-1.969 5.722 2.804 8.583-.336 2.86-3.141 5.722-16.689 8.583-18.508 2.86-1.82 5.721 7.58 8.582 7.591 2.861.012 5.722-8.932 8.583-7.524 2.86 1.408 5.722 15.464 8.583 15.97 2.86.505 5.721-11.526 8.582-12.938 2.861-1.411 5.722 3.965 8.583 4.47 2.86.505 5.722-.195 8.583-1.437 2.86-1.243 5.721-2.876 8.582-6.02 2.861-3.145 5.722-14.21 8.583-12.848 2.86 1.363 5.722 18.033 8.582 21.024 2.861 2.99 5.722-2.445 8.583-3.077 2.861-.633 5.722-.46 8.583-.72 2.86-.257 5.722-.377 8.582-.83 2.861-.453 5.722-.872 8.583-1.887 2.861-1.014 5.722-3.5 8.583-4.2 2.86-.7 5.721 1.239 8.582 0 2.861-1.24 5.722-8.719 8.583-7.435 2.86 1.284 5.722 12.979 8.583 15.139 2.86 2.16 5.721-2.265 8.582-2.179 2.861.086 5.722 3.512 8.583 2.696 2.86-.816 5.722-7.738 8.583-7.592 2.86.146 5.721 7.565 8.582 8.468 2.861.902 5.722-2.086 8.583-3.055 2.86-.97 5.722-1.527 8.583-2.763 2.86-1.235 5.721-5.63 8.582-4.65 2.861.982 5.722 9.303 8.583 10.535 2.86 1.232 5.722-2.927 8.582-3.145 2.861-.217 5.722 2.325 8.583 1.842 2.861-.483 5.722-3.66 8.583-4.74 2.86-1.077 5.721-1.433 8.582-1.729 2.861-.295 5.722.322 8.583-.045 2.86-.366 5.722-.786 8.583-2.156 2.86-1.37 5.721-7.614 8.582-6.064 2.861 1.55 5.722 12.911 8.583 15.363 2.86 2.452 5.722-.318 8.583-.651 2.86-.333 5.721-.869 8.582-1.348 2.861-.48 5.722-1.25 8.583-1.527 2.86-.277 5.722.236 8.583-.135 2.86-.37 5.721-1.77 8.582-2.089 2.861-.318 5.722.771 8.583.18 2.86-.592 5.722-3.598 8.582-3.729 2.861-.13 5.722 2.497 8.583 2.943 2.861.445 5.722-.034 8.583-.27 2.86-.236 5.722-.472 8.582-1.145 2.861-.674 5.722-2.479 8.583-2.898 2.861-.42 5.722.528 8.583.382 2.86-.146 5.721-.865 8.582-1.258 2.861-.393 5.722-.48 8.583-1.1 2.86-.622 5.722-5.073 8.583-2.628 2.86 2.444 5.721 14.742 8.582 17.295 2.861 2.553 5.722-1.603 8.583-1.977 2.86-.374 5.722.285 8.583-.27 2.86-.554 5.721-3.07 8.582-3.054 2.861.015 5.722 1.377 8.583 3.144 2.86 1.767 5.722 7.87 8.582 7.457 2.861-.411 5.722-7.816 8.583-9.927 2.861-2.112 5.722-3.261 8.583-2.74 2.86.52 5.722 5.18 8.582 5.862 2.861.681 5.722-1.456 8.583-1.775 2.861-.318 5.722.206 8.583-.134 2.86-.341 5.722-1.517 8.582-1.91 2.861-.393 5.722-.146 8.583-.449 2.86-.303 5.722-.992 8.583-1.37 2.86-.378 5.721-.46 8.582-.898 2.861-.438 5.722-2.872 8.583-1.73 2.86 1.142 5.722 7.356 8.583 8.58 2.86 1.224 5.721-.984 8.582-1.235 2.861-.251 5.722.127 8.583-.27 2.86-.397 5.722-1.86 8.583-2.111 2.86-.25 5.721.64 8.582.606 2.861-.033 5.722-.475 8.583-.808 2.86-.333 5.722-.734 8.582-1.19 2.861-.457 5.722-1.524 8.583-1.55 2.861-.027 5.722 1.242 8.583 1.392 2.86.15 5.722-.445 8.582-.494 2.861-.049 5.722.423 8.583.202 2.861-.22 5.722-1.108 8.583-1.527 2.86-.42 5.721-.768 8.582-.988 2.861-.221 5.722-.161 8.583-.337 2.86-.176 5.722-.285 8.583-.72 2.86-.433 5.721-3.78 8.582-1.886 2.861 1.894 5.722 11.234 8.583 13.252 2.86 2.018 5.722-.872 8.583-1.145 2.86-.274 5.721-.15 8.582-.495 2.861-.344 5.722-1.576 8.583-1.572 2.86.004 5.722 1.659 8.583 1.595 2.86-.064 5.721-1.546 8.582-1.977 2.861-.43 5.722-.265 8.583-.606 2.86-.34 5.722-1.509 8.583-1.438 2.86.072 5.721 1.67 8.582 1.865 2.861.194 5.722-.667 8.583-.697 2.86-.03 5.722.745 8.582.517 2.861-.228 5.722-1.501 8.583-1.887 2.86-.385 5.722-.337 8.583-.426 2.86-.09 5.722.018 8.582-.113 2.861-.13 5.722-.288 8.583-.674 2.86-.385 5.722-1.763 8.583-1.64 2.86.124 5.721 2.03 8.582 2.382 2.861.351 5.722-.251 8.583-.27 2.86-.019 5.722.356 8.583.157 2.86-.198 5.721-1.127 8.582-1.347 2.861-.221 5.722.074 8.583.022 2.86-.052 5.722-.195 8.582-.337 2.861-.142 5.722-.217 8.583-.516 2.861-.3 5.722-1.344 8.583-1.28 2.86.063 5.722 1.53 8.582 1.661 2.861.131 5.722-.707 8.583-.876 2.861-.168 5.722.146 8.583-.134 2.86-.281 5.722-1.348 8.582-1.55 2.861-.202 5.722.322 8.583.337 2.861.015 5.722-.038 8.583-.247 2.86-.21 8.582-1.011 8.582-1.011"/>
  <path stroke="red" stroke-width="2" stroke-linecap="butt" clip-path="url(#a)" d="M140.2 440.697s5.722-27.272 8.583-37.667c2.86-10.396 5.721-13.518 8.582-24.708 2.861-11.189 5.722-33.556 8.583-42.429 2.86-8.872 5.722-3.489 8.583-10.803 2.86-7.315 5.721-26.695 8.582-33.086 2.861-6.39 5.722 6.065 8.583-5.256 2.86-11.32 5.722-58.672 8.583-62.666 2.86-3.994 5.721 30.14 8.582 38.7 2.861 8.562 5.722 10.232 8.583 12.669 2.86 2.437 5.722 7.786 8.582 1.954 2.861-5.833 5.722-34.179 8.583-36.949 2.861-2.77 5.722 20.137 8.583 20.327 2.86.191 5.722-13.083 8.582-19.181 2.861-6.099 5.722-9.92 8.583-17.408 2.86-7.487 5.722-29.36 8.583-27.515 2.86 1.846 5.721 37.36 8.582 38.589 2.861 1.227 5.722-30.574 8.583-31.221 2.86-.648 5.722 27.72 8.583 27.335 2.86-.386 5.721-27.586 8.582-29.649 2.861-2.062 5.722 15.914 8.583 17.273 2.86 1.359 5.722-6.083 8.583-9.12 2.86-3.035 5.721-2.399 8.582-9.096 2.861-6.697 5.722-33.931 8.583-31.086 2.86 2.845 5.722 42.1 8.582 48.156 2.861 6.057 5.722-8.954 8.583-11.814 2.861-2.86 5.722-3.983 8.583-5.346 2.86-1.363 5.722-1.284 8.582-2.83 2.861-1.546 5.722-3.71 8.583-6.446 2.861-2.737 5.722-8.109 8.583-9.973 2.86-1.864 5.721 2.632 8.582-1.213 2.861-3.845 5.722-24.805 8.583-21.855 2.86 2.95 5.722 33.523 8.583 39.554 2.86 6.031 5.721-2.066 8.582-3.369 2.861-1.303 5.722.296 8.583-4.447 2.86-4.743 5.722-24.363 8.583-24.011 2.86.352 5.721 23.06 8.582 26.122 2.861 3.062 5.722-5.001 8.583-7.749 2.86-2.748 5.722-5.215 8.583-8.737 2.86-3.523 5.721-14.267 8.582-12.399 2.861 1.868 5.722 20.904 8.583 23.607 2.86 2.703 5.722-6.042 8.582-7.39 2.861-1.348 5.722.917 8.583-.696 2.861-1.614 5.722-6.926 8.583-8.985 2.86-2.059 5.721-2.83 8.582-3.369 2.861-.539 5.722.457 8.583.135 2.86-.322 5.722 1.8 8.583-2.066 2.86-3.868 5.721-25.748 8.582-21.136 2.861 4.612 5.722 40.894 8.583 48.808 2.86 7.913 5.722-.828 8.583-1.326 2.86-.498 5.721-.782 8.582-1.662 2.861-.88 5.722-3.114 8.583-3.616 2.86-.502 5.722 1.348 8.583.606 2.86-.74 5.721-4.503 8.582-5.053 2.861-.55 5.722 2.654 8.583 1.752 2.86-.902 5.722-6.48 8.582-7.165 2.861-.685 5.722 2.953 8.583 3.054 2.861.101 5.722-1.973 8.583-2.448 2.86-.475 5.722.696 8.582-.404 2.861-1.1 5.722-5.586 8.583-6.2 2.861-.613 5.722 2.73 8.583 2.516 2.86-.213 5.721-2.781 8.582-3.796 2.861-1.014 5.722-.689 8.583-2.29 2.86-1.603 5.722-13.429 8.583-7.323 2.86 6.106 5.721 37.54 8.582 43.956 2.861 6.417 5.722-4.365 8.583-5.458 2.86-1.093 5.722-.486 8.583-1.1 2.86-.614 5.721-1.408 8.582-2.583 2.861-1.176 5.722-3.141 8.583-4.47 2.86-1.33 5.722-2.946 8.582-3.504 2.861-.558 5.722 1.707 8.583.157 2.861-1.55 5.722-10.763 8.583-9.456 2.86 1.306 5.722 14.892 8.582 17.295 2.861 2.403 5.722-2.063 8.583-2.875 2.861-.812 5.722-.973 8.583-1.999 2.86-1.026 5.722-3.444 8.582-4.155 2.861-.712 5.722.378 8.583-.113 2.86-.49 5.722-2.089 8.583-2.83 2.86-.74 5.721-.718 8.582-1.617 2.861-.898 5.722-7.217 8.583-3.773 2.86 3.444 5.722 20.712 8.583 24.437 2.86 3.725 5.721-1.752 8.582-2.089 2.861-.337 5.722.727 8.583.068 2.86-.66 5.722-3.478 8.583-4.02 2.86-.544 5.721.905 8.582.763 2.861-.142 5.722-.895 8.583-1.617 2.86-.723 5.722-1.894 8.582-2.718 2.861-.824 5.722-2.078 8.583-2.224 2.861-.146 5.722 1.513 8.583 1.348 2.86-.165 5.722-1.726 8.582-2.336 2.861-.61 5.722-.902 8.583-1.325 2.861-.423 5.722-.49 8.583-1.213 2.86-.723 5.721-2.677 8.582-3.122 2.861-.446 5.722.7 8.583.449 2.86-.25 5.722-.737 8.583-1.954 2.86-1.217 5.721-10.059 8.582-5.346 2.861 4.713 5.722 28.372 8.583 33.624 2.86 5.253 5.722-1.654 8.583-2.11 2.86-.458 5.721-.094 8.582-.63 2.861-.535 5.722-1.973 8.583-2.583 2.86-.61 5.722-.475 8.583-1.078 2.86-.603 5.721-1.898 8.582-2.538 2.861-.64 5.722-.76 8.583-1.303 2.86-.543 5.722-1.785 8.583-1.954 2.86-.168 5.721.723 8.582.943 2.861.221 5.722.393 8.583.382 2.86-.011 5.722.12 8.582-.449 2.861-.569 5.722-2.164 8.583-2.965 2.86-.801 5.722-1.265 8.583-1.842 2.86-.576 5.722-1.13 8.582-1.617 2.861-.487 5.722-.865 8.583-1.303 2.86-.438 5.722-2.493 8.583-1.325 2.86 1.168 5.721 7.446 8.582 8.333 2.861.887 5.722-2.534 8.583-3.01 2.86-.475 5.722.513 8.583.158 2.86-.356 5.721-1.76 8.582-2.291 2.861-.532 5.722-.476 8.583-.899 2.86-.423 5.722-1.396 8.582-1.64 2.861-.243 5.722.57 8.583.18 2.861-.39 5.722-2.096 8.583-2.515 2.86-.42 5.722.1 8.582 0 2.861-.101 5.722-.33 8.583-.607 2.861-.277 5.722-.588 8.583-1.056 2.86-.467 5.722-1.415 8.582-1.751 2.861-.337 5.722-.05 8.583-.27 2.861-.22 5.722-.606 8.583-1.056 2.86-.449 8.582-1.64 8.582-1.64"/>
  <path stroke="#0f0" stroke-width="2" stroke-linecap="butt" clip-path="url(#a)" d="M140.2 484.25s5.722-11.093 8.583-15.836c2.86-4.743 5.721-7.307 8.582-12.623 2.861-5.316 5.722-15.233 8.583-19.272 2.86-4.04 5.722-1.883 8.583-4.964 2.86-3.08 5.721-9.351 8.582-13.521 2.861-4.17 5.722-6.626 8.583-11.5 2.86-4.874 5.722-13.556 8.583-17.745 2.86-4.189 5.721-8.351 8.582-7.39 2.861.963 5.722 11.141 8.583 13.163 2.86 2.021 5.722.603 8.582-1.033 2.861-1.636 5.722-7.136 8.583-8.783 2.861-1.647 5.722.281 8.583-1.1 2.86-1.382 5.722-5.537 8.582-7.188 2.861-1.65 5.722-.415 8.583-2.718 2.86-2.302 5.722-10.826 8.583-11.095 2.86-.27 5.721 8.812 8.582 9.478 2.861.667 5.722-5.96 8.583-5.48 2.86.479 5.722 7.674 8.583 8.355 2.86.682 5.721-3.013 8.582-4.267 2.861-1.255 5.722-2.98 8.583-3.257 2.86-.277 5.722 1.673 8.583 1.594 2.86-.078 5.721-1.119 8.582-2.066 2.861-.947 5.722-3.167 8.583-3.616 2.86-.45 5.722 1.658 8.582.92 2.861-.737 5.722-4.855 8.583-5.345 2.861-.49 5.722.284 8.583 2.403 2.86 2.12 5.722 9.288 8.582 10.31 2.861 1.022 5.722-3.204 8.583-4.178 2.861-.973 5.722-.883 8.583-1.662 2.86-.779 5.721-2.28 8.582-3.01 2.861-.73 5.722-2.93 8.583-1.37 2.86 1.561 5.722 9.509 8.583 10.737 2.86 1.227 5.721-3.04 8.582-3.37 2.861-.329 5.722 1.086 8.583 1.393 2.86.307 5.722-.738 8.583.45 2.86 1.186 5.721 5.817 8.582 6.67 2.861.854 5.722-.651 8.583-1.55 2.86-.898 5.722-2.965 8.583-3.84 2.86-.877 5.721-1.139 8.582-1.416 2.861-.277 5.722.072 8.583-.247 2.86-.318 5.722-1.463 8.582-1.662 2.861-.198 5.722 1.408 8.583.472 2.861-.936 5.722-5.907 8.583-6.087 2.86-.18 5.721 3.107 8.582 5.009 2.861 1.901 5.722 9.179 8.583 6.401 2.86-2.777 5.722-22.05 8.583-23.067 2.86-1.019 5.721 12.555 8.582 16.958 2.861 4.402 5.722 8.393 8.583 9.456 2.86 1.063 5.722.576 8.583-3.077 2.86-3.654 5.721-17.164 8.582-18.845 2.861-1.681 5.722 7.977 8.583 8.76 2.86.782 5.722-3.257 8.583-4.066 2.86-.808 5.721-1.411 8.582-.786 2.861.625 5.722 3.65 8.583 4.537 2.86.887 5.722.558 8.582.786 2.861.229 5.722.506 8.583.584 2.861.079 5.722.06 8.583-.112 2.86-.172 5.722-.689 8.582-.92 2.861-.233 5.722-.21 8.583-.473 2.861-.262 5.722-.7 8.583-1.1 2.86-.4 5.721 1.261 8.582-1.303 2.861-2.564 5.722-14.461 8.583-14.083 2.86.378 5.722 10.845 8.583 16.352 2.86 5.506 5.721 14.053 8.582 16.688 2.861 2.636 5.722-.385 8.583-.876 2.86-.49 5.722-1.808 8.583-2.066 2.86-.258 5.721.745 8.582.517 2.861-.229 5.722-1.562 8.583-1.887 2.86-.326 5.722 2.175 8.582-.068 2.861-2.242 5.722-13.394 8.583-13.386 2.861.007 5.722 11.859 8.583 13.431 2.86 1.573 5.722-3.242 8.582-3.998 2.861-.756 5.722-.37 8.583-.539 2.861-.168 5.722-.674 8.583-.471 2.86.202 5.722 2.875 8.582 1.684 2.861-1.19 5.722-8.86 8.583-8.827 2.86.034 5.722 8.715 8.583 9.03 2.86.314 5.721-7.016 8.582-7.143 2.861-.128 5.722 4.507 8.583 6.379 2.86 1.871 5.722 3.897 8.583 4.851 2.86.955 5.721 1.284 8.582.876 2.861-.408 5.722-1.887 8.583-3.324 2.86-1.438 5.722-3.987 8.583-5.3 2.86-1.315 5.721-2.049 8.582-2.584 2.861-.535 5.722-.296 8.583-.629 2.86-.333 5.722-1.314 8.582-1.37 2.861-.056 5.722 2.463 8.583 1.033 2.861-1.43 5.722-9.606 8.583-9.613 2.86-.008 5.722 8.513 8.582 9.568 2.861 1.056 5.722-3.912 8.583-3.234 2.861.677 5.722 6.207 8.583 7.3 2.86 1.093 5.721-.532 8.582-.741 2.861-.21 5.722-.78 8.583-.517 2.86.262 5.722 3.553 8.583 2.089 2.86-1.464 5.721-10.77 8.582-10.871 2.861-.101 5.722 8.61 8.583 10.264 2.86 1.655 5.722.446 8.583-.337 2.86-.782 5.721-4.99 8.582-4.357 2.861.633 5.722 6.753 8.583 8.153 2.86 1.4 5.722.146 8.583.247 2.86.102 5.721.154 8.582.36 2.861.206 5.722 1.273 8.583.876 2.86-.397 5.722-2.437 8.583-3.257 2.86-.82 5.721-2.168 8.582-1.662 2.861.505 5.722 4.885 8.583 4.694 2.86-.19 5.722-4.657 8.582-5.84 2.861-1.183 5.722-2.34 8.583-1.258 2.86 1.082 5.722 6.967 8.583 7.75 2.86.782 5.722-3.216 8.582-3.055 2.861.16 5.722 4.088 8.583 4.02 2.86-.067 5.722-4.462 8.583-4.424 2.86.037 5.721 4.05 8.582 4.649 2.861.599 5.722-.296 8.583-1.056 2.86-.76 5.722-1.987 8.583-3.504 2.86-1.516 5.721-3.6 8.582-5.592 2.861-1.992 5.722-6.3 8.583-6.357 2.86-.056 5.722 5.05 8.582 6.02 2.861.97 5.722-.266 8.583-.202 2.861.063 5.722.426 8.583.584 2.86.157 5.722.262 8.582.359 2.861.097 5.722.146 8.583.225 2.861.078 5.722.295 8.583.247 2.86-.05 5.722-.513 8.582-.54 2.861-.026 5.722.517 8.583.382 2.861-.134 5.722-1.505 8.583-1.19 2.86.314 8.582 3.077 8.582 3.077"/>
  <path stroke="#00f" stroke-width="2" stroke-linecap="butt" clip-path="url(#a)" d="M140.2 427.333s5.722-15.11 8.583-24.236c2.86-9.127 5.721-18.096 8.582-30.525 2.861-12.428 5.722-33.684 8.583-44.046 2.86-10.362 5.722-9.894 8.583-18.126 2.86-8.232 5.721-20.833 8.582-31.266 2.861-10.433 5.722-19.1 8.583-31.333 2.86-12.234 5.722-32.812 8.583-42.07 2.86-9.257 5.721-19.676 8.582-13.476 2.861 6.199 5.722 46.06 8.583 50.672 2.86 4.612 5.722-19.669 8.582-23 2.861-3.332 5.722 3.309 8.583 3.01 2.861-.3 5.722-.944 8.583-4.807 2.86-3.863 5.722-13.069 8.582-18.373 2.861-5.305 5.722-8.786 8.583-13.455 2.86-4.668 5.722-15.39 8.583-14.554 2.86.834 5.721 18.545 8.582 19.563 2.861 1.018 5.722-14.034 8.583-13.454 2.86.58 5.722 16.224 8.583 16.936 2.86.711 5.721-10.149 8.582-12.668 2.861-2.52 5.722-1.7 8.583-2.449 2.86-.748 5.722-1.108 8.583-2.044 2.86-.935 5.721-.329 8.582-3.57 2.861-3.243 5.722-13.56 8.583-15.88 2.86-2.322 5.722 4.555 8.582 1.953 2.861-2.602 5.722-15.599 8.583-17.564 2.861-1.966 5.722 2.452 8.583 5.772 2.86 3.32 5.722 12.182 8.582 14.15 2.861 1.97 5.722.367 8.583-2.335 2.861-2.703 5.722-12.174 8.583-13.881 2.86-1.707 5.721 3.245 8.582 3.638 2.861.393 5.722-5.705 8.583-1.28 2.86 4.425 5.722 24.18 8.583 27.83 2.86 3.65 5.721-.203 8.582-5.93 2.861-5.728 5.722-26.227 8.583-28.436 2.86-2.209 5.722 10.186 8.583 15.184 2.86 4.997 5.721 13.51 8.582 14.802 2.861 1.291 5.722-6.024 8.583-7.053 2.86-1.03 5.722 2.609 8.583.876 2.86-1.734 5.721-11.021 8.582-11.276 2.861-.254 5.722 9.958 8.583 9.748 2.86-.21 5.722-8.88 8.582-11.006 2.861-2.126 5.722-1.25 8.583-1.752 2.861-.501 5.722-1.04 8.583-1.257 2.86-.218 5.721-1.749 8.582-.045 2.861 1.703 5.722 8.68 8.583 10.264 2.86 1.584 5.722.195 8.583-.763 2.86-.959 5.721-5.765 8.582-4.987 2.861.779 5.722 8.375 8.583 9.659 2.86 1.284 5.722-.962 8.583-1.954 2.86-.992 5.721-2.516 8.582-3.999 2.861-1.482 5.722-4.39 8.583-4.896 2.86-.505 5.722 2.149 8.583 1.864 2.86-.284 5.721-4.81 8.582-3.571 2.861 1.239 5.722 8.427 8.583 11.006 2.86 2.58 5.722 3.317 8.582 4.47 2.861 1.153 5.722 2.208 8.583 2.448 2.861.24 5.722-.73 8.583-1.01 2.86-.282 5.722-.057 8.582-.675 2.861-.617 5.722-2.706 8.583-3.032 2.861-.326 5.722 1.748 8.583 1.078 2.86-.67 5.721-4.241 8.582-5.099 2.861-.857 5.722-.928 8.583-.044 2.86.883 5.722-.794 8.583 5.345 2.86 6.14 5.721 26.392 8.582 31.49 2.861 5.1 5.722-.546 8.583-.898 2.86-.352 5.722.158 8.583-1.213 2.86-1.37 5.721-6.364 8.582-7.007 2.861-.644 5.722 3.204 8.583 3.144 2.86-.06 5.722-2.452 8.582-3.504 2.861-1.052 5.722-2.193 8.583-2.807 2.861-.614 5.722-1.681 8.583-.876 2.86.804 5.722 5.057 8.582 5.705 2.861.647 5.722-1.427 8.583-1.82 2.861-.393 5.722-.595 8.583-.539 2.86.056 5.722.869 8.582.876 2.861.008 5.722 2.422 8.583-.83 2.86-3.254 5.722-17.895 8.583-18.688 2.86-.794 5.721 11.653 8.582 13.925 2.861 2.273 5.722-1.819 8.583-.292 2.86 1.528 5.722 7.667 8.583 9.457 2.86 1.789 5.721 1.299 8.582 1.28 2.861-.019 5.722-1.13 8.583-1.393 2.86-.262 5.722-.27 8.583-.18 2.86.09 5.721.708 8.582.72 2.861.01 5.722-.72 8.583-.652 2.86.067 5.722 3.639 8.582 1.056 2.861-2.583 5.722-16.374 8.583-16.554 2.861-.18 5.722 13.35 8.583 15.476 2.86 2.126 5.722-2.68 8.582-2.718 2.861-.038 5.722 2.463 8.583 2.493 2.861.03 5.722-1.752 8.583-2.314 2.86-.561 5.721-1.156 8.582-1.055 2.861.1 5.722 1.909 8.583 1.662 2.86-.247 5.722-2.995 8.583-3.145 2.86-.15 5.721-.168 8.582 2.246 2.861 2.415 5.722 10.808 8.583 12.242 2.86 1.433 5.722-2.767 8.583-3.639 2.86-.872 5.721-1.539 8.582-1.595 2.861-.056 5.722.801 8.583 1.258 2.86.457 5.722 1.501 8.583 1.483 2.86-.02 5.721-1.255 8.582-1.595 2.861-.34 5.722-.03 8.583-.45 2.86-.419 5.722-1.65 8.583-2.066 2.86-.415 5.721-.513 8.582-.427 2.861.087 5.722 1.011 8.583.944 2.86-.068 5.722-.337 8.582-1.348 2.861-1.01 5.722-4.818 8.583-4.717 2.86.101 5.722 4.713 8.583 5.324 2.86.61 5.722-1.464 8.582-1.663 2.861-.198 5.722.225 8.583.472 2.86.247 5.722.734 8.583 1.01 2.86.278 5.721.783 8.582.652 2.861-.13 5.722-1.224 8.583-1.437 2.86-.214 5.722.247 8.583.157 2.86-.09 5.721-.202 8.582-.696 2.861-.494 5.722-2.123 8.583-2.269 2.86-.146 5.722 1.07 8.582 1.393 2.861.322 5.722.445 8.583.539 2.861.093 5.722.224 8.583.022 2.86-.202 5.722-1.145 8.582-1.235 2.861-.09 5.722.82 8.583.696 2.861-.123 5.722-1.033 8.583-1.437 2.86-.405 5.722-.835 8.582-.989 2.861-.153 5.722.438 8.583.068 2.861-.37 5.722-2.16 8.583-2.291 2.86-.131 8.582 1.505 8.582 1.505"/>
  <path fill="#424242" d="M661.72 578.862l-2.079 2.172v5.766h-2.25v-17.063h2.25v8.438l7.578-8.438h2.719l-6.719 7.532 7.25 9.531h-2.703l-6.047-7.938zm15.593 8.172q-2.578 0-4.203-1.687-1.61-1.703-1.61-4.531v-.407q0-1.89.72-3.359.718-1.484 2.015-2.328 1.297-.844 2.812-.844 2.469 0 3.828 1.64 1.375 1.626 1.375 4.657v.906h-8.578q.047 1.875 1.094 3.031 1.047 1.157 2.656 1.157 1.157 0 1.953-.469.797-.469 1.391-1.25l1.328 1.031q-1.594 2.453-4.781 2.453zm-.266-11.375q-1.312 0-2.203.97-.89.952-1.11 2.671h6.36v-.172q-.094-1.64-.89-2.547-.797-.922-2.157-.922zm12.157 7.97l2.953-9.517h2.312l-5.094 14.641q-1.187 3.172-3.765 3.172l-.406-.031-.813-.157v-1.765l.594.047q1.094 0 1.703-.453.625-.438 1.016-1.61l.484-1.297-4.516-12.547h2.36l3.172 9.516zm14.234-.188q0-.891-.672-1.375-.656-.485-2.312-.829-1.641-.359-2.61-.843-.969-.5-1.437-1.172-.453-.688-.453-1.625 0-1.563 1.312-2.64 1.328-1.079 3.375-1.079 2.156 0 3.5 1.125 1.344 1.11 1.344 2.844h-2.188q0-.89-.75-1.531-.75-.657-1.906-.657-1.187 0-1.86.516-.656.516-.656 1.36 0 .78.61 1.187.625.39 2.25.75t2.625.875q1.015.5 1.5 1.219.484.703.484 1.718 0 1.703-1.36 2.735-1.359 1.015-3.515 1.015-1.531 0-2.703-.53-1.172-.548-1.844-1.517-.656-.968-.656-2.093h2.172q.062 1.093.875 1.734.812.64 2.156.64 1.219 0 1.969-.5t.75-1.327zM37.137 369.51l13.922-5.579-13.922-5.578v-2.922H54.2v2.25h-6.64l-7.173-.203 13.813 5.594v1.734l-13.781 5.578 7.14-.218H54.2v2.25H37.137v-2.907zm9.125-22.423l2.172 2.079H54.2v2.25H37.137v-2.25h8.438l-8.438-7.579v-2.718l7.532 6.718 9.531-7.25v2.704l-7.938 6.046zm8.172-15.593q0 2.578-1.687 4.203-1.703 1.61-4.531 1.61h-.407q-1.89 0-3.359-.72-1.484-.718-2.328-2.015-.844-1.297-.844-2.813 0-2.468 1.64-3.828 1.626-1.375 4.657-1.375h.906v8.578q1.875-.047 3.031-1.093 1.157-1.047 1.157-2.657 0-1.156-.469-1.953-.469-.797-1.25-1.39l1.031-1.329q2.453 1.594 2.453 4.782zm-11.375.265q0 1.313.97 2.203.952.891 2.671 1.11v-6.36h-.172q-1.64.094-2.547.891-.922.797-.922 2.156zm7.97-12.156l-9.517-2.953v-2.313l14.641 5.094q3.172 1.188 3.172 3.766l-.031.406-.157.813h-1.765l.047-.594q0-1.094-.453-1.703-.438-.625-1.61-1.016l-1.297-.484-12.547 4.515v-2.359l9.516-3.172zm-.188-14.234q-.891 0-1.375.672-.485.656-.829 2.312-.359 1.64-.843 2.61-.5.968-1.172 1.437-.688.453-1.625.453-1.563 0-2.64-1.312-1.079-1.329-1.079-3.375 0-2.157 1.125-3.5 1.11-1.344 2.844-1.344v2.187q-.89 0-1.531.75-.657.75-.657 1.907 0 1.187.516 1.859.516.656 1.36.656.78 0 1.187-.61.39-.624.75-2.25.36-1.624.875-2.624.5-1.016 1.219-1.5.703-.485 1.718-.485 1.703 0 2.735 1.36 1.015 1.36 1.015 3.515 0 1.532-.53 2.704-.548 1.171-1.517 1.843-.968.657-2.093.657v-2.172q1.093-.063 1.734-.875.64-.813.64-2.157 0-1.218-.5-1.968t-1.327-.75zm4.828-5.047v1.86l-18.532-7.126v-1.844l18.532 7.11zm-4.828-16.953q-.891 0-1.375.672-.485.656-.829 2.312-.359 1.64-.843 2.61-.5.968-1.172 1.437-.688.453-1.625.453-1.563 0-2.64-1.312-1.079-1.329-1.079-3.375 0-2.157 1.125-3.5 1.11-1.344 2.844-1.344v2.187q-.89 0-1.531.75-.657.75-.657 1.907 0 1.187.516 1.859.516.656 1.36.656.78 0 1.187-.61.39-.624.75-2.25.36-1.624.875-2.624.5-1.016 1.219-1.5.703-.485 1.718-.485 1.703 0 2.735 1.36 1.015 1.36 1.015 3.515 0 1.532-.53 2.704-.548 1.171-1.517 1.843-.968.657-2.093.657v-2.172q1.093-.063 1.734-.875.64-.813.64-2.157 0-1.218-.5-1.968t-1.327-.75zm3.593-9.875q0 2.578-1.687 4.203-1.703 1.61-4.531 1.61h-.407q-1.89 0-3.359-.72-1.484-.718-2.328-2.015-.844-1.297-.844-2.813 0-2.468 1.64-3.828 1.626-1.375 4.657-1.375h.906v8.578q1.875-.047 3.031-1.093 1.157-1.047 1.157-2.657 0-1.156-.469-1.953-.469-.797-1.25-1.39l1.031-1.329q2.453 1.594 2.453 4.782zm-11.375.265q0 1.313.97 2.203.952.891 2.671 1.11v-6.36h-.172q-1.64.094-2.547.891-.922.797-.922 2.156zm9.61-13.093q0-1.157-.703-2.016-.704-.875-1.766-.969v-2.047q1.094.063 2.078.75.984.688 1.578 1.844.578 1.156.578 2.438 0 2.593-1.718 4.125-1.735 1.53-4.735 1.53h-.375q-1.844 0-3.281-.671-1.453-.688-2.25-1.953-.797-1.281-.797-3.016 0-2.125 1.281-3.531 1.282-1.422 3.313-1.516v2.047q-1.219.094-2.016.938-.797.828-.797 2.062 0 1.656 1.203 2.563 1.188.906 3.438.906h.406q2.188 0 3.375-.89 1.188-.907 1.188-2.594zm.39-7.953q-.562 0-.937-.329-.375-.343-.375-1 0-.671.375-1.015.375-.36.937-.36.547 0 .907.36.359.344.359 1.015 0 .657-.36 1-.359.329-.906.329z"/>
  <path fill="#757575" d="M116.263 507.66q0 1.906-.657 2.843-.64.922-2.031.922-1.36 0-2.016-.906-.656-.906-.687-2.719v-1.438q0-1.89.64-2.796.657-.922 2.047-.922 1.375 0 2.032.89.656.875.672 2.72v1.405zm-1.094-1.485q0-1.375-.39-2-.376-.64-1.22-.64-.828 0-1.218.64-.375.625-.375 1.922v1.734q0 1.375.39 2.047.407.656 1.219.656.797 0 1.188-.625.39-.625.406-1.953v-1.781zm2.875 4.563q0-.282.156-.47.172-.187.5-.187.344 0 .516.188.172.187.172.469 0 .265-.172.453-.172.172-.516.172-.328 0-.5-.172-.156-.188-.156-.453zm8.219-3.079q0 1.907-.657 2.844-.64.922-2.031.922-1.36 0-2.016-.906-.656-.906-.687-2.719v-1.438q0-1.89.64-2.796.657-.922 2.047-.922 1.375 0 2.032.89.656.875.672 2.72v1.405zm-1.094-1.484q0-1.375-.39-2-.376-.64-1.22-.64-.828 0-1.218.64-.375.625-.375 1.922v1.734q0 1.375.39 2.047.407.656 1.219.656.797 0 1.188-.625.39-.625.406-1.953v-1.781zm8.093 1.484q0 1.907-.656 2.844-.64.922-2.031.922-1.36 0-2.016-.906-.656-.906-.687-2.719v-1.438q0-1.89.64-2.796.657-.922 2.047-.922 1.375 0 2.032.89.656.875.671 2.72v1.405zm-1.093-1.484q0-1.375-.39-2-.376-.64-1.22-.64-.828 0-1.218.64-.375.625-.375 1.922v1.734q0 1.375.39 2.047.406.656 1.219.656.797 0 1.188-.625.39-.625.406-1.953v-1.781zM109.497 466.378h-5.594v-.781l2.953-3.282q.657-.75.907-1.203.25-.469.25-.969 0-.671-.407-1.093-.39-.438-1.078-.438-.797 0-1.25.469-.453.453-.453 1.281h-1.078q0-1.187.75-1.906.766-.734 2.031-.734 1.203 0 1.89.625.688.625.688 1.671 0 1.25-1.61 3l-2.28 2.47h4.28v.89zm6.766-3.64q0 1.905-.657 2.843-.64.922-2.031.922-1.36 0-2.016-.906-.656-.907-.687-2.72v-1.437q0-1.89.64-2.797.657-.921 2.047-.921 1.375 0 2.032.89.656.875.672 2.719v1.406zm-1.094-1.485q0-1.375-.39-2-.376-.64-1.22-.64-.828 0-1.218.64-.375.625-.375 1.922v1.734q0 1.375.39 2.047.407.656 1.219.656.797 0 1.188-.625.39-.625.406-1.953v-1.781zm2.875 4.562q0-.281.156-.468.172-.188.5-.188.344 0 .516.188.172.187.172.468 0 .266-.172.453-.172.172-.516.172-.328 0-.5-.172-.156-.187-.156-.453zm8.219-3.078q0 1.906-.657 2.844-.64.922-2.031.922-1.36 0-2.016-.906-.656-.907-.687-2.72v-1.437q0-1.89.64-2.797.657-.921 2.047-.921 1.375 0 2.032.89.656.875.672 2.719v1.406zm-1.094-1.484q0-1.375-.39-2-.376-.64-1.22-.64-.828 0-1.218.64-.375.625-.375 1.922v1.734q0 1.375.39 2.047.407.656 1.219.656.797 0 1.188-.625.39-.625.406-1.953v-1.781zm8.093 1.484q0 1.906-.656 2.844-.64.922-2.031.922-1.36 0-2.016-.906-.656-.907-.687-2.72v-1.437q0-1.89.64-2.797.657-.921 2.047-.921 1.375 0 2.032.89.656.875.671 2.719v1.406zm-1.093-1.484q0-1.375-.39-2-.376-.64-1.22-.64-.828 0-1.218.64-.375.625-.375 1.922v1.734q0 1.375.39 2.047.406.656 1.219.656.797 0 1.188-.625.39-.625.406-1.953v-1.781zM108.481 418.596h1.188v.875h-1.188v1.985h-1.078v-1.985h-3.89v-.64l3.812-5.907h1.156v5.672zm-3.734 0h2.656v-4.187l-.14.234-2.516 3.953zm11.516-.781q0 1.906-.657 2.844-.64.922-2.031.922-1.36 0-2.016-.907-.656-.906-.687-2.718v-1.438q0-1.89.64-2.797.657-.922 2.047-.922 1.375 0 2.032.89.656.876.672 2.72v1.406zm-1.094-1.484q0-1.375-.39-2-.376-.641-1.22-.641-.828 0-1.218.64-.375.626-.375 1.922v1.735q0 1.375.39 2.047.407.656 1.219.656.797 0 1.188-.625.39-.625.406-1.953v-1.781zm2.875 4.562q0-.281.156-.469.172-.187.5-.187.344 0 .516.187.172.188.172.47 0 .265-.172.452-.172.172-.516.172-.328 0-.5-.172-.156-.187-.156-.453zm8.219-3.078q0 1.906-.657 2.844-.64.922-2.031.922-1.36 0-2.016-.907-.656-.906-.687-2.718v-1.438q0-1.89.64-2.797.657-.922 2.047-.922 1.375 0 2.032.89.656.876.672 2.72v1.406zm-1.094-1.484q0-1.375-.39-2-.376-.641-1.22-.641-.828 0-1.218.64-.375.626-.375 1.922v1.735q0 1.375.39 2.047.407.656 1.219.656.797 0 1.188-.625.39-.625.406-1.953v-1.781zm8.093 1.484q0 1.906-.656 2.844-.64.922-2.031.922-1.36 0-2.016-.907-.656-.906-.687-2.718v-1.438q0-1.89.64-2.797.657-.922 2.047-.922 1.375 0 2.032.89.656.876.671 2.72v1.406zm-1.093-1.484q0-1.375-.39-2-.376-.641-1.22-.641-.828 0-1.218.64-.375.626-.375 1.922v1.735q0 1.375.39 2.047.406.656 1.219.656.797 0 1.188-.625.39-.625.406-1.953v-1.781zM108.169 368.002v.906h-.203q-1.266.032-2.016.766-.75.719-.875 2.031.688-.765 1.844-.765 1.11 0 1.781.78.672.782.672 2.032 0 1.313-.719 2.11-.719.796-1.937.796-1.22 0-1.985-.937-.75-.953-.75-2.438v-.406q0-2.36 1-3.61t2.985-1.265h.203zm-1.422 3.844q-.563 0-1.031.328-.47.328-.657.844v.39q0 1.063.47 1.703.484.641 1.187.641.734 0 1.156-.531.422-.547.422-1.422 0-.875-.422-1.406-.422-.547-1.125-.547zm9.516 1.047q0 1.906-.657 2.843-.64.922-2.031.922-1.36 0-2.016-.906-.656-.906-.687-2.719v-1.437q0-1.89.64-2.797.657-.922 2.047-.922 1.375 0 2.032.89.656.876.672 2.72v1.406zm-1.094-1.485q0-1.375-.39-2-.376-.64-1.22-.64-.828 0-1.218.64-.375.625-.375 1.922v1.735q0 1.375.39 2.046.407.657 1.219.657.797 0 1.188-.625.39-.625.406-1.953v-1.782zm2.875 4.563q0-.281.156-.469.172-.187.5-.187.344 0 .516.187.172.188.172.469 0 .265-.172.453-.172.172-.516.172-.328 0-.5-.172-.156-.188-.156-.453zm8.219-3.078q0 1.906-.657 2.843-.64.922-2.031.922-1.36 0-2.016-.906-.656-.906-.687-2.719v-1.437q0-1.89.64-2.797.657-.922 2.047-.922 1.375 0 2.032.89.656.876.672 2.72v1.406zm-1.094-1.485q0-1.375-.39-2-.376-.64-1.22-.64-.828 0-1.218.64-.375.625-.375 1.922v1.735q0 1.375.39 2.046.407.657 1.219.657.797 0 1.188-.625.39-.625.406-1.953v-1.782zm8.093 1.485q0 1.906-.656 2.843-.64.922-2.031.922-1.36 0-2.016-.906-.656-.906-.687-2.719v-1.437q0-1.89.64-2.797.657-.922 2.047-.922 1.375 0 2.032.89.656.876.671 2.72v1.406zm-1.093-1.485q0-1.375-.39-2-.376-.64-1.22-.64-.828 0-1.218.64-.375.625-.375 1.922v1.735q0 1.375.39 2.046.406.657 1.219.657.797 0 1.188-.625.39-.625.406-1.953v-1.782zM109.09 325.299q0 .64-.343 1.14-.344.5-.906.781.656.282 1.047.844.39.547.39 1.25 0 1.094-.75 1.766-.734.656-1.953.656-1.234 0-1.984-.656-.735-.672-.735-1.766 0-.703.375-1.25.375-.562 1.047-.844-.562-.28-.89-.78-.329-.5-.329-1.141 0-1.078.688-1.703.687-.641 1.828-.641 1.125 0 1.813.64.703.625.703 1.704zm-.89 3.984q0-.719-.453-1.156-.453-.453-1.188-.453-.734 0-1.187.453-.438.437-.438 1.172 0 .718.438 1.14.437.406 1.203.406.75 0 1.188-.421.437-.422.437-1.141zm-1.625-5.438q-.64 0-1.047.407-.39.39-.39 1.078 0 .64.39 1.047.39.406 1.031.406.657 0 1.047-.406.39-.406.39-1.047 0-.656-.405-1.063-.407-.421-1.016-.421zm9.688 4.125q0 1.907-.657 2.844-.64.922-2.031.922-1.36 0-2.016-.906-.656-.906-.687-2.719v-1.437q0-1.891.64-2.797.657-.922 2.047-.922 1.375 0 2.032.89.656.875.672 2.72v1.406zm-1.094-1.484q0-1.375-.39-2-.376-.64-1.22-.64-.828 0-1.218.64-.375.625-.375 1.922v1.734q0 1.375.39 2.047.407.656 1.219.656.797 0 1.188-.625.39-.625.406-1.953v-1.78zm2.875 4.563q0-.282.156-.47.172-.187.5-.187.344 0 .516.188.172.187.172.469 0 .265-.172.453-.172.172-.516.172-.328 0-.5-.172-.156-.188-.156-.453zm8.219-3.078q0 1.906-.657 2.843-.64.922-2.031.922-1.36 0-2.016-.906-.656-.906-.687-2.719v-1.437q0-1.891.64-2.797.657-.922 2.047-.922 1.375 0 2.032.89.656.875.672 2.72v1.406zm-1.094-1.485q0-1.375-.39-2-.376-.64-1.22-.64-.828 0-1.218.64-.375.625-.375 1.922v1.734q0 1.375.39 2.047.407.656 1.219.656.797 0 1.188-.625.39-.625.406-1.953v-1.78zm8.093 1.485q0 1.906-.656 2.843-.64.922-2.031.922-1.36 0-2.016-.906-.656-.906-.687-2.719v-1.437q0-1.891.64-2.797.657-.922 2.047-.922 1.375 0 2.032.89.656.875.671 2.72v1.406zm-1.093-1.485q0-1.375-.39-2-.376-.64-1.22-.64-.828 0-1.218.64-.375.625-.375 1.922v1.734q0 1.375.39 2.047.406.656 1.219.656.797 0 1.188-.625.39-.625.406-1.953v-1.78zM100.466 286.689h-1.078v-7.219l-2.188.797v-.984l3.11-1.172h.156v8.578zm8.797-3.64q0 1.906-.657 2.843-.64.922-2.031.922-1.36 0-2.016-.906-.656-.907-.687-2.72v-1.437q0-1.89.64-2.796.657-.922 2.047-.922 1.375 0 2.032.89.656.875.672 2.719v1.406zm-1.094-1.485q0-1.375-.39-2-.376-.64-1.22-.64-.828 0-1.218.64-.375.625-.375 1.922v1.734q0 1.375.39 2.047.407.656 1.219.656.797 0 1.188-.625.39-.625.406-1.953v-1.781zm8.094 1.484q0 1.907-.657 2.844-.64.922-2.031.922-1.36 0-2.016-.906-.656-.907-.687-2.72v-1.437q0-1.89.64-2.796.657-.922 2.047-.922 1.375 0 2.032.89.656.875.672 2.719v1.406zm-1.094-1.484q0-1.375-.39-2-.376-.64-1.22-.64-.828 0-1.218.64-.375.625-.375 1.922v1.734q0 1.375.39 2.047.407.656 1.219.656.797 0 1.188-.625.39-.625.406-1.953v-1.781zm2.875 4.562q0-.28.156-.468.172-.188.5-.188.344 0 .516.188.172.187.172.468 0 .266-.172.454-.172.171-.516.171-.328 0-.5-.171-.156-.188-.156-.454zm8.219-3.078q0 1.907-.657 2.844-.64.922-2.031.922-1.36 0-2.016-.906-.656-.907-.687-2.72v-1.437q0-1.89.64-2.796.657-.922 2.047-.922 1.375 0 2.032.89.656.875.672 2.719v1.406zm-1.094-1.484q0-1.375-.39-2-.376-.64-1.22-.64-.828 0-1.218.64-.375.625-.375 1.922v1.734q0 1.375.39 2.047.407.656 1.219.656.797 0 1.188-.625.39-.625.406-1.953v-1.781zm8.093 1.484q0 1.907-.656 2.844-.64.922-2.031.922-1.36 0-2.016-.906-.656-.907-.687-2.72v-1.437q0-1.89.64-2.796.657-.922 2.047-.922 1.375 0 2.032.89.656.875.671 2.719v1.406zm-1.093-1.484q0-1.375-.39-2-.376-.64-1.22-.64-.828 0-1.218.64-.375.625-.375 1.922v1.734q0 1.375.39 2.047.406.656 1.219.656.797 0 1.188-.625.39-.625.406-1.953v-1.781zM100.466 241.767h-1.078v-7.22l-2.188.798v-.985l3.11-1.171h.156v8.578zm9.03 0h-5.593v-.782l2.953-3.28q.657-.75.907-1.204.25-.469.25-.969 0-.672-.407-1.093-.39-.438-1.078-.438-.797 0-1.25.469-.453.453-.453 1.281h-1.078q0-1.187.75-1.906.766-.735 2.031-.735 1.203 0 1.89.625.688.625.688 1.672 0 1.25-1.61 3l-2.28 2.469h4.28v.89zm6.767-3.641q0 1.906-.657 2.844-.64.922-2.031.922-1.36 0-2.016-.907-.656-.906-.687-2.718v-1.438q0-1.89.64-2.797.657-.922 2.047-.922 1.375 0 2.032.891.656.875.672 2.719v1.406zm-1.094-1.484q0-1.375-.39-2-.376-.641-1.22-.641-.828 0-1.218.64-.375.626-.375 1.923v1.734q0 1.375.39 2.047.407.656 1.219.656.797 0 1.188-.625.39-.625.406-1.953v-1.781zm2.875 4.562q0-.281.156-.469.172-.187.5-.187.344 0 .516.187.172.188.172.47 0 .265-.172.452-.172.172-.516.172-.328 0-.5-.172-.156-.187-.156-.453zm8.219-3.078q0 1.906-.657 2.844-.64.922-2.031.922-1.36 0-2.016-.907-.656-.906-.687-2.718v-1.438q0-1.89.64-2.797.657-.922 2.047-.922 1.375 0 2.032.891.656.875.672 2.719v1.406zm-1.094-1.484q0-1.375-.39-2-.376-.641-1.22-.641-.828 0-1.218.64-.375.626-.375 1.923v1.734q0 1.375.39 2.047.407.656 1.219.656.797 0 1.188-.625.39-.625.406-1.953v-1.781zm8.093 1.484q0 1.906-.656 2.844-.64.922-2.031.922-1.36 0-2.016-.907-.656-.906-.687-2.718v-1.438q0-1.89.64-2.797.657-.922 2.047-.922 1.375 0 2.032.891.656.875.671 2.719v1.406zm-1.093-1.484q0-1.375-.39-2-.376-.641-1.22-.641-.828 0-1.218.64-.375.626-.375 1.923v1.734q0 1.375.39 2.047.406.656 1.219.656.797 0 1.188-.625.39-.625.406-1.953v-1.781zM100.466 196.844h-1.078v-7.218l-2.188.797v-.985l3.11-1.172h.156v8.578zm8.015-2.859h1.188v.875h-1.188v1.984h-1.078v-1.984h-3.89v-.64l3.812-5.907h1.156v5.672zm-3.734 0h2.656v-4.187l-.14.234-2.516 3.953zm11.516-.781q0 1.906-.657 2.844-.64.921-2.031.921-1.36 0-2.016-.906-.656-.906-.687-2.719v-1.437q0-1.89.64-2.797.657-.922 2.047-.922 1.375 0 2.032.89.656.876.672 2.72v1.406zm-1.094-1.485q0-1.375-.39-2-.376-.64-1.22-.64-.828 0-1.218.64-.375.625-.375 1.922v1.735q0 1.375.39 2.047.407.656 1.219.656.797 0 1.188-.625.39-.625.406-1.953v-1.782zm2.875 4.563q0-.281.156-.469.172-.187.5-.187.344 0 .516.187.172.188.172.469 0 .266-.172.453-.172.172-.516.172-.328 0-.5-.172-.156-.187-.156-.453zm8.219-3.078q0 1.906-.657 2.844-.64.921-2.031.921-1.36 0-2.016-.906-.656-.906-.687-2.719v-1.437q0-1.89.64-2.797.657-.922 2.047-.922 1.375 0 2.032.89.656.876.672 2.72v1.406zm-1.094-1.485q0-1.375-.39-2-.376-.64-1.22-.64-.828 0-1.218.64-.375.625-.375 1.922v1.735q0 1.375.39 2.047.407.656 1.219.656.797 0 1.188-.625.39-.625.406-1.953v-1.782zm8.093 1.485q0 1.906-.656 2.844-.64.921-2.031.921-1.36 0-2.016-.906-.656-.906-.687-2.719v-1.437q0-1.89.64-2.797.657-.922 2.047-.922 1.375 0 2.032.89.656.876.671 2.72v1.406zm-1.093-1.485q0-1.375-.39-2-.376-.64-1.22-.64-.828 0-1.218.64-.375.625-.375 1.922v1.735q0 1.375.39 2.047.406.656 1.219.656.797 0 1.188-.625.39-.625.406-1.953v-1.782zM100.466 151.922h-1.078v-7.219l-2.188.797v-.984l3.11-1.172h.156v8.578zm7.703-8.531v.906h-.203q-1.266.031-2.016.766-.75.719-.875 2.031.688-.766 1.844-.766 1.11 0 1.781.782.672.781.672 2.031 0 1.312-.719 2.11-.719.796-1.937.796-1.22 0-1.985-.937-.75-.953-.75-2.438v-.406q0-2.36 1-3.61t2.985-1.265h.203zm-1.422 3.844q-.563 0-1.031.328-.47.328-.657.844v.39q0 1.063.47 1.703.484.641 1.187.641.734 0 1.156-.531.422-.547.422-1.422 0-.875-.422-1.406-.422-.547-1.125-.547zm9.516 1.047q0 1.906-.657 2.843-.64.922-2.031.922-1.36 0-2.016-.906-.656-.906-.687-2.719v-1.437q0-1.89.64-2.797.657-.922 2.047-.922 1.375 0 2.032.89.656.876.672 2.72v1.406zm-1.094-1.485q0-1.375-.39-2-.376-.64-1.22-.64-.828 0-1.218.64-.375.625-.375 1.922v1.734q0 1.375.39 2.047.407.657 1.219.657.797 0 1.188-.625.39-.625.406-1.954v-1.78zm2.875 4.563q0-.282.156-.469.172-.188.5-.188.344 0 .516.188.172.187.172.469 0 .265-.172.453-.172.172-.516.172-.328 0-.5-.172-.156-.188-.156-.453zm8.219-3.078q0 1.906-.657 2.843-.64.922-2.031.922-1.36 0-2.016-.906-.656-.906-.687-2.719v-1.437q0-1.89.64-2.797.657-.922 2.047-.922 1.375 0 2.032.89.656.876.672 2.72v1.406zm-1.094-1.485q0-1.375-.39-2-.376-.64-1.22-.64-.828 0-1.218.64-.375.625-.375 1.922v1.734q0 1.375.39 2.047.407.657 1.219.657.797 0 1.188-.625.39-.625.406-1.954v-1.78zm8.093 1.485q0 1.906-.656 2.843-.64.922-2.031.922-1.36 0-2.016-.906-.656-.906-.687-2.719v-1.437q0-1.89.64-2.797.657-.922 2.047-.922 1.375 0 2.032.89.656.876.671 2.72v1.406zm-1.093-1.485q0-1.375-.39-2-.376-.64-1.22-.64-.828 0-1.218.64-.375.625-.375 1.922v1.734q0 1.375.39 2.047.406.657 1.219.657.797 0 1.188-.625.39-.625.406-1.954v-1.78zM100.466 107h-1.078v-7.219l-2.188.797v-.984l3.11-1.172h.156V107zm8.625-6.313q0 .641-.344 1.141t-.906.781q.656.282 1.047.844.39.547.39 1.25 0 1.094-.75 1.766-.734.656-1.953.656-1.234 0-1.984-.656-.735-.672-.735-1.766 0-.703.375-1.25.375-.562 1.047-.844-.562-.28-.89-.78-.329-.5-.329-1.141 0-1.079.688-1.704.687-.64 1.828-.64 1.125 0 1.813.64.703.625.703 1.704zm-.891 3.985q0-.719-.453-1.156-.453-.454-1.188-.454-.734 0-1.187.454-.438.437-.438 1.171 0 .72.438 1.141.437.406 1.203.406.75 0 1.188-.421.437-.422.437-1.141zm-1.625-5.438q-.64 0-1.047.407-.39.39-.39 1.078 0 .64.39 1.047.39.406 1.031.406.657 0 1.047-.406.39-.407.39-1.047 0-.656-.405-1.063-.407-.422-1.016-.422zm9.688 4.125q0 1.907-.657 2.844-.64.922-2.031.922-1.36 0-2.016-.906-.656-.906-.687-2.719v-1.438q0-1.89.64-2.796.657-.922 2.047-.922 1.375 0 2.032.89.656.875.672 2.72v1.405zm-1.094-1.484q0-1.375-.39-2-.376-.64-1.22-.64-.828 0-1.218.64-.375.625-.375 1.922v1.734q0 1.375.39 2.047.407.656 1.219.656.797 0 1.188-.625.39-.625.406-1.953v-1.781zm2.875 4.563q0-.282.156-.47.172-.187.5-.187.344 0 .516.188.172.187.172.469 0 .265-.172.453-.172.171-.516.171-.328 0-.5-.171-.156-.188-.156-.454zm8.219-3.079q0 1.907-.657 2.844-.64.922-2.031.922-1.36 0-2.016-.906-.656-.906-.687-2.719v-1.438q0-1.89.64-2.796.657-.922 2.047-.922 1.375 0 2.032.89.656.875.672 2.72v1.405zm-1.094-1.484q0-1.375-.39-2-.376-.64-1.22-.64-.828 0-1.218.64-.375.625-.375 1.922v1.734q0 1.375.39 2.047.407.656 1.219.656.797 0 1.188-.625.39-.625.406-1.953v-1.781zm8.093 1.484q0 1.907-.656 2.844-.64.922-2.031.922-1.36 0-2.016-.906-.656-.906-.687-2.719v-1.438q0-1.89.64-2.796.657-.922 2.047-.922 1.375 0 2.032.89.656.875.671 2.72v1.405zm-1.093-1.484q0-1.375-.39-2-.376-.64-1.22-.64-.828 0-1.218.64-.375.625-.375 1.922v1.734q0 1.375.39 2.047.406.656 1.219.656.797 0 1.188-.625.39-.625.406-1.953v-1.781zM316.275 520.519l.438-4.25h4.375v1h-3.454l-.265 2.328q.64-.375 1.437-.375 1.157 0 1.844.781.688.766.688 2.078 0 1.313-.72 2.078-.702.766-1.984.766-1.125 0-1.843-.625-.719-.64-.813-1.75h1.016q.11.734.531 1.11.422.374 1.11.374.75 0 1.187-.515.437-.516.437-1.422 0-.86-.468-1.375-.469-.516-1.25-.516-.703 0-1.11.297l-.28.234-.876-.218zm11.86.64q0 1.907-.657 2.844-.64.922-2.031.922-1.36 0-2.016-.906-.656-.907-.687-2.719v-1.438q0-1.89.64-2.796.657-.922 2.047-.922 1.375 0 2.032.89.656.875.671 2.72v1.405zm-1.094-1.484q0-1.375-.39-2-.376-.64-1.22-.64-.828 0-1.218.64-.375.625-.375 1.922v1.734q0 1.375.39 2.047.406.656 1.219.656.797 0 1.187-.625.391-.625.407-1.953v-1.781zm8.093 1.484q0 1.907-.656 2.844-.64.922-2.031.922-1.36 0-2.016-.906-.656-.907-.687-2.719v-1.438q0-1.89.64-2.796.657-.922 2.047-.922 1.375 0 2.032.89.656.875.671 2.72v1.405zm-1.093-1.484q0-1.375-.39-2-.376-.64-1.22-.64-.828 0-1.218.64-.375.625-.375 1.922v1.734q0 1.375.39 2.047.406.656 1.219.656.797 0 1.187-.625.391-.625.407-1.953v-1.781zm8.093 1.484q0 1.907-.656 2.844-.64.922-2.031.922-1.36 0-2.016-.906-.656-.907-.687-2.719v-1.438q0-1.89.64-2.796.657-.922 2.047-.922 1.375 0 2.032.89.656.875.671 2.72v1.405zm-1.093-1.484q0-1.375-.39-2-.376-.64-1.22-.64-.828 0-1.218.64-.375.625-.375 1.922v1.734q0 1.375.39 2.047.406.656 1.219.656.797 0 1.187-.625.391-.625.407-1.953v-1.781zm8.093 1.484q0 1.907-.656 2.844-.64.922-2.031.922-1.36 0-2.016-.906-.656-.907-.687-2.719v-1.438q0-1.89.64-2.796.657-.922 2.047-.922 1.375 0 2.032.89.656.875.671 2.72v1.405zm-1.093-1.484q0-1.375-.39-2-.376-.64-1.22-.64-.828 0-1.218.64-.375.625-.375 1.922v1.734q0 1.375.39 2.047.406.656 1.219.656.797 0 1.187-.625.391-.625.407-1.953v-1.781zM525.375 524.8h-1.078v-7.219l-2.188.797v-.984l3.11-1.172h.156v8.578zm8.797-3.64q0 1.906-.657 2.843-.64.922-2.03.922-1.36 0-2.016-.906-.657-.907-.688-2.719v-1.438q0-1.89.64-2.796.657-.922 2.048-.922 1.375 0 2.03.89.657.875.673 2.72v1.405zm-1.094-1.485q0-1.375-.39-2-.376-.64-1.22-.64-.828 0-1.218.64-.375.625-.375 1.922v1.734q0 1.375.39 2.047.407.656 1.22.656.796 0 1.187-.625.39-.625.406-1.953v-1.781zm8.094 1.484q0 1.907-.657 2.844-.64.922-2.03.922-1.36 0-2.016-.906-.657-.907-.688-2.719v-1.438q0-1.89.64-2.796.657-.922 2.048-.922 1.375 0 2.03.89.657.875.673 2.72v1.405zm-1.094-1.484q0-1.375-.39-2-.376-.64-1.22-.64-.828 0-1.218.64-.375.625-.375 1.922v1.734q0 1.375.39 2.047.407.656 1.22.656.796 0 1.187-.625.39-.625.406-1.953v-1.781zm8.094 1.484q0 1.907-.657 2.844-.64.922-2.03.922-1.36 0-2.016-.906-.657-.907-.688-2.719v-1.438q0-1.89.64-2.796.657-.922 2.048-.922 1.375 0 2.03.89.657.875.673 2.72v1.405zm-1.094-1.484q0-1.375-.39-2-.376-.64-1.22-.64-.828 0-1.218.64-.375.625-.375 1.922v1.734q0 1.375.39 2.047.407.656 1.22.656.796 0 1.187-.625.39-.625.406-1.953v-1.781zm8.094 1.484q0 1.907-.657 2.844-.64.922-2.03.922-1.36 0-2.016-.906-.657-.907-.688-2.719v-1.438q0-1.89.64-2.796.657-.922 2.048-.922 1.375 0 2.03.89.657.875.673 2.72v1.405zm-1.094-1.484q0-1.375-.39-2-.376-.64-1.22-.64-.828 0-1.218.64-.375.625-.375 1.922v1.734q0 1.375.39 2.047.407.656 1.22.656.796 0 1.187-.625.39-.625.406-1.953v-1.781zm8.094 1.484q0 1.907-.657 2.844-.64.922-2.03.922-1.36 0-2.016-.906-.657-.907-.688-2.719v-1.438q0-1.89.64-2.796.657-.922 2.048-.922 1.375 0 2.03.89.657.875.673 2.72v1.405zm-1.094-1.484q0-1.375-.39-2-.376-.64-1.22-.64-.828 0-1.218.64-.375.625-.375 1.922v1.734q0 1.375.39 2.047.407.656 1.22.656.796 0 1.187-.625.39-.625.406-1.953v-1.781zM734.912 524.8h-1.078v-7.219l-2.188.797v-.984l3.11-1.172h.156v8.578zm3.938-4.281l.437-4.25h4.375v1h-3.453l-.266 2.328q.64-.375 1.438-.375 1.156 0 1.844.781.687.766.687 2.078 0 1.313-.719 2.078-.703.766-1.984.766-1.125 0-1.844-.625-.719-.64-.812-1.75h1.015q.11.734.532 1.11.421.374 1.109.374.75 0 1.187-.515.438-.516.438-1.422 0-.86-.469-1.375-.469-.516-1.25-.516-.703 0-1.11.297l-.28.234-.875-.218zm11.859.64q0 1.907-.656 2.844-.64.922-2.032.922-1.359 0-2.015-.906-.656-.907-.688-2.719v-1.438q0-1.89.64-2.796.657-.922 2.048-.922 1.375 0 2.031.89.656.875.672 2.72v1.405zm-1.094-1.484q0-1.375-.39-2-.375-.64-1.22-.64-.827 0-1.218.64-.375.625-.375 1.922v1.734q0 1.375.39 2.047.407.656 1.22.656.796 0 1.187-.625.39-.625.406-1.953v-1.781zm8.094 1.484q0 1.907-.656 2.844-.64.922-2.032.922-1.359 0-2.015-.906-.656-.907-.688-2.719v-1.438q0-1.89.64-2.796.657-.922 2.048-.922 1.375 0 2.031.89.656.875.672 2.72v1.405zm-1.094-1.484q0-1.375-.39-2-.375-.64-1.22-.64-.827 0-1.218.64-.375.625-.375 1.922v1.734q0 1.375.39 2.047.407.656 1.22.656.796 0 1.187-.625.39-.625.406-1.953v-1.781zm8.094 1.484q0 1.907-.656 2.844-.64.922-2.032.922-1.359 0-2.015-.906-.656-.907-.688-2.719v-1.438q0-1.89.64-2.796.657-.922 2.048-.922 1.375 0 2.031.89.656.875.672 2.72v1.405zm-1.094-1.484q0-1.375-.39-2-.375-.64-1.22-.64-.827 0-1.218.64-.375.625-.375 1.922v1.734q0 1.375.39 2.047.407.656 1.22.656.796 0 1.187-.625.39-.625.406-1.953v-1.781zm8.094 1.484q0 1.907-.656 2.844-.64.922-2.032.922-1.359 0-2.015-.906-.656-.907-.688-2.719v-1.438q0-1.89.64-2.796.657-.922 2.048-.922 1.375 0 2.031.89.656.875.672 2.72v1.405zm-1.094-1.484q0-1.375-.39-2-.375-.64-1.22-.64-.827 0-1.218.64-.375.625-.375 1.922v1.734q0 1.375.39 2.047.407.656 1.22.656.796 0 1.187-.625.39-.625.406-1.953v-1.781zM946.48 524.8h-5.593v-.781l2.953-3.282q.656-.75.906-1.203.25-.468.25-.968 0-.672-.406-1.094-.39-.438-1.078-.438-.797 0-1.25.47-.453.452-.453 1.28h-1.078q0-1.187.75-1.906.765-.734 2.03-.734 1.204 0 1.891.625.688.625.688 1.672 0 1.25-1.61 3l-2.28 2.468h4.28v.891zm6.766-3.64q0 1.906-.656 2.843-.64.922-2.031.922-1.36 0-2.016-.906-.656-.907-.688-2.719v-1.438q0-1.89.641-2.796.656-.922 2.047-.922 1.375 0 2.031.89.657.875.672 2.72v1.405zm-1.094-1.485q0-1.375-.39-2-.375-.64-1.219-.64-.828 0-1.219.64-.375.625-.375 1.922v1.734q0 1.375.39 2.047.407.656 1.22.656.797 0 1.187-.625t.406-1.953v-1.781zm8.094 1.484q0 1.907-.656 2.844-.64.922-2.031.922-1.36 0-2.016-.906-.656-.907-.688-2.719v-1.438q0-1.89.641-2.796.656-.922 2.047-.922 1.375 0 2.031.89.657.875.672 2.72v1.405zm-1.094-1.484q0-1.375-.39-2-.375-.64-1.219-.64-.828 0-1.219.64-.375.625-.375 1.922v1.734q0 1.375.39 2.047.407.656 1.22.656.797 0 1.187-.625t.406-1.953v-1.781zm8.094 1.484q0 1.907-.656 2.844-.64.922-2.031.922-1.36 0-2.016-.906-.656-.907-.688-2.719v-1.438q0-1.89.641-2.796.656-.922 2.047-.922 1.375 0 2.031.89.657.875.672 2.72v1.405zm-1.094-1.484q0-1.375-.39-2-.375-.64-1.219-.64-.828 0-1.219.64-.375.625-.375 1.922v1.734q0 1.375.39 2.047.407.656 1.22.656.797 0 1.187-.625t.406-1.953v-1.781zm8.094 1.484q0 1.907-.656 2.844-.64.922-2.031.922-1.36 0-2.016-.906-.656-.907-.688-2.719v-1.438q0-1.89.641-2.796.656-.922 2.047-.922 1.375 0 2.031.89.657.875.672 2.72v1.405zm-1.094-1.484q0-1.375-.39-2-.375-.64-1.219-.64-.828 0-1.219.64-.375.625-.375 1.922v1.734q0 1.375.39 2.047.407.656 1.22.656.797 0 1.187-.625t.406-1.953v-1.781zm8.094 1.484q0 1.907-.656 2.844-.64.922-2.031.922-1.36 0-2.016-.906-.656-.907-.688-2.719v-1.438q0-1.89.641-2.796.656-.922 2.047-.922 1.375 0 2.031.89.657.875.672 2.72v1.405zm-1.094-1.484q0-1.375-.39-2-.375-.64-1.219-.64-.828 0-1.219.64-.375.625-.375 1.922v1.734q0 1.375.39 2.047.407.656 1.22.656.797 0 1.187-.625t.406-1.953v-1.781zM1156.018 524.8h-5.594v-.781l2.953-3.282q.656-.75.906-1.203.25-.468.25-.968 0-.672-.406-1.094-.39-.438-1.078-.438-.797 0-1.25.47-.453.452-.453 1.28h-1.078q0-1.187.75-1.906.765-.734 2.031-.734 1.203 0 1.89.625.688.625.688 1.672 0 1.25-1.61 3l-2.28 2.468h4.28v.891zm1.906-4.281l.438-4.25h4.375v1h-3.454l-.265 2.328q.64-.375 1.437-.375 1.157 0 1.844.781.688.766.688 2.078 0 1.313-.72 2.078-.702.766-1.984.766-1.125 0-1.843-.625-.719-.64-.813-1.75h1.016q.11.734.531 1.11.422.374 1.11.374.75 0 1.187-.515.437-.516.437-1.422 0-.86-.468-1.375-.469-.516-1.25-.516-.703 0-1.11.297l-.28.234-.876-.218zm11.86.64q0 1.907-.657 2.844-.64.922-2.031.922-1.36 0-2.016-.906-.656-.907-.687-2.719v-1.438q0-1.89.64-2.796.657-.922 2.047-.922 1.375 0 2.032.89.656.875.671 2.72v1.405zm-1.094-1.484q0-1.375-.39-2-.376-.64-1.22-.64-.828 0-1.218.64-.375.625-.375 1.922v1.734q0 1.375.39 2.047.406.656 1.219.656.797 0 1.187-.625.391-.625.407-1.953v-1.781zm8.093 1.484q0 1.907-.656 2.844-.64.922-2.031.922-1.36 0-2.016-.906-.656-.907-.687-2.719v-1.438q0-1.89.64-2.796.657-.922 2.047-.922 1.375 0 2.032.89.656.875.671 2.72v1.405zm-1.093-1.484q0-1.375-.39-2-.376-.64-1.22-.64-.828 0-1.218.64-.375.625-.375 1.922v1.734q0 1.375.39 2.047.406.656 1.219.656.797 0 1.187-.625.391-.625.407-1.953v-1.781zm8.093 1.484q0 1.907-.656 2.844-.64.922-2.031.922-1.36 0-2.016-.906-.656-.907-.687-2.719v-1.438q0-1.89.64-2.796.657-.922 2.047-.922 1.375 0 2.032.89.656.875.671 2.72v1.405zm-1.093-1.484q0-1.375-.39-2-.376-.64-1.22-.64-.828 0-1.218.64-.375.625-.375 1.922v1.734q0 1.375.39 2.047.406.656 1.219.656.797 0 1.187-.625.391-.625.407-1.953v-1.781zm8.093 1.484q0 1.907-.656 2.844-.64.922-2.031.922-1.36 0-2.016-.906-.656-.907-.687-2.719v-1.438q0-1.89.64-2.796.657-.922 2.047-.922 1.375 0 2.032.89.656.875.671 2.72v1.405zm-1.093-1.484q0-1.375-.39-2-.376-.64-1.22-.64-.828 0-1.218.64-.375.625-.375 1.922v1.734q0 1.375.39 2.047.406.656 1.219.656.797 0 1.187-.625.391-.625.407-1.953v-1.781z"/>
  <path stroke="#f0f" stroke-width="4" stroke-linecap="butt" d="M1254.8 102.5h12"/>
  <path fill="#757575" d="M1282.347 107h-1.125v-3.938h-4.313V107h-1.125v-8.531h1.125v3.672h4.313v-3.672h1.125V107zm2.437 0v-8.531h2.422q1.11 0 1.953.5.86.484 1.328 1.39.47.907.47 2.094v.531q0 1.22-.47 2.125-.453.907-1.328 1.391-.859.484-2 .5h-2.375zm1.125-7.61v6.688h1.188q1.297 0 2.015-.797.735-.812.735-2.312v-.5q0-1.453-.688-2.25-.672-.813-1.937-.828h-1.313zm13.86-.921v.906h-.203q-1.266.031-2.016.766-.75.718-.875 2.03.688-.765 1.844-.765 1.11 0 1.781.781.672.782.672 2.032 0 1.312-.719 2.11-.719.796-1.937.796-1.22 0-1.985-.938-.75-.953-.75-2.437v-.406q0-2.36 1-3.61t2.985-1.265h.203zm-1.422 3.844q-.563 0-1.031.328-.47.328-.657.843v.391q0 1.063.47 1.703.484.64 1.187.64.734 0 1.156-.53.422-.547.422-1.422 0-.875-.422-1.407-.422-.546-1.125-.546zm5.734-.11h.813q.781-.016 1.218-.406.438-.39.438-1.063 0-1.5-1.5-1.5-.703 0-1.125.407-.406.406-.406 1.062h-1.094q0-1.016.734-1.687.75-.672 1.891-.672 1.203 0 1.89.64.688.641.688 1.782 0 .562-.36 1.078-.359.515-.984.781.703.219 1.078.734.391.516.391 1.266 0 1.14-.75 1.828-.75.672-1.953.672-1.188 0-1.953-.656-.75-.656-.75-1.719h1.094q0 .672.437 1.078.438.406 1.188.406.78 0 1.187-.406.422-.422.422-1.187 0-.735-.453-1.125-.453-.407-1.328-.422h-.813v-.89zm10.782 1.156q0 1.907-.657 2.844-.64.922-2.031.922-1.36 0-2.016-.906-.656-.906-.687-2.719v-1.438q0-1.89.64-2.796.657-.922 2.047-.922 1.375 0 2.032.89.656.875.671 2.72v1.405zm-1.094-1.484q0-1.375-.39-2-.376-.64-1.22-.64-.828 0-1.218.64-.375.625-.375 1.922v1.734q0 1.375.39 2.047.407.656 1.219.656.797 0 1.188-.625.39-.625.406-1.953v-1.781zm15.218 2.188q-.078 1.406-.718 2.234-.625.828-1.688.828-1.093 0-1.406-1-.313.5-.719.75-.406.25-.843.25-.829 0-1.266-.688-.422-.687-.313-1.874.094-.97.438-1.72.36-.765.922-1.202.562-.438 1.172-.438.484 0 .859.125t.844.5l-.313 3.25q-.11 1.344.75 1.344.672 0 1.078-.656.407-.657.438-1.704.125-2.28-.844-3.468-.953-1.203-2.906-1.203-1.188 0-2.11.578-.906.578-1.437 1.687-.516 1.094-.578 2.547-.078 1.453.344 2.531.421 1.063 1.28 1.625.876.563 2.095.563.53 0 1.062-.125.531-.125.875-.344l.219.688q-.36.218-.969.359-.594.156-1.203.156-1.469 0-2.531-.656-1.047-.656-1.578-1.906-.516-1.235-.454-2.89.079-1.61.72-2.891.655-1.297 1.765-2 1.125-.704 2.515-.704 1.47 0 2.5.657 1.047.656 1.547 1.906.516 1.234.453 2.89zm-6.015.5q-.078.828.156 1.28.235.438.75.438.36 0 .672-.297.328-.296.547-.859v-.047l.265-2.953q-.328-.172-.703-.172-.672 0-1.125.703-.453.688-.562 1.906zm14.094 2.437h-1.079v-7.219l-2.187.797v-.984l3.11-1.172h.156V107zm3.578-.563q0-.28.156-.468.172-.188.5-.188.344 0 .516.188.171.187.171.469 0 .265-.171.453-.172.171-.516.171-.328 0-.5-.171-.156-.188-.156-.454zm6.422.563h-1.079v-7.219l-2.187.797v-.984l3.11-1.172h.156V107zm13.03-1.125q-.437.625-1.218.938-.781.312-1.812.312-1.032 0-1.844-.484-.813-.5-1.25-1.407-.438-.906-.453-2.093v-.735q0-1.937.89-3 .907-1.062 2.532-1.062 1.343 0 2.156.687.812.688 1 1.938h-1.125q-.328-1.688-2.016-1.688-1.14 0-1.718.797-.579.781-.594 2.297v.688q0 1.437.656 2.296.656.844 1.781.844.625 0 1.094-.14.484-.141.797-.485v-1.906h-1.969v-.922h3.094v3.125zm8.25 1.125h-1.124v-3.938h-4.313V107h-1.125v-8.531h1.125v3.672h4.313v-3.672h1.125V107zm3.298-.89h3.703v.89h-5.031v-.797l3.5-4.64h-3.454v-.907h4.813v.766l-3.531 4.687zm7.937-2.579q0-1.312.344-2.531.36-1.219 1.063-2.219.703-1 1.468-1.406l.219.719q-.86.656-1.406 2-.547 1.344-.594 3.015l-.016.5q0 2.266.828 3.922.5 1 1.188 1.563l-.219.656q-.781-.422-1.5-1.453-1.375-1.984-1.375-4.766zm7.032 1.969l2.437-7.031h1.234l-3.172 8.531h-.984l-3.156-8.531h1.219l2.421 7.031zm11.187-7.031v5.797q-.016 1.203-.766 1.984-.75.766-2.03.86l-.313.015q-1.391 0-2.235-.75-.828-.766-.828-2.094V98.47h1.11v5.781q0 .922.5 1.438.515.515 1.453.515.968 0 1.468-.516.5-.515.5-1.437v-5.781h1.141zm3.125 7.61h4.047V107h-5.188v-8.531h1.141v7.61zm7.031-3.048l-1.047 1.078V107h-1.125v-8.531h1.125v4.219l3.797-4.22h1.36l-3.36 3.766 3.625 4.766h-1.343l-3.032-3.969zm10.547 1.735h-3.578l-.797 2.234h-1.156l3.25-8.531h.984l3.266 8.531h-1.156l-.813-2.234zm-3.234-.922h2.906l-1.453-3.985-1.453 3.985zm13.078 3.156h-1.125l-4.297-6.578V107h-1.14v-8.531h1.14l4.297 6.61v-6.61h1.125V107zm5.484.734h-.922l3.563-9.265h.922l-3.563 9.265zm11.938-9.265v.906h-.203q-1.266.031-2.016.766-.75.718-.875 2.03.688-.765 1.844-.765 1.11 0 1.781.781.672.782.672 2.032 0 1.312-.719 2.11-.719.796-1.937.796-1.22 0-1.985-.938-.75-.953-.75-2.437v-.406q0-2.36 1-3.61t2.985-1.265h.203zm-1.422 3.844q-.563 0-1.031.328-.47.328-.657.843v.391q0 1.063.47 1.703.484.64 1.187.64.734 0 1.156-.53.422-.547.422-1.422 0-.875-.422-1.407-.422-.546-1.125-.546zm8.734 1.828h1.188v.875h-1.188V107h-1.078v-1.984h-3.89v-.641l3.812-5.906h1.156v5.672zm-3.734 0h2.656v-4.188l-.14.234-2.516 3.954zm8.531-.329h-2.86v-.874h2.86v.874zm6.11.094q0 1.453-.672 2.344-.657.875-1.782.875-1.203 0-1.859-.86l-.063.735h-.984v-9h1.078v3.36q.657-.813 1.813-.813t1.812.875q.657.86.657 2.39v.094zm-1.079-.125q0-1.11-.437-1.703-.422-.61-1.219-.61-1.078 0-1.547.985v2.75q.5 1 1.547 1 .781 0 1.219-.61.437-.609.437-1.812zM1466.8 107h-1.078v-6.344h1.078V107zm-1.172-8.016q0-.265.156-.453.172-.187.485-.187.312 0 .468.187.172.188.172.453 0 .25-.172.438-.156.172-.468.172-.313 0-.485-.172-.156-.188-.156-.438zm4.469.141v1.531h1.172v.844h-1.172v3.922q0 .39.156.578.156.188.531.188.188 0 .516-.063V107q-.422.125-.828.125-.719 0-1.094-.438-.375-.453-.375-1.265V101.5h-1.156v-.844h1.156v-1.531h1.094zm5.734 8.61h-.922l3.563-9.266h.922l-3.563 9.265zm14.516-.735h-1.125v-3.938h-4.313V107h-1.125v-8.531h1.125v3.672h4.313v-3.672h1.125V107zm1.984-3.234q0-.922.36-1.672.375-.75 1.03-1.14.657-.407 1.485-.407 1.297 0 2.094.89.813.891.813 2.391v.078q0 .922-.36 1.656-.36.735-1.015 1.157-.657.406-1.516.406-1.281 0-2.094-.89-.797-.907-.797-2.391v-.078zm1.094.14q0 1.047.484 1.688.5.64 1.313.64.828 0 1.312-.64.485-.656.485-1.828 0-1.032-.5-1.672-.485-.656-1.313-.656-.797 0-1.297.64-.484.625-.484 1.828zm7.672-4.781v1.531h1.172v.844h-1.172v3.922q0 .39.156.578.156.188.531.188.188 0 .516-.063V107q-.422.125-.828.125-.719 0-1.094-.438-.375-.453-.375-1.265V101.5h-1.156v-.844h1.156v-1.531h1.094zm5.203 4.078q-1.438-.422-2.11-1.031-.656-.61-.656-1.5 0-1 .797-1.656.813-.672 2.11-.672.875 0 1.562.344.688.343 1.063.937.39.594.39 1.313h-1.14q0-.782-.5-1.22-.485-.437-1.375-.437-.829 0-1.297.375-.469.36-.469 1 0 .531.438.89.453.36 1.515.657 1.063.297 1.656.656.61.36.891.844.297.484.297 1.125 0 1.047-.813 1.672-.812.625-2.156.625-.89 0-1.656-.344-.75-.344-1.172-.922-.406-.593-.406-1.328h1.125q0 .766.578 1.219.578.453 1.531.453.89 0 1.36-.36.468-.374.468-1 0-.624-.437-.968-.438-.344-1.594-.672zm4.031.563q0-.922.36-1.672.375-.75 1.03-1.14.657-.407 1.485-.407 1.297 0 2.094.89.813.891.813 2.391v.078q0 .922-.36 1.656-.36.735-1.015 1.157-.657.406-1.516.406-1.281 0-2.094-.89-.797-.907-.797-2.391v-.078zm1.094.14q0 1.047.484 1.688.5.64 1.313.64.828 0 1.312-.64.485-.656.485-1.828 0-1.032-.5-1.672-.485-.656-1.313-.656-.797 0-1.297.64-.484.625-.484 1.828zm9.266-2.281q-.25-.031-.532-.031-1.078 0-1.453.906v4.5h-1.078v-6.344h1.047l.016.735q.53-.844 1.515-.844.313 0 .485.078v1zm2.406-2.5v1.531h1.172v.844h-1.172v3.922q0 .39.156.578.156.188.531.188.188 0 .516-.063V107q-.422.125-.828.125-.719 0-1.094-.438-.375-.453-.375-1.265V101.5h-1.156v-.844h1.156v-1.531h1.094zm5.031 4.469q0 1.312-.344 2.515-.343 1.188-1.062 2.204-.703 1.015-1.469 1.437l-.234-.656q.906-.688 1.453-2.14.547-1.47.562-3.235v-.188q0-1.234-.265-2.297-.25-1.062-.719-1.89-.453-.844-1.031-1.313l.234-.656q.766.422 1.469 1.422.703 1 1.047 2.219.36 1.203.36 2.578z"/>
  <path stroke="red" stroke-width="4" stroke-linecap="butt" d="M1254.8 127.5h12"/>
  <path fill="#757575" d="M1282.347 132h-1.125v-3.938h-4.313V132h-1.125v-8.531h1.125v3.672h4.313v-3.672h1.125V132zm2.437 0v-8.531h2.422q1.11 0 1.953.5.86.484 1.328 1.39.47.907.47 2.094v.531q0 1.22-.47 2.125-.453.907-1.328 1.391-.859.484-2 .5h-2.375zm1.125-7.61v6.688h1.188q1.297 0 2.015-.797.735-.812.735-2.312v-.5q0-1.453-.688-2.25-.672-.813-1.937-.828h-1.313zm13.86-.921v.906h-.203q-1.266.031-2.016.766-.75.718-.875 2.03.688-.765 1.844-.765 1.11 0 1.781.781.672.782.672 2.032 0 1.312-.719 2.11-.719.796-1.937.796-1.22 0-1.985-.938-.75-.953-.75-2.437v-.406q0-2.36 1-3.61t2.985-1.265h.203zm-1.422 3.844q-.563 0-1.031.328-.47.328-.657.843v.391q0 1.063.47 1.703.484.64 1.187.64.734 0 1.156-.53.422-.547.422-1.422 0-.875-.422-1.407-.422-.546-1.125-.546zm5.734-.11h.813q.781-.016 1.218-.406.438-.39.438-1.063 0-1.5-1.5-1.5-.703 0-1.125.407-.406.406-.406 1.062h-1.094q0-1.016.734-1.687.75-.672 1.891-.672 1.203 0 1.89.64.688.641.688 1.782 0 .562-.36 1.078-.359.515-.984.781.703.219 1.078.734.391.516.391 1.266 0 1.14-.75 1.828-.75.672-1.953.672-1.188 0-1.953-.656-.75-.656-.75-1.719h1.094q0 .672.437 1.078.438.406 1.188.406.78 0 1.187-.406.422-.422.422-1.187 0-.735-.453-1.125-.453-.407-1.328-.422h-.813v-.89zm10.782 1.156q0 1.907-.657 2.844-.64.922-2.031.922-1.36 0-2.016-.906-.656-.906-.687-2.719v-1.438q0-1.89.64-2.796.657-.922 2.047-.922 1.375 0 2.032.89.656.875.671 2.72v1.405zm-1.094-1.484q0-1.375-.39-2-.376-.64-1.22-.64-.828 0-1.218.64-.375.625-.375 1.922v1.734q0 1.375.39 2.047.407.656 1.219.656.797 0 1.188-.625.39-.625.406-1.953v-1.781zm15.218 2.188q-.078 1.406-.718 2.234-.625.828-1.688.828-1.093 0-1.406-1-.313.5-.719.75-.406.25-.843.25-.829 0-1.266-.688-.422-.687-.313-1.875.094-.968.438-1.718.36-.766.922-1.203.562-.438 1.172-.438.484 0 .859.125t.844.5l-.313 3.25q-.11 1.344.75 1.344.672 0 1.078-.656.407-.657.438-1.703.125-2.282-.844-3.47-.953-1.202-2.906-1.202-1.188 0-2.11.578-.906.578-1.437 1.687-.516 1.094-.578 2.547-.078 1.453.344 2.531.421 1.063 1.28 1.625.876.563 2.095.563.53 0 1.062-.125.531-.125.875-.344l.219.688q-.36.218-.969.359-.594.156-1.203.156-1.469 0-2.531-.656-1.047-.656-1.578-1.906-.516-1.235-.454-2.89.079-1.61.72-2.892.655-1.296 1.765-2 1.125-.703 2.515-.703 1.47 0 2.5.657 1.047.656 1.547 1.906.516 1.234.453 2.89zm-6.015.5q-.078.828.156 1.28.235.438.75.438.36 0 .672-.297.328-.297.547-.859v-.047l.265-2.953q-.328-.172-.703-.172-.672 0-1.125.703-.453.688-.562 1.906zm14.094 2.437h-1.079v-7.219l-2.187.797v-.984l3.11-1.172h.156V132zm3.578-.563q0-.28.156-.468.172-.188.5-.188.344 0 .516.188.171.187.171.469 0 .265-.171.453-.172.172-.516.172-.328 0-.5-.172-.156-.188-.156-.453zm6.422.563h-1.079v-7.219l-2.187.797v-.984l3.11-1.172h.156V132zm13.03-1.125q-.437.625-1.218.938-.781.312-1.812.312-1.032 0-1.844-.484-.813-.5-1.25-1.407-.438-.906-.453-2.093v-.735q0-1.937.89-3 .907-1.062 2.532-1.062 1.343 0 2.156.687.812.688 1 1.938h-1.125q-.328-1.688-2.016-1.688-1.14 0-1.718.797-.579.781-.594 2.297v.688q0 1.437.656 2.296.656.844 1.781.844.625 0 1.094-.14.484-.141.797-.485v-1.906h-1.969v-.922h3.094v3.125zm8.25 1.125h-1.124v-3.938h-4.313V132h-1.125v-8.531h1.125v3.672h4.313v-3.672h1.125V132zm3.298-.89h3.703v.89h-5.031v-.797l3.5-4.64h-3.454v-.907h4.813v.766l-3.531 4.687zm7.937-2.579q0-1.312.344-2.531.36-1.219 1.063-2.219.703-1 1.468-1.406l.219.719q-.86.656-1.406 2-.547 1.344-.594 3.015l-.016.5q0 2.266.828 3.922.5 1 1.188 1.563l-.219.656q-.781-.422-1.5-1.453-1.375-1.984-1.375-4.766zm7.032 1.969l2.437-7.031h1.234l-3.172 8.531h-.984l-3.156-8.531h1.219l2.421 7.031zm11.187-7.031v5.797q-.016 1.203-.766 1.984-.75.766-2.03.86l-.313.015q-1.391 0-2.235-.75-.828-.766-.828-2.094v-5.812h1.11v5.781q0 .922.5 1.438.515.515 1.453.515.968 0 1.468-.516.5-.515.5-1.437v-5.781h1.141zm3.125 7.61h4.047V132h-5.188v-8.531h1.141v7.61zm7.031-3.048l-1.047 1.078V132h-1.125v-8.531h1.125v4.219l3.797-4.22h1.36l-3.36 3.766 3.625 4.766h-1.343l-3.032-3.969zm10.547 1.735h-3.578l-.797 2.234h-1.156l3.25-8.531h.984l3.266 8.531h-1.156l-.813-2.234zm-3.234-.922h2.906l-1.453-3.985-1.453 3.985zm13.078 3.156h-1.125l-4.297-6.578V132h-1.14v-8.531h1.14l4.297 6.61v-6.61h1.125V132zm5.484.734h-.922l3.563-9.265h.922l-3.563 9.265zm9.25-5.53h.813q.781-.016 1.218-.407.438-.39.438-1.063 0-1.5-1.5-1.5-.703 0-1.125.407-.406.406-.406 1.062h-1.094q0-1.016.734-1.687.75-.672 1.891-.672 1.203 0 1.89.64.688.641.688 1.782 0 .562-.36 1.078-.359.515-.984.781.703.219 1.078.734.391.516.391 1.266 0 1.14-.75 1.828-.75.672-1.953.672-1.188 0-1.953-.656-.75-.656-.75-1.719h1.094q0 .672.437 1.078.438.406 1.188.406.78 0 1.187-.406.422-.422.422-1.187 0-.735-.453-1.125-.453-.407-1.328-.422h-.813v-.89zm11.016 4.796h-5.594v-.781l2.953-3.281q.657-.75.907-1.204.25-.468.25-.968 0-.672-.407-1.094-.39-.438-1.078-.438-.797 0-1.25.47-.453.452-.453 1.28h-1.078q0-1.187.75-1.906.765-.734 2.031-.734 1.203 0 1.89.625.688.625.688 1.672 0 1.25-1.61 3l-2.28 2.468h4.28V132zm3.781-3.188h-2.86v-.875h2.86v.876zm6.11.094q0 1.453-.672 2.344-.657.875-1.782.875-1.203 0-1.859-.86l-.063.735h-.984v-9h1.078v3.36q.657-.813 1.813-.813t1.812.875q.657.86.657 2.39v.094zm-1.079-.125q0-1.11-.437-1.703-.422-.61-1.219-.61-1.078 0-1.547.985v2.75q.5 1 1.547 1 .781 0 1.219-.61.437-.609.437-1.812zM1466.8 132h-1.078v-6.344h1.078V132zm-1.172-8.016q0-.265.156-.453.172-.187.485-.187.312 0 .468.187.172.188.172.453 0 .25-.172.438-.156.172-.468.172-.313 0-.485-.172-.156-.188-.156-.438zm4.469.141v1.531h1.172v.844h-1.172v3.922q0 .39.156.578.156.188.531.188.188 0 .516-.063V132q-.422.125-.828.125-.719 0-1.094-.438-.375-.453-.375-1.265V126.5h-1.156v-.844h1.156v-1.531h1.094zm5.734 8.61h-.922l3.563-9.266h.922l-3.563 9.265zm14.516-.735h-1.125v-3.938h-4.313V132h-1.125v-8.531h1.125v3.672h4.313v-3.672h1.125V132zm1.984-3.234q0-.922.36-1.672.375-.75 1.03-1.14.657-.407 1.485-.407 1.297 0 2.094.89.813.891.813 2.391v.078q0 .922-.36 1.656-.36.735-1.015 1.157-.657.406-1.516.406-1.281 0-2.094-.89-.797-.907-.797-2.391v-.078zm1.094.14q0 1.047.484 1.688.5.64 1.313.64.828 0 1.312-.64.485-.656.485-1.828 0-1.032-.5-1.672-.485-.656-1.313-.656-.797 0-1.297.64-.484.625-.484 1.828zm7.672-4.781v1.531h1.172v.844h-1.172v3.922q0 .39.156.578.156.188.531.188.188 0 .516-.063V132q-.422.125-.828.125-.719 0-1.094-.438-.375-.453-.375-1.265V126.5h-1.156v-.844h1.156v-1.531h1.094zm5.203 4.078q-1.438-.422-2.11-1.031-.656-.61-.656-1.5 0-1 .797-1.656.813-.672 2.11-.672.875 0 1.562.344.688.343 1.063.937.39.594.39 1.313h-1.14q0-.782-.5-1.22-.485-.437-1.375-.437-.829 0-1.297.375-.469.36-.469 1 0 .531.438.89.453.36 1.515.657 1.063.297 1.656.656.61.36.891.844.297.484.297 1.125 0 1.047-.813 1.672-.812.625-2.156.625-.89 0-1.656-.344-.75-.344-1.172-.922-.406-.593-.406-1.328h1.125q0 .766.578 1.219.578.453 1.531.453.89 0 1.36-.36.468-.374.468-1 0-.624-.437-.968-.438-.344-1.594-.672zm4.031.563q0-.922.36-1.672.375-.75 1.03-1.14.657-.407 1.485-.407 1.297 0 2.094.89.813.891.813 2.391v.078q0 .922-.36 1.656-.36.735-1.015 1.157-.657.406-1.516.406-1.281 0-2.094-.89-.797-.907-.797-2.391v-.078zm1.094.14q0 1.047.484 1.688.5.64 1.313.64.828 0 1.312-.64.485-.656.485-1.828 0-1.032-.5-1.672-.485-.656-1.313-.656-.797 0-1.297.64-.484.625-.484 1.828zm9.266-2.281q-.25-.031-.532-.031-1.078 0-1.453.906v4.5h-1.078v-6.344h1.047l.016.735q.53-.844 1.515-.844.313 0 .485.078v1zm2.406-2.5v1.531h1.172v.844h-1.172v3.922q0 .39.156.578.156.188.531.188.188 0 .516-.063V132q-.422.125-.828.125-.719 0-1.094-.438-.375-.453-.375-1.265V126.5h-1.156v-.844h1.156v-1.531h1.094zm5.031 4.469q0 1.312-.344 2.515-.343 1.188-1.062 2.203-.703 1.016-1.469 1.438l-.234-.656q.906-.688 1.453-2.14.547-1.47.562-3.235v-.188q0-1.234-.265-2.297-.25-1.062-.719-1.89-.453-.844-1.031-1.313l.234-.656q.766.422 1.469 1.422.703 1 1.047 2.219.36 1.203.36 2.578z"/>
  <path stroke="#0f0" stroke-width="4" stroke-linecap="butt" d="M1254.8 152.5h12"/>
  <path fill="#757575" d="M1282.347 157h-1.125v-3.938h-4.313V157h-1.125v-8.531h1.125v3.672h4.313v-3.672h1.125V157zm2.437 0v-8.531h2.422q1.11 0 1.953.5.86.484 1.328 1.39.47.907.47 2.094v.531q0 1.22-.47 2.125-.453.907-1.328 1.391-.859.484-2 .5h-2.375zm1.125-7.61v6.688h1.188q1.297 0 2.015-.797.735-.812.735-2.312v-.5q0-1.453-.688-2.25-.672-.813-1.937-.828h-1.313zm13.86-.921v.906h-.203q-1.266.031-2.016.766-.75.718-.875 2.03.688-.765 1.844-.765 1.11 0 1.781.781.672.782.672 2.032 0 1.312-.719 2.11-.719.796-1.937.796-1.22 0-1.985-.938-.75-.953-.75-2.437v-.406q0-2.36 1-3.61t2.985-1.265h.203zm-1.422 3.844q-.563 0-1.031.328-.47.328-.657.843v.391q0 1.063.47 1.703.484.64 1.187.64.734 0 1.156-.53.422-.547.422-1.422 0-.875-.422-1.407-.422-.547-1.125-.547zm5.734-.11h.813q.781-.016 1.218-.406.438-.39.438-1.063 0-1.5-1.5-1.5-.703 0-1.125.407-.406.406-.406 1.062h-1.094q0-1.016.734-1.687.75-.672 1.891-.672 1.203 0 1.89.64.688.641.688 1.782 0 .562-.36 1.078-.359.515-.984.781.703.219 1.078.734.391.516.391 1.266 0 1.14-.75 1.828-.75.672-1.953.672-1.188 0-1.953-.656-.75-.656-.75-1.719h1.094q0 .672.437 1.078.438.406 1.188.406.78 0 1.187-.406.422-.422.422-1.187 0-.735-.453-1.125-.453-.407-1.328-.422h-.813v-.89zm10.782 1.156q0 1.907-.657 2.844-.64.922-2.031.922-1.36 0-2.016-.906-.656-.906-.687-2.719v-1.438q0-1.89.64-2.796.657-.922 2.047-.922 1.375 0 2.032.89.656.875.671 2.72v1.405zm-1.094-1.484q0-1.375-.39-2-.376-.64-1.22-.64-.828 0-1.218.64-.375.625-.375 1.922v1.734q0 1.375.39 2.047.407.656 1.219.656.797 0 1.188-.625.39-.625.406-1.953v-1.781zm15.218 2.188q-.078 1.406-.718 2.234-.625.828-1.688.828-1.093 0-1.406-1-.313.5-.719.75-.406.25-.843.25-.829 0-1.266-.688-.422-.687-.313-1.875.094-.968.438-1.718.36-.766.922-1.203.562-.438 1.172-.438.484 0 .859.125t.844.5l-.313 3.25q-.11 1.344.75 1.344.672 0 1.078-.656.407-.657.438-1.703.125-2.282-.844-3.47-.953-1.202-2.906-1.202-1.188 0-2.11.578-.906.578-1.437 1.687-.516 1.094-.578 2.547-.078 1.453.344 2.531.421 1.063 1.28 1.625.876.563 2.095.563.53 0 1.062-.125.531-.125.875-.344l.219.688q-.36.218-.969.359-.594.156-1.203.156-1.469 0-2.531-.656-1.047-.656-1.578-1.906-.516-1.235-.454-2.89.079-1.61.72-2.892.655-1.296 1.765-2 1.125-.703 2.515-.703 1.47 0 2.5.657 1.047.656 1.547 1.906.516 1.234.453 2.89zm-6.015.5q-.078.828.156 1.28.235.438.75.438.36 0 .672-.297.328-.297.547-.859v-.047l.265-2.953q-.328-.172-.703-.172-.672 0-1.125.703-.453.688-.562 1.906zm14.094 2.437h-1.079v-7.219l-2.187.797v-.984l3.11-1.172h.156V157zm3.578-.563q0-.28.156-.468.172-.188.5-.188.344 0 .516.188.171.187.171.469 0 .265-.171.453-.172.172-.516.172-.328 0-.5-.172-.156-.188-.156-.453zm6.422.563h-1.079v-7.219l-2.187.797v-.984l3.11-1.172h.156V157zm13.03-1.125q-.437.625-1.218.938-.781.312-1.812.312-1.032 0-1.844-.484-.813-.5-1.25-1.407-.438-.906-.453-2.093v-.735q0-1.937.89-3 .907-1.062 2.532-1.062 1.343 0 2.156.687.812.688 1 1.938h-1.125q-.328-1.688-2.016-1.688-1.14 0-1.718.797-.579.781-.594 2.297v.688q0 1.437.656 2.296.656.844 1.781.844.625 0 1.094-.14.484-.141.797-.485v-1.906h-1.969v-.922h3.094v3.125zm8.25 1.125h-1.124v-3.938h-4.313V157h-1.125v-8.531h1.125v3.672h4.313v-3.672h1.125V157zm3.298-.89h3.703v.89h-5.031v-.797l3.5-4.64h-3.454v-.907h4.813v.766l-3.531 4.687zm7.937-2.579q0-1.312.344-2.531.36-1.219 1.063-2.219.703-1 1.468-1.406l.219.719q-.86.656-1.406 2-.547 1.344-.594 3.015l-.016.5q0 2.266.828 3.922.5 1 1.188 1.563l-.219.656q-.781-.422-1.5-1.453-1.375-1.984-1.375-4.766zm10.766-.515q0 1.25-.422 2.187-.422.922-1.203 1.422-.766.5-1.797.5-1 0-1.781-.5-.782-.5-1.219-1.406-.422-.922-.438-2.14v-.61q0-1.235.422-2.172.438-.938 1.22-1.438.78-.515 1.796-.515t1.797.5q.781.5 1.203 1.437.422.938.422 2.188v.547zm-1.11-.563q0-1.516-.609-2.328-.61-.813-1.703-.813-1.078 0-1.688.813-.609.813-.625 2.25v.64q0 1.47.61 2.313.625.828 1.703.828 1.094 0 1.688-.781.609-.797.624-2.281v-.64zm3.672 1.203V157h-1.125v-8.531h3.157q1.39 0 2.187.719.797.703.797 1.89 0 1.234-.781 1.906-.766.672-2.219.672h-2.016zm0-.922h2.032q.906 0 1.375-.422.484-.421.484-1.218 0-.766-.484-1.219-.47-.469-1.313-.484h-2.094v3.343zm11.703.328h-3.703v3.016h4.297V157h-5.422v-8.531h5.375v.922h-4.25v2.75h3.703v.922zm8.735 3.938h-1.125l-4.297-6.578V157h-1.14v-8.531h1.14l4.297 6.61v-6.61h1.125V157zm8.719-2.703q-.157 1.344-1 2.094-.844.734-2.235.734-1.515 0-2.422-1.078-.906-1.094-.906-2.922v-.813q0-1.187.422-2.093.422-.906 1.203-1.39.781-.485 1.797-.485 1.36 0 2.172.765.828.766.969 2.094h-1.125q-.157-1.016-.641-1.469-.484-.453-1.375-.453-1.078 0-1.688.797-.609.797-.609 2.266v.828q0 1.39.578 2.219.578.812 1.625.812.938 0 1.438-.422.5-.437.672-1.484h1.125zm2.859 1.781h4.047V157h-5.188v-8.531h1.141v7.61zm7.906 1.656h-.922l3.563-9.265h.922l-3.563 9.265zm11.938-9.265v.906h-.203q-1.266.031-2.016.766-.75.718-.875 2.03.688-.765 1.844-.765 1.11 0 1.781.781.672.782.672 2.032 0 1.312-.719 2.11-.719.796-1.937.796-1.22 0-1.985-.938-.75-.953-.75-2.437v-.406q0-2.36 1-3.61t2.985-1.265h.203zm-1.422 3.844q-.563 0-1.031.328-.47.328-.657.843v.391q0 1.063.47 1.703.484.64 1.187.64.734 0 1.156-.53.422-.547.422-1.422 0-.875-.422-1.407-.422-.547-1.125-.547zm8.734 1.828h1.188v.875h-1.188V157h-1.078v-1.984h-3.89v-.641l3.812-5.906h1.156v5.672zm-3.734 0h2.656v-4.188l-.14.234-2.516 3.954zm8.531-.328h-2.86v-.875h2.86v.875zm6.11.093q0 1.453-.672 2.344-.657.875-1.782.875-1.203 0-1.859-.86l-.063.735h-.984v-9h1.078v3.36q.657-.813 1.813-.813t1.812.875q.657.86.657 2.39v.094zm-1.079-.125q0-1.11-.437-1.703-.422-.61-1.219-.61-1.078 0-1.547.985v2.75q.5 1 1.547 1 .781 0 1.219-.61.437-.609.437-1.812zM1465.8 157h-1.078v-6.344h1.078V157zm-1.172-8.016q0-.265.156-.453.172-.187.485-.187.312 0 .468.187.172.188.172.453 0 .25-.172.438-.156.172-.468.172-.313 0-.485-.172-.156-.188-.156-.438zm4.469.141v1.531h1.172v.844h-1.172v3.922q0 .39.156.578.156.188.531.188.188 0 .516-.063V157q-.422.125-.828.125-.719 0-1.094-.438-.375-.453-.375-1.265V151.5h-1.156v-.844h1.156v-1.531h1.094zm5.734 8.61h-.922l3.563-9.266h.922l-3.563 9.265zm14.516-.735h-1.125v-3.938h-4.313V157h-1.125v-8.531h1.125v3.672h4.313v-3.672h1.125V157zm1.984-3.234q0-.922.36-1.672.375-.75 1.03-1.14.657-.407 1.485-.407 1.297 0 2.094.89.813.891.813 2.391v.078q0 .922-.36 1.656-.36.735-1.015 1.157-.657.406-1.516.406-1.281 0-2.094-.89-.797-.907-.797-2.391v-.078zm1.094.14q0 1.047.484 1.688.5.64 1.313.64.828 0 1.312-.64.485-.656.485-1.828 0-1.032-.5-1.672-.485-.656-1.313-.656-.797 0-1.297.64-.484.625-.484 1.828zm7.672-4.781v1.531h1.172v.844h-1.172v3.922q0 .39.156.578.156.188.531.188.188 0 .516-.063V157q-.422.125-.828.125-.719 0-1.094-.438-.375-.453-.375-1.265V151.5h-1.156v-.844h1.156v-1.531h1.094zm5.203 4.078q-1.438-.422-2.11-1.031-.656-.61-.656-1.5 0-1 .797-1.656.813-.672 2.11-.672.875 0 1.562.344.688.343 1.063.937.39.594.39 1.313h-1.14q0-.782-.5-1.22-.485-.437-1.375-.437-.829 0-1.297.375-.469.36-.469 1 0 .531.438.89.453.36 1.515.657 1.063.297 1.656.656.61.36.891.844.297.484.297 1.125 0 1.047-.813 1.672-.812.625-2.156.625-.89 0-1.656-.344-.75-.344-1.172-.922-.406-.593-.406-1.328h1.125q0 .766.578 1.219.578.453 1.531.453.89 0 1.36-.36.468-.374.468-1 0-.624-.437-.968-.438-.344-1.594-.672zm4.031.563q0-.922.36-1.672.375-.75 1.03-1.14.657-.407 1.485-.407 1.297 0 2.094.89.813.891.813 2.391v.078q0 .922-.36 1.656-.36.735-1.015 1.157-.657.406-1.516.406-1.281 0-2.094-.89-.797-.907-.797-2.391v-.078zm1.094.14q0 1.047.484 1.688.5.64 1.313.64.828 0 1.312-.64.485-.656.485-1.828 0-1.032-.5-1.672-.485-.656-1.313-.656-.797 0-1.297.64-.484.625-.484 1.828zm9.266-2.281q-.25-.031-.532-.031-1.078 0-1.453.906v4.5h-1.078v-6.344h1.047l.016.735q.53-.844 1.515-.844.313 0 .485.078v1zm2.406-2.5v1.531h1.172v.844h-1.172v3.922q0 .39.156.578.156.188.531.188.188 0 .516-.063V157q-.422.125-.828.125-.719 0-1.094-.438-.375-.453-.375-1.265V151.5h-1.156v-.844h1.156v-1.531h1.094zm5.031 4.469q0 1.312-.344 2.515-.343 1.188-1.062 2.203-.703 1.016-1.469 1.438l-.234-.656q.906-.688 1.453-2.14.547-1.47.562-3.235v-.188q0-1.234-.265-2.297-.25-1.062-.719-1.89-.453-.844-1.031-1.313l.234-.656q.766.422 1.469 1.422.703 1 1.047 2.219.36 1.203.36 2.578z"/>
  <path stroke="#00f" stroke-width="4" stroke-linecap="butt" d="M1254.8 177.5h12"/>
  <path fill="#757575" d="M1282.347 182h-1.125v-3.938h-4.313V182h-1.125v-8.531h1.125v3.672h4.313v-3.672h1.125V182zm2.437 0v-8.531h2.422q1.11 0 1.953.5.86.484 1.328 1.39.47.907.47 2.094v.531q0 1.22-.47 2.125-.453.907-1.328 1.391-.859.484-2 .5h-2.375zm1.125-7.61v6.688h1.188q1.297 0 2.015-.797.735-.812.735-2.312v-.5q0-1.453-.688-2.25-.672-.813-1.937-.828h-1.313zm13.86-.921v.906h-.203q-1.266.031-2.016.766-.75.718-.875 2.03.688-.765 1.844-.765 1.11 0 1.781.781.672.782.672 2.032 0 1.312-.719 2.11-.719.796-1.937.796-1.22 0-1.985-.938-.75-.953-.75-2.437v-.406q0-2.36 1-3.61t2.985-1.265h.203zm-1.422 3.844q-.563 0-1.031.328-.47.328-.657.843v.391q0 1.063.47 1.703.484.64 1.187.64.734 0 1.156-.53.422-.547.422-1.422 0-.875-.422-1.407-.422-.547-1.125-.547zm5.734-.11h.813q.781-.016 1.218-.406.438-.39.438-1.063 0-1.5-1.5-1.5-.703 0-1.125.407-.406.406-.406 1.062h-1.094q0-1.016.734-1.687.75-.672 1.891-.672 1.203 0 1.89.64.688.641.688 1.782 0 .562-.36 1.078-.359.515-.984.781.703.219 1.078.734.391.516.391 1.266 0 1.14-.75 1.828-.75.672-1.953.672-1.188 0-1.953-.656-.75-.656-.75-1.719h1.094q0 .672.437 1.078.438.406 1.188.406.78 0 1.187-.406.422-.422.422-1.187 0-.735-.453-1.125-.453-.407-1.328-.422h-.813v-.89zm10.782 1.156q0 1.907-.657 2.844-.64.922-2.031.922-1.36 0-2.016-.906-.656-.906-.687-2.719v-1.438q0-1.89.64-2.796.657-.922 2.047-.922 1.375 0 2.032.89.656.875.671 2.72v1.405zm-1.094-1.484q0-1.375-.39-2-.376-.64-1.22-.64-.828 0-1.218.64-.375.625-.375 1.922v1.734q0 1.375.39 2.047.407.656 1.219.656.797 0 1.188-.625.39-.625.406-1.953v-1.781zm15.218 2.188q-.078 1.406-.718 2.234-.625.828-1.688.828-1.093 0-1.406-1-.313.5-.719.75-.406.25-.843.25-.829 0-1.266-.688-.422-.687-.313-1.875.094-.968.438-1.718.36-.766.922-1.203.562-.438 1.172-.438.484 0 .859.125t.844.5l-.313 3.25q-.11 1.344.75 1.344.672 0 1.078-.656.407-.657.438-1.703.125-2.282-.844-3.47-.953-1.202-2.906-1.202-1.188 0-2.11.578-.906.578-1.437 1.687-.516 1.094-.578 2.547-.078 1.453.344 2.531.421 1.063 1.28 1.625.876.563 2.095.563.53 0 1.062-.125.531-.125.875-.344l.219.688q-.36.218-.969.359-.594.156-1.203.156-1.469 0-2.531-.656-1.047-.656-1.578-1.906-.516-1.235-.454-2.89.079-1.61.72-2.892.655-1.296 1.765-2 1.125-.703 2.515-.703 1.47 0 2.5.657 1.047.656 1.547 1.906.516 1.234.453 2.89zm-6.015.5q-.078.828.156 1.28.235.438.75.438.36 0 .672-.297.328-.297.547-.859v-.047l.265-2.953q-.328-.172-.703-.172-.672 0-1.125.703-.453.688-.562 1.906zm14.094 2.437h-1.079v-7.219l-2.187.797v-.984l3.11-1.172h.156V182zm3.578-.563q0-.28.156-.468.172-.188.5-.188.344 0 .516.188.171.187.171.469 0 .265-.171.453-.172.172-.516.172-.328 0-.5-.172-.156-.188-.156-.453zm6.422.563h-1.079v-7.219l-2.187.797v-.984l3.11-1.172h.156V182zm13.03-1.125q-.437.625-1.218.938-.781.312-1.812.312-1.032 0-1.844-.484-.813-.5-1.25-1.407-.438-.906-.453-2.093v-.735q0-1.937.89-3 .907-1.062 2.532-1.062 1.343 0 2.156.687.812.688 1 1.938h-1.125q-.328-1.688-2.016-1.688-1.14 0-1.718.797-.579.781-.594 2.297v.688q0 1.437.656 2.296.656.844 1.781.844.625 0 1.094-.14.484-.141.797-.485v-1.906h-1.969v-.922h3.094v3.125zm8.25 1.125h-1.124v-3.938h-4.313V182h-1.125v-8.531h1.125v3.672h4.313v-3.672h1.125V182zm3.298-.89h3.703v.89h-5.031v-.797l3.5-4.64h-3.454v-.907h4.813v.766l-3.531 4.687zm7.937-2.579q0-1.312.344-2.531.36-1.219 1.063-2.219.703-1 1.468-1.406l.219.719q-.86.656-1.406 2-.547 1.344-.594 3.015l-.016.5q0 2.266.828 3.922.5 1 1.188 1.563l-.219.656q-.781-.422-1.5-1.453-1.375-1.984-1.375-4.766zm10.766-.515q0 1.25-.422 2.187-.422.922-1.203 1.422-.766.5-1.797.5-1 0-1.781-.5-.782-.5-1.219-1.406-.422-.922-.438-2.14v-.61q0-1.235.422-2.172.438-.938 1.22-1.438.78-.515 1.796-.515t1.797.5q.781.5 1.203 1.437.422.938.422 2.188v.547zm-1.11-.563q0-1.516-.609-2.328-.61-.813-1.703-.813-1.078 0-1.688.813-.609.813-.625 2.25v.64q0 1.47.61 2.313.625.828 1.703.828 1.094 0 1.688-.781.609-.797.624-2.281v-.64zm3.672 1.203V182h-1.125v-8.531h3.157q1.39 0 2.187.719.797.703.797 1.89 0 1.234-.781 1.906-.766.672-2.219.672h-2.016zm0-.922h2.032q.906 0 1.375-.422.484-.421.484-1.218 0-.766-.484-1.219-.47-.469-1.313-.484h-2.094v3.343zm11.703.328h-3.703v3.016h4.297V182h-5.422v-8.531h5.375v.922h-4.25v2.75h3.703v.922zm8.735 3.938h-1.125l-4.297-6.578V182h-1.14v-8.531h1.14l4.297 6.61v-6.61h1.125V182zm8.719-2.703q-.157 1.344-1 2.094-.844.734-2.235.734-1.515 0-2.422-1.078-.906-1.094-.906-2.922v-.813q0-1.187.422-2.093.422-.906 1.203-1.39.781-.485 1.797-.485 1.36 0 2.172.765.828.766.969 2.094h-1.125q-.157-1.016-.641-1.469-.484-.453-1.375-.453-1.078 0-1.688.797-.609.797-.609 2.266v.828q0 1.39.578 2.219.578.812 1.625.812.938 0 1.438-.422.5-.437.672-1.484h1.125zm2.859 1.781h4.047V182h-5.188v-8.531h1.141v7.61zm7.906 1.656h-.922l3.563-9.265h.922l-3.563 9.265zm9.25-5.53h.813q.781-.017 1.218-.407.438-.39.438-1.063 0-1.5-1.5-1.5-.703 0-1.125.407-.406.406-.406 1.062h-1.094q0-1.016.734-1.687.75-.672 1.891-.672 1.203 0 1.89.64.688.641.688 1.782 0 .562-.36 1.078-.359.515-.984.781.703.219 1.078.734.391.516.391 1.266 0 1.14-.75 1.828-.75.672-1.953.672-1.188 0-1.953-.656-.75-.656-.75-1.719h1.094q0 .672.437 1.078.438.406 1.188.406.78 0 1.187-.406.422-.422.422-1.187 0-.735-.453-1.125-.453-.407-1.328-.422h-.813v-.89zm11.016 4.796h-5.594v-.781l2.953-3.281q.657-.75.907-1.204.25-.468.25-.968 0-.672-.407-1.094-.39-.438-1.078-.438-.797 0-1.25.47-.453.452-.453 1.28h-1.078q0-1.187.75-1.906.765-.734 2.031-.734 1.203 0 1.89.625.688.625.688 1.672 0 1.25-1.61 3l-2.28 2.468h4.28V182zm3.781-3.188h-2.86v-.875h2.86v.875zm6.11.094q0 1.453-.672 2.344-.657.875-1.782.875-1.203 0-1.859-.86l-.063.735h-.984v-9h1.078v3.36q.657-.813 1.813-.813t1.812.875q.657.86.657 2.39v.094zm-1.079-.125q0-1.11-.437-1.703-.422-.61-1.219-.61-1.078 0-1.547.985v2.75q.5 1 1.547 1 .781 0 1.219-.61.437-.609.437-1.812zM1465.8 182h-1.078v-6.344h1.078V182zm-1.172-8.016q0-.265.156-.453.172-.187.485-.187.312 0 .468.187.172.188.172.453 0 .25-.172.438-.156.172-.468.172-.313 0-.485-.172-.156-.188-.156-.438zm4.469.141v1.531h1.172v.844h-1.172v3.922q0 .39.156.578.156.188.531.188.188 0 .516-.063V182q-.422.125-.828.125-.719 0-1.094-.438-.375-.453-.375-1.265V176.5h-1.156v-.844h1.156v-1.531h1.094zm5.734 8.61h-.922l3.563-9.266h.922l-3.563 9.265zm14.516-.735h-1.125v-3.938h-4.313V182h-1.125v-8.531h1.125v3.672h4.313v-3.672h1.125V182zm1.984-3.234q0-.922.36-1.672.375-.75 1.03-1.14.657-.407 1.485-.407 1.297 0 2.094.89.813.891.813 2.391v.078q0 .922-.36 1.656-.36.735-1.015 1.157-.657.406-1.516.406-1.281 0-2.094-.89-.797-.907-.797-2.391v-.078zm1.094.14q0 1.047.484 1.688.5.64 1.313.64.828 0 1.312-.64.485-.656.485-1.828 0-1.032-.5-1.672-.485-.656-1.313-.656-.797 0-1.297.64-.484.625-.484 1.828zm7.672-4.781v1.531h1.172v.844h-1.172v3.922q0 .39.156.578.156.188.531.188.188 0 .516-.063V182q-.422.125-.828.125-.719 0-1.094-.438-.375-.453-.375-1.265V176.5h-1.156v-.844h1.156v-1.531h1.094zm5.203 4.078q-1.438-.422-2.11-1.031-.656-.61-.656-1.5 0-1 .797-1.656.813-.672 2.11-.672.875 0 1.562.344.688.343 1.063.937.39.594.39 1.313h-1.14q0-.782-.5-1.22-.485-.437-1.375-.437-.829 0-1.297.375-.469.36-.469 1 0 .531.438.89.453.36 1.515.657 1.063.297 1.656.656.61.36.891.844.297.484.297 1.125 0 1.047-.813 1.672-.812.625-2.156.625-.89 0-1.656-.344-.75-.344-1.172-.922-.406-.593-.406-1.328h1.125q0 .766.578 1.219.578.453 1.531.453.89 0 1.36-.36.468-.374.468-1 0-.624-.437-.968-.438-.344-1.594-.672zm4.031.563q0-.922.36-1.672.375-.75 1.03-1.14.657-.407 1.485-.407 1.297 0 2.094.89.813.891.813 2.391v.078q0 .922-.36 1.656-.36.735-1.015 1.157-.657.406-1.516.406-1.281 0-2.094-.89-.797-.907-.797-2.391v-.078zm1.094.14q0 1.047.484 1.688.5.64 1.313.64.828 0 1.312-.64.485-.656.485-1.828 0-1.032-.5-1.672-.485-.656-1.313-.656-.797 0-1.297.64-.484.625-.484 1.828zm9.266-2.281q-.25-.031-.532-.031-1.078 0-1.453.906v4.5h-1.078v-6.344h1.047l.016.735q.53-.844 1.515-.844.313 0 .485.078v1zm2.406-2.5v1.531h1.172v.844h-1.172v3.922q0 .39.156.578.156.188.531.188.188 0 .516-.063V182q-.422.125-.828.125-.719 0-1.094-.438-.375-.453-.375-1.265V176.5h-1.156v-.844h1.156v-1.531h1.094zm5.031 4.469q0 1.312-.344 2.515-.343 1.188-1.062 2.203-.703 1.016-1.469 1.438l-.234-.656q.906-.688 1.453-2.14.547-1.47.562-3.235v-.188q0-1.234-.265-2.297-.25-1.062-.719-1.89-.453-.844-1.031-1.313l.234-.656q.766.422 1.469 1.422.703 1 1.047 2.219.36 1.203.36 2.578z"/>
  <path fill="#000" d="M53.84 65.2h-3.39V53.372H37.544V65.2h-3.375V39.606h3.375v11H50.45v-11h3.39V65.2zm4.954-9.688q0-2.796 1.094-5.03 1.109-2.235 3.062-3.438 1.969-1.219 4.484-1.219 3.875 0 6.282 2.687 2.406 2.688 2.406 7.157v.234q0 2.781-1.078 4.984-1.063 2.204-3.047 3.438-1.969 1.234-4.531 1.234-3.86 0-6.266-2.687-2.406-2.703-2.406-7.125v-.235zm3.281.391q0 3.156 1.469 5.078 1.469 1.922 3.922 1.922 2.484 0 3.937-1.937 1.453-1.954 1.453-5.454 0-3.125-1.484-5.062-1.484-1.953-3.938-1.953-2.406 0-3.89 1.922-1.469 1.906-1.469 5.484zm23-14.328v4.61h3.547V48.7h-3.547v11.781q0 1.156.469 1.735.484.562 1.625.562.562 0 1.547-.219V65.2q-1.282.36-2.5.36-2.172 0-3.282-1.313-1.109-1.328-1.109-3.766V48.7h-3.469v-2.516h3.469v-4.609h3.25zm15.64 12.219q-4.343-1.25-6.328-3.063-1.968-1.828-1.968-4.5 0-3.015 2.406-5 2.422-1.984 6.297-1.984 2.625 0 4.687 1.031 2.079 1.016 3.204 2.813 1.14 1.78 1.14 3.921h-3.39q0-2.328-1.485-3.656-1.469-1.328-4.156-1.328-2.5 0-3.906 1.11-1.391 1.093-1.391 3.046 0 1.563 1.328 2.641t4.516 1.984q3.187.891 4.984 1.97 1.813 1.077 2.672 2.53.875 1.438.875 3.391 0 3.11-2.422 4.984-2.422 1.875-6.484 1.875-2.64 0-4.922-1.015-2.281-1.016-3.531-2.766-1.235-1.766-1.235-4h3.39q0 2.328 1.72 3.672 1.718 1.344 4.578 1.344 2.672 0 4.094-1.094 1.421-1.094 1.421-2.969 0-1.875-1.328-2.906-1.312-1.031-4.765-2.031zm12.079 1.718q0-2.796 1.094-5.03 1.109-2.235 3.062-3.438 1.969-1.219 4.484-1.219 3.875 0 6.282 2.687 2.406 2.688 2.406 7.157v.234q0 2.781-1.078 4.984-1.063 2.204-3.047 3.438-1.969 1.234-4.531 1.234-3.86 0-6.266-2.687-2.406-2.703-2.406-7.125v-.235zm3.281.391q0 3.156 1.469 5.078 1.469 1.922 3.922 1.922 2.484 0 3.937-1.937 1.453-1.954 1.453-5.454 0-3.125-1.484-5.062-1.484-1.953-3.938-1.953-2.406 0-3.89 1.922-1.469 1.906-1.469 5.484zm27.781-6.812q-.734-.11-1.594-.11-3.203 0-4.343 2.719v13.5h-3.25V46.184h3.156l.047 2.188q1.61-2.547 4.547-2.547.937 0 1.437.25v3.016zm7.219-7.516v4.61h3.547V48.7h-3.547v11.781q0 1.156.469 1.735.484.562 1.625.562.562 0 1.547-.219V65.2q-1.282.36-2.5.36-2.172 0-3.282-1.313-1.109-1.328-1.109-3.766V48.7h-3.469v-2.516h3.469v-4.609h3.25zm34.781.812h-8.234V65.2h-3.344V42.387h-8.219v-2.78h19.797v2.78zm6.063 6.094q2.156-2.656 5.625-2.656 6.031 0 6.078 6.812V65.2h-3.25V52.606q-.016-2.047-.938-3.031-.922-.984-2.875-.984-1.593 0-2.797.843-1.187.844-1.843 2.22V65.2h-3.25v-27h3.25v10.281zm25.937.61q-.734-.11-1.594-.11-3.203 0-4.343 2.719v13.5h-3.25V46.184h3.156l.047 2.188q1.61-2.547 4.547-2.547.937 0 1.437.25v3.016zm1.938 6.421q0-2.796 1.093-5.03 1.11-2.235 3.063-3.438 1.969-1.219 4.484-1.219 3.875 0 6.282 2.687 2.406 2.688 2.406 7.157v.234q0 2.781-1.078 4.984-1.063 2.204-3.047 3.438-1.969 1.234-4.531 1.234-3.86 0-6.266-2.687-2.406-2.703-2.406-7.125v-.235zm3.281.391q0 3.156 1.469 5.078 1.468 1.922 3.922 1.922 2.484 0 3.937-1.937 1.453-1.954 1.453-5.454 0-3.125-1.484-5.062-1.485-1.953-3.938-1.953-2.406 0-3.89 1.922-1.469 1.906-1.469 5.484zm30.328 7.422q-1.89 2.234-5.578 2.234-3.031 0-4.625-1.765-1.594-1.782-1.61-5.235V46.184h3.25v12.282q0 4.328 3.516 4.328 3.735 0 4.953-2.782V46.184h3.266V65.2h-3.094l-.078-1.875zm7.484-7.797q0-4.437 2.047-7.062 2.063-2.641 5.453-2.641 3.485 0 5.438 2.469l.156-2.11h2.969v18.563q0 3.687-2.188 5.812-2.187 2.125-5.875 2.125-2.062 0-4.03-.875-1.97-.875-3-2.406l1.687-1.953q2.094 2.578 5.11 2.578 2.374 0 3.702-1.344 1.328-1.328 1.328-3.75v-1.64q-1.953 2.265-5.328 2.265-3.344 0-5.406-2.687-2.063-2.703-2.063-7.344zm3.266.375q0 3.219 1.313 5.063 1.328 1.828 3.703 1.828 3.078 0 4.515-2.797v-8.688q-1.5-2.718-4.484-2.718-2.375 0-3.719 1.843-1.328 1.844-1.328 5.47zm20.766-7.422q2.156-2.656 5.625-2.656 6.031 0 6.078 6.812V65.2h-3.25V52.606q-.016-2.047-.938-3.031-.922-.984-2.875-.984-1.593 0-2.797.843-1.187.844-1.843 2.22V65.2h-3.25v-27h3.25v10.281zm32.812 7.422q0 4.344-1.984 7-1.985 2.656-5.39 2.656-3.454 0-5.438-2.203v9.157h-3.25V46.184h2.969l.156 2.11q1.984-2.469 5.515-2.469 3.422 0 5.422 2.594 2 2.578 2 7.187v.297zm-3.25-.375q0-3.219-1.375-5.078-1.375-1.86-3.765-1.86-2.954 0-4.422 2.61v9.094q1.453 2.61 4.453 2.61 2.344 0 3.719-1.86 1.39-1.86 1.39-5.516zm18.922 7.797q-1.89 2.234-5.578 2.234-3.031 0-4.625-1.765-1.594-1.782-1.61-5.235V46.184h3.25v12.282q0 4.328 3.516 4.328 3.735 0 4.953-2.782V46.184h3.266V65.2h-3.094l-.078-1.875zm12.672-21.75v4.61h3.547V48.7h-3.547v11.781q0 1.156.469 1.735.484.562 1.625.562.562 0 1.547-.219V65.2q-1.282.36-2.5.36-2.172 0-3.282-1.313-1.109-1.328-1.109-3.766V48.7h-3.469v-2.516h3.469v-4.609h3.25zm23.36 14.078h-8.579v-2.656h8.578v2.656zm16.359 9.547h-3.375V39.606h3.375V65.2zm26.047 0h-3.391l-12.89-19.719V65.2h-3.391V39.606h3.39l12.922 19.813V39.606h3.36V65.2zm24.015-22.813h-8.234V65.2h-3.344V42.387h-8.219v-2.78h19.797v2.78zm17.781 10.985h-11.093v9.062h12.89V65.2H439.17V39.606h16.094v2.781h-12.72v8.22h11.094v2.765zm8.922 9.062H474.7V65.2h-15.531V39.606h3.39v22.828zm43.516-.593q-1.313 1.859-3.64 2.797-2.329.921-5.423.921-3.125 0-5.562-1.468-2.422-1.47-3.75-4.172-1.313-2.719-1.36-6.282v-2.234q0-5.781 2.704-8.969 2.703-3.187 7.578-3.187 4.015 0 6.453 2.062 2.453 2.047 3 5.797H502.7q-.953-5.078-6.047-5.078-3.406 0-5.156 2.39-1.735 2.376-1.766 6.891v2.094q0 4.313 1.969 6.86 1.969 2.53 5.328 2.53 1.906 0 3.328-.421 1.422-.422 2.36-1.422V55.2h-5.922v-2.75h9.281v9.39zm20.563-8.47h-11.094v9.063h12.89V65.2H512.17V39.606h16.094v2.781h-12.72v8.22h11.095v2.765zM551.84 65.2h-3.391l-12.89-19.719V65.2h-3.391V39.606h3.39l12.922 19.813V39.606h3.36V65.2zm17.953-11.25q-1.016 1.219-2.438 1.953-1.422.734-3.11.734-2.202 0-3.858-1.078-1.641-1.093-2.532-3.078-.89-1.984-.89-4.375 0-2.562.968-4.61.97-2.062 2.766-3.155 1.797-1.094 4.188-1.094 3.796 0 5.984 2.844 2.187 2.843 2.187 7.75v.937q0 7.484-2.953 10.922-2.953 3.422-8.906 3.516h-.64V62.48h.687q4.031-.078 6.187-2.11 2.157-2.03 2.36-6.421zm-5.016 0q1.64 0 3.016-1 1.375-1 2.015-2.484v-1.297q0-3.203-1.39-5.203-1.39-2-3.516-2-2.14 0-3.453 1.64-1.297 1.64-1.297 4.328 0 2.625 1.25 4.328 1.266 1.688 3.375 1.688zm28.656 1.703h-8.578v-2.656h8.578v2.656zm16.625-4.828h2.438q2.312-.047 3.625-1.219 1.312-1.172 1.312-3.187 0-4.5-4.484-4.5-2.11 0-3.36 1.218-1.25 1.204-1.25 3.188h-3.265q0-3.047 2.219-5.063 2.234-2.015 5.656-2.015 3.625 0 5.672 1.922 2.062 1.922 2.062 5.328 0 1.672-1.078 3.234-1.078 1.563-2.937 2.344 2.11.656 3.25 2.203 1.156 1.547 1.156 3.781 0 3.453-2.25 5.485-2.25 2.015-5.86 2.015-3.593 0-5.859-1.953-2.25-1.953-2.25-5.156h3.266q0 2.016 1.312 3.234 1.329 1.22 3.547 1.22 2.344 0 3.594-1.235t1.25-3.532q0-2.234-1.375-3.421-1.36-1.204-3.953-1.235h-2.438v-2.656zM642.091 65.2h-16.766v-2.344l8.86-9.844q1.968-2.234 2.718-3.625.75-1.39.75-2.89 0-2-1.219-3.281-1.203-1.297-3.234-1.297-2.422 0-3.766 1.39-1.343 1.375-1.343 3.844h-3.25q0-3.547 2.265-5.719 2.282-2.187 6.094-2.187 3.578 0 5.64 1.875 2.079 1.875 2.079 4.984 0 3.781-4.813 9l-6.86 7.438h12.845V65.2zm10.343-9.547h-8.578v-2.656h8.578v2.656zm19.329.25q0 4.36-2 7.016-2 2.64-5.375 2.64-3.61 0-5.579-2.562l-.156 2.203h-2.984v-27h3.25v10.078q1.969-2.453 5.422-2.453 3.468 0 5.437 2.625 1.985 2.61 1.985 7.172v.281zm-3.25-.375q0-3.312-1.282-5.125-1.281-1.812-3.687-1.812-3.219 0-4.625 2.984v8.234q1.484 2.985 4.656 2.985 2.328 0 3.625-1.813 1.313-1.812 1.313-5.453zM679.2 65.2h-3.25V46.184h3.25V65.2zm-3.516-24.063q0-.796.485-1.343.484-.547 1.422-.547.953 0 1.437.547.5.547.5 1.343 0 .782-.5 1.313-.484.531-1.437.531-.938 0-1.422-.531-.485-.531-.485-1.313zm13.391.438v4.61h3.547V48.7h-3.547v11.781q0 1.156.469 1.735.484.562 1.625.562.562 0 1.547-.219V65.2q-1.282.36-2.5.36-2.172 0-3.282-1.313-1.109-1.328-1.109-3.766V48.7h-3.469v-2.516h3.469v-4.609h3.25zm15.906 16.75q0-1.844 1.016-3.39 1.031-1.548 3.937-3.61-1.703-2.063-2.28-3.328-.579-1.266-.579-2.516 0-2.922 1.719-4.578 1.719-1.656 4.672-1.656 2.64 0 4.359 1.547 1.719 1.531 1.719 3.875 0 1.547-.781 2.86-.782 1.312-2.735 2.75l-1.875 1.39 5.688 6.797q1.203-2.282 1.203-5.079h2.937q0 4.485-2.172 7.438l3.657 4.375h-3.891l-1.703-2.016q-1.313 1.157-3.063 1.766-1.75.61-3.546.61-3.75 0-6.016-1.985-2.266-2-2.266-5.25zm8.282 4.578q2.578 0 4.718-1.969l-6.234-7.484-.578.422q-2.938 2.172-2.938 4.453 0 2.078 1.344 3.328t3.688 1.25zm-2.938-17.531q0 1.687 2.063 4.219l2.078-1.454q1.203-.843 1.64-1.609.438-.766.438-1.86 0-1.171-.89-1.952-.876-.797-2.204-.797-1.438 0-2.281.984-.844.969-.844 2.469zm38.766-5.781v2.75h-.594q-3.797.078-6.047 2.265-2.25 2.172-2.61 6.125 2.032-2.312 5.516-2.312 3.344 0 5.344 2.36 2 2.343 2 6.077 0 3.953-2.156 6.328-2.156 2.375-5.781 2.375-3.672 0-5.954-2.828-2.28-2.828-2.28-7.265v-1.25q0-7.063 3-10.797 3.015-3.75 8.984-3.828h.578zm-4.266 11.53q-1.672 0-3.078 1t-1.953 2.516v1.188q0 3.172 1.422 5.11 1.422 1.921 3.547 1.921 2.203 0 3.453-1.61 1.265-1.624 1.265-4.234 0-2.64-1.281-4.265-1.266-1.625-3.375-1.625zm25.234 5.485h3.547v2.656h-3.547V65.2h-3.265v-5.938h-11.656v-1.921l11.453-17.735h3.468v17zm-11.234 0h7.969V44.06l-.39.703-7.579 11.844zm24.61-.953h-8.579v-2.656h8.578v2.656zm19.328.25q0 4.36-2 7.016-2 2.64-5.375 2.64-3.61 0-5.579-2.562l-.156 2.203h-2.984v-27h3.25v10.078q1.969-2.453 5.422-2.453 3.468 0 5.437 2.625 1.985 2.61 1.985 7.172v.281zm-3.25-.375q0-3.312-1.282-5.125-1.281-1.812-3.687-1.812-3.219 0-4.625 2.984v8.234q1.484 2.985 4.656 2.985 2.328 0 3.625-1.813 1.313-1.812 1.313-5.453zM810.2 65.2h-3.25V46.184h3.25V65.2zm-3.516-24.063q0-.796.485-1.343.484-.547 1.422-.547.953 0 1.437.547.5.547.5 1.343 0 .782-.5 1.313-.484.531-1.437.531-.938 0-1.422-.531-.485-.531-.485-1.313zm13.391.438v4.61h3.547V48.7h-3.547v11.781q0 1.156.469 1.735.484.562 1.625.562.562 0 1.547-.219V65.2q-1.282.36-2.5.36-2.172 0-3.282-1.313-1.109-1.328-1.109-3.766V48.7h-3.469v-2.516h3.469v-4.609h3.25zm23.594 11.719l-3.125 3.25V65.2h-3.375V39.606h3.375v12.656l11.375-12.656h4.078l-10.078 11.297L856.794 65.2h-4.047l-9.078-11.906zm23.89 12.265q-3.875 0-6.296-2.547-2.422-2.546-2.422-6.796v-.594q0-2.828 1.078-5.047 1.078-2.234 3.015-3.484 1.954-1.266 4.22-1.266 3.702 0 5.75 2.453 2.062 2.438 2.062 6.984v1.36H862.09q.062 2.812 1.64 4.547 1.578 1.734 4 1.734 1.719 0 2.907-.703 1.203-.703 2.109-1.875l1.984 1.547q-2.39 3.687-7.172 3.687zm-.406-17.062q-1.969 0-3.312 1.437-1.328 1.438-1.641 4.016h9.516v-.25q-.141-2.469-1.344-3.828-1.188-1.375-3.219-1.375zm17.735 11.937l4.421-14.25h3.485l-7.64 21.954q-1.782 4.75-5.641 4.75l-.625-.063-1.204-.219v-2.64l.875.062q1.657 0 2.579-.672.921-.656 1.515-2.437l.719-1.938-6.781-18.797h3.547l4.75 14.25zm21.843-.28q0-1.313-1-2.048-.984-.734-3.453-1.25-2.469-.531-3.922-1.265-1.453-.75-2.14-1.766-.688-1.016-.688-2.422 0-2.344 1.969-3.953 1.984-1.625 5.062-1.625 3.235 0 5.235 1.672 2.015 1.672 2.015 4.265h-3.265q0-1.328-1.14-2.296-1.126-.97-2.845-.97-1.78 0-2.78.782-1 .766-1 2.016 0 1.172.921 1.781.938.594 3.375 1.14 2.438.547 3.938 1.297 1.515.75 2.234 1.829.734 1.062.734 2.578 0 2.562-2.047 4.11-2.03 1.53-5.28 1.53-2.282 0-4.048-.812-1.75-.813-2.75-2.266-.984-1.453-.984-3.14h3.25q.094 1.64 1.312 2.609 1.22.953 3.22.953 1.843 0 2.952-.75 1.125-.75 1.125-2z"/>
</svg>
