<svg fill="none" stroke-linecap="square" stroke-miterlimit="10" width="1560" height="624" xmlns="http://www.w3.org/2000/svg">
  <path fill="#fff" d="M0 0h1560v624H0V0z"/>
  <path fill="#fff" d="M0 0h1560v624H0V0z"/>
  <path stroke="#ccc" stroke-linecap="butt" d="M318.5 102.5v404M531.5 102.5v404M744.5 102.5v404M957.5 102.5v404M1169.5 102.5v404"/>
  <path stroke="#333" stroke-linecap="butt" d="M123.5 506.5h1098"/>
  <path stroke="#ccc" stroke-linecap="butt" d="M123.5 425.5h1098M123.5 345.5h1098M123.5 264.5h1098M123.5 183.5h1098M123.5 102.5h1098"/>
  <clipPath id="a">
    <path d="M123.2 102.5h1098.413v404.3H123.2V102.5z"/>
  </clipPath>
  <path stroke="#f0f" stroke-width="2" stroke-linecap="butt" clip-path="url(#a)" d="M123.2 494.994s5.812-2.088 8.718-3.153c2.905-1.065 5.811-2.628 8.717-3.235 2.906-.606 5.812.162 8.718-.404 2.906-.566 5.811-2.426 8.717-2.992 2.906-.566 5.812.162 8.718-.404 2.906-.566 5.812-2.924 8.717-2.992 2.906-.067 5.812 2.71 8.718 2.588 2.906-.121 5.812-1.9 8.718-3.315 2.905-1.416 5.811-3.599 8.717-5.176 2.906-1.576 5.812-3.854 8.718-4.285 2.906-.431 5.811 2.318 8.717 1.698 2.906-.62 5.812-4.61 8.718-5.418 2.906-.808 5.811.917 8.717.566 2.906-.35 5.812-2.641 8.718-2.668 2.906-.027 5.812 2.844 8.717 2.507 2.906-.337 5.812-3.72 8.718-4.529 2.906-.808 5.812 1.011 8.718-.323 2.905-1.334 5.811-6.725 8.717-7.682 2.906-.957 5.812 2.291 8.718 1.941 2.906-.35 5.811-3.032 8.717-4.043 2.906-1.01 5.812-1.644 8.718-2.022 2.906-.377 5.812-.539 8.717-.242 2.906.296 5.812 3.383 8.718 2.021 2.906-1.36 5.812-8.288 8.718-10.188 2.905-1.9 5.811-.66 8.717-1.213 2.906-.552 5.812-1.401 8.718-2.102 2.906-.701 5.811-1.483 8.717-2.103 2.906-.62 5.812-1.266 8.718-1.617 2.906-.35 5.812-.013 8.717-.485 2.906-.472 5.812-2.13 8.718-2.345 2.906-.216 5.812 2.52 8.718 1.051 2.905-1.469 5.811-8.005 8.717-9.865 2.906-1.86 5.812-.417 8.718-1.293 2.906-.876 5.811-3.612 8.717-3.963 2.906-.35 5.812 2.79 8.718 1.86 2.906-.93 5.812-6.105 8.717-7.439 2.906-1.334 5.812-.35 8.718-.566 2.906-.215 5.812-.674 8.717-.728 2.906-.054 5.812 1.874 8.718.405 2.906-1.47 5.812-7.628 8.718-9.218 2.905-1.59 5.811.35 8.717-.324 2.906-.674 5.812-3.248 8.718-3.72 2.906-.471 5.811.944 8.717.89 2.906-.054 5.812-.62 8.718-1.213 2.906-.593 5.812-1.806 8.717-2.345 2.906-.539 5.812-1.05 8.718-.89 2.906.163 5.812 3.855 8.718 1.86 2.905-1.994 5.811-11.199 8.717-13.826 2.906-2.628 5.812-1.389 8.718-1.941 2.906-.553 5.811-.957 8.717-1.375 2.906-.418 5.812-.552 8.718-1.132 2.906-.58 5.812-1.846 8.717-2.345 2.906-.498 5.812-.108 8.718-.647 2.906-.539 5.812-2.29 8.718-2.587 2.905-.297 5.811 1.496 8.717.808 2.906-.687 5.812-3.746 8.718-4.932 2.906-1.186 5.811-1.59 8.717-2.183 2.906-.593 5.812-1.186 8.718-1.375 2.906-.188 5.812.647 8.717.243 2.906-.405 5.812-2.022 8.718-2.669 2.906-.647 5.812-.795 8.718-1.213 2.905-.417 5.811-1.078 8.717-1.293 2.906-.216 5.812 3.275 8.718 0 2.905-3.275 5.811-16.32 8.717-19.65 2.906-3.328 5.812.095 8.718-.323 2.906-.417 5.812-1.967 8.717-2.183 2.906-.216 5.812 1.739 8.718.89 2.906-.85 5.812-3.02 8.717-5.984 2.906-2.965 5.812-11.455 8.718-11.806 2.906-.35 5.812 7.965 8.718 9.704 2.906 1.738 5.811 2.183 8.717.727 2.906-1.455 5.812-7.83 8.718-9.46 2.906-1.631 5.811.107 8.717-.324 2.906-.431 5.812-1.86 8.718-2.264 2.906-.404 5.812.175 8.717-.162 2.906-.337 5.812-1.415 8.718-1.86 2.906-.444 5.812-.458 8.718-.808 2.905-.35 5.811-1.038 8.717-1.294 2.906-.256 5.812 2.062 8.718-.242 2.906-2.305 5.811-11.186 8.717-13.585 2.906-2.399 5.812-.323 8.718-.808 2.906-.486 5.812-1.82 8.717-2.103 2.906-.283 5.812.89 8.718.405 2.906-.486 5.812-2.548 8.718-3.316 2.905-.768 5.811-.943 8.717-1.293 2.906-.35 5.812-.62 8.718-.81 2.906-.188 5.811.446 8.717-.322 2.906-.769 5.812-3.275 8.718-4.286 2.906-1.01 5.812-1.024 8.717-1.779 2.906-.755 5.812-2.264 8.718-2.75 2.906-.484 5.812.041 8.718-.161a91.53 91.53 0 0 0 8.717-1.051c2.906-.485 5.812-1.334 8.718-1.86 2.906-.526 5.811-1.132 8.717-1.294 2.906-.161 5.812 4.124 8.718.324 2.906-3.8 5.812-19.164 8.717-23.126 2.906-3.962 5.812-.27 8.718-.647 2.906-.377 5.812-1.375 8.717-1.617 2.906-.243 5.812 1.024 8.718.161 2.906-.862 5.812-4.609 8.718-5.336 2.905-.728 5.811 1.05 8.717.97 2.906-.08 5.812-1.2 8.718-1.455 2.906-.257 5.811.876 8.717-.081 2.906-.957 5.812-4.502 8.718-5.66 2.906-1.16 5.812-.513 8.717-1.294 2.906-.782 5.812-2.979 8.718-3.396 2.906-.418 5.812 1.024 8.718.889 2.905-.135 5.811-1.038 8.717-1.698 2.906-.66 5.812-1.685 8.718-2.264 2.906-.58 5.811-1.092 8.717-1.213 2.906-.121 5.812 1.523 8.718.485 2.906-1.038 5.812-5.256 8.717-6.711 2.906-1.456 5.812-1.227 8.718-2.022 2.906-.795 5.812-2.304 8.718-2.749 2.905-.445 5.811.472 8.717.08 2.906-.39 5.812-1.71 8.718-2.425 2.905-.714 5.811-1.307 8.717-1.86 2.906-.552 5.812-1.213 8.718-1.455 2.906-.243 5.812.93 8.717 0 2.906-.93 5.812-4.528 8.718-5.58 2.906-1.05 5.812-.256 8.717-.727 2.906-.472 5.812-1.847 8.718-2.103 2.906-.256 5.812.984 8.718.566 2.906-.417 5.811-2.237 8.717-3.072 2.906-.836 5.812-1.55 8.718-1.94 2.906-.392 8.717-.405 8.717-.405"/>
  <path stroke="red" stroke-width="2" stroke-linecap="butt" clip-path="url(#a)" d="M123.2 501.14s5.812-1.038 8.718-1.537c2.905-.498 5.811-1.199 8.717-1.455 2.906-.256 5.812.189 8.718-.08 2.906-.27 5.811-1.268 8.717-1.537 2.906-.27 5.812.175 8.718-.081 2.906-.256 5.812-1.429 8.717-1.456 2.906-.027 5.812 1.618 8.718 1.294 2.906-.323 5.812-2.304 8.718-3.234 2.905-.93 5.811-1.658 8.717-2.345 2.906-.687 5.812-1.671 8.718-1.78 2.906-.107 5.811 1.43 8.717 1.133 2.906-.297 5.812-2.426 8.718-2.911 2.906-.485 5.811.013 8.717 0 2.906-.013 5.812-.162 8.718-.08 2.906.08 5.812 1.158 8.717.565 2.906-.593 5.812-3.639 8.718-4.124 2.906-.485 5.812 1.604 8.718 1.213 2.905-.39 5.811-3.167 8.717-3.558 2.906-.39 5.812 1.47 8.718 1.213 2.906-.256 5.811-2.223 8.717-2.749 2.906-.526 5.812-.27 8.718-.404 2.906-.135 5.812-.593 8.717-.405 2.906.19 5.812 2.238 8.718 1.537 2.906-.701 5.812-4.784 8.718-5.741 2.905-.957 5.811.108 8.717 0 2.906-.108 5.812-.391 8.718-.647 2.906-.256 5.811-.66 8.717-.89 2.906-.229 5.812-.39 8.718-.485 2.906-.094 5.812.108 8.717-.08 2.906-.19 5.812-1.079 8.718-1.052 2.906.027 5.812 1.94 8.718 1.213 2.905-.728 5.811-4.515 8.717-5.58 2.906-1.064 5.812-.579 8.718-.808 2.906-.229 5.811-.768 8.717-.566 2.906.202 5.812 2.224 8.718 1.779 2.906-.445 5.812-3.693 8.717-4.447 2.906-.755 5.812-.068 8.718-.081 2.906-.014 5.812-.081 8.717 0 2.906.08 5.812 1.132 8.718.485 2.906-.647 5.812-3.639 8.718-4.366 2.905-.728 5.811.175 8.717 0 2.906-.176 5.812-.903 8.718-1.052 2.906-.148 5.811.23 8.717.162 2.906-.067 5.812-.283 8.718-.566 2.906-.283 5.812-.808 8.717-1.132 2.906-.323 5.812-.997 8.718-.809 2.906.19 5.812 3.087 8.718 1.941 2.905-1.145 5.811-7.196 8.717-8.814 2.906-1.617 5.812-.593 8.718-.89 2.906-.296 5.811-.66 8.717-.889 2.906-.229 5.812-.188 8.718-.485 2.906-.296 5.812-1.05 8.717-1.293 2.906-.243 5.812.107 8.718-.162 2.906-.27 5.812-1.253 8.718-1.456 2.905-.202 5.811.486 8.717.243 2.906-.243 5.812-1.307 8.718-1.698 2.906-.391 5.811-.364 8.717-.647 2.906-.283 5.812-.89 8.718-1.051 2.906-.162 5.812.337 8.717.08 2.906-.255 5.812-1.293 8.718-1.617 2.906-.323 5.812-.161 8.718-.323 2.905-.162 5.811-.606 8.717-.647 2.906-.04 5.812 2.197 8.718.404 2.905-1.792 5.811-9.339 8.717-11.158 2.906-1.82 5.812.364 8.718.242 2.906-.121 5.812-.727 8.717-.97 2.906-.243 5.812-.404 8.718-.485 2.906-.081 5.812.054 8.717 0 2.906-.054 5.812-.067 8.718-.324 2.906-.256 5.812-1.212 8.718-1.212 2.906 0 5.811 1.954 8.717 1.212 2.906-.74 5.812-4.663 8.718-5.66 2.906-.997 5.811-.161 8.717-.323 2.906-.162 5.812-.54 8.718-.647 2.906-.108 5.812.189 8.717 0 2.906-.189 5.812-.876 8.718-1.132 2.906-.256 5.812-.23 8.718-.404 2.905-.176 5.811-.513 8.717-.647 2.906-.135 5.812 1.266 8.718-.162 2.906-1.429 5.811-6.927 8.717-8.41 2.906-1.482 5.812-.188 8.718-.485 2.906-.296 5.812-1.105 8.717-1.293 2.906-.19 5.812.377 8.718.161 2.906-.215 5.812-1.105 8.718-1.455 2.905-.35 5.811-.485 8.717-.647 2.906-.162 5.812-.189 8.718-.323 2.906-.135 5.811-.135 8.717-.486 2.906-.35 5.812-1.28 8.718-1.617 2.906-.337 5.812-.215 8.717-.404 2.906-.189 5.812-.485 8.718-.728 2.906-.242 5.812-.593 8.718-.728 2.905-.134 5.811.149 8.717-.08 2.906-.23 5.812-.984 8.718-1.294 2.906-.31 5.811-.58 8.717-.566 2.906.013 5.812 2.776 8.718.647 2.906-2.13 5.812-11.119 8.717-13.423 2.906-2.305 5.812-.175 8.718-.404 2.906-.23 5.812-.782 8.717-.97 2.906-.19 5.812 0 8.718-.162 2.906-.162 5.812-.647 8.718-.81 2.905-.16 5.811-.013 8.717-.16 2.906-.15 5.812-.54 8.718-.729 2.906-.188 5.811-.08 8.717-.404 2.906-.323 5.812-1.051 8.718-1.536 2.906-.485 5.812-.97 8.717-1.375 2.906-.404 5.812-.89 8.718-1.051 2.906-.162 5.812.148 8.718.08 2.905-.067 5.811-.323 8.717-.484 2.906-.162 5.812-.297 8.718-.485 2.906-.19 5.811-.432 8.717-.647 2.906-.216 5.812.242 8.718-.647 2.906-.89 5.812-3.922 8.717-4.69 2.906-.768 5.812.27 8.718.08 2.906-.188 5.812-.97 8.718-1.212 2.905-.243 5.811-.081 8.717-.243 2.906-.161 5.812-.525 8.718-.727 2.905-.203 5.811-.203 8.717-.486 2.906-.283 5.812-.997 8.718-1.212 2.906-.216 5.812.134 8.717-.081 2.906-.216 5.812-.863 8.718-1.213 2.906-.35 5.812-.634 8.717-.89a315.99 315.99 0 0 1 8.718-.647c2.906-.175 5.812-.161 8.718-.404 2.906-.243 5.811-.768 8.717-1.051 2.906-.283 5.812-.472 8.718-.647 2.906-.175 8.717-.404 8.717-.404"/>
  <path stroke="#0f0" stroke-width="2" stroke-linecap="butt" clip-path="url(#a)" d="M123.2 490.305s5.812-2.008 8.718-2.911c2.905-.903 5.811-2.21 8.717-2.507 2.906-.297 5.812 1.2 8.718.728 2.906-.472 5.811-2.898 8.717-3.558 2.906-.66 5.812-.202 8.718-.404 2.906-.203 5.812-.796 8.717-.81 2.906-.013 5.812.85 8.718.729 2.906-.122 5.812-.135 8.718-1.456 2.905-1.32 5.811-4.892 8.717-6.469 2.906-1.576 5.812-2.425 8.718-2.991 2.906-.566 5.811.12 8.717-.405 2.906-.525 5.812-2.183 8.718-2.749 2.906-.566 5.811-.202 8.717-.647 2.906-.445 5.812-1.792 8.718-2.021 2.906-.23 5.812 1.482 8.717.647 2.906-.836 5.812-4.583 8.718-5.66 2.906-1.079 5.812.296 8.718-.81 2.905-1.104 5.811-4.676 8.717-5.821 2.906-1.146 5.812-.647 8.718-1.051 2.906-.405 5.811-.58 8.717-1.375 2.906-.795 5.812-2.534 8.718-3.396 2.906-.863 5.812-1.307 8.717-1.779 2.906-.472 5.812-.377 8.718-1.051 2.906-.674 5.812-2.466 8.718-2.992 2.905-.526 5.811.472 8.717-.162 2.906-.633 5.812-1.698 8.718-3.638 2.906-1.941 5.811-6.604 8.717-8.006 2.906-1.401 5.812-.053 8.718-.404 2.906-.35 5.812-1.267 8.717-1.698 2.906-.431 5.812-.431 8.718-.89 2.906-.458 5.812 0 8.718-1.86 2.905-1.859 5.811-7.667 8.717-9.298 2.906-1.63 5.812.202 8.718-.485 2.906-.688 5.811-2.534 8.717-3.639 2.906-1.105 5.812-1.159 8.718-2.992 2.906-1.833 5.812-6.415 8.717-8.005 2.906-1.59 5.812-1.334 8.718-1.536 2.906-.202 5.812.539 8.717.323 2.906-.215 5.812-.93 8.718-1.617 2.906-.687 5.812-1.86 8.718-2.507 2.905-.647 5.811-.633 8.717-1.374 2.906-.741 5.812-2.938 8.718-3.073 2.906-.135 5.811 3.019 8.717 2.264 2.906-.755 5.812-4.232 8.718-6.792 2.906-2.56 5.812-9.932 8.717-8.571 2.906 1.36 5.812 16.684 8.718 16.738 2.906.054 5.812-11.617 8.718-16.415 2.905-4.798 5.811-10.39 8.717-12.371 2.906-1.981 5.812-2.116 8.718.485 2.906 2.6 5.811 14.325 8.717 15.12 2.906.796 5.812-8.827 8.718-10.35 2.906-1.522 5.812 1.308 8.717 1.213 2.906-.094 5.812-.323 8.718-1.779 2.906-1.455 5.812-5.215 8.718-6.953 2.905-1.739 5.811-2.359 8.717-3.478 2.906-1.118 5.812-2.277 8.718-3.234 2.906-.957 5.811-1.82 8.717-2.507 2.906-.687 5.812-.997 8.718-1.617 2.906-.62 5.812-1.523 8.717-2.102 2.906-.58 5.812-.957 8.718-1.375 2.906-.417 5.812-2.897 8.718-1.132 2.905 1.766 5.811 13.019 8.717 11.725 2.906-1.294 5.812-12.075 8.718-19.487 2.905-7.413 5.811-20.552 8.717-24.986 2.906-4.434 5.812-1.388 8.718-1.617 2.906-.23 5.812.822 8.717.242 2.906-.58 5.812-3.1 8.718-3.72 2.906-.62 5.812.459 8.717 0 2.906-.457 5.812-4.959 8.718-2.748 2.906 2.21 5.812 16.967 8.718 16.01 2.906-.957 5.811-18.679 8.717-21.752 2.906-3.072 5.812 3.087 8.718 3.316 2.906.229 5.811-1.28 8.717-1.94 2.906-.661 5.812-.783 8.718-2.022 2.906-1.24 5.812-6.267 8.717-5.418 2.906.849 5.812 11.496 8.718 10.512 2.906-.984 5.812-15.08 8.718-16.415 2.905-1.334 5.811 9.124 8.717 8.41 2.906-.715 5.812-8.72 8.718-12.695 2.906-3.976 5.811-8.558 8.717-11.16 2.906-2.6 5.812-4.23 8.718-4.446 2.906-.216 5.812 1.576 8.717 3.153 2.906 1.577 5.812 5 8.718 6.307 2.906 1.308 5.812 1.55 8.718 1.537 2.905-.014 5.811-1.267 8.717-1.618 2.906-.35 5.812.31 8.718-.485 2.906-.795 5.811-5.633 8.717-4.285 2.906 1.347 5.812 13.234 8.718 12.371 2.906-.862 5.812-15.08 8.717-17.546 2.906-2.467 5.812 4.838 8.718 2.749 2.906-2.089 5.812-12.507 8.718-15.283 2.905-2.776 5.811-.862 8.717-1.374 2.906-.512 5.812-.31 8.718-1.698 2.906-1.388 5.811-8.302 8.717-6.63 2.906 1.67 5.812 17.37 8.718 16.656 2.906-.714 5.812-17.102 8.717-20.942 2.906-3.841 5.812-2.682 8.718-2.103 2.906.58 5.812 7.776 8.717 5.58 2.906-2.197 5.812-15.08 8.718-18.76 2.906-3.68 5.812-2.17 8.718-3.315 2.905-1.146 5.811-2.17 8.717-3.558 2.906-1.388 5.812-4.69 8.718-4.77 2.906-.082 5.811 3.45 8.717 4.285 2.906.835 5.812 2.776 8.718.727 2.906-2.048 5.812-12.52 8.717-13.018 2.906-.499 5.812 8.369 8.718 10.027 2.906 1.657 5.812 3.248 8.718-.081 2.905-3.329 5.811-17.277 8.717-19.892 2.906-2.614 5.812 5.54 8.718 4.205 2.906-1.334 5.811-11.455 8.717-12.21 2.906-.755 5.812 8.733 8.718 7.682 2.906-1.051 5.812-11.617 8.717-13.989 2.906-2.372 5.812-1.146 8.718-.243 2.906.903 5.812 3.046 8.718 5.66 2.905 2.615 5.811 6.537 8.717 10.027 2.906 3.49 5.812 11.671 8.718 10.916 2.905-.754 5.811-12.506 8.717-15.444 2.906-2.938 5.812-1.159 8.718-2.183 2.906-1.024 5.812-2.722 8.717-3.962 2.906-1.24 5.812-2.372 8.718-3.477 2.906-1.105 5.812-2.076 8.717-3.154 2.906-1.078 5.812-2.533 8.718-3.315 2.906-.782 5.812-.553 8.718-1.375 2.906-.822 5.811-2.991 8.717-3.558 2.906-.566 5.812 1.82 8.718.162 2.906-1.657 8.717-10.107 8.717-10.107"/>
  <path stroke="#00f" stroke-width="2" stroke-linecap="butt" clip-path="url(#a)" d="M123.2 502.11s5.812-1.9 8.718-2.507c2.905-.606 5.811-.943 8.717-1.132 2.906-.188 5.812.19 8.718 0 2.906-.188 5.811-.889 8.717-1.132 2.906-.242 5.812-.229 8.718-.323 2.906-.094 5.812-.23 8.717-.243 2.906-.013 5.812.27 8.718.162 2.906-.108 5.812-.108 8.718-.809 2.905-.7 5.811-2.803 8.717-3.396 2.906-.593 5.812.108 8.718-.161 2.906-.27 5.811-1.038 8.717-1.456 2.906-.418 5.812-.835 8.718-1.051 2.906-.216 5.811-.135 8.717-.243 2.906-.107 5.812-.27 8.718-.404 2.906-.135 5.812.04 8.717-.404 2.906-.445 5.812-1.833 8.718-2.264 2.906-.432 5.812.108 8.718-.324 2.905-.431 5.811-1.846 8.717-2.264 2.906-.418 5.812-.04 8.718-.242 2.906-.203 5.811-.647 8.717-.97 2.906-.324 5.812-.661 8.718-.971 2.906-.31 5.812-.755 8.717-.89 2.906-.134 5.812.27 8.718.081 2.906-.188 5.812-1.064 8.718-1.213 2.905-.148 5.811.513 8.717.324 2.906-.189 5.812-.836 8.718-1.456 2.906-.62 5.811-1.738 8.717-2.264 2.906-.525 5.812-.768 8.718-.89 2.906-.12 5.812.365 8.717.163 2.906-.203 5.812-.998 8.718-1.375 2.906-.377 5.812-.08 8.718-.89 2.905-.808 5.811-3.234 8.717-3.962 2.906-.727 5.812-.66 8.718-.404 2.906.256 5.811 2.062 8.717 1.94 2.906-.12 5.812-1.765 8.718-2.668 2.906-.903 5.812-2.25 8.717-2.749 2.906-.499 5.812 0 8.718-.242 2.906-.243 5.812-1.065 8.717-1.213 2.906-.149 5.812.66 8.718.323 2.906-.337 5.812-2.008 8.718-2.345 2.905-.337 5.811.404 8.717.324 2.906-.081 5.812-.526 8.718-.809 2.906-.283 5.811-.566 8.717-.89 2.906-.323 5.812-.471 8.718-1.05 2.906-.58 5.812-1.86 8.717-2.426 2.906-.566 5.812-.755 8.718-.97 2.906-.216 5.812.147 8.718-.324 2.905-.472 5.811-1.954 8.717-2.507 2.906-.552 5.812-.593 8.718-.808 2.906-.216 5.811-.364 8.717-.486 2.906-.12 5.812.027 8.718-.242 2.906-.27 5.812-1.065 8.717-1.375 2.906-.31 5.812.081 8.718-.485 2.906-.566 5.812-2.116 8.718-2.91 2.905-.796 5.811-1.295 8.717-1.86 2.906-.567 5.812-1.133 8.718-1.537 2.906-.404 5.811-.566 8.717-.89 2.906-.323 5.812-.795 8.718-1.05 2.906-.257 5.812-.19 8.717-.486 2.906-.296 5.812-1.065 8.718-1.294 2.906-.229 5.812.108 8.718-.08 2.905-.19 5.811-.513 8.717-1.052 2.906-.539 5.812-.43 8.718-2.183 2.905-1.752 5.811-6.779 8.717-8.328 2.906-1.55 5.812-.66 8.718-.97 2.906-.31 5.812-.836 8.717-.89 2.906-.054 5.812.795 8.718.566 2.906-.23 5.812-1.577 8.717-1.94 2.906-.365 5.812-.122 8.718-.243 2.906-.122 5.812-.256 8.718-.486 2.906-.229 5.811-.283 8.717-.89 2.906-.606 5.812-2.182 8.718-2.748 2.906-.566 5.811-.364 8.717-.647 2.906-.283 5.812-.647 8.718-1.051 2.906-.405 5.812-.984 8.717-1.375 2.906-.39 5.812-1.455 8.718-.97 2.906.485 5.812 4.043 8.718 3.88 2.905-.16 5.811-3.867 8.717-4.85 2.906-.984 5.812-.216 8.718-1.052 2.906-.835 5.811-3.046 8.717-3.962 2.906-.916 5.812-1.145 8.718-1.536 2.906-.391 5.812-.499 8.717-.809 2.906-.31 5.812-.633 8.718-1.051 2.906-.418 5.812-1.051 8.718-1.456 2.905-.404 5.811-.552 8.717-.97 2.906-.418 5.812-1.954 8.718-1.536 2.906.418 5.811 4.38 8.717 4.043 2.906-.337 5.812-5.014 8.718-6.065 2.906-1.05 5.812.135 8.717-.242 2.906-.378 5.812-1.618 8.718-2.022 2.906-.404 5.812-.202 8.718-.404 2.905-.202 5.811-.39 8.717-.809 2.906-.417 5.812-1.401 8.718-1.698 2.906-.296 5.811.27 8.717-.08 2.906-.351 5.812-.728 8.718-2.022 2.906-1.294 5.812-4.825 8.717-5.741 2.906-.917 5.812.296 8.718.242 2.906-.054 5.812-.188 8.717-.566 2.906-.377 5.812-1.118 8.718-1.698 2.906-.58 5.812-1.374 8.718-1.779 2.905-.404 5.811-.377 8.717-.646 2.906-.27 5.812-.742 8.718-.97 2.906-.23 5.811-.162 8.717-.405 2.906-.243 5.812-.62 8.718-1.051 2.906-.432 5.812-1.173 8.717-1.537 2.906-.363 5.812-.66 8.718-.647 2.906.014 5.812 1.16 8.718.728 2.905-.431 5.811-2.668 8.717-3.315 2.906-.647 5.812-.243 8.718-.566 2.906-.323 5.811-.876 8.717-1.375 2.906-.498 5.812-1.105 8.718-1.617 2.906-.512 5.812-1.118 8.717-1.455 2.906-.337 5.812-.256 8.718-.566 2.906-.31 5.812-.93 8.718-1.294 2.905-.364 5.811-.714 8.717-.89 2.906-.175 5.812.162 8.718-.161 2.905-.324 5.811-1.24 8.717-1.78 2.906-.538 5.812-1.023 8.718-1.455 2.906-.431 5.812-.835 8.717-1.132 2.906-.296 5.812-.283 8.718-.647 2.906-.363 5.812-1.199 8.717-1.536 2.906-.337 5.812-.283 8.718-.485 2.906-.202 5.812-.404 8.718-.728 2.906-.323 5.811-.997 8.717-1.213 2.906-.215 5.812.256 8.718-.08 2.906-.338 8.717-1.941 8.717-1.941"/>
  <path fill="#424242" d="M653.22 578.862l-2.079 2.172v5.766h-2.25v-17.063h2.25v8.438l7.578-8.438h2.719l-6.719 7.532 7.25 9.531h-2.703l-6.047-7.938zm15.593 8.172q-2.578 0-4.203-1.687-1.61-1.703-1.61-4.531v-.407q0-1.89.72-3.359.718-1.484 2.015-2.328 1.297-.844 2.812-.844 2.469 0 3.828 1.64 1.375 1.626 1.375 4.657v.906h-8.578q.047 1.875 1.094 3.031 1.047 1.157 2.656 1.157 1.157 0 1.953-.469.797-.469 1.391-1.25l1.328 1.031q-1.594 2.453-4.781 2.453zm-.266-11.375q-1.312 0-2.203.97-.89.952-1.11 2.671h6.36v-.172q-.094-1.64-.89-2.547-.797-.922-2.157-.922zm12.157 7.97l2.953-9.517h2.312l-5.094 14.641q-1.187 3.172-3.765 3.172l-.406-.031-.813-.157v-1.765l.594.047q1.094 0 1.703-.453.625-.438 1.016-1.61l.484-1.297-4.516-12.547h2.36l3.172 9.516zm14.234-.188q0-.891-.672-1.375-.656-.485-2.312-.829-1.641-.359-2.61-.843-.969-.5-1.437-1.172-.453-.688-.453-1.625 0-1.563 1.312-2.64 1.328-1.079 3.375-1.079 2.156 0 3.5 1.125 1.344 1.11 1.344 2.844h-2.188q0-.89-.75-1.531-.75-.657-1.906-.657-1.187 0-1.86.516-.656.516-.656 1.36 0 .78.61 1.187.625.39 2.25.75t2.625.875q1.015.5 1.5 1.219.484.703.484 1.718 0 1.703-1.36 2.735-1.359 1.015-3.515 1.015-1.531 0-2.703-.53-1.172-.548-1.844-1.517-.656-.968-.656-2.093h2.172q.062 1.093.875 1.734.812.64 2.156.64 1.219 0 1.969-.5t.75-1.327zM37.137 374.51l13.922-5.579-13.922-5.578v-2.922H54.2v2.25h-6.64l-7.173-.203 13.813 5.594v1.734l-13.781 5.578 7.14-.218H54.2v2.25H37.137v-2.907zM54.2 354.4v2.172H41.512V354.4H54.2zm-16.047 2.344q-.531 0-.89-.313-.36-.328-.36-.953 0-.64.36-.969.359-.328.89-.328t.89.328q.344.328.344.97 0 .624-.343.952-.36.313-.89.313zM54.2 348.4v2.172h-18V348.4h18zm0-6v2.172h-18V342.4h18zm0-6v2.172H41.512V336.4H54.2zm-16.047 2.344q-.531 0-.89-.313-.36-.328-.36-.953 0-.64.36-.969.359-.328.89-.328t.89.328q.344.328.344.97 0 .624-.343.952-.36.313-.89.313zm12.688-13.375q-.891 0-1.375.672-.485.656-.829 2.312-.359 1.64-.843 2.61-.5.968-1.172 1.437-.688.453-1.625.453-1.563 0-2.64-1.312-1.079-1.329-1.079-3.375 0-2.157 1.125-3.5 1.11-1.344 2.844-1.344v2.187q-.89 0-1.531.75-.657.75-.657 1.907 0 1.187.516 1.859.516.656 1.36.656.78 0 1.187-.61.39-.624.75-2.25.36-1.624.875-2.624.5-1.016 1.219-1.5.703-.485 1.718-.485 1.703 0 2.735 1.36 1.015 1.36 1.015 3.515 0 1.532-.53 2.704-.548 1.171-1.517 1.843-.968.657-2.093.657v-2.172q1.093-.063 1.734-.875.64-.813.64-2.157 0-1.218-.5-1.968t-1.327-.75zm3.593-9.875q0 2.578-1.687 4.203-1.703 1.61-4.531 1.61h-.407q-1.89 0-3.359-.72-1.484-.718-2.328-2.015-.844-1.297-.844-2.813 0-2.468 1.64-3.828 1.626-1.375 4.657-1.375h.906v8.578q1.875-.047 3.031-1.093 1.157-1.047 1.157-2.657 0-1.156-.469-1.953-.469-.797-1.25-1.39l1.031-1.329q2.453 1.594 2.453 4.782zm-11.375.265q0 1.313.97 2.203.952.891 2.671 1.11v-6.36h-.172q-1.64.094-2.547.891-.922.797-.922 2.156zm9.61-13.093q0-1.157-.703-2.016-.704-.875-1.766-.969v-2.047q1.094.063 2.078.75.984.688 1.578 1.844.578 1.156.578 2.438 0 2.593-1.718 4.125-1.735 1.53-4.735 1.53h-.375q-1.844 0-3.281-.671-1.453-.688-2.25-1.953-.797-1.281-.797-3.016 0-2.125 1.281-3.531 1.282-1.422 3.313-1.516v2.047q-1.219.094-2.016.938-.797.828-.797 2.062 0 1.656 1.203 2.563 1.188.906 3.438.906h.406q2.188 0 3.375-.89 1.188-.907 1.188-2.594zm-4.922-7.329q-1.875 0-3.36-.734-1.484-.734-2.296-2.031-.813-1.313-.813-3 0-2.578 1.797-4.172 1.797-1.61 4.766-1.61h.156q1.86 0 3.328.72 1.469.702 2.297 2.015.812 1.313.812 3.031 0 2.578-1.797 4.188-1.796 1.593-4.75 1.593h-.14zm.25-2.187q2.11 0 3.39-.969 1.282-.984 1.282-2.625 0-1.656-1.297-2.625-1.297-.969-3.625-.969-2.094 0-3.39.985-1.298.984-1.298 2.625 0 1.61 1.282 2.594 1.28.984 3.656.984zm-6.485-14.438l1.594-.078q-1.828-1.453-1.828-3.797 0-4.015 4.547-4.046H54.2v2.156h-8.39q-1.376.015-2.032.64-.656.61-.656 1.907 0 1.062.562 1.86.563.796 1.485 1.233H54.2v2.172H41.512v-2.047zm6.235-10.421q-2.906 0-4.688-1.375-1.78-1.391-1.78-3.641 0-2.219 1.53-3.516H36.2v-2.172h18v1.985l-1.36.11q1.594 1.296 1.594 3.624 0 2.203-1.797 3.594-1.812 1.39-4.718 1.39h-.172zm.25-2.172q2.156 0 3.375-.89 1.219-.892 1.219-2.47 0-2.062-1.844-3h-5.828q-1.797.97-1.797 2.985 0 1.593 1.234 2.484 1.235.89 3.64.89zm2.844-19.75q-.891 0-1.375.672-.485.656-.829 2.312-.359 1.64-.843 2.61-.5.968-1.172 1.437-.688.453-1.625.453-1.563 0-2.64-1.312-1.079-1.328-1.079-3.375 0-2.157 1.125-3.5 1.11-1.344 2.844-1.344v2.187q-.89 0-1.531.75-.657.75-.657 1.907 0 1.187.516 1.859.516.656 1.36.656.78 0 1.187-.61.39-.624.75-2.25.36-1.624.875-2.624.5-1.016 1.219-1.5.703-.484 1.718-.484 1.703 0 2.735 1.359 1.015 1.36 1.015 3.516 0 1.53-.53 2.703-.548 1.172-1.517 1.843-.968.657-2.093.657v-2.172q1.093-.063 1.734-.875.64-.813.64-2.156 0-1.22-.5-1.97t-1.327-.75z"/>
  <path fill="#757575" d="M116.263 507.66q0 1.906-.657 2.843-.64.922-2.031.922-1.36 0-2.016-.906-.656-.906-.687-2.719v-1.438q0-1.89.64-2.796.657-.922 2.047-.922 1.375 0 2.032.89.656.875.672 2.72v1.405zm-1.094-1.485q0-1.375-.39-2-.376-.64-1.22-.64-.828 0-1.218.64-.375.625-.375 1.922v1.734q0 1.375.39 2.047.407.656 1.219.656.797 0 1.188-.625.39-.625.406-1.953v-1.781zM114.466 430.44h-1.078v-7.219l-2.188.797v-.984l3.11-1.172h.156v8.578zM116.497 349.58h-5.594v-.781l2.953-3.281q.657-.75.907-1.204.25-.468.25-.968 0-.672-.407-1.094-.39-.438-1.078-.438-.797 0-1.25.47-.453.452-.453 1.28h-1.078q0-1.187.75-1.906.766-.734 2.031-.734 1.203 0 1.89.625.688.625.688 1.672 0 1.25-1.61 3l-2.28 2.468h4.28v.891zM112.481 263.923h.813q.781-.015 1.219-.406.437-.39.437-1.063 0-1.5-1.5-1.5-.703 0-1.125.407-.406.406-.406 1.062h-1.094q0-1.015.734-1.687.75-.672 1.891-.672 1.203 0 1.89.64.688.641.688 1.782 0 .562-.36 1.078-.359.515-.984.781.704.219 1.079.734.39.516.39 1.266 0 1.14-.75 1.828-.75.672-1.953.672-1.188 0-1.953-.656-.75-.656-.75-1.719h1.094q0 .672.437 1.078.438.406 1.188.406.78 0 1.187-.406.422-.422.422-1.187 0-.735-.453-1.125-.453-.407-1.328-.422h-.813v-.89zM115.481 185h1.188v.876h-1.188v1.984h-1.078v-1.984h-3.89v-.641l3.812-5.906h1.156V185zm-3.734 0h2.656v-4.187l-.14.235-2.516 3.953zM111.403 102.719l.438-4.25h4.375v1h-3.453l-.266 2.328q.64-.375 1.437-.375 1.157 0 1.844.781.688.766.688 2.078 0 1.313-.72 2.078-.702.766-1.983.766-1.126 0-1.844-.625-.719-.64-.813-1.75h1.016q.11.734.531 1.11.422.374 1.11.374.75 0 1.187-.515.438-.516.438-1.422 0-.86-.47-1.375-.468-.516-1.25-.516-.702 0-1.109.297l-.28.234-.876-.218zM302.3 520.519l.437-4.25h4.375v1h-3.453l-.266 2.328q.64-.375 1.437-.375 1.157 0 1.844.781.688.766.688 2.078 0 1.313-.72 2.078-.702.766-1.983.766-1.125 0-1.844-.625-.719-.64-.813-1.75h1.016q.11.734.531 1.11.422.374 1.11.374.75 0 1.187-.515.438-.516.438-1.422 0-.86-.47-1.375-.468-.516-1.25-.516-.702 0-1.109.297l-.28.234-.876-.218zm11.859.64q0 1.907-.657 2.844-.64.922-2.03.922-1.36 0-2.017-.906-.656-.907-.687-2.719v-1.438q0-1.89.64-2.796.657-.922 2.047-.922 1.375 0 2.032.89.656.875.672 2.72v1.405zm-1.094-1.484q0-1.375-.39-2-.376-.64-1.22-.64-.828 0-1.218.64-.375.625-.375 1.922v1.734q0 1.375.39 2.047.407.656 1.22.656.796 0 1.187-.625.39-.625.406-1.953v-1.781zm8.094 1.484q0 1.907-.657 2.844-.64.922-2.03.922-1.36 0-2.017-.906-.656-.907-.687-2.719v-1.438q0-1.89.64-2.796.657-.922 2.047-.922 1.375 0 2.032.89.656.875.672 2.72v1.405zm-1.094-1.484q0-1.375-.39-2-.376-.64-1.22-.64-.828 0-1.218.64-.375.625-.375 1.922v1.734q0 1.375.39 2.047.407.656 1.22.656.796 0 1.187-.625.39-.625.406-1.953v-1.781zm8.094 1.484q0 1.907-.657 2.844-.64.922-2.03.922-1.36 0-2.017-.906-.656-.907-.687-2.719v-1.438q0-1.89.64-2.796.657-.922 2.047-.922 1.375 0 2.032.89.656.875.672 2.72v1.405zm-1.094-1.484q0-1.375-.39-2-.376-.64-1.22-.64-.828 0-1.218.64-.375.625-.375 1.922v1.734q0 1.375.39 2.047.407.656 1.22.656.796 0 1.187-.625.39-.625.406-1.953v-1.781zm8.094 1.484q0 1.907-.657 2.844-.64.922-2.03.922-1.36 0-2.017-.906-.656-.907-.687-2.719v-1.438q0-1.89.64-2.796.657-.922 2.047-.922 1.375 0 2.032.89.656.875.672 2.72v1.405zm-1.094-1.484q0-1.375-.39-2-.376-.64-1.22-.64-.828 0-1.218.64-.375.625-.375 1.922v1.734q0 1.375.39 2.047.407.656 1.22.656.796 0 1.187-.625.39-.625.406-1.953v-1.781zM514.693 524.8h-1.078v-7.219l-2.188.797v-.984l3.11-1.172h.156v8.578zm8.797-3.64q0 1.906-.657 2.843-.64.922-2.03.922-1.36 0-2.016-.906-.657-.907-.688-2.719v-1.438q0-1.89.64-2.796.657-.922 2.048-.922 1.375 0 2.03.89.657.875.673 2.72v1.405zm-1.094-1.485q0-1.375-.39-2-.376-.64-1.22-.64-.827 0-1.218.64-.375.625-.375 1.922v1.734q0 1.375.39 2.047.407.656 1.22.656.796 0 1.187-.625.39-.625.406-1.953v-1.781zm8.094 1.484q0 1.907-.657 2.844-.64.922-2.03.922-1.36 0-2.016-.906-.657-.907-.688-2.719v-1.438q0-1.89.64-2.796.657-.922 2.048-.922 1.375 0 2.03.89.657.875.673 2.72v1.405zm-1.094-1.484q0-1.375-.39-2-.376-.64-1.22-.64-.827 0-1.218.64-.375.625-.375 1.922v1.734q0 1.375.39 2.047.407.656 1.22.656.796 0 1.187-.625.39-.625.406-1.953v-1.781zm8.094 1.484q0 1.907-.657 2.844-.64.922-2.03.922-1.36 0-2.016-.906-.657-.907-.688-2.719v-1.438q0-1.89.64-2.796.657-.922 2.048-.922 1.375 0 2.03.89.657.875.673 2.72v1.405zm-1.094-1.484q0-1.375-.39-2-.376-.64-1.22-.64-.827 0-1.218.64-.375.625-.375 1.922v1.734q0 1.375.39 2.047.407.656 1.22.656.796 0 1.187-.625.39-.625.406-1.953v-1.781zm8.094 1.484q0 1.907-.657 2.844-.64.922-2.03.922-1.36 0-2.016-.906-.657-.907-.688-2.719v-1.438q0-1.89.64-2.796.657-.922 2.048-.922 1.375 0 2.03.89.657.875.673 2.72v1.405zm-1.094-1.484q0-1.375-.39-2-.376-.64-1.22-.64-.827 0-1.218.64-.375.625-.375 1.922v1.734q0 1.375.39 2.047.407.656 1.22.656.796 0 1.187-.625.39-.625.406-1.953v-1.781zm8.094 1.484q0 1.907-.657 2.844-.64.922-2.03.922-1.36 0-2.016-.906-.657-.907-.688-2.719v-1.438q0-1.89.64-2.796.657-.922 2.048-.922 1.375 0 2.03.89.657.875.673 2.72v1.405zm-1.094-1.484q0-1.375-.39-2-.376-.64-1.22-.64-.827 0-1.218.64-.375.625-.375 1.922v1.734q0 1.375.39 2.047.407.656 1.22.656.796 0 1.187-.625.39-.625.406-1.953v-1.781zM727.524 524.8h-1.078v-7.219l-2.188.797v-.984l3.11-1.172h.156v8.578zm3.938-4.281l.437-4.25h4.375v1h-3.453l-.266 2.328q.641-.375 1.438-.375 1.156 0 1.844.781.687.766.687 2.078 0 1.313-.719 2.078-.703.766-1.984.766-1.125 0-1.844-.625-.718-.64-.812-1.75h1.015q.11.734.532 1.11.422.374 1.109.374.75 0 1.188-.515.437-.516.437-1.422 0-.86-.469-1.375-.468-.516-1.25-.516-.703 0-1.11.297l-.28.234-.875-.218zm11.859.64q0 1.907-.656 2.844-.64.922-2.031.922-1.36 0-2.016-.906-.656-.907-.688-2.719v-1.438q0-1.89.641-2.796.656-.922 2.047-.922 1.375 0 2.031.89.656.875.672 2.72v1.405zm-1.094-1.484q0-1.375-.39-2-.375-.64-1.22-.64-.827 0-1.218.64-.375.625-.375 1.922v1.734q0 1.375.39 2.047.407.656 1.22.656.796 0 1.187-.625.39-.625.406-1.953v-1.781zm8.094 1.484q0 1.907-.656 2.844-.64.922-2.031.922-1.36 0-2.016-.906-.656-.907-.688-2.719v-1.438q0-1.89.641-2.796.656-.922 2.047-.922 1.375 0 2.031.89.656.875.672 2.72v1.405zm-1.094-1.484q0-1.375-.39-2-.375-.64-1.22-.64-.827 0-1.218.64-.375.625-.375 1.922v1.734q0 1.375.39 2.047.407.656 1.22.656.796 0 1.187-.625.39-.625.406-1.953v-1.781zm8.094 1.484q0 1.907-.656 2.844-.64.922-2.031.922-1.36 0-2.016-.906-.656-.907-.688-2.719v-1.438q0-1.89.641-2.796.656-.922 2.047-.922 1.375 0 2.031.89.656.875.672 2.72v1.405zm-1.094-1.484q0-1.375-.39-2-.375-.64-1.22-.64-.827 0-1.218.64-.375.625-.375 1.922v1.734q0 1.375.39 2.047.407.656 1.22.656.796 0 1.187-.625.39-.625.406-1.953v-1.781zm8.094 1.484q0 1.907-.656 2.844-.64.922-2.031.922-1.36 0-2.016-.906-.656-.907-.688-2.719v-1.438q0-1.89.641-2.796.656-.922 2.047-.922 1.375 0 2.031.89.656.875.672 2.72v1.405zm-1.094-1.484q0-1.375-.39-2-.375-.64-1.22-.64-.827 0-1.218.64-.375.625-.375 1.922v1.734q0 1.375.39 2.047.407.656 1.22.656.796 0 1.187-.625.39-.625.406-1.953v-1.781zM942.387 524.8h-5.594v-.781l2.953-3.282q.656-.75.906-1.203.25-.468.25-.968 0-.672-.406-1.094-.39-.438-1.078-.438-.797 0-1.25.47-.453.452-.453 1.28h-1.078q0-1.187.75-1.906.765-.734 2.03-.734 1.204 0 1.891.625.688.625.688 1.672 0 1.25-1.61 3l-2.28 2.468h4.28v.891zm6.765-3.64q0 1.906-.656 2.843-.64.922-2.031.922-1.36 0-2.016-.906-.656-.907-.687-2.719v-1.438q0-1.89.64-2.796.656-.922 2.047-.922 1.375 0 2.031.89.657.875.672 2.72v1.405zm-1.094-1.485q0-1.375-.39-2-.375-.64-1.219-.64-.828 0-1.219.64-.375.625-.375 1.922v1.734q0 1.375.39 2.047.407.656 1.22.656.797 0 1.187-.625t.406-1.953v-1.781zm8.094 1.484q0 1.907-.656 2.844-.64.922-2.031.922-1.36 0-2.016-.906-.656-.907-.687-2.719v-1.438q0-1.89.64-2.796.656-.922 2.047-.922 1.375 0 2.031.89.657.875.672 2.72v1.405zm-1.094-1.484q0-1.375-.39-2-.375-.64-1.219-.64-.828 0-1.219.64-.375.625-.375 1.922v1.734q0 1.375.39 2.047.407.656 1.22.656.797 0 1.187-.625t.406-1.953v-1.781zm8.094 1.484q0 1.907-.656 2.844-.64.922-2.031.922-1.36 0-2.016-.906-.656-.907-.687-2.719v-1.438q0-1.89.64-2.796.656-.922 2.047-.922 1.375 0 2.031.89.657.875.672 2.72v1.405zm-1.094-1.484q0-1.375-.39-2-.375-.64-1.219-.64-.828 0-1.219.64-.375.625-.375 1.922v1.734q0 1.375.39 2.047.407.656 1.22.656.797 0 1.187-.625t.406-1.953v-1.781zm8.094 1.484q0 1.907-.656 2.844-.64.922-2.031.922-1.36 0-2.016-.906-.656-.907-.687-2.719v-1.438q0-1.89.64-2.796.656-.922 2.047-.922 1.375 0 2.031.89.657.875.672 2.72v1.405zm-1.094-1.484q0-1.375-.39-2-.375-.64-1.219-.64-.828 0-1.219.64-.375.625-.375 1.922v1.734q0 1.375.39 2.047.407.656 1.22.656.797 0 1.187-.625t.406-1.953v-1.781zm8.094 1.484q0 1.907-.656 2.844-.64.922-2.031.922-1.36 0-2.016-.906-.656-.907-.687-2.719v-1.438q0-1.89.64-2.796.656-.922 2.047-.922 1.375 0 2.031.89.657.875.672 2.72v1.405zm-1.094-1.484q0-1.375-.39-2-.375-.64-1.219-.64-.828 0-1.219.64-.375.625-.375 1.922v1.734q0 1.375.39 2.047.407.656 1.22.656.797 0 1.187-.625t.406-1.953v-1.781zM1155.218 524.8h-5.594v-.781l2.953-3.282q.656-.75.906-1.203.25-.468.25-.968 0-.672-.406-1.094-.39-.438-1.078-.438-.797 0-1.25.47-.453.452-.453 1.28h-1.078q0-1.187.75-1.906.765-.734 2.031-.734 1.203 0 1.89.625.688.625.688 1.672 0 1.25-1.61 3l-2.28 2.468h4.28v.891zm1.906-4.281l.438-4.25h4.375v1h-3.454l-.265 2.328q.64-.375 1.437-.375 1.157 0 1.844.781.688.766.688 2.078 0 1.313-.72 2.078-.702.766-1.984.766-1.125 0-1.843-.625-.72-.64-.813-1.75h1.016q.11.734.531 1.11.422.374 1.11.374.75 0 1.187-.515.437-.516.437-1.422 0-.86-.468-1.375-.47-.516-1.25-.516-.704 0-1.11.297l-.281.234-.875-.218zm11.86.64q0 1.907-.657 2.844-.64.922-2.031.922-1.36 0-2.016-.906-.656-.907-.687-2.719v-1.438q0-1.89.64-2.796.657-.922 2.047-.922 1.375 0 2.032.89.656.875.671 2.72v1.405zm-1.094-1.484q0-1.375-.391-2-.375-.64-1.219-.64-.828 0-1.218.64-.375.625-.375 1.922v1.734q0 1.375.39 2.047.406.656 1.219.656.797 0 1.187-.625.391-.625.407-1.953v-1.781zm8.093 1.484q0 1.907-.656 2.844-.64.922-2.031.922-1.36 0-2.016-.906-.656-.907-.687-2.719v-1.438q0-1.89.64-2.796.657-.922 2.047-.922 1.375 0 2.032.89.656.875.671 2.72v1.405zm-1.093-1.484q0-1.375-.391-2-.375-.64-1.219-.64-.828 0-1.218.64-.375.625-.375 1.922v1.734q0 1.375.39 2.047.406.656 1.219.656.797 0 1.187-.625.391-.625.407-1.953v-1.781zm8.093 1.484q0 1.907-.656 2.844-.64.922-2.031.922-1.36 0-2.016-.906-.656-.907-.687-2.719v-1.438q0-1.89.64-2.796.657-.922 2.047-.922 1.375 0 2.032.89.656.875.671 2.72v1.405zm-1.093-1.484q0-1.375-.391-2-.375-.64-1.219-.64-.828 0-1.218.64-.375.625-.375 1.922v1.734q0 1.375.39 2.047.406.656 1.219.656.797 0 1.187-.625.391-.625.407-1.953v-1.781zm8.093 1.484q0 1.907-.656 2.844-.64.922-2.031.922-1.36 0-2.016-.906-.656-.907-.687-2.719v-1.438q0-1.89.64-2.796.657-.922 2.047-.922 1.375 0 2.032.89.656.875.671 2.72v1.405zm-1.093-1.484q0-1.375-.391-2-.375-.64-1.219-.64-.828 0-1.218.64-.375.625-.375 1.922v1.734q0 1.375.39 2.047.406.656 1.219.656.797 0 1.187-.625.391-.625.407-1.953v-1.781z"/>
  <path stroke="#f0f" stroke-width="4" stroke-linecap="butt" d="M1254.8 102.5h12"/>
  <path fill="#757575" d="M1282.347 107h-1.125v-3.938h-4.313V107h-1.125v-8.531h1.125v3.672h4.313v-3.672h1.125V107zm2.437 0v-8.531h2.422q1.11 0 1.953.5.86.484 1.328 1.39.47.907.47 2.094v.531q0 1.22-.47 2.125-.453.907-1.328 1.391-.859.484-2 .5h-2.375zm1.125-7.61v6.688h1.188q1.297 0 2.015-.797.735-.812.735-2.312v-.5q0-1.453-.688-2.25-.672-.813-1.937-.828h-1.313zm13.86-.921v.906h-.203q-1.266.031-2.016.766-.75.718-.875 2.03.688-.765 1.844-.765 1.11 0 1.781.781.672.782.672 2.032 0 1.312-.719 2.11-.719.796-1.937.796-1.22 0-1.985-.938-.75-.953-.75-2.437v-.406q0-2.36 1-3.61t2.985-1.265h.203zm-1.422 3.844q-.563 0-1.031.328-.47.328-.657.843v.391q0 1.063.47 1.703.484.64 1.187.64.734 0 1.156-.53.422-.547.422-1.422 0-.875-.422-1.407-.422-.546-1.125-.546zm5.734-.11h.813q.781-.016 1.218-.406.438-.39.438-1.063 0-1.5-1.5-1.5-.703 0-1.125.407-.406.406-.406 1.062h-1.094q0-1.016.734-1.687.75-.672 1.891-.672 1.203 0 1.89.64.688.641.688 1.782 0 .562-.36 1.078-.359.515-.984.781.703.219 1.078.734.391.516.391 1.266 0 1.14-.75 1.828-.75.672-1.953.672-1.188 0-1.953-.656-.75-.656-.75-1.719h1.094q0 .672.437 1.078.438.406 1.188.406.78 0 1.187-.406.422-.422.422-1.187 0-.735-.453-1.125-.453-.407-1.328-.422h-.813v-.89zm10.782 1.156q0 1.907-.657 2.844-.64.922-2.031.922-1.36 0-2.016-.906-.656-.906-.687-2.719v-1.438q0-1.89.64-2.796.657-.922 2.047-.922 1.375 0 2.032.89.656.875.671 2.72v1.405zm-1.094-1.484q0-1.375-.39-2-.376-.64-1.22-.64-.828 0-1.218.64-.375.625-.375 1.922v1.734q0 1.375.39 2.047.407.656 1.219.656.797 0 1.188-.625.39-.625.406-1.953v-1.781zm15.218 2.188q-.078 1.406-.718 2.234-.625.828-1.688.828-1.093 0-1.406-1-.313.5-.719.75-.406.25-.843.25-.829 0-1.266-.688-.422-.687-.313-1.874.094-.97.438-1.72.36-.765.922-1.202.562-.438 1.172-.438.484 0 .859.125t.844.5l-.313 3.25q-.11 1.344.75 1.344.672 0 1.078-.656.407-.657.438-1.704.125-2.28-.844-3.468-.953-1.203-2.906-1.203-1.188 0-2.11.578-.906.578-1.437 1.687-.516 1.094-.578 2.547-.078 1.453.344 2.531.421 1.063 1.28 1.625.876.563 2.095.563.53 0 1.062-.125.531-.125.875-.344l.219.688q-.36.218-.969.359-.594.156-1.203.156-1.469 0-2.531-.656-1.047-.656-1.578-1.906-.516-1.235-.454-2.89.079-1.61.72-2.891.655-1.297 1.765-2 1.125-.704 2.515-.704 1.47 0 2.5.657 1.047.656 1.547 1.906.516 1.234.453 2.89zm-6.015.5q-.078.828.156 1.28.235.438.75.438.36 0 .672-.297.328-.296.547-.859v-.047l.265-2.953q-.328-.172-.703-.172-.672 0-1.125.703-.453.688-.562 1.906zm14.094 2.437h-1.079v-7.219l-2.187.797v-.984l3.11-1.172h.156V107zm3.578-.563q0-.28.156-.468.172-.188.5-.188.344 0 .516.188.171.187.171.469 0 .265-.171.453-.172.171-.516.171-.328 0-.5-.171-.156-.188-.156-.454zm6.422.563h-1.079v-7.219l-2.187.797v-.984l3.11-1.172h.156V107zm13.03-1.125q-.437.625-1.218.938-.781.312-1.812.312-1.032 0-1.844-.484-.813-.5-1.25-1.407-.438-.906-.453-2.093v-.735q0-1.937.89-3 .907-1.062 2.532-1.062 1.343 0 2.156.687.812.688 1 1.938h-1.125q-.328-1.688-2.016-1.688-1.14 0-1.718.797-.579.781-.594 2.297v.688q0 1.437.656 2.296.656.844 1.781.844.625 0 1.094-.14.484-.141.797-.485v-1.906h-1.969v-.922h3.094v3.125zm8.25 1.125h-1.124v-3.938h-4.313V107h-1.125v-8.531h1.125v3.672h4.313v-3.672h1.125V107zm3.298-.89h3.703v.89h-5.031v-.797l3.5-4.64h-3.454v-.907h4.813v.766l-3.531 4.687zm7.937-2.579q0-1.312.344-2.531.36-1.219 1.063-2.219.703-1 1.468-1.406l.219.719q-.86.656-1.406 2-.547 1.344-.594 3.015l-.016.5q0 2.266.828 3.922.5 1 1.188 1.563l-.219.656q-.781-.422-1.5-1.453-1.375-1.984-1.375-4.766zm7.032 1.969l2.437-7.031h1.234l-3.172 8.531h-.984l-3.156-8.531h1.219l2.421 7.031zm11.187-7.031v5.797q-.016 1.203-.766 1.984-.75.766-2.03.86l-.313.015q-1.391 0-2.235-.75-.828-.766-.828-2.094V98.47h1.11v5.781q0 .922.5 1.438.515.515 1.453.515.968 0 1.468-.516.5-.515.5-1.437v-5.781h1.141zm3.125 7.61h4.047V107h-5.188v-8.531h1.141v7.61zm7.031-3.048l-1.047 1.078V107h-1.125v-8.531h1.125v4.219l3.797-4.22h1.36l-3.36 3.766 3.625 4.766h-1.343l-3.032-3.969zm10.547 1.735h-3.578l-.797 2.234h-1.156l3.25-8.531h.984l3.266 8.531h-1.156l-.813-2.234zm-3.234-.922h2.906l-1.453-3.985-1.453 3.985zm13.078 3.156h-1.125l-4.297-6.578V107h-1.14v-8.531h1.14l4.297 6.61v-6.61h1.125V107zm5.484.734h-.922l3.563-9.265h.922l-3.563 9.265zm11.938-9.265v.906h-.203q-1.266.031-2.016.766-.75.718-.875 2.03.688-.765 1.844-.765 1.11 0 1.781.781.672.782.672 2.032 0 1.312-.719 2.11-.719.796-1.937.796-1.22 0-1.985-.938-.75-.953-.75-2.437v-.406q0-2.36 1-3.61t2.985-1.265h.203zm-1.422 3.844q-.563 0-1.031.328-.47.328-.657.843v.391q0 1.063.47 1.703.484.64 1.187.64.734 0 1.156-.53.422-.547.422-1.422 0-.875-.422-1.407-.422-.546-1.125-.546zm8.734 1.828h1.188v.875h-1.188V107h-1.078v-1.984h-3.89v-.641l3.812-5.906h1.156v5.672zm-3.734 0h2.656v-4.188l-.14.234-2.516 3.954zm8.531-.329h-2.86v-.874h2.86v.874zm6.11.094q0 1.453-.672 2.344-.657.875-1.782.875-1.203 0-1.859-.86l-.063.735h-.984v-9h1.078v3.36q.657-.813 1.813-.813t1.812.875q.657.86.657 2.39v.094zm-1.079-.125q0-1.11-.437-1.703-.422-.61-1.219-.61-1.078 0-1.547.985v2.75q.5 1 1.547 1 .781 0 1.219-.61.437-.609.437-1.812zM1466.8 107h-1.078v-6.344h1.078V107zm-1.172-8.016q0-.265.156-.453.172-.187.485-.187.312 0 .468.187.172.188.172.453 0 .25-.172.438-.156.172-.468.172-.313 0-.485-.172-.156-.188-.156-.438zm4.469.141v1.531h1.172v.844h-1.172v3.922q0 .39.156.578.156.188.531.188.188 0 .516-.063V107q-.422.125-.828.125-.719 0-1.094-.438-.375-.453-.375-1.265V101.5h-1.156v-.844h1.156v-1.531h1.094zm5.734 8.61h-.922l3.563-9.266h.922l-3.563 9.265zm14.516-.735h-1.125v-3.938h-4.313V107h-1.125v-8.531h1.125v3.672h4.313v-3.672h1.125V107zm1.984-3.234q0-.922.36-1.672.375-.75 1.03-1.14.657-.407 1.485-.407 1.297 0 2.094.89.813.891.813 2.391v.078q0 .922-.36 1.656-.36.735-1.015 1.157-.657.406-1.516.406-1.281 0-2.094-.89-.797-.907-.797-2.391v-.078zm1.094.14q0 1.047.484 1.688.5.64 1.313.64.828 0 1.312-.64.485-.656.485-1.828 0-1.032-.5-1.672-.485-.656-1.313-.656-.797 0-1.297.64-.484.625-.484 1.828zm7.672-4.781v1.531h1.172v.844h-1.172v3.922q0 .39.156.578.156.188.531.188.188 0 .516-.063V107q-.422.125-.828.125-.719 0-1.094-.438-.375-.453-.375-1.265V101.5h-1.156v-.844h1.156v-1.531h1.094zm5.203 4.078q-1.438-.422-2.11-1.031-.656-.61-.656-1.5 0-1 .797-1.656.813-.672 2.11-.672.875 0 1.562.344.688.343 1.063.937.39.594.39 1.313h-1.14q0-.782-.5-1.22-.485-.437-1.375-.437-.829 0-1.297.375-.469.36-.469 1 0 .531.438.89.453.36 1.515.657 1.063.297 1.656.656.61.36.891.844.297.484.297 1.125 0 1.047-.813 1.672-.812.625-2.156.625-.89 0-1.656-.344-.75-.344-1.172-.922-.406-.593-.406-1.328h1.125q0 .766.578 1.219.578.453 1.531.453.89 0 1.36-.36.468-.374.468-1 0-.624-.437-.968-.438-.344-1.594-.672zm4.031.563q0-.922.36-1.672.375-.75 1.03-1.14.657-.407 1.485-.407 1.297 0 2.094.89.813.891.813 2.391v.078q0 .922-.36 1.656-.36.735-1.015 1.157-.657.406-1.516.406-1.281 0-2.094-.89-.797-.907-.797-2.391v-.078zm1.094.14q0 1.047.484 1.688.5.64 1.313.64.828 0 1.312-.64.485-.656.485-1.828 0-1.032-.5-1.672-.485-.656-1.313-.656-.797 0-1.297.64-.484.625-.484 1.828zm9.266-2.281q-.25-.031-.532-.031-1.078 0-1.453.906v4.5h-1.078v-6.344h1.047l.016.735q.53-.844 1.515-.844.313 0 .485.078v1zm2.406-2.5v1.531h1.172v.844h-1.172v3.922q0 .39.156.578.156.188.531.188.188 0 .516-.063V107q-.422.125-.828.125-.719 0-1.094-.438-.375-.453-.375-1.265V101.5h-1.156v-.844h1.156v-1.531h1.094zm5.031 4.469q0 1.312-.344 2.515-.343 1.188-1.062 2.204-.703 1.015-1.469 1.437l-.234-.656q.906-.688 1.453-2.14.547-1.47.562-3.235v-.188q0-1.234-.265-2.297-.25-1.062-.719-1.89-.453-.844-1.031-1.313l.234-.656q.766.422 1.469 1.422.703 1 1.047 2.219.36 1.203.36 2.578z"/>
  <path stroke="red" stroke-width="4" stroke-linecap="butt" d="M1254.8 127.5h12"/>
  <path fill="#757575" d="M1282.347 132h-1.125v-3.938h-4.313V132h-1.125v-8.531h1.125v3.672h4.313v-3.672h1.125V132zm2.437 0v-8.531h2.422q1.11 0 1.953.5.86.484 1.328 1.39.47.907.47 2.094v.531q0 1.22-.47 2.125-.453.907-1.328 1.391-.859.484-2 .5h-2.375zm1.125-7.61v6.688h1.188q1.297 0 2.015-.797.735-.812.735-2.312v-.5q0-1.453-.688-2.25-.672-.813-1.937-.828h-1.313zm13.86-.921v.906h-.203q-1.266.031-2.016.766-.75.718-.875 2.03.688-.765 1.844-.765 1.11 0 1.781.781.672.782.672 2.032 0 1.312-.719 2.11-.719.796-1.937.796-1.22 0-1.985-.938-.75-.953-.75-2.437v-.406q0-2.36 1-3.61t2.985-1.265h.203zm-1.422 3.844q-.563 0-1.031.328-.47.328-.657.843v.391q0 1.063.47 1.703.484.64 1.187.64.734 0 1.156-.53.422-.547.422-1.422 0-.875-.422-1.407-.422-.546-1.125-.546zm5.734-.11h.813q.781-.016 1.218-.406.438-.39.438-1.063 0-1.5-1.5-1.5-.703 0-1.125.407-.406.406-.406 1.062h-1.094q0-1.016.734-1.687.75-.672 1.891-.672 1.203 0 1.89.64.688.641.688 1.782 0 .562-.36 1.078-.359.515-.984.781.703.219 1.078.734.391.516.391 1.266 0 1.14-.75 1.828-.75.672-1.953.672-1.188 0-1.953-.656-.75-.656-.75-1.719h1.094q0 .672.437 1.078.438.406 1.188.406.78 0 1.187-.406.422-.422.422-1.187 0-.735-.453-1.125-.453-.407-1.328-.422h-.813v-.89zm10.782 1.156q0 1.907-.657 2.844-.64.922-2.031.922-1.36 0-2.016-.906-.656-.906-.687-2.719v-1.438q0-1.89.64-2.796.657-.922 2.047-.922 1.375 0 2.032.89.656.875.671 2.72v1.405zm-1.094-1.484q0-1.375-.39-2-.376-.64-1.22-.64-.828 0-1.218.64-.375.625-.375 1.922v1.734q0 1.375.39 2.047.407.656 1.219.656.797 0 1.188-.625.39-.625.406-1.953v-1.781zm15.218 2.188q-.078 1.406-.718 2.234-.625.828-1.688.828-1.093 0-1.406-1-.313.5-.719.75-.406.25-.843.25-.829 0-1.266-.688-.422-.687-.313-1.875.094-.968.438-1.718.36-.766.922-1.203.562-.438 1.172-.438.484 0 .859.125t.844.5l-.313 3.25q-.11 1.344.75 1.344.672 0 1.078-.656.407-.657.438-1.703.125-2.282-.844-3.47-.953-1.202-2.906-1.202-1.188 0-2.11.578-.906.578-1.437 1.687-.516 1.094-.578 2.547-.078 1.453.344 2.531.421 1.063 1.28 1.625.876.563 2.095.563.53 0 1.062-.125.531-.125.875-.344l.219.688q-.36.218-.969.359-.594.156-1.203.156-1.469 0-2.531-.656-1.047-.656-1.578-1.906-.516-1.235-.454-2.89.079-1.61.72-2.892.655-1.296 1.765-2 1.125-.703 2.515-.703 1.47 0 2.5.657 1.047.656 1.547 1.906.516 1.234.453 2.89zm-6.015.5q-.078.828.156 1.28.235.438.75.438.36 0 .672-.297.328-.297.547-.859v-.047l.265-2.953q-.328-.172-.703-.172-.672 0-1.125.703-.453.688-.562 1.906zm14.094 2.437h-1.079v-7.219l-2.187.797v-.984l3.11-1.172h.156V132zm3.578-.563q0-.28.156-.468.172-.188.5-.188.344 0 .516.188.171.187.171.469 0 .265-.171.453-.172.172-.516.172-.328 0-.5-.172-.156-.188-.156-.453zm6.422.563h-1.079v-7.219l-2.187.797v-.984l3.11-1.172h.156V132zm13.03-1.125q-.437.625-1.218.938-.781.312-1.812.312-1.032 0-1.844-.484-.813-.5-1.25-1.407-.438-.906-.453-2.093v-.735q0-1.937.89-3 .907-1.062 2.532-1.062 1.343 0 2.156.687.812.688 1 1.938h-1.125q-.328-1.688-2.016-1.688-1.14 0-1.718.797-.579.781-.594 2.297v.688q0 1.437.656 2.296.656.844 1.781.844.625 0 1.094-.14.484-.141.797-.485v-1.906h-1.969v-.922h3.094v3.125zm8.25 1.125h-1.124v-3.938h-4.313V132h-1.125v-8.531h1.125v3.672h4.313v-3.672h1.125V132zm3.298-.89h3.703v.89h-5.031v-.797l3.5-4.64h-3.454v-.907h4.813v.766l-3.531 4.687zm7.937-2.579q0-1.312.344-2.531.36-1.219 1.063-2.219.703-1 1.468-1.406l.219.719q-.86.656-1.406 2-.547 1.344-.594 3.015l-.016.5q0 2.266.828 3.922.5 1 1.188 1.563l-.219.656q-.781-.422-1.5-1.453-1.375-1.984-1.375-4.766zm7.032 1.969l2.437-7.031h1.234l-3.172 8.531h-.984l-3.156-8.531h1.219l2.421 7.031zm11.187-7.031v5.797q-.016 1.203-.766 1.984-.75.766-2.03.86l-.313.015q-1.391 0-2.235-.75-.828-.766-.828-2.094v-5.812h1.11v5.781q0 .922.5 1.438.515.515 1.453.515.968 0 1.468-.516.5-.515.5-1.437v-5.781h1.141zm3.125 7.61h4.047V132h-5.188v-8.531h1.141v7.61zm7.031-3.048l-1.047 1.078V132h-1.125v-8.531h1.125v4.219l3.797-4.22h1.36l-3.36 3.766 3.625 4.766h-1.343l-3.032-3.969zm10.547 1.735h-3.578l-.797 2.234h-1.156l3.25-8.531h.984l3.266 8.531h-1.156l-.813-2.234zm-3.234-.922h2.906l-1.453-3.985-1.453 3.985zm13.078 3.156h-1.125l-4.297-6.578V132h-1.14v-8.531h1.14l4.297 6.61v-6.61h1.125V132zm5.484.734h-.922l3.563-9.265h.922l-3.563 9.265zm9.25-5.53h.813q.781-.016 1.218-.407.438-.39.438-1.063 0-1.5-1.5-1.5-.703 0-1.125.407-.406.406-.406 1.062h-1.094q0-1.016.734-1.687.75-.672 1.891-.672 1.203 0 1.89.64.688.641.688 1.782 0 .562-.36 1.078-.359.515-.984.781.703.219 1.078.734.391.516.391 1.266 0 1.14-.75 1.828-.75.672-1.953.672-1.188 0-1.953-.656-.75-.656-.75-1.719h1.094q0 .672.437 1.078.438.406 1.188.406.78 0 1.187-.406.422-.422.422-1.187 0-.735-.453-1.125-.453-.407-1.328-.422h-.813v-.89zm11.016 4.796h-5.594v-.781l2.953-3.281q.657-.75.907-1.204.25-.468.25-.968 0-.672-.407-1.094-.39-.438-1.078-.438-.797 0-1.25.47-.453.452-.453 1.28h-1.078q0-1.187.75-1.906.765-.734 2.031-.734 1.203 0 1.89.625.688.625.688 1.672 0 1.25-1.61 3l-2.28 2.468h4.28V132zm3.781-3.188h-2.86v-.875h2.86v.876zm6.11.094q0 1.453-.672 2.344-.657.875-1.782.875-1.203 0-1.859-.86l-.063.735h-.984v-9h1.078v3.36q.657-.813 1.813-.813t1.812.875q.657.86.657 2.39v.094zm-1.079-.125q0-1.11-.437-1.703-.422-.61-1.219-.61-1.078 0-1.547.985v2.75q.5 1 1.547 1 .781 0 1.219-.61.437-.609.437-1.812zM1466.8 132h-1.078v-6.344h1.078V132zm-1.172-8.016q0-.265.156-.453.172-.187.485-.187.312 0 .468.187.172.188.172.453 0 .25-.172.438-.156.172-.468.172-.313 0-.485-.172-.156-.188-.156-.438zm4.469.141v1.531h1.172v.844h-1.172v3.922q0 .39.156.578.156.188.531.188.188 0 .516-.063V132q-.422.125-.828.125-.719 0-1.094-.438-.375-.453-.375-1.265V126.5h-1.156v-.844h1.156v-1.531h1.094zm5.734 8.61h-.922l3.563-9.266h.922l-3.563 9.265zm14.516-.735h-1.125v-3.938h-4.313V132h-1.125v-8.531h1.125v3.672h4.313v-3.672h1.125V132zm1.984-3.234q0-.922.36-1.672.375-.75 1.03-1.14.657-.407 1.485-.407 1.297 0 2.094.89.813.891.813 2.391v.078q0 .922-.36 1.656-.36.735-1.015 1.157-.657.406-1.516.406-1.281 0-2.094-.89-.797-.907-.797-2.391v-.078zm1.094.14q0 1.047.484 1.688.5.64 1.313.64.828 0 1.312-.64.485-.656.485-1.828 0-1.032-.5-1.672-.485-.656-1.313-.656-.797 0-1.297.64-.484.625-.484 1.828zm7.672-4.781v1.531h1.172v.844h-1.172v3.922q0 .39.156.578.156.188.531.188.188 0 .516-.063V132q-.422.125-.828.125-.719 0-1.094-.438-.375-.453-.375-1.265V126.5h-1.156v-.844h1.156v-1.531h1.094zm5.203 4.078q-1.438-.422-2.11-1.031-.656-.61-.656-1.5 0-1 .797-1.656.813-.672 2.11-.672.875 0 1.562.344.688.343 1.063.937.39.594.39 1.313h-1.14q0-.782-.5-1.22-.485-.437-1.375-.437-.829 0-1.297.375-.469.36-.469 1 0 .531.438.89.453.36 1.515.657 1.063.297 1.656.656.61.36.891.844.297.484.297 1.125 0 1.047-.813 1.672-.812.625-2.156.625-.89 0-1.656-.344-.75-.344-1.172-.922-.406-.593-.406-1.328h1.125q0 .766.578 1.219.578.453 1.531.453.89 0 1.36-.36.468-.374.468-1 0-.624-.437-.968-.438-.344-1.594-.672zm4.031.563q0-.922.36-1.672.375-.75 1.03-1.14.657-.407 1.485-.407 1.297 0 2.094.89.813.891.813 2.391v.078q0 .922-.36 1.656-.36.735-1.015 1.157-.657.406-1.516.406-1.281 0-2.094-.89-.797-.907-.797-2.391v-.078zm1.094.14q0 1.047.484 1.688.5.64 1.313.64.828 0 1.312-.64.485-.656.485-1.828 0-1.032-.5-1.672-.485-.656-1.313-.656-.797 0-1.297.64-.484.625-.484 1.828zm9.266-2.281q-.25-.031-.532-.031-1.078 0-1.453.906v4.5h-1.078v-6.344h1.047l.016.735q.53-.844 1.515-.844.313 0 .485.078v1zm2.406-2.5v1.531h1.172v.844h-1.172v3.922q0 .39.156.578.156.188.531.188.188 0 .516-.063V132q-.422.125-.828.125-.719 0-1.094-.438-.375-.453-.375-1.265V126.5h-1.156v-.844h1.156v-1.531h1.094zm5.031 4.469q0 1.312-.344 2.515-.343 1.188-1.062 2.203-.703 1.016-1.469 1.438l-.234-.656q.906-.688 1.453-2.14.547-1.47.562-3.235v-.188q0-1.234-.265-2.297-.25-1.062-.719-1.89-.453-.844-1.031-1.313l.234-.656q.766.422 1.469 1.422.703 1 1.047 2.219.36 1.203.36 2.578z"/>
  <path stroke="#0f0" stroke-width="4" stroke-linecap="butt" d="M1254.8 152.5h12"/>
  <path fill="#757575" d="M1282.347 157h-1.125v-3.938h-4.313V157h-1.125v-8.531h1.125v3.672h4.313v-3.672h1.125V157zm2.437 0v-8.531h2.422q1.11 0 1.953.5.86.484 1.328 1.39.47.907.47 2.094v.531q0 1.22-.47 2.125-.453.907-1.328 1.391-.859.484-2 .5h-2.375zm1.125-7.61v6.688h1.188q1.297 0 2.015-.797.735-.812.735-2.312v-.5q0-1.453-.688-2.25-.672-.813-1.937-.828h-1.313zm13.86-.921v.906h-.203q-1.266.031-2.016.766-.75.718-.875 2.03.688-.765 1.844-.765 1.11 0 1.781.781.672.782.672 2.032 0 1.312-.719 2.11-.719.796-1.937.796-1.22 0-1.985-.938-.75-.953-.75-2.437v-.406q0-2.36 1-3.61t2.985-1.265h.203zm-1.422 3.844q-.563 0-1.031.328-.47.328-.657.843v.391q0 1.063.47 1.703.484.64 1.187.64.734 0 1.156-.53.422-.547.422-1.422 0-.875-.422-1.407-.422-.547-1.125-.547zm5.734-.11h.813q.781-.016 1.218-.406.438-.39.438-1.063 0-1.5-1.5-1.5-.703 0-1.125.407-.406.406-.406 1.062h-1.094q0-1.016.734-1.687.75-.672 1.891-.672 1.203 0 1.89.64.688.641.688 1.782 0 .562-.36 1.078-.359.515-.984.781.703.219 1.078.734.391.516.391 1.266 0 1.14-.75 1.828-.75.672-1.953.672-1.188 0-1.953-.656-.75-.656-.75-1.719h1.094q0 .672.437 1.078.438.406 1.188.406.78 0 1.187-.406.422-.422.422-1.187 0-.735-.453-1.125-.453-.407-1.328-.422h-.813v-.89zm10.782 1.156q0 1.907-.657 2.844-.64.922-2.031.922-1.36 0-2.016-.906-.656-.906-.687-2.719v-1.438q0-1.89.64-2.796.657-.922 2.047-.922 1.375 0 2.032.89.656.875.671 2.72v1.405zm-1.094-1.484q0-1.375-.39-2-.376-.64-1.22-.64-.828 0-1.218.64-.375.625-.375 1.922v1.734q0 1.375.39 2.047.407.656 1.219.656.797 0 1.188-.625.39-.625.406-1.953v-1.781zm15.218 2.188q-.078 1.406-.718 2.234-.625.828-1.688.828-1.093 0-1.406-1-.313.5-.719.75-.406.25-.843.25-.829 0-1.266-.688-.422-.687-.313-1.875.094-.968.438-1.718.36-.766.922-1.203.562-.438 1.172-.438.484 0 .859.125t.844.5l-.313 3.25q-.11 1.344.75 1.344.672 0 1.078-.656.407-.657.438-1.703.125-2.282-.844-3.47-.953-1.202-2.906-1.202-1.188 0-2.11.578-.906.578-1.437 1.687-.516 1.094-.578 2.547-.078 1.453.344 2.531.421 1.063 1.28 1.625.876.563 2.095.563.53 0 1.062-.125.531-.125.875-.344l.219.688q-.36.218-.969.359-.594.156-1.203.156-1.469 0-2.531-.656-1.047-.656-1.578-1.906-.516-1.235-.454-2.89.079-1.61.72-2.892.655-1.296 1.765-2 1.125-.703 2.515-.703 1.47 0 2.5.657 1.047.656 1.547 1.906.516 1.234.453 2.89zm-6.015.5q-.078.828.156 1.28.235.438.75.438.36 0 .672-.297.328-.297.547-.859v-.047l.265-2.953q-.328-.172-.703-.172-.672 0-1.125.703-.453.688-.562 1.906zm14.094 2.437h-1.079v-7.219l-2.187.797v-.984l3.11-1.172h.156V157zm3.578-.563q0-.28.156-.468.172-.188.5-.188.344 0 .516.188.171.187.171.469 0 .265-.171.453-.172.172-.516.172-.328 0-.5-.172-.156-.188-.156-.453zm6.422.563h-1.079v-7.219l-2.187.797v-.984l3.11-1.172h.156V157zm13.03-1.125q-.437.625-1.218.938-.781.312-1.812.312-1.032 0-1.844-.484-.813-.5-1.25-1.407-.438-.906-.453-2.093v-.735q0-1.937.89-3 .907-1.062 2.532-1.062 1.343 0 2.156.687.812.688 1 1.938h-1.125q-.328-1.688-2.016-1.688-1.14 0-1.718.797-.579.781-.594 2.297v.688q0 1.437.656 2.296.656.844 1.781.844.625 0 1.094-.14.484-.141.797-.485v-1.906h-1.969v-.922h3.094v3.125zm8.25 1.125h-1.124v-3.938h-4.313V157h-1.125v-8.531h1.125v3.672h4.313v-3.672h1.125V157zm3.298-.89h3.703v.89h-5.031v-.797l3.5-4.64h-3.454v-.907h4.813v.766l-3.531 4.687zm7.937-2.579q0-1.312.344-2.531.36-1.219 1.063-2.219.703-1 1.468-1.406l.219.719q-.86.656-1.406 2-.547 1.344-.594 3.015l-.016.5q0 2.266.828 3.922.5 1 1.188 1.563l-.219.656q-.781-.422-1.5-1.453-1.375-1.984-1.375-4.766zm10.766-.515q0 1.25-.422 2.187-.422.922-1.203 1.422-.766.5-1.797.5-1 0-1.781-.5-.782-.5-1.219-1.406-.422-.922-.438-2.14v-.61q0-1.235.422-2.172.438-.938 1.22-1.438.78-.515 1.796-.515t1.797.5q.781.5 1.203 1.437.422.938.422 2.188v.547zm-1.11-.563q0-1.516-.609-2.328-.61-.813-1.703-.813-1.078 0-1.688.813-.609.813-.625 2.25v.64q0 1.47.61 2.313.625.828 1.703.828 1.094 0 1.688-.781.609-.797.624-2.281v-.64zm3.672 1.203V157h-1.125v-8.531h3.157q1.39 0 2.187.719.797.703.797 1.89 0 1.234-.781 1.906-.766.672-2.219.672h-2.016zm0-.922h2.032q.906 0 1.375-.422.484-.421.484-1.218 0-.766-.484-1.219-.47-.469-1.313-.484h-2.094v3.343zm11.703.328h-3.703v3.016h4.297V157h-5.422v-8.531h5.375v.922h-4.25v2.75h3.703v.922zm8.735 3.938h-1.125l-4.297-6.578V157h-1.14v-8.531h1.14l4.297 6.61v-6.61h1.125V157zm8.719-2.703q-.157 1.344-1 2.094-.844.734-2.235.734-1.515 0-2.422-1.078-.906-1.094-.906-2.922v-.813q0-1.187.422-2.093.422-.906 1.203-1.39.781-.485 1.797-.485 1.36 0 2.172.765.828.766.969 2.094h-1.125q-.157-1.016-.641-1.469-.484-.453-1.375-.453-1.078 0-1.688.797-.609.797-.609 2.266v.828q0 1.39.578 2.219.578.812 1.625.812.938 0 1.438-.422.5-.437.672-1.484h1.125zm2.859 1.781h4.047V157h-5.188v-8.531h1.141v7.61zm7.906 1.656h-.922l3.563-9.265h.922l-3.563 9.265zm11.938-9.265v.906h-.203q-1.266.031-2.016.766-.75.718-.875 2.03.688-.765 1.844-.765 1.11 0 1.781.781.672.782.672 2.032 0 1.312-.719 2.11-.719.796-1.937.796-1.22 0-1.985-.938-.75-.953-.75-2.437v-.406q0-2.36 1-3.61t2.985-1.265h.203zm-1.422 3.844q-.563 0-1.031.328-.47.328-.657.843v.391q0 1.063.47 1.703.484.64 1.187.64.734 0 1.156-.53.422-.547.422-1.422 0-.875-.422-1.407-.422-.547-1.125-.547zm8.734 1.828h1.188v.875h-1.188V157h-1.078v-1.984h-3.89v-.641l3.812-5.906h1.156v5.672zm-3.734 0h2.656v-4.188l-.14.234-2.516 3.954zm8.531-.328h-2.86v-.875h2.86v.875zm6.11.093q0 1.453-.672 2.344-.657.875-1.782.875-1.203 0-1.859-.86l-.063.735h-.984v-9h1.078v3.36q.657-.813 1.813-.813t1.812.875q.657.86.657 2.39v.094zm-1.079-.125q0-1.11-.437-1.703-.422-.61-1.219-.61-1.078 0-1.547.985v2.75q.5 1 1.547 1 .781 0 1.219-.61.437-.609.437-1.812zM1465.8 157h-1.078v-6.344h1.078V157zm-1.172-8.016q0-.265.156-.453.172-.187.485-.187.312 0 .468.187.172.188.172.453 0 .25-.172.438-.156.172-.468.172-.313 0-.485-.172-.156-.188-.156-.438zm4.469.141v1.531h1.172v.844h-1.172v3.922q0 .39.156.578.156.188.531.188.188 0 .516-.063V157q-.422.125-.828.125-.719 0-1.094-.438-.375-.453-.375-1.265V151.5h-1.156v-.844h1.156v-1.531h1.094zm5.734 8.61h-.922l3.563-9.266h.922l-3.563 9.265zm14.516-.735h-1.125v-3.938h-4.313V157h-1.125v-8.531h1.125v3.672h4.313v-3.672h1.125V157zm1.984-3.234q0-.922.36-1.672.375-.75 1.03-1.14.657-.407 1.485-.407 1.297 0 2.094.89.813.891.813 2.391v.078q0 .922-.36 1.656-.36.735-1.015 1.157-.657.406-1.516.406-1.281 0-2.094-.89-.797-.907-.797-2.391v-.078zm1.094.14q0 1.047.484 1.688.5.64 1.313.64.828 0 1.312-.64.485-.656.485-1.828 0-1.032-.5-1.672-.485-.656-1.313-.656-.797 0-1.297.64-.484.625-.484 1.828zm7.672-4.781v1.531h1.172v.844h-1.172v3.922q0 .39.156.578.156.188.531.188.188 0 .516-.063V157q-.422.125-.828.125-.719 0-1.094-.438-.375-.453-.375-1.265V151.5h-1.156v-.844h1.156v-1.531h1.094zm5.203 4.078q-1.438-.422-2.11-1.031-.656-.61-.656-1.5 0-1 .797-1.656.813-.672 2.11-.672.875 0 1.562.344.688.343 1.063.937.39.594.39 1.313h-1.14q0-.782-.5-1.22-.485-.437-1.375-.437-.829 0-1.297.375-.469.36-.469 1 0 .531.438.89.453.36 1.515.657 1.063.297 1.656.656.61.36.891.844.297.484.297 1.125 0 1.047-.813 1.672-.812.625-2.156.625-.89 0-1.656-.344-.75-.344-1.172-.922-.406-.593-.406-1.328h1.125q0 .766.578 1.219.578.453 1.531.453.89 0 1.36-.36.468-.374.468-1 0-.624-.437-.968-.438-.344-1.594-.672zm4.031.563q0-.922.36-1.672.375-.75 1.03-1.14.657-.407 1.485-.407 1.297 0 2.094.89.813.891.813 2.391v.078q0 .922-.36 1.656-.36.735-1.015 1.157-.657.406-1.516.406-1.281 0-2.094-.89-.797-.907-.797-2.391v-.078zm1.094.14q0 1.047.484 1.688.5.64 1.313.64.828 0 1.312-.64.485-.656.485-1.828 0-1.032-.5-1.672-.485-.656-1.313-.656-.797 0-1.297.64-.484.625-.484 1.828zm9.266-2.281q-.25-.031-.532-.031-1.078 0-1.453.906v4.5h-1.078v-6.344h1.047l.016.735q.53-.844 1.515-.844.313 0 .485.078v1zm2.406-2.5v1.531h1.172v.844h-1.172v3.922q0 .39.156.578.156.188.531.188.188 0 .516-.063V157q-.422.125-.828.125-.719 0-1.094-.438-.375-.453-.375-1.265V151.5h-1.156v-.844h1.156v-1.531h1.094zm5.031 4.469q0 1.312-.344 2.515-.343 1.188-1.062 2.203-.703 1.016-1.469 1.438l-.234-.656q.906-.688 1.453-2.14.547-1.47.562-3.235v-.188q0-1.234-.265-2.297-.25-1.062-.719-1.89-.453-.844-1.031-1.313l.234-.656q.766.422 1.469 1.422.703 1 1.047 2.219.36 1.203.36 2.578z"/>
  <path stroke="#00f" stroke-width="4" stroke-linecap="butt" d="M1254.8 177.5h12"/>
  <path fill="#757575" d="M1282.347 182h-1.125v-3.938h-4.313V182h-1.125v-8.531h1.125v3.672h4.313v-3.672h1.125V182zm2.437 0v-8.531h2.422q1.11 0 1.953.5.86.484 1.328 1.39.47.907.47 2.094v.531q0 1.22-.47 2.125-.453.907-1.328 1.391-.859.484-2 .5h-2.375zm1.125-7.61v6.688h1.188q1.297 0 2.015-.797.735-.812.735-2.312v-.5q0-1.453-.688-2.25-.672-.813-1.937-.828h-1.313zm13.86-.921v.906h-.203q-1.266.031-2.016.766-.75.718-.875 2.03.688-.765 1.844-.765 1.11 0 1.781.781.672.782.672 2.032 0 1.312-.719 2.11-.719.796-1.937.796-1.22 0-1.985-.938-.75-.953-.75-2.437v-.406q0-2.36 1-3.61t2.985-1.265h.203zm-1.422 3.844q-.563 0-1.031.328-.47.328-.657.843v.391q0 1.063.47 1.703.484.64 1.187.64.734 0 1.156-.53.422-.547.422-1.422 0-.875-.422-1.407-.422-.547-1.125-.547zm5.734-.11h.813q.781-.016 1.218-.406.438-.39.438-1.063 0-1.5-1.5-1.5-.703 0-1.125.407-.406.406-.406 1.062h-1.094q0-1.016.734-1.687.75-.672 1.891-.672 1.203 0 1.89.64.688.641.688 1.782 0 .562-.36 1.078-.359.515-.984.781.703.219 1.078.734.391.516.391 1.266 0 1.14-.75 1.828-.75.672-1.953.672-1.188 0-1.953-.656-.75-.656-.75-1.719h1.094q0 .672.437 1.078.438.406 1.188.406.78 0 1.187-.406.422-.422.422-1.187 0-.735-.453-1.125-.453-.407-1.328-.422h-.813v-.89zm10.782 1.156q0 1.907-.657 2.844-.64.922-2.031.922-1.36 0-2.016-.906-.656-.906-.687-2.719v-1.438q0-1.89.64-2.796.657-.922 2.047-.922 1.375 0 2.032.89.656.875.671 2.72v1.405zm-1.094-1.484q0-1.375-.39-2-.376-.64-1.22-.64-.828 0-1.218.64-.375.625-.375 1.922v1.734q0 1.375.39 2.047.407.656 1.219.656.797 0 1.188-.625.39-.625.406-1.953v-1.781zm15.218 2.188q-.078 1.406-.718 2.234-.625.828-1.688.828-1.093 0-1.406-1-.313.5-.719.75-.406.25-.843.25-.829 0-1.266-.688-.422-.687-.313-1.875.094-.968.438-1.718.36-.766.922-1.203.562-.438 1.172-.438.484 0 .859.125t.844.5l-.313 3.25q-.11 1.344.75 1.344.672 0 1.078-.656.407-.657.438-1.703.125-2.282-.844-3.47-.953-1.202-2.906-1.202-1.188 0-2.11.578-.906.578-1.437 1.687-.516 1.094-.578 2.547-.078 1.453.344 2.531.421 1.063 1.28 1.625.876.563 2.095.563.53 0 1.062-.125.531-.125.875-.344l.219.688q-.36.218-.969.359-.594.156-1.203.156-1.469 0-2.531-.656-1.047-.656-1.578-1.906-.516-1.235-.454-2.89.079-1.61.72-2.892.655-1.296 1.765-2 1.125-.703 2.515-.703 1.47 0 2.5.657 1.047.656 1.547 1.906.516 1.234.453 2.89zm-6.015.5q-.078.828.156 1.28.235.438.75.438.36 0 .672-.297.328-.297.547-.859v-.047l.265-2.953q-.328-.172-.703-.172-.672 0-1.125.703-.453.688-.562 1.906zm14.094 2.437h-1.079v-7.219l-2.187.797v-.984l3.11-1.172h.156V182zm3.578-.563q0-.28.156-.468.172-.188.5-.188.344 0 .516.188.171.187.171.469 0 .265-.171.453-.172.172-.516.172-.328 0-.5-.172-.156-.188-.156-.453zm6.422.563h-1.079v-7.219l-2.187.797v-.984l3.11-1.172h.156V182zm13.03-1.125q-.437.625-1.218.938-.781.312-1.812.312-1.032 0-1.844-.484-.813-.5-1.25-1.407-.438-.906-.453-2.093v-.735q0-1.937.89-3 .907-1.062 2.532-1.062 1.343 0 2.156.687.812.688 1 1.938h-1.125q-.328-1.688-2.016-1.688-1.14 0-1.718.797-.579.781-.594 2.297v.688q0 1.437.656 2.296.656.844 1.781.844.625 0 1.094-.14.484-.141.797-.485v-1.906h-1.969v-.922h3.094v3.125zm8.25 1.125h-1.124v-3.938h-4.313V182h-1.125v-8.531h1.125v3.672h4.313v-3.672h1.125V182zm3.298-.89h3.703v.89h-5.031v-.797l3.5-4.64h-3.454v-.907h4.813v.766l-3.531 4.687zm7.937-2.579q0-1.312.344-2.531.36-1.219 1.063-2.219.703-1 1.468-1.406l.219.719q-.86.656-1.406 2-.547 1.344-.594 3.015l-.016.5q0 2.266.828 3.922.5 1 1.188 1.563l-.219.656q-.781-.422-1.5-1.453-1.375-1.984-1.375-4.766zm10.766-.515q0 1.25-.422 2.187-.422.922-1.203 1.422-.766.5-1.797.5-1 0-1.781-.5-.782-.5-1.219-1.406-.422-.922-.438-2.14v-.61q0-1.235.422-2.172.438-.938 1.22-1.438.78-.515 1.796-.515t1.797.5q.781.5 1.203 1.437.422.938.422 2.188v.547zm-1.11-.563q0-1.516-.609-2.328-.61-.813-1.703-.813-1.078 0-1.688.813-.609.813-.625 2.25v.64q0 1.47.61 2.313.625.828 1.703.828 1.094 0 1.688-.781.609-.797.624-2.281v-.64zm3.672 1.203V182h-1.125v-8.531h3.157q1.39 0 2.187.719.797.703.797 1.89 0 1.234-.781 1.906-.766.672-2.219.672h-2.016zm0-.922h2.032q.906 0 1.375-.422.484-.421.484-1.218 0-.766-.484-1.219-.47-.469-1.313-.484h-2.094v3.343zm11.703.328h-3.703v3.016h4.297V182h-5.422v-8.531h5.375v.922h-4.25v2.75h3.703v.922zm8.735 3.938h-1.125l-4.297-6.578V182h-1.14v-8.531h1.14l4.297 6.61v-6.61h1.125V182zm8.719-2.703q-.157 1.344-1 2.094-.844.734-2.235.734-1.515 0-2.422-1.078-.906-1.094-.906-2.922v-.813q0-1.187.422-2.093.422-.906 1.203-1.39.781-.485 1.797-.485 1.36 0 2.172.765.828.766.969 2.094h-1.125q-.157-1.016-.641-1.469-.484-.453-1.375-.453-1.078 0-1.688.797-.609.797-.609 2.266v.828q0 1.39.578 2.219.578.812 1.625.812.938 0 1.438-.422.5-.437.672-1.484h1.125zm2.859 1.781h4.047V182h-5.188v-8.531h1.141v7.61zm7.906 1.656h-.922l3.563-9.265h.922l-3.563 9.265zm9.25-5.53h.813q.781-.017 1.218-.407.438-.39.438-1.063 0-1.5-1.5-1.5-.703 0-1.125.407-.406.406-.406 1.062h-1.094q0-1.016.734-1.687.75-.672 1.891-.672 1.203 0 1.89.64.688.641.688 1.782 0 .562-.36 1.078-.359.515-.984.781.703.219 1.078.734.391.516.391 1.266 0 1.14-.75 1.828-.75.672-1.953.672-1.188 0-1.953-.656-.75-.656-.75-1.719h1.094q0 .672.437 1.078.438.406 1.188.406.78 0 1.187-.406.422-.422.422-1.187 0-.735-.453-1.125-.453-.407-1.328-.422h-.813v-.89zm11.016 4.796h-5.594v-.781l2.953-3.281q.657-.75.907-1.204.25-.468.25-.968 0-.672-.407-1.094-.39-.438-1.078-.438-.797 0-1.25.47-.453.452-.453 1.28h-1.078q0-1.187.75-1.906.765-.734 2.031-.734 1.203 0 1.89.625.688.625.688 1.672 0 1.25-1.61 3l-2.28 2.468h4.28V182zm3.781-3.188h-2.86v-.875h2.86v.875zm6.11.094q0 1.453-.672 2.344-.657.875-1.782.875-1.203 0-1.859-.86l-.063.735h-.984v-9h1.078v3.36q.657-.813 1.813-.813t1.812.875q.657.86.657 2.39v.094zm-1.079-.125q0-1.11-.437-1.703-.422-.61-1.219-.61-1.078 0-1.547.985v2.75q.5 1 1.547 1 .781 0 1.219-.61.437-.609.437-1.812zM1465.8 182h-1.078v-6.344h1.078V182zm-1.172-8.016q0-.265.156-.453.172-.187.485-.187.312 0 .468.187.172.188.172.453 0 .25-.172.438-.156.172-.468.172-.313 0-.485-.172-.156-.188-.156-.438zm4.469.141v1.531h1.172v.844h-1.172v3.922q0 .39.156.578.156.188.531.188.188 0 .516-.063V182q-.422.125-.828.125-.719 0-1.094-.438-.375-.453-.375-1.265V176.5h-1.156v-.844h1.156v-1.531h1.094zm5.734 8.61h-.922l3.563-9.266h.922l-3.563 9.265zm14.516-.735h-1.125v-3.938h-4.313V182h-1.125v-8.531h1.125v3.672h4.313v-3.672h1.125V182zm1.984-3.234q0-.922.36-1.672.375-.75 1.03-1.14.657-.407 1.485-.407 1.297 0 2.094.89.813.891.813 2.391v.078q0 .922-.36 1.656-.36.735-1.015 1.157-.657.406-1.516.406-1.281 0-2.094-.89-.797-.907-.797-2.391v-.078zm1.094.14q0 1.047.484 1.688.5.64 1.313.64.828 0 1.312-.64.485-.656.485-1.828 0-1.032-.5-1.672-.485-.656-1.313-.656-.797 0-1.297.64-.484.625-.484 1.828zm7.672-4.781v1.531h1.172v.844h-1.172v3.922q0 .39.156.578.156.188.531.188.188 0 .516-.063V182q-.422.125-.828.125-.719 0-1.094-.438-.375-.453-.375-1.265V176.5h-1.156v-.844h1.156v-1.531h1.094zm5.203 4.078q-1.438-.422-2.11-1.031-.656-.61-.656-1.5 0-1 .797-1.656.813-.672 2.11-.672.875 0 1.562.344.688.343 1.063.937.39.594.39 1.313h-1.14q0-.782-.5-1.22-.485-.437-1.375-.437-.829 0-1.297.375-.469.36-.469 1 0 .531.438.89.453.36 1.515.657 1.063.297 1.656.656.61.36.891.844.297.484.297 1.125 0 1.047-.813 1.672-.812.625-2.156.625-.89 0-1.656-.344-.75-.344-1.172-.922-.406-.593-.406-1.328h1.125q0 .766.578 1.219.578.453 1.531.453.89 0 1.36-.36.468-.374.468-1 0-.624-.437-.968-.438-.344-1.594-.672zm4.031.563q0-.922.36-1.672.375-.75 1.03-1.14.657-.407 1.485-.407 1.297 0 2.094.89.813.891.813 2.391v.078q0 .922-.36 1.656-.36.735-1.015 1.157-.657.406-1.516.406-1.281 0-2.094-.89-.797-.907-.797-2.391v-.078zm1.094.14q0 1.047.484 1.688.5.64 1.313.64.828 0 1.312-.64.485-.656.485-1.828 0-1.032-.5-1.672-.485-.656-1.313-.656-.797 0-1.297.64-.484.625-.484 1.828zm9.266-2.281q-.25-.031-.532-.031-1.078 0-1.453.906v4.5h-1.078v-6.344h1.047l.016.735q.53-.844 1.515-.844.313 0 .485.078v1zm2.406-2.5v1.531h1.172v.844h-1.172v3.922q0 .39.156.578.156.188.531.188.188 0 .516-.063V182q-.422.125-.828.125-.719 0-1.094-.438-.375-.453-.375-1.265V176.5h-1.156v-.844h1.156v-1.531h1.094zm5.031 4.469q0 1.312-.344 2.515-.343 1.188-1.062 2.203-.703 1.016-1.469 1.438l-.234-.656q.906-.688 1.453-2.14.547-1.47.562-3.235v-.188q0-1.234-.265-2.297-.25-1.062-.719-1.89-.453-.844-1.031-1.313l.234-.656q.766.422 1.469 1.422.703 1 1.047 2.219.36 1.203.36 2.578z"/>
  <path fill="#000" d="M53.84 65.2h-3.39V53.372H37.544V65.2h-3.375V39.606h3.375v11H50.45v-11h3.39V65.2zm4.954-9.688q0-2.796 1.094-5.03 1.109-2.235 3.062-3.438 1.969-1.219 4.484-1.219 3.875 0 6.282 2.687 2.406 2.688 2.406 7.157v.234q0 2.781-1.078 4.984-1.063 2.204-3.047 3.438-1.969 1.234-4.531 1.234-3.86 0-6.266-2.687-2.406-2.703-2.406-7.125v-.235zm3.281.391q0 3.156 1.469 5.078 1.469 1.922 3.922 1.922 2.484 0 3.937-1.937 1.453-1.954 1.453-5.454 0-3.125-1.484-5.062-1.484-1.953-3.938-1.953-2.406 0-3.89 1.922-1.469 1.906-1.469 5.484zm23-14.328v4.61h3.547V48.7h-3.547v11.781q0 1.156.469 1.735.484.562 1.625.562.562 0 1.547-.219V65.2q-1.282.36-2.5.36-2.172 0-3.282-1.313-1.109-1.328-1.109-3.766V48.7h-3.469v-2.516h3.469v-4.609h3.25zm15.64 12.219q-4.343-1.25-6.328-3.063-1.968-1.828-1.968-4.5 0-3.015 2.406-5 2.422-1.984 6.297-1.984 2.625 0 4.687 1.031 2.079 1.016 3.204 2.813 1.14 1.78 1.14 3.921h-3.39q0-2.328-1.485-3.656-1.469-1.328-4.156-1.328-2.5 0-3.906 1.11-1.391 1.093-1.391 3.046 0 1.563 1.328 2.641t4.516 1.984q3.187.891 4.984 1.97 1.813 1.077 2.672 2.53.875 1.438.875 3.391 0 3.11-2.422 4.984-2.422 1.875-6.484 1.875-2.64 0-4.922-1.015-2.281-1.016-3.531-2.766-1.235-1.766-1.235-4h3.39q0 2.328 1.72 3.672 1.718 1.344 4.578 1.344 2.672 0 4.094-1.094 1.421-1.094 1.421-2.969 0-1.875-1.328-2.906-1.312-1.031-4.765-2.031zm12.079 1.718q0-2.796 1.094-5.03 1.109-2.235 3.062-3.438 1.969-1.219 4.484-1.219 3.875 0 6.282 2.687 2.406 2.688 2.406 7.157v.234q0 2.781-1.078 4.984-1.063 2.204-3.047 3.438-1.969 1.234-4.531 1.234-3.86 0-6.266-2.687-2.406-2.703-2.406-7.125v-.235zm3.281.391q0 3.156 1.469 5.078 1.469 1.922 3.922 1.922 2.484 0 3.937-1.937 1.453-1.954 1.453-5.454 0-3.125-1.484-5.062-1.484-1.953-3.938-1.953-2.406 0-3.89 1.922-1.469 1.906-1.469 5.484zm27.781-6.812q-.734-.11-1.594-.11-3.203 0-4.343 2.719v13.5h-3.25V46.184h3.156l.047 2.188q1.61-2.547 4.547-2.547.937 0 1.437.25v3.016zm7.219-7.516v4.61h3.547V48.7h-3.547v11.781q0 1.156.469 1.735.484.562 1.625.562.562 0 1.547-.219V65.2q-1.282.36-2.5.36-2.172 0-3.282-1.313-1.109-1.328-1.109-3.766V48.7h-3.469v-2.516h3.469v-4.609h3.25zM168.169 65.2V39.606h7.234q3.328 0 5.89 1.485 2.579 1.468 3.97 4.203 1.406 2.718 1.421 6.25v1.625q0 3.625-1.406 6.36-1.39 2.718-3.984 4.187-2.594 1.453-6.032 1.484h-7.093zm3.375-22.813v20.047h3.547q3.906 0 6.078-2.422 2.172-2.421 2.172-6.906v-1.5q0-4.36-2.047-6.765-2.047-2.422-5.813-2.454h-3.937zm31.86 20.938q-1.892 2.234-5.579 2.234-3.031 0-4.625-1.765-1.594-1.782-1.61-5.235V46.184h3.25v12.282q0 4.328 3.516 4.328 3.735 0 4.953-2.782V46.184h3.266V65.2h-3.094l-.078-1.875zm17.452-14.234q-.734-.11-1.594-.11-3.203 0-4.343 2.719v13.5h-3.25V46.184h3.156l.047 2.188q1.61-2.547 4.547-2.547.937 0 1.437.25v3.016zM235.403 65.2q-.281-.563-.453-2-2.266 2.36-5.422 2.36-2.812 0-4.61-1.594-1.796-1.594-1.796-4.047 0-2.969 2.25-4.61 2.265-1.64 6.36-1.64h3.155v-1.5q0-1.703-1.015-2.703-1.016-1.016-3-1.016-1.75 0-2.922.875-1.172.875-1.172 2.125h-3.281q0-1.422 1.015-2.75 1.016-1.328 2.735-2.094 1.734-.781 3.812-.781 3.297 0 5.157 1.656 1.859 1.64 1.937 4.516v8.75q0 2.625.656 4.172v.281h-3.406zm-5.39-2.484q1.53 0 2.89-.782 1.375-.797 1.984-2.062v-3.906h-2.546q-5.97 0-5.97 3.5 0 1.53 1.016 2.39 1.016.86 2.625.86zm18.062-21.141v4.61h3.547V48.7h-3.547v11.781q0 1.156.469 1.735.484.562 1.625.562.562 0 1.547-.219V65.2q-1.282.36-2.5.36-2.172 0-3.282-1.313-1.109-1.328-1.109-3.766V48.7h-3.469v-2.516h3.469v-4.609h3.25zM259.2 65.2h-3.25V46.184h3.25V65.2zm-3.516-24.063q0-.796.485-1.343.484-.547 1.422-.547.953 0 1.437.547.5.547.5 1.343 0 .782-.5 1.313-.484.531-1.437.531-.938 0-1.422-.531-.485-.531-.485-1.313zm8.11 14.375q0-2.796 1.094-5.03 1.109-2.235 3.062-3.438 1.969-1.219 4.484-1.219 3.875 0 6.282 2.687 2.406 2.688 2.406 7.157v.234q0 2.781-1.078 4.984-1.063 2.204-3.047 3.438-1.969 1.234-4.531 1.234-3.86 0-6.266-2.687-2.406-2.703-2.406-7.125v-.235zm3.281.391q0 3.156 1.469 5.078 1.469 1.922 3.922 1.922 2.484 0 3.937-1.937 1.453-1.954 1.453-5.454 0-3.125-1.484-5.062-1.485-1.953-3.938-1.953-2.406 0-3.89 1.922-1.469 1.906-1.469 5.484zm21.656-9.719l.11 2.391q2.187-2.75 5.703-2.75 6.031 0 6.078 6.812V65.2h-3.25V52.606q-.016-2.047-.938-3.031-.922-.984-2.875-.984-1.593 0-2.797.843-1.187.844-1.843 2.22V65.2h-3.25V46.184h3.062zm32.703 9.47h-8.578v-2.657h8.578v2.656zm16.36 9.546h-3.375V39.606h3.375V65.2zm26.047 0h-3.391l-12.89-19.719V65.2h-3.391V39.606h3.39l12.922 19.813V39.606h3.36V65.2zm24.015-22.813h-8.234V65.2h-3.344V42.387h-8.219v-2.78h19.797v2.78zm17.781 10.985h-11.093v9.062h12.89V65.2H391.17V39.606h16.094v2.781h-12.72v8.22h11.094v2.765zm8.922 9.062H426.7V65.2h-15.531V39.606h3.39v22.828zm43.516-.593q-1.313 1.859-3.64 2.797-2.329.921-5.423.921-3.125 0-5.562-1.468-2.422-1.47-3.75-4.172-1.313-2.719-1.36-6.282v-2.234q0-5.781 2.704-8.969 2.703-3.187 7.578-3.187 4.015 0 6.453 2.062 2.453 2.047 3 5.797H454.7q-.953-5.078-6.047-5.078-3.406 0-5.156 2.39-1.735 2.376-1.766 6.891v2.094q0 4.313 1.969 6.86 1.969 2.53 5.328 2.53 1.906 0 3.328-.421 1.422-.422 2.36-1.422V55.2h-5.922v-2.75h9.281v9.39zm20.563-8.47h-11.094v9.063h12.89V65.2H464.17V39.606h16.094v2.781h-12.72v8.22h11.094v2.765zM503.84 65.2h-3.391l-12.89-19.719V65.2h-3.391V39.606h3.39l12.922 19.813V39.606h3.36V65.2zm17.953-11.25q-1.016 1.219-2.438 1.953-1.422.734-3.11.734-2.202 0-3.858-1.078-1.641-1.093-2.532-3.078-.89-1.984-.89-4.375 0-2.562.968-4.61.97-2.062 2.766-3.155 1.797-1.094 4.188-1.094 3.796 0 5.984 2.844 2.187 2.843 2.187 7.75v.937q0 7.484-2.953 10.922-2.953 3.422-8.906 3.516h-.64V62.48h.687q4.031-.078 6.187-2.11 2.157-2.03 2.36-6.421zm-5.016 0q1.64 0 3.016-1 1.375-1 2.015-2.484v-1.297q0-3.203-1.39-5.203-1.39-2-3.516-2-2.14 0-3.453 1.64-1.297 1.64-1.297 4.328 0 2.625 1.25 4.328 1.266 1.688 3.375 1.688zm28.656 1.703h-8.578v-2.656h8.578v2.656zm16.625-4.828h2.438q2.312-.047 3.625-1.219 1.312-1.172 1.312-3.187 0-4.5-4.484-4.5-2.11 0-3.36 1.218-1.25 1.204-1.25 3.188h-3.265q0-3.047 2.219-5.063 2.234-2.015 5.656-2.015 3.625 0 5.672 1.922 2.062 1.922 2.062 5.328 0 1.672-1.078 3.234-1.078 1.563-2.937 2.344 2.11.656 3.25 2.203 1.156 1.547 1.156 3.781 0 3.453-2.25 5.485-2.25 2.015-5.86 2.015-3.593 0-5.859-1.953-2.25-1.953-2.25-5.156h3.266q0 2.016 1.312 3.234 1.329 1.22 3.547 1.22 2.344 0 3.594-1.235t1.25-3.532q0-2.234-1.375-3.421-1.36-1.204-3.953-1.235h-2.438v-2.656zM594.091 65.2h-16.766v-2.344l8.86-9.844q1.968-2.234 2.718-3.625.75-1.39.75-2.89 0-2-1.219-3.281-1.203-1.297-3.234-1.297-2.422 0-3.766 1.39-1.343 1.375-1.343 3.844h-3.25q0-3.547 2.265-5.719 2.282-2.187 6.094-2.187 3.578 0 5.64 1.875 2.079 1.875 2.079 4.984 0 3.781-4.813 9l-6.86 7.438h12.845V65.2zm10.343-9.547h-8.578v-2.656h8.578v2.656zm19.329.25q0 4.36-2 7.016-2 2.64-5.375 2.64-3.61 0-5.579-2.562l-.156 2.203h-2.984v-27h3.25v10.078q1.969-2.453 5.422-2.453 3.468 0 5.437 2.625 1.985 2.61 1.985 7.172v.281zm-3.25-.375q0-3.312-1.282-5.125-1.281-1.812-3.687-1.812-3.219 0-4.625 2.984v8.234q1.484 2.985 4.656 2.985 2.328 0 3.625-1.813 1.313-1.812 1.313-5.453zM631.2 65.2h-3.25V46.184h3.25V65.2zm-3.516-24.063q0-.796.485-1.343.484-.547 1.422-.547.953 0 1.437.547.5.547.5 1.343 0 .782-.5 1.313-.484.531-1.437.531-.938 0-1.422-.531-.485-.531-.485-1.313zm13.391.438v4.61h3.547V48.7h-3.547v11.781q0 1.156.469 1.735.484.562 1.625.562.562 0 1.547-.219V65.2q-1.282.36-2.5.36-2.172 0-3.282-1.313-1.109-1.328-1.109-3.766V48.7h-3.469v-2.516h3.469v-4.609h3.25zm15.906 16.75q0-1.844 1.016-3.39 1.031-1.548 3.937-3.61-1.703-2.063-2.28-3.328-.579-1.266-.579-2.516 0-2.922 1.719-4.578 1.719-1.656 4.672-1.656 2.64 0 4.359 1.547 1.719 1.531 1.719 3.875 0 1.547-.781 2.86-.782 1.312-2.735 2.75l-1.875 1.39 5.688 6.797q1.203-2.282 1.203-5.079h2.937q0 4.485-2.172 7.438l3.657 4.375h-3.891l-1.703-2.016q-1.313 1.157-3.063 1.766-1.75.61-3.546.61-3.75 0-6.016-1.985-2.266-2-2.266-5.25zm8.282 4.578q2.578 0 4.718-1.969l-6.234-7.484-.578.422q-2.938 2.172-2.938 4.453 0 2.078 1.344 3.328t3.688 1.25zm-2.938-17.531q0 1.687 2.063 4.219l2.078-1.454q1.203-.843 1.64-1.609.438-.766.438-1.86 0-1.171-.89-1.952-.876-.797-2.204-.797-1.438 0-2.281.984-.844.969-.844 2.469zm38.766-5.781v2.75h-.594q-3.797.078-6.047 2.265-2.25 2.172-2.61 6.125 2.032-2.312 5.516-2.312 3.344 0 5.344 2.36 2 2.343 2 6.077 0 3.953-2.156 6.328-2.156 2.375-5.781 2.375-3.672 0-5.954-2.828-2.28-2.828-2.28-7.265v-1.25q0-7.063 3-10.797 3.015-3.75 8.984-3.828h.578zm-4.266 11.53q-1.672 0-3.078 1t-1.953 2.516v1.188q0 3.172 1.422 5.11 1.422 1.921 3.547 1.921 2.203 0 3.453-1.61 1.265-1.624 1.265-4.234 0-2.64-1.281-4.265-1.266-1.625-3.375-1.625zm25.234 5.485h3.547v2.656h-3.547V65.2h-3.265v-5.938h-11.656v-1.921l11.453-17.735h3.468v17zm-11.234 0h7.969V44.06l-.39.703-7.579 11.844zm24.61-.953h-8.579v-2.656h8.578v2.656zm19.328.25q0 4.36-2 7.016-2 2.64-5.375 2.64-3.61 0-5.579-2.562l-.156 2.203h-2.984v-27h3.25v10.078q1.969-2.453 5.422-2.453 3.468 0 5.437 2.625 1.985 2.61 1.985 7.172v.281zm-3.25-.375q0-3.312-1.282-5.125-1.281-1.812-3.687-1.812-3.219 0-4.625 2.984v8.234q1.484 2.985 4.656 2.985 2.328 0 3.625-1.813 1.313-1.812 1.313-5.453zM762.2 65.2h-3.25V46.184h3.25V65.2zm-3.516-24.063q0-.796.485-1.343.484-.547 1.422-.547.953 0 1.437.547.5.547.5 1.343 0 .782-.5 1.313-.484.531-1.437.531-.938 0-1.422-.531-.485-.531-.485-1.313zm13.391.438v4.61h3.547V48.7h-3.547v11.781q0 1.156.469 1.735.484.562 1.625.562.562 0 1.547-.219V65.2q-1.282.36-2.5.36-2.172 0-3.282-1.313-1.109-1.328-1.109-3.766V48.7h-3.469v-2.516h3.469v-4.609h3.25zm23.594 11.719l-3.125 3.25V65.2h-3.375V39.606h3.375v12.656l11.375-12.656h4.078l-10.078 11.297L808.794 65.2h-4.047l-9.078-11.906zm23.89 12.265q-3.875 0-6.296-2.547-2.422-2.546-2.422-6.796v-.594q0-2.828 1.078-5.047 1.078-2.234 3.015-3.484 1.954-1.266 4.22-1.266 3.702 0 5.75 2.453 2.062 2.438 2.062 6.984v1.36H814.09q.062 2.812 1.64 4.547 1.578 1.734 4 1.734 1.719 0 2.907-.703 1.203-.703 2.109-1.875l1.984 1.547q-2.39 3.687-7.172 3.687zm-.406-17.062q-1.969 0-3.312 1.437-1.328 1.438-1.641 4.016h9.516v-.25q-.141-2.469-1.344-3.828-1.188-1.375-3.219-1.375zm17.735 11.937l4.421-14.25h3.485l-7.64 21.954q-1.782 4.75-5.641 4.75l-.625-.063-1.204-.219v-2.64l.875.062q1.657 0 2.579-.672.921-.656 1.515-2.437l.719-1.938-6.781-18.797h3.547l4.75 14.25zm21.843-.28q0-1.313-1-2.048-.984-.734-3.453-1.25-2.469-.531-3.922-1.265-1.453-.75-2.14-1.766-.688-1.016-.688-2.422 0-2.344 1.969-3.953 1.984-1.625 5.062-1.625 3.235 0 5.235 1.672 2.015 1.672 2.015 4.265h-3.265q0-1.328-1.14-2.296-1.126-.97-2.845-.97-1.78 0-2.78.782-1 .766-1 2.016 0 1.172.921 1.781.938.594 3.375 1.14 2.438.547 3.938 1.297 1.515.75 2.234 1.829.734 1.062.734 2.578 0 2.562-2.047 4.11-2.03 1.53-5.28 1.53-2.282 0-4.048-.812-1.75-.813-2.75-2.266-.984-1.453-.984-3.14h3.25q.094 1.64 1.312 2.609 1.22.953 3.22.953 1.843 0 2.952-.75 1.125-.75 1.125-2z"/>
</svg>
