<svg fill="none" stroke-linecap="square" stroke-miterlimit="10" width="1560" height="624" xmlns="http://www.w3.org/2000/svg">
  <path fill="#fff" d="M0 0h1560v624H0V0z"/>
  <path fill="#fff" d="M0 0h1560v624H0V0z"/>
  <path stroke="#ccc" stroke-linecap="butt" d="M312.5 102.5v404M510.5 102.5v404M707.5 102.5v404M905.5 102.5v404M1102.5 102.5v404"/>
  <path stroke="#e6e6e6" stroke-linecap="butt" d="M273.5 102.5v404M233.5 102.5v404M194.5 102.5v404M154.5 102.5v404M470.5 102.5v404M431.5 102.5v404M391.5 102.5v404M352.5 102.5v404M668.5 102.5v404M628.5 102.5v404M589.5 102.5v404M549.5 102.5v404M865.5 102.5v404M826.5 102.5v404M786.5 102.5v404M747.5 102.5v404M1063.5 102.5v404M1023.5 102.5v404M984.5 102.5v404M944.5 102.5v404M1142.5 102.5v404"/>
  <path stroke="#333" stroke-linecap="butt" d="M123.5 506.5h1027"/>
  <path stroke="#ccc" stroke-linecap="butt" d="M123.5 461.5h1027M123.5 416.5h1027M123.5 372.5h1027M123.5 327.5h1027M123.5 282.5h1027M123.5 237.5h1027M123.5 192.5h1027M123.5 147.5h1027M123.5 102.5h1027"/>
  <clipPath id="a">
    <path d="M123.2 102.5h1027.413v404.3H123.2V102.5z"/>
  </clipPath>
  <path stroke="#0f0" stroke-width="2" stroke-linecap="butt" clip-path="url(#a)" d="M123.2 417.234s5.393-18.7 8.09-25.785c2.697-7.086 5.393-7.284 8.09-16.73 2.696-9.445 5.393-34.977 8.09-39.944 2.696-4.967 5.393 14.05 8.09 10.143 2.696-3.906 5.393-34.45 8.09-33.584 2.696.867 5.393 45.266 8.09 38.786 2.696-6.479 5.392-68.556 8.09-77.661 2.696-9.106 5.392 22.706 8.089 23.027 2.697.32 5.393-24.486 8.09-21.105 2.696 3.382 5.393 38.955 8.09 41.392 2.696 2.436 5.393-25.766 8.09-26.774 2.696-1.008 5.393 19.874 8.09 20.727 2.696.854 5.393-11.659 8.09-15.606 2.696-3.947 5.393 2.317 8.09-8.077 2.696-10.393 5.392-53.224 8.089-54.284 2.697-1.06 5.393 45.72 8.09 47.923 2.697 2.203 5.393-33.81 8.09-34.707 2.696-.897 5.393 33.63 8.09 29.326 2.696-4.304 5.393-54.328 8.09-55.147 2.696-.82 5.393 41.634 8.09 50.232 2.696 8.598 5.393-.144 8.09 1.357 2.696 1.5 5.392 13.632 8.09 7.645 2.696-5.986 5.392-39.468 8.089-43.565 2.697-4.097 5.393 16.973 8.09 18.984 2.696 2.011 5.393-6.01 8.09-6.918 2.696-.909 5.393 4.18 8.09 1.464 2.696-2.716 5.393-16.184 8.09-17.762 2.696-1.578 5.393 9.74 8.09 8.293 2.696-1.447 5.393-15.94 8.09-16.972 2.696-1.031 5.392 12.367 8.09 10.782 2.696-1.586 5.392-25.663 8.089-20.296 2.697 5.366 5.393 45.235 8.09 52.496 2.696 7.26 5.393-8.556 8.09-8.93 2.696-.375 5.393 9.993 8.09 6.684 2.696-3.31 5.393-23.963 8.09-26.54 2.696-2.577 5.393 10.788 8.09 11.077 2.696.29 5.393-8.76 8.09-9.343 2.696-.583 5.392 10.15 8.089 5.849s5.393-30.501 8.09-31.653c2.697-1.151 5.393 20.414 8.09 24.744 2.696 4.328 5.393.467 8.09 1.23 2.696.764 5.393 4.046 8.09 3.352 2.696-.695 5.393-6.255 8.09-7.52 2.696-1.266 5.393 1.383 8.09-.072 2.696-1.456 5.393-7.803 8.09-8.661 2.696-.858 5.392 6.478 8.089 3.513s5.393-20.847 8.09-21.302c2.696-.456 5.393 16.242 8.09 18.57 2.696 2.329 5.393-4.62 8.09-4.6 2.696.021 5.393 3.22 8.09 4.726 2.696 1.507 5.393 3.926 8.09 4.313 2.696.386 5.393-1.296 8.09-1.995 2.696-.7 5.392-1.225 8.09-2.201 2.696-.976 5.392-1.593 8.089-3.657 2.697-2.063 5.393-7.08 8.09-8.724 2.696-1.644 5.393-1.066 8.09-1.14 2.696-.076 5.393.636 8.09.691 2.696.056 5.393.738 8.09-.36 2.696-1.097 5.393-6.877 8.09-6.225 2.696.65 5.392 7.545 8.09 10.134 2.696 2.589 5.392 3.478 8.089 5.4 2.697 1.92 5.393 8.158 8.09 6.127 2.696-2.03 5.393-21.676 8.09-18.31 2.696 3.366 5.393 32.788 8.09 38.507 2.696 5.719 5.393-3.934 8.09-4.196 2.696-.262 5.393 3.325 8.09 2.624 2.696-.701 5.393-5.916 8.09-6.828 2.696-.912 5.392 1.885 8.09 1.356 2.696-.528 5.392-4.547 8.089-4.528 2.697.02 5.393 5.433 8.09 4.645 2.696-.788 5.393-9.646 8.09-9.37 2.696.275 5.393 9.85 8.09 11.023 2.696 1.174 5.393-3.135 8.09-3.98 2.696-.844 5.393.012 8.09-1.087 2.696-1.1 5.393-4.092 8.09-5.507 2.696-1.416 5.392-2.49 8.089-2.983 2.697-.493 5.393.113 8.09.027 2.697-.087 5.393 1.457 8.09-.548 2.696-2.005 5.393-13.15 8.09-11.483 2.696 1.669 5.393 18.53 8.09 21.491 2.696 2.96 5.393-3.695 8.09-3.728 2.696-.033 5.393 4.137 8.09 3.53 2.696-.606 5.392-6.37 8.09-7.169 2.696-.8 5.392 2.565 8.089 2.372 2.697-.193 5.393-2.826 8.09-3.531 2.696-.705 5.393.285 8.09-.7 2.696-.986 5.393-4.616 8.09-5.212 2.696-.596 5.393 2.02 8.09 1.635 2.696-.384 5.393-3.956 8.09-3.944 2.696.012 5.393 3.702 8.09 4.016 2.696.315 5.392-1.86 8.09-2.129 2.696-.27 5.392.73 8.089.512 2.697-.217 5.393-1.26 8.09-1.815 2.696-.554 5.393.512 8.09-1.51 2.696-2.02 5.393-12.389 8.09-10.619 2.696 1.77 5.393 17.837 8.09 21.24 2.696 3.402 5.393-1.058 8.09-.827 2.696.23 5.393 3.248 8.09 2.21 2.696-1.038 5.392-9.041 8.089-8.436 2.697.605 5.393 10.673 8.09 12.066 2.697 1.392 5.393-3.073 8.09-3.71 2.696-.639 5.393.977 8.09-.118 2.696-1.094 5.393-6.72 8.09-6.45 2.696.27 5.393 7.317 8.09 8.068 2.696.75 5.393-3.64 8.09-3.567 2.696.072 5.393 4.383 8.09 3.998 2.696-.385 5.392-5.906 8.089-6.307 2.697-.402 5.393 3.72 8.09 3.899 2.697.178 5.393-2.737 8.09-2.83 2.696-.093 5.393 2.062 8.09 2.273 2.696.211 5.393-2.532 8.09-1.006 2.696 1.526 5.393 8.915 8.09 10.161 2.696 1.246 5.393-2.366 8.09-2.686 2.696-.32 5.392.868 8.09.763 2.696-.104 5.392-1.277 8.089-1.392 2.697-.115 5.393.773 8.09.7 2.696-.071 5.393-.699 8.09-1.131 2.696-.433 5.393-.638 8.09-1.465 2.696-.826 5.393-4.976 8.09-3.495 2.696 1.481 5.393 10.629 8.09 12.38 2.696 1.753 5.392-2.115 8.09-1.868 2.696.247 5.392 3.583 8.089 3.351 2.697-.232 5.393-4.233 8.09-4.744 2.696-.51 5.393 1.74 8.09 1.68 2.696-.06 5.393-1.987 8.09-2.039 2.696-.052 5.393 2.543 8.09 1.725 2.696-.818 8.09-6.63 8.09-6.63"/>
  <path stroke="red" stroke-width="2" stroke-linecap="butt" clip-path="url(#a)" d="M123.2 400.712s5.393-13.278 8.09-21.267c2.697-7.988 5.393-14.529 8.09-26.665 2.696-12.137 5.393-37.102 8.09-46.153 2.696-9.052 5.393-.97 8.09-8.158 2.696-7.188 5.393-27.069 8.09-34.968 2.696-7.899 5.393-2.767 8.09-12.425 2.696-9.659 5.392-41.245 8.09-45.524 2.696-4.28 5.392 21.468 8.089 19.846 2.697-1.621 5.393-28.885 8.09-29.577 2.696-.691 5.393 19.726 8.09 25.426 2.696 5.701 5.393 7.225 8.09 8.778 2.696 1.553 5.393 3.754 8.09.54 2.696-3.216 5.393-12.883 8.09-19.83 2.696-6.946 5.393-15.334 8.09-21.85 2.696-6.515 5.392-21.095 8.089-17.24 2.697 3.854 5.393 37.782 8.09 40.366 2.697 2.585 5.393-20.152 8.09-24.86 2.696-4.707 5.393 1.332 8.09-3.387 2.696-4.718 5.393-28.638 8.09-24.923 2.696 3.716 5.393 37.434 8.09 47.214 2.696 9.78 5.393 11.22 8.09 11.464 2.696.244 5.392-5.702 8.09-10 2.696-4.297 5.392-16.154 8.089-15.786 2.697.369 5.393 16.786 8.09 17.996 2.696 1.21 5.393-7.592 8.09-10.736 2.696-3.145 5.393-4.748 8.09-8.131 2.696-3.383 5.393-9.104 8.09-12.165 2.696-3.06 5.393-3.36 8.09-6.2 2.696-2.838 5.393-10.19 8.09-10.834 2.696-.646 5.392 4.526 8.09 6.962 2.696 2.437 5.392-.985 8.089 7.655s5.393 38.267 8.09 44.186c2.696 5.919 5.393-6.098 8.09-8.67 2.696-2.573 5.393-3.612 8.09-6.766 2.696-3.153 5.393-10.374 8.09-12.155 2.696-1.782 5.393 2.214 8.09 1.464 2.696-.75 5.393-3.914 8.09-5.966 2.696-2.051 5.392-3.337 8.089-6.343 2.697-3.005 5.393-13.505 8.09-11.688 2.697 1.816 5.393 17.42 8.09 22.586 2.696 5.166 5.393 8.227 8.09 8.41 2.696.183 5.393-4.99 8.09-7.313 2.696-2.324 5.393-5.295 8.09-6.631 2.696-1.336 5.393.07 8.09-1.384 2.696-1.454 5.393-5.205 8.09-7.34 2.696-2.135 5.392-3.369 8.089-5.471 2.697-2.103 5.393-10.151 8.09-7.143 2.696 3.008 5.393 22.09 8.09 25.192 2.696 3.103 5.393-6.665 8.09-6.576 2.696.088 5.393 5.053 8.09 7.106 2.696 2.053 5.393 5.141 8.09 5.211 2.696.07 5.393-3.045 8.09-4.788 2.696-1.743 5.392-4.241 8.09-5.67 2.696-1.428 5.392-1.208 8.089-2.901 2.697-1.694 5.393-6.239 8.09-7.26 2.696-1.021 5.393 1.423 8.09 1.132 2.696-.29 5.393-2.216 8.09-2.875 2.696-.659 5.393.205 8.09-1.078 2.696-1.283 5.393-8.56 8.09-6.622 2.696 1.94 5.392 14.982 8.09 18.257 2.696 3.275 5.392 1.861 8.089 1.392 2.697-.468 5.393-2.734 8.09-4.204 2.696-1.47 5.393-10.48 8.09-4.618 2.696 5.86 5.393 33.817 8.09 39.783 2.696 5.965 5.393-2.911 8.09-3.99 2.696-1.077 5.393-1.137 8.09-2.479 2.696-1.342 5.393-4.208 8.09-5.57 2.696-1.363 5.392-1.535 8.09-2.606 2.696-1.07 5.392-3.493 8.089-3.818 2.697-.325 5.393 1.572 8.09 1.869 2.696.296 5.393-1.242 8.09-.09 2.696 1.151 5.393 6.504 8.09 6.999 2.696.494 5.393-3.139 8.09-4.034 2.696-.896 5.393-.414 8.09-1.34 2.696-.924 5.393-3.112 8.09-4.213 2.696-1.1 5.392-1.521 8.089-2.39 2.697-.868 5.393-1.942 8.09-2.82 2.697-.88 5.393-1.407 8.09-2.454 2.696-1.046 5.393-7.874 8.09-3.827 2.696 4.048 5.393 23.884 8.09 28.112 2.696 4.23 5.393-2.334 8.09-2.74 2.696-.406 5.393 1.256 8.09.306 2.696-.951 5.392-4.92 8.09-6.011 2.696-1.092 5.392.2 8.089-.539 2.697-.74 5.393-3.13 8.09-3.9 2.696-.769 5.393.495 8.09-.718 2.696-1.213 5.393-6.008 8.09-6.559 2.696-.55 5.393 3.476 8.09 3.253 2.696-.223 5.393-4.44 8.09-4.591 2.696-.152 5.393 2.887 8.09 3.683 2.696.797 5.392 1.453 8.09 1.096 2.696-.356 5.392-2.478 8.089-3.234 2.697-.756 5.393-.515 8.09-1.303 2.696-.787 5.393-2.334 8.09-3.423 2.696-1.088 5.393-8.643 8.09-3.108 2.696 5.534 5.393 30.909 8.09 36.315 2.696 5.405 5.393-3.542 8.09-3.882 2.696-.34 5.393 2.693 8.09 1.842 2.696-.85 5.392-7.514 8.089-6.945 2.697.57 5.393 9.057 8.09 10.36 2.697 1.302 5.393-2.187 8.09-2.543 2.696-.357 5.393 1.332 8.09.404 2.696-.928 5.393-5.879 8.09-5.975 2.696-.096 5.393 5.348 8.09 5.4 2.696.052 5.393-4.605 8.09-5.085 2.696-.48 5.393 2.798 8.09 2.201 2.696-.597 5.392-5.295 8.089-5.786 2.697-.491 5.393 2.97 8.09 2.84 2.697-.131 5.393-3.803 8.09-3.622 2.696.182 5.393 4.003 8.09 4.708 2.696.705 5.393-2.165 8.09-.476 2.696 1.69 5.393 9.51 8.09 10.61 2.696 1.101 5.393-4.068 8.09-4.006 2.696.061 5.392 4.583 8.09 4.375 2.696-.208 5.392-5.33 8.089-5.624 2.697-.295 5.393 3.736 8.09 3.854 2.696.118 5.393-2.424 8.09-3.144 2.696-.72 5.393-.192 8.09-1.177 2.696-.986 5.393-6.176 8.09-4.735 2.696 1.44 5.393 11.091 8.09 13.378 2.696 2.286 5.392-.244 8.09.341 2.696.585 5.392 3.374 8.089 3.172 2.697-.203 5.393-4.244 8.09-4.385 2.696-.14 5.393 3.438 8.09 3.54 2.696.102 5.393-2.525 8.09-2.929 2.696-.404 5.393 1.15 8.09.503 2.696-.647 8.09-4.384 8.09-4.384"/>
  <path stroke="#00f" stroke-width="2" stroke-linecap="butt" clip-path="url(#a)" d="M123.2 497.663s5.393.1 8.09-.773 5.393-2.996 8.09-4.465c2.696-1.47 5.393-1.262 8.09-4.349 2.696-3.086 5.393-10.844 8.09-14.168 2.696-3.324 5.393-3.94 8.09-5.777 2.696-1.837 5.393-3.387 8.09-5.247 2.696-1.86 5.392-3.947 8.09-5.912 2.696-1.964 5.392-4.025 8.089-5.876 2.697-1.85 5.393-6.676 8.09-5.228 2.696 1.447 5.393 11.65 8.09 13.916 2.696 2.267 5.393.1 8.09-.314 2.696-.415 5.393-.713 8.09-2.174 2.696-1.462 5.393-5.05 8.09-6.595 2.696-1.545 5.393-2.376 8.09-2.677 2.696-.301 5.392 4.802 8.089.871 2.697-3.93 5.393-18.815 8.09-24.455 2.697-5.641 5.393-6.917 8.09-9.39 2.696-2.471 5.393-3.901 8.09-5.444 2.696-1.542 5.393-2.747 8.09-3.81 2.696-1.06 5.393-1.759 8.09-2.56 2.696-.8 5.393-.862 8.09-2.246 2.696-1.383 5.392-4.504 8.09-6.055 2.696-1.552 5.392-2.243 8.089-3.253 2.697-1.009 5.393-2.014 8.09-2.803 2.696-.789 5.393-.98 8.09-1.932 2.696-.952 5.393-2.59 8.09-3.782 2.696-1.192 5.393-2.35 8.09-3.37 2.696-1.019 5.393-7.011 8.09-2.748 2.696 4.263 5.393 22.384 8.09 28.328 2.696 5.943 5.392 6.808 8.09 7.33 2.696.524 5.392-3.543 8.089-4.195 2.697-.651 5.393 1.029 8.09.288 2.696-.742 5.393-3.983 8.09-4.735 2.696-.752 5.393.494 8.09.224 2.696-.27 5.393-1.194 8.09-1.841 2.696-.647 5.393-.761 8.09-2.04 2.696-1.279 5.393-4.745 8.09-5.633 2.696-.888 5.392 1.514 8.089.305 2.697-1.208 5.393-6.145 8.09-7.555 2.697-1.411 5.393-.867 8.09-.908 2.696-.04 5.393 1.202 8.09.665 2.696-.538 5.393-3.793 8.09-3.89 2.696-.098 5.393 3.201 8.09 3.306 2.696.105 5.393-2.565 8.09-2.677 2.696-.113 5.393 1.957 8.09 2.003 2.696.047 5.392-.963 8.089-1.725a69.5 69.5 0 0 0 8.09-2.848c2.696-1.137 5.393-3.504 8.09-3.971 2.696-.467 5.393 1.713 8.09 1.168 2.696-.545 5.393-4.509 8.09-4.438 2.696.07 5.393 4.866 8.09 4.86 2.696-.006 5.393-4.035 8.09-4.896 2.696-.861 5.392-.111 8.09-.27 2.696-.159 5.392-.3 8.089-.683 2.697-.383 5.393-1.061 8.09-1.617 2.696-.555 5.393-1.515 8.09-1.716 2.696-.2 5.393.954 8.09.512 2.696-.442 5.393-2.192 8.09-3.162 2.696-.97 5.393-3.04 8.09-2.66 2.696.38 5.392 4.105 8.09 4.942 2.696.837 5.392.702 8.089.08 2.697-.62 5.393-4.075 8.09-3.809 2.696.267 5.393 4.506 8.09 5.409 2.696.903 5.393.371 8.09.009 2.696-.363 5.393-2.088 8.09-2.183 2.696-.096 5.393 1.638 8.09 1.608 2.696-.03 5.393-.741 8.09-1.788 2.696-1.047 5.392-4.43 8.09-4.492 2.696-.063 5.392 3.468 8.089 4.115 2.697.646 5.393.368 8.09-.234 2.696-.602 5.393-3.083 8.09-3.378 2.696-.295 5.393 1.798 8.09 1.608 2.696-.19 5.393-1.798 8.09-2.75 2.696-.95 5.393-2.531 8.09-2.955 2.696-.424 5.393.236 8.09.413 2.696.177 5.392 1.433 8.089.647s5.393-4.599 8.09-5.364c2.697-.765 5.393.45 8.09.773 2.696.323 5.393 2.017 8.09 1.168 2.696-.85 5.393-5.638 8.09-6.262 2.696-.625 5.393 2.48 8.09 2.515 2.696.036 5.393-1.461 8.09-2.3 2.696-.838 5.392-3.197 8.09-2.73 2.696.465 5.392 5.083 8.089 5.525 2.697.441 5.393-1.987 8.09-2.875 2.696-.888 5.393-2.008 8.09-2.453 2.696-.445 5.393-.375 8.09-.216 2.696.159 5.393 1.737 8.09 1.168 2.696-.569 5.393-4.122 8.09-4.582 2.696-.46 5.393 1.99 8.09 1.824 2.696-.166 5.392-1.2 8.09-2.821 2.696-1.622 5.392-6.756 8.089-6.91 2.697-.152 5.393 5.465 8.09 5.993 2.696.529 5.393-2.44 8.09-2.82 2.696-.381 5.393.477 8.09.538 2.696.062 5.393.18 8.09-.17 2.696-.35 5.393-1.067 8.09-1.932 2.696-.866 5.393-2.553 8.09-3.261 2.696-.709 5.392-.354 8.089-.989s5.393-1.957 8.09-2.82c2.697-.865 5.393-3.036 8.09-2.364 2.696.673 5.393 5.888 8.09 6.397 2.696.51 5.393-2.783 8.09-3.342 2.696-.558 5.393.11 8.09-.009 2.696-.12 5.393-.879 8.09-.71 2.696.17 5.393 2.628 8.09 1.725 2.696-.903 5.392-6.277 8.089-7.142 2.697-.866 5.393 2.153 8.09 1.95 2.697-.204 5.393-2.191 8.09-3.172 2.696-.981 5.393-2.383 8.09-2.714 2.696-.33 5.393.667 8.09.728 2.696.062 5.393.16 8.09-.36 2.696-.519 5.393-2.942 8.09-2.757 2.696.184 5.392 3.583 8.09 3.863 2.696.28 5.392-1.451 8.089-2.183 2.697-.733 5.393-2.176 8.09-2.21 2.696-.035 5.393 1.492 8.09 2.003 2.696.51 5.393 1.35 8.09 1.06 2.696-.29 5.393-2.813 8.09-2.803 2.696.01 5.393 2.951 8.09 2.866 2.696-.085 5.392-3.144 8.09-3.378 2.696-.234 5.392 1.665 8.089 1.977 2.697.311 5.393.028 8.09-.108 2.696-.137 5.393-.104 8.09-.71 2.696-.606 5.393-2.854 8.09-2.929 2.696-.075 5.393-.67 8.09 2.48 2.696 3.15 8.09 16.423 8.09 16.423"/>
  <path stroke="#f0f" stroke-width="2" stroke-linecap="butt" clip-path="url(#a)" d="M123.2 450.757s5.393 34.83 8.09 40.213c2.697 5.383 5.393-5.345 8.09-7.918 2.696-2.573 5.393-4.441 8.09-7.52 2.696-3.078 5.393-7.9 8.09-10.95 2.696-3.05 5.393-4.95 8.09-7.351 2.696-2.4 5.393-4.487 8.09-7.05 2.696-2.563 5.392-5.666 8.09-8.326 2.696-2.66 5.392-5.174 8.089-7.636 2.697-2.462 5.393-5.097 8.09-7.137 2.696-2.04 5.393-1.804 8.09-5.102 2.696-3.3 5.393-10.855 8.09-14.69 2.696-3.836 5.393-5.652 8.09-8.324a316.217 316.217 0 0 1 8.09-7.711c2.696-2.49 5.393-6.406 8.09-7.232 2.696-.825 5.392 3.012 8.089 2.279 2.697-.734 5.393-4.295 8.09-6.682 2.697-2.387 5.393-5.317 8.09-7.64 2.696-2.322 5.393-4.147 8.09-6.294 2.696-2.147 5.393-5.064 8.09-6.588 2.696-1.525 5.393-1.016 8.09-2.56 2.696-1.545 5.393-4.755 8.09-6.707 2.696-1.952 5.392-3.209 8.09-5.004 2.696-1.796 5.392-3.66 8.089-5.768 2.697-2.109 5.393-5.416 8.09-6.883 2.696-1.468 5.393-.572 8.09-1.924 2.696-1.352 5.393-4.072 8.09-6.187 2.696-2.114 5.393-4.5 8.09-6.5 2.696-2 5.393-3.847 8.09-5.5 2.696-1.651 5.393-6.529 8.09-4.412 2.696 2.116 5.392 14.727 8.09 17.11 2.696 2.382 5.392-.751 8.089-2.814 2.697-2.064 5.393-7.83 8.09-9.566 2.696-1.736 5.393.165 8.09-.85 2.696-1.015 5.393-4.148 8.09-5.242a18.345 18.345 0 0 1 8.09-1.326c2.696.158 5.393 2.765 8.09 2.274 2.696-.49 5.393-3.3 8.09-5.22 2.696-1.92 5.392-5.04 8.089-6.3 2.697-1.259 5.393-.646 8.09-1.255 2.697-.608 5.393-1.374 8.09-2.394 2.696-1.02 5.393-3.19 8.09-3.725 2.696-.535 5.393.892 8.09.516 2.696-.376 5.393-1.765 8.09-2.773 2.696-1.008 5.393-3.393 8.09-3.276 2.696.116 5.393 3.087 8.09 3.973 2.696.887 5.392 1.71 8.089 1.347 2.697-.362 5.393-2.672 8.09-3.52 2.696-.848 5.393-1.508 8.09-1.567 2.696-.059 5.393 1.867 8.09 1.213 2.696-.654 5.393-3.821 8.09-5.138 2.696-1.317 5.393-2.027 8.09-2.765 2.696-.737 5.393-.68 8.09-1.66 2.696-.979 5.392-3.377 8.09-4.216 2.696-.84 5.392-.107 8.089-.82 2.697-.715 5.393-2.437 8.09-3.464 2.696-1.027 5.393-2.4 8.09-2.697 2.696-.298 5.393 1.164 8.09.913 2.696-.25 5.393-1.747 8.09-2.417 2.696-.671 5.393-2.836 8.09-1.607 2.696 1.23 5.392 7.45 8.09 8.985 2.696 1.534 5.392.83 8.089.218s5.393-5.942 8.09-3.89c2.696 2.052 5.393 13.351 8.09 16.2 2.696 2.85 5.393 2.472 8.09.894 2.696-1.577 5.393-9.945 8.09-10.356 2.696-.411 5.393 6.783 8.09 7.89 2.696 1.106 5.393.43 8.09-1.252 2.696-1.683 5.392-8.426 8.09-8.847 2.696-.421 5.392 5.628 8.089 6.32 2.697.69 5.393-.088 8.09-2.173 2.696-2.085 5.393-10.444 8.09-10.337 2.696.108 5.393 9.87 8.09 10.981 2.696 1.112 5.393-2.096 8.09-4.309 2.696-2.213 5.393-8.673 8.09-8.969 2.696-.296 5.393 6.33 8.09 7.194 2.696.864 5.392.086 8.089-2.007s5.393-9.93 8.09-10.55c2.697-.62 5.393 6.166 8.09 6.828 2.696.661 5.393-.849 8.09-2.86 2.696-2.01 5.393-8.99 8.09-9.203 2.696-.213 5.393 6.899 8.09 7.926 2.696 1.027 5.393-.818 8.09-1.763 2.696-.944 5.392-4.134 8.09-3.906 2.696.228 5.392 4.737 8.089 5.276 2.697.538 5.393-.724 8.09-2.043 2.696-1.32 5.393-5.895 8.09-5.875 2.696.019 5.393 4.778 8.09 5.99 2.696 1.21 5.393 2.095 8.09 1.276 2.696-.819 5.393-6.13 8.09-6.19 2.696-.063 5.393 4.795 8.09 5.82 2.696 1.025 5.392 1.583 8.09.33 2.696-1.252 5.392-7.905 8.089-7.846 2.697.058 5.393 6.807 8.09 8.199 2.696 1.392 5.393 1.226 8.09.154 2.696-1.073 5.393-6.609 8.09-6.589 2.696.02 5.393 5.542 8.09 6.708 2.696 1.166 5.393.825 8.09.288 2.696-.538 5.393-3.882 8.09-3.514 2.696.367 5.392 4.89 8.089 5.718 2.697.828 5.393.072 8.09-.75 2.697-.823 5.393-4.383 8.09-4.185 2.696.198 5.393 3.84 8.09 5.372 2.696 1.531 5.393 4.034 8.09 3.817 2.696-.216 5.393-5.057 8.09-5.118 2.696-.061 5.393 3.8 8.09 4.752 2.696.951 5.393 1.61 8.09.958 2.696-.652 5.392-4.853 8.089-4.867 2.697-.015 5.393 3.878 8.09 4.779 2.697.9 5.393 1.12 8.09.626 2.696-.495 5.393-3.487 8.09-3.594 2.696-.107 5.393 2.2 8.09 2.95 2.696.75 5.393 1.914 8.09 1.548 2.696-.365 5.393-3.979 8.09-3.74 2.696.24 5.392 4.56 8.09 5.176 2.696.616 5.392-.247 8.089-1.483 2.697-1.236 5.393-5.773 8.09-5.932 2.696-.158 5.393 4.178 8.09 4.98 2.696.801 5.393.49 8.09-.171 2.696-.66 5.393-4.608 8.09-3.792 2.696.817 5.393 7.359 8.09 8.69 2.696 1.33 5.392-.024 8.09-.707 2.696-.683 5.392-3.547 8.089-3.392 2.697.154 5.393 4.167 8.09 4.317 2.696.149 5.393-2.305 8.09-3.422 2.696-1.116 5.393-3.506 8.09-3.279 2.696.227 5.393 3.903 8.09 4.644 2.696.74 8.09-.2 8.09-.2"/>
  <path fill="#424242" d="M617.72 578.862l-2.079 2.172v5.766h-2.25v-17.063h2.25v8.438l7.578-8.438h2.719l-6.719 7.532 7.25 9.531h-2.703l-6.047-7.938zm15.593 8.172q-2.578 0-4.203-1.687-1.61-1.703-1.61-4.531v-.407q0-1.89.72-3.359.718-1.484 2.015-2.328 1.297-.844 2.812-.844 2.469 0 3.828 1.64 1.375 1.626 1.375 4.657v.906h-8.578q.047 1.875 1.094 3.031 1.047 1.157 2.656 1.157 1.157 0 1.953-.469.797-.469 1.391-1.25l1.328 1.031q-1.594 2.453-4.781 2.453zm-.266-11.375q-1.312 0-2.203.97-.89.952-1.11 2.671h6.36v-.172q-.094-1.64-.89-2.547-.797-.922-2.157-.922zm12.157 7.97l2.953-9.517h2.312l-5.094 14.641q-1.187 3.172-3.765 3.172l-.406-.031-.813-.157v-1.765l.594.047q1.094 0 1.703-.453.625-.438 1.016-1.61l.484-1.297-4.516-12.547h2.36l3.172 9.516zm14.234-.188q0-.891-.672-1.375-.656-.485-2.312-.829-1.641-.359-2.61-.843-.969-.5-1.437-1.172-.453-.688-.453-1.625 0-1.563 1.312-2.64 1.328-1.079 3.375-1.079 2.156 0 3.5 1.125 1.344 1.11 1.344 2.844h-2.188q0-.89-.75-1.531-.75-.657-1.906-.657-1.187 0-1.86.516-.656.516-.656 1.36 0 .78.61 1.187.625.39 2.25.75t2.625.875q1.015.5 1.5 1.219.484.703.484 1.718 0 1.703-1.36 2.735-1.359 1.015-3.515 1.015-1.531 0-2.703-.53-1.172-.548-1.844-1.517-.656-.968-.656-2.093h2.172q.062 1.093.875 1.734.812.64 2.156.64 1.219 0 1.969-.5t.75-1.327zM37.137 369.51l13.922-5.579-13.922-5.578v-2.922H54.2v2.25h-6.64l-7.173-.203 13.813 5.594v1.734l-13.781 5.578 7.14-.218H54.2v2.25H37.137v-2.907zm9.125-22.423l2.172 2.079H54.2v2.25H37.137v-2.25h8.438l-8.438-7.579v-2.718l7.532 6.718 9.531-7.25v2.704l-7.938 6.046zm8.172-15.593q0 2.578-1.687 4.203-1.703 1.61-4.531 1.61h-.407q-1.89 0-3.359-.72-1.484-.718-2.328-2.015-.844-1.297-.844-2.813 0-2.468 1.64-3.828 1.626-1.375 4.657-1.375h.906v8.578q1.875-.047 3.031-1.093 1.157-1.047 1.157-2.657 0-1.156-.469-1.953-.469-.797-1.25-1.39l1.031-1.329q2.453 1.594 2.453 4.782zm-11.375.265q0 1.313.97 2.203.952.891 2.671 1.11v-6.36h-.172q-1.64.094-2.547.891-.922.797-.922 2.156zm7.97-12.156l-9.517-2.953v-2.313l14.641 5.094q3.172 1.188 3.172 3.766l-.031.406-.157.813h-1.765l.047-.594q0-1.094-.453-1.703-.438-.625-1.61-1.016l-1.297-.484-12.547 4.515v-2.359l9.516-3.172zm-.188-14.234q-.891 0-1.375.672-.485.656-.829 2.312-.359 1.64-.843 2.61-.5.968-1.172 1.437-.688.453-1.625.453-1.563 0-2.64-1.312-1.079-1.329-1.079-3.375 0-2.157 1.125-3.5 1.11-1.344 2.844-1.344v2.187q-.89 0-1.531.75-.657.75-.657 1.907 0 1.187.516 1.859.516.656 1.36.656.78 0 1.187-.61.39-.624.75-2.25.36-1.624.875-2.624.5-1.016 1.219-1.5.703-.485 1.718-.485 1.703 0 2.735 1.36 1.015 1.36 1.015 3.515 0 1.532-.53 2.704-.548 1.171-1.517 1.843-.968.657-2.093.657v-2.172q1.093-.063 1.734-.875.64-.813.64-2.157 0-1.218-.5-1.968t-1.327-.75zm4.828-5.047v1.86l-18.532-7.126v-1.844l18.532 7.11zm-4.828-16.953q-.891 0-1.375.672-.485.656-.829 2.312-.359 1.64-.843 2.61-.5.968-1.172 1.437-.688.453-1.625.453-1.563 0-2.64-1.312-1.079-1.329-1.079-3.375 0-2.157 1.125-3.5 1.11-1.344 2.844-1.344v2.187q-.89 0-1.531.75-.657.75-.657 1.907 0 1.187.516 1.859.516.656 1.36.656.78 0 1.187-.61.39-.624.75-2.25.36-1.624.875-2.624.5-1.016 1.219-1.5.703-.485 1.718-.485 1.703 0 2.735 1.36 1.015 1.36 1.015 3.515 0 1.532-.53 2.704-.548 1.171-1.517 1.843-.968.657-2.093.657v-2.172q1.093-.063 1.734-.875.64-.813.64-2.157 0-1.218-.5-1.968t-1.327-.75zm3.593-9.875q0 2.578-1.687 4.203-1.703 1.61-4.531 1.61h-.407q-1.89 0-3.359-.72-1.484-.718-2.328-2.015-.844-1.297-.844-2.813 0-2.468 1.64-3.828 1.626-1.375 4.657-1.375h.906v8.578q1.875-.047 3.031-1.093 1.157-1.047 1.157-2.657 0-1.156-.469-1.953-.469-.797-1.25-1.39l1.031-1.329q2.453 1.594 2.453 4.782zm-11.375.265q0 1.313.97 2.203.952.891 2.671 1.11v-6.36h-.172q-1.64.094-2.547.891-.922.797-.922 2.156zm9.61-13.093q0-1.157-.703-2.016-.704-.875-1.766-.969v-2.047q1.094.063 2.078.75.984.688 1.578 1.844.578 1.156.578 2.438 0 2.593-1.718 4.125-1.735 1.53-4.735 1.53h-.375q-1.844 0-3.281-.671-1.453-.688-2.25-1.953-.797-1.281-.797-3.016 0-2.125 1.281-3.531 1.282-1.422 3.313-1.516v2.047q-1.219.094-2.016.938-.797.828-.797 2.062 0 1.656 1.203 2.563 1.188.906 3.438.906h.406q2.188 0 3.375-.89 1.188-.907 1.188-2.594zm.39-7.953q-.562 0-.937-.329-.375-.343-.375-1 0-.671.375-1.015.375-.36.937-.36.547 0 .907.36.359.344.359 1.015 0 .657-.36 1-.359.329-.906.329z"/>
  <path fill="#757575" d="M116.263 507.66q0 1.906-.657 2.843-.64.922-2.031.922-1.36 0-2.016-.906-.656-.906-.687-2.719v-1.438q0-1.89.64-2.796.657-.922 2.047-.922 1.375 0 2.032.89.656.875.672 2.72v1.405zm-1.094-1.485q0-1.375-.39-2-.376-.64-1.22-.64-.828 0-1.218.64-.375.625-.375 1.922v1.734q0 1.375.39 2.047.407.656 1.219.656.797 0 1.188-.625.39-.625.406-1.953v-1.781zM104.403 462.097l.438-4.25h4.375v1h-3.453l-.266 2.328q.64-.375 1.437-.375 1.157 0 1.844.78.688.767.688 2.079 0 1.313-.72 2.078-.702.766-1.983.766-1.126 0-1.844-.625-.719-.64-.813-1.75h1.016q.11.734.531 1.11.422.374 1.11.374.75 0 1.187-.515.438-.516.438-1.422 0-.86-.47-1.375-.468-.516-1.25-.516-.702 0-1.109.297l-.28.234-.876-.218zm11.86.64q0 1.906-.657 2.844-.64.922-2.031.922-1.36 0-2.016-.906-.656-.907-.687-2.72v-1.437q0-1.89.64-2.797.657-.921 2.047-.921 1.375 0 2.032.89.656.875.672 2.719v1.406zm-1.094-1.484q0-1.375-.39-2-.376-.64-1.22-.64-.828 0-1.218.64-.375.625-.375 1.922v1.734q0 1.375.39 2.047.407.656 1.219.656.797 0 1.188-.625.39-.625.406-1.953v-1.781zM100.466 421.456h-1.078v-7.22l-2.188.798v-.985l3.11-1.172h.156v8.579zm8.797-3.641q0 1.906-.657 2.844-.64.922-2.031.922-1.36 0-2.016-.907-.656-.906-.687-2.718v-1.438q0-1.89.64-2.797.657-.922 2.047-.922 1.375 0 2.032.89.656.876.672 2.72v1.406zm-1.094-1.484q0-1.375-.39-2-.376-.641-1.22-.641-.828 0-1.218.64-.375.626-.375 1.922v1.735q0 1.375.39 2.047.407.656 1.219.656.797 0 1.188-.625.39-.625.406-1.953v-1.781zm8.094 1.484q0 1.906-.657 2.844-.64.922-2.031.922-1.36 0-2.016-.907-.656-.906-.687-2.718v-1.438q0-1.89.64-2.797.657-.922 2.047-.922 1.375 0 2.032.89.656.876.672 2.72v1.406zm-1.094-1.484q0-1.375-.39-2-.376-.641-1.22-.641-.828 0-1.218.64-.375.626-.375 1.922v1.735q0 1.375.39 2.047.407.656 1.219.656.797 0 1.188-.625.39-.625.406-1.953v-1.781zM100.466 376.533h-1.078v-7.218l-2.188.796v-.984l3.11-1.172h.156v8.578zm3.937-4.28l.438-4.25h4.375v1h-3.453l-.266 2.327q.64-.375 1.437-.375 1.157 0 1.844.781.688.766.688 2.079 0 1.312-.72 2.078-.702.765-1.983.765-1.126 0-1.844-.625-.719-.64-.813-1.75h1.016q.11.735.531 1.11.422.375 1.11.375.75 0 1.187-.516.438-.516.438-1.422 0-.86-.47-1.375-.468-.515-1.25-.515-.702 0-1.109.296l-.28.235-.876-.219zm11.86.64q0 1.906-.657 2.843-.64.922-2.031.922-1.36 0-2.016-.906-.656-.906-.687-2.719v-1.437q0-1.89.64-2.797.657-.922 2.047-.922 1.375 0 2.032.89.656.876.672 2.72v1.406zm-1.094-1.485q0-1.375-.39-2-.376-.64-1.22-.64-.828 0-1.218.64-.375.625-.375 1.922v1.735q0 1.375.39 2.046.407.657 1.219.657.797 0 1.188-.625.39-.625.406-1.953v-1.782zM102.497 331.611h-5.594v-.781l2.953-3.281q.657-.75.907-1.203.25-.47.25-.97 0-.671-.407-1.093-.39-.438-1.078-.438-.797 0-1.25.47-.453.452-.453 1.28h-1.078q0-1.187.75-1.906.766-.734 2.031-.734 1.203 0 1.89.625.688.625.688 1.672 0 1.25-1.61 3l-2.28 2.469h4.28v.89zm6.766-3.64q0 1.906-.657 2.843-.64.922-2.031.922-1.36 0-2.016-.906-.656-.906-.687-2.719v-1.437q0-1.891.64-2.797.657-.922 2.047-.922 1.375 0 2.032.89.656.875.672 2.72v1.406zm-1.094-1.485q0-1.375-.39-2-.376-.64-1.22-.64-.828 0-1.218.64-.375.625-.375 1.922v1.734q0 1.375.39 2.047.407.656 1.219.656.797 0 1.188-.625.39-.625.406-1.953v-1.78zm8.094 1.485q0 1.906-.657 2.843-.64.922-2.031.922-1.36 0-2.016-.906-.656-.906-.687-2.719v-1.437q0-1.891.64-2.797.657-.922 2.047-.922 1.375 0 2.032.89.656.875.672 2.72v1.406zm-1.094-1.485q0-1.375-.39-2-.376-.64-1.22-.64-.828 0-1.218.64-.375.625-.375 1.922v1.734q0 1.375.39 2.047.407.656 1.219.656.797 0 1.188-.625.39-.625.406-1.953v-1.78zM102.497 286.689h-5.594v-.781l2.953-3.282q.657-.75.907-1.203.25-.468.25-.968 0-.672-.407-1.094-.39-.438-1.078-.438-.797 0-1.25.469-.453.453-.453 1.281h-1.078q0-1.187.75-1.906.766-.734 2.031-.734 1.203 0 1.89.625.688.625.688 1.672 0 1.25-1.61 3l-2.28 2.468h4.28v.89zm1.906-4.281l.438-4.25h4.375v1h-3.453l-.266 2.328q.64-.375 1.437-.375 1.157 0 1.844.781.688.766.688 2.078 0 1.313-.72 2.078-.702.766-1.983.766-1.126 0-1.844-.625-.719-.64-.813-1.75h1.016q.11.734.531 1.11.422.374 1.11.374.75 0 1.187-.515.438-.516.438-1.422 0-.86-.47-1.375-.468-.516-1.25-.516-.702 0-1.109.297l-.28.234-.876-.218zm11.86.64q0 1.907-.657 2.844-.64.922-2.031.922-1.36 0-2.016-.906-.656-.907-.687-2.72v-1.437q0-1.89.64-2.796.657-.922 2.047-.922 1.375 0 2.032.89.656.875.672 2.719v1.406zm-1.094-1.484q0-1.375-.39-2-.376-.64-1.22-.64-.828 0-1.218.64-.375.625-.375 1.922v1.734q0 1.375.39 2.047.407.656 1.219.656.797 0 1.188-.625.39-.625.406-1.953v-1.781zM98.481 236.97h.813q.781-.016 1.219-.406.437-.391.437-1.063 0-1.5-1.5-1.5-.703 0-1.125.406-.406.407-.406 1.063h-1.094q0-1.016.734-1.688.75-.672 1.891-.672 1.203 0 1.89.641.688.64.688 1.781 0 .563-.36 1.078-.359.516-.984.782.704.218 1.079.734.39.516.39 1.266 0 1.14-.75 1.828-.75.672-1.953.672-1.188 0-1.953-.657-.75-.656-.75-1.718h1.094q0 .672.437 1.078.438.406 1.188.406.78 0 1.187-.406.422-.422.422-1.188 0-.734-.453-1.125-.453-.406-1.328-.422h-.813v-.89zm10.782 1.156q0 1.906-.657 2.844-.64.922-2.031.922-1.36 0-2.016-.907-.656-.906-.687-2.718v-1.438q0-1.89.64-2.797.657-.922 2.047-.922 1.375 0 2.032.891.656.875.672 2.719v1.406zm-1.094-1.484q0-1.375-.39-2-.376-.641-1.22-.641-.828 0-1.218.64-.375.626-.375 1.923v1.734q0 1.375.39 2.047.407.656 1.219.656.797 0 1.188-.625.39-.625.406-1.953v-1.781zm8.094 1.484q0 1.906-.657 2.844-.64.922-2.031.922-1.36 0-2.016-.907-.656-.906-.687-2.718v-1.438q0-1.89.64-2.797.657-.922 2.047-.922 1.375 0 2.032.891.656.875.672 2.719v1.406zm-1.094-1.484q0-1.375-.39-2-.376-.641-1.22-.641-.828 0-1.218.64-.375.626-.375 1.923v1.734q0 1.375.39 2.047.407.656 1.219.656.797 0 1.188-.625.39-.625.406-1.953v-1.781zM98.481 192.048h.813q.781-.016 1.219-.407.437-.39.437-1.062 0-1.5-1.5-1.5-.703 0-1.125.406-.406.406-.406 1.063h-1.094q0-1.016.734-1.688.75-.672 1.891-.672 1.203 0 1.89.64.688.641.688 1.782 0 .563-.36 1.078-.359.516-.984.781.704.22 1.079.735.39.515.39 1.265 0 1.141-.75 1.829-.75.671-1.953.671-1.188 0-1.953-.656-.75-.656-.75-1.719h1.094q0 .672.437 1.079.438.406 1.188.406.78 0 1.187-.406.422-.422.422-1.188 0-.734-.453-1.125-.453-.406-1.328-.422h-.813v-.89zm5.922.515l.438-4.25h4.375v1h-3.453l-.266 2.328q.64-.375 1.437-.375 1.157 0 1.844.782.688.765.688 2.078 0 1.312-.72 2.078-.702.765-1.983.765-1.126 0-1.844-.625-.719-.64-.813-1.75h1.016q.11.735.531 1.11.422.375 1.11.375.75 0 1.187-.516.438-.515.438-1.422 0-.859-.47-1.375-.468-.515-1.25-.515-.702 0-1.109.297l-.28.234-.876-.219zm11.86.64q0 1.907-.657 2.845-.64.921-2.031.921-1.36 0-2.016-.906-.656-.906-.687-2.719v-1.437q0-1.89.64-2.797.657-.922 2.047-.922 1.375 0 2.032.89.656.876.672 2.72v1.406zm-1.094-1.484q0-1.375-.39-2-.376-.64-1.22-.64-.828 0-1.218.64-.375.625-.375 1.922v1.735q0 1.375.39 2.047.407.656 1.219.656.797 0 1.188-.625.39-.625.406-1.953v-1.782zM101.481 149.063h1.188v.875h-1.188v1.984h-1.078v-1.984h-3.89v-.64l3.812-5.907h1.156v5.672zm-3.734 0h2.656v-4.188l-.14.235-2.516 3.953zm11.516-.781q0 1.906-.657 2.843-.64.922-2.031.922-1.36 0-2.016-.906-.656-.906-.687-2.719v-1.437q0-1.89.64-2.797.657-.922 2.047-.922 1.375 0 2.032.89.656.876.672 2.72v1.406zm-1.094-1.485q0-1.375-.39-2-.376-.64-1.22-.64-.828 0-1.218.64-.375.625-.375 1.922v1.734q0 1.375.39 2.047.407.657 1.219.657.797 0 1.188-.625.39-.625.406-1.954v-1.78zm8.094 1.485q0 1.906-.657 2.843-.64.922-2.031.922-1.36 0-2.016-.906-.656-.906-.687-2.719v-1.437q0-1.89.64-2.797.657-.922 2.047-.922 1.375 0 2.032.89.656.876.672 2.72v1.406zm-1.094-1.485q0-1.375-.39-2-.376-.64-1.22-.64-.828 0-1.218.64-.375.625-.375 1.922v1.734q0 1.375.39 2.047.407.657 1.219.657.797 0 1.188-.625.39-.625.406-1.954v-1.78zM101.481 104.14h1.188v.876h-1.188V107h-1.078v-1.984h-3.89v-.641l3.812-5.906h1.156v5.672zm-3.734 0h2.656v-4.187l-.14.234-2.516 3.954zm6.656-1.421l.438-4.25h4.375v1h-3.453l-.266 2.328q.64-.375 1.437-.375 1.157 0 1.844.781.688.766.688 2.078 0 1.313-.72 2.078-.702.766-1.983.766-1.126 0-1.844-.625-.719-.64-.813-1.75h1.016q.11.734.531 1.11.422.374 1.11.374.75 0 1.187-.515.438-.516.438-1.422 0-.86-.47-1.375-.468-.516-1.25-.516-.702 0-1.109.297l-.28.234-.876-.218zm11.86.64q0 1.907-.657 2.844-.64.922-2.031.922-1.36 0-2.016-.906-.656-.906-.687-2.719v-1.438q0-1.89.64-2.796.657-.922 2.047-.922 1.375 0 2.032.89.656.875.672 2.72v1.405zm-1.094-1.484q0-1.375-.39-2-.376-.64-1.22-.64-.828 0-1.218.64-.375.625-.375 1.922v1.734q0 1.375.39 2.047.407.656 1.219.656.797 0 1.188-.625.39-.625.406-1.953v-1.781zM296.32 520.519l.437-4.25h4.375v1h-3.453l-.265 2.328q.64-.375 1.437-.375 1.156 0 1.844.781.687.766.687 2.078 0 1.313-.718 2.078-.704.766-1.985.766-1.125 0-1.844-.625-.718-.64-.812-1.75h1.016q.109.734.53 1.11.423.374 1.11.374.75 0 1.188-.515.437-.516.437-1.422 0-.86-.469-1.375-.468-.516-1.25-.516-.703 0-1.109.297l-.281.234-.875-.218zm11.86.64q0 1.907-.657 2.844-.64.922-2.031.922-1.36 0-2.016-.906-.656-.907-.687-2.719v-1.438q0-1.89.64-2.796.656-.922 2.047-.922 1.375 0 2.031.89.657.875.672 2.72v1.405zm-1.095-1.484q0-1.375-.39-2-.375-.64-1.219-.64-.828 0-1.219.64-.375.625-.375 1.922v1.734q0 1.375.39 2.047.407.656 1.22.656.797 0 1.187-.625t.406-1.953v-1.781zm8.094 1.484q0 1.907-.656 2.844-.64.922-2.031.922-1.36 0-2.016-.906-.656-.907-.687-2.719v-1.438q0-1.89.64-2.796.656-.922 2.047-.922 1.375 0 2.031.89.657.875.672 2.72v1.405zm-1.094-1.484q0-1.375-.39-2-.375-.64-1.219-.64-.828 0-1.219.64-.375.625-.375 1.922v1.734q0 1.375.39 2.047.407.656 1.22.656.797 0 1.187-.625t.406-1.953v-1.781zm8.094 1.484q0 1.907-.656 2.844-.64.922-2.031.922-1.36 0-2.016-.906-.656-.907-.687-2.719v-1.438q0-1.89.64-2.796.656-.922 2.047-.922 1.375 0 2.031.89.657.875.672 2.72v1.405zm-1.094-1.484q0-1.375-.39-2-.375-.64-1.219-.64-.828 0-1.219.64-.375.625-.375 1.922v1.734q0 1.375.39 2.047.407.656 1.22.656.797 0 1.187-.625t.406-1.953v-1.781zm8.094 1.484q0 1.907-.656 2.844-.64.922-2.031.922-1.36 0-2.016-.906-.656-.907-.687-2.719v-1.438q0-1.89.64-2.796.656-.922 2.047-.922 1.375 0 2.031.89.657.875.672 2.72v1.405zm-1.094-1.484q0-1.375-.39-2-.375-.64-1.219-.64-.828 0-1.219.64-.375.625-.375 1.922v1.734q0 1.375.39 2.047.407.656 1.22.656.797 0 1.187-.625t.406-1.953v-1.781zM493.389 524.8h-1.078v-7.219l-2.188.797v-.984l3.11-1.172h.156v8.578zm8.797-3.64q0 1.906-.656 2.843-.641.922-2.032.922-1.36 0-2.015-.906-.657-.907-.688-2.719v-1.438q0-1.89.64-2.796.657-.922 2.048-.922 1.375 0 2.03.89.657.875.673 2.72v1.405zm-1.094-1.485q0-1.375-.39-2-.376-.64-1.22-.64-.828 0-1.218.64-.375.625-.375 1.922v1.734q0 1.375.39 2.047.407.656 1.22.656.796 0 1.187-.625.39-.625.406-1.953v-1.781zm8.094 1.484q0 1.907-.656 2.844-.641.922-2.032.922-1.36 0-2.015-.906-.657-.907-.688-2.719v-1.438q0-1.89.64-2.796.657-.922 2.048-.922 1.375 0 2.03.89.657.875.673 2.72v1.405zm-1.094-1.484q0-1.375-.39-2-.376-.64-1.22-.64-.828 0-1.218.64-.375.625-.375 1.922v1.734q0 1.375.39 2.047.407.656 1.22.656.796 0 1.187-.625.39-.625.406-1.953v-1.781zm8.094 1.484q0 1.907-.656 2.844-.641.922-2.032.922-1.36 0-2.015-.906-.657-.907-.688-2.719v-1.438q0-1.89.64-2.796.657-.922 2.048-.922 1.375 0 2.03.89.657.875.673 2.72v1.405zm-1.094-1.484q0-1.375-.39-2-.376-.64-1.22-.64-.827 0-1.218.64-.375.625-.375 1.922v1.734q0 1.375.39 2.047.407.656 1.22.656.796 0 1.187-.625.39-.625.406-1.953v-1.781zm8.094 1.484q0 1.907-.656 2.844-.641.922-2.032.922-1.36 0-2.015-.906-.657-.907-.688-2.719v-1.438q0-1.89.64-2.796.657-.922 2.048-.922 1.375 0 2.03.89.657.875.673 2.72v1.405zm-1.094-1.484q0-1.375-.39-2-.376-.64-1.22-.64-.827 0-1.218.64-.375.625-.375 1.922v1.734q0 1.375.39 2.047.407.656 1.22.656.796 0 1.187-.625.39-.625.406-1.953v-1.781zm8.094 1.484q0 1.907-.656 2.844-.641.922-2.032.922-1.36 0-2.015-.906-.657-.907-.688-2.719v-1.438q0-1.89.64-2.796.657-.922 2.048-.922 1.375 0 2.03.89.657.875.673 2.72v1.405zm-1.094-1.484q0-1.375-.39-2-.376-.64-1.22-.64-.827 0-1.218.64-.375.625-.375 1.922v1.734q0 1.375.39 2.047.407.656 1.22.656.796 0 1.187-.625.39-.625.406-1.953v-1.781zM690.895 524.8h-1.078v-7.219l-2.187.797v-.984l3.11-1.172h.155v8.578zm3.938-4.281l.437-4.25h4.375v1h-3.453l-.265 2.328q.64-.375 1.437-.375 1.156 0 1.844.781.687.766.687 2.078 0 1.313-.718 2.078-.703.766-1.985.766-1.125 0-1.843-.625-.72-.64-.813-1.75h1.016q.11.734.53 1.11.423.374 1.11.374.75 0 1.188-.515.437-.516.437-1.422 0-.86-.468-1.375-.47-.516-1.25-.516-.704 0-1.11.297l-.281.234-.875-.218zm11.86.64q0 1.907-.657 2.844-.64.922-2.031.922-1.36 0-2.016-.906-.656-.907-.687-2.719v-1.438q0-1.89.64-2.796.657-.922 2.047-.922 1.375 0 2.031.89.657.875.672 2.72v1.405zm-1.094-1.484q0-1.375-.391-2-.375-.64-1.219-.64-.828 0-1.219.64-.375.625-.375 1.922v1.734q0 1.375.391 2.047.406.656 1.219.656.797 0 1.187-.625t.407-1.953v-1.781zm8.093 1.484q0 1.907-.656 2.844-.64.922-2.031.922-1.36 0-2.016-.906-.656-.907-.687-2.719v-1.438q0-1.89.64-2.796.657-.922 2.047-.922 1.375 0 2.031.89.657.875.672 2.72v1.405zm-1.093-1.484q0-1.375-.391-2-.375-.64-1.219-.64-.828 0-1.219.64-.375.625-.375 1.922v1.734q0 1.375.391 2.047.406.656 1.219.656.797 0 1.187-.625t.407-1.953v-1.781zm8.093 1.484q0 1.907-.656 2.844-.64.922-2.031.922-1.36 0-2.016-.906-.656-.907-.687-2.719v-1.438q0-1.89.64-2.796.657-.922 2.047-.922 1.375 0 2.031.89.657.875.672 2.72v1.405zm-1.093-1.484q0-1.375-.391-2-.375-.64-1.219-.64-.828 0-1.219.64-.375.625-.375 1.922v1.734q0 1.375.391 2.047.406.656 1.219.656.797 0 1.187-.625t.407-1.953v-1.781zm8.093 1.484q0 1.907-.656 2.844-.64.922-2.031.922-1.36 0-2.016-.906-.656-.907-.687-2.719v-1.438q0-1.89.64-2.796.657-.922 2.047-.922 1.375 0 2.031.89.657.875.672 2.72v1.405zm-1.093-1.484q0-1.375-.391-2-.375-.64-1.219-.64-.828 0-1.219.64-.375.625-.375 1.922v1.734q0 1.375.391 2.047.406.656 1.219.656.797 0 1.187-.625t.407-1.953v-1.781zM890.433 524.8h-5.593v-.781l2.953-3.282q.656-.75.906-1.203.25-.468.25-.968 0-.672-.406-1.094-.391-.438-1.078-.438-.797 0-1.25.47-.454.452-.454 1.28h-1.078q0-1.187.75-1.906.766-.734 2.032-.734 1.203 0 1.89.625.688.625.688 1.672 0 1.25-1.61 3l-2.281 2.468h4.281v.891zm6.766-3.64q0 1.906-.656 2.843-.641.922-2.032.922-1.359 0-2.015-.906-.656-.907-.688-2.719v-1.438q0-1.89.64-2.796.657-.922 2.048-.922 1.375 0 2.031.89.656.875.672 2.72v1.405zm-1.094-1.485q0-1.375-.39-2-.375-.64-1.22-.64-.827 0-1.218.64-.375.625-.375 1.922v1.734q0 1.375.39 2.047.407.656 1.22.656.796 0 1.187-.625.39-.625.406-1.953v-1.781zm8.094 1.484q0 1.907-.656 2.844-.641.922-2.032.922-1.359 0-2.015-.906-.656-.907-.688-2.719v-1.438q0-1.89.64-2.796.657-.922 2.048-.922 1.375 0 2.031.89.656.875.672 2.72v1.405zm-1.094-1.484q0-1.375-.39-2-.375-.64-1.22-.64-.827 0-1.218.64-.375.625-.375 1.922v1.734q0 1.375.39 2.047.407.656 1.22.656.796 0 1.187-.625.39-.625.406-1.953v-1.781zm8.094 1.484q0 1.907-.656 2.844-.641.922-2.032.922-1.359 0-2.015-.906-.656-.907-.688-2.719v-1.438q0-1.89.64-2.796.657-.922 2.048-.922 1.375 0 2.031.89.656.875.672 2.72v1.405zm-1.094-1.484q0-1.375-.39-2-.375-.64-1.22-.64-.827 0-1.218.64-.375.625-.375 1.922v1.734q0 1.375.39 2.047.407.656 1.22.656.796 0 1.187-.625.39-.625.406-1.953v-1.781zm8.094 1.484q0 1.907-.656 2.844-.641.922-2.032.922-1.359 0-2.015-.906-.656-.907-.688-2.719v-1.438q0-1.89.64-2.796.657-.922 2.048-.922 1.375 0 2.031.89.656.875.672 2.72v1.405zm-1.094-1.484q0-1.375-.39-2-.375-.64-1.22-.64-.827 0-1.218.64-.375.625-.375 1.922v1.734q0 1.375.39 2.047.407.656 1.22.656.796 0 1.187-.625.39-.625.406-1.953v-1.781zm8.094 1.484q0 1.907-.656 2.844-.641.922-2.032.922-1.359 0-2.015-.906-.656-.907-.688-2.719v-1.438q0-1.89.64-2.796.657-.922 2.048-.922 1.375 0 2.031.89.656.875.672 2.72v1.405zm-1.094-1.484q0-1.375-.39-2-.375-.64-1.22-.64-.827 0-1.218.64-.375.625-.375 1.922v1.734q0 1.375.39 2.047.407.656 1.22.656.796 0 1.187-.625.39-.625.406-1.953v-1.781zM1087.94 524.8h-5.594v-.781l2.953-3.282q.656-.75.906-1.203.25-.468.25-.968 0-.672-.406-1.094-.39-.438-1.078-.438-.797 0-1.25.47-.453.452-.453 1.28h-1.078q0-1.187.75-1.906.765-.734 2.031-.734 1.203 0 1.89.625.688.625.688 1.672 0 1.25-1.61 3l-2.28 2.468h4.28v.891zm1.906-4.281l.438-4.25h4.375v1h-3.454l-.265 2.328q.64-.375 1.437-.375 1.157 0 1.844.781.688.766.688 2.078 0 1.313-.72 2.078-.702.766-1.984.766-1.125 0-1.843-.625-.719-.64-.813-1.75h1.016q.11.734.531 1.11.422.374 1.11.374.75 0 1.187-.515.437-.516.437-1.422 0-.86-.468-1.375-.469-.516-1.25-.516-.703 0-1.11.297l-.28.234-.876-.218zm11.86.64q0 1.907-.657 2.844-.64.922-2.031.922-1.36 0-2.016-.906-.656-.907-.687-2.719v-1.438q0-1.89.64-2.796.657-.922 2.047-.922 1.375 0 2.032.89.656.875.671 2.72v1.405zm-1.094-1.484q0-1.375-.39-2-.376-.64-1.22-.64-.828 0-1.218.64-.375.625-.375 1.922v1.734q0 1.375.39 2.047.406.656 1.219.656.797 0 1.187-.625.391-.625.407-1.953v-1.781zm8.093 1.484q0 1.907-.656 2.844-.64.922-2.031.922-1.36 0-2.016-.906-.656-.907-.687-2.719v-1.438q0-1.89.64-2.796.657-.922 2.047-.922 1.375 0 2.032.89.656.875.671 2.72v1.405zm-1.093-1.484q0-1.375-.39-2-.376-.64-1.22-.64-.828 0-1.218.64-.375.625-.375 1.922v1.734q0 1.375.39 2.047.406.656 1.219.656.797 0 1.187-.625.391-.625.407-1.953v-1.781zm8.093 1.484q0 1.907-.656 2.844-.64.922-2.031.922-1.36 0-2.016-.906-.656-.907-.687-2.719v-1.438q0-1.89.64-2.796.657-.922 2.047-.922 1.375 0 2.032.89.656.875.671 2.72v1.405zm-1.093-1.484q0-1.375-.39-2-.376-.64-1.22-.64-.828 0-1.218.64-.375.625-.375 1.922v1.734q0 1.375.39 2.047.406.656 1.219.656.797 0 1.187-.625.391-.625.407-1.953v-1.781zm8.093 1.484q0 1.907-.656 2.844-.64.922-2.031.922-1.36 0-2.016-.906-.656-.907-.687-2.719v-1.438q0-1.89.64-2.796.657-.922 2.047-.922 1.375 0 2.032.89.656.875.671 2.72v1.405zm-1.093-1.484q0-1.375-.39-2-.376-.64-1.22-.64-.828 0-1.218.64-.375.625-.375 1.922v1.734q0 1.375.39 2.047.406.656 1.219.656.797 0 1.187-.625.391-.625.407-1.953v-1.781z"/>
  <path stroke="#0f0" stroke-width="4" stroke-linecap="butt" d="M1183.8 102.5h12"/>
  <path fill="#757575" d="M1211.3 103.016q0 1.234-.39 2.125-.391.89-1.094 1.39l1.515 1.203-.765.704-1.797-1.422q-.422.109-.89.109-1 0-1.782-.5-.781-.5-1.219-1.406-.422-.922-.437-2.14v-.61q0-1.235.421-2.172.438-.938 1.22-1.438.78-.515 1.78-.515 1.032 0 1.813.5.781.5 1.203 1.437.422.938.422 2.188v.547zm-1.125-.563q0-1.5-.594-2.312-.593-.829-1.718-.829-1.063 0-1.672.813-.61.813-.625 2.25v.64q0 1.454.609 2.297.61.844 1.703.844 1.094 0 1.688-.781.593-.797.609-2.281v-.64zm6.36 3.922q-.626.75-1.86.75-1.016 0-1.547-.594-.531-.594-.531-1.75v-4.125h1.078v4.094q0 1.453 1.172 1.453 1.25 0 1.656-.937v-4.61h1.094V107h-1.031l-.032-.625zm7 .625q-.094-.188-.157-.672-.75.797-1.797.797-.937 0-1.547-.531-.593-.531-.593-1.36 0-.984.75-1.53.75-.548 2.125-.548h1.046v-.5q0-.562-.343-.89-.328-.344-1-.344-.578 0-.969.297-.39.281-.39.703h-1.094q0-.484.328-.922.343-.438.922-.688.578-.265 1.265-.265 1.11 0 1.719.547.625.547.656 1.5v2.922q0 .875.219 1.39V107h-1.14zm-1.798-.828q.516 0 .97-.266.452-.265.655-.687v-1.297h-.843q-2 0-2 1.172 0 .5.343.797.344.28.875.28zm4.625-2.39q0-1.47.688-2.344.688-.891 1.813-.891 1.109 0 1.765.75V98h1.078v9h-1l-.047-.688q-.656.813-1.812.813-1.094 0-1.797-.906-.688-.906-.688-2.36v-.078zm1.079.124q0 1.078.437 1.688.453.61 1.235.61 1.03 0 1.515-.938v-2.907q-.484-.89-1.5-.89-.797 0-1.25.61-.437.609-.437 1.827zm9.25-2.281q-.25-.031-.532-.031-1.078 0-1.453.906v4.5h-1.078v-6.344h1.047l.016.735q.53-.844 1.515-.844.313 0 .485.078v1zm.64 2.14q0-.921.36-1.671.375-.75 1.03-1.14.657-.407 1.485-.407 1.297 0 2.094.89.813.891.813 2.391v.078q0 .922-.36 1.656-.36.735-1.015 1.157-.657.406-1.516.406-1.281 0-2.094-.89-.797-.907-.797-2.391v-.078zm1.094.141q0 1.047.484 1.688.5.64 1.313.64.828 0 1.312-.64.485-.656.485-1.828 0-1.032-.5-1.672-.485-.656-1.313-.656-.797 0-1.297.64-.484.625-.484 1.828zm10.813-5.437l2.796 6.953 2.782-6.953h1.468V107h-1.125v-3.328l.11-3.578-2.813 6.906h-.86l-2.796-6.89.11 3.562V107h-1.126v-8.531h1.453zm11.828 8.531h-1.079v-7.219l-2.187.797v-.984l3.11-1.172h.156V107zm9.03 0h-5.593v-.781l2.953-3.281q.657-.75.907-1.204.25-.468.25-.968 0-.672-.407-1.094-.39-.438-1.078-.438-.797 0-1.25.47-.453.452-.453 1.28h-1.078q0-1.187.75-1.906.765-.734 2.031-.734 1.203 0 1.89.625.688.625.688 1.672 0 1.25-1.61 3l-2.28 2.468h4.28V107zm6.766-3.64q0 1.906-.656 2.843-.64.922-2.031.922-1.36 0-2.016-.906-.656-.906-.687-2.719v-1.438q0-1.89.64-2.796.657-.922 2.047-.922 1.375 0 2.032.89.656.875.671 2.72v1.405zm-1.093-1.485q0-1.375-.39-2-.376-.64-1.22-.64-.828 0-1.218.64-.375.625-.375 1.922v1.734q0 1.375.39 2.047.407.656 1.219.656.797 0 1.188-.625.39-.625.406-1.953v-1.781zm8.093 1.484q0 1.907-.656 2.844-.64.922-2.031.922-1.36 0-2.016-.906-.656-.906-.687-2.719v-1.438q0-1.89.64-2.796.657-.922 2.047-.922 1.375 0 2.032.89.656.875.671 2.72v1.405zm-1.093-1.484q0-1.375-.39-2-.376-.64-1.22-.64-.828 0-1.218.64-.375.625-.375 1.922v1.734q0 1.375.39 2.047.407.656 1.219.656.797 0 1.188-.625.39-.625.406-1.953v-1.781zm15.218 2.188q-.078 1.406-.718 2.234-.625.828-1.688.828-1.093 0-1.406-1-.313.5-.719.75-.406.25-.843.25-.829 0-1.266-.688-.422-.687-.313-1.874.094-.97.438-1.72.36-.765.922-1.202.562-.438 1.172-.438.484 0 .859.125t.844.5l-.313 3.25q-.11 1.344.75 1.344.672 0 1.078-.656.407-.657.438-1.704.125-2.28-.844-3.468-.953-1.203-2.906-1.203-1.188 0-2.11.578-.906.578-1.437 1.687-.516 1.094-.578 2.547-.078 1.453.344 2.531.421 1.063 1.28 1.625.876.563 2.095.563.53 0 1.062-.125.531-.125.875-.344l.219.688q-.36.218-.969.359-.594.156-1.203.156-1.469 0-2.531-.656-1.047-.656-1.578-1.906-.516-1.235-.454-2.89.079-1.61.72-2.891.655-1.297 1.765-2 1.125-.704 2.515-.704 1.47 0 2.5.657 1.047.656 1.547 1.906.516 1.234.453 2.89zm-6.015.5q-.078.828.156 1.28.235.438.75.438.36 0 .672-.297.328-.296.547-.859v-.047l.265-2.953q-.328-.172-.703-.172-.672 0-1.125.703-.453.688-.562 1.906zm14.094 2.437h-1.079v-7.219l-2.187.797v-.984l3.11-1.172h.156V107zm3.578-.563q0-.28.156-.468.172-.188.5-.188.344 0 .516.188.171.187.171.469 0 .265-.171.453-.172.171-.516.171-.328 0-.5-.171-.156-.188-.156-.454zm6.422.563h-1.079v-7.219l-2.187.797v-.984l3.11-1.172h.156V107zm3.937-4.281l.438-4.25h4.375v1h-3.454l-.265 2.328q.64-.375 1.437-.375 1.157 0 1.844.781.688.766.688 2.078 0 1.313-.72 2.078-.702.766-1.984.766-1.125 0-1.843-.625-.719-.64-.813-1.75h1.016q.11.734.531 1.11.422.374 1.11.374.75 0 1.187-.515.438-.516.438-1.422 0-.86-.47-1.375-.468-.516-1.25-.516-.702 0-1.109.297l-.28.234-.876-.218zm16.094 3.156q-.438.625-1.219.938-.781.312-1.812.312-1.032 0-1.844-.484-.813-.5-1.25-1.407-.438-.906-.453-2.093v-.735q0-1.937.89-3 .907-1.062 2.532-1.062 1.343 0 2.156.687.812.688 1 1.938h-1.125q-.328-1.688-2.016-1.688-1.14 0-1.718.797-.579.781-.594 2.297v.688q0 1.437.656 2.296.656.844 1.781.844.625 0 1.094-.14.484-.141.797-.485v-1.906h-1.969v-.922h3.094v3.125zm8.25 1.125h-1.125v-3.938h-4.313V107h-1.125v-8.531h1.125v3.672h4.313v-3.672h1.125V107zm3.297-.89h3.703v.89h-5.031v-.797l3.5-4.64h-3.454v-.907h4.813v.766l-3.531 4.687zm7.937-2.579q0-1.312.344-2.531.36-1.219 1.063-2.219.703-1 1.468-1.406l.219.719q-.86.656-1.406 2-.547 1.344-.594 3.015l-.016.5q0 2.266.828 3.922.5 1 1.188 1.563l-.219.656q-.781-.422-1.5-1.453-1.375-1.984-1.375-4.766zm10.485.766q-.157 1.344-1 2.094-.844.734-2.235.734-1.515 0-2.422-1.078-.906-1.094-.906-2.922v-.813q0-1.187.422-2.093.422-.906 1.203-1.39.781-.485 1.797-.485 1.36 0 2.172.765.828.766.969 2.094h-1.125q-.157-1.016-.641-1.469-.484-.453-1.375-.453-1.078 0-1.688.797-.609.797-.609 2.266v.828q0 1.39.578 2.219.578.812 1.625.812.938 0 1.438-.422.5-.437.672-1.484h1.125zm7.734-5.828v5.797q-.016 1.203-.766 1.984-.75.766-2.03.86l-.313.015q-1.391 0-2.235-.75-.828-.766-.828-2.094V98.47h1.11v5.781q0 .922.5 1.438.515.515 1.453.515.968 0 1.468-.516.5-.515.5-1.437v-5.781h1.141zm1.984 8.531v-8.531h2.422q1.11 0 1.953.5.86.484 1.328 1.39.47.907.47 2.094v.531q0 1.22-.47 2.125-.453.907-1.328 1.391-.859.484-2 .5h-2.375zm1.125-7.61v6.688h1.188q1.297 0 2.015-.797.735-.812.735-2.312v-.5q0-1.453-.688-2.25-.672-.813-1.937-.828h-1.313zm11.594 5.376h-3.578l-.797 2.234h-1.156l3.25-8.531h.984l3.266 8.531h-1.156l-.813-2.234zm-3.234-.922h2.906l-1.453-3.985-1.453 3.985zm9.562 3.89h-.922l3.563-9.265h.922l-3.563 9.265zm11.938-9.265v.906h-.203q-1.266.031-2.016.766-.75.718-.875 2.03.688-.765 1.844-.765 1.11 0 1.781.781.672.782.672 2.032 0 1.312-.719 2.11-.719.796-1.937.796-1.22 0-1.985-.938-.75-.953-.75-2.437v-.406q0-2.36 1-3.61t2.985-1.265h.203zm-1.422 3.844q-.563 0-1.031.328-.47.328-.657.843v.391q0 1.063.47 1.703.484.64 1.187.64.734 0 1.156-.53.422-.547.422-1.422 0-.875-.422-1.407-.422-.546-1.125-.546zm8.734 1.828h1.188v.875h-1.188V107h-1.078v-1.984h-3.89v-.641l3.812-5.906h1.156v5.672zm-3.734 0h2.656v-4.188l-.14.234-2.516 3.954zm8.531-.329h-2.86v-.874h2.86v.874zm6.11.094q0 1.453-.672 2.344-.657.875-1.782.875-1.203 0-1.859-.86l-.063.735h-.984v-9h1.078v3.36q.657-.813 1.813-.813t1.812.875q.657.86.657 2.39v.094zm-1.079-.125q0-1.11-.437-1.703-.422-.61-1.219-.61-1.078 0-1.547.985v2.75q.5 1 1.547 1 .781 0 1.219-.61.437-.609.437-1.812zM1427.8 107h-1.078v-6.344h1.078V107zm-1.172-8.016q0-.265.156-.453.172-.187.485-.187.312 0 .468.187.172.188.172.453 0 .25-.172.438-.156.172-.468.172-.313 0-.485-.172-.156-.188-.156-.438zm4.469.141v1.531h1.172v.844h-1.172v3.922q0 .39.156.578.156.188.531.188.188 0 .516-.063V107q-.422.125-.828.125-.719 0-1.094-.438-.375-.453-.375-1.265V101.5h-1.156v-.844h1.156v-1.531h1.094zm5.734 8.61h-.922l3.563-9.266h.922l-3.563 9.265zm14.516-.735h-1.125v-3.938h-4.313V107h-1.125v-8.531h1.125v3.672h4.313v-3.672h1.125V107zm1.984-3.234q0-.922.36-1.672.375-.75 1.03-1.14.657-.407 1.485-.407 1.297 0 2.094.89.813.891.813 2.391v.078q0 .922-.36 1.656-.36.735-1.015 1.157-.657.406-1.516.406-1.281 0-2.094-.89-.797-.907-.797-2.391v-.078zm1.094.14q0 1.047.484 1.688.5.64 1.313.64.828 0 1.312-.64.485-.656.485-1.828 0-1.032-.5-1.672-.485-.656-1.313-.656-.797 0-1.297.64-.484.625-.484 1.828zm7.672-4.781v1.531h1.172v.844h-1.172v3.922q0 .39.156.578.156.188.531.188.188 0 .516-.063V107q-.422.125-.828.125-.719 0-1.094-.438-.375-.453-.375-1.265V101.5h-1.156v-.844h1.156v-1.531h1.094zm5.203 4.078q-1.438-.422-2.11-1.031-.656-.61-.656-1.5 0-1 .797-1.656.813-.672 2.11-.672.875 0 1.562.344.688.343 1.063.937.39.594.39 1.313h-1.14q0-.782-.5-1.22-.485-.437-1.375-.437-.829 0-1.297.375-.469.36-.469 1 0 .531.438.89.453.36 1.515.657 1.063.297 1.656.656.61.36.891.844.297.484.297 1.125 0 1.047-.813 1.672-.812.625-2.156.625-.89 0-1.656-.344-.75-.344-1.172-.922-.406-.593-.406-1.328h1.125q0 .766.578 1.219.578.453 1.531.453.89 0 1.36-.36.468-.374.468-1 0-.624-.437-.968-.438-.344-1.594-.672zm4.031.563q0-.922.36-1.672.375-.75 1.03-1.14.657-.407 1.485-.407 1.297 0 2.094.89.813.891.813 2.391v.078q0 .922-.36 1.656-.36.735-1.015 1.157-.657.406-1.516.406-1.281 0-2.094-.89-.797-.907-.797-2.391v-.078zm1.094.14q0 1.047.484 1.688.5.64 1.313.64.828 0 1.312-.64.485-.656.485-1.828 0-1.032-.5-1.672-.485-.656-1.313-.656-.797 0-1.297.64-.484.625-.484 1.828zm9.266-2.281q-.25-.031-.532-.031-1.078 0-1.453.906v4.5h-1.078v-6.344h1.047l.016.735q.53-.844 1.515-.844.313 0 .485.078v1zm2.406-2.5v1.531h1.172v.844h-1.172v3.922q0 .39.156.578.156.188.531.188.188 0 .516-.063V107q-.422.125-.828.125-.719 0-1.094-.438-.375-.453-.375-1.265V101.5h-1.156v-.844h1.156v-1.531h1.094zm5.031 4.469q0 1.312-.344 2.515-.343 1.188-1.062 2.204-.703 1.015-1.469 1.437l-.234-.656q.906-.688 1.453-2.14.547-1.47.562-3.235v-.188q0-1.234-.265-2.297-.25-1.062-.719-1.89-.453-.844-1.031-1.313l.234-.656q.766.422 1.469 1.422.703 1 1.047 2.219.36 1.203.36 2.578z"/>
  <path stroke="red" stroke-width="4" stroke-linecap="butt" d="M1183.8 127.5h12"/>
  <path fill="#757575" d="M1211.3 128.016q0 1.234-.39 2.125-.391.89-1.094 1.39l1.515 1.203-.765.703-1.797-1.421q-.422.109-.89.109-1 0-1.782-.5-.781-.5-1.219-1.406-.422-.922-.437-2.14v-.61q0-1.235.421-2.172.438-.938 1.22-1.438.78-.515 1.78-.515 1.032 0 1.813.5.781.5 1.203 1.437.422.938.422 2.188v.547zm-1.125-.563q0-1.5-.594-2.312-.593-.829-1.718-.829-1.063 0-1.672.813-.61.813-.625 2.25v.64q0 1.454.609 2.298.61.843 1.703.843 1.094 0 1.688-.781.593-.797.609-2.281v-.64zm6.36 3.922q-.626.75-1.86.75-1.016 0-1.547-.594-.531-.594-.531-1.75v-4.125h1.078v4.094q0 1.453 1.172 1.453 1.25 0 1.656-.937v-4.61h1.094V132h-1.031l-.032-.625zm7 .625q-.094-.188-.157-.672-.75.797-1.797.797-.937 0-1.547-.531-.593-.531-.593-1.36 0-.984.75-1.53.75-.548 2.125-.548h1.046v-.5q0-.562-.343-.89-.328-.344-1-.344-.578 0-.969.297-.39.281-.39.703h-1.094q0-.484.328-.922.343-.438.922-.688.578-.265 1.265-.265 1.11 0 1.719.547.625.547.656 1.5v2.922q0 .875.219 1.39V132h-1.14zm-1.798-.828q.516 0 .97-.266.452-.265.655-.687v-1.297h-.843q-2 0-2 1.172 0 .5.343.797.344.28.875.28zm4.625-2.39q0-1.47.688-2.345.688-.89 1.813-.89 1.109 0 1.765.75V123h1.078v9h-1l-.047-.688q-.656.813-1.812.813-1.094 0-1.797-.906-.688-.906-.688-2.36v-.078zm1.079.124q0 1.078.437 1.688.453.61 1.235.61 1.03 0 1.515-.938v-2.907q-.484-.89-1.5-.89-.797 0-1.25.61-.437.609-.437 1.827zm9.25-2.281q-.25-.031-.532-.031-1.078 0-1.453.906v4.5h-1.078v-6.344h1.047l.016.735q.53-.844 1.515-.844.313 0 .485.078v1zm.64 2.14q0-.921.36-1.671.375-.75 1.03-1.14.657-.407 1.485-.407 1.297 0 2.094.89.813.891.813 2.391v.078q0 .922-.36 1.656-.36.735-1.015 1.157-.657.406-1.516.406-1.281 0-2.094-.89-.797-.907-.797-2.391v-.078zm1.094.141q0 1.047.484 1.688.5.64 1.313.64.828 0 1.312-.64.485-.656.485-1.828 0-1.032-.5-1.672-.485-.656-1.313-.656-.797 0-1.297.64-.484.625-.484 1.828zm10.813-5.437l2.796 6.953 2.782-6.953h1.468V132h-1.125v-3.328l.11-3.578-2.813 6.906h-.86l-2.796-6.89.11 3.562V132h-1.126v-8.531h1.453zm11.828 8.531h-1.079v-7.219l-2.187.797v-.984l3.11-1.172h.156V132zm9.03 0h-5.593v-.781l2.953-3.281q.657-.75.907-1.204.25-.468.25-.968 0-.672-.407-1.094-.39-.438-1.078-.438-.797 0-1.25.47-.453.452-.453 1.28h-1.078q0-1.187.75-1.906.765-.734 2.031-.734 1.203 0 1.89.625.688.625.688 1.672 0 1.25-1.61 3l-2.28 2.468h4.28V132zm6.766-3.64q0 1.906-.656 2.843-.64.922-2.031.922-1.36 0-2.016-.906-.656-.906-.687-2.719v-1.438q0-1.89.64-2.796.657-.922 2.047-.922 1.375 0 2.032.89.656.875.671 2.72v1.405zm-1.093-1.485q0-1.375-.39-2-.376-.64-1.22-.64-.828 0-1.218.64-.375.625-.375 1.922v1.734q0 1.375.39 2.047.407.656 1.219.656.797 0 1.188-.625.39-.625.406-1.953v-1.781zm8.093 1.484q0 1.907-.656 2.844-.64.922-2.031.922-1.36 0-2.016-.906-.656-.906-.687-2.719v-1.438q0-1.89.64-2.796.657-.922 2.047-.922 1.375 0 2.032.89.656.875.671 2.72v1.405zm-1.093-1.484q0-1.375-.39-2-.376-.64-1.22-.64-.828 0-1.218.64-.375.625-.375 1.922v1.734q0 1.375.39 2.047.407.656 1.219.656.797 0 1.188-.625.39-.625.406-1.953v-1.781zm15.218 2.188q-.078 1.406-.718 2.234-.625.828-1.688.828-1.093 0-1.406-1-.313.5-.719.75-.406.25-.843.25-.829 0-1.266-.688-.422-.687-.313-1.875.094-.968.438-1.718.36-.766.922-1.203.562-.438 1.172-.438.484 0 .859.125t.844.5l-.313 3.25q-.11 1.344.75 1.344.672 0 1.078-.656.407-.657.438-1.703.125-2.282-.844-3.47-.953-1.202-2.906-1.202-1.188 0-2.11.578-.906.578-1.437 1.687-.516 1.094-.578 2.547-.078 1.453.344 2.531.421 1.063 1.28 1.625.876.563 2.095.563.53 0 1.062-.125.531-.125.875-.344l.219.688q-.36.218-.969.359-.594.156-1.203.156-1.469 0-2.531-.656-1.047-.656-1.578-1.906-.516-1.235-.454-2.89.079-1.61.72-2.892.655-1.296 1.765-2 1.125-.703 2.515-.703 1.47 0 2.5.657 1.047.656 1.547 1.906.516 1.234.453 2.89zm-6.015.5q-.078.828.156 1.28.235.438.75.438.36 0 .672-.297.328-.297.547-.859v-.047l.265-2.953q-.328-.172-.703-.172-.672 0-1.125.703-.453.688-.562 1.906zm14.094 2.437h-1.079v-7.219l-2.187.797v-.984l3.11-1.172h.156V132zm3.578-.563q0-.28.156-.468.172-.188.5-.188.344 0 .516.188.171.187.171.469 0 .265-.171.453-.172.172-.516.172-.328 0-.5-.172-.156-.188-.156-.453zm6.422.563h-1.079v-7.219l-2.187.797v-.984l3.11-1.172h.156V132zm3.937-4.281l.438-4.25h4.375v1h-3.454l-.265 2.328q.64-.375 1.437-.375 1.157 0 1.844.781.688.766.688 2.078 0 1.313-.72 2.078-.702.766-1.984.766-1.125 0-1.843-.625-.719-.64-.813-1.75h1.016q.11.734.531 1.11.422.374 1.11.374.75 0 1.187-.515.438-.516.438-1.422 0-.86-.47-1.375-.468-.516-1.25-.516-.702 0-1.109.297l-.28.234-.876-.218zm16.094 3.156q-.438.625-1.219.938-.781.312-1.812.312-1.032 0-1.844-.484-.813-.5-1.25-1.407-.438-.906-.453-2.093v-.735q0-1.937.89-3 .907-1.062 2.532-1.062 1.343 0 2.156.687.812.688 1 1.938h-1.125q-.328-1.688-2.016-1.688-1.14 0-1.718.797-.579.781-.594 2.297v.688q0 1.437.656 2.296.656.844 1.781.844.625 0 1.094-.14.484-.141.797-.485v-1.906h-1.969v-.922h3.094v3.125zm8.25 1.125h-1.125v-3.938h-4.313V132h-1.125v-8.531h1.125v3.672h4.313v-3.672h1.125V132zm3.297-.89h3.703v.89h-5.031v-.797l3.5-4.64h-3.454v-.907h4.813v.766l-3.531 4.687zm7.937-2.579q0-1.312.344-2.531.36-1.219 1.063-2.219.703-1 1.468-1.406l.219.719q-.86.656-1.406 2-.547 1.344-.594 3.015l-.016.5q0 2.266.828 3.922.5 1 1.188 1.563l-.219.656q-.781-.422-1.5-1.453-1.375-1.984-1.375-4.766zm7.032 1.969l2.437-7.031h1.234l-3.172 8.531h-.984l-3.156-8.531h1.219l2.421 7.031zm11.187-7.031v5.797q-.016 1.203-.766 1.984-.75.766-2.03.86l-.313.015q-1.391 0-2.235-.75-.828-.766-.828-2.094v-5.812h1.11v5.781q0 .922.5 1.438.515.515 1.453.515.968 0 1.468-.516.5-.515.5-1.437v-5.781h1.141zm3.125 7.61h4.047V132h-5.188v-8.531h1.141v7.61zm7.031-3.048l-1.047 1.078V132h-1.125v-8.531h1.125v4.219l3.797-4.22h1.36l-3.36 3.766 3.625 4.766h-1.343l-3.032-3.969zm10.547 1.735h-3.578l-.797 2.234h-1.156l3.25-8.531h.984l3.266 8.531h-1.156l-.813-2.234zm-3.234-.922h2.906l-1.453-3.985-1.453 3.985zm13.078 3.156h-1.125l-4.297-6.578V132h-1.14v-8.531h1.14l4.297 6.61v-6.61h1.125V132zm5.484.734h-.922l3.563-9.265h.922l-3.563 9.265zm11.938-9.265v.906h-.203q-1.266.031-2.016.766-.75.718-.875 2.03.688-.765 1.844-.765 1.11 0 1.781.781.672.782.672 2.032 0 1.312-.719 2.11-.719.796-1.937.796-1.22 0-1.985-.938-.75-.953-.75-2.437v-.406q0-2.36 1-3.61t2.985-1.265h.203zm-1.422 3.844q-.563 0-1.031.328-.47.328-.657.843v.391q0 1.063.47 1.703.484.64 1.187.64.734 0 1.156-.53.422-.547.422-1.422 0-.875-.422-1.407-.422-.546-1.125-.546zm8.734 1.828h1.188v.875h-1.188V132h-1.078v-1.984h-3.89v-.641l3.812-5.906h1.156v5.672zm-3.734 0h2.656v-4.188l-.14.234-2.516 3.954zm8.531-.328h-2.86v-.875h2.86v.874zm6.11.093q0 1.453-.672 2.344-.657.875-1.782.875-1.203 0-1.859-.86l-.063.735h-.984v-9h1.078v3.36q.657-.813 1.813-.813t1.812.875q.657.86.657 2.39v.094zm-1.079-.125q0-1.11-.437-1.703-.422-.61-1.219-.61-1.078 0-1.547.985v2.75q.5 1 1.547 1 .781 0 1.219-.61.437-.609.437-1.812zM1442.8 132h-1.078v-6.344h1.078V132zm-1.172-8.016q0-.265.156-.453.172-.187.485-.187.312 0 .468.187.172.188.172.453 0 .25-.172.438-.156.172-.468.172-.313 0-.485-.172-.156-.188-.156-.438zm4.469.141v1.531h1.172v.844h-1.172v3.922q0 .39.156.578.156.188.531.188.188 0 .516-.063V132q-.422.125-.828.125-.719 0-1.094-.438-.375-.453-.375-1.265V126.5h-1.156v-.844h1.156v-1.531h1.094zm5.734 8.61h-.922l3.563-9.266h.922l-3.563 9.265zm14.516-.735h-1.125v-3.938h-4.313V132h-1.125v-8.531h1.125v3.672h4.313v-3.672h1.125V132zm1.984-3.234q0-.922.36-1.672.375-.75 1.03-1.14.657-.407 1.485-.407 1.297 0 2.094.89.813.891.813 2.391v.078q0 .922-.36 1.656-.36.735-1.015 1.157-.657.406-1.516.406-1.281 0-2.094-.89-.797-.907-.797-2.391v-.078zm1.094.14q0 1.047.484 1.688.5.64 1.313.64.828 0 1.312-.64.485-.656.485-1.828 0-1.032-.5-1.672-.485-.656-1.313-.656-.797 0-1.297.64-.484.625-.484 1.828zm7.672-4.781v1.531h1.172v.844h-1.172v3.922q0 .39.156.578.156.188.531.188.188 0 .516-.063V132q-.422.125-.828.125-.719 0-1.094-.438-.375-.453-.375-1.265V126.5h-1.156v-.844h1.156v-1.531h1.094zm5.203 4.078q-1.438-.422-2.11-1.031-.656-.61-.656-1.5 0-1 .797-1.656.813-.672 2.11-.672.875 0 1.562.344.688.343 1.063.937.39.594.39 1.313h-1.14q0-.782-.5-1.22-.485-.437-1.375-.437-.829 0-1.297.375-.469.36-.469 1 0 .531.438.89.453.36 1.515.657 1.063.297 1.656.656.61.36.891.844.297.484.297 1.125 0 1.047-.813 1.672-.812.625-2.156.625-.89 0-1.656-.344-.75-.344-1.172-.922-.406-.593-.406-1.328h1.125q0 .766.578 1.219.578.453 1.531.453.89 0 1.36-.36.468-.374.468-1 0-.624-.437-.968-.438-.344-1.594-.672zm4.031.563q0-.922.36-1.672.375-.75 1.03-1.14.657-.407 1.485-.407 1.297 0 2.094.89.813.891.813 2.391v.078q0 .922-.36 1.656-.36.735-1.015 1.157-.657.406-1.516.406-1.281 0-2.094-.89-.797-.907-.797-2.391v-.078zm1.094.14q0 1.047.484 1.688.5.64 1.313.64.828 0 1.312-.64.485-.656.485-1.828 0-1.032-.5-1.672-.485-.656-1.313-.656-.797 0-1.297.64-.484.625-.484 1.828zm9.266-2.281q-.25-.031-.532-.031-1.078 0-1.453.906v4.5h-1.078v-6.344h1.047l.016.735q.53-.844 1.515-.844.313 0 .485.078v1zm2.406-2.5v1.531h1.172v.844h-1.172v3.922q0 .39.156.578.156.188.531.188.188 0 .516-.063V132q-.422.125-.828.125-.719 0-1.094-.438-.375-.453-.375-1.265V126.5h-1.156v-.844h1.156v-1.531h1.094zm5.031 4.469q0 1.312-.344 2.515-.343 1.188-1.062 2.203-.703 1.016-1.469 1.438l-.234-.656q.906-.688 1.453-2.14.547-1.47.562-3.235v-.188q0-1.234-.265-2.297-.25-1.062-.719-1.89-.453-.844-1.031-1.313l.234-.656q.766.422 1.469 1.422.703 1 1.047 2.219.36 1.203.36 2.578z"/>
  <path stroke="#00f" stroke-width="4" stroke-linecap="butt" d="M1183.8 152.5h12"/>
  <path fill="#757575" d="M1211.3 153.016q0 1.234-.39 2.125-.391.89-1.094 1.39l1.515 1.203-.765.703-1.797-1.421q-.422.109-.89.109-1 0-1.782-.5-.781-.5-1.219-1.406-.422-.922-.437-2.14v-.61q0-1.235.421-2.172.438-.938 1.22-1.438.78-.515 1.78-.515 1.032 0 1.813.5.781.5 1.203 1.437.422.938.422 2.188v.547zm-1.125-.563q0-1.5-.594-2.312-.593-.828-1.718-.828-1.063 0-1.672.812-.61.813-.625 2.25v.64q0 1.454.609 2.298.61.843 1.703.843 1.094 0 1.688-.781.593-.797.609-2.281v-.64zm6.36 3.922q-.626.75-1.86.75-1.016 0-1.547-.594-.531-.594-.531-1.75v-4.125h1.078v4.094q0 1.453 1.172 1.453 1.25 0 1.656-.937v-4.61h1.094V157h-1.031l-.032-.625zm7 .625q-.094-.188-.157-.672-.75.797-1.797.797-.937 0-1.547-.531-.593-.531-.593-1.36 0-.984.75-1.53.75-.548 2.125-.548h1.046v-.5q0-.562-.343-.89-.328-.344-1-.344-.578 0-.969.297-.39.281-.39.703h-1.094q0-.484.328-.922.343-.438.922-.688.578-.265 1.265-.265 1.11 0 1.719.547.625.547.656 1.5v2.922q0 .875.219 1.39V157h-1.14zm-1.798-.828q.516 0 .97-.266.452-.265.655-.687v-1.297h-.843q-2 0-2 1.172 0 .5.343.797.344.28.875.28zm4.625-2.39q0-1.47.688-2.345.688-.89 1.813-.89 1.109 0 1.765.75V148h1.078v9h-1l-.047-.688q-.656.813-1.812.813-1.094 0-1.797-.906-.688-.906-.688-2.36v-.078zm1.079.124q0 1.078.437 1.688.453.61 1.235.61 1.03 0 1.515-.938v-2.907q-.484-.89-1.5-.89-.797 0-1.25.61-.437.608-.437 1.827zm9.25-2.281q-.25-.031-.532-.031-1.078 0-1.453.906v4.5h-1.078v-6.344h1.047l.016.735q.53-.844 1.515-.844.313 0 .485.078v1zm.64 2.14q0-.921.36-1.671.375-.75 1.03-1.14.657-.407 1.485-.407 1.297 0 2.094.89.813.891.813 2.391v.078q0 .922-.36 1.656-.36.735-1.015 1.157-.657.406-1.516.406-1.281 0-2.094-.89-.797-.907-.797-2.391v-.078zm1.094.141q0 1.047.484 1.688.5.64 1.313.64.828 0 1.312-.64.485-.656.485-1.828 0-1.032-.5-1.672-.485-.656-1.313-.656-.797 0-1.297.64-.484.625-.484 1.828zm10.813-5.437l2.796 6.953 2.782-6.953h1.468V157h-1.125v-3.328l.11-3.578-2.813 6.906h-.86l-2.796-6.89.11 3.562V157h-1.126v-8.531h1.453zm11.828 8.531h-1.079v-7.219l-2.187.797v-.984l3.11-1.172h.156V157zm9.03 0h-5.593v-.781l2.953-3.281q.657-.75.907-1.204.25-.468.25-.968 0-.672-.407-1.094-.39-.438-1.078-.438-.797 0-1.25.47-.453.452-.453 1.28h-1.078q0-1.187.75-1.906.765-.734 2.031-.734 1.203 0 1.89.625.688.625.688 1.672 0 1.25-1.61 3l-2.28 2.468h4.28V157zm6.766-3.64q0 1.906-.656 2.843-.64.922-2.031.922-1.36 0-2.016-.906-.656-.906-.687-2.719v-1.438q0-1.89.64-2.796.657-.922 2.047-.922 1.375 0 2.032.89.656.875.671 2.72v1.405zm-1.093-1.485q0-1.375-.39-2-.376-.64-1.22-.64-.828 0-1.218.64-.375.625-.375 1.922v1.734q0 1.375.39 2.047.407.656 1.219.656.797 0 1.188-.625.39-.625.406-1.953v-1.781zm8.093 1.484q0 1.907-.656 2.844-.64.922-2.031.922-1.36 0-2.016-.906-.656-.906-.687-2.719v-1.438q0-1.89.64-2.796.657-.922 2.047-.922 1.375 0 2.032.89.656.875.671 2.72v1.405zm-1.093-1.484q0-1.375-.39-2-.376-.64-1.22-.64-.828 0-1.218.64-.375.625-.375 1.922v1.734q0 1.375.39 2.047.407.656 1.219.656.797 0 1.188-.625.39-.625.406-1.953v-1.781zm15.218 2.188q-.078 1.406-.718 2.234-.625.828-1.688.828-1.093 0-1.406-1-.313.5-.719.75-.406.25-.843.25-.829 0-1.266-.688-.422-.687-.313-1.875.094-.968.438-1.718.36-.766.922-1.203.562-.438 1.172-.438.484 0 .859.125t.844.5l-.313 3.25q-.11 1.344.75 1.344.672 0 1.078-.656.407-.657.438-1.703.125-2.282-.844-3.47-.953-1.202-2.906-1.202-1.188 0-2.11.578-.906.578-1.437 1.687-.516 1.094-.578 2.547-.078 1.453.344 2.531.421 1.063 1.28 1.625.876.563 2.095.563.53 0 1.062-.125.531-.125.875-.344l.219.688q-.36.218-.969.359-.594.156-1.203.156-1.469 0-2.531-.656-1.047-.656-1.578-1.906-.516-1.235-.454-2.89.079-1.61.72-2.892.655-1.296 1.765-2 1.125-.703 2.515-.703 1.47 0 2.5.657 1.047.656 1.547 1.906.516 1.234.453 2.89zm-6.015.5q-.078.828.156 1.28.235.438.75.438.36 0 .672-.297.328-.297.547-.859v-.047l.265-2.953q-.328-.172-.703-.172-.672 0-1.125.703-.453.688-.562 1.906zm14.094 2.437h-1.079v-7.219l-2.187.797v-.984l3.11-1.172h.156V157zm3.578-.563q0-.28.156-.468.172-.188.5-.188.344 0 .516.188.171.187.171.469 0 .265-.171.453-.172.172-.516.172-.328 0-.5-.172-.156-.188-.156-.453zm6.422.563h-1.079v-7.219l-2.187.797v-.984l3.11-1.172h.156V157zm3.937-4.281l.438-4.25h4.375v1h-3.454l-.265 2.328q.64-.375 1.437-.375 1.157 0 1.844.781.688.766.688 2.078 0 1.313-.72 2.078-.702.766-1.984.766-1.125 0-1.843-.625-.719-.64-.813-1.75h1.016q.11.734.531 1.11.422.374 1.11.374.75 0 1.187-.515.438-.516.438-1.422 0-.86-.47-1.375-.468-.516-1.25-.516-.702 0-1.109.297l-.28.234-.876-.218zm16.094 3.156q-.438.625-1.219.938-.781.312-1.812.312-1.032 0-1.844-.484-.813-.5-1.25-1.407-.438-.906-.453-2.093v-.735q0-1.937.89-3 .907-1.062 2.532-1.062 1.343 0 2.156.687.812.688 1 1.938h-1.125q-.328-1.688-2.016-1.688-1.14 0-1.718.797-.579.781-.594 2.297v.688q0 1.437.656 2.296.656.844 1.781.844.625 0 1.094-.14.484-.141.797-.485v-1.906h-1.969v-.922h3.094v3.125zm8.25 1.125h-1.125v-3.938h-4.313V157h-1.125v-8.531h1.125v3.672h4.313v-3.672h1.125V157zm3.297-.89h3.703v.89h-5.031v-.797l3.5-4.64h-3.454v-.907h4.813v.766l-3.531 4.687zm7.937-2.579q0-1.312.344-2.531.36-1.219 1.063-2.219.703-1 1.468-1.406l.219.719q-.86.656-1.406 2-.547 1.344-.594 3.015l-.016.5q0 2.266.828 3.922.5 1 1.188 1.563l-.219.656q-.781-.422-1.5-1.453-1.375-1.984-1.375-4.766zm10.485.766q-.157 1.344-1 2.094-.844.734-2.235.734-1.515 0-2.422-1.078-.906-1.094-.906-2.922v-.813q0-1.187.422-2.093.422-.906 1.203-1.39.781-.485 1.797-.485 1.36 0 2.172.765.828.766.969 2.094h-1.125q-.157-1.016-.641-1.469-.484-.453-1.375-.453-1.078 0-1.688.797-.609.797-.609 2.266v.828q0 1.39.578 2.219.578.812 1.625.812.938 0 1.438-.422.5-.437.672-1.484h1.125zm7.734-5.828v5.797q-.016 1.203-.766 1.984-.75.766-2.03.86l-.313.015q-1.391 0-2.235-.75-.828-.766-.828-2.094v-5.812h1.11v5.781q0 .922.5 1.438.515.515 1.453.515.968 0 1.468-.516.5-.515.5-1.437v-5.781h1.141zm1.984 8.531v-8.531h2.422q1.11 0 1.953.5.86.484 1.328 1.39.47.907.47 2.094v.531q0 1.22-.47 2.125-.453.907-1.328 1.391-.859.484-2 .5h-2.375zm1.125-7.61v6.688h1.188q1.297 0 2.015-.797.735-.812.735-2.312v-.5q0-1.453-.688-2.25-.672-.813-1.937-.828h-1.313zm11.594 5.376h-3.578l-.797 2.234h-1.156l3.25-8.531h.984l3.266 8.531h-1.156l-.813-2.234zm-3.234-.922h2.906l-1.453-3.985-1.453 3.985zm9.562 3.89h-.922l3.563-9.265h.922l-3.563 9.265zm11.938-9.265v.906h-.203q-1.266.031-2.016.766-.75.718-.875 2.03.688-.765 1.844-.765 1.11 0 1.781.781.672.782.672 2.032 0 1.312-.719 2.11-.719.796-1.937.796-1.22 0-1.985-.938-.75-.953-.75-2.437v-.406q0-2.36 1-3.61t2.985-1.265h.203zm-1.422 3.844q-.563 0-1.031.328-.47.328-.657.843v.391q0 1.063.47 1.703.484.64 1.187.64.734 0 1.156-.53.422-.547.422-1.422 0-.875-.422-1.407-.422-.547-1.125-.547zm8.734 1.828h1.188v.875h-1.188V157h-1.078v-1.984h-3.89v-.641l3.812-5.906h1.156v5.672zm-3.734 0h2.656v-4.188l-.14.234-2.516 3.954zm8.531-.328h-2.86v-.875h2.86v.875zm6.11.093q0 1.453-.672 2.344-.657.875-1.782.875-1.203 0-1.859-.86l-.063.735h-.984v-9h1.078v3.36q.657-.813 1.813-.813t1.812.875q.657.86.657 2.39v.094zm-1.079-.125q0-1.11-.437-1.703-.422-.61-1.219-.61-1.078 0-1.547.985v2.75q.5 1 1.547 1 .781 0 1.219-.61.437-.609.437-1.812zM1427.8 157h-1.078v-6.344h1.078V157zm-1.172-8.016q0-.265.156-.453.172-.187.485-.187.312 0 .468.187.172.188.172.453 0 .25-.172.438-.156.172-.468.172-.313 0-.485-.172-.156-.188-.156-.438zm4.469.141v1.531h1.172v.844h-1.172v3.922q0 .39.156.578.156.188.531.188.188 0 .516-.063V157q-.422.125-.828.125-.719 0-1.094-.438-.375-.453-.375-1.265V151.5h-1.156v-.844h1.156v-1.531h1.094zm5.734 8.61h-.922l3.563-9.266h.922l-3.563 9.265zm13.86-8.344h-2.75V157h-1.11v-7.61h-2.75v-.921h6.61v.922zm2.015 2.03q.719-.874 1.875-.874 2.016 0 2.032 2.266V157h-1.094v-4.203q0-.672-.313-1-.297-.328-.953-.328-.531 0-.937.281-.391.281-.61.734V157h-1.078v-9h1.078v3.422zm8.985.204q-.25-.031-.532-.031-1.078 0-1.453.906v4.5h-1.078v-6.344h1.047l.016.735q.53-.844 1.515-.844.313 0 .485.078v1zm4.843 4.75q-.625.75-1.859.75-1.016 0-1.547-.594-.531-.594-.531-1.75v-4.125h1.078v4.094q0 1.453 1.172 1.453 1.25 0 1.656-.937v-4.61h1.094V157h-1.031l-.032-.625zm6.782-1.063q0-.437-.344-.671-.328-.25-1.156-.422-.813-.172-1.297-.422-.485-.25-.719-.578-.219-.344-.219-.813 0-.781.657-1.312.656-.547 1.687-.547 1.078 0 1.734.562.672.547.672 1.407h-1.078q0-.438-.39-.75-.376-.328-.938-.328-.594 0-.938.265-.328.25-.328.656 0 .391.313.594.312.203 1.125.39.812.173 1.312.423t.735.609q.25.36.25.86 0 .859-.688 1.374-.672.516-1.75.516-.765 0-1.36-.266-.577-.28-.905-.765-.329-.485-.329-1.047h1.079q.03.547.437.875.406.312 1.078.312.61 0 .985-.25t.375-.672zm3.78-6.187v1.531h1.173v.844h-1.172v3.922q0 .39.156.578.156.188.531.188.188 0 .516-.063V157q-.422.125-.828.125-.719 0-1.094-.438-.375-.453-.375-1.265V151.5h-1.156v-.844h1.156v-1.531h1.094zm8.204 4.078q-1.438-.422-2.11-1.031-.656-.61-.656-1.5 0-1 .797-1.656.813-.672 2.11-.672.875 0 1.562.344.688.343 1.063.937.39.594.39 1.313h-1.14q0-.782-.5-1.22-.485-.437-1.375-.437-.829 0-1.297.375-.469.36-.469 1 0 .531.438.89.453.36 1.515.657 1.063.297 1.656.656.61.36.891.844.297.484.297 1.125 0 1.047-.813 1.672-.812.625-2.156.625-.89 0-1.656-.344-.75-.344-1.172-.922-.406-.593-.406-1.328h1.125q0 .766.578 1.219.578.453 1.531.453.89 0 1.36-.36.468-.374.468-1 0-.624-.437-.968-.438-.344-1.594-.672zm4.031.563q0-.922.36-1.672.375-.75 1.03-1.14.657-.407 1.485-.407 1.297 0 2.094.89.813.891.813 2.391v.078q0 .922-.36 1.656-.36.735-1.015 1.157-.657.406-1.516.406-1.281 0-2.094-.89-.797-.907-.797-2.391v-.078zm1.094.14q0 1.047.484 1.688.5.64 1.313.64.828 0 1.312-.64.485-.656.485-1.828 0-1.032-.5-1.672-.485-.656-1.313-.656-.797 0-1.297.64-.484.625-.484 1.828zm9.266-2.281q-.25-.031-.532-.031-1.078 0-1.453.906v4.5h-1.078v-6.344h1.047l.016.735q.53-.844 1.515-.844.313 0 .485.078v1zm2.406-2.5v1.531h1.172v.844h-1.172v3.922q0 .39.156.578.156.188.531.188.188 0 .516-.063V157q-.422.125-.828.125-.719 0-1.094-.438-.375-.453-.375-1.265V151.5h-1.156v-.844h1.156v-1.531h1.094zm5.031 4.469q0 1.312-.344 2.515-.343 1.188-1.062 2.203-.703 1.016-1.469 1.438l-.234-.656q.906-.688 1.453-2.14.547-1.47.562-3.235v-.188q0-1.234-.265-2.297-.25-1.062-.719-1.89-.453-.844-1.031-1.313l.234-.656q.766.422 1.469 1.422.703 1 1.047 2.219.36 1.203.36 2.578z"/>
  <path stroke="#f0f" stroke-width="4" stroke-linecap="butt" d="M1183.8 177.5h12"/>
  <path fill="#757575" d="M1211.3 178.016q0 1.234-.39 2.125-.391.89-1.094 1.39l1.515 1.203-.765.703-1.797-1.421q-.422.109-.89.109-1 0-1.782-.5-.781-.5-1.219-1.406-.422-.922-.437-2.14v-.61q0-1.235.421-2.172.438-.938 1.22-1.438.78-.515 1.78-.515 1.032 0 1.813.5.781.5 1.203 1.437.422.938.422 2.188v.547zm-1.125-.563q0-1.5-.594-2.312-.593-.828-1.718-.828-1.063 0-1.672.812-.61.813-.625 2.25v.64q0 1.454.609 2.298.61.843 1.703.843 1.094 0 1.688-.781.593-.797.609-2.281v-.64zm6.36 3.922q-.626.75-1.86.75-1.016 0-1.547-.594-.531-.594-.531-1.75v-4.125h1.078v4.094q0 1.453 1.172 1.453 1.25 0 1.656-.937v-4.61h1.094V182h-1.031l-.032-.625zm7 .625q-.094-.188-.157-.672-.75.797-1.797.797-.937 0-1.547-.531-.593-.531-.593-1.36 0-.984.75-1.53.75-.548 2.125-.548h1.046v-.5q0-.562-.343-.89-.328-.344-1-.344-.578 0-.969.297-.39.281-.39.703h-1.094q0-.484.328-.922.343-.438.922-.688.578-.265 1.265-.265 1.11 0 1.719.547.625.547.656 1.5v2.922q0 .875.219 1.39V182h-1.14zm-1.798-.828q.516 0 .97-.266.452-.265.655-.687v-1.297h-.843q-2 0-2 1.172 0 .5.343.797.344.28.875.28zm4.625-2.39q0-1.47.688-2.345.688-.89 1.813-.89 1.109 0 1.765.75V173h1.078v9h-1l-.047-.688q-.656.813-1.812.813-1.094 0-1.797-.906-.688-.906-.688-2.36v-.078zm1.079.124q0 1.078.437 1.688.453.61 1.235.61 1.03 0 1.515-.938v-2.907q-.484-.89-1.5-.89-.797 0-1.25.61-.437.608-.437 1.827zm9.25-2.281q-.25-.031-.532-.031-1.078 0-1.453.906v4.5h-1.078v-6.344h1.047l.016.735q.53-.844 1.515-.844.313 0 .485.078v1zm.64 2.14q0-.921.36-1.671.375-.75 1.03-1.14.657-.407 1.485-.407 1.297 0 2.094.89.813.891.813 2.391v.078q0 .922-.36 1.656-.36.735-1.015 1.157-.657.406-1.516.406-1.281 0-2.094-.89-.797-.907-.797-2.391v-.078zm1.094.141q0 1.047.484 1.688.5.64 1.313.64.828 0 1.312-.64.485-.656.485-1.828 0-1.032-.5-1.672-.485-.656-1.313-.656-.797 0-1.297.64-.484.625-.484 1.828zm10.813-5.437l2.796 6.953 2.782-6.953h1.468V182h-1.125v-3.328l.11-3.578-2.813 6.906h-.86l-2.796-6.89.11 3.562V182h-1.126v-8.531h1.453zm11.828 8.531h-1.079v-7.219l-2.187.797v-.984l3.11-1.172h.156V182zm9.03 0h-5.593v-.781l2.953-3.281q.657-.75.907-1.204.25-.468.25-.968 0-.672-.407-1.094-.39-.438-1.078-.438-.797 0-1.25.47-.453.452-.453 1.28h-1.078q0-1.187.75-1.906.765-.734 2.031-.734 1.203 0 1.89.625.688.625.688 1.672 0 1.25-1.61 3l-2.28 2.468h4.28V182zm6.766-3.64q0 1.906-.656 2.843-.64.922-2.031.922-1.36 0-2.016-.906-.656-.906-.687-2.719v-1.438q0-1.89.64-2.796.657-.922 2.047-.922 1.375 0 2.032.89.656.875.671 2.72v1.405zm-1.093-1.485q0-1.375-.39-2-.376-.64-1.22-.64-.828 0-1.218.64-.375.625-.375 1.922v1.734q0 1.375.39 2.047.407.656 1.219.656.797 0 1.188-.625.39-.625.406-1.953v-1.781zm8.093 1.484q0 1.907-.656 2.844-.64.922-2.031.922-1.36 0-2.016-.906-.656-.906-.687-2.719v-1.438q0-1.89.64-2.796.657-.922 2.047-.922 1.375 0 2.032.89.656.875.671 2.72v1.405zm-1.093-1.484q0-1.375-.39-2-.376-.64-1.22-.64-.828 0-1.218.64-.375.625-.375 1.922v1.734q0 1.375.39 2.047.407.656 1.219.656.797 0 1.188-.625.39-.625.406-1.953v-1.781zm15.218 2.188q-.078 1.406-.718 2.234-.625.828-1.688.828-1.093 0-1.406-1-.313.5-.719.75-.406.25-.843.25-.829 0-1.266-.688-.422-.687-.313-1.875.094-.968.438-1.718.36-.766.922-1.203.562-.438 1.172-.438.484 0 .859.125t.844.5l-.313 3.25q-.11 1.344.75 1.344.672 0 1.078-.656.407-.657.438-1.703.125-2.282-.844-3.47-.953-1.202-2.906-1.202-1.188 0-2.11.578-.906.578-1.437 1.687-.516 1.094-.578 2.547-.078 1.453.344 2.531.421 1.063 1.28 1.625.876.563 2.095.563.53 0 1.062-.125.531-.125.875-.344l.219.688q-.36.218-.969.359-.594.156-1.203.156-1.469 0-2.531-.656-1.047-.656-1.578-1.906-.516-1.235-.454-2.89.079-1.61.72-2.892.655-1.296 1.765-2 1.125-.703 2.515-.703 1.47 0 2.5.657 1.047.656 1.547 1.906.516 1.234.453 2.89zm-6.015.5q-.078.828.156 1.28.235.438.75.438.36 0 .672-.297.328-.297.547-.859v-.047l.265-2.953q-.328-.172-.703-.172-.672 0-1.125.703-.453.688-.562 1.906zm14.094 2.437h-1.079v-7.219l-2.187.797v-.984l3.11-1.172h.156V182zm3.578-.563q0-.28.156-.468.172-.188.5-.188.344 0 .516.188.171.187.171.469 0 .265-.171.453-.172.172-.516.172-.328 0-.5-.172-.156-.188-.156-.453zm6.422.563h-1.079v-7.219l-2.187.797v-.984l3.11-1.172h.156V182zm3.937-4.281l.438-4.25h4.375v1h-3.454l-.265 2.328q.64-.375 1.437-.375 1.157 0 1.844.781.688.766.688 2.078 0 1.313-.72 2.078-.702.766-1.984.766-1.125 0-1.843-.625-.719-.64-.813-1.75h1.016q.11.734.531 1.11.422.374 1.11.374.75 0 1.187-.515.438-.516.438-1.422 0-.86-.47-1.375-.468-.516-1.25-.516-.702 0-1.109.297l-.28.234-.876-.218zm16.094 3.156q-.438.625-1.219.938-.781.312-1.812.312-1.032 0-1.844-.484-.813-.5-1.25-1.407-.438-.906-.453-2.093v-.735q0-1.937.89-3 .907-1.062 2.532-1.062 1.343 0 2.156.687.812.688 1 1.938h-1.125q-.328-1.688-2.016-1.688-1.14 0-1.718.797-.579.781-.594 2.297v.688q0 1.437.656 2.296.656.844 1.781.844.625 0 1.094-.14.484-.141.797-.485v-1.906h-1.969v-.922h3.094v3.125zm8.25 1.125h-1.125v-3.938h-4.313V182h-1.125v-8.531h1.125v3.672h4.313v-3.672h1.125V182zm3.297-.89h3.703v.89h-5.031v-.797l3.5-4.64h-3.454v-.907h4.813v.766l-3.531 4.687zm7.937-2.579q0-1.312.344-2.531.36-1.219 1.063-2.219.703-1 1.468-1.406l.219.719q-.86.656-1.406 2-.547 1.344-.594 3.015l-.016.5q0 2.266.828 3.922.5 1 1.188 1.563l-.219.656q-.781-.422-1.5-1.453-1.375-1.984-1.375-4.766zm10.485.766q-.157 1.344-1 2.094-.844.734-2.235.734-1.515 0-2.422-1.078-.906-1.094-.906-2.922v-.813q0-1.187.422-2.093.422-.906 1.203-1.39.781-.485 1.797-.485 1.36 0 2.172.765.828.766.969 2.094h-1.125q-.157-1.016-.641-1.469-.484-.453-1.375-.453-1.078 0-1.688.797-.609.797-.609 2.266v.828q0 1.39.578 2.219.578.812 1.625.812.938 0 1.438-.422.5-.437.672-1.484h1.125zm7.734-5.828v5.797q-.016 1.203-.766 1.984-.75.766-2.03.86l-.313.015q-1.391 0-2.235-.75-.828-.766-.828-2.094v-5.812h1.11v5.781q0 .922.5 1.438.515.515 1.453.515.968 0 1.468-.516.5-.515.5-1.437v-5.781h1.141zm1.984 8.531v-8.531h2.422q1.11 0 1.953.5.86.484 1.328 1.39.47.907.47 2.094v.531q0 1.22-.47 2.125-.453.907-1.328 1.391-.859.484-2 .5h-2.375zm1.125-7.61v6.688h1.188q1.297 0 2.015-.797.735-.812.735-2.312v-.5q0-1.453-.688-2.25-.672-.813-1.937-.828h-1.313zm11.594 5.376h-3.578l-.797 2.234h-1.156l3.25-8.531h.984l3.266 8.531h-1.156l-.813-2.234zm-3.234-.922h2.906l-1.453-3.985-1.453 3.985zm9.562 3.89h-.922l3.563-9.265h.922l-3.563 9.265zm11.938-9.265v.906h-.203q-1.266.031-2.016.766-.75.718-.875 2.03.688-.765 1.844-.765 1.11 0 1.781.781.672.782.672 2.032 0 1.312-.719 2.11-.719.796-1.937.796-1.22 0-1.985-.938-.75-.953-.75-2.437v-.406q0-2.36 1-3.61t2.985-1.265h.203zm-1.422 3.844q-.563 0-1.031.328-.47.328-.657.843v.391q0 1.063.47 1.703.484.64 1.187.64.734 0 1.156-.53.422-.547.422-1.422 0-.875-.422-1.407-.422-.547-1.125-.547zm8.734 1.828h1.188v.875h-1.188V182h-1.078v-1.984h-3.89v-.641l3.812-5.906h1.156v5.672zm-3.734 0h2.656v-4.188l-.14.234-2.516 3.954zm8.531-.328h-2.86v-.875h2.86v.875zm6.11.093q0 1.453-.672 2.344-.657.875-1.782.875-1.203 0-1.859-.86l-.063.735h-.984v-9h1.078v3.36q.657-.813 1.813-.813t1.812.875q.657.86.657 2.39v.094zm-1.079-.125q0-1.11-.437-1.703-.422-.61-1.219-.61-1.078 0-1.547.985v2.75q.5 1 1.547 1 .781 0 1.219-.61.437-.609.437-1.812zM1427.8 182h-1.078v-6.344h1.078V182zm-1.172-8.016q0-.265.156-.453.172-.187.485-.187.312 0 .468.187.172.188.172.453 0 .25-.172.438-.156.172-.468.172-.313 0-.485-.172-.156-.188-.156-.438zm4.469.141v1.531h1.172v.844h-1.172v3.922q0 .39.156.578.156.188.531.188.188 0 .516-.063V182q-.422.125-.828.125-.719 0-1.094-.438-.375-.453-.375-1.265V176.5h-1.156v-.844h1.156v-1.531h1.094zm5.734 8.61h-.922l3.563-9.266h.922l-3.563 9.265zm14.235-3.438q-.157 1.344-1 2.094-.844.734-2.235.734-1.515 0-2.422-1.078-.906-1.094-.906-2.922v-.813q0-1.187.422-2.093.422-.906 1.203-1.39.781-.485 1.797-.485 1.36 0 2.172.765.828.766.969 2.094h-1.125q-.157-1.016-.641-1.469-.484-.453-1.375-.453-1.078 0-1.688.797-.609.797-.609 2.266v.828q0 1.39.578 2.219.578.812 1.625.812.938 0 1.438-.422.5-.437.672-1.484h1.125zm7.734-5.828v5.797q-.016 1.203-.766 1.984-.75.766-2.03.86l-.313.015q-1.391 0-2.235-.75-.828-.766-.828-2.094v-5.812h1.11v5.781q0 .922.5 1.438.515.515 1.453.515.968 0 1.468-.516.5-.515.5-1.437v-5.781h1.141zm1.984 8.531v-8.531h2.797q1.39 0 2.078.578.703.562.703 1.687 0 .61-.343 1.078-.328.454-.922.704.703.187 1.094.734.406.531.406 1.281 0 1.156-.75 1.813-.735.656-2.094.656h-2.969zm1.125-3.984v3.062h1.86q.797 0 1.25-.406.453-.406.453-1.125 0-1.531-1.688-1.531h-1.875zm0-.907h1.703q.735 0 1.172-.359.453-.375.453-1.016 0-.703-.406-1.015-.406-.328-1.25-.328h-1.672v2.718zm12.016 1.438h-2.016V182h-1.125v-8.531h2.828q1.438 0 2.204.656.78.656.78 1.906 0 .797-.437 1.39-.422.595-1.187.892l2 3.609V182h-1.203l-1.844-3.453zm-2.016-.922h1.735q.843 0 1.328-.422.5-.437.5-1.172 0-.781-.469-1.203-.469-.422-1.36-.437h-1.734v3.234zm9.625 4.375q-.093-.188-.156-.672-.75.797-1.797.797-.937 0-1.547-.531-.593-.531-.593-1.36 0-.984.75-1.53.75-.548 2.125-.548h1.046v-.5q0-.562-.343-.89-.328-.344-1-.344-.578 0-.969.297-.39.281-.39.703h-1.094q0-.484.328-.922.343-.438.922-.688.578-.265 1.265-.265 1.11 0 1.719.547.625.547.656 1.5v2.922q0 .875.219 1.39V182h-1.14zm-1.797-.828q.516 0 .97-.266.452-.265.655-.687v-1.297h-.843q-2 0-2 1.172 0 .5.343.797.344.28.875.28zm4.625-2.39q0-1.47.688-2.345.688-.89 1.813-.89 1.109 0 1.765.75V173h1.078v9h-1l-.047-.688q-.656.813-1.812.813-1.094 0-1.797-.906-.688-.906-.688-2.36v-.078zm1.079.124q0 1.078.437 1.688.453.61 1.235.61 1.03 0 1.515-.938v-2.907q-.484-.89-1.5-.89-.797 0-1.25.61-.437.608-.437 1.827zM1492.8 182h-1.078v-6.344h1.078V182zm-1.172-8.016q0-.265.156-.453.172-.187.485-.187.312 0 .468.187.172.188.172.453 0 .25-.172.438-.156.172-.468.172-.313 0-.485-.172-.156-.188-.156-.438zm5.125 3.985l1.406-2.313h1.266l-2.078 3.14 2.14 3.204h-1.25l-1.468-2.375L1495.3 182h-1.266l2.141-3.203-2.063-3.14h1.25l1.391 2.312zm9.547.234q-1.438-.422-2.11-1.031-.656-.61-.656-1.5 0-1 .797-1.656.813-.672 2.11-.672.875 0 1.562.344.688.343 1.063.937.39.594.39 1.313h-1.14q0-.782-.5-1.22-.485-.437-1.375-.437-.829 0-1.297.375-.469.36-.469 1 0 .531.438.89.453.36 1.515.657 1.063.297 1.656.656.61.36.891.844.297.484.297 1.125 0 1.047-.813 1.672-.812.625-2.156.625-.89 0-1.656-.344-.75-.344-1.172-.922-.406-.593-.406-1.328h1.125q0 .766.578 1.219.578.453 1.531.453.89 0 1.36-.36.468-.374.468-1 0-.624-.437-.968-.438-.344-1.594-.672zm4.031.563q0-.922.36-1.672.375-.75 1.03-1.14.657-.407 1.485-.407 1.297 0 2.094.89.813.891.813 2.391v.078q0 .922-.36 1.656-.36.735-1.015 1.157-.657.406-1.516.406-1.281 0-2.094-.89-.797-.907-.797-2.391v-.078zm1.094.14q0 1.047.484 1.688.5.64 1.313.64.828 0 1.312-.64.485-.656.485-1.828 0-1.032-.5-1.672-.485-.656-1.313-.656-.797 0-1.297.64-.484.625-.484 1.828zm9.266-2.281q-.25-.031-.532-.031-1.078 0-1.453.906v4.5h-1.078v-6.344h1.047l.016.735q.53-.844 1.515-.844.313 0 .485.078v1zm2.406-2.5v1.531h1.172v.844h-1.172v3.922q0 .39.156.578.156.188.531.188.188 0 .516-.063V182q-.422.125-.828.125-.719 0-1.094-.438-.375-.453-.375-1.265V176.5h-1.156v-.844h1.156v-1.531h1.094zm5.031 4.469q0 1.312-.344 2.515-.343 1.188-1.062 2.203-.703 1.016-1.469 1.438l-.234-.656q.906-.688 1.453-2.14.547-1.47.562-3.235v-.188q0-1.234-.265-2.297-.25-1.062-.719-1.89-.453-.844-1.031-1.313l.234-.656q.766.422 1.469 1.422.703 1 1.047 2.219.36 1.203.36 2.578z"/>
  <path fill="#000" d="M53.84 65.2h-3.39V53.372H37.544V65.2h-3.375V39.606h3.375v11H50.45v-11h3.39V65.2zm4.954-9.688q0-2.796 1.094-5.03 1.109-2.235 3.062-3.438 1.969-1.219 4.484-1.219 3.875 0 6.282 2.687 2.406 2.688 2.406 7.157v.234q0 2.781-1.078 4.984-1.063 2.204-3.047 3.438-1.969 1.234-4.531 1.234-3.86 0-6.266-2.687-2.406-2.703-2.406-7.125v-.235zm3.281.391q0 3.156 1.469 5.078 1.469 1.922 3.922 1.922 2.484 0 3.937-1.937 1.453-1.954 1.453-5.454 0-3.125-1.484-5.062-1.484-1.953-3.938-1.953-2.406 0-3.89 1.922-1.469 1.906-1.469 5.484zm23-14.328v4.61h3.547V48.7h-3.547v11.781q0 1.156.469 1.735.484.562 1.625.562.562 0 1.547-.219V65.2q-1.282.36-2.5.36-2.172 0-3.282-1.313-1.109-1.328-1.109-3.766V48.7h-3.469v-2.516h3.469v-4.609h3.25zm15.64 12.219q-4.343-1.25-6.328-3.063-1.968-1.828-1.968-4.5 0-3.015 2.406-5 2.422-1.984 6.297-1.984 2.625 0 4.687 1.031 2.079 1.016 3.204 2.813 1.14 1.78 1.14 3.921h-3.39q0-2.328-1.485-3.656-1.469-1.328-4.156-1.328-2.5 0-3.906 1.11-1.391 1.093-1.391 3.046 0 1.563 1.328 2.641t4.516 1.984q3.187.891 4.984 1.97 1.813 1.077 2.672 2.53.875 1.438.875 3.391 0 3.11-2.422 4.984-2.422 1.875-6.484 1.875-2.64 0-4.922-1.015-2.281-1.016-3.531-2.766-1.235-1.766-1.235-4h3.39q0 2.328 1.72 3.672 1.718 1.344 4.578 1.344 2.672 0 4.094-1.094 1.421-1.094 1.421-2.969 0-1.875-1.328-2.906-1.312-1.031-4.765-2.031zm12.079 1.718q0-2.796 1.094-5.03 1.109-2.235 3.062-3.438 1.969-1.219 4.484-1.219 3.875 0 6.282 2.687 2.406 2.688 2.406 7.157v.234q0 2.781-1.078 4.984-1.063 2.204-3.047 3.438-1.969 1.234-4.531 1.234-3.86 0-6.266-2.687-2.406-2.703-2.406-7.125v-.235zm3.281.391q0 3.156 1.469 5.078 1.469 1.922 3.922 1.922 2.484 0 3.937-1.937 1.453-1.954 1.453-5.454 0-3.125-1.484-5.062-1.484-1.953-3.938-1.953-2.406 0-3.89 1.922-1.469 1.906-1.469 5.484zm27.781-6.812q-.734-.11-1.594-.11-3.203 0-4.343 2.719v13.5h-3.25V46.184h3.156l.047 2.188q1.61-2.547 4.547-2.547.937 0 1.437.25v3.016zm7.219-7.516v4.61h3.547V48.7h-3.547v11.781q0 1.156.469 1.735.484.562 1.625.562.562 0 1.547-.219V65.2q-1.282.36-2.5.36-2.172 0-3.282-1.313-1.109-1.328-1.109-3.766V48.7h-3.469v-2.516h3.469v-4.609h3.25zm34.781.812h-8.234V65.2h-3.344V42.387h-8.219v-2.78h19.797v2.78zm6.063 6.094q2.156-2.656 5.625-2.656 6.031 0 6.078 6.812V65.2h-3.25V52.606q-.016-2.047-.938-3.031-.922-.984-2.875-.984-1.593 0-2.797.843-1.187.844-1.843 2.22V65.2h-3.25v-27h3.25v10.281zm25.937.61q-.734-.11-1.594-.11-3.203 0-4.343 2.719v13.5h-3.25V46.184h3.156l.047 2.188q1.61-2.547 4.547-2.547.937 0 1.437.25v3.016zm1.938 6.421q0-2.796 1.093-5.03 1.11-2.235 3.063-3.438 1.969-1.219 4.484-1.219 3.875 0 6.282 2.687 2.406 2.688 2.406 7.157v.234q0 2.781-1.078 4.984-1.063 2.204-3.047 3.438-1.969 1.234-4.531 1.234-3.86 0-6.266-2.687-2.406-2.703-2.406-7.125v-.235zm3.281.391q0 3.156 1.469 5.078 1.468 1.922 3.922 1.922 2.484 0 3.937-1.937 1.453-1.954 1.453-5.454 0-3.125-1.484-5.062-1.485-1.953-3.938-1.953-2.406 0-3.89 1.922-1.469 1.906-1.469 5.484zm30.328 7.422q-1.89 2.234-5.578 2.234-3.031 0-4.625-1.765-1.594-1.782-1.61-5.235V46.184h3.25v12.282q0 4.328 3.516 4.328 3.735 0 4.953-2.782V46.184h3.266V65.2h-3.094l-.078-1.875zm7.484-7.797q0-4.437 2.047-7.062 2.063-2.641 5.453-2.641 3.485 0 5.438 2.469l.156-2.11h2.969v18.563q0 3.687-2.188 5.812-2.187 2.125-5.875 2.125-2.062 0-4.03-.875-1.97-.875-3-2.406l1.687-1.953q2.094 2.578 5.11 2.578 2.374 0 3.702-1.344 1.328-1.328 1.328-3.75v-1.64q-1.953 2.265-5.328 2.265-3.344 0-5.406-2.687-2.063-2.703-2.063-7.344zm3.266.375q0 3.219 1.313 5.063 1.328 1.828 3.703 1.828 3.078 0 4.515-2.797v-8.688q-1.5-2.718-4.484-2.718-2.375 0-3.719 1.843-1.328 1.844-1.328 5.47zm20.766-7.422q2.156-2.656 5.625-2.656 6.031 0 6.078 6.812V65.2h-3.25V52.606q-.016-2.047-.938-3.031-.922-.984-2.875-.984-1.593 0-2.797.843-1.187.844-1.843 2.22V65.2h-3.25v-27h3.25v10.281zm32.812 7.422q0 4.344-1.984 7-1.985 2.656-5.39 2.656-3.454 0-5.438-2.203v9.157h-3.25V46.184h2.969l.156 2.11q1.984-2.469 5.515-2.469 3.422 0 5.422 2.594 2 2.578 2 7.187v.297zm-3.25-.375q0-3.219-1.375-5.078-1.375-1.86-3.765-1.86-2.954 0-4.422 2.61v9.094q1.453 2.61 4.453 2.61 2.344 0 3.719-1.86 1.39-1.86 1.39-5.516zm18.922 7.797q-1.89 2.234-5.578 2.234-3.031 0-4.625-1.765-1.594-1.782-1.61-5.235V46.184h3.25v12.282q0 4.328 3.516 4.328 3.735 0 4.953-2.782V46.184h3.266V65.2h-3.094l-.078-1.875zm12.672-21.75v4.61h3.547V48.7h-3.547v11.781q0 1.156.469 1.735.484.562 1.625.562.562 0 1.547-.219V65.2q-1.282.36-2.5.36-2.172 0-3.282-1.313-1.109-1.328-1.109-3.766V48.7h-3.469v-2.516h3.469v-4.609h3.25zm23.36 14.078h-8.579v-2.656h8.578v2.656zM401.84 65.2h-3.391l-12.89-19.719V65.2h-3.391V39.606h3.39l12.922 19.813V39.606h3.36V65.2zm14.796-4.484l7.313-21.11h3.703l-9.5 25.594h-2.984L405.7 39.606h3.672l7.265 21.11zm18.157 4.484h-3.375V39.606h3.375V65.2zm6.375 0V39.606h7.234q3.328 0 5.89 1.485 2.579 1.468 3.97 4.203 1.406 2.718 1.421 6.25v1.625q0 3.625-1.406 6.36-1.39 2.718-3.984 4.187-2.594 1.453-6.031 1.484h-7.094zm3.375-22.813v20.047h3.547q3.906 0 6.078-2.422 2.172-2.421 2.172-6.906v-1.5q0-4.36-2.047-6.765-2.047-2.422-5.813-2.454h-3.937zm24.25 22.813h-3.375V39.606h3.375V65.2zm20.515-6.688h-10.734l-2.406 6.688H472.7l9.766-25.594h2.953l9.797 25.594h-3.47l-2.437-6.688zm-9.703-2.765h8.703l-4.359-11.969-4.344 11.969zm33.828-.094h-8.578v-2.656h8.578v2.656zm24.657-16.062v2.75h-.594q-3.797.078-6.047 2.265-2.25 2.172-2.61 6.125 2.032-2.312 5.516-2.312 3.344 0 5.344 2.36 2 2.343 2 6.077 0 3.953-2.156 6.328-2.156 2.375-5.781 2.375-3.672 0-5.954-2.828-2.28-2.828-2.28-7.265v-1.25q0-7.063 3-10.797 3.015-3.75 8.984-3.828h.578zm-4.266 11.53q-1.672 0-3.078 1t-1.953 2.516v1.188q0 3.172 1.422 5.11 1.422 1.921 3.547 1.921 2.203 0 3.453-1.61 1.265-1.624 1.265-4.234 0-2.64-1.281-4.265-1.266-1.625-3.375-1.625zm25.234 5.485h3.547v2.656h-3.547V65.2h-3.265v-5.938h-11.656v-1.921l11.453-17.735h3.468v17zm-11.234 0h7.969V44.06l-.39.703-7.579 11.844zm24.61-.953h-8.579v-2.656h8.578v2.656zm19.328.25q0 4.36-2 7.016-2 2.64-5.375 2.64-3.61 0-5.579-2.562l-.156 2.203h-2.984v-27h3.25v10.078q1.969-2.453 5.422-2.453 3.468 0 5.437 2.625 1.985 2.61 1.985 7.172v.281zm-3.25-.375q0-3.312-1.282-5.125-1.281-1.812-3.687-1.812-3.219 0-4.625 2.984v8.234q1.484 2.985 4.656 2.985 2.328 0 3.625-1.813 1.313-1.812 1.313-5.453zM599.2 65.2h-3.25V46.184h3.25V65.2zm-3.516-24.063q0-.796.485-1.343.484-.547 1.422-.547.953 0 1.437.547.5.547.5 1.343 0 .782-.5 1.313-.484.531-1.437.531-.938 0-1.422-.531-.485-.531-.485-1.313zm13.391.438v4.61h3.547V48.7h-3.547v11.781q0 1.156.469 1.735.484.562 1.625.562.562 0 1.547-.219V65.2q-1.282.36-2.5.36-2.172 0-3.282-1.313-1.109-1.328-1.109-3.766V48.7h-3.469v-2.516h3.469v-4.609h3.25zm23.594 11.719l-3.125 3.25V65.2h-3.375V39.606h3.375v12.656l11.375-12.656h4.078l-10.078 11.297L645.794 65.2h-4.047l-9.078-11.906zm23.89 12.265q-3.875 0-6.296-2.547-2.422-2.546-2.422-6.796v-.594q0-2.828 1.078-5.047 1.078-2.234 3.015-3.484 1.954-1.266 4.22-1.266 3.702 0 5.75 2.453 2.062 2.438 2.062 6.984v1.36H651.09q.062 2.812 1.64 4.547 1.578 1.734 4 1.734 1.719 0 2.907-.703 1.203-.703 2.109-1.875l1.984 1.547q-2.39 3.687-7.172 3.687zm-.406-17.062q-1.969 0-3.312 1.437-1.328 1.438-1.641 4.016h9.516v-.25q-.141-2.469-1.344-3.828-1.188-1.375-3.219-1.375zm17.735 11.937l4.421-14.25h3.485l-7.64 21.954q-1.782 4.75-5.641 4.75l-.625-.063-1.204-.219v-2.64l.875.062q1.657 0 2.579-.672.921-.656 1.515-2.437l.719-1.938-6.781-18.797h3.547l4.75 14.25zm21.843-.28q0-1.313-1-2.048-.984-.734-3.453-1.25-2.469-.531-3.922-1.265-1.453-.75-2.14-1.766-.688-1.016-.688-2.422 0-2.344 1.969-3.953 1.984-1.625 5.062-1.625 3.235 0 5.235 1.672 2.015 1.672 2.015 4.265h-3.265q0-1.328-1.14-2.296-1.126-.97-2.845-.97-1.78 0-2.78.782-1 .766-1 2.016 0 1.172.921 1.781.938.594 3.375 1.14 2.438.547 3.938 1.297 1.515.75 2.234 1.829.734 1.062.734 2.578 0 2.562-2.047 4.11-2.03 1.53-5.28 1.53-2.282 0-4.048-.812-1.75-.813-2.75-2.266-.984-1.453-.984-3.14h3.25q.094 1.64 1.312 2.609 1.22.953 3.22.953 1.843 0 2.952-.75 1.125-.75 1.125-2z"/>
</svg>
